<?xml version="1.0" encoding="UTF-8" standalone="no"?>
<!-- Created with Inkscape (http://www.inkscape.org/) -->

<svg
   xmlns:dc="http://purl.org/dc/elements/1.1/"
   xmlns:cc="http://creativecommons.org/ns#"
   xmlns:rdf="http://www.w3.org/1999/02/22-rdf-syntax-ns#"
   xmlns:svg="http://www.w3.org/2000/svg"
   xmlns="http://www.w3.org/2000/svg"
   xmlns:sodipodi="http://sodipodi.sourceforge.net/DTD/sodipodi-0.dtd"
   xmlns:inkscape="http://www.inkscape.org/namespaces/inkscape"
   width="95.605637mm"
   height="97.137367mm"
   viewBox="0 0 95.605637 97.137368"
   version="1.1"
   id="svg845"
   inkscape:version="0.92.3 (2405546, 2018-03-11)"
   sodipodi:docname="esri_north_009_b.svg">
  <defs
     id="defs839" />
  <sodipodi:namedview
     id="base"
     pagecolor="#ffffff"
     bordercolor="#666666"
     borderopacity="1.0"
     inkscape:pageopacity="0.0"
     inkscape:pageshadow="2"
     inkscape:zoom="0.97458821"
     inkscape:cx="179.89397"
     inkscape:cy="153.32184"
     inkscape:document-units="mm"
     inkscape:current-layer="text1587"
     showgrid="false"
     inkscape:window-width="1366"
     inkscape:window-height="745"
     inkscape:window-x="0"
     inkscape:window-y="23"
     inkscape:window-maximized="1"
     fit-margin-top="0"
     fit-margin-left="0"
     fit-margin-right="0"
     fit-margin-bottom="0"
     showguides="true"
     inkscape:guide-bbox="true" />
  <metadata
     id="metadata842">
    <rdf:RDF>
      <cc:Work
         rdf:about="">
        <dc:format>image/svg+xml</dc:format>
        <dc:type
           rdf:resource="http://purl.org/dc/dcmitype/StillImage" />
        <dc:title></dc:title>
      </cc:Work>
    </rdf:RDF>
  </metadata>
  <g
     inkscape:label="Camada 1"
     inkscape:groupmode="layer"
     id="layer1"
     transform="translate(-0.51983076,-199.2665)">
    <g
       aria-label="2"
       style="font-style:normal;font-weight:normal;font-size:124.42774963px;line-height:1.25;font-family:sans-serif;letter-spacing:0px;word-spacing:0px;fill:#000000;fill-opacity:1;stroke:none;stroke-width:5.18448925"
       id="text1587">
      <g
         aria-label="9"
         style="font-style:normal;font-weight:normal;font-size:127.64437103px;line-height:1.25;font-family:sans-serif;letter-spacing:0px;word-spacing:0px;fill:#000000;fill-opacity:1;stroke:none;stroke-width:27.57378578"
         id="text1792">
        <path
           d="m 96.125465,248.1543 -9.956261,-3.4464 q -0.255289,-6.50986 -3.318754,-12.63679 -2.93582,-6.12693 -7.786307,-10.84977 -4.722841,-4.85049 -10.849771,-7.78631 -5.999286,-3.06347 -12.381504,-3.4464 l -3.318754,-10.72213 -3.574042,10.72213 q -6.892796,0.63822 -13.019726,3.57404 -6.12693,2.93582 -10.849772,7.65867 -4.595197,4.59519 -7.531017,10.72212 -2.808177,6.12693 -3.318754,13.14737 l -9.70097224,2.80818 9.70097224,3.4464 q 0.382933,6.76515 3.318754,12.76443 3.063465,5.99929 7.786306,10.59449 4.722842,4.59519 10.722127,7.53101 6.12693,2.80818 12.636793,3.4464 l 3.446398,10.72213 3.574043,-10.72213 q 6.892796,-0.63822 12.636792,-3.57404 l 0.510578,-0.25529 q 6.12693,-2.93582 11.10506,-8.04159 5.105775,-5.23342 7.658662,-11.74329 l 0.127645,-0.38293 q 2.04231,-4.46755 2.425243,-10.59448 z m -33.953403,30.12407 q -7.786307,2.93582 -13.913236,2.93582 -8.16924,0 -14.423814,-2.93582 l 8.296884,-15.57261 5.999285,17.99785 5.871641,-17.61492 z m 0.127644,-60.88637 -8.169239,15.70026 -5.999286,-18.25314 -5.871641,17.87021 -6.637507,-15.8279 q 6.12693,-2.55289 12.636793,-2.55289 3.701686,0 7.148084,0.89351 3.574043,0.76587 6.892796,2.16995 z m 19.529589,30.50701 q 0,5.99928 -2.297599,12.25386 l -16.593768,-6.38222 18.253145,-5.87164 q -1.021155,-0.25529 -2.297598,-0.51058 -1.276444,-0.38293 -3.318754,-1.02115 -2.04231,-0.76587 -5.105775,-1.78703 -2.93582,-1.14879 -7.403373,-2.80817 l 16.08319,-6.76515 q 2.680532,6.38222 2.680532,12.89208 z m -48.887794,5.87164 -15.955546,6.38222 q -2.297599,-5.48871 -2.297599,-12.25386 0,-7.02044 2.680532,-13.14737 l 15.827902,7.27573 -17.997857,5.87164 z m 2.169954,-36.76158 6.765152,16.08319 -16.976701,-8.55217 q 2.552887,5.744 4.595197,9.70097 2.04231,3.82933 3.956975,7.14809 l -15.955546,-7.14809 q 2.680532,-5.744 7.020441,-10.0839 4.467553,-4.46756 10.594482,-7.14809 z m 44.164953,43.65438 q -2.169955,5.61635 -7.275729,10.72212 -4.08462,4.08462 -9.190395,6.63751 l -8.296884,-15.44497 16.849057,8.42453 -8.552173,-16.72141 z m -46.079618,-6.38222 -8.296884,16.72141 16.593768,-8.29688 -8.16924,15.18968 q -2.425243,-1.27645 -4.722842,-2.80818 -2.169954,-1.65938 -4.212264,-3.70169 -2.425243,-2.2976 -4.212264,-4.97813 -1.659377,-2.68053 -2.935821,-5.61635 z m 45.824329,-19.78488 -16.083191,6.76515 q 2.935821,-5.61635 4.850486,-9.44568 1.914666,-3.95698 3.574043,-7.27573 l -16.593769,8.29688 8.041596,-15.18968 q 2.552887,1.27645 4.722842,2.93582 2.297598,1.65938 4.467553,3.57405 4.850486,5.23341 7.02044,10.33919 z m -15.317325,46.5902 q -7.148084,3.44639 -15.444968,3.44639 -4.850487,0 -8.679818,-0.89351 -3.829331,-0.89351 -7.275729,-2.68053 l 1.021155,-1.91466 q 3.318754,1.78702 7.020441,2.68053 3.829331,0.76586 7.913951,0.76586 8.296884,0 14.551458,-3.19111 z m 0,-66.50272 -0.89351,1.65937 q -6.382219,-3.31875 -13.275015,-3.31875 h -1.276443 q -4.850487,0 -7.658663,0.63822 -2.680532,0.63822 -5.488708,1.91467 l -0.765866,-1.78702 q 6.12693,-2.80818 13.657948,-2.80818 4.08462,0 8.16924,1.02116 4.084619,0.89351 7.531017,2.68053 z m 18.253145,18.63608 -1.914665,0.76586 Q 74.68121,222.62542 63.320861,216.49849 l 0.893511,-1.65937 q 12.636793,5.99928 17.742567,18.38079 z m -58.333477,-9.95626 q -4.595197,4.59519 -7.275729,10.33919 l -1.659377,-0.76587 q 2.680532,-6.12693 7.531018,-11.2327 4.97813,-5.23342 11.487993,-7.78631 l 0.765866,1.91467 q -3.063464,1.27644 -5.743996,3.19111 -2.552888,1.78702 -5.105775,4.33991 z m 61.524587,24.63536 q 0,7.27573 -2.552888,13.40266 l -0.510577,-0.12765 -1.404088,-0.76586 q 2.425243,-5.36107 2.425243,-12.50915 0,-4.08462 -0.765866,-7.14809 -0.638222,-3.19111 -2.04231,-6.25457 l 1.787021,-0.76587 q 3.063465,7.27573 3.063465,14.16853 z m -71.736137,0 q 0,3.70169 0.510578,6.89279 0.510577,3.06347 1.914665,5.87165 l -1.659377,0.63822 q -2.808176,-5.61635 -2.808176,-13.40266 0,-3.70169 0.765867,-7.27573 0.765866,-3.57404 2.169954,-7.27573 l 1.914665,0.89351 q -2.808176,5.61635 -2.808176,13.65795 z m 19.401945,30.88994 -1.021155,1.91466 q -5.871641,-2.93582 -10.339194,-7.7863 -4.467553,-4.85049 -7.148085,-10.97742 l 1.787021,-0.76587 q 2.425243,5.744 7.658662,10.97742 2.04231,2.16995 4.212265,3.82933 2.297598,1.53173 4.850486,2.80818 z m 49.526016,-16.9767 q -2.935821,6.50986 -8.16924,11.74328 -4.595198,4.59519 -9.956261,7.27573 l -0.893511,-1.78702 q 5.743997,-2.80818 10.21155,-7.53102 4.467553,-4.72284 6.892796,-10.46684 z m -29.48585,0.89351 -4.467553,13.65794 v -13.01972 z m -4.978131,-30.50701 q -2.425243,0 -4.467553,0.76587 l 4.467553,-13.78559 z m 28.975273,15.44497 H 63.831439 q 0,-1.02116 -0.127645,-2.04231 -0.127644,-1.02116 -0.638221,-2.42524 z m -33.825759,-4.5952 q -0.765866,0.76587 -1.404088,1.91467 -0.510577,1.02115 -0.510577,2.2976 h -4.339909 q 0,-4.21227 3.063465,-7.27573 z m -1.914665,18.63608 -13.019726,6.38222 9.06275,-8.93511 z m -7.658663,-9.06275 -13.913236,-4.46755 h 13.019726 q 0,2.80817 0.89351,4.46755 z m 34.719269,-25.0183 -9.318039,8.93511 q -1.148799,-1.53173 -3.701686,-2.68053 z m -8.424528,19.65724 H 55.40691 q -0.127644,-1.78702 -1.787021,-4.21227 l 3.063465,-3.06346 q 2.808176,3.06346 3.063465,7.27573 z m 0,1.1488 q -0.127644,4.08462 -3.063465,7.40337 l -3.063465,-3.19111 q 0.765866,-1.02115 1.148799,-1.91467 0.510578,-0.89351 0.638222,-2.29759 z m 8.935106,19.52958 -9.190395,-9.06275 q 1.787021,-1.78702 2.552888,-3.70168 z M 47.492959,259.387 q -4.339908,-0.38293 -7.275729,-2.93582 l 3.191109,-3.19111 q 1.021155,0.63822 2.04231,1.1488 1.021155,0.51058 2.04231,0.63822 z M 37.026121,237.04924 q -1.148799,0.76586 -2.552888,3.70168 l -6.509862,-12.89208 z m 18.891367,19.65723 q -3.191109,2.68053 -7.148085,2.80818 v -4.46756 q 2.04231,-0.12764 3.956976,-1.53173 z m -13.275015,-4.33991 -3.063465,3.19111 q -1.404088,-1.40409 -2.04231,-3.19111 -0.510577,-1.78702 -0.765866,-3.95697 h 4.339909 q 0,1.91466 1.531732,3.95697 z m 13.275015,-13.14737 -3.318754,2.93582 q -1.531732,-1.1488 -3.829331,-1.40409 v -4.46755 q 3.829331,0.38293 7.148085,2.93582 z m -8.424529,1.53173 q -2.425243,0.25529 -3.574042,1.40409 l -3.191109,-3.06346 q 2.425243,-2.42525 6.765151,-2.80818 z m 15.317325,6.50987 h -1.531733 q -0.638221,-4.46756 -3.574042,-8.16924 l 0.893511,-1.02116 q 3.446398,3.82933 4.212264,9.1904 z m 0,1.1488 q -0.510578,5.10577 -4.212264,9.31804 l -0.893511,-0.89352 q 1.659377,-1.78702 2.425243,-3.82933 0.893511,-2.16995 1.148799,-4.59519 z M 38.940786,238.9639 q -1.787021,1.78702 -2.680531,3.82933 -0.765867,2.04231 -1.021155,4.46756 h -1.404088 q 0.127644,-2.55289 1.148799,-4.85049 1.148799,-2.2976 2.93582,-4.33991 z m 18.763723,-1.78702 -0.893511,1.02116 q -1.787021,-1.40409 -3.701686,-2.16996 -1.914666,-0.76586 -4.339909,-1.02115 v -1.53174 q 2.680532,0.38294 4.850486,1.27645 2.169954,0.76586 4.08462,2.42524 z m 0,21.44426 q -4.212264,3.06346 -8.935106,3.57404 v -1.53173 q 4.850486,-0.63823 7.913951,-3.06347 z m -10.21155,-23.61421 q -4.595197,0.63822 -7.658662,3.06346 l -0.893511,-0.89351 q 1.787022,-1.65938 3.829332,-2.42524 2.169954,-0.89351 4.722841,-1.27645 z m 0,27.18825 q -4.850486,-0.63822 -8.935106,-3.95698 l 0.893511,-0.89351 q 1.787021,1.65938 3.701687,2.42525 1.914665,0.63822 4.339908,0.89351 z m -8.935106,-5.744 -0.89351,0.89351 q -3.19111,-3.57404 -3.829331,-8.9351 h 1.531732 q 0.127644,2.42524 0.765866,4.3399 0.765867,1.91467 2.425243,3.70169 z"
           style="font-style:normal;font-variant:normal;font-weight:normal;font-stretch:normal;font-family:'ESRI North';-inkscape-font-specification:'ESRI North, ';stroke-width:27.57378578;fill:#000000"
           id="path2246"
           inkscape:connector-curvature="0" />
      </g>
    </g>
  </g>
</svg>
