<?xml version="1.0" encoding="UTF-8" standalone="no"?>
<!-- Created with Inkscape (http://www.inkscape.org/) -->

<svg
   xmlns:dc="http://purl.org/dc/elements/1.1/"
   xmlns:cc="http://creativecommons.org/ns#"
   xmlns:rdf="http://www.w3.org/1999/02/22-rdf-syntax-ns#"
   xmlns:svg="http://www.w3.org/2000/svg"
   xmlns="http://www.w3.org/2000/svg"
   xmlns:sodipodi="http://sodipodi.sourceforge.net/DTD/sodipodi-0.dtd"
   xmlns:inkscape="http://www.inkscape.org/namespaces/inkscape"
   width="114.48"
   height="115.344"
   id="svg2"
   version="1.1"
   inkscape:version="0.48.2 r9819"
   sodipodi:docname="esri_1.svg">
  <defs
     id="defs4" />
  <sodipodi:namedview
     id="base"
     pagecolor="#ffffff"
     bordercolor="#666666"
     borderopacity="1.0"
     inkscape:pageopacity="0.0"
     inkscape:pageshadow="2"
     inkscape:zoom="2.1200443"
     inkscape:cx="21.98496"
     inkscape:cy="87.917158"
     inkscape:document-units="px"
     inkscape:current-layer="layer1"
     showgrid="false"
     fit-margin-top="0"
     fit-margin-left="0"
     fit-margin-right="0"
     fit-margin-bottom="0"
     inkscape:window-width="1366"
     inkscape:window-height="744"
     inkscape:window-x="0"
     inkscape:window-y="24"
     inkscape:window-maximized="1" />
  <metadata
     id="metadata7">
    <rdf:RDF>
      <cc:Work
         rdf:about="">
        <dc:format>image/svg+xml</dc:format>
        <dc:type
           rdf:resource="http://purl.org/dc/dcmitype/StillImage" />
        <dc:title></dc:title>
      </cc:Work>
    </rdf:RDF>
  </metadata>
  <g
     inkscape:label="Camada 1"
     inkscape:groupmode="layer"
     id="layer1"
     transform="translate(-621.18686,-98.870791)">
    <g
       id="g4909">
      <g
         id="text4895"
         style="font-size:144px;font-style:normal;font-variant:normal;font-weight:normal;font-stretch:normal;line-height:125%;letter-spacing:0px;word-spacing:0px;fill:#000000;fill-opacity:1;stroke:none;font-family:Arial;-inkscape-font-specification:Arial"
         transform="translate(585.33855,132.02839)">
        <path
           sodipodi:nodetypes="cccccccccccccccccccccccccc"
           inkscape:connector-curvature="0"
           id="path4900"
           style="font-family:ESRI North;-inkscape-font-specification:ESRI North"
           d="m 150.32831,24.730401 -45.648,11.52 -11.664001,45.936 -11.52,-45.936 -45.648,-11.52 45.504,-12.096 11.664,-45.792 11.520001,45.936 45.792,11.952 m -0.864,0 -44.928,-11.664 -11.520001,11.52 0,-57.024 -11.376,45.072 11.232,12.096 0.144,-0.144 0,0.144 56.448001,0 m -44.928,11.52 -11.520001,-11.52 0,56.736 11.520001,-45.216 m -11.664001,-11.52 -56.448,0 45.216,11.376 11.232,-11.376" />
      </g>
      <g
         id="text4902"
         style="font-size:144px;font-style:normal;font-variant:normal;font-weight:normal;font-stretch:normal;line-height:125%;letter-spacing:0px;word-spacing:0px;fill:#000000;fill-opacity:1;stroke:none;font-family:Arial;-inkscape-font-specification:Arial"
         transform="matrix(0.1331282,0,0,0.13627493,681.54627,98.602476)">
        <path
           inkscape:connector-curvature="0"
           id="path4907"
           d="m -166.38605,107.65757 0,-103.0781251 13.99219,0 54.140625,80.9296871 0,-80.9296871 13.078125,0 0,103.0781251 -13.992187,0 -54.140623,-81 0,81 -13.07813,0" />
      </g>
    </g>
  </g>
</svg>
