<?xml version="1.0" encoding="utf-8"?>
<!-- Generator: Adobe Illustrator 15.1.0, SVG Export Plug-In . SVG Version: 6.00 Build 0)  -->
<!DOCTYPE svg PUBLIC "-//W3C//DTD SVG 1.1//EN" "http://www.w3.org/Graphics/SVG/1.1/DTD/svg11.dtd">
<svg version="1.1" id="Layer_1" xmlns="http://www.w3.org/2000/svg" xmlns:xlink="http://www.w3.org/1999/xlink" x="0px" y="0px"
	 width="540px" height="545px" viewBox="0 0 540 545" enable-background="new 0 0 540 545" xml:space="preserve">
<g>
	<polygon fill="#FFFFFF" stroke="#000000" stroke-width="0.5" stroke-miterlimit="10" points="213.883,206.752 245.217,238.085 
		232.614,240.434 	"/>
	<polygon points="213.883,206.752 245.216,238.085 247.564,225.483 	"/>
</g>
<g>
	<polygon fill="#FFFFFF" stroke="#000000" stroke-width="0.5" stroke-miterlimit="10" points="213.882,333.92 245.215,302.586 
		247.564,315.188 	"/>
	<polygon points="213.882,333.92 245.215,302.586 232.614,300.238 	"/>
</g>
<g>
	<g>
		<g>
			<circle fill="#848484" cx="278.466" cy="271.604" r="130.854"/>
			<path fill="#FFFFFF" d="M278.466,370.458c-54.508,0-98.854-44.347-98.854-98.854s44.346-98.854,98.854-98.854
				c54.509,0,98.854,44.347,98.854,98.854S332.975,370.458,278.466,370.458z"/>
		</g>
		<g>
			<g>
				<g>
					<g>
						<polygon points="311.05,239.021 278.467,64.154 278.467,271.604 						"/>
					</g>
					<g>
						<polygon fill="#FFFFFF" points="245.883,239.021 278.467,64.154 278.467,271.604 						"/>
					</g>
				</g>
				<g>
					<polygon fill="#FFFFFF" stroke="#000000" stroke-width="0.5" stroke-miterlimit="10" points="342.383,207.688 311.05,239.021 
						308.701,226.419 					"/>
					<polygon points="342.383,207.688 311.05,239.021 323.651,241.369 					"/>
				</g>
			</g>
			<g>
				<g>
					<g>
						<polygon points="245.884,239.021 71.018,271.604 278.467,271.604 						"/>
					</g>
					<g>
						<polygon fill="#FFFFFF" points="245.884,304.188 71.018,271.604 278.467,271.604 						"/>
					</g>
				</g>
				<g>
					<polygon fill="#FFFFFF" stroke="#000000" stroke-width="0.5" stroke-miterlimit="10" points="214.551,207.688 245.884,239.021 
						233.282,241.369 					"/>
					<polygon points="214.551,207.688 245.884,239.021 248.232,226.419 					"/>
				</g>
			</g>
			<g>
				<g>
					<g>
						<polygon points="245.884,304.187 278.467,479.053 278.467,271.604 						"/>
					</g>
					<g>
						<polygon fill="#FFFFFF" points="311.051,304.187 278.467,479.053 278.467,271.604 						"/>
					</g>
				</g>
				<g>
					<polygon fill="#FFFFFF" stroke="#000000" stroke-width="0.5" stroke-miterlimit="10" points="214.551,335.52 245.884,304.187 
						248.232,316.788 					"/>
					<polygon points="214.551,335.52 245.884,304.187 233.282,301.838 					"/>
				</g>
			</g>
			<g>
				<g>
					<g>
						<polygon points="311.05,304.813 485.916,272.229 278.467,272.229 						"/>
					</g>
					<g>
						<polygon fill="#FFFFFF" points="311.05,239.646 485.916,272.229 278.467,272.229 						"/>
					</g>
				</g>
				<g>
					<polygon fill="#FFFFFF" stroke="#000000" stroke-width="0.5" stroke-miterlimit="10" points="342.383,336.146 311.05,304.813 
						323.651,302.464 					"/>
					<polygon points="342.383,336.146 311.05,304.813 308.701,317.414 					"/>
				</g>
			</g>
		</g>
	</g>
	<g>
		<g>
			<path fill="#00007B" d="M254.636,55.813V4.274h11.682l24.34,34.418V4.274h11.155v51.539h-12.048L265.79,22.204v33.609H254.636z"
				/>
		</g>
	</g>
	<g>
		<g>
			<path fill="#00007B" d="M253.765,523.043l11.682-0.984c0.703,3.398,2.131,5.895,4.28,7.488c2.149,1.595,5.05,2.391,8.701,2.391
				c3.867,0,6.78-0.708,8.741-2.127c1.961-1.418,2.941-3.076,2.941-4.975c0-1.218-0.412-2.255-1.236-3.111
				c-0.826-0.855-2.266-1.6-4.32-2.232c-1.407-0.422-4.611-1.172-9.615-2.25c-6.436-1.383-10.952-3.081-13.549-5.098
				c-3.65-2.835-5.476-6.293-5.476-10.371c0-2.624,0.858-5.08,2.575-7.365c1.718-2.285,4.192-4.025,7.424-5.221
				s7.133-1.793,11.703-1.793c7.465,0,13.082,1.419,16.855,4.254c3.772,2.836,5.753,6.622,5.942,11.355l-12.007,0.457
				c-0.515-2.648-1.617-4.553-3.307-5.713c-1.69-1.16-4.226-1.74-7.605-1.74c-3.488,0-6.221,0.621-8.194,1.863
				c-1.271,0.797-1.907,1.863-1.907,3.199c0,1.219,0.595,2.263,1.785,3.129c1.514,1.103,5.192,2.25,11.033,3.445
				c5.842,1.195,10.162,2.432,12.961,3.709c2.799,1.278,4.99,3.023,6.572,5.238s2.373,4.952,2.373,8.209
				c0,2.953-0.947,5.719-2.84,8.297c-1.893,2.579-4.57,4.495-8.031,5.748c-3.463,1.254-7.775,1.881-12.941,1.881
				c-7.518,0-13.291-1.506-17.32-4.518C256.954,533.198,254.548,528.809,253.765,523.043z"/>
		</g>
	</g>
	<g>
		<path fill="#00007B" d="M493.229,298.058V246.94h10.406v42.434h25.875v8.684H493.229z"/>
	</g>
	<g>
		<path fill="#00007B" d="M10.489,272.533c0-5.25,0.785-9.656,2.355-13.219c1.172-2.625,2.771-4.98,4.799-7.067
			c2.027-2.086,4.248-3.633,6.662-4.641c3.211-1.359,6.914-2.039,11.109-2.039c7.594,0,13.67,2.355,18.229,7.066
			c4.559,4.711,6.838,11.262,6.838,19.653c0,8.32-2.262,14.83-6.785,19.529s-10.57,7.049-18.141,7.049
			c-7.664,0-13.758-2.338-18.281-7.014S10.489,280.736,10.489,272.533z M21.212,272.182c0,5.836,1.348,10.26,4.043,13.271
			s6.117,4.518,10.266,4.518s7.553-1.494,10.213-4.482s3.99-7.471,3.99-13.447c0-5.906-1.295-10.313-3.885-13.219
			s-6.029-4.359-10.318-4.359s-7.746,1.471-10.371,4.412S21.212,266.252,21.212,272.182z"/>
	</g>
</g>
<g>
	<path fill="#00007B" d="M375.272,160.752v-34.359h6.75l14.063,22.945v-22.945h6.445v34.359h-6.961l-13.852-22.406v22.406H375.272z"
		/>
	<path fill="#00007B" d="M409.866,160.752v-34.359h25.477v5.813h-18.539v7.617h17.25v5.789h-17.25v9.352h19.195v5.789H409.866z"/>
</g>
<g>
	<path fill="#00007B" d="M103.612,163.752v-34.359h6.75l14.063,22.945v-22.945h6.445v34.359h-6.961l-13.852-22.406v22.406H103.612z"
		/>
	<path fill="#00007B" d="M136.8,146.783c0-3.5,0.523-6.438,1.57-8.813c0.781-1.75,1.848-3.32,3.199-4.711s2.832-2.422,4.441-3.094
		c2.141-0.906,4.609-1.359,7.406-1.359c5.063,0,9.113,1.57,12.152,4.711s4.559,7.508,4.559,13.102c0,5.547-1.508,9.887-4.523,13.02
		s-7.047,4.699-12.094,4.699c-5.109,0-9.172-1.559-12.188-4.676S136.8,152.252,136.8,146.783z M143.948,146.549
		c0,3.891,0.898,6.84,2.695,8.848s4.078,3.012,6.844,3.012s5.035-0.996,6.809-2.988s2.66-4.98,2.66-8.965
		c0-3.938-0.863-6.875-2.59-8.813s-4.02-2.906-6.879-2.906s-5.164,0.98-6.914,2.941S143.948,142.596,143.948,146.549z"/>
</g>
<g>
	<path fill="#00007B" d="M374.769,406.572l6.75-0.656c0.406,2.266,1.23,3.93,2.473,4.992s2.918,1.594,5.027,1.594
		c2.234,0,3.918-0.473,5.051-1.418s1.699-2.051,1.699-3.316c0-0.813-0.238-1.504-0.715-2.074s-1.309-1.066-2.496-1.488
		c-0.813-0.281-2.664-0.781-5.555-1.5c-3.719-0.922-6.328-2.055-7.828-3.398c-2.109-1.891-3.164-4.195-3.164-6.914
		c0-1.75,0.496-3.387,1.488-4.91s2.422-2.684,4.289-3.48s4.121-1.195,6.762-1.195c4.313,0,7.559,0.945,9.738,2.836
		s3.324,4.414,3.434,7.57l-6.938,0.305c-0.297-1.766-0.934-3.035-1.91-3.809s-2.441-1.16-4.395-1.16
		c-2.016,0-3.594,0.414-4.734,1.242c-0.734,0.531-1.102,1.242-1.102,2.133c0,0.813,0.344,1.508,1.031,2.086
		c0.875,0.734,3,1.5,6.375,2.297s5.871,1.621,7.488,2.473s2.883,2.016,3.797,3.492s1.371,3.301,1.371,5.473
		c0,1.969-0.547,3.813-1.641,5.531s-2.641,2.996-4.641,3.832s-4.492,1.254-7.477,1.254c-4.344,0-7.68-1.004-10.008-3.012
		S375.222,410.416,374.769,406.572z"/>
	<path fill="#00007B" d="M408.542,417.752v-34.359h25.477v5.813h-18.539v7.617h17.25v5.789h-17.25v9.352h19.195v5.789H408.542z"/>
</g>
<g>
	<path fill="#00007B" d="M109.108,397.572l6.75-0.656c0.406,2.266,1.23,3.93,2.473,4.992s2.918,1.594,5.027,1.594
		c2.234,0,3.918-0.473,5.051-1.418s1.699-2.051,1.699-3.316c0-0.813-0.238-1.504-0.715-2.074s-1.309-1.066-2.496-1.488
		c-0.813-0.281-2.664-0.781-5.555-1.5c-3.719-0.922-6.328-2.055-7.828-3.398c-2.109-1.891-3.164-4.195-3.164-6.914
		c0-1.75,0.496-3.387,1.488-4.91s2.422-2.684,4.289-3.48s4.121-1.195,6.762-1.195c4.313,0,7.559,0.945,9.738,2.836
		s3.324,4.414,3.434,7.57l-6.938,0.305c-0.297-1.766-0.934-3.035-1.91-3.809s-2.441-1.16-4.395-1.16
		c-2.016,0-3.594,0.414-4.734,1.242c-0.734,0.531-1.102,1.242-1.102,2.133c0,0.813,0.344,1.508,1.031,2.086
		c0.875,0.734,3,1.5,6.375,2.297s5.871,1.621,7.488,2.473s2.883,2.016,3.797,3.492s1.371,3.301,1.371,5.473
		c0,1.969-0.547,3.813-1.641,5.531s-2.641,2.996-4.641,3.832s-4.492,1.254-7.477,1.254c-4.344,0-7.68-1.004-10.008-3.012
		S109.562,401.416,109.108,397.572z"/>
	<path fill="#00007B" d="M141.476,391.783c0-3.5,0.523-6.438,1.57-8.813c0.781-1.75,1.848-3.32,3.199-4.711s2.832-2.422,4.441-3.094
		c2.141-0.906,4.609-1.359,7.406-1.359c5.063,0,9.113,1.57,12.152,4.711s4.559,7.508,4.559,13.102c0,5.547-1.508,9.887-4.523,13.02
		s-7.047,4.699-12.094,4.699c-5.109,0-9.172-1.559-12.188-4.676S141.476,397.252,141.476,391.783z M148.624,391.549
		c0,3.891,0.898,6.84,2.695,8.848s4.078,3.012,6.844,3.012s5.035-0.996,6.809-2.988s2.66-4.98,2.66-8.965
		c0-3.938-0.863-6.875-2.59-8.813s-4.02-2.906-6.879-2.906s-5.164,0.98-6.914,2.941S148.624,387.596,148.624,391.549z"/>
</g>
</svg>
