<?xml version="1.0" encoding="iso-8859-1"?>
<!-- Generator: Adobe Illustrator 18.1.1, SVG Export Plug-In . SVG Version: 6.00 Build 0)  -->
<svg version="1.1" id="Capa_1" xmlns="http://www.w3.org/2000/svg" xmlns:xlink="http://www.w3.org/1999/xlink" x="0px" y="0px"
	 viewBox="0 0 612 612" style="enable-background:new 0 0 612 612;" xml:space="preserve">
<g>
	<g>
		<path d="M306,0C137.272,0,0,137.27,0,306c0,168.728,137.272,306,306,306s306-137.272,306-306C612,137.27,474.728,0,306,0z
			 M306,564.185c-142.365,0-258.187-115.823-258.187-258.187S163.635,47.813,306,47.813s258.185,115.821,258.185,258.185
			S448.365,564.185,306,564.185z"/>
		<path d="M481.263,298.786l-109.906-26.657l33.231-54.516c1.783-2.924,1.333-6.691-1.089-9.113
			c-2.422-2.42-6.187-2.872-9.113-1.089l-54.513,33.233l-26.655-109.909c-0.808-3.329-3.788-5.674-7.215-5.674
			c-3.426,0-6.406,2.345-7.215,5.674l-26.657,109.907l-54.513-33.231c-2.923-1.782-6.689-1.332-9.113,1.089
			c-2.422,2.422-2.872,6.187-1.089,9.113l33.231,54.516l-109.907,26.657c-3.329,0.808-5.674,3.788-5.674,7.215
			c0,3.426,2.345,6.406,5.674,7.215l109.907,26.657l-33.231,54.516c-1.783,2.926-1.333,6.691,1.089,9.113
			c1.431,1.432,3.333,2.174,5.253,2.174c1.328,0,2.665-0.355,3.862-1.083l54.513-33.231l26.657,109.909
			c0.808,3.329,3.788,5.674,7.215,5.674c3.426,0,6.406-2.345,7.215-5.674l26.655-109.909l54.513,33.231
			c1.197,0.729,2.534,1.083,3.862,1.083c1.918,0,3.821-0.741,5.253-2.174c2.422-2.422,2.872-6.187,1.089-9.113l-33.229-54.516
			l109.907-26.657c3.329-0.808,5.674-3.788,5.674-7.215C486.935,302.574,484.592,299.594,481.263,298.786z"/>
		<path d="M415.353,116.591c0.817,0.473,1.711,0.698,2.593,0.698c1.796,0,3.543-0.932,4.504-2.599l11.604-20.096
			c1.436-2.485,0.585-5.663-1.902-7.098c-2.483-1.436-5.663-0.583-7.098,1.902l-11.604,20.096
			C412.017,111.977,412.868,115.155,415.353,116.591z"/>
		<path d="M499.913,199.246c0.882,0,1.774-0.225,2.593-0.698l20.094-11.602c2.485-1.434,3.336-4.612,1.902-7.098
			c-1.434-2.485-4.612-3.338-7.098-1.902l-20.094,11.602c-2.485,1.434-3.336,4.612-1.902,7.098
			C496.37,198.313,498.117,199.246,499.913,199.246z"/>
		<path d="M553.109,300.803h-23.204c-2.87,0-5.197,2.327-5.197,5.197s2.327,5.197,5.197,5.197h23.204
			c2.87,0,5.197-2.327,5.197-5.197C558.306,303.13,555.979,300.803,553.109,300.803z"/>
		<path d="M522.601,425.055l-20.096-11.604c-2.485-1.436-5.663-0.583-7.098,1.902c-1.436,2.485-0.585,5.663,1.902,7.098
			l20.096,11.604c0.817,0.473,1.711,0.698,2.593,0.698c1.796,0,3.543-0.932,4.504-2.599
			C525.937,429.669,525.086,426.491,522.601,425.055z"/>
		<path d="M422.449,497.309c-1.434-2.485-4.611-3.338-7.099-1.9c-2.485,1.436-3.336,4.614-1.9,7.099l11.605,20.094
			c0.963,1.666,2.708,2.599,4.504,2.599c0.882,0,1.774-0.225,2.593-0.698c2.485-1.436,3.336-4.614,1.9-7.099L422.449,497.309z"/>
		<path d="M306,524.704c-2.87,0-5.197,2.327-5.197,5.197v23.207c0,2.87,2.327,5.197,5.197,5.197s5.197-2.327,5.197-5.197v-23.207
			C311.197,527.031,308.87,524.704,306,524.704z"/>
		<path d="M196.645,495.409c-2.485-1.436-5.663-0.583-7.098,1.902l-11.602,20.094c-1.436,2.485-0.585,5.663,1.902,7.097
			c0.819,0.473,1.711,0.698,2.593,0.698c1.796,0,3.543-0.932,4.504-2.599l11.602-20.094
			C199.983,500.021,199.132,496.843,196.645,495.409z"/>
		<path d="M109.495,413.453l-20.096,11.604c-2.485,1.434-3.336,4.612-1.902,7.098c0.963,1.666,2.708,2.599,4.504,2.599
			c0.882,0,1.774-0.225,2.593-0.698l20.096-11.604c2.485-1.434,3.336-4.612,1.902-7.098
			C115.159,412.868,111.98,412.015,109.495,413.453z"/>
		<path d="M82.095,300.803H58.889c-2.87,0-5.197,2.327-5.197,5.197s2.327,5.197,5.197,5.197h23.206c2.87,0,5.197-2.327,5.197-5.197
			C87.29,303.13,84.963,300.803,82.095,300.803z"/>
		<path d="M114.691,189.548l-20.096-11.602c-2.487-1.432-5.663-0.583-7.099,1.902c-1.434,2.485-0.583,5.663,1.902,7.099
			l20.096,11.602c0.819,0.471,1.711,0.696,2.593,0.696c1.796,0,3.543-0.932,4.506-2.599
			C118.029,194.16,117.176,190.982,114.691,189.548z"/>
		<path d="M189.548,114.689c0.963,1.666,2.708,2.599,4.504,2.599c0.882,0,1.774-0.225,2.593-0.698
			c2.485-1.434,3.336-4.612,1.902-7.098l-11.602-20.096c-1.434-2.485-4.612-3.338-7.098-1.902c-2.485,1.434-3.336,4.612-1.902,7.098
			L189.548,114.689z"/>
		<path d="M306,87.29c2.87,0,5.197-2.327,5.197-5.197V58.889c0-2.87-2.327-5.197-5.197-5.197s-5.197,2.327-5.197,5.197v23.204
			C300.803,84.963,303.13,87.29,306,87.29z"/>
	</g>
</g>
<g>
</g>
<g>
</g>
<g>
</g>
<g>
</g>
<g>
</g>
<g>
</g>
<g>
</g>
<g>
</g>
<g>
</g>
<g>
</g>
<g>
</g>
<g>
</g>
<g>
</g>
<g>
</g>
<g>
</g>
</svg>
