<?xml version="1.0" encoding="UTF-8" standalone="no"?>
<!-- Created with Inkscape (http://www.inkscape.org/) -->

<svg
   xmlns:dc="http://purl.org/dc/elements/1.1/"
   xmlns:cc="http://creativecommons.org/ns#"
   xmlns:rdf="http://www.w3.org/1999/02/22-rdf-syntax-ns#"
   xmlns:svg="http://www.w3.org/2000/svg"
   xmlns="http://www.w3.org/2000/svg"
   xmlns:sodipodi="http://sodipodi.sourceforge.net/DTD/sodipodi-0.dtd"
   xmlns:inkscape="http://www.inkscape.org/namespaces/inkscape"
   width="255.89999"
   height="249.36"
   id="svg2"
   version="1.1"
   inkscape:version="0.48.4 r9939"
   sodipodi:docname="Rosa_dos_Ventos_v21_svg.svg">
  <defs
     id="defs4" />
  <sodipodi:namedview
     id="base"
     pagecolor="#ffffff"
     bordercolor="#666666"
     borderopacity="1.0"
     inkscape:pageopacity="0.0"
     inkscape:pageshadow="2"
     inkscape:zoom="2.7206185"
     inkscape:cx="112.99338"
     inkscape:cy="137.99106"
     inkscape:document-units="px"
     inkscape:current-layer="layer1"
     showgrid="false"
     showguides="true"
     inkscape:guide-bbox="true"
     guidecolor="#0000ff"
     guideopacity="1"
     guidetolerance="1"
     objecttolerance="10000"
     gridtolerance="1"
     inkscape:window-width="1920"
     inkscape:window-height="1018"
     inkscape:window-x="-8"
     inkscape:window-y="-8"
     inkscape:window-maximized="1"
     fit-margin-top="0"
     fit-margin-left="0"
     fit-margin-right="0"
     fit-margin-bottom="0" />
  <metadata
     id="metadata7">
    <rdf:RDF>
      <cc:Work
         rdf:about="">
        <dc:format>image/svg+xml</dc:format>
        <dc:type
           rdf:resource="http://purl.org/dc/dcmitype/StillImage" />
        <dc:title></dc:title>
      </cc:Work>
    </rdf:RDF>
  </metadata>
  <g
     inkscape:label="Camada 1"
     inkscape:groupmode="layer"
     id="layer1"
     transform="translate(-394.49271,-580.65412)">
    <path
       inkscape:connector-curvature="0"
       id="path4681"
       d="m 848.2903,853.81405 0,0 0,0 0,0"
       style="fill:none;stroke:#000000;stroke-width:1px;stroke-linecap:butt;stroke-linejoin:miter;stroke-opacity:1" />
    <path
       inkscape:connector-curvature="0"
       id="path4683"
       d="m 848.2903,853.81405 0,0 c 0,0 0,0 0,0 0,0 0,0 0,0 0,0 0,0 0,0 0,0 0,0 0,0 0,0 0,0 0,0 0,0 0,0 0,0 0,0 0,0 0,0 l 0,0"
       style="fill:none;stroke:#000000;stroke-width:1px;stroke-linecap:butt;stroke-linejoin:miter;stroke-opacity:1" />
    <g
       id="g5720">
      <path
         inkscape:connector-curvature="0"
         id="path5173"
         d="m 484.56024,665.37453 39.93918,30.2209 41.80069,-31.4219 -33.03024,41.14019 33.60698,42.37742 -42.37743,-32.71336 -40.74944,31.74587 31.77219,-41.40993 z"
         style="fill:#000000;stroke:#000000;stroke-width:1px;stroke-linecap:butt;stroke-linejoin:miter;stroke-opacity:1" />
      <path
         sodipodi:nodetypes="ccccccccccccccccccccccccccccccc"
         inkscape:connector-curvature="0"
         id="path5183"
         d="m 524.85877,609.24067 -11,85.3125 -0.0937,-0.0937 -84.75,10.9375 95.40625,-0.28125 -7.46875,-7.46875 7.71875,7.40625 z m 0.0937,0.0312 0.28125,95.375 10.6563,-10.65625 z m 10.93755,84.96875 -10.65625,10.625 95.375,0.3125 z m 84.60956,11.27006 -95.2641,0.19869 10.51029,10.77301 z m -191.23456,0.16744 84.71875,10.9375 0.25,-0.25 10.90625,84.71875 -0.28125,-95.375 -0.21875,0.25 z m 95.91807,0.31921 0.0194,95.33704 10.63682,-84.71204 z"
         style="fill:#ffffff;stroke:#000000;stroke-width:1px;stroke-linecap:butt;stroke-linejoin:round;stroke-opacity:1" />
      <path
         sodipodi:nodetypes="cccccccccccccccc"
         inkscape:connector-curvature="0"
         style="fill:#000000;stroke:#000000;stroke-width:1px;stroke-linecap:butt;stroke-linejoin:round;stroke-opacity:1"
         d="m 524.86307,609.37295 -11.93399,85.42614 11.04956,10.97223 z m 10.33432,85.55462 -10.65625,10.65625 96.11806,-0.17284 z m -106.14336,10.66396 84.23711,11.71104 10.65625,-10.65625 z m 95.70586,1.05479 0.40472,94.65984 10.25153,-84.00359 z"
         id="path5218" />
      <g
         transform="translate(3.3080713,13.967412)"
         id="text5224"
         style="font-size:40px;font-style:normal;font-weight:normal;line-height:125%;letter-spacing:0px;word-spacing:0px;fill:#000000;fill-opacity:1;stroke:none;font-family:Sans">
        <path
           id="path5271"
           style="font-size:28px;font-variant:normal;font-weight:300;font-stretch:normal;font-family:Bookman Old Style;-inkscape-font-specification:Bookman Old Style Light"
           d="m 397.78531,680.87054 6.83594,0 0,1.16211 -0.72461,0 c -0.47397,2e-5 -0.79753,0.0456 -0.97071,0.13672 -0.26432,0.14585 -0.39649,0.3646 -0.39648,0.65625 -10e-6,0.20965 0.0729,0.54234 0.21875,0.99805 l 3.91016,12.71484 3.39062,-10.44531 -0.79297,-2.5293 c -0.19142,-0.60154 -0.48308,-1.03448 -0.875,-1.29882 -0.23699,-0.15493 -0.6517,-0.23241 -1.24414,-0.23243 l 0,-1.16211 6.78125,0 0,1.16211 -0.64258,0 c -0.556,2e-5 -0.9297,0.0684 -1.12109,0.20508 -0.19142,0.13674 -0.28712,0.32359 -0.28711,0.56055 -1e-5,0.20054 0.0729,0.54233 0.21875,1.02539 l 3.92383,12.79687 3.95117,-12.79687 c 0.1367,-0.4466 0.20506,-0.78384 0.20508,-1.01172 -2e-5,-0.2643 -0.0912,-0.46027 -0.27344,-0.58789 -0.18231,-0.12759 -0.54234,-0.19139 -1.08008,-0.19141 l -0.68359,0 0,-1.16211 5.82422,0 0,1.16211 c -0.49222,-0.009 -0.85908,0.0388 -1.10059,0.14356 -0.24156,0.10483 -0.4398,0.25522 -0.59472,0.45117 -0.15498,0.19598 -0.3236,0.59474 -0.50586,1.19629 l -5.26368,16.11914 -1.98242,0 -3.67773,-11.40234 -3.69141,11.40234 -1.96875,0 -5.16797,-16.11914 c -0.24609,-0.77472 -0.55143,-1.28514 -0.91601,-1.53125 -0.27344,-0.17316 -0.70638,-0.25975 -1.29883,-0.25977 z"
           inkscape:connector-curvature="0" />
      </g>
      <g
         transform="translate(-0.73512693,18.01061)"
         id="text5228"
         style="font-size:40px;font-style:normal;font-weight:normal;line-height:125%;letter-spacing:0px;word-spacing:0px;fill:#000000;fill-opacity:1;stroke:none;font-family:Sans">
        <path
           id="path5274"
           style="font-size:28px;font-variant:normal;font-weight:300;font-stretch:normal;font-family:Bookman Old Style;-inkscape-font-specification:Bookman Old Style Light"
           d="m 516.39691,567.94977 5.85156,0 8.68164,14.30078 0,-10.88281 c -10e-6,-0.64712 -0.0638,-1.11197 -0.1914,-1.39453 -0.12762,-0.28254 -0.31903,-0.49673 -0.57422,-0.64258 -0.25522,-0.14582 -0.63348,-0.21873 -1.13477,-0.21875 l -0.49218,0 0,-1.16211 6.38476,0 0,1.16211 -0.34179,0 c -0.56513,2e-5 -0.94794,0.0456 -1.14844,0.13672 -0.28257,0.12762 -0.49449,0.36004 -0.63574,0.69726 -0.1413,0.33726 -0.21194,0.81122 -0.21192,1.42188 l 0,15.65429 -1.6543,0 -10.45898,-17.18554 0,13.61718 c 0,0.75652 0.0228,1.2168 0.0684,1.38086 0.0638,0.20964 0.18001,0.40105 0.34863,0.57422 0.16862,0.17318 0.36686,0.29167 0.59473,0.35547 0.22786,0.0638 0.68814,0.10026 1.38086,0.10938 l 0,1.14843 -6.4668,0 0,-1.14843 0.3418,0 c 0.65625,0 1.10058,-0.0638 1.33301,-0.19141 0.23242,-0.1276 0.41243,-0.34635 0.54004,-0.65625 0.1276,-0.30989 0.1914,-0.83398 0.1914,-1.57227 l 0,-12.08593 c 0,-0.7565 -0.0182,-1.21678 -0.0547,-1.38086 -0.082,-0.30988 -0.23926,-0.53319 -0.47168,-0.66992 -0.23242,-0.13671 -0.69498,-0.20506 -1.38769,-0.20508 l -0.49219,0 z"
           inkscape:connector-curvature="0" />
      </g>
      <text
         sodipodi:linespacing="125%"
         id="text5232"
         y="714.04163"
         x="622.14771"
         style="font-size:40px;font-style:normal;font-weight:normal;line-height:125%;letter-spacing:0px;word-spacing:0px;fill:#000000;fill-opacity:1;stroke:none;font-family:Sans"
         xml:space="preserve"><tspan
           style="font-size:28px;font-style:normal;font-variant:normal;font-weight:300;font-stretch:normal;font-family:Bookman Old Style;-inkscape-font-specification:Bookman Old Style Light"
           y="714.04163"
           x="622.14771"
           id="tspan5234"
           sodipodi:role="line">E</tspan></text>
      <g
         transform="translate(1.1026904,10.291777)"
         id="text5236"
         style="font-size:40px;font-style:normal;font-weight:normal;line-height:125%;letter-spacing:0px;word-spacing:0px;fill:#000000;fill-opacity:1;stroke:none;font-family:Sans">
        <path
           id="path5277"
           style="font-size:28px;font-variant:normal;font-weight:300;font-stretch:normal;font-family:Bookman Old Style;-inkscape-font-specification:Bookman Old Style Light"
           d="m 530.1889,794.92963 0.98438,0 1.46289,5.8789 -1.25781,0.38282 c -0.8021,-1.64973 -1.86851,-2.94856 -3.19922,-3.89649 -1.09376,-0.79295 -2.306,-1.18943 -3.63672,-1.18945 -0.80209,2e-5 -1.52214,0.14357 -2.16016,0.43066 -0.63802,0.28713 -1.11654,0.65855 -1.43554,1.11426 -0.31902,0.45574 -0.47852,0.92059 -0.47852,1.39453 0,0.4284 0.12304,0.84311 0.36914,1.24414 0.24609,0.40106 0.61979,0.75425 1.1211,1.05957 0.50129,0.30535 1.3216,0.62664 2.46093,0.96387 l 3.56836,1.05273 c 0.43749,0.12762 1.07323,0.37371 1.90723,0.73828 0.83397,0.3646 1.48338,0.74969 1.94824,1.15528 0.46483,0.40561 0.82941,0.90235 1.09375,1.49023 0.26431,0.5879 0.39647,1.22364 0.39649,1.90723 -2e-5,1.51302 -0.66311,2.83692 -1.98926,3.97168 -1.32619,1.13476 -3.04201,1.70215 -5.14746,1.70215 -1.08465,0 -2.05535,-0.15723 -2.91211,-0.47168 -0.85678,-0.31446 -1.78191,-0.87272 -2.77539,-1.67481 l -0.62891,1.81836 -0.95703,0 -1.27149,-6.84961 1.27149,-0.25976 c 0.46484,1.26693 1.08235,2.34245 1.85254,3.22656 0.77017,0.88412 1.62239,1.55176 2.55664,2.00293 0.93424,0.45117 1.88443,0.67676 2.85058,0.67676 1.31249,0 2.46093,-0.39649 3.44532,-1.18946 0.8203,-0.66536 1.23045,-1.44921 1.23047,-2.35156 -2e-5,-0.82942 -0.29624,-1.50846 -0.88868,-2.03711 -0.60157,-0.52864 -1.67709,-1.02082 -3.22656,-1.47656 l -3.41797,-0.98438 c -1.91407,-0.55598 -3.26302,-1.26691 -4.04687,-2.13281 -0.78386,-0.86587 -1.17579,-1.85936 -1.17578,-2.98047 -10e-6,-0.87498 0.2552,-1.6839 0.76562,-2.42675 0.51041,-0.74283 1.29427,-1.3649 2.35156,-1.86622 1.05729,-0.50128 2.21484,-0.75193 3.47266,-0.75195 1.05728,2e-5 2.069,0.18231 3.03516,0.54688 0.68358,0.25522 1.31248,0.61981 1.88672,1.09375 z"
           inkscape:connector-curvature="0" />
      </g>
      <path
         id="path5240"
         d="m 614.40683,706.22069 c 0,49.90508 -40.14238,90.36111 -89.66054,90.36111 -49.51814,0 -89.66054,-40.45603 -89.66054,-90.36111 0,-49.90506 40.1424,-90.3611 89.66054,-90.3611 49.51816,0 89.66054,40.45604 89.66054,90.3611 z"
         style="fill:none;stroke:none;stroke-width:1.72458899000000000;stroke-miterlimit:4;stroke-opacity:1"
         inkscape:connector-curvature="0" />
    </g>
  </g>
</svg>
