<?xml version="1.0" encoding="iso-8859-1"?>
<!-- Generator: Adobe Illustrator 19.0.0, SVG Export Plug-In . SVG Version: 6.00 Build 0)  -->
<svg version="1.1" id="Layer_1" xmlns="http://www.w3.org/2000/svg" xmlns:xlink="http://www.w3.org/1999/xlink" x="0px" y="0px"
	 viewBox="0 0 512 512" style="enable-background:new 0 0 512 512;" xml:space="preserve">
<g>
	<g>
		<path d="M480.461,273.246l-145.22-30.251l46.652-76.416c2.065-3.379,1.527-7.731-1.289-10.513
			c-2.807-2.782-7.168-3.26-10.53-1.161l-74.018,46.464L263.561,7.125C262.878,3.012,259.311,0,255.147,0c-0.009,0-0.017,0-0.026,0
			c-4.181,0.017-7.74,3.055-8.397,7.185l-31.053,194.091l-75.52-46.413c-3.371-2.074-7.748-1.545-10.539,1.271
			c-2.79,2.816-3.26,7.194-1.143,10.556l48.205,76.322L31.539,273.246c-3.951,0.828-6.793,4.309-6.793,8.354
			s2.842,7.526,6.793,8.354l145.126,30.234l-48.205,76.322c-2.116,3.362-1.638,7.731,1.143,10.556
			c1.655,1.664,3.857,2.534,6.076,2.534c1.536,0,3.081-0.41,4.463-1.263l77.124-47.394l29.517,144.239
			c0.811,3.951,4.284,6.801,8.32,6.818c0.009,0,0.026,0,0.034,0c4.028,0,7.501-2.816,8.346-6.75L294.4,360.798l75.674,47.497
			c1.399,0.879,2.97,1.306,4.54,1.306c2.185,0,4.361-0.836,5.999-2.466c2.816-2.782,3.354-7.134,1.289-10.513l-46.652-76.416
			l145.22-30.251c3.951-0.828,6.784-4.309,6.784-8.354S484.42,274.074,480.461,273.246z M172.228,204.1
			c-2.398-3.823,2.014-8.252,5.862-5.888l32.23,19.806c1.468,0.905,2.253,2.603,1.98,4.309l-1.732,10.812
			c-0.282,1.749-1.613,3.14-3.345,3.507l-9.992,2.082c-1.732,0.358-3.482-0.367-4.42-1.86
			C189.141,231.014,179.618,215.868,172.228,204.1z M211.132,344.798c-5.956,3.644-21.256,13.013-33.118,20.275
			c-3.849,2.355-8.226-2.082-5.828-5.897c7.407-11.776,16.956-26.974,20.634-32.845c0.939-1.493,2.688-2.227,4.42-1.86l10.385,2.159
			c1.664,0.35,2.97,1.655,3.311,3.319l2.125,10.368C213.419,342.076,212.668,343.859,211.132,344.798z M228.122,297.421
			l-11.656,11.656c-1.024,1.016-2.483,1.451-3.891,1.161l-55.962-11.656c-5.026-1.05-4.267-8.448,0.87-8.448h67.618
			C228.898,290.133,230.81,294.733,228.122,297.421z M246.613,249.839c0,3.797-4.599,5.709-7.287,3.021l-11.076-11.076
			c-0.964-0.964-1.408-2.338-1.195-3.695l11.076-69.222c0.836-5.18,8.482-4.565,8.482,0.683V249.839z M301.508,218.086
			l31.625-19.849c3.814-2.389,8.269,1.971,5.931,5.811c-7.125,11.716-16.299,26.803-19.891,32.725
			c-0.939,1.545-2.731,2.295-4.497,1.929l-9.967-2.074c-1.724-0.358-3.046-1.741-3.336-3.473l-1.801-10.752
			C299.29,220.706,300.049,219,301.508,218.086z M284.646,324.779l-12.535,58.581c-1.067,5.001-8.431,4.224-8.431-0.896v-70.912
			c0-3.789,4.565-5.7,7.262-3.038c4.471,4.412,9.847,9.702,12.518,12.322C284.51,321.86,284.954,323.345,284.646,324.779z
			 M339.123,359.253c2.338,3.831-2.074,8.192-5.888,5.82c-11.639-7.27-26.675-16.649-32.555-20.309
			c-1.527-0.947-2.261-2.739-1.886-4.497l2.21-10.325c0.35-1.655,1.647-2.935,3.302-3.285l10.368-2.159
			c1.766-0.367,3.558,0.384,4.497,1.929C322.773,332.365,331.989,347.52,339.123,359.253z M354.517,273.058h-67.618
			c-3.797,0-5.709-4.599-3.021-7.287l11.657-11.657c1.024-1.007,2.483-1.442,3.891-1.152l55.962,11.656
			C360.414,265.668,359.654,273.058,354.517,273.058z"/>
	</g>
</g>
<g>
</g>
<g>
</g>
<g>
</g>
<g>
</g>
<g>
</g>
<g>
</g>
<g>
</g>
<g>
</g>
<g>
</g>
<g>
</g>
<g>
</g>
<g>
</g>
<g>
</g>
<g>
</g>
<g>
</g>
</svg>
