<?xml version="1.0" standalone="no"?>
<!DOCTYPE svg PUBLIC "-//W3C//DTD SVG 20010904//EN"
 "http://www.w3.org/TR/2001/REC-SVG-20010904/DTD/svg10.dtd">
<svg version="1.0" xmlns="http://www.w3.org/2000/svg"
 width="1280.000000pt" height="1084.000000pt" viewBox="0 0 1280.000000 1084.000000"
 preserveAspectRatio="xMidYMid meet">
<g transform="translate(0.000000,1084.000000) scale(0.100000,-0.100000)"
fill="#000000" stroke="none">
<path d="M7000 10731 c0 -87 -3 -113 -16 -126 -13 -12 -13 -19 -4 -30 8 -10
10 -50 6 -137 -3 -68 -8 -294 -12 -503 -4 -256 -10 -382 -17 -387 -7 -4 -7
-11 2 -22 10 -12 12 -63 7 -223 -3 -114 -5 -216 -5 -225 2 -107 1 -139 -8
-173 -15 -56 -3 -169 18 -173 13 -2 18 9 23 55 6 48 22 798 31 1468 2 94 5
260 9 369 6 198 4 215 -26 216 -5 0 -8 -49 -8 -109z"/>
<path d="M7075 10620 c4 -6 11 -8 16 -5 14 9 11 15 -7 15 -8 0 -12 -5 -9 -10z"/>
<path d="M7040 9181 c0 -5 5 -13 10 -16 6 -3 10 -2 10 4 0 5 -4 13 -10 16 -5
3 -10 2 -10 -4z"/>
<path d="M6926 9003 c-11 -11 -6 -23 9 -23 8 0 15 4 15 9 0 13 -16 22 -24 14z"/>
<path d="M6500 8760 c0 -5 5 -10 10 -10 6 0 10 5 10 10 0 6 -4 10 -10 10 -5 0
-10 -4 -10 -10z"/>
<path d="M6533 8688 c-29 -18 -55 -41 -59 -51 -8 -26 16 -81 29 -68 6 6 18 11
27 11 23 0 64 46 57 64 -4 10 1 20 13 26 15 8 22 6 34 -12 9 -12 16 -30 16
-40 0 -26 15 -30 35 -8 10 11 22 20 27 20 14 0 9 -83 -7 -114 -8 -15 -15 -40
-15 -55 0 -14 -9 -44 -19 -67 -10 -23 -22 -61 -26 -85 -8 -50 -41 -129 -54
-129 -5 0 -14 7 -21 15 -18 21 -57 19 -70 -4 -21 -41 -12 -91 24 -127 37 -37
49 -41 66 -21 66 78 97 142 115 237 4 19 14 43 22 52 9 9 18 38 21 63 2 25 9
48 13 51 14 8 11 -104 -3 -126 -7 -10 -9 -23 -5 -27 5 -4 12 -1 17 7 10 16 22
-25 41 -133 7 -46 19 -78 36 -98 30 -35 34 -35 68 -6 22 18 27 32 30 84 2 34
11 72 19 85 8 13 19 41 25 63 13 51 39 132 56 170 7 17 18 49 24 72 7 27 22
49 40 62 l29 21 6 -32 c9 -47 33 -78 60 -78 32 0 44 17 56 79 5 29 13 57 16
63 12 19 -46 58 -88 58 -87 0 -205 -104 -220 -195 -3 -16 -10 -50 -17 -75 -6
-25 -13 -62 -16 -83 -3 -20 -15 -46 -26 -56 -14 -13 -19 -26 -15 -39 4 -11 1
-32 -5 -48 l-12 -29 -9 30 c-5 17 -10 65 -12 109 -2 43 -9 83 -15 89 -6 6 -11
30 -11 53 0 24 -5 55 -10 69 -6 16 -7 33 -1 44 6 10 6 23 1 31 -6 10 -3 21 7
32 14 16 14 18 -3 24 -11 4 -27 16 -37 26 -17 18 -19 18 -48 1 -29 -17 -31
-17 -72 5 -56 29 -72 28 -134 -10z"/>
<path d="M6902 8579 c2 -7 10 -15 17 -17 8 -3 12 1 9 9 -2 7 -10 15 -17 17 -8
3 -12 -1 -9 -9z"/>
<path d="M6490 8501 c0 -5 5 -13 10 -16 6 -3 10 -2 10 4 0 5 -4 13 -10 16 -5
3 -10 2 -10 -4z"/>
<path d="M7040 8380 c0 -5 5 -10 10 -10 6 0 10 5 10 10 0 6 -4 10 -10 10 -5 0
-10 -4 -10 -10z"/>
<path d="M6829 7863 c-34 -87 -84 -228 -106 -298 -24 -75 -25 -86 -16 -175 5
-52 11 -101 14 -109 2 -7 -1 -15 -7 -18 -17 -6 -43 67 -47 135 -4 72 -24 106
-80 135 -93 48 -187 36 -232 -31 -43 -63 -29 -183 24 -212 59 -31 130 4 155
77 25 73 24 77 -34 69 -44 -6 -50 -5 -50 12 0 25 19 42 48 42 59 0 85 -41 83
-130 -1 -68 21 -109 79 -145 49 -31 51 -60 5 -85 -33 -18 -44 -50 -23 -68 7
-6 29 -12 48 -14 31 -3 35 -6 32 -28 -7 -49 -22 -54 -58 -19 -56 54 -94 21
-94 -83 0 -49 4 -62 28 -89 23 -26 34 -31 54 -26 50 13 122 109 143 192 l7 30
13 -35 c8 -19 14 -44 14 -55 1 -11 12 -42 26 -68 14 -26 23 -52 20 -57 -5 -8
-21 -84 -100 -465 -35 -172 -42 -192 -74 -215 -40 -28 -60 -26 -33 3 26 28 28
37 5 37 -9 0 -38 -22 -63 -50 -46 -50 -47 -50 -109 -50 -93 0 -182 -34 -483
-185 -301 -150 -371 -197 -519 -352 -141 -147 -274 -340 -374 -540 -85 -172
-164 -384 -166 -444 -1 -32 -2 -32 -9 -9 -4 14 -8 44 -9 67 -1 44 -15 63 -33
45 -8 -8 -6 -38 6 -100 21 -116 20 -188 -2 -232 -20 -40 -17 -39 -237 -65
-161 -19 -414 -68 -495 -96 -60 -20 -113 -71 -108 -103 4 -27 56 -55 127 -70
53 -11 62 -10 83 6 60 46 427 1 576 -70 56 -27 56 -29 67 -120 6 -53 73 -321
95 -376 15 -41 131 -233 198 -331 125 -181 322 -384 468 -482 117 -79 186
-124 258 -167 44 -27 98 -66 120 -86 23 -21 65 -57 94 -81 l54 -42 207 -18
c114 -10 223 -20 243 -24 115 -22 153 -110 183 -431 18 -190 42 -344 56 -358
25 -26 47 54 48 175 1 31 17 141 37 245 19 104 35 217 35 252 -1 55 2 66 24
88 22 22 32 25 63 20 20 -3 55 -9 78 -12 91 -14 385 92 569 206 165 102 219
130 248 130 17 0 35 11 54 33 15 19 48 47 73 64 25 17 59 45 75 63 17 18 48
45 70 60 29 20 56 56 99 134 33 58 63 106 68 106 4 0 8 5 8 11 0 5 -4 7 -10 4
-5 -3 -10 -2 -10 3 0 6 7 13 16 16 33 13 364 726 364 785 0 19 53 50 103 60
29 6 140 19 247 30 155 16 212 26 280 50 88 30 244 61 312 61 32 0 38 3 38 21
0 27 -54 49 -120 49 -48 0 -50 1 -40 21 17 30 4 66 -28 83 -27 14 -133 29
-287 42 -179 14 -379 65 -447 113 -48 33 -75 96 -157 368 -72 234 -92 287
-156 403 -259 466 -687 830 -1167 992 -127 43 -128 43 -161 25 -40 -22 -65
-14 -69 21 -4 35 -22 35 -26 0 -4 -33 -20 -35 -51 -7 -32 30 -42 63 -40 133 1
34 -17 171 -40 305 -22 134 -41 247 -41 252 0 4 -12 21 -26 38 -25 30 -25 51
-1 51 7 0 36 -16 66 -36 46 -31 59 -35 99 -32 34 3 51 0 60 -12 12 -13 13 -12
9 6 -3 13 5 33 19 50 29 36 32 94 6 117 -10 9 -39 26 -65 37 -37 17 -47 26
-47 45 0 27 -24 55 -46 55 -11 0 -14 6 -10 20 3 11 9 30 12 42 4 11 37 62 74
112 65 87 123 136 164 136 21 0 41 -39 27 -53 -8 -8 -11 -5 -11 10 0 31 -29
37 -57 12 -53 -51 -4 -139 76 -139 36 0 44 4 61 33 46 75 14 209 -59 246 -79
41 -139 18 -190 -73 -17 -31 -45 -81 -62 -111 -34 -60 -49 -69 -49 -28 0 15
-18 104 -40 197 -22 94 -47 200 -55 236 -23 100 -65 146 -86 93z m37 -201
c-12 -11 -17 7 -9 34 l8 29 3 -28 c2 -16 1 -31 -2 -35z m-60 -337 c0 -51 5
-72 22 -95 12 -16 22 -39 22 -52 0 -22 0 -22 -27 4 -20 21 -27 39 -31 82 -4
46 3 126 11 126 1 0 2 -29 3 -65z m150 -44 c-3 -4 -10 -21 -16 -36 -6 -15 -13
-25 -16 -22 -6 6 23 67 32 67 3 0 3 -4 0 -9z m-164 -191 c-6 -16 -11 -20 -16
-11 -4 6 -2 19 5 27 16 20 21 12 11 -16z m108 13 c-1 -10 -26 -43 -33 -43 -12
0 -17 34 -5 42 16 10 38 10 38 1z m144 -59 c17 -7 22 -39 6 -49 -5 -3 -24 8
-42 24 l-33 30 27 1 c14 0 33 -3 42 -6z m-354 -155 c0 -4 -11 -14 -24 -22 -17
-12 -26 -13 -35 -4 -12 12 -15 40 -5 49 6 7 64 -14 64 -23z m225 -668 c-6 -14
-8 -13 -15 4 -8 20 -5 55 8 85 4 8 8 -5 10 -29 2 -24 0 -51 -3 -60z m-68 -33
c-3 -7 -5 -2 -5 12 0 14 2 19 5 13 2 -7 2 -19 0 -25z m80 -45 c-4 -3 -13 0
-22 7 -12 10 -13 16 -3 27 11 13 14 12 22 -6 5 -12 6 -24 3 -28z m3 -65 c0
-13 -17 -9 -30 7 -6 8 -8 20 -4 26 5 9 11 7 21 -6 7 -11 13 -22 13 -27z m-210
-63 c0 -3 -11 -58 -25 -122 -14 -65 -25 -137 -25 -160 0 -23 -5 -53 -12 -67
-10 -23 -16 -25 -47 -20 -62 10 -247 -68 -395 -165 -68 -45 -128 -93 -134
-106 -6 -13 -23 -26 -40 -30 -16 -3 -40 -17 -52 -31 -13 -13 -31 -24 -41 -24
-9 0 -24 -11 -33 -25 -18 -28 -70 -35 -79 -11 -5 13 -69 61 -155 118 -50 33
-67 -16 -37 -103 15 -42 26 -57 83 -109 12 -11 22 -27 22 -35 0 -7 -29 -42
-65 -77 -41 -39 -69 -75 -75 -96 -5 -19 -33 -77 -63 -130 -59 -105 -124 -282
-134 -362 -12 -99 37 -41 62 73 23 110 97 266 134 286 9 5 30 34 46 63 15 29
41 69 57 89 15 20 28 46 28 58 0 25 11 26 53 5 34 -18 52 -40 52 -64 0 -8 11
-16 23 -18 19 -3 23 -8 18 -27 -4 -17 -1 -24 15 -28 16 -4 19 -11 14 -27 -6
-19 -4 -21 14 -15 18 5 21 2 21 -25 0 -20 6 -32 18 -36 34 -11 47 -22 44 -38
-2 -9 3 -16 11 -16 7 0 24 -11 37 -25 l23 -24 -32 -36 c-30 -35 -40 -65 -21
-65 5 0 19 13 31 30 12 16 29 32 37 35 19 7 66 -37 82 -76 7 -16 21 -29 33
-31 14 -2 22 -10 22 -22 0 -24 -22 -30 -164 -52 -57 -9 -124 -22 -149 -29 -32
-10 -50 -11 -58 -4 -9 7 -21 6 -41 -4 -38 -19 -101 -28 -109 -16 -4 7 -12 5
-22 -3 -45 -37 -110 -48 -136 -23 -18 19 -35 19 -42 1 -10 -26 -67 -38 -204
-43 -74 -2 -140 -9 -147 -15 -7 -6 -28 -7 -48 -4 -27 5 -37 3 -41 -9 -8 -19
-38 -19 -54 0 -10 12 -10 25 -2 58 6 23 14 75 17 115 10 115 123 423 184 500
15 21 46 76 68 123 63 134 115 205 174 234 36 19 58 39 79 73 43 72 79 111
107 118 14 4 54 28 89 53 134 98 154 111 255 161 57 29 119 63 137 77 20 15
42 23 60 21 18 -2 27 2 27 11 0 9 30 27 73 44 42 17 72 35 72 44 0 10 5 11 17
5 10 -6 30 -6 52 1 50 14 252 56 274 56 9 1 17 -1 17 -4z m214 -43 c9 -39 4
-145 -7 -159 -6 -9 -5 -19 4 -29 12 -15 32 -222 30 -314 -1 -19 5 -120 13
-225 8 -104 14 -215 13 -245 -1 -30 4 -100 10 -155 6 -55 9 -103 7 -106 -2 -3
-16 -4 -32 -1 -26 3 -30 8 -28 34 0 17 -5 33 -11 35 -9 3 -13 -6 -13 -26 0
-27 -4 -31 -37 -37 -32 -6 -40 -3 -60 20 -24 29 -32 93 -13 112 6 6 6 29 -2
67 -9 44 -9 78 0 154 7 54 12 130 12 168 0 49 5 78 16 94 13 18 14 27 5 44 -6
12 -9 47 -7 77 8 103 27 275 43 398 14 104 19 122 34 122 11 0 20 -10 23 -28z
m191 17 c5 -6 22 -8 47 -4 34 6 40 4 45 -14 6 -24 15 -26 42 -9 15 9 28 6 75
-20 56 -32 116 -41 145 -23 17 11 288 -112 376 -171 90 -61 178 -139 264 -236
41 -46 84 -87 97 -92 12 -5 30 -22 40 -39 10 -16 27 -32 39 -35 27 -7 117
-137 177 -257 23 -46 48 -90 55 -97 21 -22 39 -61 77 -171 20 -58 45 -118 55
-135 18 -30 51 -158 51 -197 0 -11 -4 -19 -10 -19 -5 0 -10 10 -10 23 0 13 -6
32 -14 42 -12 16 -16 17 -30 6 -16 -13 -12 -36 4 -26 5 3 11 -8 15 -24 3 -16
22 -43 41 -60 63 -58 39 -97 -53 -86 -92 10 -257 45 -268 56 -5 6 -12 50 -15
98 -5 75 -11 100 -41 162 -40 83 -51 112 -70 183 -9 35 -28 66 -61 103 -26 29
-48 62 -48 73 0 11 -4 20 -10 20 -36 0 -57 16 -63 50 -9 43 -27 39 -60 -13
l-18 -28 73 -95 c40 -52 81 -105 91 -117 30 -38 67 -141 54 -149 -9 -5 -7 -11
5 -20 29 -22 88 -164 88 -212 0 -67 -9 -70 -147 -47 -65 11 -161 25 -213 31
-52 6 -149 20 -215 31 -66 10 -135 19 -153 19 l-33 0 20 26 c12 15 21 33 21
40 0 9 12 14 36 14 34 0 35 2 30 28 -3 15 -2 34 3 41 6 9 6 22 1 31 -11 21 43
87 66 82 11 -2 15 1 11 12 -3 8 1 20 9 27 9 7 21 25 27 40 19 44 128 154 149
151 10 -2 18 2 18 7 0 6 -4 11 -10 11 -5 0 -10 5 -10 12 0 15 70 125 141 219
70 93 89 129 89 169 0 16 -2 30 -5 30 -20 0 -237 -121 -264 -147 -32 -31 -36
-32 -52 -17 -23 21 -42 9 -35 -22 5 -19 2 -25 -18 -30 -13 -3 -33 -19 -45 -35
-12 -16 -26 -29 -32 -29 -6 0 -36 -23 -67 -51 -32 -27 -101 -79 -154 -115 -53
-36 -110 -79 -125 -97 -16 -18 -45 -40 -66 -49 -20 -10 -37 -22 -37 -28 0 -5
-4 -10 -10 -10 -16 0 -12 32 7 52 14 15 15 23 6 37 -9 14 -9 21 0 30 6 6 7 14
3 18 -4 4 -11 1 -16 -7 -5 -8 -12 -11 -16 -7 -4 4 -2 13 4 19 16 16 15 28 -3
28 -12 0 -13 4 -6 19 8 14 7 22 -4 31 -14 11 -14 15 1 31 14 16 14 18 -5 29
-12 6 -19 15 -16 21 4 6 13 5 25 -1 13 -7 21 -7 25 0 9 15 -4 30 -25 30 -26 0
-33 15 -18 39 10 17 9 23 -6 40 -15 16 -16 24 -7 35 9 11 7 22 -8 52 -26 53
-39 196 -20 232 11 20 11 26 2 29 -12 4 -19 33 -8 33 2 0 19 -6 37 -14 18 -8
52 -20 76 -27 23 -7 47 -18 53 -25 6 -7 23 -15 38 -19 16 -3 39 -17 51 -31 13
-13 34 -24 47 -24 13 0 46 -12 74 -26 40 -20 50 -29 46 -45 -3 -12 0 -19 9
-19 7 0 39 -16 70 -36 88 -56 116 -28 42 42 -88 83 -150 126 -215 151 -125 46
-288 101 -318 108 -50 11 -56 21 -38 66 14 37 14 41 -3 60 -16 18 -19 37 -19
119 0 54 -3 102 -7 106 -5 4 -8 11 -8 16 0 12 28 10 35 -3z m-300 -72 c-4 -18
-8 -52 -9 -76 -1 -25 -7 -46 -13 -48 -9 -3 -9 -11 -1 -29 8 -18 8 -50 -1 -122
-6 -53 -13 -152 -15 -220 -2 -74 -8 -128 -15 -136 -10 -11 -9 -21 2 -43 11
-22 12 -42 5 -93 -6 -36 -14 -73 -19 -82 -5 -11 -5 -27 2 -42 8 -16 9 -45 4
-83 -5 -32 -7 -66 -6 -77 4 -30 -22 -105 -39 -110 -11 -3 -9 -6 8 -11 27 -9
27 -15 1 -49 -24 -31 -45 -35 -29 -7 25 48 -39 31 -92 -23 -19 -20 -40 -36
-46 -36 -14 0 -5 93 14 135 7 17 15 50 18 75 9 82 18 120 27 120 6 0 5 8 0 19
-9 15 -6 22 12 34 21 14 21 16 4 29 -16 12 -16 16 -1 68 8 30 21 91 28 135 17
102 44 203 62 229 9 13 12 33 8 57 -4 22 1 71 11 116 10 43 19 92 20 108 2 27
19 95 33 135 3 8 4 19 3 24 -1 5 1 22 5 39 5 26 8 28 16 13 6 -10 7 -32 3 -49z
m220 -369 c4 -35 11 -67 15 -73 9 -13 23 -106 25 -170 1 -28 5 -57 10 -65 5
-8 11 -52 13 -97 4 -66 2 -83 -9 -83 -11 -1 -10 -3 2 -13 27 -20 48 -130 29
-152 -10 -11 -9 -18 4 -30 12 -12 13 -21 6 -35 -7 -13 -6 -19 4 -23 9 -4 14
-19 13 -41 -1 -34 -3 -36 -33 -36 -24 0 -31 4 -30 18 1 11 -6 17 -20 16 -21 0
-22 5 -28 150 -3 83 -8 175 -10 204 -3 28 0 52 5 52 5 0 9 7 9 15 0 8 -4 15
-10 15 -14 0 -12 27 3 33 9 4 9 8 0 14 -6 4 -17 63 -24 132 -9 97 -10 131 0
157 7 19 9 43 6 54 -3 11 -2 20 3 20 6 0 13 -28 17 -62z m-421 -15 c-5 -10 -7
-39 -6 -65 2 -47 -33 -229 -63 -323 -8 -27 -20 -110 -25 -183 -9 -126 -18
-162 -43 -162 -5 0 -31 18 -56 40 -25 22 -68 60 -96 84 -27 24 -66 51 -85 59
-19 8 -54 33 -77 56 -23 22 -49 41 -57 41 -8 0 -33 16 -56 35 -23 19 -46 35
-52 35 -5 0 -7 4 -4 9 7 10 -16 21 -44 21 -10 0 -22 9 -25 21 -10 31 21 59 64
59 25 0 45 8 66 26 53 48 179 124 203 124 13 0 35 9 49 19 13 11 44 23 68 27
24 3 46 12 49 19 3 8 27 20 53 28 26 8 62 22 78 31 42 22 70 21 59 -1z m1299
-365 c-3 -13 -22 -41 -42 -63 -41 -44 -91 -119 -91 -135 0 -5 -9 -15 -20 -22
-11 -7 -20 -18 -20 -24 0 -7 -11 -19 -25 -28 -14 -9 -25 -22 -25 -28 0 -7 -12
-29 -26 -50 -21 -29 -32 -37 -46 -32 -16 5 -19 2 -14 -13 6 -19 -23 -61 -137
-198 -18 -22 -22 -33 -15 -42 7 -9 7 -13 0 -13 -21 0 -66 21 -77 37 -11 15
-15 14 -43 -5 -38 -28 -40 -28 -34 4 4 21 1 25 -14 22 -14 -2 -20 4 -22 25 -4
32 17 37 25 6 4 -16 8 -17 14 -7 17 26 10 48 -14 48 -13 0 -28 5 -35 12 -19
19 114 128 157 128 10 0 35 22 57 50 21 27 46 52 55 55 9 3 22 16 29 30 7 13
26 29 41 36 16 6 29 15 29 20 0 5 11 11 25 15 14 3 32 18 41 33 15 26 198 158
221 160 7 1 9 -8 6 -21z m-1941 -122 c17 -4 20 -8 10 -14 -16 -11 -5 -20 51
-46 20 -9 37 -23 37 -31 0 -9 10 -15 23 -15 12 0 33 -12 46 -26 13 -14 38 -32
55 -41 17 -9 33 -19 36 -23 3 -3 36 -28 74 -54 91 -64 156 -128 156 -156 0
-29 -35 -77 -70 -95 -38 -20 -84 -19 -101 2 -13 15 -12 16 8 11 38 -10 36 9
-9 69 -24 32 -43 65 -43 73 0 8 -7 14 -15 13 -15 -2 -110 106 -110 124 0 6
-12 15 -26 21 -19 9 -24 17 -19 32 5 14 2 20 -9 20 -9 0 -17 7 -17 15 -1 8 -2
21 -3 28 -1 7 -12 11 -26 10 -20 -2 -34 9 -67 53 -25 33 -39 62 -36 71 5 12 9
10 19 -9 7 -14 24 -28 36 -32z m502 -298 c-3 -5 -12 -4 -20 3 -19 16 -18 18 6
12 11 -3 17 -9 14 -15z m546 -169 c8 0 27 3 43 7 21 5 27 3 27 -11 0 -10 5
-15 13 -12 8 3 20 1 28 -4 11 -7 9 -9 -8 -9 -13 0 -23 -4 -23 -8 0 -14 54 -60
75 -64 13 -2 19 -11 18 -23 -1 -11 0 -27 3 -35 4 -13 6 -13 14 0 10 16 5 19
78 -48 22 -22 32 -39 32 -61 0 -16 4 -32 8 -35 4 -2 9 -47 10 -100 1 -52 6
-106 12 -121 8 -22 6 -30 -15 -51 -17 -17 -32 -23 -45 -19 -13 4 -24 -1 -36
-20 -20 -30 -12 -42 30 -47 29 -3 29 -4 11 -21 -11 -12 -26 -16 -40 -13 -14 4
-28 0 -36 -10 -9 -11 -22 -13 -50 -9 -31 5 -41 3 -57 -15 -11 -12 -33 -35 -48
-51 -23 -24 -26 -34 -21 -71 3 -23 11 -44 17 -46 14 -5 -7 -32 -24 -32 -7 0
-22 -11 -34 -25 -21 -24 -46 -30 -112 -26 -44 3 -84 23 -126 64 -40 37 -42 38
-49 18 -10 -32 -36 -25 -89 22 l-48 42 32 23 c25 19 31 29 28 54 -4 43 -30 57
-66 38 -15 -9 -28 -26 -30 -38 -5 -35 -18 -26 -41 29 -29 70 -27 79 12 79 65
0 76 35 13 42 -44 5 -71 46 -60 95 6 32 8 34 12 13 9 -59 59 -56 100 5 26 40
29 75 7 75 -9 0 -18 7 -21 15 -9 22 -24 18 -56 -12 l-29 -28 3 85 3 85 72 3
c63 2 76 6 102 31 17 16 31 35 31 43 0 8 5 19 11 25 19 19 0 51 -36 63 -19 6
-39 9 -45 5 -5 -3 -10 -3 -10 2 1 14 88 73 109 73 11 0 22 -9 26 -21 9 -27 38
-20 45 11 5 20 14 26 49 32 24 4 45 9 47 10 2 2 29 2 61 1 32 -2 65 -3 73 -4z
m-430 -145 c-6 -14 -10 -39 -10 -55 0 -22 -6 -32 -22 -38 -49 -19 -49 30 -1
86 34 39 46 42 33 7z m-183 -33 c-23 -55 -59 -71 -192 -85 -11 -1 -35 -9 -52
-19 -42 -22 -98 -29 -253 -31 -69 -1 -163 -8 -210 -15 -82 -14 -166 -9 -155 8
8 14 75 23 88 12 8 -6 26 -4 52 5 22 7 62 14 88 14 27 0 57 5 68 10 13 7 25 7
37 1 13 -7 25 -6 38 3 11 8 54 16 97 18 54 3 81 9 89 20 7 8 27 23 43 31 40
22 165 57 201 57 16 0 36 4 44 10 21 13 30 -8 17 -39z m1024 -21 c5 0 9 10 9
21 0 17 3 19 13 10 13 -10 80 -22 202 -38 28 -3 58 -10 69 -15 10 -6 57 -12
105 -14 47 -2 118 -10 156 -18 69 -14 66 -14 -166 -15 -185 -1 -239 2 -254 13
-12 8 -33 12 -57 8 -34 -4 -38 -2 -38 17 0 11 -4 21 -10 21 -5 0 -10 -6 -10
-14 0 -39 -63 -21 -78 23 -9 26 -8 31 11 44 21 14 23 13 31 -14 5 -16 13 -29
17 -29z m468 -141 c30 -5 87 -9 127 -9 51 0 75 -4 84 -15 15 -18 34 -19 58 -4
24 15 443 -16 454 -34 5 -8 13 -8 33 1 27 13 68 16 77 6 3 -3 -1 -23 -10 -45
-15 -39 -45 -53 -55 -26 -3 9 -9 7 -18 -5 -12 -15 -40 -18 -204 -22 -344 -8
-672 -30 -789 -52 -45 -9 -108 -18 -141 -21 -33 -3 -66 -10 -73 -16 -19 -15
-37 6 -24 30 7 12 7 43 0 93 -18 137 -22 125 52 125 36 0 90 -4 121 -9 45 -6
59 -5 70 7 15 16 133 14 238 -4z m-1568 -11 c-5 -13 -15 -51 -22 -86 -6 -34
-16 -65 -20 -68 -5 -3 -9 -14 -9 -26 0 -17 -4 -19 -27 -13 -16 4 -43 7 -62 7
-23 -1 -39 6 -51 21 -16 19 -21 20 -54 10 -27 -9 -48 -8 -85 2 -60 16 -71 22
-71 41 0 24 -19 16 -26 -12 -4 -14 -9 -21 -13 -16 -3 5 -50 13 -103 17 -73 6
-98 11 -98 21 0 19 -19 18 -26 -1 -7 -18 -44 -20 -44 -2 -1 7 -6 5 -14 -6 -13
-16 -20 -17 -82 -6 -87 14 -98 24 -51 44 28 11 43 13 57 5 14 -7 31 -6 62 5
52 18 75 19 80 4 3 -9 11 -8 28 1 31 17 164 34 385 50 94 7 186 16 205 20 19
5 38 8 42 9 4 1 4 -9 -1 -21z m-1201 -67 c0 -22 -28 -30 -75 -22 -41 6 -46 9
-25 14 14 4 39 8 55 10 17 2 33 5 38 6 4 0 7 -3 7 -8z m3810 -12 c127 -14 165
-21 172 -32 4 -7 11 -7 21 2 12 10 28 10 76 0 34 -7 61 -17 61 -21 0 -4 -72
-8 -160 -8 -95 0 -160 4 -160 10 0 5 -28 10 -62 12 -61 3 -63 4 -66 32 -3 26
-1 28 20 21 13 -4 57 -11 98 -16z m-3535 -19 c-3 -5 -23 -9 -43 -9 l-37 2 35
7 c52 11 52 11 45 0z m-92 -102 c10 -5 17 -11 15 -12 -10 -6 -138 7 -138 14 0
20 84 19 123 -2z m141 -7 l29 -6 -27 -14 c-29 -16 -76 -7 -84 17 -4 13 30 15
82 3z m3494 -2 c-2 -6 -19 -13 -38 -15 -19 -1 -44 -4 -54 -6 -27 -4 -31 20 -4
25 49 9 100 7 96 -4z m-206 -16 c22 -23 -4 -31 -127 -43 -66 -6 -151 -18 -190
-26 -122 -26 -246 -44 -395 -58 -80 -8 -194 -24 -255 -36 -60 -12 -137 -25
-170 -30 -76 -11 -265 -24 -265 -18 0 2 11 19 25 38 14 19 25 42 25 52 0 9 14
25 31 34 26 13 36 13 61 3 21 -8 35 -9 51 -1 54 25 339 43 352 22 5 -8 11 -8
20 0 7 6 82 15 167 20 188 11 254 18 293 31 93 29 351 37 377 12z m-3159 1
c44 -8 51 -34 8 -34 -35 0 -91 19 -91 31 0 10 29 11 83 3z m296 -25 c64 -4
132 -9 152 -9 32 0 37 -3 43 -30 7 -38 26 -39 26 -2 l0 29 58 -5 c31 -2 65 -8
74 -13 9 -5 23 -6 31 -3 11 4 20 -9 32 -46 17 -52 34 -54 35 -3 0 12 5 25 10
28 18 11 38 -14 54 -68 14 -48 14 -53 -1 -64 -25 -19 -31 -16 -38 17 -7 33
-24 40 -32 12 -5 -22 -41 -26 -61 -6 -9 10 -24 13 -40 9 -17 -4 -31 0 -46 14
-12 11 -38 21 -59 23 -20 1 -37 7 -37 13 0 6 -16 11 -35 12 -19 1 -59 7 -88
14 -48 12 -50 13 -22 19 17 3 30 10 30 15 0 17 -53 17 -86 1 -29 -15 -31 -14
-54 12 l-23 27 -26 -24 c-14 -14 -26 -20 -26 -15 0 11 -57 34 -83 34 -9 0 -17
4 -17 9 0 13 38 20 79 14 19 -2 87 -9 150 -14z m-684 -115 c55 -3 109 -9 120
-15 11 -5 34 -8 50 -7 l30 3 6 -65 c3 -36 15 -87 27 -113 13 -29 20 -58 16
-72 -4 -16 1 -30 15 -44 26 -26 101 -174 101 -200 0 -11 14 -32 30 -48 17 -15
43 -51 59 -78 37 -65 79 -115 97 -115 22 0 16 20 -19 64 -54 67 -70 100 -162
331 -63 158 -95 227 -115 245 -15 14 -30 38 -33 54 l-5 29 52 -7 c28 -4 78
-11 112 -15 37 -4 68 -14 79 -24 12 -13 21 -15 30 -7 9 8 26 8 58 -1 25 -6 52
-9 59 -7 7 3 21 -6 31 -19 14 -18 28 -23 62 -23 24 0 96 -14 161 -30 107 -28
119 -29 140 -15 13 8 25 15 28 15 2 0 -12 -32 -31 -70 -22 -44 -46 -76 -64
-87 -18 -11 -27 -23 -24 -33 3 -9 -6 -31 -20 -50 -14 -19 -25 -39 -25 -46 0
-7 -6 -19 -14 -27 -27 -27 -163 -253 -181 -301 -11 -27 -37 -72 -60 -100 -23
-28 -52 -70 -65 -94 -21 -38 -22 -44 -9 -58 23 -22 55 -3 104 60 30 38 70 69
157 121 76 46 150 101 215 161 128 119 158 144 220 182 31 20 53 42 57 57 10
39 36 32 36 -9 0 -19 5 -47 11 -63 6 -15 15 -73 19 -128 5 -55 20 -161 33
-235 37 -198 58 -332 53 -338 -3 -2 -33 3 -68 12 -36 9 -74 16 -86 16 -11 0
-24 5 -27 10 -4 6 6 10 21 10 46 0 19 16 -182 104 -104 45 -219 101 -256 124
-37 23 -70 37 -73 32 -9 -15 69 -94 148 -148 165 -113 350 -191 467 -197 52
-2 66 -6 72 -21 4 -11 16 -82 28 -159 l21 -140 -33 -27 c-17 -15 -34 -25 -37
-23 -2 3 4 11 14 19 28 20 1 30 -35 11 -20 -10 -30 -12 -30 -4 0 8 -16 10 -50
7 -27 -3 -50 -2 -50 3 0 9 -53 29 -170 63 -152 45 -399 182 -581 322 -39 31
-93 69 -120 85 -51 32 -169 163 -169 189 0 24 -29 60 -49 60 -19 0 -31 19 -31
48 0 15 -79 183 -181 385 -22 44 -39 91 -39 111 0 22 -6 36 -16 40 -11 4 -14
13 -10 31 5 18 2 25 -8 25 -19 0 -28 15 -37 65 -4 22 -15 65 -25 97 -21 70
-14 93 24 83 15 -3 72 -9 127 -11z m3403 -31 c-10 -2 -26 -2 -35 0 -10 3 -2 5
17 5 19 0 27 -2 18 -5z m92 -47 c0 -14 -5 -28 -11 -32 -6 -3 -9 -19 -6 -33 4
-18 -1 -38 -14 -57 -10 -16 -19 -39 -19 -50 0 -24 -37 -114 -99 -245 -23 -48
-41 -94 -41 -103 0 -18 -54 -76 -70 -76 -20 0 -9 31 20 62 33 34 45 67 37 98
-3 14 1 20 17 22 28 4 27 22 -1 26 -15 2 -23 -2 -23 -11 0 -8 -7 -20 -16 -27
-8 -7 -14 -24 -12 -38 2 -17 -8 -36 -34 -64 -44 -45 -47 -69 -15 -92 22 -17
22 -17 0 -11 -20 6 -63 -26 -63 -47 0 -4 -20 -30 -45 -58 -25 -28 -51 -66 -59
-84 -8 -19 -33 -54 -55 -77 -23 -24 -47 -56 -54 -71 -6 -16 -17 -28 -23 -28
-13 0 -58 -47 -73 -77 -6 -13 -18 -23 -25 -23 -7 0 -21 -10 -32 -21 -39 -44
-96 -79 -119 -73 -16 4 -27 -1 -38 -16 -9 -12 -20 -20 -25 -16 -5 3 -17 -3
-27 -14 -10 -11 -31 -20 -46 -20 -18 0 -34 -8 -41 -19 -6 -11 -18 -17 -26 -13
-8 3 -22 -5 -33 -19 -15 -20 -19 -21 -19 -6 0 23 -4 22 -64 -12 -28 -15 -78
-38 -111 -51 -33 -13 -70 -34 -83 -47 -13 -12 -34 -23 -47 -23 -14 0 -70 -16
-126 -35 -56 -19 -104 -35 -106 -35 -8 0 -1 54 22 163 14 64 25 130 25 146 0
34 17 51 26 27 11 -27 71 -17 224 36 91 32 332 179 402 246 50 47 78 40 142
-37 27 -34 28 -35 7 -43 -24 -9 -27 -30 -7 -47 12 -10 22 -5 54 24 26 22 45
33 56 29 27 -11 19 22 -26 94 -22 37 -50 85 -61 107 l-20 39 24 16 c45 29 69
56 107 120 27 45 50 70 74 82 21 10 40 29 46 45 6 15 49 122 96 238 77 191 87
211 116 224 29 14 34 14 62 -2 28 -16 32 -16 48 -2 9 8 34 15 56 16 21 1 50 5
64 9 14 4 40 8 58 9 28 1 32 -2 32 -23z m-2702 -22 c-7 -6 -57 9 -53 17 3 4
17 3 30 -3 14 -6 24 -12 23 -14z m1202 -8 c0 -7 -8 -20 -17 -27 -15 -12 -16
-12 -10 4 4 10 7 23 7 28 0 5 5 9 10 9 6 0 10 -6 10 -14z m1039 -5 c9 -6 10
-11 2 -15 -6 -4 -11 -28 -11 -54 0 -26 -9 -67 -20 -91 -11 -24 -20 -49 -20
-55 0 -7 -17 -24 -37 -37 -24 -16 -41 -37 -50 -64 -7 -21 -18 -42 -24 -46 -13
-7 -30 -37 -59 -97 -11 -24 -36 -67 -55 -96 -19 -29 -35 -57 -35 -62 0 -5 -4
-15 -8 -22 -14 -22 -42 -2 -66 47 -13 25 -39 75 -59 109 -21 35 -37 67 -37 72
0 4 -14 24 -30 45 -17 21 -45 68 -62 104 -17 36 -44 78 -60 93 -15 15 -28 33
-28 41 0 8 26 27 57 42 44 20 67 26 97 22 22 -3 48 -1 59 4 14 8 22 6 33 -8
13 -17 15 -16 18 9 1 16 35 23 48 10 6 -6 30 -3 66 8 78 24 168 35 176 21 10
-16 36 -14 36 3 0 8 10 17 23 19 12 2 24 5 27 5 3 1 11 -2 19 -7z m-1825 -16
c-10 -8 -23 -14 -29 -14 -5 0 -1 6 9 14 11 8 24 15 30 15 5 0 1 -7 -10 -15z
m989 -32 c-7 -2 -19 -2 -25 0 -7 3 -2 5 12 5 14 0 19 -2 13 -5z m-993 -215
c-11 -10 -20 -25 -20 -32 0 -8 -17 -26 -37 -42 -21 -16 -43 -33 -49 -39 -26
-23 -52 -43 -61 -46 -6 -2 -26 -24 -45 -49 -19 -25 -53 -58 -77 -75 -23 -16
-66 -50 -94 -75 -29 -25 -63 -54 -76 -65 -24 -20 -24 -20 -17 0 4 11 45 84 92
162 46 78 84 148 84 155 0 8 13 27 29 42 16 15 43 56 61 91 18 35 44 78 59 96
25 29 34 33 97 38 l69 6 3 -74 c2 -64 0 -76 -18 -93z m80 90 c0 -16 -4 -28
-10 -28 -5 0 -10 19 -10 43 0 31 3 38 10 27 5 -8 10 -27 10 -42z m211 -6 c-12
-4 -81 38 -81 49 0 5 20 -4 45 -19 25 -15 41 -28 36 -30z m709 43 c0 -18 4
-19 31 -2 18 11 24 8 55 -28 23 -28 34 -50 34 -72 0 -33 14 -45 23 -20 3 7 8
5 13 -8 4 -11 10 -22 13 -25 3 -3 17 -27 30 -55 13 -27 32 -59 42 -70 10 -11
25 -37 34 -58 8 -20 19 -37 24 -37 5 0 21 -24 36 -52 29 -58 88 -149 164 -250
8 -10 9 -18 3 -18 -6 0 -58 46 -115 103 -161 156 -248 237 -317 292 -34 28
-66 58 -71 68 -5 9 -16 17 -23 17 -15 0 -76 65 -76 81 0 5 9 27 20 49 11 22
20 46 20 54 0 19 27 46 46 46 8 0 14 -7 14 -15z m-802 -52 c-2 -14 3 -17 22
-15 32 3 90 -32 91 -55 0 -10 2 -43 4 -73 2 -30 6 -115 9 -189 3 -74 8 -136
11 -139 3 -3 5 -32 5 -64 0 -32 7 -75 15 -95 8 -19 14 -54 14 -77 -1 -22 5
-59 14 -81 10 -25 16 -69 16 -120 l-1 -80 -19 60 c-10 33 -28 101 -38 150 -26
123 -50 219 -72 290 -16 51 -89 455 -89 493 0 6 5 12 10 12 6 0 10 -8 8 -17z
m312 -13 c30 -6 55 -12 57 -14 2 -2 6 -24 8 -49 4 -38 2 -45 -10 -41 -12 5
-13 1 -4 -26 12 -33 10 -65 -16 -255 -9 -60 -17 -136 -19 -169 -3 -32 -9 -63
-14 -68 -6 -6 -6 -20 1 -37 8 -21 5 -71 -11 -199 -12 -95 -19 -178 -16 -185 2
-7 1 -24 -4 -38 -7 -18 -11 11 -16 106 -4 72 -12 174 -17 228 -6 53 -11 170
-13 260 -2 96 -12 213 -23 287 -17 106 -21 161 -14 203 1 10 48 9 111 -3z
m180 -155 c-5 -16 -8 -39 -7 -50 1 -14 -4 -20 -18 -20 -16 0 -21 8 -23 39 -2
21 1 43 7 49 6 6 11 21 11 33 0 12 6 24 13 27 17 6 28 -43 17 -78z m230 -35
c0 -14 219 -229 307 -301 39 -32 79 -59 88 -59 24 0 29 -27 11 -55 -11 -17
-26 -25 -45 -25 -26 0 -52 -10 -111 -41 -8 -5 -62 -32 -120 -60 -58 -29 -113
-60 -123 -70 -21 -22 -146 -62 -179 -57 -20 3 -23 8 -21 48 1 25 17 92 36 150
19 58 44 148 56 200 40 175 73 280 87 280 8 0 14 -5 14 -10z m-250 -69 c0 -5
-5 -11 -11 -13 -6 -2 -12 -34 -14 -71 -2 -38 -9 -83 -14 -100 -6 -18 -15 -45
-20 -62 -9 -30 -9 -30 -10 10 -1 42 26 222 35 236 7 12 34 11 34 0z m875 -402
c11 -17 -1 -21 -15 -4 -8 9 -8 15 -2 15 6 0 14 -5 17 -11z m-975 -393 c0 -17
-14 -29 -23 -20 -8 8 3 34 14 34 5 0 9 -6 9 -14z m-36 -136 l-14 -85 4 76 c2
66 11 107 21 97 2 -2 -3 -41 -11 -88z"/>
<path d="M5990 5711 c0 -6 5 -13 10 -16 6 -3 10 1 10 9 0 9 -4 16 -10 16 -5 0
-10 -4 -10 -9z"/>
<path d="M5847 4934 c-4 -4 -7 -14 -7 -23 0 -11 3 -12 11 -4 6 6 10 16 7 23
-2 6 -7 8 -11 4z"/>
<path d="M5860 4800 c0 -5 7 -10 16 -10 8 0 12 5 9 10 -3 6 -10 10 -16 10 -5
0 -9 -4 -9 -10z"/>
<path d="M6025 4700 c3 -5 10 -10 16 -10 5 0 9 5 9 10 0 6 -7 10 -16 10 -8 0
-12 -4 -9 -10z"/>
<path d="M6100 4545 c-10 -12 -9 -15 8 -15 11 0 22 7 26 15 3 9 0 15 -8 15 -7
0 -19 -7 -26 -15z"/>
<path d="M6010 4540 c0 -5 5 -10 10 -10 6 0 10 5 10 10 0 6 -4 10 -10 10 -5 0
-10 -4 -10 -10z"/>
<path d="M6840 5024 c0 -8 5 -12 10 -9 6 4 8 11 5 16 -9 14 -15 11 -15 -7z"/>
<path d="M7150 5830 c0 -19 3 -21 12 -12 9 9 9 15 0 24 -9 9 -12 7 -12 -12z"/>
<path d="M7362 5441 c2 -7 7 -12 11 -12 12 1 9 15 -3 20 -7 2 -11 -2 -8 -8z"/>
<path d="M8090 5435 c0 -9 5 -15 11 -13 6 2 11 8 11 13 0 5 -5 11 -11 13 -6 2
-11 -4 -11 -13z"/>
<path d="M7440 5334 c0 -8 5 -12 10 -9 6 4 8 11 5 16 -9 14 -15 11 -15 -7z"/>
<path d="M7640 5195 c0 -8 5 -15 10 -15 6 0 10 7 10 15 0 8 -4 15 -10 15 -5 0
-10 -7 -10 -15z"/>
<path d="M8010 5151 c0 -6 5 -13 10 -16 6 -3 10 1 10 9 0 9 -4 16 -10 16 -5 0
-10 -4 -10 -9z"/>
<path d="M7550 5125 c0 -8 5 -15 10 -15 6 0 10 7 10 15 0 8 -4 15 -10 15 -5 0
-10 -7 -10 -15z"/>
<path d="M7315 4979 c-4 -6 -5 -13 -2 -16 7 -7 27 6 27 18 0 12 -17 12 -25 -2z"/>
<path d="M7792 4788 c5 -15 28 -18 29 -3 0 6 -7 12 -17 13 -10 3 -15 -1 -12
-10z"/>
<path d="M7980 4690 c0 -19 3 -21 12 -12 9 9 9 15 0 24 -9 9 -12 7 -12 -12z"/>
<path d="M8010 4694 c0 -8 5 -12 10 -9 6 4 8 11 5 16 -9 14 -15 11 -15 -7z"/>
<path d="M8110 4700 c0 -13 18 -22 24 -11 3 5 -1 11 -9 15 -8 3 -15 1 -15 -4z"/>
<path d="M8586 4614 c-8 -22 -8 -24 8 -24 12 0 26 20 26 36 0 12 -29 2 -34
-12z"/>
<path d="M6582 4696 c1 -10 8 -17 13 -17 15 1 12 24 -3 29 -9 3 -13 -2 -10
-12z"/>
<path d="M6320 5215 c0 -8 6 -15 14 -15 22 0 28 17 10 24 -22 9 -24 8 -24 -9z"/>
<path d="M7380 4660 c0 -5 5 -10 10 -10 6 0 10 5 10 10 0 6 -4 10 -10 10 -5 0
-10 -4 -10 -10z"/>
<path d="M7410 4596 c0 -9 5 -16 10 -16 6 0 10 4 10 9 0 6 -4 13 -10 16 -5 3
-10 -1 -10 -9z"/>
<path d="M6110 4899 c0 -11 5 -17 10 -14 6 3 10 13 10 21 0 8 -4 14 -10 14 -5
0 -10 -9 -10 -21z"/>
<path d="M6170 4860 c0 -5 5 -10 10 -10 6 0 10 5 10 10 0 6 -4 10 -10 10 -5 0
-10 -4 -10 -10z"/>
<path d="M6200 4806 c0 -9 30 -14 35 -6 4 6 -3 10 -14 10 -12 0 -21 -2 -21 -4z"/>
<path d="M6327 4713 c-14 -13 -6 -23 18 -23 28 0 34 15 9 24 -19 7 -19 7 -27
-1z"/>
<path d="M6829 4541 c-20 -16 -22 -23 -14 -46 6 -16 23 -37 38 -49 l29 -21 24
28 c28 33 33 91 8 101 -29 11 -62 6 -85 -13z"/>
<path d="M7075 4454 c-13 -27 -15 -44 -8 -68 7 -26 15 -32 53 -38 24 -4 47 -4
51 0 4 4 9 28 11 53 5 46 4 47 -32 68 -50 28 -55 27 -75 -15z"/>
<path d="M6796 4378 c-21 -17 -54 -37 -74 -44 -27 -9 -37 -18 -39 -36 -1 -12
-9 -63 -17 -113 -9 -49 -16 -111 -16 -136 0 -56 33 -135 60 -144 11 -4 20 -10
20 -15 0 -15 84 -48 141 -55 71 -9 120 5 191 54 66 45 104 86 119 131 8 20 16
29 25 26 8 -3 20 -8 28 -12 7 -3 27 7 45 21 27 23 31 33 31 76 0 27 -4 49 -9
49 -5 0 -16 3 -25 6 -9 4 -25 -5 -41 -22 -26 -28 -27 -28 -41 -9 -8 10 -14 27
-14 36 0 10 -4 20 -9 23 -5 3 -12 18 -16 33 -10 43 -49 88 -92 105 -32 13
-206 58 -223 58 -3 0 -23 -14 -44 -32z m205 -111 c39 -21 45 -28 57 -80 12
-50 17 -57 39 -57 20 0 23 4 18 20 -4 11 -2 20 4 20 21 0 11 -40 -11 -49 -29
-11 -72 -68 -58 -76 15 -9 12 -17 -20 -55 -16 -19 -35 -41 -41 -49 -10 -11
-15 -10 -29 9 -14 19 -20 21 -38 11 -27 -15 -52 -14 -52 2 0 6 -14 28 -31 47
-27 32 -30 40 -24 83 8 62 22 100 36 92 7 -5 5 -13 -6 -25 -23 -26 -4 -70 30
-70 21 0 25 4 20 19 -4 13 2 25 20 40 18 13 25 28 23 43 -3 23 -13 25 -55 13
-28 -9 -42 18 -22 41 10 13 24 15 63 10 38 -4 47 -3 38 6 -11 11 -16 28 -9 28
2 0 24 -10 48 -23z"/>
<path d="M7282 4018 c5 -15 28 -18 29 -3 0 6 -7 12 -17 13 -10 3 -15 -1 -12
-10z"/>
<path d="M6854 3745 c-22 -34 -15 -54 29 -82 35 -22 37 -22 37 -4 0 11 5 23
10 26 18 11 10 43 -16 64 -34 27 -40 26 -60 -4z"/>
<path d="M7965 4140 c3 -5 11 -10 16 -10 6 0 7 5 4 10 -3 6 -11 10 -16 10 -6
0 -7 -4 -4 -10z"/>
<path d="M6082 4138 c-5 -20 -5 -34 1 -37 13 -5 27 19 27 47 0 33 -18 27 -28
-10z"/>
<path d="M7820 3924 c0 -8 5 -12 10 -9 6 4 8 11 5 16 -9 14 -15 11 -15 -7z"/>
<path d="M6000 3920 c0 -5 7 -10 15 -10 8 0 15 5 15 10 0 6 -7 10 -15 10 -8 0
-15 -4 -15 -10z"/>
<path d="M5580 3701 c0 -10 30 -24 37 -17 3 3 2 9 -2 15 -8 13 -35 15 -35 2z"/>
<path d="M5800 3700 c0 -5 4 -10 9 -10 6 0 13 5 16 10 3 6 -1 10 -9 10 -9 0
-16 -4 -16 -10z"/>
<path d="M5620 3116 c0 -9 5 -16 10 -16 6 0 10 4 10 9 0 6 -4 13 -10 16 -5 3
-10 -1 -10 -9z"/>
<path d="M6400 2899 c0 -18 2 -19 15 -9 8 7 15 16 15 21 0 5 -7 9 -15 9 -9 0
-15 -9 -15 -21z"/>
<path d="M6465 2900 c3 -5 10 -10 16 -10 5 0 9 5 9 10 0 6 -7 10 -16 10 -8 0
-12 -4 -9 -10z"/>
<path d="M8628 3761 c-23 -23 -26 -30 -15 -44 10 -14 15 -10 35 28 25 51 19
57 -20 16z"/>
<path d="M8590 3653 c-49 -101 -43 -153 9 -82 16 22 20 34 12 42 -7 7 -6 14 6
22 10 7 14 19 10 29 -9 24 -22 20 -37 -11z"/>
<path d="M8545 3510 c-9 -10 -15 -26 -12 -35 5 -10 0 -15 -13 -15 -24 0 -27
-35 -4 -44 22 -8 31 -1 39 31 3 16 13 36 22 45 14 16 11 38 -6 38 -4 0 -16 -9
-26 -20z"/>
<path d="M6980 7725 c0 -10 7 -15 18 -13 21 4 19 22 -2 26 -10 2 -16 -3 -16
-13z"/>
<path d="M6970 7651 c0 -6 5 -13 10 -16 6 -3 10 1 10 9 0 9 -4 16 -10 16 -5 0
-10 -4 -10 -9z"/>
<path d="M7162 6788 c5 -15 28 -23 28 -10 0 5 -7 13 -16 16 -10 4 -14 1 -12
-6z"/>
<path d="M6560 6141 c0 -5 5 -13 10 -16 6 -3 10 -2 10 4 0 5 -4 13 -10 16 -5
3 -10 2 -10 -4z"/>
<path d="M4920 4690 c0 -19 3 -21 12 -12 9 9 9 15 0 24 -9 9 -12 7 -12 -12z"/>
<path d="M3638 4371 c-37 -20 -79 -47 -93 -61 -37 -34 -119 -147 -139 -190 -9
-19 -26 -49 -39 -66 -12 -18 -27 -40 -33 -50 -14 -23 -29 -12 -19 13 4 10 9
38 11 63 2 25 13 75 25 111 26 78 21 122 -13 117 -14 -2 -37 -31 -72 -88 -56
-93 -164 -240 -176 -240 -13 0 -21 80 -11 118 16 61 50 265 46 272 -7 11 -74
20 -105 14 -15 -3 -40 -18 -56 -32 -15 -15 -42 -33 -58 -42 -32 -16 -42 -43
-32 -86 5 -20 13 -24 42 -24 19 0 44 5 55 10 23 13 26 40 4 40 -23 0 -17 23
11 44 36 25 46 10 30 -44 -48 -160 -20 -348 52 -358 35 -5 65 20 115 95 63 92
76 108 84 100 4 -4 1 -13 -5 -19 -20 -20 -15 -142 6 -168 17 -21 20 -22 48 -7
43 22 67 52 120 152 26 50 58 99 72 110 13 12 34 41 46 65 16 34 34 51 81 77
66 36 82 30 70 -27 -6 -27 -4 -30 17 -30 35 0 129 47 166 83 64 62 27 78 -52
22 -52 -36 -67 -38 -59 -5 8 29 -23 70 -50 69 -12 -1 -52 -18 -89 -38z"/>
<path d="M10335 4343 c-37 -6 -68 -32 -62 -54 4 -14 -6 -18 -54 -23 -67 -8
-94 2 -103 39 -8 31 -33 32 -47 2 -10 -21 -16 -23 -62 -19 -40 3 -71 -3 -131
-25 -94 -34 -116 -58 -87 -94 16 -20 22 -22 42 -11 13 6 36 21 50 32 25 21
115 39 152 32 23 -5 22 -44 -3 -123 -40 -122 -59 -151 -122 -181 -54 -26 -58
-30 -58 -63 0 -28 4 -36 24 -41 14 -3 37 1 57 11 30 16 34 16 61 1 41 -25 186
-33 226 -14 28 15 31 14 35 -4 6 -20 6 -20 37 -2 59 35 77 94 29 94 -12 0 -57
-12 -101 -27 l-79 -27 -54 18 c-81 28 -81 27 -55 80 30 63 56 78 151 86 68 6
85 11 107 33 25 26 25 27 8 46 -10 11 -27 23 -38 27 -23 7 -68 -20 -68 -42 0
-12 -10 -14 -42 -12 l-43 3 1 53 c2 73 12 82 98 82 39 0 88 5 108 10 45 13 98
55 98 79 0 20 -19 42 -34 40 -6 -1 -24 -4 -41 -6z"/>
<path d="M4 4136 c-4 -9 -4 -19 -1 -23 3 -3 295 -9 649 -14 354 -4 965 -13
1358 -19 717 -12 880 -9 880 15 0 15 -250 22 -1225 35 -374 5 -899 12 -1167
16 -454 7 -488 6 -494 -10z"/>
<path d="M10631 4036 c-22 -26 22 -39 107 -32 41 3 138 2 216 -4 77 -5 418
-12 756 -15 338 -4 716 -8 840 -10 220 -4 268 1 244 25 -16 16 -199 21 -659
21 -214 0 -552 6 -751 13 -207 7 -388 9 -425 5 -59 -8 -116 -6 -260 7 -42 3
-59 1 -68 -10z"/>
<path d="M8160 2611 c0 -6 5 -13 10 -16 6 -3 10 1 10 9 0 9 -4 16 -10 16 -5 0
-10 -4 -10 -9z"/>
<path d="M6940 1203 c-102 -70 -150 -139 -150 -213 0 -67 20 -103 76 -136 59
-34 84 -85 84 -169 0 -80 -24 -128 -94 -193 -61 -55 -99 -72 -125 -55 -33 21
-36 129 -5 164 8 9 17 32 20 51 5 30 2 38 -21 56 -35 28 -95 29 -118 4 -9 -10
-20 -32 -23 -50 -6 -28 -3 -33 29 -52 46 -27 51 -42 36 -118 -12 -57 -11 -64
7 -89 11 -14 37 -32 59 -40 131 -45 294 148 295 348 0 90 -54 189 -117 216
-27 11 -33 19 -33 43 0 41 64 154 96 168 33 16 31 16 39 -18 8 -36 21 -46 40
-30 18 15 19 79 1 102 -25 33 -58 37 -96 11z"/>
<path d="M7062 993 c2 -10 10 -18 18 -18 8 0 16 8 18 18 2 12 -3 17 -18 17
-15 0 -20 -5 -18 -17z"/>
<path d="M6850 159 c0 -147 1 -160 18 -157 15 3 17 19 20 141 2 132 -5 177
-28 177 -6 0 -10 -64 -10 -161z"/>
</g>
</svg>
