<?xml version="1.0" encoding="UTF-8" standalone="no"?>
<!-- Created with Inkscape (http://www.inkscape.org/) -->

<svg
   xmlns:dc="http://purl.org/dc/elements/1.1/"
   xmlns:cc="http://creativecommons.org/ns#"
   xmlns:rdf="http://www.w3.org/1999/02/22-rdf-syntax-ns#"
   xmlns:svg="http://www.w3.org/2000/svg"
   xmlns="http://www.w3.org/2000/svg"
   xmlns:sodipodi="http://sodipodi.sourceforge.net/DTD/sodipodi-0.dtd"
   xmlns:inkscape="http://www.inkscape.org/namespaces/inkscape"
   width="93.024002"
   height="93.167999"
   id="svg2"
   version="1.1"
   inkscape:version="0.48.2 r9819"
   sodipodi:docname="esri_¢.svg">
  <defs
     id="defs4" />
  <sodipodi:namedview
     id="base"
     pagecolor="#ffffff"
     bordercolor="#666666"
     borderopacity="1.0"
     inkscape:pageopacity="0.0"
     inkscape:pageshadow="2"
     inkscape:zoom="2.7675795"
     inkscape:cx="97.851775"
     inkscape:cy="40.973859"
     inkscape:document-units="px"
     inkscape:current-layer="layer1"
     showgrid="false"
     fit-margin-top="0"
     fit-margin-left="0"
     fit-margin-right="0"
     fit-margin-bottom="0"
     inkscape:window-width="1366"
     inkscape:window-height="744"
     inkscape:window-x="0"
     inkscape:window-y="24"
     inkscape:window-maximized="1" />
  <metadata
     id="metadata7">
    <rdf:RDF>
      <cc:Work
         rdf:about="">
        <dc:format>image/svg+xml</dc:format>
        <dc:type
           rdf:resource="http://purl.org/dc/dcmitype/StillImage" />
        <dc:title></dc:title>
      </cc:Work>
    </rdf:RDF>
  </metadata>
  <g
     inkscape:label="Camada 1"
     inkscape:groupmode="layer"
     id="layer1"
     transform="translate(-600.34334,-94.705154)">
    <g
       style="font-size:144px;font-style:normal;font-variant:normal;font-weight:normal;font-stretch:normal;line-height:125%;letter-spacing:0px;word-spacing:0px;fill:#000000;fill-opacity:1;stroke:none;font-family:Arial;-inkscape-font-specification:Arial"
       id="text3451">
      <path
         d="m 646.85534,141.36115 15.552,7.632 28.944,-7.632 -44.496,0 m 7.344,-15.408 -7.344,-28.799996 0,44.207996 7.344,-15.408 m -14.688,30.384 7.344,29.232 0,-44.208 -7.344,14.976 m -7.92,-22.608 -28.944,7.632 44.208,0 -15.264,-7.632 m 15.264,7.632 14.832,-7.632 7.344,-14.256 -22.176,21.888 m -14.976,7.776 -6.912,13.968 21.888,-21.744 -14.976,7.776 m 7.056,-23.184 -13.968,-6.768 21.888,22.176 -7.92,-15.408 m 7.92,15.408 8.352,15.12 13.536,6.912 -21.888,-22.032 m 46.512,0.144 -30.384,8.064 7.488,14.688 -0.576,0.576 -14.832,-7.632 -7.776,30.672 -0.72,0 -7.632,-30.672 -14.976,7.632 -0.432,-0.576 7.344,-14.688 -30.528,-8.064 0,-0.576 30.528,-7.488 -7.488,-14.976 0.864,-0.72 14.688,7.488 7.632,-30.527996 0.72,0 7.632,30.527996 14.976,-7.488 0.576,0.432 -7.488,15.264 30.384,7.488 0,0.576"
         style="font-family:ESRI North;-inkscape-font-specification:ESRI North"
         id="path3456"
         inkscape:connector-curvature="0"
         sodipodi:nodetypes="ccccccccccccccccccccccccccccccccccccccccccccccccccccccccc" />
    </g>
  </g>
</svg>
