<?xml version="1.0" standalone="yes"?>
<svg xmlns="http://www.w3.org/2000/svg" version="1.1" width="600" height="600" style="fill-opacity:1;fill-rule:evenodd;stroke;stroke-opacity:1;stroke-width:1;stroke-dasharray:none;stroke-linecap:square;stroke-linejoin:miter;stroke-miterlimit:9;text-anchor:middle;text-align:start;writing-mode:lr-tb;line-height:normal;font-family:sans-serif;font-weight:bold;font-style:normal;font-variant:normal;font-stretch:normal;font-size:32px">
<metadata xmlns:rdf="http://www.w3.org/1999/02/22-rdf-syntax-ns#" xmlns:cc="http://creativecommons.org/ns#" xmlns:dc="http://purl.org/dc/elements/1.1/"><rdf:RDF><cc:Work rdf:about=""><dc:format>image/svg+xml</dc:format><dc:type rdf:resource="http://purl.org/dc/dcmitype/StillImage"/></cc:Work></rdf:RDF></metadata>
<g transform="translate(300,300)" style="fill:#000;stroke:none">
<path id="cross" style="fill:#FFF;stroke:#000" d="m0-243 33 210 210 33-210 33-33 210-33-210-210-33 210-33z"/>
<path id="sides" d="m0 0v-243l-33 210 33 33h243l-210-33-33 33v243l33-210-33-33h-243l210 33z"/>
<path id="N" transform="translate(0,-274)" d="m-14 16v-32h9l12 22v-22h7v32h-9l-12-22v22z"/>
<path id="E" transform="translate(274,0)" d="m-12 16v-32h24v6h-16v7h14v6h-14v7h16v6h-24z"/>
<path id="S" transform="translate(0,274)" d="m-12 7c5 2 9 3 11.5 3 2 0 4.5-1.5 4.5-3 0-2-1.5-3-4.5-4-3.5-1-7-2.5-9.5-5-2-2-2-3.5-2-5.5 0-2 1-4 3-6 2-2 5-2.5 9-2.5 4 0 8 1.5 12 3 l-2.5 5c-2.5 -1-6.5 -2-9 -2-2 0-4.5 1.5-4.5 3 0 2 1.5 3 4.5 4 3.5 1 7 2.5 9.5 5 2 2 2 3.5 2 5.5 0 2-1 4-3 6-2 2-5 2.5-9 2.5-4 0-8-1.5-12-3z"/>
<path id="W" transform="translate(-274,0)" d="m0-16.1c5 0 8.8 1.3 11.8 4.3 3 3 4.3 6.8 4.3 11.8 0 5-1.3 8.8-4.3 11.8-3 3-6.8 4.3-11.8 4.3-5 0-8.8-1.3-11.8-4.3-3-3-4.3-6.8-4.3-11.8 0-5 1.3-8.8 4.3-11.8 3-3 6.8-4.3 11.8-4.3zm0 5.9c-2.4 0-4.3.9-5.6 2.6-1.3 1.8-2 4.3-2 7.6 0 3.2.7 5.6 2 7.6 1.3 1.8 3.2 2.6 5.6 2.6 2.4 0 4.3-.9 5.6-2.6 1.3-1.8 2-4.3 2-7.6 0-3.2-.7-5.6-2-7.6-1.3-1.8-3.2-2.6-5.6-2.6z"/>
</g>
</svg>
