<?xml version="1.0" encoding="UTF-8" standalone="no"?>
<!-- Created with Inkscape (http://www.inkscape.org/) -->

<svg
   xmlns:dc="http://purl.org/dc/elements/1.1/"
   xmlns:cc="http://creativecommons.org/ns#"
   xmlns:rdf="http://www.w3.org/1999/02/22-rdf-syntax-ns#"
   xmlns:svg="http://www.w3.org/2000/svg"
   xmlns="http://www.w3.org/2000/svg"
   xmlns:sodipodi="http://sodipodi.sourceforge.net/DTD/sodipodi-0.dtd"
   xmlns:inkscape="http://www.inkscape.org/namespaces/inkscape"
   width="97.700172mm"
   height="99.551056mm"
   viewBox="0 0 97.700172 99.551056"
   version="1.1"
   id="svg845"
   inkscape:version="0.92.3 (2405546, 2018-03-11)"
   sodipodi:docname="esri_north_004_b.svg">
  <defs
     id="defs839" />
  <sodipodi:namedview
     id="base"
     pagecolor="#ffffff"
     bordercolor="#666666"
     borderopacity="1.0"
     inkscape:pageopacity="0.0"
     inkscape:pageshadow="2"
     inkscape:zoom="0.97458821"
     inkscape:cx="181.85869"
     inkscape:cy="153.32187"
     inkscape:document-units="mm"
     inkscape:current-layer="text1792"
     showgrid="false"
     inkscape:window-width="1366"
     inkscape:window-height="745"
     inkscape:window-x="0"
     inkscape:window-y="23"
     inkscape:window-maximized="1"
     fit-margin-top="0"
     fit-margin-left="0"
     fit-margin-right="0"
     fit-margin-bottom="0"
     showguides="true"
     inkscape:guide-bbox="true" />
  <metadata
     id="metadata842">
    <rdf:RDF>
      <cc:Work
         rdf:about="">
        <dc:format>image/svg+xml</dc:format>
        <dc:type
           rdf:resource="http://purl.org/dc/dcmitype/StillImage" />
        <dc:title></dc:title>
      </cc:Work>
    </rdf:RDF>
  </metadata>
  <g
     inkscape:label="Camada 1"
     inkscape:groupmode="layer"
     id="layer1"
     transform="translate(-5.6133291e-7,-196.85281)">
    <g
       aria-label="2"
       style="font-style:normal;font-weight:normal;font-size:124.42774963px;line-height:1.25;font-family:sans-serif;letter-spacing:0px;word-spacing:0px;fill:#000000;fill-opacity:1;stroke:none;stroke-width:5.18448925"
       id="text1587">
      <g
         aria-label="4"
         style="font-style:normal;font-weight:normal;font-size:132.20591736px;line-height:1.25;font-family:sans-serif;letter-spacing:0px;word-spacing:0px;fill:#000000;fill-opacity:1;stroke:none;stroke-width:28.55917168"
         id="text1792">
        <path
           d="m 29.349714,249.20636 9.915444,2.51191 9.38662,-5.55265 H 29.085302 v -2.37971 q 0,-0.39661 0,-0.79323 0.132206,-0.39662 0.264412,-0.92544 l -15.335886,4.09838 15.468092,4.23059 z m 59.096045,-3.04074 -16.129122,-3.96618 q 0.132206,0.13221 0.132206,1.05765 l 12.95618,2.90853 H 72.581049 v -1.71868 q 0,-1.05764 -0.132206,-1.18985 l -10.444267,-2.64412 -9.254414,5.55265 h 19.830887 q -0.132206,1.05765 -0.264412,2.1153 0,0.92544 -0.264411,1.98308 z m -32.390449,11.76633 -5.288237,-9.38662 v 19.30206 h 1.454265 q 1.322059,0 1.586471,-0.1322 l -3.040736,12.95618 v -12.82398 q -2.247501,0 -4.23059,-0.39662 l 4.23059,16.52574 4.098383,-16.52574 q -0.132206,0.13221 -0.528823,0.13221 -0.396618,0 -0.528824,0.13221 z m -10.576474,-23.40045 5.288237,9.25441 V 223.4262 h -1.454265 q -1.189854,0 -1.322059,0.13221 l 2.776324,-11.76633 v 11.63412 q 1.983089,0 3.833971,0.39662 l -3.833971,-15.46809 -3.833972,15.46809 q 0.132206,-0.1322 0.528824,-0.1322 0.396618,0 0.528824,-0.13221 z m 5.288237,11.50192 15.335886,-16.12913 -0.396618,-0.39661 2.644119,-1.85089 -2.247501,2.2475 q 0.528824,0.52883 0.66103,0.79324 0.264412,0.26441 0.396618,0.39662 l -3.040737,4.89162 q 1.586471,1.98308 2.247501,4.6272 l 5.949266,1.58647 q -1.057647,-6.34588 -5.15603,-11.10529 l 3.569559,-5.81706 -5.552648,3.70176 0.528823,0.52883 -7.535737,5.55264 z m -0.132206,0 -15.600298,-15.86471 1.057647,-1.05765 -5.552649,-3.83397 3.56956,5.94926 q -3.966177,4.75942 -4.759413,10.84089 l 5.552649,-1.45427 q 0.396617,-1.32206 0.925441,-2.3797 0.66103,-1.18986 1.322059,-2.2475 l -3.040736,-4.75942 q 0.264412,-0.26441 0.264412,-0.39662 0.132206,-0.1322 0.264412,-0.26441 l -1.718677,-2.64412 2.115295,2.24751 -0.396618,0.39661 5.288237,7.93236 z M 13.088386,241.274 H 10.312062 L 9.3866207,246.29783 7.9323556,241.274 H 5.0238254 L 3.5695603,246.29783 2.6441189,241.274 H 5.6133291e-7 L 1.9830893,250.66062 h 2.9085302 l 1.586471,-5.81706 1.586471,5.81706 h 2.9085305 z m 37.678687,5.02383 7.403531,10.97309 7.006914,5.02382 q -0.264412,0.26441 -0.396618,0.39662 -0.132206,0 -0.264412,0.13221 l 6.213678,4.23059 -4.098383,-6.34589 q 4.098383,-4.495 5.420443,-10.44427 l -5.684855,1.45427 q -0.264412,1.05765 -0.925441,2.11529 -0.528824,1.05765 -1.454265,2.51192 l 2.644118,4.36279 q -0.132206,0.13221 -0.396618,0.39662 -0.132206,0.26441 -0.528824,0.66103 l 2.644119,2.77632 -3.172942,-2.2475 0.528823,-0.52882 z m -0.132206,0 -14.939269,15.46809 q 0.396618,0.13221 0.528824,0.52882 l -3.172942,2.2475 2.644118,-2.77632 q -0.264412,-0.26441 -0.528823,-0.52882 -0.264412,-0.39662 -0.528824,-0.79324 l 2.511912,-4.09838 q -1.718677,-2.1153 -2.2475,-4.62721 l -5.420443,-1.32206 q 1.189853,5.68485 5.156031,10.04765 l -4.098384,6.6103 6.345885,-4.23059 q -0.264412,-0.26442 -0.396618,-0.26442 -0.132206,-0.1322 -0.264412,-0.26441 l 6.874708,-5.02382 z m 4.495001,-40.0584 v -9.38662 h -2.776324 v 5.15603 l -3.56956,-5.15603 h -2.644118 v 9.38662 h 2.776324 v -5.02382 l 3.437354,5.02382 z m 42.570305,44.28899 v -2.1153 h -5.023824 v -1.85088 h 4.495001 v -1.85088 h -4.495001 v -1.45427 h 4.891619 v -2.11529 h -7.80015 v 9.38662 z m -42.834717,42.70251 q 0,-1.18986 -0.925441,-1.85089 -0.793236,-0.66102 -3.437354,-1.32205 -0.793236,-0.26442 -0.925441,-0.39662 v -0.39662 q 0,-0.79324 0.793235,-0.79324 1.057647,0 1.322059,1.18986 l 2.90853,-0.13221 q -0.661029,-2.77632 -3.966177,-2.77632 -2.247501,0 -3.172942,0.92544 -0.793236,0.79323 -0.793236,1.85088 0,1.05765 0.793236,1.85088 1.189853,0.79324 2.644118,1.05765 1.189853,0.26441 1.454265,0.52883 0.396618,0.26441 0.396618,0.66103 0,0.92544 -1.322059,0.92544 -0.793236,0 -1.189853,-0.52883 -0.264412,-0.26441 -0.264412,-1.05764 l -2.90853,0.26441 q 0,1.45426 0.925441,2.3797 1.057647,0.79324 3.437354,0.79324 4.230589,0 4.230589,-3.17294 z M 40.719423,232.284 q 1.322059,-1.05765 2.511913,-1.58647 1.189853,-0.52882 2.2475,-0.79324 l 1.454265,-6.08147 q -3.040736,0.52882 -5.81706,1.98309 -2.776324,1.32206 -5.023825,3.30515 z m 15.468092,-2.37971 q 1.057648,0.26442 2.115295,0.92544 1.057647,0.66103 2.115295,1.45427 l 4.759413,-3.30515 q -4.495001,-4.09838 -10.576474,-5.15603 z m -15.335886,30.14295 -3.966177,2.77633 q 4.230589,3.56956 9.651031,4.6272 l -1.189853,-4.89162 q -2.379706,-0.79323 -4.495001,-2.51191 z m 15.203681,2.51191 -1.189854,4.89162 q 5.420443,-1.05764 9.651032,-4.6272 l -4.098383,-2.77633 q -1.454265,1.45427 -4.362795,2.51191 z M 17.18677,246.16562 h 11.898532 q 0,0.79324 0,1.58647 0.132206,0.79324 0.264412,1.45427 z"
           style="font-style:normal;font-variant:normal;font-weight:normal;font-stretch:normal;font-family:'ESRI North';-inkscape-font-specification:'ESRI North, ';stroke-width:28.55917168"
           id="path1884" />
      </g>
    </g>
  </g>
</svg>
