<?xml version="1.0" encoding="UTF-8" standalone="no"?>
<!-- Created with Inkscape (http://www.inkscape.org/) -->

<svg
   xmlns:dc="http://purl.org/dc/elements/1.1/"
   xmlns:cc="http://creativecommons.org/ns#"
   xmlns:rdf="http://www.w3.org/1999/02/22-rdf-syntax-ns#"
   xmlns:svg="http://www.w3.org/2000/svg"
   xmlns="http://www.w3.org/2000/svg"
   xmlns:sodipodi="http://sodipodi.sourceforge.net/DTD/sodipodi-0.dtd"
   xmlns:inkscape="http://www.inkscape.org/namespaces/inkscape"
   width="96.857155mm"
   height="97.099602mm"
   viewBox="0 0 96.857155 97.099602"
   version="1.1"
   id="svg845"
   inkscape:version="0.92.3 (2405546, 2018-03-11)"
   sodipodi:docname="esri_north_006_b.svg">
  <defs
     id="defs839" />
  <sodipodi:namedview
     id="base"
     pagecolor="#ffffff"
     bordercolor="#666666"
     borderopacity="1.0"
     inkscape:pageopacity="0.0"
     inkscape:pageshadow="2"
     inkscape:zoom="0.97458821"
     inkscape:cx="179.89397"
     inkscape:cy="153.32188"
     inkscape:document-units="mm"
     inkscape:current-layer="text1587"
     showgrid="false"
     inkscape:window-width="1366"
     inkscape:window-height="745"
     inkscape:window-x="0"
     inkscape:window-y="23"
     inkscape:window-maximized="1"
     fit-margin-top="0"
     fit-margin-left="0"
     fit-margin-right="0"
     fit-margin-bottom="0"
     showguides="true"
     inkscape:guide-bbox="true" />
  <metadata
     id="metadata842">
    <rdf:RDF>
      <cc:Work
         rdf:about="">
        <dc:format>image/svg+xml</dc:format>
        <dc:type
           rdf:resource="http://purl.org/dc/dcmitype/StillImage" />
        <dc:title></dc:title>
      </cc:Work>
    </rdf:RDF>
  </metadata>
  <g
     inkscape:label="Camada 1"
     inkscape:groupmode="layer"
     id="layer1"
     transform="translate(-0.51983076,-199.30427)">
    <g
       aria-label="2"
       style="font-style:normal;font-weight:normal;font-size:124.42774963px;line-height:1.25;font-family:sans-serif;letter-spacing:0px;word-spacing:0px;fill:#000000;fill-opacity:1;stroke:none;stroke-width:5.18448925"
       id="text1587">
      <g
         aria-label="6"
         style="font-style:normal;font-weight:normal;font-size:121.22297668px;line-height:1.25;font-family:sans-serif;letter-spacing:0px;word-spacing:0px;fill:#000000;fill-opacity:1;stroke:none;stroke-width:26.18663406"
         id="text1792">
        <path
           d="m 97.376989,247.79346 q 0,-10.06151 -3.879135,-18.91079 -3.757912,-8.84928 -10.303953,-15.39532 -6.546041,-6.54604 -15.395318,-10.30395 -8.849277,-3.87913 -18.910785,-3.87913 -10.061507,0 -18.910784,3.87913 -8.849277,3.75791 -15.395318,10.30395 -6.5460407,6.54604 -10.303953,15.39532 -3.75791224,8.84928 -3.75791224,18.91079 0,10.0615 3.75791224,18.91078 3.7579123,8.84928 10.303953,15.51654 6.546041,6.54604 15.395318,10.42518 8.849277,3.75791 18.910784,3.75791 10.061508,0 18.910785,-3.75791 8.849277,-3.87914 15.395318,-10.42518 6.546041,-6.66726 10.303953,-15.51654 3.879135,-8.84928 3.879135,-18.91078 z m -29.457183,-1.21223 v 2.6669 q -0.363669,3.03058 -1.575899,5.8187 -1.21223,2.66691 -2.909351,4.7277 l -2.666906,2.66691 q -4.727696,3.87913 -10.667622,4.00035 H 47.3119 q -5.69748,-0.60611 -10.061507,-4.00035 l -2.666906,-2.66691 q -3.879135,-4.60647 -4.242804,-11.03129 v -2.54568 q 0.484892,-5.69748 4.242804,-10.18273 l 2.42446,-2.54569 q 4.848919,-3.75791 11.152514,-4.2428 l 2.909351,0.12122 q 5.091365,0.60612 9.212946,3.63669 l 5.091365,5.93993 q 1.939568,3.27302 2.545683,7.63705 z m -61.9449413,1.69712 v -0.48489 q 0,-8.60684 3.2730204,-16.24388 l 20.6079059,8.12194 -0.484892,0.96978 -22.0625815,7.15216 21.9413585,7.03093 0.363669,0.96978 -20.4866829,8.24316 Q 5.9748647,255.9154 5.9748647,248.27835 Z m 42.9129333,42.42804 q -8.121939,0 -16.849993,-3.51547 l 9.091723,-19.88056 q 0.121223,0.12122 0.484892,0.12122 l 7.273378,22.06258 6.667264,-21.69891 q -0.606115,0 0.606115,-0.24245 l 9.091723,19.63812 q -8.121939,3.51547 -16.365102,3.51547 z m 0,-85.58342 q 9.33417,0 17.456109,4.12158 l -9.334169,19.39568 q -0.363669,-0.12123 -1.091007,-0.36367 l -7.030933,-22.06259 -6.788486,22.06259 -8.849278,-20.00179 q 8.12194,-3.1518 15.637764,-3.1518 z m -16.122655,3.27302 8.606831,20.12301 -0.606115,0.12123 -21.092798,-10.5464 10.910068,20.00179 -0.484892,0.96978 -20.486683,-8.00071 q 3.394243,-7.63705 9.455392,-13.45576 6.061149,-5.93992 13.698197,-9.21294 z m -2.666906,48.48919 -10.303953,20.97157 20.001791,-11.15251 q 0.121223,0.24245 0.727338,0.36367 l -8.9705,19.88057 q -7.637048,-3.27302 -13.334528,-9.09173 -5.576257,-5.8187 -8.728054,-13.2133 l 20.36546,-8.36439 z m 60.490265,-9.09172 -21.698912,-6.54604 q -0.242446,-0.24245 -0.242446,-0.4849 l 19.516899,-8.36438 q 1.454676,3.63669 2.182013,7.51582 0.848561,3.87914 0.848561,7.8795 0,4.60647 -0.969783,8.84927 -0.969784,4.12158 -2.666906,8.12194 l -19.274453,-8.60683 0.242446,-0.72734 z m -2.788128,-15.88021 -19.395676,8.24316 q -0.121223,-0.24245 -0.242446,-0.60612 -0.121223,-0.36367 -0.242446,-0.72733 l 10.788845,-19.39568 -20.123014,9.94028 q -0.121223,-0.12122 -0.969784,-0.36367 L 66.950022,209.487 q 6.90971,3.51546 12.243521,9.33416 5.455034,5.81871 8.606831,13.09209 z m -30.305744,35.03344 21.092798,9.94028 -11.152514,-19.27445 0.484892,-0.84856 19.395676,8.60683 q -3.394243,7.03093 -8.849277,12.72841 -5.455034,5.69748 -12.728413,8.84928 l -8.9705,-19.63812 q 0.242446,0 0.363669,-0.12123 0.121223,-0.12122 0.363669,-0.24244 z m -0.363669,-19.15323 q 0,-3.39425 -2.303237,-5.69748 -2.303236,-2.42446 -5.69748,-2.42446 -3.394243,0 -5.697479,2.42446 -2.303237,2.30323 -2.303237,5.69748 0,3.51546 2.303237,5.93992 2.303236,2.42446 5.697479,2.42446 3.394244,0 5.69748,-2.42446 2.303237,-2.42446 2.303237,-5.93992 z m 35.760778,0 q 0,-4.24281 -0.848561,-8.24317 -0.848561,-4.00035 -2.424459,-7.75827 l 2.424459,-1.21223 q 3.394244,8.00072 3.394244,17.21367 0,10.30395 -4.121582,18.66833 l -2.182013,-0.96978 q 1.697121,-4.12158 2.666905,-8.48561 1.091007,-4.48525 1.091007,-9.21294 z m -25.335602,-39.76114 0.969784,-1.93957 q 7.75827,3.75791 13.819419,9.94029 6.061149,6.06114 9.334169,14.06186 l -2.182013,1.09101 q -3.151798,-7.63705 -8.728055,-13.57698 -5.576257,-6.06114 -13.213304,-9.57661 z M 48.887798,201.6075 q 5.091365,0 9.819062,1.09101 4.727696,1.09101 9.334169,3.03057 l -0.969784,1.93957 q -4.242804,-1.93957 -8.728054,-2.90935 -4.364028,-1.09101 -9.455393,-1.09101 -8.849277,0 -16.243878,3.27302 l -0.727338,-1.93956 q 7.515824,-3.39425 16.971216,-3.39425 z m 40.124806,64.3694 2.182013,0.96979 q -3.636689,8.00071 -9.819061,13.94064 -6.061149,5.8187 -14.061865,9.21294 l -0.848561,-1.69712 q 7.637048,-3.39424 13.334528,-9.09172 5.697479,-5.69748 9.212946,-13.33453 z m -57.82336,-60.73271 0.848561,1.81835 q -8.000717,3.27302 -14.183089,9.33417 -6.061148,6.06114 -9.5766147,14.06186 L 6.3385336,229.61001 Q 9.854,221.24562 16.278818,215.06325 q 6.54604,-6.30359 14.910426,-9.81906 z m 17.698554,88.614 q -9.091723,0 -18.183446,-3.51547 l 0.848561,-1.81834 q 7.637047,3.39424 17.334885,3.39424 9.455393,0 17.09244,-3.39424 l 0.727338,1.93956 q -8.000716,3.39425 -17.819778,3.39425 z m -17.941,-5.69748 -0.848561,1.81834 q -8.121939,-3.39424 -14.304311,-9.69784 -6.182372,-6.30359 -9.5766153,-14.42553 l 1.9395676,-0.72734 q 3.2730207,7.75827 9.0917237,13.81942 5.939925,5.93993 13.698196,9.21295 z M 2.8230673,248.39957 v -0.60611 q 0,-9.4554 3.3942434,-17.45611 l 1.8183446,0.72734 q -1.5758987,3.87913 -2.4244595,8.12193 -0.8485609,4.24281 -0.8485609,8.60684 0,4.60647 0.7273379,8.72805 0.8485608,4.12158 2.4244595,8.00072 l -1.9395676,0.84856 Q 2.8230673,256.64273 2.8230673,248.39957 Z m 57.4596907,12.36474 -5.091365,-5.33381 q -1.939567,1.93957 -5.091365,2.06079 v 7.39461 q 2.788129,-0.12123 5.333811,-1.21223 2.666906,-1.09101 4.848919,-2.90936 z m -12.122297,-3.27302 q -3.515467,-0.12122 -5.333811,-2.06079 l -4.848919,5.21259 q 4.000358,3.63669 10.18273,4.24281 z m 17.577331,-8.72805 h -6.909709 q -0.363669,3.03057 -2.182014,5.33381 l 4.970142,5.21259 q 3.515466,-4.12158 4.121581,-10.5464 z m -24.365818,5.45503 q -1.697122,-2.42446 -1.939568,-5.45503 h -6.909709 q 0.363669,6.30359 4.121581,10.42518 z m 0.242446,-12.60719 -4.727696,-5.21258 q -1.818345,2.06079 -3.030575,4.72769 -1.091006,2.54568 -1.333452,5.69748 h 6.909709 q 0.242446,-2.90935 2.060791,-5.09136 z m 18.789561,-6.18237 q -2.06079,-1.93957 -4.848919,-2.90935 -2.666905,-1.09101 -5.455034,-1.33345 v 6.90971 q 3.030575,0.36367 5.091365,2.42446 v -0.24245 z m 5.333811,11.39496 q -0.484892,-6.30359 -4.000358,-9.94028 l -5.091365,4.84892 q 0.969784,1.21223 1.454676,2.54568 0.484892,1.33345 0.727338,2.54568 z m -17.577331,-8.72805 v -6.90971 q -5.576257,0.36367 -9.819062,3.87913 l 4.485251,5.09137 0.121223,0.12122 q 0.969783,-0.72734 2.182013,-1.33345 1.333453,-0.60612 3.030575,-0.84856 z m -19.880569,9.81906 v 1.69712 q 0,1.33345 0.242446,2.30324 0.242446,0.84856 0.484892,2.06079 l -18.183446,-6.06115 z m 20.607906,-38.30646 v 17.45611 h -0.84856 q -1.333453,0.12122 -2.666906,0.36367 -1.21223,0.12122 -2.545682,0.60611 z m -26.547831,11.03129 12.364743,12.1223 -1.454676,1.45467 q -0.606114,0.72734 -1.212229,1.5759 -0.484892,0.72734 -1.091007,1.5759 z m 26.547831,65.33918 v -17.33488 h 1.21223 q 2.182014,0 4.606473,-0.72734 z M 87.436705,247.79346 H 70.101819 v -0.36367 q 0,-0.12123 -0.121223,-0.36367 0,-0.24245 0,-0.48489 -0.121223,-1.21223 -0.363669,-2.30324 -0.242445,-1.09101 -0.484891,-2.18201 z M 76.284191,221.36685 63.919448,233.2467 q -0.363669,-0.24245 -0.606115,-0.36367 -0.121223,-0.12122 -0.363669,-0.36367 -0.969784,-0.96978 -1.939568,-1.5759 -0.848561,-0.72734 -1.697122,-1.21223 z m -53.944224,53.823 12.24352,-12.24352 q 2.060791,2.06079 4.606473,3.39424 z m 53.701778,-0.60612 -12.364743,-11.87985 1.212229,-1.45467 q 1.21223,-1.45468 2.182014,-2.90936 z"
           style="font-style:normal;font-variant:normal;font-weight:normal;font-stretch:normal;font-family:'ESRI North';-inkscape-font-specification:'ESRI North, ';stroke-width:26.18663406"
           id="path2039" />
      </g>
    </g>
  </g>
</svg>
