<?xml version="1.0" encoding="UTF-8" standalone="no"?>
<!-- Created with Inkscape (http://www.inkscape.org/) -->

<svg
   xmlns:dc="http://purl.org/dc/elements/1.1/"
   xmlns:cc="http://creativecommons.org/ns#"
   xmlns:rdf="http://www.w3.org/1999/02/22-rdf-syntax-ns#"
   xmlns:svg="http://www.w3.org/2000/svg"
   xmlns="http://www.w3.org/2000/svg"
   xmlns:sodipodi="http://sodipodi.sourceforge.net/DTD/sodipodi-0.dtd"
   xmlns:inkscape="http://www.inkscape.org/namespaces/inkscape"
   width="115.2"
   height="113.76"
   id="svg2"
   version="1.1"
   inkscape:version="0.48.2 r9819"
   sodipodi:docname="esri_Ç.svg">
  <defs
     id="defs4" />
  <sodipodi:namedview
     id="base"
     pagecolor="#ffffff"
     bordercolor="#666666"
     borderopacity="1.0"
     inkscape:pageopacity="0.0"
     inkscape:pageshadow="2"
     inkscape:zoom="2.7675795"
     inkscape:cx="63.818538"
     inkscape:cy="67.931437"
     inkscape:document-units="px"
     inkscape:current-layer="layer1"
     showgrid="false"
     fit-margin-top="0"
     fit-margin-left="0"
     fit-margin-right="0"
     fit-margin-bottom="0"
     inkscape:window-width="1366"
     inkscape:window-height="744"
     inkscape:window-x="0"
     inkscape:window-y="24"
     inkscape:window-maximized="1" />
  <metadata
     id="metadata7">
    <rdf:RDF>
      <cc:Work
         rdf:about="">
        <dc:format>image/svg+xml</dc:format>
        <dc:type
           rdf:resource="http://purl.org/dc/dcmitype/StillImage" />
        <dc:title></dc:title>
      </cc:Work>
    </rdf:RDF>
  </metadata>
  <g
     inkscape:label="Camada 1"
     inkscape:groupmode="layer"
     id="layer1"
     transform="translate(-632.20477,-81.410621)">
    <text
       xml:space="preserve"
       style="font-size:144px;font-style:normal;font-variant:normal;font-weight:normal;font-stretch:normal;line-height:125%;letter-spacing:0px;word-spacing:0px;fill:#000000;fill-opacity:1;stroke:none;font-family:Arial;-inkscape-font-specification:Arial"
       x="-58.017658"
       y="27.026285"
       id="text5104"
       sodipodi:linespacing="125%"
       transform="translate(691.77812,148.08926)"><tspan
         sodipodi:role="line"
         id="tspan5106"
         x="-58.017658"
         y="27.026285"></tspan></text>
    <g
       style="font-size:144px;font-style:normal;font-variant:normal;font-weight:normal;font-stretch:normal;line-height:125%;letter-spacing:0px;word-spacing:0px;fill:#000000;fill-opacity:1;stroke:none;font-family:Arial;-inkscape-font-specification:Arial"
       id="text5160">
      <path
         d="m 632.20477,137.57062 8.064,-1.152 98.784,0 8.352,1.152 -115.2,0 m 9.504,1.44 97.344,0 -5.904,1.008 -84.816,0 -6.624,-1.008 m 83.088,-4.464 c -9e-5,-0.19194 -0.0481,-0.38394 -0.144,-0.576 l 5.04,0 c 0.0959,0.38406 0.14391,0.72006 0.144,1.008 l -80.496,0 c -10e-6,-0.28794 -10e-6,-0.62394 0,-1.008 l 4.752,0 c -2e-5,0.19206 -2e-5,0.38406 0,0.576 l 4.608,-0.576 61.776,0 4.32,0.576 m -65.952,6.912 65.088,0 -7.056,1.152 -50.4,0 -7.632,-1.152 m 49.248,32.544 c -0.57607,0.28802 -1.15207,0.57602 -1.728,0.864 -0.57607,0.28802 -1.15207,0.52802 -1.728,0.72 l -30.096,0 -1.872,-0.864 c -0.57604,-0.19198 -1.10404,-0.43198 -1.584,-0.72 l 37.008,0 m -35.856,-25.056 34.704,0 0.72,1.296 -36,0 0.576,-1.296 m -1.296,2.592 37.44,0 0.576,1.152 -38.592,0 0.576,-1.152 m 2.448,-7.2 -0.144,-0.288 34.992,0 -1.728,0.288 1.872,0.864 -37.296,0 2.304,-0.864 m 0.144,2.16 32.112,0 0.576,1.152 -33.264,0 0.576,-1.152 m -2.16,-22.608 37.296,0 -0.432,1.008 -36.288,0 -0.576,-1.008 m 34.848,7.776 0.288,-0.144 2.592,0 -1.296,0.72 2.016,0.288 -39.744,0 3.456,-0.432 -1.296,-0.576 33.696,0 0.288,0.144 m -31.68,-1.872 -0.432,-0.864 32.112,0 -0.576,1.008 -31.248,0 0.144,-0.144 m -1.728,-3.312 34.56,0 -0.432,0.864 -33.696,0 -0.432,-0.864 m 28.944,50.112 c -2.40006,0.76802 -4.94406,1.29602 -7.632,1.584 l -8.928,0 c -2.68805,-0.28798 -5.32804,-0.81598 -7.92,-1.584 l 24.48,0 m -6.048,-55.152 c -6e-5,0.28807 0.23994,0.43207 0.72,0.432 l 0.144,-0.432 1.728,0 -0.432,0.864 -27.36,0 -0.576,-0.864 12.24,0 0.864,0.432 -0.288,-0.432 12.96,0 m -24.768,-19.44 c 0.28796,-0.19191 0.62396,-0.38391 1.008,-0.576 l 35.28,0 1.152,0.576 -37.44,0 m 26.208,53.28 -1.728,0 -0.144,-0.432 -0.144,0.432 -11.232,0 -0.144,-1.008 -0.144,0 -0.576,1.008 -1.584,0 0.576,-1.296 14.544,0 0.576,1.296 m 15.12,16.272 c -0.76808,0.48002 -1.53608,0.96002 -2.304,1.44 l -13.968,0 c 0.57594,-0.096 1.19994,-0.23998 1.872,-0.432 1.15194,-0.19198 2.30393,-0.52798 3.456,-1.008 l 10.944,0 m 1.296,-1.008 -10.8,0 -0.72,-1.584 1.584,0 0.576,1.296 c 0.76793,-0.38397 1.53593,-0.81597 2.304,-1.296 l 9.072,0 -2.016,1.584 m -44.352,2.448 c -0.76803,-0.47998 -1.53603,-0.95998 -2.304,-1.44 l 10.512,0 c 0.86396,0.38402 1.91996,0.67202 3.168,0.864 l 3.024,0.576 -14.4,0 m -3.744,-2.448 c -0.67203,-0.47997 -1.34403,-1.00797 -2.016,-1.584 l 8.928,0 2.16,1.152 0.576,-1.152 1.584,0 -0.72,1.584 -10.512,0 m 11.376,-70.991999 c 0.76796,-0.287904 1.58396,-0.527904 2.448,-0.72 l 21.024,0 c 0.86393,0.192096 1.67993,0.432096 2.448,0.72 l -25.92,0 m 7.2,56.879999 10.944,0 -0.144,1.44 -10.656,0 -0.144,-1.44 m 12.96,-2.448 12.672,0 0.72,1.296 -10.8,0 -2.592,-1.296 m -27.216,0 11.664,0 -2.448,1.296 -9.936,0 0.72,-1.296 m 14.976,7.488 9.648,0 -0.144,1.44 -9.36,0 -0.144,-1.44 m -0.432,-2.448 10.368,0 -0.144,1.296 -9.936,0 -0.288,-1.296 m 32.4,8.928 -8.64,0 c 0.76793,-0.47997 1.43993,-0.95997 2.016,-1.44 l 8.064,0 0,0.144 -1.44,1.296 m -30.816,1.008 7.488,0 -0.144,1.584 -7.2,0 -0.144,-1.584 m -0.432,-2.448 8.352,0 -0.288,1.44 -7.776,0 -0.288,-1.44 m -24.624,0 7.776,0 c 0.67197,0.48003 1.34397,0.96003 2.016,1.44 l -8.352,0 -1.44,-1.44 m 41.04,-10.08 9.072,0 0.72,1.44 -6.912,0 -2.88,-1.44 m -16.848,7.632 9.072,0 -0.144,1.296 -8.64,0 -0.288,-1.296 m -16.56,-7.632 8.496,0 -2.736,1.44 -6.48,0 0.72,-1.44 m 45.792,6.48 c 0.47992,-0.47997 0.91192,-0.95997 1.296,-1.44 l 6.768,0 c -0.28809,0.48003 -0.62409,0.96003 -1.008,1.44 l -7.056,0 m 6.192,1.152 c -0.38408,0.38403 -0.76808,0.81603 -1.152,1.296 l -7.776,0 c 0.57592,-0.47997 1.10392,-0.91197 1.584,-1.296 l 7.344,0 m -36.288,-45.072 11.088,0 0.144,0.864 -11.376,0 0.144,-0.864 m -26.496,43.92 c -0.38402,-0.47997 -0.72002,-0.95997 -1.008,-1.44 l 6.48,0 c 0.47997,0.48003 0.91197,0.96003 1.296,1.44 l -6.768,0 m 28.512,8.64 6.912,0 -0.288,1.44 -6.336,0 -0.288,-1.44 m -27.648,-7.488 7.2,0 c 0.47997,0.38403 0.95997,0.81603 1.44,1.296 l -7.488,0 -1.152,-1.296 m 41.04,-42.624 10.368,0 -0.432,0.864 -11.376,0 1.44,-0.864 m -14.976,-5.04 10.368,0 0.144,0.864 -10.656,0 0.144,-0.864 m 40.176,41.472 -6.336,0 c 0.28792,-0.47996 0.62392,-0.95996 1.008,-1.44 l 6.048,0 -0.72,1.44 m 2.88,-6.336 c -0.19209,0.38404 -0.33609,0.76804 -0.432,1.152 l -6.048,0 -2.592,-1.152 9.072,0 m -76.464,-26.64 c 0.096,-0.28793 0.19198,-0.62393 0.288,-1.008 l 7.2,0 2.304,1.008 -3.888,0 -0.288,-0.144 -0.144,0.144 -5.472,0 m 3.168,32.976 c -0.28802,-0.47996 -0.52802,-0.95996 -0.72,-1.44 l 5.76,0 1.008,1.44 -6.048,0 m 69.696,1.152 c -0.28809,0.38404 -0.57609,0.81604 -0.864,1.296 l -6.624,0 1.008,-1.296 6.48,0 m -12.528,-55.152 c 0.38392,0.28809 0.71992,0.52809 1.008,0.72 l -10.944,0 c -0.76807,-0.28791 -1.58406,-0.52791 -2.448,-0.72 l 12.384,0 m -43.92,0 12.24,0 c -0.86404,0.19209 -1.72804,0.43209 -2.592,0.72 l -10.8,0 1.152,-0.72 m -11.808,56.448 c -0.28802,-0.38396 -0.52802,-0.81596 -0.72,-1.296 l 6.048,0 c 0.38397,0.48004 0.71997,0.91204 1.008,1.296 l -6.336,0 m 12.816,-41.328 8.64,0 1.728,0.864 -9.936,0 -0.432,-0.864 m 58.896,4.896 c 0.0959,0.38407 0.19191,0.72007 0.288,1.008 l -5.328,0 0,-0.144 -0.288,0.144 -3.168,0 1.872,-1.008 6.624,0 m -42.192,-12.528 8.784,0 0.144,0.864 -9.072,0 0.144,-0.864 m 41.328,42.624 c -0.0961,0.28804 -0.24009,0.57604 -0.432,0.864 -9e-5,0.19204 -0.0481,0.33604 -0.144,0.432 l -5.904,0 0.72,-1.296 5.76,0 m 1.44,-3.744 -5.76,0 c 0.19191,-0.47995 0.38391,-0.91195 0.576,-1.296 l 5.616,0 -0.432,1.296 m -40.752,28.8 4.752,0 -0.144,1.584 -4.32,0 -0.288,-1.584 m -34.848,-25.056 5.472,0 0.72,1.296 -5.616,0 -0.576,-1.296 m 32.4,-40.032 9.648,0 0.144,0.72 -9.792,0 0,-0.72 m -33.84,36.288 c -0.096,-0.38395 -0.19202,-0.81595 -0.288,-1.296 l 5.04,0 0.576,1.296 -5.328,0 m 52.848,-31.248 7.2,0 -0.432,0.864 -8.208,0 1.44,-0.864 m -52.416,32.544 7.056,0 -1.44,0.576 0.288,0.576 -5.472,0 -0.432,-1.152 m 6.624,-39.312 c 0.28798,-0.28792 0.52798,-0.57592 0.72,-0.864 l 7.776,0 c -0.28803,0.28808 -0.62403,0.57608 -1.008,0.864 l -7.488,0 m 29.664,69.264 4.032,0 -0.288,1.728 -3.456,0 -0.288,-1.728 m 35.712,-34.992 5.472,0 c -9e-5,0.38405 -0.0481,0.76805 -0.144,1.152 l -5.616,0 0.288,-1.152 m -3.312,-35.136 c 0.19191,0.28808 0.38391,0.57608 0.576,0.864 l -7.056,0 c -0.28808,-0.28792 -0.57608,-0.57592 -0.864,-0.864 l 7.344,0 m 9.36,32.688 c -0.0961,0.38405 -0.19209,0.76805 -0.288,1.152 l -5.328,0 c 0.0959,-0.38395 0.14391,-0.76795 0.144,-1.152 l 5.472,0 m -68.4,-35.136 8.64,0 c -0.28803,0.28809 -0.62403,0.52809 -1.008,0.72 l -8.352,0 0.72,-0.72 m 68.544,32.544 c -9e-5,0.38405 -9e-5,0.76805 0,1.152 l -5.328,0 0.288,-1.152 5.04,0 m -44.064,-32.544 8.208,0 0,0.72 -8.208,0 0,-0.72 m -30.528,37.584 c 0.096,0.38405 0.23998,0.76805 0.432,1.152 l -5.184,0 c -2e-5,-0.38395 -0.048,-0.76795 -0.144,-1.152 l 4.896,0 m 63.504,-36.864 -7.92,0 c -0.28808,-0.19191 -0.62407,-0.43191 -1.008,-0.72 l 8.208,0 0.72,0.72 m -63.936,7.632 c 0.096,-0.28792 0.23998,-0.57592 0.432,-0.864 l 6.624,0 c -0.19203,0.28808 -0.38403,0.57608 -0.576,0.864 l -6.48,0 m 52.416,41.76 5.184,0 0.72,1.296 -3.312,0 -2.592,-1.296 m -57.168,-13.824 c -0.096,-0.38395 -0.19201,-0.76795 -0.288,-1.152 l 4.896,0 0.288,1.152 -4.896,0 m 11.232,3.744 4.32,0 -3.456,1.296 -4.176,0 3.312,-1.296 m -11.808,-7.488 4.752,0 0.144,1.152 -4.752,0 -0.144,-1.152 m 74.448,-25.056 c 0.19191,0.28808 0.38391,0.57608 0.576,0.864 l -6.336,0 c -0.0961,-0.28792 -0.28808,-0.57592 -0.576,-0.864 l 6.336,0 m -50.256,-9.936 c -0.28804,0.19209 -0.57604,0.38409 -0.864,0.576 l -9.36,0 c 0.19197,-0.19191 0.43197,-0.38391 0.72,-0.576 l 9.504,0 m -14.256,13.392 -6.048,0 c 0.19198,-0.28792 0.33598,-0.57592 0.432,-0.864 l 6.192,0 -0.576,0.864 m 56.448,-12.816 -8.928,0 -1.008,-0.576 9.216,0 0.72,0.576 m -48.528,51.984 4.896,0 -2.304,1.296 -3.168,0 0.576,-1.296 m 56.736,-29.088 c -9e-5,-0.0959 -9e-5,-0.23993 0,-0.432 l -0.144,-0.576 5.184,0 c 0.0959,0.38407 0.14391,0.72007 0.144,1.008 l -5.184,0 m 1.872,-10.08 -6.048,0 c -0.0961,-0.28792 -0.24008,-0.57592 -0.432,-0.864 l 6.048,0 0.432,0.864 m 3.744,12.672 -5.04,0 -0.144,-1.008 5.04,0 0.144,1.008 m -74.304,-3.6 c -2e-5,0.28807 -0.048,0.57607 -0.144,0.864 l -0.144,0.144 -5.04,0 c 0.096,-0.38393 0.19199,-0.71993 0.288,-1.008 l 5.04,0 m 8.64,-14.976 c -0.19203,0.28808 -0.43203,0.52808 -0.72,0.72 l -6.912,0 c 0.19198,-0.19192 0.38398,-0.43192 0.576,-0.72 l 7.056,0 m -11.808,8.352 c 0.096,-0.28793 0.23998,-0.57593 0.432,-0.864 l 5.904,0 c -0.19202,0.28807 -0.38402,0.57607 -0.576,0.864 l -5.76,0 m 15.552,24.192 4.32,0 -3.024,1.152 -4.32,0 3.024,-1.152 m 58.896,-25.056 c 0.0959,0.28807 0.19191,0.57607 0.288,0.864 l -5.616,0 -0.432,-0.864 5.76,0 m -76.896,10.08 4.896,0 c -2e-5,0.38406 -0.048,0.72006 -0.144,1.008 l -4.896,0 0.144,-1.008 m 38.592,52.56 3.312,0 -0.288,1.584 -2.736,0 -0.288,-1.584 m -1.728,-80.208 6.624,0 0,0.72 -6.768,0 0.144,-0.72 m 29.52,10.8 c -0.19208,-0.28792 -0.38408,-0.52792 -0.576,-0.72 l 6.624,0 0.576,0.72 -6.624,0 m -48.816,1.728 4.896,0 1.728,0.864 -6.048,0 -0.576,-0.864 m 45.648,32.544 3.6,0 2.88,1.296 -3.6,0 -2.88,-1.296 m -62.352,-21.6 c 0.096,-0.28793 0.14398,-0.57593 0.144,-0.864 l 5.472,0 c -0.096,0.28807 -0.19202,0.57607 -0.288,0.864 l -5.328,0 m 77.904,-0.864 c -9e-5,0.28807 0.0479,0.57607 0.144,0.864 l -5.184,0 -0.288,-0.864 5.328,0 m -42.336,-20.016 7.344,0 0.144,0.576 -7.632,0 0.144,-0.576 m 21.456,40.032 3.6,0 2.592,1.152 -3.744,0 -2.448,-1.152 m 1.008,-30.096 4.032,0 -0.432,0.864 -5.184,0 1.584,-0.864 m -19.872,70.128 2.448,0 -0.144,1.728 -2.016,0 -0.288,-1.728 m -22.32,-57.6 3.744,0 2.304,1.008 -3.744,0 -2.304,-1.008 m -5.616,-2.448 3.888,0 1.872,0.864 -3.744,0 -2.016,-0.864 m 26.64,-30.095999 4.896,0 0,0.576 -4.896,0 0,-0.576 m 26.784,32.543999 -2.016,1.008 -2.592,0 1.872,-1.008 2.736,0 m -25.056,60.192 1.728,0 -0.288,1.728 -1.152,0 -0.288,-1.728 m -12.816,-22.608 1.584,0 -0.576,1.44 -1.728,0 0.72,-1.44 m 4.608,-10.08 1.728,0 -0.72,1.44 -1.584,0 0.576,-1.44 m -2.304,5.04 1.584,0 -0.576,1.44 -1.728,0 0.72,-1.44 m 17.424,-5.04 1.728,0 0.576,1.44 -1.584,0 -0.72,-1.44 m 22.752,-29.952 -1.728,0.864 -2.592,0 1.584,-0.864 2.736,0 m -17.856,40.032 1.584,0 0.576,1.44 -1.584,0 -0.576,-1.44 m -2.448,-5.04 1.584,0 0.72,1.44 -1.584,0 -0.72,-1.44 m -21.168,2.592 1.728,0 -0.576,1.296 -1.728,0 0.576,-1.296 m 2.448,-5.04 1.584,0 -0.576,1.296 -1.584,0 0.576,-1.296 m 17.568,0 1.584,0 0.576,1.296 -1.584,0 -0.576,-1.296 m 2.448,5.04 1.584,0 0.576,1.296 -1.584,0 -0.576,-1.296 m -11.52,-72.719999 3.312,0 0.144,0.576 -3.456,0 0,-0.576 m -0.432,2.592 4.176,0 0,0.432 -4.176,0 0,-0.432 m -7.2,22.463999 1.728,0 0.288,0.864 -1.728,0 -0.288,-0.864 m 17.136,2.592 1.728,0 -0.432,0.864 -1.728,0 0.432,-0.864 m 1.296,-2.592 1.728,0 -0.432,0.864 -1.728,0 0.432,-0.864 m 2.304,-5.04 1.728,0 -0.432,0.864 -1.728,0 0.432,-0.864 m -19.584,7.632 1.728,0 0.288,0.864 -1.728,0 -0.288,-0.864 m -3.456,-7.632 1.584,0 0.432,0.864 -1.728,0 -0.288,-0.864 m 11.232,80.208 1.008,0 -0.288,1.728 -0.432,0 -0.288,-1.728 m -22.32,-77.616 1.44,0.72 -2.304,0 -0.432,-0.72 1.296,0 m 32.976,0 1.728,0 -0.432,0.72 -1.728,0 0.432,-0.72 m -20.736,0 1.728,0 0.288,0.72 -1.728,0 -0.288,-0.72 m 23.04,-5.04 1.728,0 -0.288,0.72 -1.728,0 0.288,-0.72 m -25.344,0 1.584,0 0.432,0.72 -1.728,0 -0.288,-0.72 m 11.52,-20.015999 2.592,0 0.144,0.432 -2.736,0 0,-0.432 m 24.048,25.055999 1.152,0 -0.432,0.72 -1.872,0 1.152,-0.72 m -23.616,-27.647999 1.872,0 0,0.576 -1.872,0 0,-0.576 m 14.544,20.159999 1.728,0 -0.288,0.576 -1.728,0 0.288,-0.576 m -27.648,0 1.584,0 0.288,0.576 -1.584,0 -0.288,-0.576 m 38.304,56.16 -2.304,-1.152 1.584,0 0.72,1.152 m -46.656,-1.152 -2.16,1.152 0.576,-1.152 1.584,0 m 21.888,-77.615999 1.008,0 0.144,0.432 -1.296,0 0.144,-0.432 m 0.432,110.159999 0.288,0 -0.144,1.152 -0.144,-1.152 m 0,-112.607999 0.288,0 0,0.288 -0.432,0 0.144,-0.288"
         style="font-family:ESRI North;-inkscape-font-specification:ESRI North"
         id="path5165"
         inkscape:connector-curvature="0"
         sodipodi:nodetypes="cccccccccccccccccccccccccccccccccccccccccccccccccccccccccccccccccccccccccccccccccccccccccccccccccccccccccccccccccccccccccccccccccccccccccccccccccccccccccccccccccccccccccccccccccccccccccccccccccccccccccccccccccccccccccccccccccccccccccccccccccccccccccccccccccccccccccccccccccccccccccccccccccccccccccccccccccccccccccccccccccccccccccccccccccccccccccccccccccccccccccccccccccccccccccccccccccccccccccccccccccccccccccccccccccccccccccccccccccccccccccccccccccccccccccccccccccccccccccccccccccccccccccccccccccccccccccccccccccccccccccccccccccccccccccccccccccccccccccccccccccccccccccccccccccccccccccccccccccccccccccccccccccccccccccccccccccccccccccccccccccccccccccccccccccccccccccccccccccccccccccccccccccccccccccccccccccccccccccccccccccccccccccccccccccccccccccccccc" />
    </g>
  </g>
</svg>
