<?xml version="1.0" encoding="UTF-8" standalone="no"?>
<!DOCTYPE svg PUBLIC "-//W3C//DTD SVG 1.1//EN" "http://www.w3.org/Graphics/SVG/1.1/DTD/svg11.dtd">
<svg viewBox="-289 -289 578 578" version="1.1" xmlns="http://www.w3.org/2000/svg" xmlns:xlink="http://www.w3.org/1999/xlink" xml:space="preserve" style="fill-rule:evenodd;clip-rule:evenodd;stroke-linejoin:round;stroke-miterlimit:1.41421;">
	<g id="Compass">
		<title>Compass, by Adam Stanislav</title>

		<circle r="245" fill="#D9A426"/>
		<path fill="#D92626" d="M-35.218-73.798l33.566-208.708c0.131-0.812 0.831-1.408 1.652-1.408 0.822 0 1.522 0.596 1.653 1.408l33.566 208.708 130.796-94.553c0.666-0.481 1.583-0.408 2.164 0.173 0.581 0.581 0.654 1.498 0.173 2.164l-94.553 130.796 208.708 33.566c0.811 0.131 1.408 0.831 1.408 1.652 0 0.822-0.597 1.522-1.408 1.653l-208.708 33.566 94.553 130.796c0.481 0.666 0.408 1.583-0.173 2.164-0.581 0.581-1.498 0.654-2.164 0.173l-130.796-94.553-33.566 208.708c-0.131 0.811-0.831 1.408-1.653 1.408-0.821 0-1.521-0.597-1.652-1.408l-33.566-208.708-130.796 94.553c-0.666 0.481-1.583 0.408-2.164-0.173-0.581-0.581-0.654-1.498-0.173-2.164l94.553-130.796-208.708-33.566c-0.812-0.131-1.408-0.831-1.408-1.653 0-0.821 0.596-1.521 1.408-1.652l208.708-33.566-94.553-130.796c-0.481-0.666-0.408-1.583 0.173-2.164 0.581-0.581 1.498-0.654 2.164-0.173l130.796 94.553zm54.426 27.769l-38.415 0c-0.325 0.419-0.677 0.819-1.056 1.198-7.376 7.376-17.192 17.192-24.568 24.568-0.379 0.379-0.779 0.731-1.198 1.056l0 38.415c0.419 0.324 0.819 0.677 1.198 1.055 7.376 7.377 17.192 17.193 24.568 24.569 0.379 0.379 0.731 0.779 1.056 1.197l38.415 0c0.324-0.418 0.677-0.818 1.055-1.197 7.377-7.376 17.193-17.192 24.569-24.569 0.379-0.378 0.779-0.731 1.197-1.055l0-38.415c-0.418-0.325-0.818-0.677-1.197-1.056-7.376-7.376-17.192-17.192-24.569-24.568-0.378-0.379-0.731-0.779-1.055-1.198z"/>
	</g>
</svg>
