<?xml version="1.0" encoding="UTF-8" standalone="no"?>
<!-- Created with Inkscape (http://www.inkscape.org/) -->

<svg
   xmlns:dc="http://purl.org/dc/elements/1.1/"
   xmlns:cc="http://creativecommons.org/ns#"
   xmlns:rdf="http://www.w3.org/1999/02/22-rdf-syntax-ns#"
   xmlns:svg="http://www.w3.org/2000/svg"
   xmlns="http://www.w3.org/2000/svg"
   xmlns:sodipodi="http://sodipodi.sourceforge.net/DTD/sodipodi-0.dtd"
   xmlns:inkscape="http://www.inkscape.org/namespaces/inkscape"
   width="99.783058mm"
   height="100.03283mm"
   viewBox="0 0 99.783058 100.03283"
   version="1.1"
   id="svg845"
   inkscape:version="0.92.3 (2405546, 2018-03-11)"
   sodipodi:docname="esri_north_109_b.svg">
  <defs
     id="defs839" />
  <sodipodi:namedview
     id="base"
     pagecolor="#ffffff"
     bordercolor="#666666"
     borderopacity="1.0"
     inkscape:pageopacity="0.0"
     inkscape:pageshadow="2"
     inkscape:zoom="0.97458821"
     inkscape:cx="192.29508"
     inkscape:cy="200.07365"
     inkscape:document-units="mm"
     inkscape:current-layer="text1587"
     showgrid="false"
     inkscape:window-width="1366"
     inkscape:window-height="745"
     inkscape:window-x="0"
     inkscape:window-y="23"
     inkscape:window-maximized="1"
     fit-margin-top="0"
     fit-margin-left="0"
     fit-margin-right="0"
     fit-margin-bottom="0"
     showguides="true"
     inkscape:guide-bbox="true" />
  <metadata
     id="metadata842">
    <rdf:RDF>
      <cc:Work
         rdf:about="">
        <dc:format>image/svg+xml</dc:format>
        <dc:type
           rdf:resource="http://purl.org/dc/dcmitype/StillImage" />
        <dc:title></dc:title>
      </cc:Work>
    </rdf:RDF>
  </metadata>
  <g
     inkscape:label="Camada 1"
     inkscape:groupmode="layer"
     id="layer1"
     transform="translate(-9.7371324,-196.96839)">
    <g
       aria-label="2"
       style="font-style:normal;font-weight:normal;font-size:124.42774963px;line-height:1.25;font-family:sans-serif;letter-spacing:0px;word-spacing:0px;fill:#000000;fill-opacity:1;stroke:none;stroke-width:5.18448925"
       id="text1587">
      <g
         aria-label="®"
         style="font-style:normal;font-weight:normal;font-size:124.88493347px;line-height:1.25;font-family:sans-serif;letter-spacing:0px;word-spacing:0px;fill:#000000;fill-opacity:1;stroke:none;stroke-width:26.97769165"
         id="text1792">
        <path
           d="m 101.77733,246.79748 -26.350723,-6.49402 6.494017,-13.2378 -0.49954,-0.37466 -12.988033,6.49402 -6.618901,-26.47561 h -0.624425 l -6.618901,26.47561 -12.738264,-6.49402 -0.749309,0.62443 6.494016,12.98803 -26.475606,6.49402 v 0.49954 l 26.475606,6.99355 -6.369131,12.73827 0.374654,0.49954 12.988034,-6.61891 6.618901,26.6005 h 0.624425 l 6.743786,-26.6005 12.863148,6.61891 0.49954,-0.49954 -6.494017,-12.73827 26.350723,-6.99355 z m -1.74839,0.37465 -25.101872,6.6189 -13.487573,-6.6189 z m -38.589445,0 H 23.09982 l 25.101872,-6.6189 z m 0,0 v 38.33968 l -6.369132,-25.35164 z m 0,0 v -38.33967 l 6.369131,24.97698 z m 0,0 -18.98251,-19.23228 12.113839,5.86959 z m 0,0 -18.98251,18.85763 5.994477,-12.11384 z m 19.23228,-18.98251 -6.369132,12.36361 -12.863148,6.6189 z m -0.24977,38.08991 -11.739184,-5.99448 -7.243326,-13.11292 z M 17.604883,243.17581 v 0.12489 q 0.374655,0 0.49954,0.12488 0.374655,0 0.374655,0.37466 0,0 -0.24977,0.99908 l -1.498619,3.99632 -1.373735,-3.99632 q -0.249769,-0.74931 -0.249769,-0.99908 0,-0.49954 0.499539,-0.49954 h 0.24977 v -0.12489 h -2.872353 v 0.12489 q 0.624424,0.24977 0.749309,0.49954 0.124885,0.24977 0.74931,1.6235 l -1.123965,3.3719 -1.373734,-4.12121 q -0.24977,-0.74931 -0.24977,-0.87419 0,-0.49954 0.49954,-0.49954 h 0.124885 v -0.12489 H 9.7371324 v 0.12489 q 0.6244246,0 0.7493096,0.49954 0.124885,0.24977 0.374655,0.74931 l 2.123044,5.99448 h 0.374654 l 1.373735,-4.37098 1.623504,4.37098 h 0.124885 l 2.247929,-5.74471 q 0.249769,-0.99908 0.249769,-0.99908 0.24977,-0.24977 0.374655,-0.37466 0.124885,-0.12488 0.49954,-0.12488 v -0.12489 z m 39.838294,-45.95765 q 0.374655,0 0.49954,0.12488 0.24977,0.12489 0.999079,0.62443 v 4.9954 q 0,0.74931 -0.124885,0.87419 -0.24977,0.24977 -0.749309,0.24977 h -0.124885 v 0.12489 h 2.497698 v -0.12489 h -0.249769 q -0.49954,0 -0.624425,-0.12488 -0.124885,-0.12489 -0.124885,-0.99908 v -4.37098 l 4.870512,5.74471 h 0.24977 v -6.86867 q 0.124885,-0.37466 0.74931,-0.37466 h 0.24977 v -0.12488 h -2.497699 v 0.12488 h 0.124885 q 0.374655,0 0.624425,0.24977 0.249769,0.24977 0.249769,0.8742 v 4.37097 l -4.745627,-5.61982 h -1.873274 z m 49.704203,46.70696 q 0.62443,0 0.74931,0.12489 0.49954,0.24977 0.74931,1.12396 h 0.24977 l -0.12489,-1.6235 h -5.61982 v 0.12488 h 0.12489 q 0.37465,0 0.62442,0.24977 0.24977,0.24977 0.24977,0.8742 v 4.74563 q 0,0.99908 -0.37465,0.99908 -0.12489,0.12488 -0.49954,0.12488 h -0.12489 v 0.12489 h 5.61982 l 0.74931,-1.87328 h -0.24977 q -0.37465,0.74931 -0.74931,1.12397 -0.37465,0.37465 -1.49861,0.37465 h -1.24885 q -0.49954,0 -0.62443,-0.12488 0,-0.24977 0,-1.24885 v -1.87328 h 1.74839 q 0.8742,0 0.8742,0.37466 0.12488,0.12488 0.12488,0.24977 0,0.12488 0.12489,0.37465 h 0.12488 v -2.37281 h -0.12488 q -0.24977,0.74931 -0.37466,0.87419 -0.12488,0.12489 -0.74931,0.12489 h -1.74839 v -2.87236 z m -43.584841,45.583 q -0.124885,0.37466 -0.49954,0.37466 h -0.374655 q -0.624424,-0.37466 -1.248849,-0.37466 -0.99908,0 -1.623504,0.62443 -0.49954,0.62442 -0.49954,1.37373 0,0.74931 0.74931,1.49862 0.374654,0.24977 1.373734,0.8742 0.999079,0.49954 1.123964,0.62442 0.74931,0.62443 0.74931,0.99908 0,1.12397 -1.623504,1.12397 -1.748389,0 -2.123044,-2.12305 h -0.124885 v 2.4977 h 0.124885 q 0,-0.37465 0.24977,-0.37465 0.124885,0 0.624424,0.24977 0.624425,0.12488 0.74931,0.12488 h 0.624425 q 0.999079,0 1.623504,-0.49954 0.749309,-0.62442 0.749309,-1.37373 0,-0.74931 -0.499539,-1.24885 -0.374655,-0.49954 -1.748389,-1.12397 -1.123965,-0.62442 -1.623505,-1.12396 -0.124884,-0.12489 -0.124884,-0.62443 0,-0.37465 0.249769,-0.74931 0.374655,-0.37465 0.99908,-0.37465 0.874194,0 1.373734,0.62442 0.49954,0.62443 0.74931,1.49862 h 0.124885 v -2.4977 z"
           style="font-style:normal;font-variant:normal;font-weight:normal;font-stretch:normal;font-family:'ESRI North';-inkscape-font-specification:'ESRI North, ';stroke-width:26.97769165"
           id="path4485"
           inkscape:connector-curvature="0" />
      </g>
    </g>
  </g>
</svg>
