<?xml version="1.0" encoding="iso-8859-1"?>
<!-- Generator: Adobe Illustrator 19.0.0, SVG Export Plug-In . SVG Version: 6.00 Build 0)  -->
<svg version="1.1" id="Layer_1" xmlns="http://www.w3.org/2000/svg" xmlns:xlink="http://www.w3.org/1999/xlink" x="0px" y="0px"
	 viewBox="0 0 512 512" style="enable-background:new 0 0 512 512;" xml:space="preserve">
<g>
	<g>
		<path d="M281.608,86.802V68.133h17.072c3.312,0,6.325-1.921,7.734-4.917c1.408-3.005,0.947-6.547-1.178-9.082l-42.68-51.215
			c-3.244-3.892-9.867-3.892-13.111,0l-42.68,51.215c-2.125,2.544-2.578,6.086-1.178,9.082c1.408,3.005,4.422,4.917,7.734,4.917
			h17.072v18.659c-105.632,12.701-187.79,102.815-187.79,211.81C42.603,416.27,138.333,512,256,512s213.397-95.73,213.397-213.397
			C469.397,189.608,387.239,99.494,281.608,86.802z M452.112,290.067h-16.858c-0.154,0-0.282,0.077-0.427,0.085
			c-2.023-43.012-19.189-82.03-46.384-111.923l12.206-12.206C430.918,199.023,450.055,242.368,452.112,290.067z M417.661,308.863
			c-5.122,81.228-70.165,146.271-151.393,151.393l22.705-128.679L417.661,308.863z M417.653,288.334l-128.679-22.706L266.26,136.941
			C347.488,142.063,412.531,207.106,417.653,288.334z M388.58,153.953l-12.206,12.206c-29.893-27.195-68.91-44.37-111.923-46.384
			c0.008-0.145,0.085-0.273,0.085-0.427V102.49C312.243,104.548,355.58,123.685,388.58,153.953z M256,21.715l24.455,29.346h-7.384
			c-4.712,0-8.536,3.824-8.536,8.536v25.821c-2.834-0.111-5.676-0.213-8.536-0.213c-2.859,0-5.702,0.102-8.536,0.213V59.598
			c0-4.712-3.824-8.536-8.536-8.536h-7.384L256,21.715z M247.464,102.499v16.858c0,0.154,0.077,0.282,0.085,0.427
			c-43.012,2.023-82.03,19.189-111.923,46.384l-12.206-12.206C156.42,123.685,199.757,104.548,247.464,102.499z M245.731,136.941
			l-22.714,128.687L94.339,288.334C99.46,207.106,164.504,142.063,245.731,136.941z M111.351,166.023l12.206,12.206
			c-27.195,29.893-44.37,68.91-46.384,111.923c-0.154-0.008-0.273-0.085-0.427-0.085H59.888
			C61.945,242.368,81.082,199.023,111.351,166.023z M223.026,331.585l22.705,128.679c-81.228-5.122-146.271-70.165-151.393-151.393
			L223.026,331.585z M59.888,307.139h16.858c0.154,0,0.282-0.077,0.427-0.085c2.023,43.012,19.189,82.03,46.384,111.923
			l-12.206,12.206C81.082,398.182,61.945,354.846,59.888,307.139z M247.464,494.518c-47.682-2.066-91.061-21.007-124.044-51.267
			l12.206-12.206c29.876,27.178,68.868,44.353,111.837,46.401V494.518z M238.8,322.734c-0.623-3.534-3.389-6.299-6.923-6.923
			l-97.471-17.2l97.471-17.2c3.534-0.623,6.299-3.389,6.923-6.923l17.2-97.48l17.2,97.471c0.623,3.534,3.389,6.299,6.923,6.923
			l97.471,17.2l-97.471,17.2c-3.534,0.623-6.299,3.389-6.923,6.923l-17.2,97.48L238.8,322.734z M264.536,494.518v-17.072
			c42.961-2.057,81.962-19.231,111.837-46.401l12.206,12.206C355.597,473.512,312.217,492.453,264.536,494.518z M400.649,431.182
			l-12.206-12.206c27.195-29.893,44.37-68.91,46.384-111.923c0.154,0.008,0.273,0.085,0.427,0.085h16.858
			C450.055,354.846,430.918,398.182,400.649,431.182z"/>
	</g>
</g>
<g>
</g>
<g>
</g>
<g>
</g>
<g>
</g>
<g>
</g>
<g>
</g>
<g>
</g>
<g>
</g>
<g>
</g>
<g>
</g>
<g>
</g>
<g>
</g>
<g>
</g>
<g>
</g>
<g>
</g>
</svg>
