<?xml version="1.0" encoding="UTF-8" standalone="no"?>
<!-- Created with Inkscape (http://www.inkscape.org/) -->

<svg
   xmlns:dc="http://purl.org/dc/elements/1.1/"
   xmlns:cc="http://creativecommons.org/ns#"
   xmlns:rdf="http://www.w3.org/1999/02/22-rdf-syntax-ns#"
   xmlns:svg="http://www.w3.org/2000/svg"
   xmlns="http://www.w3.org/2000/svg"
   xmlns:sodipodi="http://sodipodi.sourceforge.net/DTD/sodipodi-0.dtd"
   xmlns:inkscape="http://www.inkscape.org/namespaces/inkscape"
   width="99.408401mm"
   height="100.15772mm"
   viewBox="0 0 99.408402 100.15772"
   version="1.1"
   id="svg845"
   inkscape:version="0.92.3 (2405546, 2018-03-11)"
   sodipodi:docname="esri_north_108_b.svg">
  <defs
     id="defs839" />
  <sodipodi:namedview
     id="base"
     pagecolor="#ffffff"
     bordercolor="#666666"
     borderopacity="1.0"
     inkscape:pageopacity="0.0"
     inkscape:pageshadow="2"
     inkscape:zoom="0.97458821"
     inkscape:cx="227.13212"
     inkscape:cy="200.07365"
     inkscape:document-units="mm"
     inkscape:current-layer="text1587"
     showgrid="false"
     inkscape:window-width="1366"
     inkscape:window-height="745"
     inkscape:window-x="0"
     inkscape:window-y="23"
     inkscape:window-maximized="1"
     fit-margin-top="0"
     fit-margin-left="0"
     fit-margin-right="0"
     fit-margin-bottom="0"
     showguides="true"
     inkscape:guide-bbox="true" />
  <metadata
     id="metadata842">
    <rdf:RDF>
      <cc:Work
         rdf:about="">
        <dc:format>image/svg+xml</dc:format>
        <dc:type
           rdf:resource="http://purl.org/dc/dcmitype/StillImage" />
        <dc:title></dc:title>
      </cc:Work>
    </rdf:RDF>
  </metadata>
  <g
     inkscape:label="Camada 1"
     inkscape:groupmode="layer"
     id="layer1"
     transform="translate(-9.6122475,-196.8435)">
    <g
       aria-label="2"
       style="font-style:normal;font-weight:normal;font-size:124.42774963px;line-height:1.25;font-family:sans-serif;letter-spacing:0px;word-spacing:0px;fill:#000000;fill-opacity:1;stroke:none;stroke-width:5.18448925"
       id="text1587">
      <g
         aria-label="«"
         style="font-style:normal;font-weight:normal;font-size:124.88493347px;line-height:1.25;font-family:sans-serif;letter-spacing:0px;word-spacing:0px;fill:#000000;fill-opacity:1;stroke:none;stroke-width:26.97769165"
         id="text1792">
        <path
           d="m 18.728848,248.79564 q 0.249769,0 2.622583,0.49954 2.372814,0.37465 6.369132,1.12396 4.121203,0.74931 8.61706,1.6235 4.620743,0.8742 8.991715,1.74839 4.495858,0.8742 7.493096,1.49862 1.873274,8.11752 3.371894,15.86039 1.498619,7.74287 3.496778,16.73458 l 6.868671,-32.47008 33.968703,-6.6189 -33.968703,-6.99356 -6.868671,-35.71709 -6.868672,35.71709 z m 40.962258,0.12488 v 36.09175 l -6.369132,-29.97239 z m -0.124885,-0.12488 h -37.96502 l 31.720773,-6.61891 z m 6.369131,-6.61891 -6.244246,6.49402 v -39.71341 z m 31.720774,6.61891 -31.720774,6.24424 -6.119361,-6.24424 z m -79.426818,-3.12213 h -1.123965 l -1.248849,5.37006 q 0,-0.24977 -1.498619,-5.37006 h -1.123964 l -1.49862,5.37006 q -0.624424,-1.99816 -0.874194,-3.24701 -0.124885,-1.24885 -0.374655,-2.12305 H 9.6122475 l 1.6235045,6.6189 h 0.999079 l 1.498619,-5.7447 h 0.124885 l 1.623504,5.7447 h 0.874195 z m 44.084381,-42.2111 v -6.61891 h -1.123964 v 4.9954 l -3.247008,-4.9954 h -0.99908 v 6.61891 h 0.99908 v -4.9954 l 3.371893,4.9954 z m 46.706961,48.83 v -0.87419 h -4.1212 v -2.24793 h 3.62166 v -0.74931 h -3.62166 v -1.99816 h 3.87143 v -0.74931 h -4.87051 v 6.6189 z m -51.952128,42.336 q 0,2.37281 2.747469,2.37281 2.372813,0 2.372813,-1.99816 0,-0.99908 -1.123964,-1.49862 -0.24977,-0.24977 -1.373734,-0.37465 -1.123965,-0.24977 -1.373734,-0.49954 -0.124885,-0.12489 -0.124885,-0.49954 0,-0.99908 1.498619,-0.99908 1.373734,0 1.623504,1.12396 h 0.74931 q -0.24977,-1.99816 -2.497699,-1.99816 -0.99908,0 -1.623504,0.62443 -0.624425,0.49954 -0.624425,1.24885 0,0.99908 0.874195,1.37373 0.374654,0.24977 1.248849,0.49954 0.999079,0.12489 1.248849,0.24977 0.74931,0.37466 0.74931,0.8742 0,0.99908 -1.623504,0.99908 -1.873274,0 -1.873274,-1.49862 z"
           style="font-style:normal;font-variant:normal;font-weight:normal;font-stretch:normal;font-family:'ESRI North';-inkscape-font-specification:'ESRI North, ';stroke-width:26.97769165"
           id="path4425"
           inkscape:connector-curvature="0" />
      </g>
    </g>
  </g>
</svg>
