<?xml version="1.0" encoding="UTF-8" standalone="no"?>
<!-- Created with Inkscape (http://www.inkscape.org/) -->

<svg
   xmlns:dc="http://purl.org/dc/elements/1.1/"
   xmlns:cc="http://creativecommons.org/ns#"
   xmlns:rdf="http://www.w3.org/1999/02/22-rdf-syntax-ns#"
   xmlns:svg="http://www.w3.org/2000/svg"
   xmlns="http://www.w3.org/2000/svg"
   xmlns:sodipodi="http://sodipodi.sourceforge.net/DTD/sodipodi-0.dtd"
   xmlns:inkscape="http://www.inkscape.org/namespaces/inkscape"
   width="268.90402"
   height="269.35846"
   id="svg2"
   version="1.1"
   inkscape:version="0.48.4 r9939"
   sodipodi:docname="Rosa_dos_Ventos_v11_svg.svg">
  <defs
     id="defs4" />
  <sodipodi:namedview
     id="base"
     pagecolor="#ffffff"
     bordercolor="#666666"
     borderopacity="1.0"
     inkscape:pageopacity="0.0"
     inkscape:pageshadow="2"
     inkscape:zoom="2.8367173"
     inkscape:cx="161.22158"
     inkscape:cy="136.29443"
     inkscape:document-units="px"
     inkscape:current-layer="layer1"
     showgrid="false"
     showguides="true"
     inkscape:guide-bbox="true"
     guidecolor="#0000ff"
     guideopacity="1"
     guidetolerance="1"
     objecttolerance="10000"
     gridtolerance="1"
     inkscape:window-width="1920"
     inkscape:window-height="1018"
     inkscape:window-x="-8"
     inkscape:window-y="-8"
     inkscape:window-maximized="1"
     fit-margin-top="0"
     fit-margin-left="0"
     fit-margin-right="0"
     fit-margin-bottom="0" />
  <metadata
     id="metadata7">
    <rdf:RDF>
      <cc:Work
         rdf:about="">
        <dc:format>image/svg+xml</dc:format>
        <dc:type
           rdf:resource="http://purl.org/dc/dcmitype/StillImage" />
        <dc:title></dc:title>
      </cc:Work>
    </rdf:RDF>
  </metadata>
  <g
     inkscape:label="Camada 1"
     inkscape:groupmode="layer"
     id="layer1"
     transform="translate(-394.49271,-560.6557)">
    <path
       inkscape:connector-curvature="0"
       id="path4681"
       d="m 848.2903,853.81405 0,0 0,0 0,0"
       style="fill:none;stroke:#000000;stroke-width:1px;stroke-linecap:butt;stroke-linejoin:miter;stroke-opacity:1" />
    <path
       inkscape:connector-curvature="0"
       id="path4683"
       d="m 848.2903,853.81405 0,0 c 0,0 0,0 0,0 0,0 0,0 0,0 0,0 0,0 0,0 0,0 0,0 0,0 0,0 0,0 0,0 0,0 0,0 0,0 0,0 0,0 0,0 l 0,0"
       style="fill:none;stroke:#000000;stroke-width:1px;stroke-linecap:butt;stroke-linejoin:miter;stroke-opacity:1" />
    <g
       id="g4779">
      <path
         inkscape:connector-curvature="0"
         id="path4685"
         d="m 586.70317,644.37403 -48.59375,30.46875 0,-2.9375 -6.0625,0 0,3.0625 -48.4375,-30.5625 30.6875,48.84375 -4.3125,0 0,4.8125 5,0 -31.28125,49.59375 48.34375,-30.75 0,0.8125 6.0625,0 0,-0.9375 48.59375,30.78125 0,-0.0312 -31.15625,-49.46875 3.1875,0 0,-4.8125 -2.84375,0 30.84375,-48.875 -0.0312,0 z"
         style="fill:#ffffff;stroke:#000000;stroke-width:1;stroke-linecap:butt;stroke-linejoin:miter;stroke-miterlimit:4;stroke-opacity:1;stroke-dasharray:none" />
      <path
         inkscape:connector-curvature="0"
         id="path4702"
         d="m 535.3185,589.82933 0,105.81348 0,0 17.29507,-17.29507 z"
         style="fill:#ffffff;stroke:#000000;stroke-width:1;stroke-linecap:butt;stroke-linejoin:miter;stroke-miterlimit:4;stroke-opacity:1;stroke-dasharray:none" />
      <path
         style="fill:#ffffff;stroke:#000000;stroke-width:1;stroke-linecap:butt;stroke-linejoin:miter;stroke-miterlimit:4;stroke-opacity:1;stroke-dasharray:none"
         d="m 535.17242,801.73814 0,-105.81347 0,0 -17.29507,17.29507 z"
         id="path4704"
         inkscape:connector-curvature="0" />
      <path
         inkscape:connector-curvature="0"
         id="path4706"
         d="m 535.27668,801.68337 0,-105.81347 0,0 17.29507,17.29507 z"
         style="fill:#000000;stroke:#000000;stroke-width:1;stroke-linecap:butt;stroke-linejoin:miter;stroke-miterlimit:4;stroke-opacity:1;stroke-dasharray:none" />
      <path
         style="fill:#000000;stroke:#000000;stroke-width:1;stroke-linecap:butt;stroke-linejoin:miter;stroke-miterlimit:4;stroke-opacity:1;stroke-dasharray:none"
         d="m 535.12452,590.21738 0,105.81348 0,0 -17.29507,-17.29507 z"
         id="path4708"
         inkscape:connector-curvature="0" />
      <path
         style="fill:#ffffff;stroke:#000000;stroke-width:1;stroke-linecap:butt;stroke-linejoin:miter;stroke-miterlimit:4;stroke-opacity:1;stroke-dasharray:none"
         d="m 429.43921,695.77644 105.81348,0 0,0 -17.29507,-17.29507 z"
         id="path4710"
         inkscape:connector-curvature="0" />
      <path
         inkscape:connector-curvature="0"
         id="path4712"
         d="m 429.37607,695.84336 105.81348,0 0,0 -17.29507,17.29507 z"
         style="fill:#000000;stroke:#000000;stroke-width:1;stroke-linecap:butt;stroke-linejoin:miter;stroke-miterlimit:4;stroke-opacity:1;stroke-dasharray:none" />
      <path
         style="fill:#ffffff;stroke:#000000;stroke-width:1;stroke-linecap:butt;stroke-linejoin:miter;stroke-miterlimit:4;stroke-opacity:1;stroke-dasharray:none"
         d="m 641.10188,695.65203 -105.81347,0 0,0 17.29507,17.29507 z"
         id="path4714"
         inkscape:connector-curvature="0" />
      <path
         inkscape:connector-curvature="0"
         id="path4716"
         d="m 641.12163,695.76368 -105.81347,0 0,0 17.29507,-17.29507 z"
         style="fill:#000000;stroke:#000000;stroke-width:2;stroke-linecap:butt;stroke-linejoin:miter;stroke-miterlimit:4;stroke-opacity:1;stroke-dasharray:none" />
      <path
         transform="translate(0,308.2677)"
         inkscape:connector-curvature="0"
         id="path4723"
         d="m 568.49491,354.2703 -15.84677,15.84677 -2.30441,-11.33265 36.18414,-22.54708 z"
         style="fill:#000000;stroke:#000000;stroke-width:0.2;stroke-linecap:butt;stroke-linejoin:miter;stroke-miterlimit:4;stroke-opacity:1;stroke-dasharray:none" />
      <path
         style="fill:#000000;stroke:#000000;stroke-width:0.2;stroke-linecap:butt;stroke-linejoin:miter;stroke-miterlimit:4;stroke-opacity:1;stroke-dasharray:none"
         d="m 568.77128,729.00401 -15.84677,-15.84677 11.33264,-2.3044 22.54709,36.18413 z"
         id="path4725"
         inkscape:connector-curvature="0" />
      <path
         inkscape:connector-curvature="0"
         id="path4727"
         d="m 501.94813,729.28038 15.84677,-15.84677 2.3044,11.33264 -36.18413,22.54709 z"
         style="fill:#000000;stroke:#000000;stroke-width:0.2;stroke-linecap:butt;stroke-linejoin:miter;stroke-miterlimit:4;stroke-opacity:1;stroke-dasharray:none" />
      <path
         style="fill:#000000;stroke:#000000;stroke-width:0.2;stroke-linecap:butt;stroke-linejoin:miter;stroke-miterlimit:4;stroke-opacity:1;stroke-dasharray:none"
         d="m 502.02889,662.81436 15.84677,15.84677 -11.33265,2.30441 -22.54708,-36.18414 z"
         id="path4729"
         inkscape:connector-curvature="0" />
      <g
         id="text4739"
         style="font-size:40px;font-style:normal;font-variant:normal;font-weight:normal;font-stretch:normal;line-height:125%;letter-spacing:0px;word-spacing:0px;fill:#000000;fill-opacity:1;stroke:none;font-family:Script MT Bold;-inkscape-font-specification:Script MT Bold">
        <path
           id="path4766"
           style="font-size:32px;font-family:Script MT Bold;-inkscape-font-specification:Script MT Bold"
           d="m 537.74139,578.67133 c 0.87498,-2.22916 1.72915,-5.47395 2.5625,-9.73438 0.58331,-3.10415 1.26561,-5.24998 2.04688,-6.4375 0.78122,-1.18748 1.69789,-1.78123 2.75,-1.78125 0.85414,2e-5 1.28122,0.48961 1.28125,1.46875 -3e-5,0.56252 -0.1068,0.96096 -0.32031,1.19531 -0.21357,0.2344 -0.65368,0.39846 -1.32032,0.49219 -0.66669,0.0938 -1.26565,0.46356 -1.79687,1.10938 -0.53128,0.64585 -1.02086,1.97918 -1.46875,4 l -1.14063,5.20312 c -0.40627,1.80209 -0.8646,3.37501 -1.375,4.71875 -0.51043,1.34375 -0.93752,2.33854 -1.28125,2.98438 -0.34377,0.64583 -0.56772,1.0052 -0.67187,1.07812 -0.10419,0.0729 -0.3646,0.13021 -0.78125,0.17188 l -1.6875,0.20312 c -0.39585,0.0208 -0.612,-0.0573 -0.64844,-0.23437 -0.0365,-0.17709 -0.0886,-0.84896 -0.15625,-2.01563 -0.0677,-1.16666 -0.14324,-2.03906 -0.22656,-2.61719 -0.0833,-0.57812 -0.38543,-2.15364 -0.90625,-4.72656 -0.52085,-2.5729 -0.86981,-5.17186 -1.04688,-7.79687 -0.0729,0.0417 -0.50782,1.51824 -1.30468,4.42968 -0.79689,2.91147 -1.34376,4.85939 -1.64063,5.84375 -0.29688,0.98438 -0.71095,2.03647 -1.24219,3.15625 -0.53125,1.1198 -1.21355,2.0599 -2.04687,2.82032 -0.83334,0.76041 -1.82292,1.14062 -2.96875,1.14062 -1,0 -1.80469,-0.3151 -2.41406,-0.94531 -0.60938,-0.63021 -0.91407,-1.21615 -0.91407,-1.75781 0,-0.33333 0.36719,-0.84115 1.10157,-1.52344 0.73437,-0.68229 1.2526,-1.02343 1.55468,-1.02344 0.33333,10e-6 0.54167,0.36719 0.625,1.10156 0.0833,0.73438 0.26823,1.28386 0.55469,1.64844 0.28645,0.36459 0.6276,0.54688 1.02344,0.54688 1.55207,0 3.07812,-2.95833 4.57812,-8.875 l 0.46875,-1.89063 c 0.88541,-3.41665 1.59374,-5.89061 2.125,-7.42187 l 0.5,-1.46875 c 0.11457,-0.3229 0.22655,-0.52082 0.33594,-0.59375 0.10936,-0.0729 0.3828,-0.14061 0.82031,-0.20313 l 1.64063,-0.21875 c 0.23957,-0.0416 0.42186,-0.0625 0.54687,-0.0625 0.22915,2e-5 0.3802,0.0573 0.45313,0.17188 0.0729,0.1146 0.10936,0.33335 0.10937,0.65625 -10e-6,2.26043 0.34634,5.29689 1.03907,9.10937 0.69269,3.81251 1.10675,6.50521 1.24218,8.07813 z"
           inkscape:connector-curvature="0" />
      </g>
      <g
         id="text4743"
         style="font-size:32px;font-style:normal;font-variant:normal;font-weight:normal;font-stretch:normal;line-height:125%;letter-spacing:0px;word-spacing:0px;fill:#000000;fill-opacity:1;stroke:none;font-family:Script MT Bold;-inkscape-font-specification:Script MT Bold">
        <path
           id="path4775"
           style="font-family:Script MT Bold;-inkscape-font-specification:Script MT Bold"
           d="m 541.92645,810.17041 c -1e-5,0.40627 -0.67189,1.40627 -2.01562,3 l -0.28125,0 c -0.20835,-0.0833 -0.33856,-0.39061 -0.39063,-0.92187 -0.11459,-1.0729 -0.48439,-1.95051 -1.10937,-2.63282 -0.62501,-0.68227 -1.37501,-1.02341 -2.25,-1.02343 -0.82293,2e-5 -1.53126,0.2995 -2.125,0.89843 -0.59376,0.59898 -0.89063,1.31513 -0.89063,2.14844 0,0.60418 0.18749,1.25262 0.5625,1.94531 0.37499,0.69273 1.35156,1.78908 2.92969,3.28907 1.57811,1.50001 2.59113,2.69532 3.03906,3.58593 0.4479,0.89064 0.67186,1.73699 0.67188,2.53907 -2e-5,1.85417 -0.8047,3.48698 -2.41406,4.89843 -1.60939,1.41146 -3.4922,2.11719 -5.64844,2.11719 -1.78126,0 -3.25001,-0.41406 -4.40625,-1.24219 -1.15625,-0.82812 -1.73438,-1.5026 -1.73438,-2.02343 0,-0.29167 0.31771,-0.96875 0.95313,-2.03125 0.63541,-1.0625 1,-1.59375 1.09375,-1.59375 0.33333,0 0.57031,0.0964 0.71094,0.28906 0.14062,0.19271 0.23697,0.54948 0.28906,1.07031 0.15624,1.625 0.54947,2.74479 1.17969,3.35938 0.6302,0.61458 1.45051,0.92187 2.46093,0.92187 1.10416,0 2.0677,-0.38281 2.89063,-1.14844 0.8229,-0.76562 1.23436,-1.65364 1.23437,-2.66406 -1e-5,-0.52083 -0.15886,-1.07551 -0.47656,-1.66406 -0.31772,-0.58854 -1.21876,-1.58854 -2.70312,-3 -1.48439,-1.41145 -2.45574,-2.60676 -2.91407,-3.58594 -0.45834,-0.97915 -0.6875,-1.93228 -0.6875,-2.85937 0,-1.61457 0.60937,-3.09894 1.82813,-4.45313 1.21874,-1.35414 2.83853,-2.03123 4.85937,-2.03125 1.53124,2e-5 2.80468,0.35158 3.82032,1.05469 1.0156,0.70314 1.52342,1.28908 1.52343,1.75781 z"
           inkscape:connector-curvature="0" />
      </g>
      <g
         id="text4747"
         style="font-size:32px;font-style:normal;font-variant:normal;font-weight:normal;font-stretch:normal;line-height:125%;letter-spacing:0px;word-spacing:0px;fill:#000000;fill-opacity:1;stroke:none;font-family:Script MT Bold;-inkscape-font-specification:Script MT Bold">
        <path
           id="path4769"
           style="font-family:Script MT Bold;-inkscape-font-specification:Script MT Bold"
           d="m 408.52396,700.85645 c -1.87502,3.52083 -3.91668,5.28124 -6.125,5.28125 -1.15626,-10e-6 -2.08334,-0.42448 -2.78125,-1.27344 -0.69793,-0.84896 -1.04688,-1.97135 -1.04688,-3.36719 0,-1.62499 0.58072,-4.09374 1.74219,-7.40625 1.16145,-3.31248 1.74218,-5.65623 1.74219,-7.03125 -10e-6,-0.61456 -0.17449,-1.12498 -0.52344,-1.53125 -0.34897,-0.40623 -0.78386,-0.60935 -1.30469,-0.60937 -0.80209,2e-5 -1.59896,0.4896 -2.39062,1.46875 -0.79167,0.97918 -1.18751,1.97918 -1.1875,3 -10e-6,0.78126 0.35416,1.59376 1.0625,2.4375 0.29166,0.35418 0.43749,0.59897 0.4375,0.73437 -10e-6,0.15626 -0.22397,0.50522 -0.67188,1.04688 -0.44792,0.54167 -0.83334,0.81251 -1.15625,0.8125 -0.34375,10e-6 -0.73438,-0.24999 -1.17187,-0.75 -0.4375,-0.49999 -0.65625,-1.24478 -0.65625,-2.23438 0,-2.0104 0.70572,-3.83852 2.11718,-5.48437 1.41146,-1.64582 2.97135,-2.46873 4.67969,-2.46875 1.28124,2e-5 2.36457,0.53127 3.25,1.59375 0.88541,1.06251 1.32811,2.38543 1.32813,3.96875 -2e-5,1.66668 -0.53387,4.02345 -1.60157,7.07031 -1.06771,3.04688 -1.60157,5.08594 -1.60156,6.11719 -10e-6,0.48958 0.12499,0.8776 0.375,1.16406 0.24999,0.28646 0.58332,0.42969 1,0.42969 0.90624,0 1.80728,-0.73959 2.70313,-2.21875 0.89582,-1.47917 1.71352,-3.59896 2.45312,-6.35938 l 1.46875,-5.5 c 0.5729,-2.16665 1.21352,-4.05727 1.92188,-5.67187 0.0729,-0.17707 0.55987,-0.31509 1.46093,-0.41407 0.90102,-0.0989 1.55467,-0.14841 1.96094,-0.14843 0.40623,2e-5 0.60935,0.0833 0.60938,0.25 l -2.85938,10.90625 c -0.82293,3.19792 -1.23439,5.53646 -1.23437,7.01562 -2e-5,0.64584 0.13539,1.15886 0.40625,1.53906 0.27081,0.38021 0.63539,0.57032 1.09375,0.57032 0.67706,0 1.60154,-0.55469 2.77343,-1.66407 1.17185,-1.10937 2.15883,-2.52603 2.96094,-4.25 0.80206,-1.72395 1.2031,-3.48696 1.20313,-5.28906 -3e-5,-1.92707 -0.46878,-3.84373 -1.40625,-5.75 -0.26045,-0.55206 -0.39065,-0.89581 -0.39063,-1.03125 -2e-5,-0.4479 0.42966,-0.94269 1.28906,-1.48437 0.85935,-0.54165 1.47654,-0.81248 1.85157,-0.8125 0.35413,2e-5 0.7109,0.47137 1.07031,1.41406 0.35934,0.94273 0.53903,1.9297 0.53906,2.96094 -3e-5,2.73959 -0.64065,5.54428 -1.92187,8.41406 -1.28128,2.8698 -2.87503,5.22656 -4.78125,7.07031 -1.90628,1.84375 -3.63023,2.76562 -5.17188,2.76563 -1.09377,-10e-6 -1.96095,-0.44011 -2.60156,-1.32032 -0.64064,-0.8802 -0.94533,-2.20051 -0.91406,-3.96093 z"
           inkscape:connector-curvature="0" />
      </g>
      <g
         id="text4751"
         style="font-size:32px;font-style:normal;font-variant:normal;font-weight:normal;font-stretch:normal;line-height:125%;letter-spacing:0px;word-spacing:0px;fill:#000000;fill-opacity:1;stroke:none;font-family:Script MT Bold;-inkscape-font-specification:Script MT Bold">
        <path
           id="path4772"
           style="font-family:Script MT Bold;-inkscape-font-specification:Script MT Bold"
           d="m 663.39673,702.3252 c -1.34377,1.3125 -2.69272,2.27604 -4.04688,2.89062 -1.35417,0.61458 -2.88542,0.92187 -4.59375,0.92188 -2.26042,-10e-6 -4.07031,-0.54688 -5.42968,-1.64063 -1.35938,-1.09375 -2.03907,-2.53125 -2.03907,-4.3125 0,-1.55208 0.55729,-2.91405 1.67188,-4.08594 1.11458,-1.17186 2.82291,-1.98696 5.125,-2.44531 -2.21876,-0.84374 -3.32813,-2.26561 -3.32813,-4.26562 0,-1.59374 0.76562,-2.97134 2.29688,-4.13282 1.53124,-1.16143 3.37499,-1.74216 5.53125,-1.74218 1.55207,2e-5 2.67707,0.3047 3.375,0.91406 0.6979,0.60939 1.04686,1.16408 1.04687,1.66406 -10e-6,0.31252 -0.26043,0.79689 -0.78125,1.45313 -0.52085,0.65626 -0.90105,0.98439 -1.14062,0.98437 -0.28127,2e-5 -0.48439,-0.39582 -0.60938,-1.1875 -0.29168,-1.77081 -1.00522,-2.65623 -2.14062,-2.65625 -0.88543,2e-5 -1.68751,0.49481 -2.40625,1.48438 -0.71876,0.9896 -1.07813,2.10939 -1.07813,3.35937 0,2.00001 0.97916,3.00001 2.9375,3 0.32291,10e-6 0.54166,0.0182 0.65625,0.0547 0.11457,0.0365 0.17187,0.12762 0.17188,0.27344 -1e-5,0.39584 -0.0781,0.83074 -0.23438,1.30468 -0.15626,0.47397 -0.35417,0.71095 -0.59375,0.71094 -0.0729,10e-6 -0.33334,-0.0286 -0.78125,-0.0859 -0.44792,-0.0573 -0.83855,-0.0859 -1.17187,-0.0859 -1.10418,10e-6 -2.05209,0.45313 -2.84375,1.35937 -0.79167,0.90626 -1.18751,2.00001 -1.1875,3.28125 -1e-5,1.38542 0.46353,2.53386 1.39062,3.44531 0.92708,0.91146 2.09895,1.36719 3.51563,1.36719 1.16665,0 2.33332,-0.3125 3.5,-0.9375 1.16665,-0.625 2.22915,-1.52083 3.1875,-2.6875 z"
           inkscape:connector-curvature="0" />
      </g>
    </g>
  </g>
</svg>
