<?xml version="1.0" encoding="UTF-8" standalone="no"?>
<!-- Created with Inkscape (http://www.inkscape.org/) -->

<svg
   xmlns:dc="http://purl.org/dc/elements/1.1/"
   xmlns:cc="http://creativecommons.org/ns#"
   xmlns:rdf="http://www.w3.org/1999/02/22-rdf-syntax-ns#"
   xmlns:svg="http://www.w3.org/2000/svg"
   xmlns="http://www.w3.org/2000/svg"
   xmlns:sodipodi="http://sodipodi.sourceforge.net/DTD/sodipodi-0.dtd"
   xmlns:inkscape="http://www.inkscape.org/namespaces/inkscape"
   width="93.167999"
   height="93.167999"
   id="svg2"
   version="1.1"
   inkscape:version="0.48.2 r9819"
   sodipodi:docname="esri_[.svg">
  <defs
     id="defs4" />
  <sodipodi:namedview
     id="base"
     pagecolor="#ffffff"
     bordercolor="#666666"
     borderopacity="1.0"
     inkscape:pageopacity="0.0"
     inkscape:pageshadow="2"
     inkscape:zoom="2.7675795"
     inkscape:cx="0.98011634"
     inkscape:cy="66.127658"
     inkscape:document-units="px"
     inkscape:current-layer="layer1"
     showgrid="false"
     fit-margin-top="0"
     fit-margin-left="0"
     fit-margin-right="0"
     fit-margin-bottom="0"
     inkscape:window-width="1366"
     inkscape:window-height="744"
     inkscape:window-x="0"
     inkscape:window-y="24"
     inkscape:window-maximized="1" />
  <metadata
     id="metadata7">
    <rdf:RDF>
      <cc:Work
         rdf:about="">
        <dc:format>image/svg+xml</dc:format>
        <dc:type
           rdf:resource="http://purl.org/dc/dcmitype/StillImage" />
        <dc:title></dc:title>
      </cc:Work>
    </rdf:RDF>
  </metadata>
  <g
     inkscape:label="Camada 1"
     inkscape:groupmode="layer"
     id="layer1"
     transform="translate(-719.11139,-53.925372)">
    <g
       style="font-size:144px;font-style:normal;font-variant:normal;font-weight:normal;font-stretch:normal;line-height:125%;letter-spacing:0px;word-spacing:0px;fill:#000000;fill-opacity:1;stroke:none;font-family:Arial;-inkscape-font-specification:Arial"
       id="text3928">
      <path
         d="m 773.68739,110.37337 c -1.92007,9.69604 -3.55207,17.42403 -4.896,23.184 -1.34407,5.66402 -2.35207,10.17602 -3.024,13.536 -1.44006,-6.62398 -2.83206,-12.76797 -4.176,-18.432 -1.24806,-5.66396 -2.54406,-11.75995 -3.888,-18.288 l -38.592,-7.776 38.592,-7.775998 8.064,-40.896 7.92,40.896 38.592,7.775998 -38.592,7.776 m -2.88,-3.024 19.584,-4.752 -19.584,-4.751998 -5.04,-22.032 -5.184,22.032 -19.44,4.751998 19.44,4.752 5.184,17.856 5.04,-17.856 m -5.04,-50.111998 0,15.552 5.616,24.336 1.728,-1.872 -7.344,-38.016 m -7.488,52.703998 7.488,33.696 0,-15.552 -5.76,-20.016 -1.728,1.872 m 0,-14.687998 -35.712,7.343998 15.552,0 21.888,-5.471998 -1.728,-1.872 m 13.104,12.815998 1.728,1.872 35.712,-7.344 -15.408,0 -22.032,5.472"
         style="font-family:ESRI North;-inkscape-font-specification:ESRI North"
         id="path3933"
         inkscape:connector-curvature="0"
         sodipodi:nodetypes="cccccccccccccccccccccccccccccccccccccccc" />
    </g>
  </g>
</svg>
