<?xml version="1.0" standalone="no"?>
<!DOCTYPE svg PUBLIC "-//W3C//DTD SVG 20010904//EN"
 "http://www.w3.org/TR/2001/REC-SVG-20010904/DTD/svg10.dtd">
<svg version="1.0" xmlns="http://www.w3.org/2000/svg"
 width="1280.000000pt" height="1280.000000pt" viewBox="0 0 1280.000000 1280.000000"
 preserveAspectRatio="xMidYMid meet">
<g transform="translate(0.000000,1280.000000) scale(0.100000,-0.100000)"
fill="#000000" stroke="none">
<path d="M6000 12705 c0 -38 -5 -35 110 -58 l65 -13 3 -596 2 -595 -87 -14
-88 -14 0 -35 0 -35 253 -3 253 -2 -3 37 -3 38 -92 14 -93 13 0 522 1 521 55
-60 c30 -33 255 -293 502 -577 l447 -517 67 0 68 -1 2 652 3 652 65 13 c115
23 110 20 110 58 l0 35 -250 0 -250 0 0 -34 c0 -39 1 -40 103 -56 l77 -13 0
-488 c0 -269 -2 -489 -4 -489 -2 0 -212 243 -466 540 l-463 540 -193 0 -194 0
0 -35z"/>
<path d="M6596 9353 c-120 -555 -222 -1012 -227 -1017 -5 -5 -41 -18 -80 -28
-107 -27 -277 -99 -398 -168 -449 -257 -810 -697 -917 -1116 -13 -53 -24 -107
-24 -119 0 -12 -6 -27 -12 -32 -7 -6 -453 -109 -991 -229 -538 -120 -983 -222
-990 -226 -6 -4 -9 -9 -7 -11 3 -2 444 -101 980 -221 536 -119 985 -221 998
-226 15 -6 22 -18 22 -36 0 -43 39 -183 81 -289 152 -388 520 -775 943 -990
101 -51 233 -100 345 -128 l55 -13 219 -1009 c120 -556 221 -1012 223 -1014 2
-2 6 -2 9 0 2 3 102 459 223 1014 l218 1009 85 22 c126 33 200 61 313 118 194
99 351 211 514 370 273 264 441 552 505 865 9 41 20 77 26 80 5 3 453 105 995
226 603 135 986 224 986 231 0 7 -10 14 -22 17 -13 3 -459 103 -993 223 -533
119 -971 218 -973 219 -2 2 -11 43 -21 91 -100 485 -507 971 -1028 1228 -123
60 -196 88 -303 115 -41 10 -78 25 -82 32 -7 13 -438 1991 -438 2011 0 4 -4 8
-8 8 -4 0 -106 -453 -226 -1007z m224 -253 l0 -770 -165 0 c-109 0 -165 4
-165 11 0 12 309 1498 315 1517 2 6 7 12 10 12 3 0 5 -346 5 -770z m228 -961
c823 -90 1370 -643 1468 -1484 19 -164 14 -423 -11 -575 -130 -789 -662 -1301
-1444 -1391 -139 -15 -475 -7 -601 16 -763 138 -1260 695 -1340 1504 -60 609
148 1199 543 1542 246 213 562 347 917 388 109 12 356 13 468 0z m2415 -1549
c410 -88 748 -160 751 -160 3 0 6 -4 6 -10 0 -7 -260 -10 -760 -10 l-760 0 0
170 c0 94 4 170 9 170 5 0 344 -72 754 -160z m-4523 -348 l0 -169 -177 39
c-98 21 -430 92 -738 158 -308 66 -569 124 -580 129 -12 6 270 10 738 10 l757
1 0 -168z m2210 -1744 c1 -30 -316 -1528 -322 -1528 -10 0 -11 1524 -1 1533 3
4 78 7 165 7 120 0 158 -3 158 -12z"/>
<path d="M110 7095 c0 -37 10 -42 113 -61 26 -4 41 -13 46 -28 5 -11 89 -310
187 -664 l179 -643 54 3 54 3 171 513 c94 281 173 512 176 512 3 0 77 -231
165 -512 l160 -513 55 -3 55 -2 205 651 c113 359 209 658 215 665 5 7 35 19
65 27 53 13 55 14 58 50 l3 37 -225 0 -226 0 0 -34 c0 -40 -1 -39 113 -57 43
-6 80 -15 82 -19 2 -4 -49 -180 -114 -391 -65 -211 -133 -431 -151 -487 -17
-57 -33 -102 -35 -100 -6 5 -298 951 -299 968 -1 10 19 18 69 27 119 22 115
19 115 58 l0 35 -265 0 -265 0 0 -34 c0 -39 1 -40 103 -57 64 -11 77 -16 77
-32 0 -10 -24 -91 -53 -180 -30 -89 -98 -303 -152 -474 -54 -172 -101 -313
-104 -313 -5 0 -274 954 -275 977 -1 4 31 13 69 20 119 21 115 19 115 58 l0
35 -270 0 -270 0 0 -35z"/>
<path d="M11670 7095 c0 -39 -4 -37 115 -58 l70 -12 3 -597 2 -596 -95 -18
-95 -18 0 -33 0 -33 499 0 499 0 41 165 c22 90 41 167 41 170 0 3 -17 5 -38 5
l-38 0 -36 -97 -36 -98 -266 -3 -266 -2 0 271 0 272 61 -7 c34 -3 113 -6 175
-6 l112 0 18 -80 c16 -77 18 -80 45 -80 l29 0 0 205 0 205 -28 0 c-27 0 -29
-4 -46 -75 l-18 -75 -174 0 -174 0 0 250 0 250 210 0 209 0 27 -90 c27 -88 28
-90 58 -90 l31 0 -12 133 c-6 72 -12 142 -12 155 l-1 22 -455 0 -455 0 0 -35z"/>
<path d="M6734 1505 c-243 -53 -376 -271 -305 -503 24 -80 77 -154 149 -208
26 -19 116 -69 200 -111 176 -87 241 -133 271 -195 37 -77 24 -194 -30 -267
-12 -16 -44 -42 -73 -57 -46 -26 -60 -29 -146 -29 -76 1 -107 5 -154 24 -90
36 -130 78 -160 169 -14 42 -29 100 -34 127 -7 45 -10 50 -32 47 -14 -1 -28
-6 -32 -10 -8 -8 8 -303 17 -329 13 -37 201 -97 340 -109 319 -26 553 173 533
455 -11 154 -83 224 -371 366 -219 107 -286 182 -287 316 0 90 34 159 98 197
41 24 57 27 132 27 75 0 91 -3 132 -28 56 -32 82 -68 118 -156 23 -56 31 -66
53 -69 26 -3 27 -1 26 40 -1 24 -6 94 -13 157 l-11 115 -120 22 c-136 26 -213
28 -301 9z"/>
</g>
</svg>
