<?xml version="1.0" encoding="UTF-8" standalone="no"?>
<!-- Created with Inkscape (http://www.inkscape.org/) -->

<svg
   xmlns:dc="http://purl.org/dc/elements/1.1/"
   xmlns:cc="http://creativecommons.org/ns#"
   xmlns:rdf="http://www.w3.org/1999/02/22-rdf-syntax-ns#"
   xmlns:svg="http://www.w3.org/2000/svg"
   xmlns="http://www.w3.org/2000/svg"
   xmlns:xlink="http://www.w3.org/1999/xlink"
   xmlns:sodipodi="http://sodipodi.sourceforge.net/DTD/sodipodi-0.dtd"
   xmlns:inkscape="http://www.inkscape.org/namespaces/inkscape"
   id="svg2"
   sodipodi:docname="North_Arrow_055.svg"
   viewBox="0 0 373.17494 373.17495"
   sodipodi:version="0.32"
   version="1.0"
   inkscape:output_extension="org.inkscape.output.svg.inkscape"
   inkscape:version="0.92.3 (2405546, 2018-03-11)"
   width="373.17496"
   height="373.17496">
  <defs
     id="defs4">
    <pattern
       inkscape:collect="always"
       xlink:href="#pattern3228"
       id="pattern3888"
       patternTransform="matrix(0.98414,0,0,0.98414,-247.90585,-21.548975)" />
    <pattern
       id="pattern3228"
       width="48.594925"
       patternUnits="userSpaceOnUse"
       patternTransform="translate(-76.113 151.89)"
       height="48.594925">
      <path
         id="path3226"
         sodipodi:rx="3.512886"
         sodipodi:ry="2.9274051"
         style="fill-rule:evenodd;stroke:#000000;stroke-width:1px;fill:#000000"
         sodipodi:type="arc"
         d="m-62.061 167.11a3.5129 2.9274 0 1 1 -7.026 0 3.5129 2.9274 0 1 1 7.026 0z"
         transform="translate(96.604 -127.89)"
         sodipodi:cy="167.1149"
         sodipodi:cx="-65.573875" />
      <path
         id="path3224"
         sodipodi:rx="3.512886"
         sodipodi:ry="2.9274051"
         style="fill-rule:evenodd;stroke:#000000;stroke-width:1px;fill:#000000"
         sodipodi:type="arc"
         d="m-62.061 167.11a3.5129 2.9274 0 1 1 -7.026 0 3.5129 2.9274 0 1 1 7.026 0z"
         transform="translate(80.796 -137.84)"
         sodipodi:cy="167.1149"
         sodipodi:cx="-65.573875" />
      <path
         id="path3222"
         sodipodi:rx="3.512886"
         sodipodi:ry="2.9274051"
         style="fill-rule:evenodd;stroke:#000000;stroke-width:1px;fill:#000000"
         sodipodi:type="arc"
         d="m-62.061 167.11a3.5129 2.9274 0 1 1 -7.026 0 3.5129 2.9274 0 1 1 7.026 0z"
         transform="translate(87.237 -153.65)"
         sodipodi:cy="167.1149"
         sodipodi:cx="-65.573875" />
      <rect
         id="rect3220"
         style="color:#000000;stroke-width:0;fill:none"
         height="48.595"
         width="48.595"
         y="0"
         x="0" />
    </pattern>
  </defs>
  <sodipodi:namedview
     id="base"
     bordercolor="#666666"
     inkscape:pageshadow="2"
     guidetolerance="10"
     pagecolor="#ffffff"
     gridtolerance="10000"
     inkscape:window-height="745"
     inkscape:zoom="0.48943316"
     objecttolerance="10"
     borderopacity="1.0"
     inkscape:current-layer="layer2"
     inkscape:cx="71.665458"
     inkscape:cy="113.00336"
     inkscape:window-y="23"
     inkscape:window-x="0"
     inkscape:window-width="1366"
     inkscape:pageopacity="0.0"
     inkscape:document-units="px"
     showgrid="false"
     fit-margin-top="0"
     fit-margin-left="0"
     fit-margin-right="0"
     fit-margin-bottom="0"
     inkscape:window-maximized="1" />
  <g
     id="layer2"
     inkscape:label="drawing"
     inkscape:groupmode="layer"
     transform="translate(-118.76243,-154.69127)">
    <g
       id="g3967">
      <path
         id="path3468"
         sodipodi:nodetypes="csscccssc"
         style="color:#000000;fill:#ffffff;fill-rule:evenodd;stroke:#000000;stroke-width:1px"
         d="m 191.55,262.42 c 0,0 1.82,5.28 15.28,13.69 12.7,7.94 11.05,11.13 11.91,14.35 0.87,3.22 10.31,8.42 10.31,8.42 l 12.86,-0.29 -10.36,-14.76 c 0,0 -2.38,1.19 -8.63,-3.88 -6.3,-5.12 -5.78,-6.02 -15.15,-9.58 -12.37,-4.69 -14.55,-5.78 -16.22,-7.95 z"
         inkscape:connector-curvature="0" />
      <circle
         id="path2222"
         style="fill:url(#pattern3888);fill-rule:evenodd;stroke:#000000;stroke-width:2.50001073"
         cx="305.36234"
         cy="341.29013"
         r="176.79372" />
      <circle
         id="path3195"
         style="fill:none;stroke:#000000;stroke-width:2.49991226"
         cx="305.34991"
         cy="341.27875"
         r="185.33752" />
      <path
         id="path3215"
         style="color:#000000;fill:#ffffff;fill-rule:evenodd;stroke:#000000;stroke-width:1px"
         sodipodi:type="star"
         d="m 185.30713,212.32647 27.67484,69.49446 -45.42337,-59.43143 -29.57094,68.70908 9.90519,-74.14354 -69.494467,27.67484 59.431427,-45.42338 -68.709073,-29.57094 74.143543,9.90519 -27.67484,-69.49446 45.42337,59.43143 29.57094,-68.70908 -9.90519,74.14354 69.49447,-27.67484 -59.43143,45.42337 68.70907,29.57095 z"
         sodipodi:r1="26.657572"
         inkscape:flatsided="false"
         transform="matrix(1.7206,-0.48698,0.48698,1.7206,-72.733,84.88)"
         sodipodi:arg2="1.0550113"
         sodipodi:arg1="0.6623122"
         inkscape:randomized="0"
         sodipodi:cy="195.93361"
         sodipodi:cx="164.28571"
         inkscape:rounded="0"
         sodipodi:r2="98.73175"
         sodipodi:sides="8" />
      <path
         id="path3225"
         style="color:#000000;fill:none;stroke:#000000;stroke-width:2.5"
         d="m 261.34,324.06 87.88,35.89"
         inkscape:connector-curvature="0" />
      <path
         id="path3227"
         style="color:#000000;fill:none;stroke:#000000;stroke-width:1px"
         d="m 261.63,360.24 87.3,-36.47"
         inkscape:connector-curvature="0" />
      <path
         id="path3229"
         style="color:#000000;fill:none;stroke:#000000;stroke-width:1px"
         d="m 286.61,297.63 37.34,88.46"
         inkscape:connector-curvature="0" />
      <path
         id="path3231"
         style="color:#000000;fill:none;stroke:#000000;stroke-width:1px"
         d="m 287.47,385.8 36.19,-88.17"
         inkscape:connector-curvature="0" />
      <path
         id="path3233"
         style="color:#000000;fill:#000000;fill-rule:evenodd;stroke:#000000;stroke-width:1px"
         d="m 179.78,218.08 107.12,80.42 17.81,43.65 z"
         inkscape:connector-curvature="0" />
      <path
         id="path3235"
         style="color:#000000;fill:#000000;fill-rule:evenodd;stroke:#000000;stroke-width:1px"
         d="m 304.13,165.53 19.24,132.39 -17.8,43.94 z"
         inkscape:connector-curvature="0" />
      <path
         id="path3237"
         style="color:#000000;fill:#000000;fill-rule:evenodd;stroke:#000000;stroke-width:1px"
         d="m 429.63,216.07 -80.41,107.41 -43.65,17.81 z"
         inkscape:connector-curvature="0" />
      <path
         id="path3239"
         style="color:#000000;fill:#000000;fill-rule:evenodd;stroke:#000000;stroke-width:1px"
         d="M 481.61,340.71 349.79,359.95 305.28,341.86 Z"
         inkscape:connector-curvature="0" />
      <path
         id="path3241"
         style="color:#000000;fill:#000000;fill-rule:evenodd;stroke:#000000;stroke-width:1px"
         d="m 430.49,465.64 -80.7,-105.4 -44.8,-18.67 z"
         inkscape:connector-curvature="0" />
      <path
         id="path3243"
         style="color:#000000;fill:#000000;fill-rule:evenodd;stroke:#000000;stroke-width:1px"
         d="m 306.43,518.19 17.52,-132.1 -18.38,-44.52 z"
         inkscape:connector-curvature="0" />
      <path
         id="path3245"
         style="color:#000000;fill:#000000;fill-rule:evenodd;stroke:#000000;stroke-width:1px"
         d="m 181.5,467.65 105.69,-80.99 18.66,-45.09 z"
         inkscape:connector-curvature="0" />
      <path
         id="path3247"
         style="color:#000000;fill:#000000;fill-rule:evenodd;stroke:#000000;stroke-width:1px"
         d="m 128.09,343.01 132.68,17.52 44.22,-18.38 z"
         inkscape:connector-curvature="0" />
      <path
         id="path3353"
         sodipodi:nodetypes="csssscccscsc"
         style="color:#000000;fill:#ffffff;fill-rule:evenodd;stroke:#000000;stroke-width:1px"
         d="m 238.73,177.4 c 0,0 2.73,-2.03 6.76,9.47 4.03,11.5 -0.85,19.36 8,27.79 8.85,8.43 18.73,21.03 20.59,24.28 1.85,3.25 4.68,16.5 7.21,21.17 2.53,4.67 9.01,12.75 9.01,12.75 l -3.68,25.28 -26.87,-19.75 c 0,0 2.73,-24.89 -2.61,-40.19 -4.18,-12 -7.52,-13.63 -7.52,-13.63 0,0 -12.18,-8.55 -10.45,-32.82 1.19,-16.56 -0.65,-14.32 -0.44,-14.35 z"
         inkscape:connector-curvature="0" />
      <path
         id="path3355"
         style="color:#000000;fill:#ffffff;fill-rule:evenodd;stroke:#000000;stroke-width:1px"
         d="m 283,219.67 c 0,0 -4.32,10.15 5.21,18.33 9.53,8.18 5.53,7.65 5.26,9.51 -0.27,1.87 -2.92,24.98 -2.92,24.98 0,0 -5.59,-4.83 -8.12,-9.99 -2.52,-5.17 5.41,-11.32 1.45,-19.03 -3.95,-7.72 -8.63,-16.06 -0.88,-23.8 z"
         inkscape:connector-curvature="0" />
      <path
         id="path3357"
         style="color:#000000;fill:none;stroke:#000000;stroke-width:1px"
         d="M 223.08,228.12 Z"
         inkscape:connector-curvature="0" />
      <path
         id="path3363"
         sodipodi:nodetypes="csscccssc"
         style="color:#000000;fill:#ffffff;fill-rule:evenodd;stroke:#000000;stroke-width:1px"
         d="m 223.93,228.04 c 0,0 5.27,1.82 13.69,15.28 7.93,12.7 11.13,11.06 14.35,11.92 3.22,0.86 8.42,10.3 8.42,10.3 l -0.29,12.86 -14.76,-10.36 c 0,0 1.18,-2.37 -3.89,-8.62 -5.11,-6.31 -6.02,-5.78 -9.57,-15.16 -4.7,-12.36 -5.78,-14.55 -7.95,-16.22 z"
         inkscape:connector-curvature="0" />
      <path
         id="path3365"
         sodipodi:nodetypes="csssscccscsc"
         style="color:#000000;fill:#000000;fill-rule:evenodd;stroke:#000000;stroke-width:1px"
         d="m 238.73,177.4 c 0,0 2.73,-2.03 6.76,9.47 4.03,11.5 -0.85,19.36 8,27.79 8.85,8.43 18.73,21.03 20.59,24.28 1.85,3.25 4.68,16.5 7.21,21.17 2.53,4.67 9.01,12.75 9.01,12.75 l -3.68,25.28 -10.28,-20.59 c 0,0 -8.7,-24.28 -14.03,-39.58 -4.19,-12 -8.21,-14.44 -8.21,-14.44 0,0 -13.29,-8.73 -11.55,-33 1.19,-16.56 -4.03,-13.1 -3.82,-13.13 z"
         inkscape:connector-curvature="0" />
      <path
         id="path3367"
         sodipodi:nodetypes="csscssc"
         style="color:#000000;fill:#000000;fill-rule:evenodd;stroke:#000000;stroke-width:1px"
         d="m 283,219.67 c 0,0 -4.32,10.15 5.21,18.33 9.53,8.18 5.53,7.65 5.26,9.51 -0.27,1.87 -2.92,24.98 -2.92,24.98 0,0 -1.43,-1.29 -2.44,-9.48 -0.69,-5.71 2.26,-13.72 -1.7,-21.44 -3.95,-7.72 -11.16,-14.16 -3.41,-21.9 z"
         inkscape:connector-curvature="0" />
      <path
         id="path3369"
         sodipodi:nodetypes="csscccssc"
         style="color:#000000;fill:#000000;fill-rule:evenodd;stroke:#000000;stroke-width:1px"
         d="m 223.93,228.04 c 0,0 5.27,1.82 13.69,15.28 7.93,12.7 11.13,11.06 14.35,11.92 3.22,0.86 8.42,10.3 8.42,10.3 l -0.29,12.86 -6.35,-5.34 c 0,0 -0.68,-8.67 -8.12,-15.02 -6.18,-5.26 -8.04,-5.27 -11.59,-14.64 -4.7,-12.37 -7.94,-13.69 -10.11,-15.36 z"
         inkscape:connector-curvature="0" />
      <path
         id="path3382"
         sodipodi:nodetypes="csssscccscsc"
         style="color:#000000;fill:#ffffff;fill-rule:evenodd;stroke:#000000;stroke-width:1px"
         d="m 373.37,178.46 c 0,0 3.37,0.48 -1.87,11.48 -5.24,11 -14.25,13.14 -13.91,25.36 0.35,12.22 -1.52,28.12 -2.49,31.73 -0.97,3.62 -8.3,15.01 -9.79,20.11 -1.49,5.1 -2.59,15.39 -2.59,15.39 l -20.42,15.36 -5.16,-32.95 c 0,0 19.47,-15.74 26.47,-30.36 5.48,-11.47 4.25,-14.97 4.25,-14.97 0,0 -2.62,-14.65 15.71,-30.65 12.51,-10.93 9.63,-10.63 9.8,-10.5 z"
         inkscape:connector-curvature="0" />
      <path
         id="path3384"
         style="color:#000000;fill:#ffffff;fill-rule:evenodd;stroke:#000000;stroke-width:1px"
         d="m 375.01,239.65 c 0,0 -10.21,4.16 -9.21,16.68 1,12.51 -1.47,9.32 -2.97,10.45 -1.5,1.14 -19.67,15.67 -19.67,15.67 0,0 -0.57,-7.36 1.28,-12.8 1.85,-5.45 11.8,-4.23 14.43,-12.49 2.63,-8.27 5.18,-17.48 16.14,-17.51 z"
         inkscape:connector-curvature="0" />
      <path
         id="path3386"
         style="color:#000000;fill:none;stroke:#000000;stroke-width:1px"
         d="m 326.53,203.44 c -0.05,0.05 -0.05,0.05 0,0 z"
         inkscape:connector-curvature="0" />
      <path
         id="path3388"
         sodipodi:nodetypes="csscccssc"
         style="color:#000000;fill:#ffffff;fill-rule:evenodd;stroke:#000000;stroke-width:1px"
         d="m 327.19,203.97 c 0,0 2.46,5.01 -1.05,20.49 -3.32,14.61 0.11,15.69 1.79,18.57 1.68,2.88 -1.28,13.24 -1.28,13.24 l -9.27,8.93 -3.18,-17.75 c 0,0 2.52,-0.86 3.32,-8.86 0.81,-8.08 -0.2,-8.35 3.88,-17.5 5.38,-12.09 6.15,-14.4 5.79,-17.12 z"
         inkscape:connector-curvature="0" />
      <path
         id="path3390"
         sodipodi:nodetypes="csssscccscsc"
         style="color:#000000;fill:#000000;fill-rule:evenodd;stroke:#000000;stroke-width:1px"
         d="m 373.37,178.46 c 0,0 3.37,0.48 -1.87,11.48 -5.24,11 -14.25,13.14 -13.91,25.36 0.35,12.22 -1.52,28.12 -2.49,31.73 -0.97,3.62 -8.3,15.01 -9.79,20.11 -1.49,5.1 -2.59,15.39 -2.59,15.39 l -20.42,15.36 7.21,-21.85 c 0,0 10.93,-23.36 17.92,-37.98 5.48,-11.47 4.36,-16.03 4.36,-16.03 0,0 -3.29,-15.56 15.04,-31.56 12.51,-10.92 6.37,-12.14 6.54,-12.01 z"
         inkscape:connector-curvature="0" />
      <path
         id="path3392"
         sodipodi:nodetypes="csscssc"
         style="color:#000000;fill:#000000;fill-rule:evenodd;stroke:#000000;stroke-width:1px"
         d="m 375.01,239.65 c 0,0 -10.21,4.16 -9.21,16.68 1,12.51 -1.47,9.32 -2.97,10.45 -1.5,1.14 -19.67,15.67 -19.67,15.67 0,0 -0.11,-1.93 4.95,-8.44 3.53,-4.54 11.27,-8.15 13.9,-16.42 2.63,-8.26 2.04,-17.91 13,-17.94 z"
         inkscape:connector-curvature="0" />
      <path
         id="path3394"
         sodipodi:nodetypes="csscccssc"
         style="color:#000000;fill:#000000;fill-rule:evenodd;stroke:#000000;stroke-width:1px"
         d="m 327.19,203.97 c 0,0 2.46,5.01 -1.05,20.49 -3.32,14.61 0.11,15.69 1.79,18.57 1.68,2.88 -1.28,13.24 -1.28,13.24 l -9.27,8.93 -0.74,-8.26 c 0,0 5.63,-6.64 4.81,-16.39 -0.67,-8.09 -1.98,-9.4 2.1,-18.56 5.38,-12.08 4,-15.3 3.64,-18.02 z"
         inkscape:connector-curvature="0" />
      <path
         id="path3398"
         sodipodi:nodetypes="csssscccscsc"
         style="color:#000000;fill:#ffffff;fill-rule:evenodd;stroke:#000000;stroke-width:1px"
         d="m 238.73,507.68 c 0,0 2.73,2.03 6.76,-9.47 4.03,-11.5 -0.85,-19.36 8,-27.79 8.85,-8.43 18.73,-21.03 20.59,-24.28 1.85,-3.24 4.68,-16.49 7.21,-21.16 2.53,-4.67 9.01,-12.75 9.01,-12.75 l -3.68,-25.29 -26.87,19.75 c 0,0 2.73,24.89 -2.61,40.19 -4.18,12.01 -7.52,13.63 -7.52,13.63 0,0 -12.18,8.55 -10.45,32.82 1.19,16.57 -0.65,14.32 -0.44,14.35 z"
         inkscape:connector-curvature="0" />
      <path
         id="path3400"
         style="color:#000000;fill:#ffffff;fill-rule:evenodd;stroke:#000000;stroke-width:1px"
         d="m 283,465.41 c 0,0 -4.32,-10.14 5.21,-18.33 9.53,-8.18 5.53,-7.64 5.26,-9.51 -0.27,-1.87 -2.92,-24.98 -2.92,-24.98 0,0 -5.59,4.83 -8.12,9.99 -2.52,5.17 5.41,11.32 1.45,19.04 -3.95,7.71 -8.63,16.05 -0.88,23.79 z"
         inkscape:connector-curvature="0" />
      <path
         id="path3402"
         style="color:#000000;fill:none;stroke:#000000;stroke-width:1px"
         d="M 223.08,456.96 Z"
         inkscape:connector-curvature="0" />
      <path
         id="path3404"
         sodipodi:nodetypes="csscccssc"
         style="color:#000000;fill:#ffffff;fill-rule:evenodd;stroke:#000000;stroke-width:1px"
         d="m 223.93,457.04 c 0,0 5.27,-1.82 13.69,-15.28 7.93,-12.7 11.13,-11.05 14.35,-11.92 3.22,-0.86 8.42,-10.3 8.42,-10.3 l -0.29,-12.86 -14.76,10.36 c 0,0 1.18,2.37 -3.89,8.62 -5.11,6.31 -6.02,5.79 -9.57,15.16 -4.7,12.36 -5.78,14.55 -7.95,16.22 z"
         inkscape:connector-curvature="0" />
      <path
         id="path3406"
         sodipodi:nodetypes="csssscccscsc"
         style="color:#000000;fill:#000000;fill-rule:evenodd;stroke:#000000;stroke-width:1px"
         d="m 238.73,507.68 c 0,0 2.73,2.03 6.76,-9.47 4.03,-11.5 -0.85,-19.36 8,-27.79 8.85,-8.43 18.73,-21.03 20.59,-24.28 1.85,-3.24 4.68,-16.49 7.21,-21.16 2.53,-4.67 9.01,-12.75 9.01,-12.75 l -3.68,-25.29 -10.28,20.59 c 0,0 -8.7,24.28 -14.03,39.58 -4.19,12 -8.21,14.45 -8.21,14.45 0,0 -13.29,8.72 -11.55,32.99 1.19,16.56 -4.03,13.1 -3.82,13.13 z"
         inkscape:connector-curvature="0" />
      <path
         id="path3408"
         sodipodi:nodetypes="csscssc"
         style="color:#000000;fill:#000000;fill-rule:evenodd;stroke:#000000;stroke-width:1px"
         d="m 283,465.41 c 0,0 -4.32,-10.14 5.21,-18.33 9.53,-8.18 5.53,-7.64 5.26,-9.51 -0.27,-1.87 -2.92,-24.98 -2.92,-24.98 0,0 -1.43,1.3 -2.44,9.48 -0.69,5.71 2.26,13.72 -1.7,21.44 -3.95,7.72 -11.16,14.16 -3.41,21.9 z"
         inkscape:connector-curvature="0" />
      <path
         id="path3410"
         sodipodi:nodetypes="csscccssc"
         style="color:#000000;fill:#000000;fill-rule:evenodd;stroke:#000000;stroke-width:1px"
         d="m 223.93,457.04 c 0,0 5.27,-1.82 13.69,-15.28 7.93,-12.7 11.13,-11.05 14.35,-11.92 3.22,-0.86 8.42,-10.3 8.42,-10.3 l -0.29,-12.86 -6.35,5.34 c 0,0 -0.68,8.67 -8.12,15.02 -6.18,5.27 -8.04,5.27 -11.59,14.65 -4.7,12.36 -7.94,13.68 -10.11,15.35 z"
         inkscape:connector-curvature="0" />
      <path
         id="path3414"
         sodipodi:nodetypes="csssscccscsc"
         style="color:#000000;fill:#ffffff;fill-rule:evenodd;stroke:#000000;stroke-width:1px"
         d="m 375.37,506.63 c 0,0 3.37,-0.49 -1.87,-11.49 -5.24,-11 -14.25,-13.14 -13.91,-25.36 0.35,-12.22 -1.52,-28.12 -2.49,-31.73 -0.97,-3.62 -8.3,-15.01 -9.79,-20.11 -1.49,-5.1 -2.59,-15.39 -2.59,-15.39 l -20.42,-15.36 -5.16,32.95 c 0,0 19.47,15.74 26.47,30.36 5.48,11.47 4.25,14.97 4.25,14.97 0,0 -2.62,14.65 15.71,30.66 12.51,10.92 9.63,10.62 9.8,10.5 z"
         inkscape:connector-curvature="0" />
      <path
         id="path3416"
         style="color:#000000;fill:#ffffff;fill-rule:evenodd;stroke:#000000;stroke-width:1px"
         d="m 377.01,445.43 c 0,0 -10.21,-4.15 -9.21,-16.67 1,-12.52 -1.47,-9.32 -2.97,-10.46 -1.5,-1.14 -19.67,-15.67 -19.67,-15.67 0,0 -0.57,7.36 1.28,12.81 1.85,5.44 11.8,4.22 14.43,12.49 2.63,8.26 5.18,17.47 16.14,17.5 z"
         inkscape:connector-curvature="0" />
      <path
         id="path3418"
         style="color:#000000;fill:none;stroke:#000000;stroke-width:1px"
         d="m 328.53,481.64 c -0.05,-0.05 -0.05,-0.05 0,0 z"
         inkscape:connector-curvature="0" />
      <path
         id="path3420"
         sodipodi:nodetypes="csscccssc"
         style="color:#000000;fill:#ffffff;fill-rule:evenodd;stroke:#000000;stroke-width:1px"
         d="m 329.19,481.11 c 0,0 2.46,-5.01 -1.05,-20.49 -3.32,-14.6 0.11,-15.69 1.79,-18.57 1.68,-2.88 -1.28,-13.24 -1.28,-13.24 l -9.27,-8.92 -3.18,17.75 c 0,0 2.52,0.85 3.32,8.85 0.81,8.08 -0.2,8.35 3.88,17.51 5.38,12.08 6.15,14.39 5.79,17.11 z"
         inkscape:connector-curvature="0" />
      <path
         id="path3422"
         sodipodi:nodetypes="csssscccscsc"
         style="color:#000000;fill:#000000;fill-rule:evenodd;stroke:#000000;stroke-width:1px"
         d="m 375.37,506.63 c 0,0 3.37,-0.49 -1.87,-11.49 -5.24,-11 -14.25,-13.14 -13.91,-25.36 0.35,-12.22 -1.52,-28.12 -2.49,-31.73 -0.97,-3.62 -8.3,-15.01 -9.79,-20.11 -1.49,-5.1 -2.59,-15.39 -2.59,-15.39 l -20.42,-15.36 7.21,21.85 c 0,0 10.93,23.37 17.92,37.98 5.48,11.47 4.36,16.04 4.36,16.04 0,0 -3.29,15.55 15.04,31.55 12.51,10.92 6.37,12.14 6.54,12.02 z"
         inkscape:connector-curvature="0" />
      <path
         id="path3424"
         sodipodi:nodetypes="csscssc"
         style="color:#000000;fill:#000000;fill-rule:evenodd;stroke:#000000;stroke-width:1px"
         d="m 377.01,445.43 c 0,0 -10.21,-4.15 -9.21,-16.67 1,-12.52 -1.47,-9.32 -2.97,-10.46 -1.5,-1.14 -19.67,-15.67 -19.67,-15.67 0,0 -0.11,1.93 4.95,8.44 3.53,4.54 11.27,8.15 13.9,16.42 2.63,8.26 2.04,17.91 13,17.94 z"
         inkscape:connector-curvature="0" />
      <path
         id="path3426"
         sodipodi:nodetypes="csscccssc"
         style="color:#000000;fill:#000000;fill-rule:evenodd;stroke:#000000;stroke-width:1px"
         d="m 329.19,481.11 c 0,0 2.46,-5.01 -1.05,-20.49 -3.32,-14.6 0.11,-15.69 1.79,-18.57 1.68,-2.88 -1.28,-13.24 -1.28,-13.24 l -9.27,-8.92 -0.74,8.25 c 0,0 5.63,6.64 4.81,16.39 -0.67,8.09 -1.98,9.4 2.1,18.56 5.38,12.08 4,15.3 3.64,18.02 z"
         inkscape:connector-curvature="0" />
      <path
         id="path3430"
         sodipodi:nodetypes="csssscccscsc"
         style="color:#000000;fill:#ffffff;fill-rule:evenodd;stroke:#000000;stroke-width:1px"
         d="m 471.19,275.22 c 0,0 2.03,2.74 -9.47,6.77 -11.5,4.02 -19.36,-0.86 -27.79,7.99 -8.44,8.86 -21.03,18.73 -24.28,20.59 -3.25,1.86 -16.5,4.68 -21.17,7.21 -4.67,2.54 -12.75,9.01 -12.75,9.01 l -25.28,-3.68 19.74,-26.87 c 0,0 24.9,2.73 40.2,-2.6 12,-4.19 13.62,-7.53 13.62,-7.53 0,0 8.56,-12.18 32.83,-10.44 16.56,1.18 14.32,-0.65 14.35,-0.45 z"
         inkscape:connector-curvature="0" />
      <path
         id="path3432"
         style="color:#000000;fill:#ffffff;fill-rule:evenodd;stroke:#000000;stroke-width:1px"
         d="m 428.92,319.49 c 0,0 -10.15,-4.31 -18.33,5.22 -8.18,9.52 -7.65,5.52 -9.51,5.25 -1.87,-0.26 -24.98,-2.92 -24.98,-2.92 0,0 4.82,-5.59 9.99,-8.11 5.16,-2.52 11.31,5.4 19.03,1.45 7.72,-3.96 16.06,-8.64 23.8,-0.89 z"
         inkscape:connector-curvature="0" />
      <path
         id="path3434"
         style="color:#000000;fill:none;stroke:#000000;stroke-width:1px"
         d="m 420.46,259.58 c -0.07,0 -0.07,0 0,0 z"
         inkscape:connector-curvature="0" />
      <path
         id="path3436"
         sodipodi:nodetypes="csscccssc"
         style="color:#000000;fill:#ffffff;fill-rule:evenodd;stroke:#000000;stroke-width:1px"
         d="m 420.55,260.42 c 0,0 -1.82,5.28 -15.29,13.69 -12.69,7.94 -11.05,11.13 -11.91,14.35 -0.86,3.22 -10.3,8.42 -10.3,8.42 l -12.86,-0.29 10.35,-14.76 c 0,0 2.38,1.19 8.63,-3.88 6.3,-5.12 5.78,-6.02 15.15,-9.58 12.37,-4.69 14.55,-5.78 16.23,-7.95 z"
         inkscape:connector-curvature="0" />
      <path
         id="path3438"
         sodipodi:nodetypes="csssscccscsc"
         style="color:#000000;fill:#000000;fill-rule:evenodd;stroke:#000000;stroke-width:1px"
         d="m 471.19,275.22 c 0,0 2.03,2.74 -9.47,6.77 -11.5,4.02 -19.36,-0.86 -27.79,7.99 -8.44,8.86 -21.03,18.73 -24.28,20.59 -3.25,1.86 -16.5,4.68 -21.17,7.21 -4.67,2.54 -12.75,9.01 -12.75,9.01 l -25.28,-3.68 20.59,-10.27 c 0,0 24.27,-8.71 39.58,-14.04 12,-4.19 14.44,-8.2 14.44,-8.2 0,0 8.72,-13.29 32.99,-11.56 16.57,1.19 13.11,-4.02 13.14,-3.82 z"
         inkscape:connector-curvature="0" />
      <path
         id="path3440"
         sodipodi:nodetypes="csscssc"
         style="color:#000000;fill:#000000;fill-rule:evenodd;stroke:#000000;stroke-width:1px"
         d="m 428.92,319.49 c 0,0 -10.15,-4.31 -18.33,5.22 -8.18,9.52 -7.65,5.52 -9.51,5.25 -1.87,-0.26 -24.98,-2.92 -24.98,-2.92 0,0 1.29,-1.43 9.48,-2.43 5.71,-0.7 13.72,2.25 21.44,-1.7 7.72,-3.96 14.16,-11.17 21.9,-3.42 z"
         inkscape:connector-curvature="0" />
      <path
         id="path3442"
         sodipodi:nodetypes="csscccssc"
         style="color:#000000;fill:#000000;fill-rule:evenodd;stroke:#000000;stroke-width:1px"
         d="m 420.55,260.42 c 0,0 -1.82,5.28 -15.29,13.69 -12.69,7.94 -11.05,11.13 -11.91,14.35 -0.86,3.22 -10.3,8.42 -10.3,8.42 l -12.86,-0.29 5.34,-6.34 c 0,0 8.67,-0.69 15.02,-8.13 5.26,-6.18 5.27,-8.03 14.64,-11.59 12.37,-4.7 13.68,-7.94 15.36,-10.11 z"
         inkscape:connector-curvature="0" />
      <path
         id="path3446"
         sodipodi:nodetypes="csssscccscsc"
         style="color:#000000;fill:#ffffff;fill-rule:evenodd;stroke:#000000;stroke-width:1px"
         d="m 470.13,411.86 c 0,0 -0.48,3.38 -11.48,-1.87 -11.01,-5.24 -13.14,-14.24 -25.36,-13.9 -12.23,0.34 -28.12,-1.52 -31.74,-2.49 -3.61,-0.97 -15,-8.3 -20.1,-9.8 -5.1,-1.49 -15.4,-2.58 -15.4,-2.58 l -15.35,-20.43 32.94,-5.16 c 0,0 15.75,19.48 30.37,26.47 11.46,5.49 14.97,4.26 14.97,4.26 0,0 14.65,-2.62 30.65,15.71 10.92,12.51 10.62,9.62 10.5,9.79 z"
         inkscape:connector-curvature="0" />
      <path
         id="path3448"
         style="color:#000000;fill:#ffffff;fill-rule:evenodd;stroke:#000000;stroke-width:1px"
         d="m 408.94,413.5 c 0,0 -4.16,-10.21 -16.68,-9.21 -12.52,1 -9.32,-1.47 -10.45,-2.97 -1.14,-1.5 -15.67,-19.66 -15.67,-19.66 0,0 7.36,-0.58 12.8,1.27 5.44,1.85 4.23,11.81 12.49,14.44 8.27,2.63 17.48,5.18 17.51,16.13 z"
         inkscape:connector-curvature="0" />
      <path
         id="path3450"
         style="color:#000000;fill:none;stroke:#000000;stroke-width:1px"
         d="m 445.15,365.02 c -0.05,-0.04 -0.05,-0.04 0,0 z"
         inkscape:connector-curvature="0" />
      <path
         id="path3452"
         sodipodi:nodetypes="csscccssc"
         style="color:#000000;fill:#ffffff;fill-rule:evenodd;stroke:#000000;stroke-width:1px"
         d="m 444.61,365.68 c 0,0 -5,2.46 -20.49,-1.05 -14.6,-3.31 -15.68,0.12 -18.56,1.8 -2.88,1.67 -13.25,-1.29 -13.25,-1.29 l -8.92,-9.26 17.75,-3.18 c 0,0 0.85,2.51 8.86,3.32 8.08,0.81 8.34,-0.2 17.5,3.88 12.09,5.37 14.4,6.14 17.11,5.78 z"
         inkscape:connector-curvature="0" />
      <path
         id="path3454"
         sodipodi:nodetypes="csssscccscsc"
         style="color:#000000;fill:#000000;fill-rule:evenodd;stroke:#000000;stroke-width:1px"
         d="m 470.13,411.86 c 0,0 -0.48,3.38 -11.48,-1.87 -11.01,-5.24 -13.14,-14.24 -25.36,-13.9 -12.23,0.34 -28.12,-1.52 -31.74,-2.49 -3.61,-0.97 -15,-8.3 -20.1,-9.8 -5.1,-1.49 -15.4,-2.58 -15.4,-2.58 l -15.35,-20.43 21.85,7.22 c 0,0 23.36,10.92 37.98,17.91 11.47,5.49 16.03,4.36 16.03,4.36 0,0 15.55,-3.29 31.56,15.04 10.92,12.51 12.13,6.37 12.01,6.54 z"
         inkscape:connector-curvature="0" />
      <path
         id="path3456"
         sodipodi:nodetypes="csscssc"
         style="color:#000000;fill:#000000;fill-rule:evenodd;stroke:#000000;stroke-width:1px"
         d="m 408.94,413.5 c 0,0 -4.16,-10.21 -16.68,-9.21 -12.52,1 -9.32,-1.47 -10.45,-2.97 -1.14,-1.5 -15.67,-19.66 -15.67,-19.66 0,0 1.92,-0.11 8.44,4.95 4.54,3.52 8.15,11.26 16.41,13.89 8.27,2.63 17.92,2.05 17.95,13 z"
         inkscape:connector-curvature="0" />
      <path
         id="path3458"
         sodipodi:nodetypes="csscccssc"
         style="color:#000000;fill:#000000;fill-rule:evenodd;stroke:#000000;stroke-width:1px"
         d="m 444.61,365.68 c 0,0 -5,2.46 -20.49,-1.05 -14.6,-3.31 -15.68,0.12 -18.56,1.8 -2.88,1.67 -13.25,-1.29 -13.25,-1.29 l -8.92,-9.26 8.26,-0.74 c 0,0 6.64,5.62 16.39,4.81 8.09,-0.68 9.4,-1.99 18.56,2.09 12.08,5.38 15.3,4 18.01,3.64 z"
         inkscape:connector-curvature="0" />
      <path
         id="path3462"
         sodipodi:nodetypes="csssscccscsc"
         style="color:#000000;fill:#ffffff;fill-rule:evenodd;stroke:#000000;stroke-width:1px"
         d="m 140.91,277.22 c 0,0 -2.04,2.74 9.46,6.77 11.51,4.02 19.37,-0.86 27.8,7.99 8.43,8.86 21.03,18.73 24.27,20.59 3.25,1.86 16.5,4.68 21.17,7.21 4.67,2.54 12.75,9.01 12.75,9.01 l 25.29,-3.68 -19.75,-26.87 c 0,0 -24.89,2.73 -40.2,-2.6 -12,-4.19 -13.62,-7.53 -13.62,-7.53 0,0 -8.55,-12.18 -32.82,-10.44 -16.57,1.18 -14.32,-0.65 -14.35,-0.45 z"
         inkscape:connector-curvature="0" />
      <path
         id="path3464"
         style="color:#000000;fill:#ffffff;fill-rule:evenodd;stroke:#000000;stroke-width:1px"
         d="m 183.18,321.49 c 0,0 10.14,-4.31 18.32,5.22 8.19,9.52 7.65,5.52 9.52,5.25 1.86,-0.26 24.97,-2.92 24.97,-2.92 0,0 -4.82,-5.59 -9.98,-8.11 -5.17,-2.52 -11.32,5.4 -19.04,1.45 -7.72,-3.96 -16.05,-8.64 -23.79,-0.89 z"
         inkscape:connector-curvature="0" />
      <path
         id="path3466"
         style="color:#000000;fill:none;stroke:#000000;stroke-width:1px"
         d="m 191.63,261.58 c 0.07,0 0.07,0 0,0 z"
         inkscape:connector-curvature="0" />
      <path
         id="path3474"
         sodipodi:nodetypes="csscccssc"
         style="color:#000000;fill:#000000;fill-rule:evenodd;stroke:#000000;stroke-width:1px"
         d="m 191.55,262.42 c 0,0 1.82,5.28 15.28,13.69 12.7,7.94 11.05,11.13 11.91,14.35 0.87,3.22 10.31,8.42 10.31,8.42 l 12.86,-0.29 -5.34,-6.34 c 0,0 -8.68,-0.69 -15.02,-8.13 -5.27,-6.18 -5.28,-8.03 -14.65,-11.59 -12.36,-4.7 -13.68,-7.94 -15.35,-10.11 z"
         inkscape:connector-curvature="0" />
      <path
         id="path3470"
         sodipodi:nodetypes="csssscccscsc"
         style="color:#000000;fill:#000000;fill-rule:evenodd;stroke:#000000;stroke-width:1px"
         d="m 140.91,277.22 c 0,0 -2.04,2.74 9.46,6.77 11.51,4.02 19.37,-0.86 27.8,7.99 8.43,8.86 21.03,18.73 24.27,20.59 3.25,1.86 16.5,4.68 21.17,7.21 4.67,2.54 12.75,9.01 12.75,9.01 l 25.29,-3.68 -20.59,-10.27 c 0,0 -24.28,-8.71 -39.58,-14.04 -12,-4.19 -14.45,-8.2 -14.45,-8.2 0,0 -8.72,-13.29 -32.99,-11.56 -16.56,1.19 -13.1,-4.02 -13.13,-3.82 z"
         inkscape:connector-curvature="0" />
      <path
         id="path3472"
         sodipodi:nodetypes="csscssc"
         style="color:#000000;fill:#000000;fill-rule:evenodd;stroke:#000000;stroke-width:1px"
         d="m 183.18,321.49 c 0,0 10.14,-4.31 18.32,5.22 8.19,9.52 7.65,5.52 9.52,5.25 1.86,-0.26 24.97,-2.92 24.97,-2.92 0,0 -1.29,-1.43 -9.48,-2.43 -5.7,-0.7 -13.72,2.25 -21.44,-1.7 -7.71,-3.96 -14.15,-11.17 -21.89,-3.42 z"
         inkscape:connector-curvature="0" />
      <path
         id="path3478"
         sodipodi:nodetypes="csssscccscsc"
         style="color:#000000;fill:#ffffff;fill-rule:evenodd;stroke:#000000;stroke-width:1px"
         d="m 141.96,411.86 c 0,0 0.49,3.38 11.49,-1.87 11,-5.24 13.14,-14.24 25.36,-13.9 12.22,0.34 28.12,-1.52 31.73,-2.49 3.61,-0.97 15.01,-8.3 20.11,-9.8 5.09,-1.49 15.39,-2.58 15.39,-2.58 l 15.36,-20.43 -32.95,-5.16 c 0,0 -15.74,19.48 -30.36,26.47 -11.47,5.49 -14.97,4.26 -14.97,4.26 0,0 -14.66,-2.62 -30.66,15.71 -10.92,12.51 -10.62,9.62 -10.5,9.79 z"
         inkscape:connector-curvature="0" />
      <path
         id="path3480"
         style="color:#000000;fill:#ffffff;fill-rule:evenodd;stroke:#000000;stroke-width:1px"
         d="m 203.16,413.5 c 0,0 4.15,-10.21 16.67,-9.21 12.52,1 9.32,-1.47 10.46,-2.97 1.14,-1.5 15.67,-19.66 15.67,-19.66 0,0 -7.37,-0.58 -12.81,1.27 -5.44,1.85 -4.22,11.81 -12.49,14.44 -8.26,2.63 -17.48,5.18 -17.5,16.13 z"
         inkscape:connector-curvature="0" />
      <path
         id="path3482"
         style="color:#000000;fill:none;stroke:#000000;stroke-width:1px"
         d="m 166.94,365.02 c 0.05,-0.04 0.05,-0.04 0,0 z"
         inkscape:connector-curvature="0" />
      <path
         id="path3484"
         sodipodi:nodetypes="csscccssc"
         style="color:#000000;fill:#ffffff;fill-rule:evenodd;stroke:#000000;stroke-width:1px"
         d="m 167.48,365.68 c 0,0 5.01,2.46 20.49,-1.05 14.6,-3.31 15.69,0.12 18.57,1.8 2.88,1.67 13.24,-1.29 13.24,-1.29 l 8.92,-9.26 -17.75,-3.18 c 0,0 -0.85,2.51 -8.86,3.32 -8.07,0.81 -8.34,-0.2 -17.5,3.88 -12.08,5.37 -14.39,6.14 -17.11,5.78 z"
         inkscape:connector-curvature="0" />
      <path
         id="path3486"
         sodipodi:nodetypes="csssscccscsc"
         style="color:#000000;fill:#000000;fill-rule:evenodd;stroke:#000000;stroke-width:1px"
         d="m 141.96,411.86 c 0,0 0.49,3.38 11.49,-1.87 11,-5.24 13.14,-14.24 25.36,-13.9 12.22,0.34 28.12,-1.52 31.73,-2.49 3.61,-0.97 15.01,-8.3 20.11,-9.8 5.09,-1.49 15.39,-2.58 15.39,-2.58 l 15.36,-20.43 -21.86,7.22 c 0,0 -23.36,10.92 -37.98,17.91 -11.46,5.49 -16.03,4.36 -16.03,4.36 0,0 -15.55,-3.29 -31.55,15.04 -10.92,12.51 -12.14,6.37 -12.02,6.54 z"
         inkscape:connector-curvature="0" />
      <path
         id="path3488"
         sodipodi:nodetypes="csscssc"
         style="color:#000000;fill:#000000;fill-rule:evenodd;stroke:#000000;stroke-width:1px"
         d="m 203.16,413.5 c 0,0 4.15,-10.21 16.67,-9.21 12.52,1 9.32,-1.47 10.46,-2.97 1.14,-1.5 15.67,-19.66 15.67,-19.66 0,0 -1.93,-0.11 -8.45,4.95 -4.54,3.52 -8.14,11.26 -16.41,13.89 -8.27,2.63 -17.92,2.05 -17.94,13 z"
         inkscape:connector-curvature="0" />
      <path
         id="path3490"
         sodipodi:nodetypes="csscccssc"
         style="color:#000000;fill:#000000;fill-rule:evenodd;stroke:#000000;stroke-width:1px"
         d="m 167.48,365.68 c 0,0 5.01,2.46 20.49,-1.05 14.6,-3.31 15.69,0.12 18.57,1.8 2.88,1.67 13.24,-1.29 13.24,-1.29 l 8.92,-9.26 -8.26,-0.74 c 0,0 -6.63,5.62 -16.38,4.81 -8.09,-0.68 -9.4,-1.99 -18.56,2.09 -12.09,5.38 -15.3,4 -18.02,3.64 z"
         inkscape:connector-curvature="0" />
      <g
         id="g3288">
        <circle
           id="path3218"
           style="fill:none;stroke:#ffffff;stroke-width:24.94799995"
           transform="matrix(0.25052,0,0,0.25052,183.59,210.88)"
           cx="486.07144"
           cy="520.57648"
           r="179.64285" />
        <circle
           id="path3203"
           style="fill:none;stroke:#000000;stroke-width:9.11130047"
           transform="matrix(0.27439,0,0,0.27439,171.99,198.45)"
           cx="486.07144"
           cy="520.57648"
           r="179.64285" />
        <circle
           id="path3205"
           style="fill:none;stroke:#000000;stroke-width:11.02299976"
           transform="matrix(0.2268,0,0,0.2268,195.11,223.22)"
           cx="486.07144"
           cy="520.57648"
           r="179.64285" />
      </g>
    </g>
  </g>
  <metadata
     id="metadata98">
    <rdf:RDF>
      <cc:Work>
        <dc:format>image/svg+xml</dc:format>
        <dc:type
           rdf:resource="http://purl.org/dc/dcmitype/StillImage" />
        <cc:license
           rdf:resource="http://creativecommons.org/publicdomain/zero/1.0/" />
        <dc:publisher>
          <cc:Agent
             rdf:about="http://openclipart.org/">
            <dc:title>Openclipart</dc:title>
          </cc:Agent>
        </dc:publisher>
        <dc:title>Compass Rose 1595</dc:title>
        <dc:date>2010-12-04T20:06:56</dc:date>
        <dc:description>My own work. A compass rose in the style of a 1595 map of Hampshire by John Norden. The typeface would normally be a chancery font.  This object has one pattern. </dc:description>
        <dc:source>https://openclipart.org/detail/99289/compass-rose-1595-by-lordoftheloch</dc:source>
        <dc:creator>
          <cc:Agent>
            <dc:title>lordoftheloch</dc:title>
          </cc:Agent>
        </dc:creator>
        <dc:subject>
          <rdf:Bag>
            <rdf:li>Compass Rose</rdf:li>
            <rdf:li>cartography</rdf:li>
            <rdf:li>mapping</rdf:li>
            <rdf:li>rpg</rdf:li>
          </rdf:Bag>
        </dc:subject>
      </cc:Work>
      <cc:License
         rdf:about="http://creativecommons.org/publicdomain/zero/1.0/">
        <cc:permits
           rdf:resource="http://creativecommons.org/ns#Reproduction" />
        <cc:permits
           rdf:resource="http://creativecommons.org/ns#Distribution" />
        <cc:permits
           rdf:resource="http://creativecommons.org/ns#DerivativeWorks" />
      </cc:License>
    </rdf:RDF>
  </metadata>
</svg>
