<?xml version="1.0" encoding="iso-8859-1"?>
<!-- Generator: Adobe Illustrator 19.0.0, SVG Export Plug-In . SVG Version: 6.00 Build 0)  -->
<svg version="1.1" id="Layer_1" xmlns="http://www.w3.org/2000/svg" xmlns:xlink="http://www.w3.org/1999/xlink" x="0px" y="0px"
	 viewBox="0 0 512 512" style="enable-background:new 0 0 512 512;" xml:space="preserve">
<g>
	<g>
		<path d="M256,0C114.842,0,0,114.842,0,256s114.842,256,256,256s256-114.842,256-256S397.158,0,256,0z M247.467,281.711
			c-23.561,0.759-66.901,7.1-135.347,60.228L247.467,78.003V281.711z M264.533,494.72V298.795
			c25.097,0.956,74.086,9.344,156.442,83.029c1.613,1.451,3.652,2.176,5.692,2.176c1.835,0,3.678-0.589,5.214-1.775
			c3.251-2.509,4.25-6.989,2.372-10.65l-170.667-332.8c-2.918-5.692-12.271-5.692-15.181,0l-170.667,332.8
			c-1.877,3.661-0.879,8.141,2.372,10.65c3.26,2.526,7.851,2.347,10.906-0.393c82.355-73.685,131.345-82.074,156.442-83.029V494.72
			C119.663,490.197,17.067,384.888,17.067,256C17.067,124.254,124.254,17.067,256,17.067S494.933,124.254,494.933,256
			C494.933,384.888,392.337,490.197,264.533,494.72z M264.533,281.702V78.003l135.347,263.927
			C331.435,288.811,288.094,282.462,264.533,281.702z"/>
	</g>
</g>
<g>
</g>
<g>
</g>
<g>
</g>
<g>
</g>
<g>
</g>
<g>
</g>
<g>
</g>
<g>
</g>
<g>
</g>
<g>
</g>
<g>
</g>
<g>
</g>
<g>
</g>
<g>
</g>
<g>
</g>
</svg>
