<?xml version="1.0" encoding="UTF-8" standalone="no"?>
<!-- Created with Inkscape (http://www.inkscape.org/) -->

<svg
   xmlns:dc="http://purl.org/dc/elements/1.1/"
   xmlns:cc="http://creativecommons.org/ns#"
   xmlns:rdf="http://www.w3.org/1999/02/22-rdf-syntax-ns#"
   xmlns:svg="http://www.w3.org/2000/svg"
   xmlns="http://www.w3.org/2000/svg"
   xmlns:sodipodi="http://sodipodi.sourceforge.net/DTD/sodipodi-0.dtd"
   xmlns:inkscape="http://www.inkscape.org/namespaces/inkscape"
   width="99.246223mm"
   height="99.371223mm"
   viewBox="0 0 99.246223 99.371223"
   version="1.1"
   id="svg845"
   inkscape:version="0.92.3 (2405546, 2018-03-11)"
   sodipodi:docname="esri_north_03_b.svg">
  <defs
     id="defs839" />
  <sodipodi:namedview
     id="base"
     pagecolor="#ffffff"
     bordercolor="#666666"
     borderopacity="1.0"
     inkscape:pageopacity="0.0"
     inkscape:pageshadow="2"
     inkscape:zoom="0.97458821"
     inkscape:cx="181.85869"
     inkscape:cy="153.89937"
     inkscape:document-units="mm"
     inkscape:current-layer="text1587"
     showgrid="false"
     inkscape:window-width="1366"
     inkscape:window-height="745"
     inkscape:window-x="0"
     inkscape:window-y="23"
     inkscape:window-maximized="1"
     fit-margin-top="0"
     fit-margin-left="0"
     fit-margin-right="0"
     fit-margin-bottom="0"
     showguides="true"
     inkscape:guide-bbox="true" />
  <metadata
     id="metadata842">
    <rdf:RDF>
      <cc:Work
         rdf:about="">
        <dc:format>image/svg+xml</dc:format>
        <dc:type
           rdf:resource="http://purl.org/dc/dcmitype/StillImage" />
        <dc:title></dc:title>
      </cc:Work>
    </rdf:RDF>
  </metadata>
  <g
     inkscape:label="Camada 1"
     inkscape:groupmode="layer"
     id="layer1"
     transform="translate(-5.6133291e-7,-197.03265)">
    <g
       aria-label="2"
       style="font-style:normal;font-weight:normal;font-size:124.42774963px;line-height:1.25;font-family:sans-serif;letter-spacing:0px;word-spacing:0px;fill:#000000;fill-opacity:1;stroke:none;stroke-width:5.18448925"
       id="text1587">
      <g
         aria-label="3"
         style="font-style:normal;font-weight:normal;font-size:124.99523926px;line-height:1.25;font-family:sans-serif;letter-spacing:0px;word-spacing:0px;fill:#000000;fill-opacity:1;stroke:none;stroke-width:27.00151825"
         id="text1792">
        <path
           d="M 78.372016,246.65576 H 52.248011 l 12.249533,-7.24972 13.624481,3.24988 q 0.124995,0.87496 0.124995,1.62493 0.124996,0.74998 0.124996,1.49995 z m -31.498801,0 -12.249533,7.24973 -13.1245,-3.12488 q -0.374986,-1.87493 -0.374986,-4.12485 z m 2.749896,-2.99988 -6.999734,-12.37453 3.374872,-14.24946 q 0.874966,-0.12499 1.749933,-0.12499 0.874967,-0.125 1.874929,-0.125 z m 6.874738,18.49929 -2.999886,12.74952 q -1.249952,0.24999 -1.999924,0.24999 h -1.874928 v -25.24904 z m 21.499181,-20.74921 -7.749705,-1.99992 q -0.874967,-3.24988 -2.999886,-6.12477 l 3.999848,-6.49975 q 5.374795,6.37476 6.749743,14.62444 z m -33.373729,-24.12408 -1.999924,7.9997 q -1.374947,0.49998 -2.999886,1.24995 -1.499942,0.62498 -3.124881,1.87493 l -6.124766,-4.12484 q 2.87489,-2.6249 6.499752,-4.37484 3.624862,-1.87493 7.749705,-2.6249 z M 54.997906,274.6547 49.623111,296.40387 44.12332,274.6547 q 2.124919,0.49998 5.499791,0.49998 v 16.87436 l 3.874852,-17.12435 q 0.24999,0 1.499943,-0.24999 z m 13.749476,-50.49808 -6.249762,4.24984 q -1.499943,-0.99996 -2.87489,-1.74993 -1.374948,-0.87497 -2.749896,-1.37495 l -2.124919,-7.9997 q 8.124691,1.49995 13.999467,6.87474 z m -47.2482,17.12435 -0.374986,5.37479 H 4.1248435 l 17.3743385,4.12485 q 0.124995,0.24999 0.124995,0.74997 0,0.49998 0.124995,0.74997 L 5.6133291e-7,246.65576 Z m 77.747039,5.37479 -21.499182,5.49979 q 0.249991,-1.37494 0.374986,-2.74989 0.124995,-1.37495 0.249991,-2.7499 h 16.749362 l -16.999353,-3.99984 q 0,-0.99997 -0.124995,-1.24996 z M 31.873787,233.28127 q -1.124958,1.49995 -1.874929,3.12488 -0.624976,1.49995 -1.249952,2.99989 l -7.249724,1.87493 q 1.374947,-8.24969 6.374757,-14.24946 z m 38.748524,32.49877 -3.499867,-5.74978 q 1.124957,-1.74994 1.874929,-3.24988 0.874966,-1.49994 1.249952,-2.7499 l 7.499714,-1.87493 q -0.874966,3.99985 -2.749895,7.37472 -1.874928,3.37488 -4.374833,6.24977 z m -25.99901,-48.49816 4.99981,-20.24923 5.124804,20.24923 q -2.124919,-0.49998 -5.124804,-0.49998 v -15.24942 l -3.624862,15.49941 q -0.374986,0 -1.374948,0.24999 z m -16.124386,48.24817 q -5.124805,-5.62479 -6.749743,-13.2495 l 7.124729,1.74993 q 1.124957,3.74986 2.999886,5.99978 z m 39.248505,2.99988 q -5.49979,4.62483 -12.749514,6.12477 l 1.624938,-6.37476 q 3.874852,-1.37495 5.874776,-3.37487 z m -25.249038,-0.37498 1.624938,6.49975 q -7.249724,-1.49994 -12.749514,-6.12477 l 5.2498,-3.62486 q 2.749895,2.37491 5.874776,3.24988 z m 6.999733,-21.62418 -13.999466,-9.99962 -6.874739,-10.24961 q 0.124996,-0.24999 0.249991,-0.24999 0.124995,-0.125 0.24999,-0.37499 z m 0.124996,0.24999 19.624252,20.49922 q -0.24999,0.24999 -0.499981,0.37498 -0.124995,0.125 -0.24999,0.25 l -9.124653,-6.62475 z m 20.249228,-21.37419 -20.249228,21.1242 9.749628,-14.37445 9.999619,-7.24973 q 0.374986,0.125 0.499981,0.49998 z m -20.374224,21.37419 -9.874624,14.49945 -8.999657,6.49975 q -0.24999,-0.125 -0.374986,-0.24999 0,-0.125 -0.24999,-0.37499 z m -18.874281,20.9992 0.749972,0.74997 -8.249686,5.62479 5.374795,-8.62467 q 0.374986,0.49998 0.624976,0.87496 0.374986,0.37499 0.874967,0.74997 l -3.624862,3.74986 z m 45.248277,6.37476 -8.124691,-5.62479 q 0.249991,-0.24999 0.374986,-0.24999 0.124995,-0.12499 0.374986,-0.37498 l 4.249838,2.99988 -3.499867,-3.62486 q 0.374986,-0.37499 0.624976,-0.74997 0.374986,-0.37499 0.749972,-0.74997 z m -45.498267,-49.8731 q -0.874967,1.12495 -1.249953,1.37494 l -2.87489,-2.99988 2.374909,3.62486 -0.749971,0.74997 -4.749819,-7.7497 z m 45.498267,-4.99981 -4.624824,7.49971 q -0.374986,-0.37498 -0.749971,-0.74997 -0.249991,-0.37499 -0.624977,-0.62498 l 2.874891,-2.99988 -3.374872,2.4999 q -0.24999,-0.24999 -0.374985,-0.37498 0,-0.125 -0.249991,-0.37499 z"
           style="font-style:normal;font-variant:normal;font-weight:normal;font-stretch:normal;font-family:'ESRI North';-inkscape-font-specification:'ESRI North, ';stroke-width:27.00151825"
           id="path1798"
           inkscape:connector-curvature="0" />
      </g>
    </g>
  </g>
</svg>
