<?xml version="1.0" encoding="iso-8859-1"?>
<!-- Generator: Adobe Illustrator 19.0.0, SVG Export Plug-In . SVG Version: 6.00 Build 0)  -->
<svg version="1.1" id="Layer_1" xmlns="http://www.w3.org/2000/svg" xmlns:xlink="http://www.w3.org/1999/xlink" x="0px" y="0px"
	 viewBox="0 0 512 512" style="enable-background:new 0 0 512 512;" xml:space="preserve">
<g>
	<g>
		<path d="M277.333,86.443L264.431,7.159C263.748,3.029,260.181,0,256,0s-7.748,3.029-8.422,7.159l-12.911,79.283
			c-107.947,10.76-192,103.262-192,212.224C42.667,416.299,138.368,512,256,512s213.333-95.701,213.333-213.333
			C469.333,189.705,385.28,97.203,277.333,86.443z M315.733,384c2.5,0,4.881-1.101,6.502-3.004c1.621-1.911,2.321-4.429,1.929-6.904
			L285.969,139.46c75.708,14.208,132.164,81.553,132.164,159.206c0,89.404-72.73,162.133-162.133,162.133
			S93.867,388.07,93.867,298.667c0-77.653,56.457-144.998,132.173-159.206l-38.195,234.633c-0.401,2.475,0.299,4.992,1.92,6.903
			c1.621,1.903,4.002,3.004,6.502,3.004H315.733z M256,494.933c-108.228,0-196.267-88.047-196.267-196.267
			c0-98.688,74.991-182.528,172.058-194.56l-2.833,17.399C142.208,134.639,76.8,210.765,76.8,298.667
			c0,98.816,80.393,179.2,179.2,179.2s179.2-80.384,179.2-179.2c0-87.902-65.408-164.028-152.158-177.161l-2.833-17.399
			c97.067,12.032,172.058,95.872,172.058,194.56C452.267,406.886,364.228,494.933,256,494.933z"/>
	</g>
</g>
<g>
</g>
<g>
</g>
<g>
</g>
<g>
</g>
<g>
</g>
<g>
</g>
<g>
</g>
<g>
</g>
<g>
</g>
<g>
</g>
<g>
</g>
<g>
</g>
<g>
</g>
<g>
</g>
<g>
</g>
</svg>
