<?xml version="1.0" encoding="iso-8859-1"?>
<!-- Generator: Adobe Illustrator 19.0.0, SVG Export Plug-In . SVG Version: 6.00 Build 0)  -->
<svg version="1.1" id="Layer_1" xmlns="http://www.w3.org/2000/svg" xmlns:xlink="http://www.w3.org/1999/xlink" x="0px" y="0px"
	 viewBox="0 0 512 512" style="enable-background:new 0 0 512 512;" xml:space="preserve">
<g>
	<g>
		<path d="M256,0C114.842,0,0,114.842,0,256s114.842,256,256,256s256-114.842,256-256S397.158,0,256,0z M179.2,482.202
			c-69.538-23.68-124.732-78.524-148.873-147.849L179.2,237.594V482.202z M42.325,149.257
			C79.292,75.563,153.242,23.552,239.684,17.69L42.325,149.257z M469.675,149.257L272.316,17.69
			C358.758,23.552,432.708,75.563,469.675,149.257z M332.8,482.202V237.594l148.873,96.768
			C457.532,403.678,402.338,458.522,332.8,482.202z"/>
	</g>
</g>
<g>
</g>
<g>
</g>
<g>
</g>
<g>
</g>
<g>
</g>
<g>
</g>
<g>
</g>
<g>
</g>
<g>
</g>
<g>
</g>
<g>
</g>
<g>
</g>
<g>
</g>
<g>
</g>
<g>
</g>
</svg>
