<?xml version="1.0" standalone="no"?>
<!DOCTYPE svg PUBLIC "-//W3C//DTD SVG 20010904//EN"
 "http://www.w3.org/TR/2001/REC-SVG-20010904/DTD/svg10.dtd">
<svg version="1.0" xmlns="http://www.w3.org/2000/svg"
 width="1280.000000pt" height="1280.000000pt" viewBox="0 0 1280.000000 1280.000000"
 preserveAspectRatio="xMidYMid meet">
<g transform="translate(0.000000,1280.000000) scale(0.100000,-0.100000)"
fill="#000000" stroke="none">
<path d="M6397 12770 c-3 -8 -47 -258 -98 -555 -51 -297 -95 -549 -100 -561
-6 -18 -20 -21 -161 -33 -453 -36 -757 -92 -1173 -216 -325 -96 -493 -160
-750 -285 -363 -177 -713 -406 -1055 -690 -240 -200 -608 -581 -816 -845 -627
-794 -970 -1692 -1060 -2778 -9 -111 -21 -205 -25 -208 -7 -4 -323 -60 -1082
-191 -32 -6 -57 -12 -55 -13 2 -2 178 -33 393 -69 635 -107 734 -124 745 -131
5 -3 10 -28 10 -54 0 -27 7 -115 15 -197 125 -1208 505 -2106 1255 -2964 150
-172 448 -464 615 -604 521 -434 1068 -748 1635 -936 252 -83 653 -176 950
-220 183 -27 408 -50 485 -50 35 0 67 -5 71 -11 3 -6 51 -261 105 -566 54
-306 100 -561 102 -567 2 -6 7 7 10 29 65 395 187 1097 192 1105 3 5 28 10 54
10 69 0 317 27 520 56 560 80 1114 250 1566 479 709 361 1376 930 1886 1611
392 524 662 1077 813 1668 106 413 153 691 178 1040 10 143 15 177 27 180 9 3
261 46 561 96 632 105 580 95 560 102 -8 4 -258 48 -555 99 -297 51 -549 95
-560 100 -19 6 -22 21 -33 175 -34 456 -121 893 -263 1316 -168 506 -428 1003
-737 1413 -534 707 -1243 1287 -2032 1659 -528 250 -1150 405 -1830 456 -85 7
-158 15 -161 19 -4 3 -12 42 -18 86 -7 44 -39 235 -73 425 -33 190 -70 410
-83 490 -12 80 -25 138 -28 130z"/>
</g>
</svg>
