<?xml version="1.0" encoding="UTF-8"?>
<!DOCTYPE svg PUBLIC "-//W3C//DTD SVG 1.1//EN" "http://www.w3.org/Graphics/SVG/1.1/DTD/svg11.dtd">
<svg xmlns="http://www.w3.org/2000/svg" width="900" height="900" viewBox="-150 -150 300 300" xmlns:xlink="http://www.w3.org/1999/xlink">
<defs>
<g id="r5"><g id="r4"><g id="r3">
<line stroke-width=".2" x1="-146" x2="146" id="r2"/>
<use xlink:href="#r2" transform="rotate(90)"/>
</g>
<use xlink:href="#r3" transform="rotate(45)"/>
</g>
<use xlink:href="#r4" transform="rotate(22.5)"/>
</g>
<path stroke-width=".4" stroke="#1A1A1A" d="M 0,135 C 2.6,125.7 7.7,116.3 11.6,110.9 C 11.2,108.8 11.6,107.7 14,107.2 C 20.4,97.3 26.3,94.7 34.093,89.742 A 96,96 0 0,1 0,96 L 0,135 C -1.7,129.1 -4.3,123.2 -7,118.2 L -8.513,95.622 A 96,96 0 0,1 -34.093,89.742 C -26.3,94.7 -20.4,97.3 -14,107.2 C -11.6,107.7 -11.2,108.8 -11.6,110.9 C -7.7,116.3 -2.6,125.7 0,135" id="trng"/>
<path d="M 0,80 C 2.1,64.2 2.2,60.5 4.146,52.838 A 53,53 0 0,1 -4.146,52.838 C -2.2,60.5 -2.1,64.2 0,80" transform="rotate(22.5)" stroke="#1A1A1A" stroke-width=".4" id="u0"/>
<clipPath id="cp">
<path d="M 0,131 L -27.48,106.06 C -14.73,97.48 -7.85,98.39 0,96 C 7.85,98.39 14.73,97.48 27.48,106.06 z"/>
</clipPath>
<clipPath id="cq">
<polygon points="16.192,81.405 0,53 -16.192,81.405"/>
</clipPath>
</defs>
<g fill="none">
<circle stroke="#0B0B0B" stroke-width="1.5" r="146"/>
<g stroke="#E4C795" stroke-width="4">
<circle r="127"/>
<circle r="94"/>
<circle r="85"/>
<circle r="11" stroke-width="6" stroke="#D7BA8C"/>
<g stroke-width="3">
<circle r="51.5"/>
<circle r="44.5"/>
<circle r="20"/>
</g>
</g>
<g id="s4"><g id="s3"><g id="s2"><g id="s1">
<path d="M 0,128 C 4.6,137.8 17.4,139.9 27.50774,138.29072 A 141,141 0 0,1 -27.50774,138.29072 C -17.4,139.9 -4.6,137.8 0,128" fill="#E4C795" stroke="#1A1A1A" stroke-width=".2" transform="rotate(11.25)"/>
<path d="M 0,67.5 C 1.9,59.8 5.8,58.9 10.3,52 L -10.3,52 C -5.8,58.9 -1.9 59.8 0,67.5" fill="#E4C795" stroke="#1A1A1A" stroke-width=".2" transform="rotate(11.25)" clip-path="url(#cq)"/>
<polyline points="10.34,51.982 0,83 -10.34 51.982" stroke="#1A1A1A" stroke-width=".4"/>
</g>
<use xlink:href="#s1" transform="rotate(22.5)"/>
<g transform="rotate(22.5)" clip-path="url(#cp)">
<path d="M 0,125 C 11,108.3 16.9,104.5 24.1,92.8 L -24.1,92.8 C -16.9,104.5 -11,108.3 0,125" fill="#DA251D"/>
<path d="M 27.1,91.9 C 21.7,101.5 2.5,121.3 0,130.6 C -2.5,121.3 -21.7,101.5 -27.1,91.9" stroke="#1A1A1A" stroke-width=".2"/>
</g>
<path d="M -36.738,88.692 C -30.4,93.9 -23.7,95.7 -15.2,108.5 C -13.4,108.6 -12.2,110.1 -12.7,112.1 C -4.4,125 -2.8,130.9 0,140.5 C 2.8,130.9 4.4,125 12.7,112.1 C 12.2,110.1 13.4,108.6 15.2,108.5 C 23.7,95.7 30.4,93.9 36.738,88.692" stroke="#1A1A1A" stroke-width=".4"/>
</g>
<use xlink:href="#s2" transform="rotate(45)"/>
</g>
<use xlink:href="#s3" transform="rotate(90)"/>
</g>
<use xlink:href="#s4" transform="scale(-1)"/>
<g fill="#28166F"><g id="s0">
<use xlink:href="#trng"/>
<use xlink:href="#trng" transform="rotate(90)"/>
</g>
<use xlink:href="#s0" transform="scale(-1)"/>
</g>
<g fill="#B32B2B">
<use xlink:href="#trng" transform="rotate(45)"/>
<use xlink:href="#trng" transform="rotate(135)"/>
<use xlink:href="#trng" transform="rotate(-45)scale(-1,1)"/>
<use xlink:href="#trng" transform="rotate(-135)"/>
</g>
<g id="t2" fill="#2B8451"><g id="t1">
<path d="M 0,36.5 C 1.8,28.8 4.1,24.1 8.228,19.863 A 21.5 21.5 0 0,1 -8.228,19.863 C -4.1,24.1 -1.8,28.8 0,36.5" id="t0" stroke="#0B0B0B" stroke-width=".4"/>
<use xlink:href="#t0" transform="rotate(90)"/>
</g>
<use xlink:href="#t1" transform="scale(-1)"/>
</g>
<use xlink:href="#t2" fill="#28166F" transform="rotate(45)"/>
<g fill="#DA251D">
<use xlink:href="#u0"/>
<use xlink:href="#u0" transform="rotate(45)"/>
<use xlink:href="#u0" transform="rotate(90)"/>
<use xlink:href="#u0" transform="rotate(135)"/>
<use xlink:href="#u0" transform="rotate(-45)"/>
<use xlink:href="#u0" transform="rotate(-90)"/>
<use xlink:href="#u0" transform="scale(-1)"/>
</g>
<use xlink:href="#u0" transform="rotate(-135)" fill="#2B8451"/>
<g stroke="#1A1A1A" stroke-width=".4">
<circle r="129"/>
<circle r="125"/>
<circle r="92"/>
<circle r="96"/>
<circle r="83"/>
<circle r="87"/>
<circle r="50"/>
<circle r="53"/>
<circle r="43"/>
<circle r="46"/>
<circle r="18.5"/>
<circle r="21.5"/>
<circle r="14"/>
<circle r="8"/>
</g>
<use xlink:href="#r5" stroke="#DA251D" transform="rotate(11.25)"/>
<use xlink:href="#r5" stroke="#00923F"/>
<use xlink:href="#r3" stroke="#1A1A1A"/>
</g>
<polygon points="0,-34.7 -7,-34.5 -3,-53 0,-81 3,-53 7,-34.5" fill="#28166F" stroke="#1A1A1A" stroke-width=".4"/>
<g stroke-width=".2">
<g fill="#B32B2B" stroke="#B32B2B" fill-rule="evenodd">
<path d="M5.104,-119.7513l0.2767 1.2641 -0.438 0.7585 -2.6513 -0.1806 -0.5073 -1.1557c0.8825,0.0555 1.7657,0.2474 2.6472,0.1671 0.18,-0.0162 0.3428,-0.2333 0.4582,-0.45l0.2145 -0.4034zm-0.1613 2.0226c0.0999,0.3369 0.2283,0.6568 0.2997,1.0112 0.068,0.3376 0.2302,0.7423 0.1152,1.0474 -0.1346,0.3569 -0.4519,0.5904 -0.7147,0.5418l-2.3285 -0.4334 -0.2767 0.325 -0.1613 -0.7945 -0.1277 -0.4332c0.9986,0.0568 2.0002,0.3045 2.9957,0.1708 0.1579,-0.0212 0.295,-0.3646 0.2729,-0.6103l-0.0746 -0.8248zM4.882,-113.886c-0.5957,-0.16 -1.2482,-0.2705 -1.8339,-0.0664 -0.4181,0.1457 -0.7724,0.5795 -0.9552,1.0389 -0.1145,0.2873 0.0744,0.6328 0.1719,0.9284 0.0895,0.2714 0.2082,0.542 0.3821,0.7515 0.1483,0.1787 0.3444,0.3263 0.554,0.3759 0.3682,0.087 0.7586,0.1054 1.1271,0.022 0.2683,-0.0607 0.5095,-0.2488 0.7259,-0.4421 0.1542,-0.1377 0.2945,-0.3194 0.363,-0.5305 0.0717,-0.2211 0.072,-0.4746 0.0381,-0.7073 -0.0439,-0.3011 -0.1525,-0.5874 -0.2673,-0.8621 -0.0777,-0.1858 -0.132,-0.4618 -0.3057,-0.5083zm-0.0382 0.7073c-0.4829,-0.1027 -0.9983,-0.242 -1.471,-0.0884 -0.3561,0.1157 -0.5924,0.5221 -0.8406,0.8399 -0.061,0.0781 -0.0732,0.2056 -0.0573,0.3094 0.018,0.117 0.0803,0.2254 0.1528,0.3095 0.0911,0.1055 0.1984,0.2144 0.3248,0.2432 0.3695,0.0844 0.7578,0.1729 1.1272,0.0884 0.2424,-0.0555 0.4281,-0.2944 0.6112,-0.4863 0.1577,-0.1653 0.319,-0.3474 0.4012,-0.5746 0.0424,-0.1173 -0.0124,-0.2598 -0.0573,-0.3759 -0.0405,-0.105 -0.0933,-0.2446 -0.191,-0.2652zM2.297,-108.449l-0.0481 -1.663 0.4451 0.5129 -0.0669 0.3733 1.6945 0.0596c0.1722,-0.0066 0.3446,-0.0132 0.517,-0.02 0.0579,-0.1608 0.116,-0.3215 0.1741,-0.4824l-0.2488 -0.4932c0.2416,0.178 0.4833,0.356 0.7249,0.534 -0.0343,0.2748 -0.0686,0.5495 -0.1027,0.8241l0.3734 1.3086 -0.387 -0.1596c-0.0638,-0.2488 -0.1276,-0.4976 -0.1914,-0.7465 -0.152,0.0056 -0.3039,0.0109 -0.4558,0.0162l-2.0461 0.0532 -0.0419 0.6499 -0.3584 -0.0193 0.0181 -0.7478zM6.552,-106.682l-1.1606 0.0052 -0.0577 -0.5571 -0.181 0.0345 -0.0498 0.4095c-0.8338,0.0843 -1.6894,-0.0167 -2.5015,0.2529 -0.1927,0.064 -0.2966,0.4166 -0.3177,0.6845 -0.0227,0.2879 0.0623,0.6028 0.1982,0.8263l0.3055 0.5027 0.2174 -0.1553c-0.0339,-0.1806 -0.1173,-0.3567 -0.1019,-0.5416 0.0207,-0.2461 0.0228,-0.6885 0.2055,-0.6894l1.9666 -0.0099 0.1009 1.6159 0.2276 -0.1182 -0.0258 -1.4254 1.1508 0.056 0.0235 -0.8906zM4.473,-102.984c0.2609,0.0165 0.487,0.0256 0.7002,0.3227 0.1401,0.1956 0.0996,0.4043 -0.0302,0.6272 -0.1122,0.1927 -0.2352,0.1408 -0.3826,0.1024 0.0806,0.391 0.1065,0.8465 0.242,1.173 0.0563,0.1355 0.1884,0.1375 0.2654,0.05 0.1911,-0.2171 0.3687,-0.5224 0.4803,-0.8974 0.0576,-0.1935 0.0272,-0.463 -0.0126,-0.6731 -0.0935,-0.4946 -0.2341,-0.9528 -0.3791,-1.396 -0.0343,-0.1043 -0.0887,-0.2166 -0.1517,-0.2243 -0.4793,-0.0599 -0.9618,-0.0418 -1.4408,0.0251 -0.1772,0.0246 -0.3695,0.0572 -0.5183,0.2492 -0.1946,0.251 -0.3116,0.6813 -0.4676,1.0219 -0.0927,0.3987 -0.2277,0.7692 -0.2781,1.1967 -0.0362,0.3076 -0.0095,0.6385 0.0253,0.9472 0.0176,0.1567 0.0854,0.2739 0.128,0.4108 0.0163,-0.0954 0.0327,-0.1908 0.049,-0.2862 0.0589,-0.3241 0.0918,-0.6719 0.1768,-0.9721 0.0983,-0.3468 0.2444,-0.6318 0.3666,-0.9475 0.1518,-0.2243 0.2704,-0.5921 0.4551,-0.6728 0.2597,-0.1133 0.5065,-0.0734 0.7723,-0.0568z" id="norte"/>
<path d="M-1.975,104.55c-0.0533,-0.309 -0.1757,-0.6137 -0.1603,-0.9271 0.0174,-0.3528 0.2368,-0.6736 0.2566,-1.0264 0.0235,-0.4208 0.054,-0.8809 -0.1284,-1.2582 -0.1848,-0.3821 -0.5103,-0.749 -0.9047,-0.8773 -0.4442,-0.1445 -0.9873,-0.1087 -1.3915,0.1302 -0.2353,0.139 -0.1961,0.5335 -0.2054,0.8134 -0.0165,0.4984 0.1167,0.9917 0.1284,1.49 0.0106,0.4525 0.1679,0.9273 0.032,1.3573 -0.0575,0.1819 -0.3399,0.2238 -0.5226,0.1941 -0.2704,-0.0442 -0.572,-0.164 -0.7257,-0.3982 -0.1953,-0.2978 -0.2333,-0.6941 -0.2271,-1.054 0.0042,-0.2377 0.0421,-0.5762 0.2567,-0.6621l0.5773 -0.2318c-0.032,-0.1324 0.0231,-0.3386 -0.0962,-0.3974 -0.1747,-0.0859 -0.4057,-0.0258 -0.5774,0.0663 -0.2587,0.1386 -0.5661,0.3101 -0.6577,0.596 -0.1476,0.4609 -0.0975,0.9819 0,1.4568 0.0731,0.355 0.4388,0.9492 0.7485,1.1196 0.3202,0.1763 0.4463,0.2142 0.8041,0.2766 0.3113,0.0542 0.4435,-0.0013 0.678,-0.2194 0.2062,-0.192 0.3396,-0.4388 0.344,-0.7256 0.0061,-0.4075 -0.1032,-0.8088 -0.1546,-1.2128 -0.0548,-0.43 -0.1865,-0.8576 -0.1656,-1.2912 0.013,-0.2692 0.0675,-0.5854 0.2652,-0.7616 0.1681,-0.1498 0.4506,-0.1329 0.6628,-0.0661 0.2381,0.0751 0.4745,0.2397 0.5968,0.4635 0.1607,0.2944 0.1326,0.6622 0.1988,0.9932l-0.0264 0.808 0.0729 0.739 0.1564 0.6142 0.1651 -0.009zM-5.406,109.374c-0.0832,-0.2871 -0.2814,-0.5602 -0.2497,-0.8614 0.0243,-0.2305 0.2635,-0.3446 0.3954,-0.5169l2.3928 0.1231 0.4577 0.7876 -2.58 -0.1231 -0.4162 0.5907zm0.1457 -1.3783c-0.0902,-0.2296 -0.2061,-0.4476 -0.2705,-0.6892 -0.0614,-0.23 -0.2078,-0.5058 -0.1041,-0.7137 0.1215,-0.2432 0.408,-0.4024 0.6451,-0.3692l2.1015 0.2953 0.2497 -0.2215 0.1456 0.5415 0.1153 0.2952c-0.9013,-0.0388 -1.8053,-0.2075 -2.7037,-0.1164 -0.1426,0.0144 -0.2663,0.2485 -0.2463,0.4159 0.0224,0.1875 0.0448,0.3748 0.0674,0.5621zM-1.2,110.119c0.0843,0.1226 0.222,0.203 0.2532,0.3676 0.024,0.1278 -0.0769,0.2415 -0.1154,0.3623 -0.9909,0.0501 -1.9846,0.0366 -2.9728,0.1502 -0.6947,0.0799 -1.3935,0.1867 -2.0687,0.4294 -0.1096,0.0394 -0.223,0.2308 -0.1993,0.3863l0.046 0.3005c-0.0663,-0.0716 -0.1539,-0.116 -0.1992,-0.2146 -0.0515,-0.1124 -0.1014,-0.2576 -0.0766,-0.3864 0.0467,-0.2417 0.1054,-0.5698 0.2758,-0.644 0.7195,-0.3134 1.4861,-0.3709 2.2373,-0.4508 0.9399,-0.1001 1.8798,-0.2003 2.8197,-0.3005zM-1.29,112.237c0.0843,0.1226 0.222,0.203 0.2532,0.3676 0.024,0.1278 -0.0769,0.2415 -0.1154,0.3623 -0.9909,0.0501 -1.9846,0.0366 -2.9728,0.1502 -0.6947,0.0799 -1.3935,0.1867 -2.0687,0.4294 -0.1096,0.0394 -0.223,0.2308 -0.1993,0.3863l0.046 0.3005c-0.0663,-0.0716 -0.1539,-0.116 -0.1992,-0.2146 -0.0515,-0.1124 -0.1014,-0.2576 -0.0766,-0.3864 0.0467,-0.2417 0.1054,-0.5698 0.2758,-0.644 0.7195,-0.3134 1.4861,-0.3709 2.2373,-0.4508 0.9399,-0.1001 1.8798,-0.2003 2.8197,-0.3005z" id="sull"/>
<path d="M-118.7443,-5.084c-0.1695,0.6314 -0.2867,1.3228 -0.0704,1.9435 0.1544,0.443 0.6141,0.8185 1.101,1.0123 0.3045,0.1212 0.6706,-0.079 0.9838,-0.1823 0.2876,-0.0948 0.5744,-0.2206 0.7964,-0.4048 0.1894,-0.1572 0.3458,-0.365 0.3983,-0.5871 0.0922,-0.3902 0.1118,-0.8039 0.0233,-1.1945 -0.0643,-0.2843 -0.2636,-0.5398 -0.4684,-0.7691 -0.146,-0.1635 -0.3385,-0.3122 -0.5622,-0.3848 -0.2343,-0.0759 -0.503,-0.0763 -0.7496,-0.0404 -0.3191,0.0466 -0.6225,0.1617 -0.9135,0.2834 -0.1969,0.0823 -0.4894,0.1399 -0.5387,0.3238zm0.7495 0.0406c-0.1088,0.5117 -0.2564,1.0578 -0.0937,1.5588 0.1227,0.3773 0.5533,0.6277 0.8901,0.8908 0.0827,0.0646 0.2179,0.0776 0.3279,0.0607 0.1239,-0.0191 0.2389,-0.0851 0.328,-0.162 0.1117,-0.0964 0.2271,-0.2102 0.2577,-0.3441 0.0894,-0.3915 0.1832,-0.8031 0.0937,-1.1945 -0.0588,-0.2569 -0.312,-0.4537 -0.5154,-0.6478 -0.1752,-0.1671 -0.3682,-0.338 -0.6089,-0.4251 -0.1243,-0.0449 -0.2753,0.0132 -0.3983,0.0607 -0.1113,0.043 -0.2592,0.0989 -0.2811,0.2025zM-113.731,-4.426c0.0174,-0.2764 0.0271,-0.5161 0.3419,-0.742 0.2073,-0.1485 0.4284,-0.1056 0.6647,0.032 0.2042,0.1189 0.1492,0.2493 0.1085,0.4054 0.4143,-0.0854 0.897,-0.1128 1.2431,-0.2564 0.1435,-0.0597 0.1456,-0.1996 0.0529,-0.2813 -0.2301,-0.2024 -0.5536,-0.3906 -0.951,-0.5089 -0.205,-0.0611 -0.4906,-0.0288 -0.7133,0.0133 -0.5242,0.0992 -1.0097,0.2481 -1.4793,0.4018 -0.1106,0.0363 -0.2296,0.0939 -0.2378,0.1607 -0.0635,0.5079 -0.0443,1.0192 0.0266,1.5269 0.0261,0.1878 0.0607,0.3915 0.2642,0.5492 0.2659,0.2062 0.722,0.3303 1.0828,0.4955 0.4226,0.0982 0.8152,0.2413 1.2682,0.2947 0.326,0.0384 0.6767,0.0101 1.0038,-0.0268 0.1661,-0.0187 0.2902,-0.0905 0.4353,-0.1356 -0.1011,-0.0173 -0.2022,-0.0347 -0.3033,-0.0519 -0.3434,-0.0625 -0.712,-0.0974 -1.0301,-0.1874 -0.3675,-0.1041 -0.6695,-0.259 -1.004,-0.3885 -0.2378,-0.1608 -0.6276,-0.2865 -0.7131,-0.4822 -0.12,-0.2753 -0.0778,-0.5369 -0.0601,-0.8185zM-109.3981,-0.391l-0.6501 -0.0942c-0.0111,-1.0488 -0.0378,-2.0978 -0.0336,-3.1469 0.0018,-0.4481 0.0084,-0.899 0.052,-1.3419 0.0257,-0.2617 0.0734,-0.5248 0.1551,-0.7572 0.0936,-0.2662 0.199,-0.5494 0.3625,-0.7145 0.1977,-0.1997 0.439,-0.3078 0.6743,-0.3332l0.975 -0.105 -0.0064 0.5798c-0.3228,0.1565 -0.6598,0.2552 -0.9686,0.4693 -0.1572,0.1091 -0.3247,0.2557 -0.4104,0.4878 -0.1372,0.3714 -0.1969,0.8106 -0.2269,1.2367 -0.0442,0.6258 -0.018,1.2606 0.0063,1.8887l0.0708 1.8306zM-107.9973,-6.796l0.0925 1.9373 -1.3254 -0.0055 -0.0123 0.3651 1.3861 -0.0581c0.0628,0.8696 -0.0125,1.7618 0.1884,2.6088 0.0477,0.201 0.3104,0.3092 0.5101,0.3312 0.2145,0.0238 0.4492,-0.065 0.6157,-0.2066l0.3745 -0.3187 -0.1157 -0.2267c-0.1345,0.0354 -0.2657,0.1224 -0.4036,0.1063 -0.1833,-0.0216 -0.5128,-0.0238 -0.5136,-0.2143l-0.0074 -2.0509 1.2041 -0.1053 -0.0881 -0.2374 -1.0621 0.027 0.0184 -1.9485 -0.8616 -0.0037zM-104.6239,-4.435c0.0174,-0.2764 0.0272,-0.5161 0.342,-0.742 0.2073,-0.1485 0.4284,-0.1056 0.6646,0.032 0.2043,0.1189 0.1492,0.2493 0.1086,0.4055 0.4143,-0.0855 0.897,-0.1129 1.243,-0.2565 0.1436,-0.0597 0.1457,-0.1996 0.053,-0.2813 -0.2301,-0.2024 -0.5536,-0.3906 -0.951,-0.5089 -0.205,-0.0611 -0.4907,-0.0288 -0.7133,0.0133 -0.5242,0.0992 -1.0097,0.2481 -1.4793,0.4018 -0.1106,0.0363 -0.2296,0.094 -0.2378,0.1607 -0.0635,0.5079 -0.0443,1.0192 0.0266,1.5269 0.0261,0.1878 0.0607,0.3915 0.2641,0.5492 0.266,0.2062 0.722,0.3303 1.0829,0.4955 0.4225,0.0983 0.8152,0.2413 1.2682,0.2947 0.326,0.0384 0.6766,0.0101 1.0037,-0.0268 0.1661,-0.0187 0.2903,-0.0905 0.4354,-0.1356 -0.1011,-0.0173 -0.2022,-0.0347 -0.3033,-0.0519 -0.3435,-0.0625 -0.712,-0.0974 -1.0301,-0.1874 -0.3676,-0.1041 -0.6696,-0.259 -1.0041,-0.3885 -0.2377,-0.1608 -0.6275,-0.2865 -0.713,-0.4822 -0.12,-0.2753 -0.0778,-0.5368 -0.0602,-0.8185z" id="oeste"/>
<path d="M100.077,.892c0.1836,-0.0889 0.3143,-0.2467 0.5509,-0.2668 0.1836,-0.0156 0.3319,0.1183 0.4978,0.1775 -0.0517,1.2014 -0.1936,2.3995 -0.1553,3.6044 0.027,0.8469 0.0915,1.7018 0.3511,2.5424 0.0421,0.1366 0.2987,0.2937 0.5214,0.2814l0.4304 -0.0238c-0.1095,0.0725 -0.1829,0.1735 -0.328,0.2178 -0.1652,0.0504 -0.3766,0.0953 -0.5556,0.0517 -0.3358,-0.0819 -0.7923,-0.1874 -0.8761,-0.401 -0.3541,-0.9016 -0.3405,-1.8331 -0.3605,-2.7483 -0.0254,-1.1451 -0.0507,-2.2903 -0.0761,-3.4353zM103.082,3.6c0.0122,-0.2482 -0.2651,-0.8785 0.1083,-0.841l0.7375 0.0741c-0.0281,0.1403 -0.0562,0.2804 -0.0843,0.4205 0.2861,-0.0766 0.5722,-0.1534 0.8583,-0.2301 0.0122,-0.0841 0.1005,-0.1791 0.0366,-0.2523 -0.1589,-0.1816 -0.3822,-0.3505 -0.6567,-0.4566 -0.1415,-0.0548 -0.3389,-0.0257 -0.4924,0.012 -0.3617,0.0888 -0.6973,0.2225 -1.0214,0.3604 -0.0763,0.0324 -0.1585,0.0844 -0.1641,0.1442 -0.0437,0.4556 -0.0304,0.9143 0.0184,1.3698 0.018,0.1683 0.042,0.3512 0.1823,0.4927 0.1836,0.1849 0.4425,0.3524 0.7476,0.4445 0.2918,0.088 0.5628,0.2165 0.8756,0.2644 0.2251,0.0344 0.4727,0.0226 0.693,-0.0241l0.9666 -0.2042c-0.2919,0.0119 -0.5854,0.0601 -0.8754,0.036 -0.2499,-0.0207 -0.4916,-0.0873 -0.7112,-0.1681 -0.2538,-0.0934 -0.4879,-0.2132 -0.6932,-0.3485 -0.1935,-0.1275 -0.4333,-0.2571 -0.4923,-0.4326 -0.0829,-0.247 -0.0456,-0.4084 -0.0332,-0.6611zM106.844,7.672l-0.6986 -0.1056c-0.012,-1.1756 -0.0407,-2.3514 -0.0361,-3.5273 0.0019,-0.5023 0.009,-1.0078 0.0559,-1.5042 0.0276,-0.2934 0.0789,-0.5882 0.1666,-0.8487 0.1006,-0.2984 0.214,-0.6159 0.3896,-0.801 0.2125,-0.2238 0.4718,-0.345 0.7247,-0.3735l1.0478 -0.1176 -0.0069 0.6498c-0.347,0.1755 -0.7091,0.2861 -1.0409,0.5261 -0.169,0.1223 -0.349,0.2866 -0.4411,0.5468 -0.1474,0.4163 -0.2115,0.9086 -0.2439,1.3863 -0.0474,0.7015 -0.0193,1.4129 0.0069,2.117l0.076 2.0519zM108.644,1.161l-0.1249 0.8002 -0.5246 -0.0275 0 0.1878 0.4703 0.0756c-0.0732,0.7822 -0.4306,1.5842 -0.3382,2.365 0.0309,0.2612 0.298,0.74 0.5721,0.6195l0.7264 -0.3192 0.2419 0.1127 -0.0659 -0.413 -0.2421 0.0563c-0.1908,-0.0939 -0.6115,-0.097 -0.5723,-0.2816l0.4182 -1.9713 1.3424 0.0376 -0.0659 -0.244 -1.2519 -0.1031 0.1887 -0.9384 -0.7742 0.0434zM 111.926,3.468L111.908,2.647 112.721,2.729 112.628,3.192 113.573,2.939 113.614,2.661 112.89,2.158 112.348,2.171 111.222,2.568 111.041,2.727 111.062,4.236 111.262,4.779 112.086,5.269 113.051,5.56 113.815,5.533 114.88,5.308 113.915,5.348 113.131,5.163 112.368,4.779 111.825,4.302 111.926,3.468z" id="leste"/>
<path d="M-43.002,-37.094c-0.3627,-0.2496 -0.9489,-0.3312 -1.0892,-0.7488 -0.2747,-0.8196 -0.384,-1.8077 -0.0278,-2.5957 0.2926,-0.6472 1.0888,-0.9615 1.7512,-1.2193 0.6471,-0.2512 1.5161,0.1566 2.0692,-0.2637 0.6102,-0.4634 0.8788,-1.3139 1.0072,-2.0698 0.1278,-0.7543 0.0413,-1.5815 -0.2665,-2.2819 -0.3546,-0.8071 -0.8984,-1.6043 -1.6467,-2.0709 -0.3415,-0.2132 -0.8326,0.5411 -1.1676,0.317 -0.3997,-0.267 -0.0854,-1.0392 -0.4258,-1.3797 -0.4699,-0.4698 -1.1518,-0.7233 -1.8044,-0.8505 -0.7462,-0.1458 -1.5722,-0.2214 -2.2825,0.0516 -0.7499,0.2888 -1.3666,0.9023 -1.8566,1.538 -0.3693,0.4791 -0.2088,1.2715 -0.6357,1.6984 -0.5422,0.5422 -1.3797,0.6716 -2.0693,1.0066 0.7782,0.0005 1.5564,0.0011 2.3347,0.0016 0.1767,-0.3181 0.2262,-0.7548 0.5307,-0.9549 0.3764,-0.2469 1.0154,0.0614 1.3264,-0.2649 0.4704,-0.4943 0.2698,-1.4161 0.7418,-1.9099 0.3557,-0.372 0.9718,-0.4345 1.4863,-0.4237 0.404,0.0082 1.0305,0.0843 1.1148,0.4786 0.1942,0.9098 0.1931,2.0628 -0.4231,2.7594 -2.0458,2.3145 -0.8788,0.9484 -1.8033,1.8033 -0.3372,0.3122 -0.8848,0.2475 -1.3269,0.3709 0.3893,0.1425 0.8755,0.1327 1.1681,0.4253 0.2616,0.2616 0.2659,0.8859 0.3192,1.0621 0.0533,0.1762 0.4808,-1.3487 0.6358,-1.6984 0.5443,-1.2318 -0.248,-0.0424 1.0071,-1.9632 0.2654,-0.4057 0.9485,-0.2306 1.4325,-0.2643 0.5123,-0.0359 1.3269,-0.4133 1.5395,0.0538 0.3225,0.7076 -0.1207,1.5924 -0.4763,2.2819 -0.2747,0.5335 -0.9164,0.7815 -1.3259,1.2204 -0.5302,0.5694 -1.0376,1.167 -1.4846,1.8033 -0.3873,0.5515 -0.9958,1.0784 -1.0078,1.7506 -0.0087,0.5025 0.5792,0.8359 0.9561,1.1681 0.5161,0.4541 1.1333,0.7788 1.6994,1.1687z"/>
<path d="M39.864,-43.882c0.9524,-1.3558 0.6689,-0.8687 1.5212,-2.2586 1.474,-2.4037 2.8799,-2.4529 5.1017,-1.3983 1.6268,0.7722 1.9972,1.5331 1.9972,2.7623 0,0.9424 -0.2384,2.081 -1.0844,3.1698 -0.7929,1.021 -1.496,1.9985 -2.6339,2.7032 -1.1764,0.7284 -2.2735,0.4444 -3.2057,0.4444 -0.1622,0 -0.4036,0.0928 -0.451,0.3093 -0.0814,0.372 0.0552,0.8883 -0.1123,0.5253 -0.112,-0.2428 -0.4661,-0.9859 -0.076,-1.4699 0.3758,-0.4668 1.4611,-0.5784 2.2149,-0.7868 0.8684,-0.2402 1.6025,-0.8859 2.4865,-2.1013 0.84,-1.1547 1.0218,-1.964 1.0039,-2.8332 -0.2414,-0.5516 -0.2754,-0.5673 -0.8307,-0.8178 -0.6017,-0.2715 -1.2265,-0.3996 -1.5519,-0.3996 -0.1728,0 -1.8318,0.6459 -2.2066,1.1644 -0.3307,0.4571 -0.6689,1.6732 -0.6493,1.9011 0.0421,0.4879 3.361,1.261 0.2435,1.4673 -2.3042,0.1526 -3.329,-0.1581 -1.7671,-2.3816z"/>
<path d="M-38.779,39.037l-4.1557 4.1557 1.6477 1.7991 0.2323 -0.0819c-0.1518,-0.603 -0.752,-1.1515 -0.6385,-1.6827 0.1351,-0.6361 0.1361,-0.8669 0.5312,-1.5744 0.1514,-0.2702 0.4168,-0.3343 0.5834,-0.3439 0.1562,-0.0096 0.3191,0.067 0.4838,0.2308l4.1821 4.1314c0.1902,0.1892 0.2682,0.3678 0.2309,0.5297 -0.0426,0.1844 -0.2371,0.445 -0.5734,0.7813l0.1859 0.1858 2.7872 -2.634 -0.1858 -0.1858c-0.2922,0.2922 -0.5293,0.4612 -0.7094,0.5015 -0.1696,0.0402 -0.3477,-0.0335 -0.5374,-0.2232l-4.1567 -4.1567c-0.1643,-0.1643 -0.2314,-0.3358 -0.2002,-0.5145 0.0354,-0.1954 0.1983,-0.4378 0.4857,-0.7252l-0.1931 -0.193z"/>
<path d="M 46.54,41.82 C 46.907,41.448 47.35,40.67 47.316,40.198 C 47.264,39.5 46.984,38.8915 46.4748,38.382 C 46.1382,38.0453 45.7673,37.8474 45.3616,37.7952 C 44.9543,37.7403 44.609,37.8561 44.3234,38.1416 C 44.001,38.4641 43.821,38.879 43.7834,39.3864 C 43.7486,39.8998 43.8443,40.6981 44.0853,41.7907 C 44.4186,43.3172 44.5638,44.4718 44.517,45.2581 C 44.4703,46.0434 44.2419,46.6438 43.8291,47.0566 C 43.3538,47.5319 42.7066,47.6754 41.892,47.4905 C 41.0784,47.3056 40.2219,46.7645 39.3306,45.8732 C 38.8395,45.3821 38.4719,44.7839 38.2299,44.0851 C 38.138,43.805 38.0531,43.6288 37.9743,43.55 C 37.6447,43.2204 37.36124,43.23345 37.0177,43.4026 C 36.13,43.84 34.21,43.62 36.04,43.37 C 36.19,43.35 36.47,43.2061 36.7311,43.02 C 37.6,42.43 37.94,41.35 39.0124,40.8346 C 39.56,40.57 40.47,40.62 39.299,41.1212 C 38.3946,41.51 38.492,42.8049 38.5741,43.643 C 38.6568,44.4815 38.97,45.1744 39.5187,45.7231 C 39.9663,46.1707 40.3965,46.4246 40.8152,46.4899 C 41.2323,46.5579 41.6076,46.4306 41.9339,46.1043 C 42.2906,45.7476 42.4799,45.2309 42.5125,44.5577 C 42.5402,43.8828 42.4124,42.9153 42.1182,41.6466 C 41.8556,40.5051 41.7386,39.6094 41.7658,38.9492 C 41.7925,38.2895 41.973,37.7946 42.3069,37.4607 C 42.8807,36.887 43.5626,36.6825 44.355,36.8495 C 45.1452,37.0143 45.9044,37.4624 46.6293,38.1873 C 47.0377,38.5957 47.3928,39.1238 47.6946,39.7671 C 47.8279,40.0657 47.8641,40.19 48.0275,40.349 C 48.1909,40.51245 48.29,40.53 48.72,40.63 C 49.23,40.75 49.16,41.21 49.052,41.27 L 46.45,42.62 C 45.17,43.28 45.97,42.4 46.54,41.82z"/>
</g>
<g fill="#1A1A1A" stroke="#1A1A1A" fill-rule="evenodd">
<path d="M 88.8236,-81.7315 L 88.4509,-80.97 L 87.8027,-80.9376 L 86.0203,-82.882 L 86.1823,-83.757 L 88.1106,-81.6667 L 88.8236,-81.7315 L 88.8236,-81.7315 z M 87.8027,-80.9376 L 87.5597,-80.2732 L 87.1708,-79.7223 L 86.4254,-79.9815 L 84.9832,-81.8126 L 84.643,-81.8612 L 84.886,-82.3311 L 84.9906,-82.6152 L 87.0195,-80.433 L 87.4851,-80.515 L 87.8027,-80.9376 z M 86.3226,-79.1695 L 84.9802,-80.5984 L 83.581,-80.6426 L 83.1054,-79.9072 L 82.904,-79.1284 L 83.0775,-78.4648 L 83.9147,-77.5988 L 84.7514,-77.3386 L 85.3717,-77.4103 L 85.8618,-77.8428 L 86.222,-78.607 L 86.3226,-79.1695 L 86.3226,-79.1695 z M 85.8324,-78.7371 L 84.7787,-79.9061 L 83.5958,-79.9936 L 83.3507,-79.835 L 83.2643,-79.5177 L 83.3511,-79.1137 L 84.1451,-78.2044 L 84.9241,-78.0598 L 85.602,-78.1314 L 85.8038,-78.4197 L 85.8324,-78.7371 L 85.8324,-78.7371 z M 80.894,-78.7915 L 81.312,-79.1245 L 82.75,-77.7255 L 83.735,-76.8185 L 84.363,-76.5685 L 84.354,-76.1615 L 84.197,-76.2405 L 83.465,-76.3125 L 83.45,-75.5885 L 82.935,-74.9785 L 82.677,-75.2435 L 83.025,-76.0145 L 83.042,-76.4715 L 82.768,-76.8925 L 81.844,-77.7955 L 80.894,-78.7915 z M 81.773,-74.2975 L 82.079,-74.7495 L 82.14,-75.4955 L 81.639,-76.1185 L 81.039,-76.4245 L 80.367,-76.4125 L 79.939,-76.2775 L 79.499,-75.9115 L 79.144,-75.4095 L 79.01,-74.8105 L 79.108,-74.3955 L 79.585,-73.9185 L 80.269,-73.6005 L 81.137,-73.4905 L 82.127,-73.7225 L 84.12,-74.4925 L 84.181,-74.9695 L 82.592,-74.4075 L 81.553,-74.0525 L 80.575,-74.0285 L 79.805,-74.3095 L 79.352,-74.6885 L 79.267,-74.9945 L 79.377,-75.3735 L 79.756,-75.7275 L 80.44,-75.8745 L 81.235,-75.6175 L 81.81,-75.1165 L 81.859,-74.7005 L 81.773,-74.2975 z M 79.4786,-72.6745 C 79.6412,-72.5177 79.8038,-72.361 79.9666,-72.2042 C 79.8157,-72.0852 79.6648,-71.9661 79.5139,-71.8469 C 79.4391,-71.9525 79.3645,-72.058 79.2898,-72.1635 C 79.182,-71.9572 79.0742,-71.7507 78.9665,-71.5443 C 79.0139,-71.4836 79.0612,-71.4228 79.1086,-71.362 C 79.3267,-71.3844 79.5448,-71.4067 79.7628,-71.429 C 79.8503,-71.5217 79.9379,-71.6144 80.0255,-71.7071 C 80.1352,-71.9714 80.2448,-72.2355 80.3546,-72.4997 C 80.3536,-72.5606 80.3528,-72.6216 80.352,-72.6825 C 80.055,-72.9727 79.7581,-73.2629 79.4612,-73.5532 C 79.3223,-73.6253 79.1832,-73.6976 79.0442,-73.7699 C 78.8121,-73.7282 78.58,-73.6866 78.3479,-73.6451 C 78.131,-73.5416 77.9141,-73.438 77.6971,-73.3343 C 77.5755,-73.2024 77.4538,-73.0704 77.332,-72.9383 C 77.3031,-72.8572 77.2742,-72.7761 77.2452,-72.6951 C 77.2935,-72.7234 77.3419,-72.7517 77.3902,-72.7801 C 77.5564,-72.8743 77.7226,-72.9684 77.8888,-73.0625 C 78.0904,-73.1148 78.292,-73.167 78.4935,-73.2191 C 78.6764,-73.2165 78.8593,-73.2139 79.042,-73.2113 C 79.1875,-73.0323 79.3331,-72.8534 79.4786,-72.6745 L 79.4786,-72.6745 z M 75.0196,-73.6445 L 75.42,-73.9404 C 76.0074,-73.365 76.6032,-72.7977 77.1825,-72.2139 C 77.43,-71.9645 77.6765,-71.711 77.8986,-71.4421 C 78.0299,-71.2832 78.1502,-71.1118 78.2353,-70.9393 C 78.3328,-70.7416 78.4333,-70.5281 78.4373,-70.349 C 78.4421,-70.1324 78.3728,-69.9432 78.2608,-69.8031 L 77.7968,-69.2227 L 77.4789,-69.5476 C 77.565,-69.8073 77.6908,-70.0424 77.7375,-70.3265 C 77.7612,-70.4712 77.7696,-70.6422 77.6868,-70.8168 C 77.5544,-71.0962 77.3429,-71.3716 77.1228,-71.6239 C 76.7995,-71.9945 76.4336,-72.3323 76.0723,-72.6675 L 75.0196,-73.6445 L 75.0196,-73.6445 z M 77.888,-69.0935 L 77.64,-69.2375 L 77.862,-69.4595 L 77.731,-69.5905 L 77.457,-69.4465 L 75.952,-71.2125 L 75.181,-71.3045 L 74.972,-70.6505 L 74.75,-70.5855 L 75.077,-70.3375 L 75.182,-70.5205 L 75.717,-70.6635 L 76.843,-69.0425 L 76.02,-68.2715 L 76.229,-68.1405 L 76.973,-68.7545 L 77.457,-68.5055 L 77.888,-69.0935 z M 75.089,-68.6005 L 75.577,-68.1305 L 75.125,-67.7725 L 74.901,-68.0895 L 74.577,-67.4705 L 74.72,-67.2875 L 75.374,-67.3545 L 75.636,-67.6325 L 75.966,-68.4255 L 75.963,-68.6085 L 75.072,-69.4795 L 74.655,-69.6955 L 73.959,-69.5715 L 73.308,-69.2605 L 72.943,-68.8645 L 72.544,-68.2025 L 73.001,-68.7055 L 73.5,-68.9885 L 74.104,-69.1455 L 74.653,-69.1375 L 75.089,-68.6005 z" id="nordeste"/>
<path d="M-80.8353,-87.772l0.7894 0.3863 0.0336 0.6718 -2.0154 1.8474 -0.9069 -0.168 2.1665 -1.9985 -0.0672 -0.739zm0.823 1.0581l0.6885 0.2519 0.5711 0.4031 -0.2687 0.7725 -1.8978 1.4947 -0.0504 0.3527 -0.4871 -0.2519 -0.2944 -0.1084 2.2617 -2.1029 -0.085 -0.4826 -0.4379 -0.3291zM-78.0912,-84.986l-1.4029 1.3179 -0.0434 1.3737 0.722 0.4668 0.7645 0.1978 0.6516 -0.1703 0.8502 -0.822 0.2554 -0.8214 -0.0704 -0.609 -0.4246 -0.4811 -0.7502 -0.3536 -0.5522 -0.0988zm0.4244 0.4812l-1.1476 1.0345 -0.0859 1.1613 0.1557 0.2406 0.3115 0.0848 0.3966 -0.0852 0.8927 -0.7794 0.142 -0.7649 -0.0703 -0.6654 -0.2831 -0.1982 -0.3116 -0.0281zM-77.2952,-80.355L-77.6129,-80.753 -76.2942,-82.109 -75.4396,-83.037 -75.2052,-83.632 -74.8194,-83.621 -74.8939,-83.472 -74.9583,-82.779 -74.2725,-82.762 -73.6914,-82.27 -73.9412,-82.027 -74.6737,-82.36 -75.1068,-82.379 -75.5045,-82.122 -76.3561,-81.251 -77.2952,-80.355zM-74.4032,-81.903l-1.336 1.255 -0.0413 1.3082 0.6876 0.4446 0.7281 0.1884 0.6205 -0.1622 0.8096 -0.7828 0.2432 -0.7823 -0.067 -0.5799 -0.4043 -0.4582 -0.7145 -0.3367 -0.5259 -0.0941zm0.4042 0.4583l-1.0929 0.9852 -0.0818 1.1059 0.1483 0.2291 0.2966 0.0807 0.3778 -0.0811 0.8501 -0.7423 0.1352 -0.7283 -0.0669 -0.6338 -0.2696 -0.1887 -0.2968 -0.0267zM-72.0399,-78.752c0.1759,-0.1824 0.3518,-0.3648 0.5276,-0.5474 0.1336,0.1693 0.2672,0.3385 0.4009,0.5079 -0.1184,0.0838 -0.2368,0.1676 -0.3552,0.2513 0.2315,0.121 0.4631,0.2419 0.6947,0.3628 0.0682,-0.0531 0.1364,-0.1063 0.2046,-0.1595 -0.0251,-0.2447 -0.0502,-0.4893 -0.0752,-0.7339 -0.104,-0.0982 -0.208,-0.1965 -0.312,-0.2948 -0.2965,-0.123 -0.5928,-0.246 -0.8893,-0.3692 -0.0683,0.0011 -0.1367,0.002 -0.2051,0.0029 -0.3256,0.3332 -0.6511,0.6664 -0.9768,0.9995 -0.081,0.1558 -0.1621,0.3118 -0.2431,0.4678 0.0467,0.2604 0.0933,0.5208 0.1399,0.7812 0.1162,0.2433 0.2324,0.4868 0.3487,0.7302 0.1481,0.1365 0.2961,0.273 0.4443,0.4096 0.091,0.0324 0.182,0.0649 0.2729,0.0974 -0.0317,-0.0542 -0.0635,-0.1085 -0.0953,-0.1626 -0.1057,-0.1865 -0.2114,-0.3731 -0.3169,-0.5595 -0.0586,-0.2262 -0.1172,-0.4524 -0.1757,-0.6784 0.0029,-0.2052 0.0058,-0.4104 0.0088,-0.6154 0.2007,-0.1633 0.4015,-0.3266 0.6022,-0.4899zM-73.5288,-73.466l-0.3215 -0.4598c0.763,-0.7764 1.5168,-1.5623 2.2892,-2.3296 0.33,-0.3278 0.6649,-0.6548 1.0162,-0.9535 0.2075,-0.1767 0.4292,-0.3411 0.6488,-0.4626 0.2516,-0.1391 0.5228,-0.2835 0.7423,-0.3065 0.2653,-0.0278 0.4896,0.0379 0.6497,0.1606l0.6629 0.5089 -0.4293 0.4216c-0.3089,-0.0791 -0.5838,-0.2092 -0.9265,-0.2376 -0.1746,-0.0144 -0.3828,-0.0075 -0.6046,0.1114 -0.3551,0.1901 -0.7132,0.4766 -1.044,0.7712 -0.4858,0.4328 -0.9359,0.9143 -1.3823,1.39l-1.3009 1.3859zM-68.0815,-76.583l-0.5937 0.454 -0.2754 -0.3113 -0.1229 0.123 0.2135 0.3124c-0.5531,0.4712 -1.278,0.7965 -1.7376,1.3593 -0.1537,0.1883 -0.3178,0.6512 -0.0857,0.7256l0.6152 0.1971 0.0615 0.209 0.2335 -0.3072 -0.1722 -0.0985c-0.0452,-0.1681 -0.2785,-0.4054 -0.1356,-0.5044l1.5244 -1.0568 0.7261 0.7752 0.1229 -0.1966 -0.6325 -0.7674 0.7199 -0.509 -0.4614 -0.4044zM-67.8246,-74.354c0.1548,-0.1423 0.3904,-0.6614 0.5588,-0.4481l0.3327 0.4215c-0.0983,0.0696 -0.1965,0.1391 -0.2948,0.2086 0.1922,0.1004 0.3844,0.2008 0.5766,0.3011 0.0566,-0.0441 0.1586,-0.0558 0.1698,-0.1324 0.0275,-0.1899 0.0144,-0.4052 -0.0624,-0.6091 -0.0396,-0.1051 -0.1579,-0.1886 -0.259,-0.2446 -0.2381,-0.1317 -0.4897,-0.2233 -0.738,-0.3064 -0.0584,-0.0196 -0.1315,-0.0305 -0.1702,0.0024 -0.2951,0.2505 -0.563,0.5319 -0.8107,0.8295 -0.0916,0.11 -0.1888,0.2317 -0.2018,0.3882 -0.0168,0.2045 0.0153,0.4372 0.1162,0.6484 0.0964,0.2018 0.1581,0.4173 0.2893,0.6059 0.0945,0.1357 0.2282,0.2552 0.3688,0.34l0.6165 0.3718c-0.1564,-0.142 -0.3353,-0.2633 -0.4692,-0.426 -0.1153,-0.1401 -0.199,-0.3036 -0.2629,-0.4643 -0.0739,-0.1856 -0.1219,-0.377 -0.1459,-0.563 -0.0225,-0.1753 -0.0676,-0.3754 0.0074,-0.5107 0.1054,-0.1902 0.2211,-0.2678 0.3788,-0.4128z" id="noroeste"/>
<path d="M-76.3021,64.72l0.5053 -0.3735c0.7411,0.7262 1.493,1.4419 2.224,2.1786 0.3122,0.3147 0.6233,0.6346 0.9035,0.9739 0.1658,0.2004 0.3175,0.4167 0.4249,0.6344 0.123,0.2495 0.2498,0.5189 0.2549,0.7449 0.0061,0.2733 -0.0813,0.5119 -0.2226,0.6887l-0.5855 0.7323 -0.4013 -0.4098c0.1087,-0.3277 0.2675,-0.6245 0.3264,-0.9829 0.0299,-0.1826 0.0405,-0.3983 -0.064,-0.6186 -0.167,-0.3526 -0.434,-0.7001 -0.7117,-1.0185 -0.4079,-0.4676 -0.8696,-0.8939 -1.3255,-1.3168l-1.3284 -1.2327zM-77.4865,69.974c0.1493,-0.2712 0.2042,-0.6164 0.4481,-0.8138 0.1866,-0.151 0.4453,-0.0593 0.668,-0.089l1.6623 1.8425 -0.2416 0.9121 -1.7994 -1.9797 -0.7374 0.1279zm1.1161 -0.9028c0.1022,-0.2342 0.1769,-0.4787 0.3067,-0.7028 0.1235,-0.2135 0.2182,-0.5226 0.4465,-0.5989 0.2671,-0.0892 0.5935,0.004 0.7428,0.202l1.3228 1.7553 0.3451 0.0206 -0.29 0.5032 -0.1318 0.3006c-0.6316,-0.6884 -1.17,-1.474 -1.8947,-2.0652 -0.115,-0.0938 -0.377,-0.013 -0.485,0.1242 -0.1209,0.1537 -0.2417,0.3073 -0.3624,0.461zM-76.7631,73.225L-76.4246,72.724 -76.3569,71.898 -76.9121,71.207 -77.5757,70.868 -78.3205,70.882 -78.7945,71.031 -79.282,71.437 -79.6747,71.992 -79.8237,72.656 -79.7153,73.116 -79.1872,73.644 -78.4288,73.996 -77.4673,74.118 -76.3704,73.861 -74.163,73.008 -74.0953,72.48 -75.8558,73.103 -77.0069,73.495 -78.0903,73.523 -78.9434,73.211 -79.4445,72.791 -79.5393,72.453 -79.4174,72.033 -78.9976,71.64 -78.2392,71.478 -77.359,71.762 -76.7225,72.317 -76.6683,72.778zM-82.5259,75.5c0.141,-0.2586 0.1909,-0.5888 0.423,-0.776 0.1776,-0.1433 0.4261,-0.0535 0.6393,-0.0802l1.6064 1.7777 -0.2244 0.8718 -1.7389 -1.9101 -0.7054 0.1168zm1.0623 -0.8562c0.096,-0.2236 0.1657,-0.4572 0.2883,-0.6709 0.1167,-0.2035 0.2051,-0.4989 0.4232,-0.5703 0.2551,-0.0833 0.5684,0.0085 0.713,0.1992l1.2806 1.6916 0.3307 0.0224 -0.2738 0.4799 -0.124 0.2869c-0.6104,-0.6643 -1.1321,-1.421 -1.8309,-1.9929 -0.1108,-0.0907 -0.3612,-0.0153 -0.4636,0.1153 -0.1146,0.1463 -0.2291,0.2925 -0.3435,0.4388zM-81.8659,77.812c0.2052,0.1978 0.4104,0.3956 0.6158,0.5934 -0.1904,0.1502 -0.3808,0.3004 -0.5713,0.4509 -0.0943,-0.1333 -0.1885,-0.2664 -0.2827,-0.3995 -0.136,0.2603 -0.272,0.5208 -0.408,0.7813 0.0598,0.0767 0.1195,0.1533 0.1794,0.23 0.2752,-0.0282 0.5504,-0.0564 0.8254,-0.0845 0.1104,-0.117 0.221,-0.234 0.3315,-0.3509 0.1384,-0.3335 0.2768,-0.6667 0.4153,-1.0001 -0.0013,-0.0769 -0.0023,-0.1538 -0.0033,-0.2307 -0.3747,-0.3662 -0.7494,-0.7323 -1.124,-1.0986 -0.1754,-0.0911 -0.3508,-0.1822 -0.5262,-0.2734 -0.2929,0.0526 -0.5857,0.105 -0.8786,0.1574 -0.2737,0.1306 -0.5474,0.2614 -0.8212,0.3921 -0.1535,0.1665 -0.307,0.3331 -0.4607,0.4997 -0.0365,0.1024 -0.073,0.2047 -0.1096,0.307 0.061,-0.0358 0.122,-0.0715 0.183,-0.1073 0.2097,-0.1188 0.4195,-0.2377 0.6292,-0.3564 0.2543,-0.0659 0.5087,-0.1318 0.763,-0.1976 0.2308,0.0033 0.4615,0.0066 0.6921,0.0099 0.1836,0.2258 0.3673,0.4515 0.5509,0.6773zM-86.8476,77.03l0.5052 -0.3734c0.7412,0.7261 1.4931,1.4419 2.2241,2.1785 0.3122,0.3147 0.6232,0.6346 0.9035,0.9739 0.1657,0.2005 0.3175,0.4167 0.4249,0.6345 0.1229,0.2494 0.2498,0.5191 0.2548,0.7448 0.006,0.273 -0.3956,0.8211 -0.5754,0.9592l-0.3528 0.2703 -0.71 0.2856 -0.1148 -0.4688c0.0331,-0.0997 0.3462,-0.0716 0.474,-0.2217 0.1275,-0.1499 0.2554,-0.3004 0.2903,-0.399 0.0445,-0.1262 0.0826,-0.2577 0.1057,-0.3972 0.03,-0.1823 0.0406,-0.3984 -0.064,-0.6186 -0.167,-0.3526 -0.4339,-0.7001 -0.7117,-1.0185 -0.4079,-0.4676 -0.8696,-0.8939 -1.3255,-1.3169l-1.3283 -1.2327zM-83.5626,82.024l-0.4741 -0.635 0.3569 -0.3189 -0.1302 -0.1301 -0.3553 0.2505c-0.495,-0.5893 -0.8208,-1.3754 -1.4214,-1.8571 -0.201,-0.1611 -0.7049,-0.3209 -0.798,-0.0608l-0.2465 0.689 -0.234 0.0778 0.3287 0.2438 0.1169 -0.195c0.188,-0.0578 0.4611,-0.3267 0.5639,-0.1734l1.097 1.6357 -0.8908 0.8386 0.2116 0.1267 0.8778 -0.7349 0.5289 0.7719 0.4686 -0.5288zM-86.5807,82.232c0.1604,0.1734 0.7328,0.449 0.5078,0.6237l-0.4448 0.345c-0.0793,-0.1094 -0.1585,-0.2187 -0.2377,-0.328 -0.1016,0.2047 -0.2032,0.4095 -0.3047,0.6143 0.05,0.0631 0.0666,0.1743 0.1502,0.1893 0.2072,0.0371 0.4403,0.0311 0.6587,-0.0444 0.1126,-0.0389 0.1987,-0.1641 0.2556,-0.2717 0.1338,-0.2534 0.2235,-0.523 0.3043,-0.7892 0.019,-0.0627 0.028,-0.1417 -0.0092,-0.1849 -0.2831,-0.3299 -0.5988,-0.6314 -0.9313,-0.9116 -0.1229,-0.1036 -0.2588,-0.2138 -0.4291,-0.2339 -0.2227,-0.0261 -0.474,-0.0002 -0.6993,0.1012 -0.2154,0.097 -0.447,0.1557 -0.6466,0.2909 -0.1437,0.0973 -0.2683,0.2379 -0.3549,0.3872l-0.38 0.6549c0.1482,-0.1644 0.273,-0.3539 0.4444,-0.4929 0.1477,-0.1199 0.3219,-0.2045 0.4939,-0.2677 0.1986,-0.073 0.4046,-0.1178 0.6055,-0.1367 0.1894,-0.0177 0.4049,-0.059 0.5546,0.0275 0.2105,0.1218 0.2992,0.2503 0.4626,0.427z" id="sudueste"/>
<path d="M72.477,70.943l-0.3126 -0.5314c0.7847,-0.6489 1.5604,-1.3093 2.3543,-1.9472 0.3391,-0.2725 0.6832,-0.5432 1.0431,-0.782 0.2126,-0.1412 0.4392,-0.2671 0.6628,-0.3496 0.256,-0.0944 0.5319,-0.1906 0.753,-0.1723 0.2674,0.0221 0.4913,0.1319 0.6494,0.2879l0.6546 0.6466 -0.4411 0.3496c-0.3087,-0.1398 -0.582,-0.3251 -0.9258,-0.4194 -0.1751,-0.0479 -0.3846,-0.0804 -0.6103,-0.001 -0.3612,0.1269 -0.7277,0.3517 -1.0669,0.5902 -0.4982,0.3501 -0.9616,0.757 -1.4212,1.1586l-1.3393 1.17zM77.483,72.638c-0.2494,-0.1735 -0.5807,-0.2625 -0.7483,-0.5208 -0.1282,-0.1976 -0.0122,-0.4407 -0.0183,-0.6612l1.9686 -1.4334 0.8654 0.3294 -2.1166 1.5532 0.0492 0.7328zm-0.7666 -1.182c-0.2181,-0.1237 -0.4491,-0.2217 -0.6545,-0.3713 -0.1956,-0.1425 -0.4876,-0.2667 -0.5387,-0.4974 -0.0596,-0.2698 0.0649,-0.5787 0.2733,-0.7042l1.8488 -1.111 0.0555 -0.3347 0.4614 0.3346 0.2799 0.1595c-0.7367,0.5459 -1.5586,0.9908 -2.21,1.6375 -0.1033,0.1026 -0.0513,0.3666 0.0715,0.4861 0.1376,0.1338 0.2752,0.2674 0.4128,0.4009zM79.721,72.43c0.2141,-0.18 0.4282,-0.3599 0.6423,-0.5401 0.127,0.2012 0.2541,0.4025 0.3814,0.6038 -0.1397,0.0784 -0.2793,0.1566 -0.4189,0.2349 0.2401,0.1595 0.4804,0.319 0.7207,0.4784 0.0809,-0.0505 0.1618,-0.1009 0.2429,-0.1515 0.0007,-0.2715 0.0013,-0.5429 0.0021,-0.8143 -0.1029,-0.1198 -0.2057,-0.2397 -0.3084,-0.3595 -0.3113,-0.1693 -0.6223,-0.3386 -0.9335,-0.5079 -0.0751,-0.0067 -0.1503,-0.0136 -0.2255,-0.0205 -0.3957,0.3281 -0.7915,0.6563 -1.1874,0.9844 -0.1069,0.1618 -0.2138,0.3236 -0.3208,0.4855 0.0212,0.2913 0.0424,0.5824 0.0635,0.8737 0.0994,0.2805 0.1989,0.5611 0.2984,0.8417 0.1468,0.1669 0.2936,0.3339 0.4405,0.5009 0.0961,0.0461 0.1922,0.0922 0.2883,0.1385 -0.0286,-0.0633 -0.0572,-0.1265 -0.0859,-0.1896 -0.0945,-0.2169 -0.189,-0.4339 -0.2833,-0.6507 -0.0382,-0.255 -0.0765,-0.5101 -0.1146,-0.765 0.0269,-0.2249 0.0537,-0.4498 0.0807,-0.6745 0.2391,-0.1561 0.4783,-0.3121 0.7175,-0.4682zM78.447,77.212l-0.3126 -0.5314c0.7847,-0.6489 1.5603,-1.3094 2.3542,-1.9473 0.3392,-0.2724 0.6833,-0.5432 1.0432,-0.7819 0.2126,-0.1412 0.4392,-0.2671 0.6627,-0.3496 0.2561,-0.0945 0.5323,-0.1906 0.7531,-0.1724 0.267,0.0222 0.7608,0.4704 0.8771,0.6601l0.2276 0.372 0.2604 0.9721 -0.5238 -0.1858c-0.094,-0.0425 -0.0344,-0.3452 -0.1678,-0.4854 -0.1332,-0.1399 -0.267,-0.2801 -0.3596,-0.3242 -0.1186,-0.0565 -0.243,-0.1072 -0.3768,-0.144 -0.1749,-0.048 -0.3846,-0.0804 -0.6103,-0.001 -0.3612,0.1268 -0.7278,0.3517 -1.067,0.5901 -0.4982,0.3502 -0.9616,0.7571 -1.4211,1.1587l-1.3393 1.17zM83.653,75.265l-0.6684 0.3976 -0.4287 -0.6077 -0.2354 -0.0121 0.4572 0.725c-0.6259,0.4226 -1.4265,0.6599 -1.9582,1.1968 -0.1778,0.1795 -0.3855,0.655 -0.1412,0.7725l0.6472 0.3114 0.0519 0.2363 0.2716 -0.2958 -0.1783 -0.1341c-0.0371,-0.1894 -0.2715,-0.4836 -0.1114,-0.5681l1.7089 -0.903 0.727 0.9555 0.1454 -0.1935 -0.6272 -0.9322 0.8076 -0.437 -0.468 -0.5116zM83.77,78.297c0.1858,-0.1388 0.5134,-0.6692 0.6608,-0.4316l0.2911 0.4695c-0.1149,0.0661 -0.2297,0.1322 -0.3445,0.1983 0.1894,0.1202 0.3788,0.2403 0.5682,0.3604 0.0667,-0.0423 0.177,-0.0471 0.2002,-0.1271 0.0575,-0.1984 0.0756,-0.4266 0.0243,-0.6475 -0.0265,-0.1139 -0.1398,-0.2108 -0.239,-0.2773 -0.2335,-0.1567 -0.4874,-0.2719 -0.739,-0.378 -0.0592,-0.025 -0.1354,-0.0419 -0.1814,-0.0101 -0.351,0.2426 -0.6776,0.5198 -0.9852,0.8155 -0.1137,0.1094 -0.2352,0.2307 -0.2723,0.3949 -0.0483,0.2146 -0.0488,0.4626 0.0271,0.6929 0.0725,0.2202 0.106,0.4522 0.2175,0.6609 0.0803,0.1503 0.2047,0.2862 0.3415,0.3861l0.6002 0.4381c-0.1452,-0.1615 -0.3174,-0.3027 -0.4355,-0.4843 -0.1018,-0.1565 -0.1665,-0.3352 -0.2105,-0.5095 -0.0509,-0.2014 -0.0735,-0.407 -0.0713,-0.6051 0.002,-0.1866 -0.0161,-0.4012 0.0837,-0.5385 0.1404,-0.1929 0.275,-0.2662 0.4641,-0.4076z" id="sueste"/>
<g transform="translate(62)">
<path d="M7.2,-3.4C6.6,-2.4 4.6,-.4 2.7,0C4.6,.4 6.6,2.4 7.2,3.4z" id="z0"/>
<use xlink:href="#z0" transform="scale(-1)"/>
<use xlink:href="#z0" transform="rotate(90)translate(-2)" id="z1"/>
<use xlink:href="#z1" transform="scale(-1)"/>
<line x1="-3" x2="3"/>
<line y1="-1" y2="1"/>
</g>
</g>
<path fill="#28166F" stroke="#1A1A1A" d="M-69.1213,-5.211c2.6215,0.3704 5.2303,0.8503 7.8645,1.1113 1.4113,0.1398 2.8381,0.0353 4.2557,0.0925 0.8645,0.0346 1.7867,-0.1362 2.5905,0.1856 0.398,0.1594 0.7684,0.7007 0.6478,1.1113 -0.1129,0.3846 -0.7346,0.326 -1.1107,0.4629 -0.3021,0.1101 -0.8539,-0.0352 -0.9251,0.2781 -0.3098,1.3541 0.115,2.7943 -0.0925,4.1689 -0.1961,1.304 -0.3105,2.7505 -1.11,3.7977 -0.6188,0.8115 -1.7592,1.2102 -2.776,1.297 -0.9032,0.0776 -1.7662,-0.4573 -2.5904,-0.8334 -0.6062,-0.2773 -1.2497,-0.592 -1.6654,-1.1121 -0.4819,-0.6047 -0.7522,-1.3767 -0.9251,-2.1303 -0.1108,-0.4819 -0.0995,-1.0267 0.0925,-1.4825 0.1693,-0.4008 0.4989,-0.8397 0.9251,-0.9258 0.8192,-0.1652 1.7359,-0.1101 2.4987,0.2314 0.5313,0.2385 1.6815,0.139 1.5969,0.7162 -0.0904,0.6132 -1.2504,0.2174 -1.7825,0.5342 -0.5243,0.3112 -0.8637,0.8644 -1.2949,1.297 0,0 0.1856,1.7605 0.7403,1.853 0.5546,0.0924 1.6646,0.8333 2.4048,0.5553 0.7402,-0.278 1.666,-0.7402 1.666,-1.2038 0,-0.4636 -0.1855,-6.3924 -0.1855,-6.3924 -0.7403,-0.2166 -1.4756,-0.453 -2.22,-0.6485 -1.1361,-0.2977 -2.2983,-0.4995 -3.4238,-0.8333 -0.851,-0.2526 -1.6879,-0.5638 -2.498,-0.9265l-2.6829 -1.2038z"/>
<text fill="#28166F" stroke="#28166F" font-size="15" transform="matrix(0 1.3 -1 0 -5.5 54)">O</text>
</g>
</svg>
