<?xml version="1.0" encoding="iso-8859-1"?>
<!-- Generator: Adobe Illustrator 19.0.0, SVG Export Plug-In . SVG Version: 6.00 Build 0)  -->
<svg version="1.1" id="Layer_1" xmlns="http://www.w3.org/2000/svg" xmlns:xlink="http://www.w3.org/1999/xlink" x="0px" y="0px"
	 viewBox="0 0 512 512" style="enable-background:new 0 0 512 512;" xml:space="preserve">
<g>
	<g>
		<path d="M503.467,247.467h-68.702c-4.361-91.989-78.242-165.871-170.232-170.231V8.533C264.533,3.823,260.719,0,256,0
			s-8.533,3.823-8.533,8.533v68.702c-91.989,4.361-165.871,78.242-170.231,170.231H8.533C3.814,247.467,0,251.29,0,256
			s3.814,8.533,8.533,8.533h68.702c4.361,91.989,78.242,165.871,170.231,170.232v68.702c0,4.71,3.814,8.533,8.533,8.533
			s8.533-3.823,8.533-8.533v-68.702c91.989-4.361,165.871-78.242,170.232-170.232h68.702c4.719,0,8.533-3.823,8.533-8.533
			S508.186,247.467,503.467,247.467z M247.467,417.698C164.89,413.372,98.628,347.11,94.302,264.533h17.067
			c4.284,73.173,62.925,131.814,136.098,136.098V417.698z M247.467,383.565c-63.77-4.233-114.799-55.27-119.031-119.031h119.031
			V383.565z M247.467,142.481l-49.766,74.65c-1.741,2.62-1.911,5.982-0.427,8.755c1.485,2.773,4.378,4.514,7.526,4.514h42.667
			v17.067H128.435c4.233-63.761,55.262-114.799,119.031-119.031V142.481z M247.467,111.369
			c-73.173,4.284-131.814,62.925-136.098,136.098H94.302C98.628,164.89,164.89,98.628,247.467,94.302V111.369z M264.533,230.4H307.2
			c3.149,0,6.042-1.732,7.526-4.506s1.314-6.144-0.427-8.755l-49.766-74.658v-14.054c63.77,4.241,114.799,55.279,119.031,119.04
			H264.533V230.4z M264.533,264.533h119.031c-4.233,63.761-55.262,114.799-119.031,119.031V264.533z M264.533,417.698v-17.067
			c73.173-4.284,131.814-62.925,136.098-136.098h17.067C413.372,347.11,347.11,413.372,264.533,417.698z M400.631,247.467
			c-4.284-73.173-62.925-131.814-136.098-136.098V94.302c82.577,4.326,148.838,70.588,153.165,153.165H400.631z"/>
	</g>
</g>
<g>
</g>
<g>
</g>
<g>
</g>
<g>
</g>
<g>
</g>
<g>
</g>
<g>
</g>
<g>
</g>
<g>
</g>
<g>
</g>
<g>
</g>
<g>
</g>
<g>
</g>
<g>
</g>
<g>
</g>
</svg>
