<?xml version="1.0" encoding="UTF-8" standalone="no"?>
<!-- Created with Inkscape (http://www.inkscape.org/) -->

<svg
   xmlns:dc="http://purl.org/dc/elements/1.1/"
   xmlns:cc="http://creativecommons.org/ns#"
   xmlns:rdf="http://www.w3.org/1999/02/22-rdf-syntax-ns#"
   xmlns:svg="http://www.w3.org/2000/svg"
   xmlns="http://www.w3.org/2000/svg"
   xmlns:sodipodi="http://sodipodi.sourceforge.net/DTD/sodipodi-0.dtd"
   xmlns:inkscape="http://www.inkscape.org/namespaces/inkscape"
   width="15.302748mm"
   height="97.837242mm"
   viewBox="0 0 15.302748 97.837242"
   version="1.1"
   id="svg845"
   inkscape:version="0.92.3 (2405546, 2018-03-11)"
   sodipodi:docname="esri_north_096_b.svg">
  <defs
     id="defs839" />
  <sodipodi:namedview
     id="base"
     pagecolor="#ffffff"
     bordercolor="#666666"
     borderopacity="1.0"
     inkscape:pageopacity="0.0"
     inkscape:pageshadow="2"
     inkscape:zoom="0.97458821"
     inkscape:cx="121.23894"
     inkscape:cy="185.79507"
     inkscape:document-units="mm"
     inkscape:current-layer="text1587"
     showgrid="false"
     inkscape:window-width="1366"
     inkscape:window-height="745"
     inkscape:window-x="0"
     inkscape:window-y="23"
     inkscape:window-maximized="1"
     fit-margin-top="0"
     fit-margin-left="0"
     fit-margin-right="0"
     fit-margin-bottom="0"
     showguides="true"
     inkscape:guide-bbox="true" />
  <metadata
     id="metadata842">
    <rdf:RDF>
      <cc:Work
         rdf:about="">
        <dc:format>image/svg+xml</dc:format>
        <dc:type
           rdf:resource="http://purl.org/dc/dcmitype/StillImage" />
        <dc:title></dc:title>
      </cc:Work>
    </rdf:RDF>
  </metadata>
  <g
     inkscape:label="Camada 1"
     inkscape:groupmode="layer"
     id="layer1"
     transform="translate(-8.5263186,-199.16136)">
    <g
       aria-label="2"
       style="font-style:normal;font-weight:normal;font-size:124.42774963px;line-height:1.25;font-family:sans-serif;letter-spacing:0px;word-spacing:0px;fill:#000000;fill-opacity:1;stroke:none;stroke-width:5.18448925"
       id="text1587">
      <g
         aria-label="C"
         style="font-style:normal;font-weight:normal;font-size:125.43235779px;line-height:1.25;font-family:sans-serif;letter-spacing:0px;word-spacing:0px;fill:#000000;fill-opacity:1;stroke:none;stroke-width:27.09594727"
         id="text1792">
        <path
           d="m 20.567825,241.43206 -4.390133,-42.2707 -4.515565,42.2707 4.139268,-1.75605 h 0.878027 z m 0,13.42126 -3.888403,1.75606 h -0.878027 l -4.139268,-1.75606 4.515565,42.14528 z m 3.261241,-6.77334 q 0,-1.37976 -0.752594,-2.63408 -0.627162,-1.25433 -1.756053,-2.25779 -1.128891,-1.00345 -2.508647,-1.50518 -1.379756,-0.62717 -2.63408,-0.62717 -1.379756,0 -2.759511,0.62717 -1.254324,0.50173 -2.383215,1.50518 -1.1288915,1.00346 -1.8814857,2.25779 -0.6271617,1.25432 -0.6271617,2.63408 0,1.25432 0.6271617,2.50864 0.7525942,1.25433 1.8814857,2.25779 1.128891,1.00346 2.383215,1.63062 1.379755,0.62716 2.759511,0.62716 1.254324,0 2.63408,-0.62716 1.379756,-0.62716 2.508647,-1.63062 1.128891,-1.00346 1.756053,-2.25779 0.752594,-1.25432 0.752594,-2.50864 z m -0.878026,0 q 0,2.25778 -2.257783,4.2647 -2.257782,1.88148 -4.515565,1.88148 -2.383214,0 -4.515565,-1.88148 -2.1323496,-2.00692 -2.1323496,-4.2647 0,-2.50865 2.1323496,-4.2647 2.132351,-1.75606 4.515565,-1.75606 2.257783,0 4.515565,1.75606 2.257783,1.75605 2.257783,4.2647 z m -3.512106,8.65483 -3.261242,34.87019 v -33.7413 z m 0,-17.18423 -3.261242,-1.63062 v -33.49044 z m 0.627161,12.16694 v -7.27508 h -1.505188 v 5.51902 l -5.017294,-5.51902 h -1.379756 v 7.27508 h 1.379756 v -5.26816 l 4.891862,5.26816 z"
           style="font-style:normal;font-variant:normal;font-weight:normal;font-stretch:normal;font-family:'ESRI North';-inkscape-font-specification:'ESRI North, ';stroke-width:27.09594727"
           id="path3629"
           inkscape:connector-curvature="0" />
      </g>
    </g>
  </g>
</svg>
