<?xml version="1.0" standalone="no"?>
<svg width="600" height="600" viewBox="-287 -287 574 574" xmlns="http://www.w3.org/2000/svg" xmlns:xlink="http://www.w3.org/1999/xlink">
<title>Ancient Mesopotamian symbol of sun god Shamash (Utu)</title>
<g fill="none" stroke="#000000" stroke-miterlimit="8">
<defs><path id="Wavy" stroke-width="23.9144" d="M112.019,-24.2286
C123.661,-24.2286,134.045,-18.5648,140.339,-15.7327
C146.632,-12.9011,157.016,-7.2369,168.658,-7.2369
C180.3,-7.2369,190.684,-12.9007,196.978,-15.7327
C203.271,-18.5644,213.655,-24.2286,225.297,-24.2286
C236.939,-24.2286,247.323,-18.5648,253.617,-15.7327
C259.91,-12.9011,270.294,-7.2369,281.936,-7.2369
C293.578,-7.2369,303.962,-12.9007,310.256,-15.7327
C316.549,-18.5644,326.933,-24.2286,338.575,-24.2286
C350.217,-24.2286,360.601,-18.5648,366.895,-15.7327
C373.188,-12.9011,383.572,-7.2369,395.214,-7.2369
C406.856,-7.2369,417.24,-12.9007,423.534,-15.7327
C429.827,-18.5644,440.211,-24.2286,451.853,-24.2286
M112.019,24.2286
C123.661,24.2286,134.045,29.8924,140.339,32.7244
C146.632,35.5561,157.016,41.2203,168.658,41.2203
C180.3,41.2203,190.684,35.5565,196.978,32.7244
C203.271,29.8928,213.655,24.2286,225.297,24.2286
C236.939,24.2286,247.323,29.8924,253.617,32.7244
C259.91,35.5561,270.294,41.2203,281.936,41.2203
C293.578,41.2203,303.962,35.5565,310.256,32.7244
C316.549,29.8928,326.933,24.2286,338.575,24.2286
C350.217,24.2286,360.601,29.8924,366.895,32.7244
C373.188,35.5561,383.572,41.2203,395.214,41.2203
C406.856,41.2203,417.24,35.5565,423.534,32.7244
C429.827,29.8928,440.211,24.2286,451.853,24.2286"/></defs>
<circle stroke-width="5.2" r="280.5"/>
<circle stroke-width="20.5" r="58.5"/>
<use xlink:href="#Wavy" transform="matrix(0.438202,0.438202,-0.561798,0.561798,0,0)"/>
<use xlink:href="#Wavy" transform="matrix(-0.438202,0.438202,-0.561798,-0.561798,0,0)"/>
<use xlink:href="#Wavy" transform="matrix(-0.438202,-0.438202,-0.561798,0.561798,0,0)"/>
<use xlink:href="#Wavy" transform="matrix(0.438202,-0.438202,-0.561798,-0.561798,0,0)"/>
<path stroke-width="18" d="M42.4258,42.4258L238,0L42.4258,-42.4258
M-42.4258,42.4258L0,238L42.4258,42.4258
M-42.4258,-42.4258L-238,0L-42.4258,42.4258
M42.4258,-42.4258L0,-238L-42.4258,-42.4258"/></g></svg>
