<?xml version="1.0" encoding="UTF-8" standalone="no"?>
<!-- Created with Inkscape (http://www.inkscape.org/) -->

<svg
   xmlns:dc="http://purl.org/dc/elements/1.1/"
   xmlns:cc="http://creativecommons.org/ns#"
   xmlns:rdf="http://www.w3.org/1999/02/22-rdf-syntax-ns#"
   xmlns:svg="http://www.w3.org/2000/svg"
   xmlns="http://www.w3.org/2000/svg"
   xmlns:sodipodi="http://sodipodi.sourceforge.net/DTD/sodipodi-0.dtd"
   xmlns:inkscape="http://www.inkscape.org/namespaces/inkscape"
   width="71.136002"
   height="111.6"
   id="svg2"
   version="1.1"
   inkscape:version="0.48.2 r9819"
   sodipodi:docname="esri_P.svg">
  <defs
     id="defs4" />
  <sodipodi:namedview
     id="base"
     pagecolor="#ffffff"
     bordercolor="#666666"
     borderopacity="1.0"
     inkscape:pageopacity="0.0"
     inkscape:pageshadow="2"
     inkscape:zoom="2.1200443"
     inkscape:cx="12.240558"
     inkscape:cy="10.342299"
     inkscape:document-units="px"
     inkscape:current-layer="text4345"
     showgrid="false"
     fit-margin-top="0"
     fit-margin-left="0"
     fit-margin-right="0"
     fit-margin-bottom="0"
     inkscape:window-width="1366"
     inkscape:window-height="744"
     inkscape:window-x="0"
     inkscape:window-y="24"
     inkscape:window-maximized="1" />
  <metadata
     id="metadata7">
    <rdf:RDF>
      <cc:Work
         rdf:about="">
        <dc:format>image/svg+xml</dc:format>
        <dc:type
           rdf:resource="http://purl.org/dc/dcmitype/StillImage" />
        <dc:title></dc:title>
      </cc:Work>
    </rdf:RDF>
  </metadata>
  <g
     inkscape:label="Camada 1"
     inkscape:groupmode="layer"
     id="layer1"
     transform="translate(-251.41528,189.43421)">
    <g
       transform="matrix(0.41078599,0,0,0.37219576,292.66667,-130.04564)"
       style="font-size:144px;font-style:normal;font-variant:normal;font-weight:normal;font-stretch:normal;line-height:125%;letter-spacing:0px;word-spacing:0px;fill:#000000;fill-opacity:1;stroke:none;font-family:Arial;-inkscape-font-specification:Arial"
       id="text4345">
      <g
         id="g4443">
        <g
           id="text4429"
           style="fill:#000000;font-family:Arial;-inkscape-font-specification:Arial"
           transform="matrix(2.4343576,0,0,2.6867582,-157.25651,-131.60088)">
          <path
             sodipodi:nodetypes="cccccccccccccccccccccccc"
             inkscape:connector-curvature="0"
             id="path4434"
             style="font-family:ESRI North;-inkscape-font-specification:ESRI North"
             d="m 94.483378,101.19272 -71.136,0 1.44,-4.752001 -1.44,0 22.176,-63.792 -9.072,0 2.592,-4.752 -2.592,0 21.6,-38.304 21.168,38.16 -2.16,0 2.16,4.896 -9.648,0 24.912,64.224 -1.44,0 1.44,4.320001 m -2.016,-6.192001 -26.64,-68.112 11.52,0 -19.296,-34.8480005 -19.728,34.4160005 10.944,0 -24.192,68.544 67.392,0" />
        </g>
        <g
           id="text4436"
           style="fill:#000000;font-family:Arial;-inkscape-font-specification:Arial"
           transform="matrix(0.9296697,0,0,0.604629,9.4421762,7.9129625)">
          <path
             inkscape:connector-curvature="0"
             id="path4441"
             d="m -66.744667,172.23544 0,-103.078122 13.992187,0 54.1406254,80.929692 0,-80.929692 13.0781246,0 0,103.078122 -13.99218705,0 -54.14062495,-80.999997 0,80.999997 -13.078125,0" />
        </g>
      </g>
    </g>
  </g>
</svg>
