<?xml version="1.0" encoding="UTF-8" standalone="no"?>
<!-- Created with Inkscape (http://www.inkscape.org/) -->

<svg
   xmlns:dc="http://purl.org/dc/elements/1.1/"
   xmlns:cc="http://creativecommons.org/ns#"
   xmlns:rdf="http://www.w3.org/1999/02/22-rdf-syntax-ns#"
   xmlns:svg="http://www.w3.org/2000/svg"
   xmlns="http://www.w3.org/2000/svg"
   xmlns:sodipodi="http://sodipodi.sourceforge.net/DTD/sodipodi-0.dtd"
   xmlns:inkscape="http://www.inkscape.org/namespaces/inkscape"
   width="96.98011mm"
   height="97.602577mm"
   viewBox="0 0 96.98011 97.602577"
   version="1.1"
   id="svg845"
   inkscape:version="0.92.3 (2405546, 2018-03-11)"
   sodipodi:docname="esri_north_046_b.svg">
  <defs
     id="defs839" />
  <sodipodi:namedview
     id="base"
     pagecolor="#ffffff"
     bordercolor="#666666"
     borderopacity="1.0"
     inkscape:pageopacity="0.0"
     inkscape:pageshadow="2"
     inkscape:zoom="0.97458821"
     inkscape:cx="63.9579"
     inkscape:cy="188.66137"
     inkscape:document-units="mm"
     inkscape:current-layer="text1587"
     showgrid="false"
     inkscape:window-width="1366"
     inkscape:window-height="745"
     inkscape:window-x="0"
     inkscape:window-y="23"
     inkscape:window-maximized="1"
     fit-margin-top="0"
     fit-margin-left="0"
     fit-margin-right="0"
     fit-margin-bottom="0"
     showguides="true"
     inkscape:guide-bbox="true" />
  <metadata
     id="metadata842">
    <rdf:RDF>
      <cc:Work
         rdf:about="">
        <dc:format>image/svg+xml</dc:format>
        <dc:type
           rdf:resource="http://purl.org/dc/dcmitype/StillImage" />
        <dc:title></dc:title>
      </cc:Work>
    </rdf:RDF>
  </metadata>
  <g
     inkscape:label="Camada 1"
     inkscape:groupmode="layer"
     id="layer1"
     transform="translate(-0.38185358,-199.39602)">
    <g
       aria-label="2"
       style="font-style:normal;font-weight:normal;font-size:124.42774963px;line-height:1.25;font-family:sans-serif;letter-spacing:0px;word-spacing:0px;fill:#000000;fill-opacity:1;stroke:none;stroke-width:5.18448925"
       id="text1587">
      <g
         aria-label=":"
         style="font-style:normal;font-weight:normal;font-size:124.49308014px;line-height:1.25;font-family:sans-serif;letter-spacing:0px;word-spacing:0px;fill:#000000;fill-opacity:1;stroke:none;stroke-width:26.89304352"
         id="text1792">
        <path
           d="m 53.789385,220.06187 -2.489862,-7.96755 -2.738847,7.96755 q -4.108272,0.49797 -7.345092,1.74291 -5.104216,1.7429 -8.590023,5.10421 -3.361313,3.36132 -5.477695,7.09611 -1.991889,3.73479 -2.863341,7.0961 -0.746959,3.23682 -0.622465,4.73074 l -7.220599,1.99189 7.220599,2.73885 q 0.124493,1.99189 0.497972,3.98378 0.373479,1.86739 1.244931,3.6103 1.61841,3.4858 3.983778,6.59813 2.365369,2.98783 5.353203,5.3532 2.987834,2.36537 6.47364,3.85929 3.610299,1.49391 7.594078,1.61841 l 2.489861,7.84306 2.738848,-7.84306 q 4.730737,-0.49798 9.087995,-2.61436 4.357258,-2.24087 7.718571,-5.60219 3.361313,-3.4858 5.477695,-7.84306 2.240876,-4.35726 2.863341,-9.21249 l 7.345092,-2.48986 -7.345092,-2.36537 q -0.124493,-4.48175 -2.365368,-8.9635 -2.240876,-4.48175 -5.851175,-7.96756 -3.485806,-3.6103 -8.09205,-5.85117 -4.481751,-2.36537 -9.087995,-2.61436 z m -39.962279,23.03122 h -2.116382 l -1.493917,7.2206 -1.7429032,-7.2206 H 5.6105629 l -1.61841,7.09611 -1.493917,-7.09611 H 0.38185358 l 2.36536852,10.20844 h 2.3653685 l 1.8673962,-7.71858 1.8673962,7.71858 h 2.614355 z m 27.139492,26.89051 5.975668,-10.95539 4.232764,12.5738 v 0.74696 q -5.975668,0 -10.208432,-2.36537 z m 10.457418,-46.68491 q 5.22871,0 10.08394,2.24088 l -5.975668,11.07988 -4.108272,-12.44931 z m 4.108272,35.85401 5.975668,11.07988 q -5.726682,2.11639 -10.08394,2.11639 v -0.74696 z m 13.569746,5.72668 -0.248986,0.24899 -0.746959,-0.74696 -5.975668,-11.95134 12.075829,4.73074 q -0.871451,2.11638 -2.116382,3.98378 -1.120438,1.8674 -2.987834,3.73479 z m -6.47364,-21.41281 11.453363,-4.85523 q 0.995945,2.24088 1.369424,4.48175 0.497972,2.24088 0.497972,4.60625 h -0.746958 q -1.369424,-0.24899 -4.232765,-1.12044 -2.738848,-0.87145 -8.341036,-3.11233 z m -22.408755,0 -12.573801,4.23277 H 26.89888 q 0,-4.23277 1.742903,-9.21249 z M 69.35102,231.01726 q 1.61841,1.99189 2.614355,3.6103 1.120437,1.49392 1.991889,3.48581 l -11.70235,4.85523 q 1.493917,-2.98783 2.489862,-4.97972 0.995945,-2.11639 1.61841,-3.36132 0.746959,-1.36942 1.120438,-2.11638 0.497972,-0.87145 0.871451,-1.49392 l 0.497973,-0.49797 z m -40.584744,26.26804 11.453363,-4.48175 -5.602188,11.45337 -0.746959,0.74695 q -3.485806,-3.36131 -5.104216,-7.71857 z m 13.320759,-31.99472 q 3.983779,-1.99189 9.087995,-1.99189 v 0.87145 l -4.108271,12.32482 z m -1.742903,26.76601 -11.826842,4.73074 q -1.61841,-3.36131 -1.61841,-8.83901 h 0.746958 z m 0.248986,-8.9635 -11.702349,-5.10421 q 1.61841,-3.85929 5.104216,-7.2206 l 0.622466,0.49797 q 1.742903,3.36131 3.112327,6.34915 1.369424,2.98783 2.86334,5.47769 z m 33.737625,13.56975 -11.702349,-4.73074 12.573801,-3.98378 h 0.746958 q 0,5.10422 -1.61841,8.71452 z m -27.637464,-19.66991 -11.826842,-5.97567 -0.622466,-0.49797 q 2.987834,-2.98783 7.345092,-4.97972 z m 2.863341,-27.26398 v -6.59814 l 3.983779,6.59814 h 2.116382 v -10.33293 h -1.867396 v 6.72263 l -4.232765,-6.72263 h -2.116382 v 10.33293 z m 12.573801,60.13015 -6.224654,-11.20437 11.826843,5.85117 0.871451,0.87145 q -2.987833,2.98784 -6.47364,4.48175 z m 0,-44.07055 q 3.6103,1.61841 6.47364,4.48176 l -0.497972,0.62246 -12.075829,6.10016 z m -15.810621,33.11516 -5.851175,10.8309 q -1.742903,-0.74696 -3.361313,-1.7429 -1.61841,-1.12044 -2.987834,-2.73885 l 0.746959,-0.74696 z m 0.871452,34.60908 q 0.124493,3.48581 4.357258,3.48581 4.108271,0 4.108271,-3.11233 0,-1.61841 -1.369424,-2.61436 -0.871451,-0.37347 -2.489861,-0.62246 -1.61841,-0.37348 -1.867397,-0.62247 -0.124493,-0.37348 -0.248986,-0.49797 0,-0.24898 0,-0.24898 0,-0.37348 0.248986,-0.62247 0.37348,-0.49797 1.369424,-0.49797 0.995945,0 1.369424,0.49797 0.497973,0.37348 0.746959,1.12044 l 1.867396,-0.1245 q -0.124493,-1.49391 -0.995945,-2.36536 -0.871451,-0.99595 -2.987834,-0.99595 -3.734792,0 -3.734792,3.11233 0,0.99594 0.995945,1.99189 0.622465,0.62246 2.365368,1.12044 1.369424,0.24898 1.742903,0.37347 1.120438,0.37348 1.120438,0.99595 0,1.24493 -2.240875,1.24493 -0.995945,0 -1.618411,-0.37348 -0.497972,-0.37348 -0.622465,-1.49392 z m 50.170711,-40.21126 v -1.74291 h -5.851175 v -2.73885 h 5.22871 v -1.7429 h -5.22871 v -2.36537 h 5.602189 v -1.61841 h -7.718571 v 10.20844 z m -57.515803,18.79845 0.746958,-1.36942 q 4.606244,2.61435 10.581912,2.61435 v 1.36942 q -3.23682,0 -5.975668,-0.62246 -2.738847,-0.62247 -5.353202,-1.99189 z m 30.625298,-5.3532 -1.120438,-1.12044 q 1.742903,-1.7429 3.112327,-3.85929 1.493917,-2.11638 2.489862,-4.35725 l 1.369423,0.62246 q -0.995944,2.48986 -2.614354,4.73074 -1.493917,2.11638 -3.23682,3.98378 z m -28.882395,-42.45214 -0.622465,-1.49392 q 1.991889,-0.99594 4.606244,-1.49392 2.614354,-0.49797 5.602188,-0.49797 v 1.49392 q -5.602188,0 -9.585967,1.99189 z m 34.982556,33.23965 -1.369424,-0.62247 q 0.746958,-2.11638 1.244931,-4.23276 0.497972,-2.11638 0.497972,-4.73074 h 1.61841 q 0,5.72668 -1.991889,9.58597 z M 51.17503,236.37047 q -1.493917,0 -3.361313,0.62246 L 51.17503,226.7845 Z m 1.244931,-14.06772 h -0.995945 v -1.49392 q 5.851175,0 11.204378,2.73885 l -0.622466,1.12044 q -2.489861,-1.12044 -4.85523,-1.74291 -2.365368,-0.62246 -4.730737,-0.62246 z m 7.469585,25.89456 q -0.124493,1.7429 -0.746959,2.98783 -0.497972,1.24493 -1.493917,2.48986 l -2.365368,-2.24087 q 1.120438,-1.12044 1.369424,-3.23682 z m 6.47364,14.3167 -6.722626,-6.47364 q 1.369424,-1.36942 1.991889,-2.86334 z M 40.593118,251.43413 30.384686,248.07282 h 9.585967 q 0,0.87145 0.124493,1.7429 0.124493,0.87145 0.497972,1.61841 z m 5.477696,6.59813 -9.336981,4.60625 6.598133,-6.59814 z m 13.818732,-10.58191 h -3.23682 q -0.124493,-1.24493 -1.369424,-3.23682 l 2.365368,-1.99189 q 1.99189,1.8674 2.240876,5.22871 z m 12.449308,0.24899 H 62.87738 q 0,-1.8674 -0.497973,-3.36132 z m -20.914838,25.64557 q 5.851175,0 10.457419,-2.36537 l 0.746959,1.24493 q -5.353203,2.48986 -11.204378,2.48986 z m 14.565691,-40.21126 -6.84712,6.47364 q -0.622465,-0.99595 -2.738847,-1.99189 z m -39.464307,25.02311 1.493917,-0.49798 q 1.61841,4.10827 5.353203,7.84307 l -1.120438,1.12043 q -3.361313,-3.36131 -5.726682,-8.46552 z m 30.500805,-3.85929 q -1.867396,1.8674 -5.228709,2.11638 v -3.36131 q 1.867396,-0.24899 2.738847,-1.12044 z m -16.433087,-31.24776 0.622466,1.49391 q -4.108272,1.61841 -7.718571,5.22871 l -1.120438,-1.12043 q 1.867396,-1.8674 3.859286,-3.23682 2.116382,-1.36943 4.357257,-2.36537 z m 2.614355,16.93106 q -0.995944,0.74695 -1.867396,2.73884 L 36.60934,233.25814 Z M 26.5254,237.4909 l 1.369424,0.62247 q -1.991889,4.35726 -1.991889,9.58597 h -1.493917 q 0,-2.36537 0.497972,-4.85523 0.497973,-2.61436 1.61841,-5.35321 z m 24.276151,18.79846 q -1.61841,-0.24899 -2.987834,-0.62247 -1.244931,-0.49797 -2.116382,-1.49391 l 2.116382,-2.48986 q 1.61841,1.24493 2.987834,1.36942 z m 25.272095,-19.17194 -1.369424,0.62247 q -2.116382,-4.48175 -5.353202,-7.71857 l 0.995945,-0.99595 q 3.734792,3.48581 5.726681,8.09205 z m -28.508915,7.09611 q -1.493917,1.49392 -1.493917,3.23682 H 43.08298 q 0,-3.36131 2.240876,-5.22871 z m 27.388478,-5.97567 1.369423,-0.62246 q 1.99189,5.22871 2.240876,10.08394 h -1.61841 q 0,-5.60219 -1.991889,-9.46148 z m -20.292372,20.54136 -3.112327,9.95945 v -9.46148 q 1.991889,0 3.112327,-0.49797 z m -26.890506,-1.61841 -1.493917,0.49797 q -0.871451,-2.11638 -1.369424,-4.48175 -0.497972,-2.36537 -0.497972,-5.22871 h 1.493917 q 0,2.86334 0.373479,5.10422 0.497973,2.11638 1.493917,4.10827 z m 0.248986,-19.54541 -1.24493,-0.62247 q 0.995944,-2.11638 2.240875,-4.23276 1.369424,-2.11639 3.112327,-3.85929 l 1.120438,1.12044 q -1.742903,1.7429 -2.987834,3.6103 -1.244931,1.86739 -2.240876,3.98378 z m 29.006888,3.98378 -2.489862,1.99188 q -1.120437,-0.74695 -2.738847,-0.87145 v -3.36131 q 2.987834,0.37348 5.228709,2.24088 z m -9.71046,9.71046 -2.116383,2.11638 q -1.867396,-1.8674 -2.116382,-5.22871 h 2.987834 q 0,1.49392 1.244931,3.11233 z m 3.485806,-8.59003 q -0.871452,0.1245 -1.493917,0.37348 -0.622465,0.24899 -1.120438,0.49797 l -2.240875,-2.11638 q 1.742903,-1.7429 4.85523,-2.11638 z m -10.706405,27.76196 -0.871451,1.36942 q -3.485807,-1.7429 -6.722627,-4.97972 l 1.120438,-1.12044 q 1.369424,1.61841 2.987834,2.73885 1.61841,0.99595 3.485806,1.99189 z m 23.03122,1.49392 -0.622465,-1.36943 q 2.116382,-1.24493 3.734792,-2.24087 1.61841,-1.12044 2.863341,-2.48986 l 1.120438,1.12043 q -1.742904,1.49392 -3.485807,2.73885 -1.61841,1.24493 -3.610299,2.24088 z m -0.622465,-47.05839 0.622465,-1.12043 q 2.116382,0.99594 3.859285,2.36536 1.742904,1.24493 3.112327,2.61436 l -0.995944,0.99594 q -1.369424,-1.36942 -2.987834,-2.61435 -1.61841,-1.24493 -3.610299,-2.24088 z m -0.37348,23.28021 q -0.248986,2.11638 -0.995944,3.73479 -0.746959,1.49392 -2.116383,3.23682 l -0.622465,-0.74696 q 1.991889,-2.61435 2.614355,-6.22465 z m -3.734792,7.59408 q -2.987834,2.24087 -6.598133,2.61435 v -1.12044 q 3.361313,-0.49797 5.851174,-2.24087 z m 0,-15.81062 -0.622465,0.87145 q -1.369424,-0.99595 -2.738848,-1.49392 -1.369424,-0.62247 -3.23682,-0.87145 v -1.12044 q 1.867396,0.24899 3.485806,0.87145 1.61841,0.62247 3.112327,1.74291 z m 3.734792,7.46958 h -1.120437 q -0.37348,-3.36131 -2.614355,-5.97567 l 0.622465,-0.74696 q 2.614355,2.98784 3.112327,6.72263 z M 44.70139,241.35019 q -2.489861,2.48986 -2.863341,6.10016 h -0.871451 q 0,-1.99189 0.746958,-3.6103 0.871452,-1.61841 2.240876,-3.11233 z m 6.100161,17.05555 q -4.108272,-0.62246 -6.349147,-2.86334 l 0.622465,-0.74696 q 1.120438,1.24493 2.489862,1.74291 1.493917,0.49797 3.23682,0.74695 z m 0,-19.91889 q -3.361313,0.37348 -5.477695,2.24087 l -0.622466,-0.74695 q 1.120438,-1.12044 2.738848,-1.74291 1.61841,-0.62246 3.361313,-0.87145 z m -6.349147,15.68613 -0.746959,0.62246 q -2.365368,-2.73885 -2.738847,-6.59813 h 0.995944 q 0.124493,1.86739 0.622466,3.23682 0.497972,1.36942 1.867396,2.73885 z"
           style="font-style:normal;font-variant:normal;font-weight:normal;font-stretch:normal;font-family:'ESRI North';-inkscape-font-specification:'ESRI North, ';stroke-width:26.89304352"
           id="path4508"
           inkscape:connector-curvature="0" />
      </g>
    </g>
  </g>
</svg>
