<?xml version="1.0" encoding="iso-8859-1"?>
<!-- Generator: Adobe Illustrator 19.0.0, SVG Export Plug-In . SVG Version: 6.00 Build 0)  -->
<svg version="1.1" id="Layer_1" xmlns="http://www.w3.org/2000/svg" xmlns:xlink="http://www.w3.org/1999/xlink" x="0px" y="0px"
	 viewBox="0 0 512.005 512.005" style="enable-background:new 0 0 512.005 512.005;" xml:space="preserve">
<g>
	<g>
		<path d="M418.136,358.4h-44.621L264.152,6.007C263.043,2.432,259.74,0,256.003,0s-7.04,2.432-8.149,6.007L138.49,358.4H93.869
			c-4.719,0-8.533,3.823-8.533,8.533s3.814,8.533,8.533,8.533h39.322L94.253,500.941c-0.896,2.901-0.188,6.067,1.877,8.311
			c2.057,2.236,5.137,3.209,8.124,2.551l143.215-31.829v23.492c0,4.71,3.814,8.533,8.533,8.533s8.533-3.823,8.533-8.533v-23.492
			l143.215,31.821c0.614,0.137,1.237,0.205,1.852,0.205c2.355,0,4.642-0.981,6.272-2.756c2.065-2.236,2.773-5.402,1.877-8.311
			l-38.938-125.466h39.322c4.719,0,8.533-3.823,8.533-8.533S422.855,358.4,418.136,358.4z M247.469,462.49l-132.557,29.457
			l36.147-116.48h28.646c3.951,35.533,32.222,63.812,67.763,67.763V462.49z M247.469,290.637
			c-35.541,3.951-63.812,32.23-67.763,67.763h-23.347l91.11-293.581V290.637z M264.536,64.819l91.11,293.581h-23.347
			c-3.951-35.533-32.222-63.812-67.763-67.763V64.819z M397.093,491.947L264.536,462.49v-19.26
			c35.541-3.951,63.812-32.23,67.763-67.763h28.646L397.093,491.947z"/>
	</g>
</g>
<g>
</g>
<g>
</g>
<g>
</g>
<g>
</g>
<g>
</g>
<g>
</g>
<g>
</g>
<g>
</g>
<g>
</g>
<g>
</g>
<g>
</g>
<g>
</g>
<g>
</g>
<g>
</g>
<g>
</g>
</svg>
