<?xml version="1.0" encoding="UTF-8" standalone="no"?>
<!-- Created with Inkscape (http://www.inkscape.org/) -->

<svg
   xmlns:dc="http://purl.org/dc/elements/1.1/"
   xmlns:cc="http://creativecommons.org/ns#"
   xmlns:rdf="http://www.w3.org/1999/02/22-rdf-syntax-ns#"
   xmlns:svg="http://www.w3.org/2000/svg"
   xmlns="http://www.w3.org/2000/svg"
   xmlns:sodipodi="http://sodipodi.sourceforge.net/DTD/sodipodi-0.dtd"
   xmlns:inkscape="http://www.inkscape.org/namespaces/inkscape"
   width="56.304001"
   height="112.17599"
   id="svg2"
   version="1.1"
   inkscape:version="0.48.2 r9819"
   sodipodi:docname="esri_W.svg">
  <defs
     id="defs4" />
  <sodipodi:namedview
     id="base"
     pagecolor="#ffffff"
     bordercolor="#666666"
     borderopacity="1.0"
     inkscape:pageopacity="0.0"
     inkscape:pageshadow="2"
     inkscape:zoom="4.2400885"
     inkscape:cx="17.678859"
     inkscape:cy="58.515522"
     inkscape:document-units="px"
     inkscape:current-layer="text4345"
     showgrid="false"
     fit-margin-top="0"
     fit-margin-left="0"
     fit-margin-right="0"
     fit-margin-bottom="0"
     inkscape:window-width="1366"
     inkscape:window-height="744"
     inkscape:window-x="0"
     inkscape:window-y="24"
     inkscape:window-maximized="1" />
  <metadata
     id="metadata7">
    <rdf:RDF>
      <cc:Work
         rdf:about="">
        <dc:format>image/svg+xml</dc:format>
        <dc:type
           rdf:resource="http://purl.org/dc/dcmitype/StillImage" />
        <dc:title></dc:title>
      </cc:Work>
    </rdf:RDF>
  </metadata>
  <g
     inkscape:label="Camada 1"
     inkscape:groupmode="layer"
     id="layer1"
     transform="translate(-245.97698,5.8857315)">
    <g
       transform="matrix(0.41078599,0,0,0.37219576,292.66667,-130.04564)"
       style="font-size:144px;font-style:normal;font-variant:normal;font-weight:normal;font-stretch:normal;line-height:125%;letter-spacing:0px;word-spacing:0px;fill:#000000;fill-opacity:1;stroke:none;font-family:Arial;-inkscape-font-specification:Arial"
       id="text4345">
      <g
         id="g4677">
        <g
           id="text4663"
           style="fill:#000000;font-family:Arial;-inkscape-font-specification:Arial"
           transform="matrix(2.4343576,0,0,2.6867582,-55.672371,287.05664)">
          <path
             sodipodi:nodetypes="ccccccccccccccccccccccc"
             inkscape:connector-curvature="0"
             id="path4668"
             style="font-family:ESRI North;-inkscape-font-specification:ESRI North"
             d="m 17.939743,46.838644 0,29.376 -27.2160002,0 0,-29.376 -14.5439998,0 28.0799998,-29.52 28.2240002,29.52 -14.544,0 m -27.2160002,57.023996 0,-24.623996 27.2160002,0 0,24.623996 -27.2160002,0 m 0,15.984 0,-11.952 27.2160002,0 0,11.952 -27.2160002,0 m 0,9.648 0,-5.616 27.2160002,0 0,5.616 -27.2160002,0" />
        </g>
        <g
           id="text4670"
           style="fill:#ffffff;font-family:Arial;-inkscape-font-specification:Arial"
           transform="matrix(0.64574842,0,0,0.47986361,-8.6703058,502.8425)">
          <path
             style="fill:#ffffff"
             inkscape:connector-curvature="0"
             id="path4675"
             d="m -96.340332,115.57985 0,-103.078126 13.992187,0 54.140625,80.929688 0,-80.929688 13.078125,0 0,103.078126 -13.992187,0 -54.140625,-81.000001 0,81.000001 -13.078125,0" />
        </g>
      </g>
    </g>
  </g>
</svg>
