<?xml version="1.0" standalone="no"?>
<!DOCTYPE svg PUBLIC "-//W3C//DTD SVG 20010904//EN"
 "http://www.w3.org/TR/2001/REC-SVG-20010904/DTD/svg10.dtd">
<svg version="1.0" xmlns="http://www.w3.org/2000/svg"
 width="1280.000000pt" height="1278.000000pt" viewBox="0 0 1280.000000 1278.000000"
 preserveAspectRatio="xMidYMid meet">
<g transform="translate(0.000000,1278.000000) scale(0.100000,-0.100000)"
fill="#000000" stroke="none">
<path d="M6200 12355 l0 -425 55 0 55 0 2 339 3 340 215 -340 215 -339 62 0
63 0 0 425 0 425 -55 0 -55 0 -2 -339 -3 -340 -215 340 -215 339 -62 0 -63 0
0 -425z"/>
<path d="M6231 10243 c-166 -835 -305 -1528 -309 -1541 -6 -20 -65 62 -397
557 -214 319 -390 579 -392 578 -2 -2 87 -455 279 -1417 14 -69 24 -126 23
-128 -2 -2 -488 320 -1082 715 -593 396 -1085 723 -1093 728 -19 12 -90 120
728 -1105 387 -580 707 -1060 709 -1067 3 -8 -12 -8 -59 3 -143 31 -1482 294
-1485 291 -1 -2 256 -176 573 -387 316 -212 577 -387 580 -391 2 -4 -679 -142
-1514 -308 -834 -166 -1527 -305 -1540 -309 -15 -5 515 -114 1500 -311 838
-167 1531 -307 1541 -310 14 -5 -133 -107 -563 -395 -320 -213 -580 -389 -578
-391 1 -2 23 1 48 7 142 31 1495 296 1498 293 2 -2 -322 -491 -720 -1087 -398
-595 -725 -1087 -727 -1091 -2 -5 490 320 1093 722 834 556 1095 726 1091 709
-21 -89 -303 -1533 -300 -1536 2 -2 9 6 15 18 6 12 181 274 388 583 330 492
377 558 383 536 5 -13 144 -705 310 -1537 166 -832 304 -1511 305 -1509 2 2
141 691 308 1531 168 841 307 1531 310 1533 2 2 170 -242 372 -544 455 -678
417 -624 411 -593 -3 14 -71 358 -152 765 -80 407 -148 748 -151 758 -3 11
460 -292 1090 -712 603 -402 1096 -729 1096 -726 0 2 -327 493 -726 1090 -399
598 -724 1088 -722 1090 3 3 1454 -280 1531 -299 9 -2 15 -1 13 3 -3 4 -264
180 -581 391 -425 283 -572 386 -558 390 10 4 703 144 1540 311 837 167 1520
305 1519 306 -2 2 -693 141 -1537 309 -844 168 -1535 307 -1537 309 -2 2 257
178 577 391 320 213 580 389 578 390 -3 3 -168 -29 -1122 -219 -231 -46 -422
-82 -423 -81 -2 1 320 488 715 1081 396 593 723 1084 728 1092 11 19 119 90
-1099 -722 -593 -395 -1079 -717 -1080 -715 -2 2 66 347 150 768 84 421 152
769 150 775 -1 5 -13 -9 -27 -31 -51 -83 -751 -1125 -754 -1122 -2 2 -141 694
-310 1538 -169 844 -308 1536 -309 1538 -2 1 -139 -681 -305 -1515z m319
-3727 c0 -8 8 -13 18 -12 11 1 16 -5 14 -16 -2 -11 3 -18 13 -18 18 0 20 -16
3 -27 -7 -4 -13 -15 -13 -23 0 -9 -7 -14 -17 -12 -11 2 -18 -3 -18 -13 0 -8
-7 -15 -15 -15 -8 0 -15 6 -15 14 0 8 -8 13 -17 12 -11 0 -17 6 -17 17 1 9 -4
17 -12 17 -8 0 -14 7 -14 15 0 8 7 15 15 15 10 0 15 7 13 18 -2 11 3 17 15 16
9 -1 17 4 17 12 0 8 7 14 15 14 8 0 15 -6 15 -14z"/>
<path d="M3 6866 c7 -18 217 -822 217 -830 0 -4 28 -6 62 -4 l61 3 91 342 c79
296 106 382 106 331 0 -6 41 -161 92 -345 l92 -333 58 0 57 0 10 38 c6 20 52
197 104 392 52 195 98 370 102 388 l7 32 -54 0 -54 0 -79 -302 c-43 -167 -83
-319 -88 -338 -9 -33 -13 -23 -59 145 -27 99 -69 250 -92 335 l-44 155 -62 0
-63 0 -88 -330 c-48 -181 -88 -332 -89 -335 -1 -4 -89 333 -152 583 l-22 87
-59 0 c-46 0 -58 -3 -54 -14z"/>
<path d="M12180 6455 l0 -425 310 0 310 0 0 55 0 55 -250 0 -250 0 0 140 0
140 225 0 225 0 0 50 0 50 -225 0 -225 0 0 130 0 130 245 0 245 0 0 50 0 50
-305 0 -305 0 0 -425z"/>
<path d="M6444 891 c-56 -14 -126 -55 -156 -91 -28 -34 -58 -114 -58 -154 0
-40 21 -95 47 -126 35 -42 77 -61 227 -104 71 -21 146 -46 167 -56 113 -58
104 -176 -17 -236 -135 -66 -303 -9 -329 111 -3 17 -8 40 -11 53 -4 21 -9 23
-57 20 -51 -3 -52 -3 -49 -33 7 -80 26 -120 82 -177 48 -48 68 -60 130 -79
275 -83 531 133 419 353 -29 57 -82 85 -246 132 -203 58 -239 79 -249 147 -7
49 23 99 77 126 129 66 269 20 301 -101 l12 -46 54 0 55 0 -7 41 c-14 87 -75
162 -164 201 -49 22 -177 33 -228 19z"/>
</g>
</svg>
