<?xml version="1.0" standalone="no"?>
<!DOCTYPE svg PUBLIC "-//W3C//DTD SVG 1.1//EN" "http://www.w3.org/Graphics/SVG/1.1/DTD/svg11.dtd">
<!--Generator: Xara Designer (www.xara.com), SVG filter version: 6.1.0.16-->
<svg stroke-width="0.501" stroke-linejoin="bevel" fill-rule="evenodd" xmlns:xlink="http://www.w3.org/1999/xlink" xmlns="http://www.w3.org/2000/svg" version="1.1" overflow="visible" width="720pt" height="720pt" viewBox="0 0 720 720">
 <defs>
	</defs>
 <g id="Document" fill="none" stroke="black" font-family="Times New Roman" font-size="16" transform="scale(1 -1)">
  <g id="Spread" transform="translate(0 -720)">
   <g id="Layer 1">
    <path d="M 360.001,7.5 L 344.716,156.719 C 322.768,158.291 300.99,163.278 280.237,171.726 L 277.11,167.389 L 277.964,172.667 C 256.969,181.496 237.071,193.897 219.159,209.91 L 128.979,136.489 L 202.39,226.653 C 186.466,244.434 174.044,264.352 165.176,285.472 L 159.881,284.615 L 164.235,287.757 C 155.835,308.426 150.819,330.201 149.228,352.214 L 0,367.504 L 149.216,382.785 C 150.788,404.726 155.775,426.511 164.225,447.264 L 159.884,450.396 L 165.169,449.539 C 173.998,470.529 186.397,490.428 202.405,508.334 L 128.986,598.522 L 219.152,525.106 C 229.995,534.818 241.635,543.226 253.854,550.32 C 248.545,568.457 259.479,582.024 289.489,575.256 C 288.176,591.838 297.923,597.761 312.34,599.196 C 325.288,596.585 329.814,588.135 322.566,581.35 C 321.632,578.59 322.948,577.62 324.964,577.217 C 332.327,577.817 336.844,585.535 340.631,595.061 C 340.943,595.493 341.257,595.887 341.569,596.249 C 337.957,597.231 334.393,598.532 330.882,600.171 C 330.695,600.243 330.5,600.317 330.311,600.394 C 326.509,607.954 323.538,617.621 323.716,628.644 C 323.365,650.009 334.878,668.523 355.811,688.205 L 352.453,688.205 L 358.789,694.541 L 357.741,695.909 L 356.377,696.956 L 350.039,690.62 L 350.039,705.142 L 356.377,698.802 L 357.325,699.308 L 358.789,701.214 L 352.453,707.552 L 366.973,707.552 L 360.635,701.214 L 361.48,699.642 L 363.049,698.802 L 369.388,705.142 L 369.388,690.62 L 363.049,696.956 L 361.144,695.492 L 360.635,694.541 L 366.973,688.205 L 364.187,688.205 C 385.122,668.523 396.633,650.009 396.285,628.644 C 396.462,617.621 393.491,607.954 389.69,600.394 C 389.5,600.317 389.306,600.243 389.118,600.171 C 386.022,598.726 382.885,597.545 379.715,596.616 C 380.205,596.108 380.694,595.522 381.186,594.845 C 384.973,585.317 389.493,577.601 396.854,576.999 C 398.87,577.404 400.182,578.371 399.251,581.136 C 391.998,587.916 396.53,596.372 409.478,598.98 C 423.892,597.545 433.643,591.617 432.328,575.043 C 462.739,581.899 473.563,567.874 467.74,549.37 C 479.323,542.491 490.411,534.403 500.832,525.094 L 591.012,598.52 L 517.598,508.351 C 533.522,490.57 545.945,470.652 554.815,449.534 L 560.112,450.393 L 555.756,447.252 C 564.153,426.58 569.172,404.803 570.765,382.785 L 720,367.504 L 570.777,352.216 C 569.208,330.275 564.221,308.495 555.773,287.747 L 560.114,284.618 L 554.832,285.472 C 546,264.477 533.601,244.573 517.588,226.662 L 591.012,136.484 L 500.846,209.893 C 483.062,193.969 463.142,181.549 442.029,172.681 L 442.888,167.389 L 439.747,171.738 C 419.073,163.338 397.295,158.322 375.282,156.728 L 360.001,7.5 Z M 343.621,167.399 L 335.353,248.137 L 286.612,180.56 C 305.017,173.341 324.241,168.968 343.621,167.399 Z M 433.377,180.575 L 384.642,248.137 L 376.379,167.411 C 395.812,168.999 415.034,173.396 433.377,180.575 Z M 279.704,183.419 L 293.838,270.707 L 227.463,216.668 C 243.474,202.59 261.121,191.519 279.704,183.419 Z M 492.542,216.656 L 426.153,270.707 L 440.289,183.428 C 458.98,191.562 476.639,202.648 492.542,216.656 Z M 209.151,234.954 L 263.199,301.343 L 175.928,287.212 C 184.059,268.518 195.145,250.859 209.151,234.954 Z M 544.08,287.21 L 456.787,301.343 L 510.83,234.964 C 524.904,250.974 535.975,268.624 544.08,287.21 Z M 377.857,262.297 C 391.247,264.261 406.324,269.977 419.183,278.67 C 426.782,283.804 433.372,289.499 439.322,296.109 C 441.443,298.468 443.443,300.894 445.293,303.395 C 456.268,317.93 462.979,334.552 465.391,351.657 C 467.243,363.304 467.061,375.184 464.479,386.697 C 462.124,402.204 455.913,417.084 446.159,430.104 C 442.053,436.144 437.056,441.717 431.39,446.825 C 428.414,449.501 425.327,451.98 422.015,453.984 C 408.074,464.361 392.193,470.587 375.865,472.889 C 365.358,474.595 354.666,474.59 344.195,472.893 C 327.522,470.537 311.389,464.124 297.383,453.653 C 291.342,449.546 285.772,444.557 280.676,438.893 C 278.439,436.409 276.344,433.85 271.604,427.315 C 263.612,416.781 257,400.315 254.607,383.378 C 252.841,372.304 252.915,361.024 255.843,344.263 C 257.259,334.742 263.096,319.96 278.857,298.161 C 276.81,300.131 282.289,293.86 288.608,288.177 C 291.152,285.887 293.778,283.739 299.917,279.285 C 310.871,271.05 327.263,264.491 344.125,262.105 C 354.599,260.404 365.262,260.406 377.857,262.297 Z M 369.722,268.366 L 369.557,268.973 L 370.327,269.182 C 371.278,269.441 371.873,269.908 372.112,270.583 C 372.257,270.998 372.161,271.829 371.822,273.075 L 367.871,287.603 C 367.5,288.969 367.115,289.78 366.716,290.036 C 366.201,290.375 365.523,290.437 364.682,290.222 C 364.582,290.172 364.498,290.118 364.432,290.062 C 363.824,289.552 363.121,288.487 362.323,286.865 L 353.133,268.403 L 352.54,268.437 L 345.644,288.054 C 345.099,289.617 344.574,290.643 344.069,291.132 C 343.959,291.237 343.84,291.334 343.71,291.422 L 332.8,284.295 L 338.036,271.036 L 337.857,270.451 L 321.788,275.368 L 322.964,281.014 L 323.63,280.81 C 323.336,279.265 323.424,278.072 323.894,277.229 C 324.365,276.386 325.229,275.772 326.485,275.388 L 334.057,273.071 L 329.788,283.92 L 340.483,290.936 L 331.871,293.571 C 330.43,294.012 329.267,294.071 328.381,293.75 C 327.495,293.429 326.585,292.594 325.651,291.245 L 325.089,291.559 L 328.026,297.555 L 344.51,292.511 L 351.021,292.133 L 350.984,291.505 C 350.043,291.515 349.412,291.398 349.092,291.156 C 348.771,290.913 348.596,290.532 348.566,290.012 C 348.542,289.604 348.721,288.868 349.101,287.802 L 350.303,284.447 L 359.209,283.931 L 360.98,287.47 C 361.416,288.342 361.645,288.958 361.666,289.32 C 361.691,289.75 361.547,290.107 361.234,290.392 C 360.922,290.677 360.208,290.891 359.093,291.035 L 359.129,291.663 L 366.098,291.258 L 373.12,293.168 L 373.285,292.562 L 372.498,292.348 C 371.547,292.089 370.957,291.624 370.729,290.951 C 370.584,290.536 370.681,289.705 371.02,288.459 L 375.068,273.57 L 378.547,294.644 L 379.088,294.791 L 392.759,278.452 L 388.728,293.274 C 388.356,294.641 387.977,295.453 387.59,295.712 C 387.06,296.061 386.359,296.117 385.484,295.879 L 384.697,295.665 L 384.532,296.272 L 392.271,298.376 L 392.436,297.769 L 391.649,297.555 C 390.709,297.3 390.119,296.834 389.881,296.159 C 389.735,295.744 389.832,294.913 390.171,293.667 L 394.121,279.139 C 394.466,277.871 394.913,277.071 395.461,276.739 C 396.009,276.406 396.775,276.374 397.759,276.642 L 398.152,276.749 L 398.317,276.142 L 392.021,274.43 L 379.223,289.633 L 376.018,270.078 L 369.722,268.366 Z M 354.067,273.642 L 358.61,282.706 L 350.705,283.164 L 354.067,273.642 Z M 401.94,278.263 L 401.535,278.892 C 402.289,279.417 402.806,280.005 403.087,280.657 C 403.587,281.828 403.787,283.317 403.688,285.125 L 403.14,294.896 L 399.655,300.312 C 399.147,301.102 398.606,301.556 398.032,301.672 C 397.459,301.789 396.749,301.574 395.901,301.028 L 395.401,300.706 L 395.061,301.235 L 403.449,306.632 L 403.789,306.103 L 403.289,305.782 C 402.451,305.242 401.965,304.688 401.834,304.118 C 401.702,303.548 401.89,302.868 402.399,302.077 L 405.801,296.79 L 415.616,291.991 C 416.611,291.514 417.349,291.214 417.831,291.093 C 418.479,290.944 419.107,290.91 419.715,290.991 C 420.118,291.035 420.593,291.207 421.142,291.506 L 421.547,290.877 L 413.372,285.618 L 412.968,286.247 C 413.8,286.836 414.291,287.33 414.439,287.729 C 414.587,288.127 414.572,288.464 414.394,288.74 C 414.149,289.122 413.403,289.612 412.156,290.21 L 404.589,293.868 L 405.088,285.178 C 405.145,284.231 405.299,283.563 405.551,283.172 C 405.765,282.838 406.08,282.647 406.496,282.598 C 406.911,282.549 407.487,282.748 408.223,283.194 L 408.628,282.565 L 401.94,278.263 Z M 308.915,290.377 C 308.611,290.594 308.357,290.922 308.155,291.359 C 307.952,291.796 307.806,292.488 307.717,293.436 C 307.628,294.384 307.437,295.206 307.142,295.904 C 306.724,295.242 306.402,294.518 306.175,293.733 C 305.846,292.591 305.563,291.853 305.326,291.521 C 304.983,291.042 304.608,290.76 304.2,290.676 C 303.792,290.592 303.422,290.668 303.09,290.905 C 302.804,291.109 302.644,291.412 302.61,291.812 C 302.576,292.212 302.726,292.647 303.062,293.118 C 303.352,293.523 303.884,294.009 304.659,294.577 C 305.433,295.144 306.071,295.722 306.575,296.309 C 305.837,296.349 305.101,296.283 304.366,296.112 C 303.219,295.831 302.431,295.712 302.002,295.755 C 301.573,295.797 301.202,295.93 300.888,296.154 C 300.593,296.364 300.414,296.65 300.35,297.008 C 300.286,297.367 300.356,297.689 300.56,297.975 C 300.804,298.316 301.173,298.512 301.669,298.561 C 302.164,298.612 303.115,298.336 304.522,297.734 C 305.344,297.383 306.063,297.142 306.677,297.008 C 306.376,297.6 305.926,298.206 305.327,298.829 C 304.356,299.829 303.807,300.605 303.678,301.156 C 303.55,301.707 303.614,302.162 303.871,302.522 C 304.069,302.798 304.344,302.964 304.696,303.018 C 305.048,303.073 305.363,303.002 305.639,302.804 C 305.916,302.606 306.153,302.291 306.352,301.857 C 306.55,301.423 306.694,300.665 306.784,299.584 C 306.84,298.862 307.007,298.103 307.286,297.305 C 307.643,297.843 307.945,298.49 308.193,299.246 C 308.638,300.571 308.999,301.427 309.276,301.814 C 309.546,302.192 309.882,302.429 310.284,302.524 C 310.686,302.62 311.012,302.578 311.261,302.4 C 311.602,302.157 311.815,301.803 311.901,301.338 C 311.956,301.006 311.832,300.628 311.53,300.204 C 311.213,299.762 310.727,299.305 310.07,298.834 C 309.414,298.363 308.974,298.031 308.751,297.835 C 308.528,297.64 308.228,297.328 307.853,296.9 C 308.654,296.871 309.415,296.932 310.136,297.085 C 311.349,297.36 312.199,297.477 312.684,297.436 C 313.029,297.413 313.331,297.309 313.589,297.124 C 313.903,296.9 314.094,296.603 314.164,296.233 C 314.234,295.863 314.177,295.549 313.992,295.291 C 313.828,295.06 313.56,294.886 313.19,294.768 C 312.82,294.649 312.387,294.642 311.89,294.746 C 311.563,294.813 310.89,295.071 309.873,295.519 C 309.216,295.807 308.534,296.03 307.825,296.189 C 308.145,295.584 308.601,294.966 309.194,294.333 C 310.156,293.284 310.702,292.567 310.831,292.182 C 311.029,291.582 310.973,291.064 310.663,290.632 C 310.486,290.383 310.219,290.229 309.863,290.169 C 309.507,290.11 309.191,290.179 308.915,290.377 Z M 560.097,351.124 L 479.371,342.854 L 546.938,294.119 C 554.15,312.52 558.528,331.744 560.097,351.124 Z M 173.072,294.126 L 240.627,342.854 L 159.908,351.122 C 161.494,331.689 165.891,312.465 173.072,294.126 Z M 288.703,296.178 L 282.478,303.84 L 282.966,304.237 L 283.491,303.591 C 284.083,302.861 284.731,302.504 285.434,302.52 C 285.893,302.529 286.664,302.972 287.746,303.851 L 292.863,308.008 L 286.112,316.317 L 280.995,312.16 C 280.081,311.417 279.525,310.87 279.328,310.52 C 279.179,310.254 279.14,309.915 279.211,309.506 C 279.307,308.956 279.526,308.47 279.869,308.048 L 280.384,307.415 L 279.896,307.019 L 273.681,314.668 L 274.169,315.065 L 274.683,314.432 C 275.276,313.702 275.924,313.345 276.626,313.361 C 277.086,313.37 277.857,313.813 278.938,314.692 L 290.478,324.067 C 291.648,325.017 292.253,325.727 292.294,326.198 C 292.354,326.861 292.12,327.517 291.591,328.168 L 291.077,328.8 L 291.565,329.197 L 297.78,321.547 L 297.292,321.151 L 296.777,321.784 C 296.184,322.514 295.537,322.871 294.835,322.855 C 294.374,322.846 293.608,322.406 292.535,321.535 L 287.089,317.11 L 293.839,308.801 L 299.285,313.225 C 300.455,314.176 301.06,314.886 301.101,315.357 C 301.161,316.019 300.927,316.676 300.399,317.326 L 299.873,317.973 L 300.362,318.369 L 306.587,310.706 L 306.099,310.31 L 305.584,310.943 C 304.984,311.681 304.333,312.043 303.631,312.027 C 303.178,312.01 302.415,311.565 301.343,310.693 L 289.803,301.318 C 288.888,300.576 288.332,300.029 288.135,299.679 C 287.987,299.412 287.944,299.078 288.007,298.678 C 288.11,298.119 288.333,297.629 288.677,297.207 L 289.191,296.574 L 288.703,296.178 Z M 305.008,322.45 C 278.428,351.446 280.388,396.549 309.386,423.129 C 338.382,449.709 383.485,447.749 410.065,418.751 C 436.645,389.755 434.685,344.652 405.687,318.072 C 376.691,291.492 331.588,293.452 305.008,322.45 Z M 431.01,300.657 L 430.528,301.061 L 431.063,301.699 C 431.668,302.419 431.895,303.123 431.747,303.81 C 431.651,304.259 431.074,304.928 430.015,305.817 L 418.61,315.382 C 417.456,316.35 416.643,316.81 416.173,316.761 C 415.511,316.694 414.912,316.34 414.373,315.698 L 413.838,315.06 L 413.356,315.464 L 419.7,323.028 L 419.838,322.911 L 428.223,337.116 L 428.086,337.186 L 433.378,353.69 L 433.458,353.664 L 433.842,361.291 L 438.557,360.646 C 439.144,359.017 440.035,357.795 441.23,356.981 C 442.425,356.166 444.138,355.703 446.367,355.591 C 449.444,355.436 451.843,356.066 453.565,357.482 C 455.287,358.899 456.205,360.744 456.319,363.018 C 456.43,365.213 455.689,367.111 454.096,368.71 C 452.504,370.311 450.271,371.183 447.397,371.328 C 445.134,371.441 443.31,371.145 441.925,370.438 C 440.539,369.73 439.525,368.61 438.88,367.077 L 434.124,366.891 L 434.606,376.463 L 439.341,376.225 L 439.311,375.631 C 438.619,375.632 438.14,375.474 437.875,375.159 C 437.453,374.669 437.216,373.904 437.164,372.863 L 436.933,368.281 L 438.121,368.221 C 438.931,370.563 440.206,372.339 441.945,373.55 C 443.685,374.761 445.692,375.31 447.966,375.195 C 450.817,375.052 453.168,373.875 455.019,371.667 C 456.871,369.458 457.705,366.555 457.524,362.957 C 457.413,360.751 456.896,358.744 455.971,356.936 C 455.046,355.128 453.761,353.764 452.115,352.843 C 450.469,351.922 448.69,351.51 446.778,351.606 C 444.437,351.724 442.432,352.513 440.764,353.975 C 439.096,355.437 438.07,357.29 437.684,359.532 L 436.503,359.728 L 436.268,355.061 C 436.215,354.02 436.337,353.288 436.634,352.865 C 436.93,352.442 437.427,352.179 438.125,352.075 L 438.093,351.43 L 435.196,351.576 L 441.409,341.783 L 454.737,346.842 L 455.319,346.655 L 450.189,330.653 L 444.558,331.905 L 444.771,332.568 C 446.312,332.252 447.507,332.325 448.356,332.784 C 449.205,333.244 449.83,334.099 450.231,335.35 L 452.649,342.89 L 441.744,338.767 L 434.871,349.553 L 432.122,340.977 C 431.662,339.543 431.586,338.381 431.896,337.49 C 432.205,336.6 433.028,335.679 434.364,334.727 L 434.043,334.17 L 428.786,336.83 C 428.358,336.056 428.268,335.358 428.515,334.736 C 428.679,334.324 429.356,333.766 430.546,333.064 L 443.439,325.454 C 444.697,324.712 445.547,324.381 445.99,324.462 C 446.587,324.582 447.128,325.052 447.611,325.872 L 448.026,326.574 L 448.568,326.255 L 439.559,310.992 L 435.066,313.309 L 435.402,313.879 C 436.567,313.468 437.418,313.272 437.955,313.29 C 438.493,313.309 439.008,313.501 439.5,313.868 C 439.877,314.172 440.356,314.817 440.937,315.802 L 444.151,321.246 L 436.307,325.875 L 433.725,321.5 C 433.062,320.378 432.79,319.526 432.907,318.944 C 433.056,318.172 433.679,317.422 434.776,316.696 L 434.457,316.155 L 427.55,320.231 L 427.87,320.773 C 428.916,320.339 429.616,320.11 429.969,320.086 C 430.415,320.059 430.853,320.189 431.284,320.474 C 431.715,320.759 432.178,321.32 432.674,322.159 L 435.239,326.506 L 428.698,330.367 C 427.82,330.885 427.263,331.161 427.026,331.195 C 426.79,331.23 426.558,331.182 426.331,331.053 C 426.104,330.925 425.829,330.587 425.506,330.04 L 423.52,326.675 C 422.857,325.553 422.455,324.692 422.311,324.093 C 422.168,323.494 422.187,322.825 422.369,322.085 C 422.617,321.123 423.164,319.966 424.009,318.612 L 423.663,318.026 L 419.954,322.352 L 419.658,321.999 C 419.047,321.27 418.815,320.562 418.963,319.876 C 419.067,319.434 419.648,318.77 420.707,317.882 L 432.111,308.316 C 433.005,307.567 433.643,307.128 434.024,307 C 434.314,306.905 434.65,306.927 435.031,307.065 C 435.56,307.272 435.999,307.584 436.349,308 L 436.873,308.625 L 437.355,308.221 L 431.01,300.657 Z M 399.33,325.007 C 424.496,348.077 426.198,387.228 403.13,412.394 C 380.06,437.56 340.909,439.262 315.743,416.194 C 290.577,393.124 288.875,353.973 311.943,328.807 C 335.013,303.641 374.164,301.939 399.33,325.007 Z M 318.011,349.408 L 319.361,407.158 C 348.105,411.253 374.081,411.287 397.061,407.158 L 396.611,346.558 C 385.03,334.566 371.794,325.225 356.261,319.558 C 340.122,326.495 327.04,336.15 318.011,349.408 Z M 288.706,332.128 C 288.002,332.493 286.748,332.733 284.944,332.846 L 264.368,334.235 L 264.171,334.796 L 279.631,348.702 C 280.865,349.805 281.61,350.684 281.868,351.338 C 281.959,351.57 282.018,351.818 282.044,352.082 C 281.943,352.253 281.827,352.404 281.696,352.536 C 281.073,353.164 279.962,353.728 278.36,354.232 L 258.829,360.33 L 258.786,360.957 L 277.797,369.829 C 279.029,370.402 279.899,371.046 280.406,371.763 C 280.604,372.05 280.742,372.393 280.82,372.789 C 280.805,373.328 280.643,373.775 280.336,374.134 C 280.035,374.472 279.207,374.779 277.852,375.054 L 263.282,378.013 C 262.127,378.248 261.352,378.33 260.956,378.26 C 260.656,378.205 260.371,378.026 260.102,377.722 C 259.736,377.288 259.499,376.805 259.391,376.271 L 259.229,375.472 L 258.612,375.597 L 260.577,385.272 L 261.193,385.147 L 261.028,384.331 C 260.841,383.41 260.976,382.683 261.435,382.15 C 261.733,381.801 262.566,381.488 263.931,381.21 L 270.392,379.898 L 272.522,390.389 L 266.062,391.701 C 264.907,391.936 264.132,392.018 263.736,391.948 C 263.436,391.893 263.15,391.709 262.878,391.394 C 262.514,390.971 262.279,390.493 262.171,389.96 L 262.008,389.16 L 261.392,389.285 L 263.353,398.944 L 263.97,398.819 L 263.807,398.02 C 263.62,397.098 263.756,396.372 264.214,395.839 C 264.513,395.489 265.345,395.176 266.711,394.898 L 281.281,391.94 C 282.758,391.64 283.691,391.623 284.081,391.891 C 284.631,392.265 284.989,392.863 285.156,393.684 L 285.318,394.483 L 285.934,394.358 L 283.973,384.7 L 283.357,384.825 L 283.519,385.624 C 283.706,386.546 283.571,387.273 283.112,387.805 C 282.813,388.155 281.986,388.467 280.632,388.742 L 273.755,390.139 L 271.624,379.648 L 278.502,378.251 C 279.978,377.952 280.911,377.935 281.301,378.203 C 281.851,378.576 282.209,379.174 282.376,379.996 L 282.542,380.812 L 283.158,380.687 L 281.585,372.942 L 282.127,365.068 L 281.5,365.025 C 281.4,365.813 281.21,366.35 280.929,366.638 C 280.648,366.925 280.282,367.053 279.829,367.022 C 279.434,366.995 278.78,366.762 277.868,366.325 L 264.484,360.089 L 278.688,355.651 C 279.617,355.351 280.251,355.213 280.59,355.237 C 281.031,355.267 281.379,355.453 281.633,355.794 C 281.888,356.135 282.013,356.749 282.009,357.634 L 282.636,357.677 L 283.004,352.336 L 285.464,345.306 L 284.87,345.098 C 284.517,345.97 284.167,346.508 283.82,346.711 C 283.473,346.913 283.053,346.928 282.562,346.756 C 282.177,346.622 281.565,346.174 280.727,345.413 L 278.092,343.014 L 281.038,334.594 L 284.986,334.319 C 285.959,334.251 286.616,334.277 286.958,334.397 C 287.364,334.539 287.639,334.809 287.781,335.207 C 287.924,335.605 287.848,336.346 287.552,337.431 L 288.146,337.639 L 290.542,330.79 L 289.948,330.582 C 289.47,331.435 289.056,331.95 288.706,332.128 Z M 279.677,334.676 L 277.062,342.15 L 269.564,335.386 L 279.677,334.676 Z M 348.761,359.308 C 340.135,359.4 332.462,357.272 325.061,354.508 C 327.668,345.332 333.837,339.464 342.011,335.458 C 346.665,342.927 348.18,351.024 348.761,359.308 Z M 388.371,354.508 C 380.97,357.272 373.297,359.4 364.671,359.308 C 365.252,351.024 366.767,342.927 371.421,335.458 C 379.595,339.464 385.764,345.332 388.371,354.508 Z M 349.061,375.058 C 350.615,399.543 341.146,404.868 325.961,400.258 C 320.926,379.54 329.978,372.448 349.061,375.058 Z M 387.558,400.258 C 372.373,404.868 362.904,399.543 364.458,375.058 C 383.541,372.448 392.593,379.54 387.558,400.258 Z M 445.743,378.923 C 444.337,379.904 443.4,381.52 442.932,383.772 C 442.714,384.826 442.611,386.1 442.625,387.596 L 436.053,386.232 C 434.633,385.937 433.783,385.599 433.504,385.217 C 433.103,384.694 432.992,384.006 433.169,383.151 L 433.349,382.286 L 432.733,382.159 L 430.831,391.322 L 430.777,391.318 L 423.67,407.609 L 424.247,407.861 L 424.573,407.113 C 424.953,406.241 425.484,405.719 426.165,405.546 C 426.595,405.437 427.444,405.659 428.711,406.212 L 442.432,412.198 C 443.771,412.782 444.538,413.277 444.732,413.683 C 444.984,414.238 444.92,414.951 444.54,415.823 L 444.213,416.571 L 444.79,416.823 L 451.876,400.578 L 447.366,398.295 L 447.101,398.902 C 448.117,399.605 448.775,400.18 449.074,400.626 C 449.374,401.072 449.52,401.602 449.512,402.216 C 449.487,402.699 449.245,403.465 448.787,404.514 L 446.26,410.308 L 437.912,406.666 L 439.943,402.009 C 440.464,400.815 440.994,400.095 441.535,399.849 C 442.248,399.517 443.221,399.583 444.452,400.046 L 444.703,399.469 L 437.352,396.263 L 437.101,396.839 C 438.065,397.433 438.661,397.866 438.888,398.138 C 439.17,398.483 439.322,398.914 439.344,399.43 C 439.366,399.947 439.182,400.651 438.793,401.544 L 436.775,406.17 L 429.813,403.133 C 428.878,402.726 428.328,402.436 428.162,402.264 C 427.995,402.093 427.898,401.878 427.869,401.618 C 427.84,401.358 427.952,400.937 428.207,400.356 L 429.769,396.774 C 430.29,395.58 430.751,394.749 431.153,394.281 C 431.554,393.814 432.108,393.438 432.814,393.152 C 433.738,392.789 434.996,392.553 436.589,392.445 L 436.861,391.821 L 431.463,391.374 L 431.519,391.105 C 431.717,390.15 432.169,389.533 432.875,389.252 C 433.265,389.101 434.103,389.159 435.39,389.426 L 449.964,392.451 C 451.384,392.745 452.235,393.078 452.517,393.449 C 452.915,393.983 453.026,394.677 452.848,395.531 L 452.672,396.379 L 453.288,396.507 L 455.004,388.238 C 455.48,385.942 455.566,384.137 455.259,382.824 C 454.954,381.512 454.397,380.444 453.59,379.623 C 452.783,378.802 451.791,378.269 450.615,378.026 C 448.774,377.643 447.15,377.942 445.743,378.923 Z M 449.495,381.75 C 450.472,381.952 451.337,382.337 452.093,382.905 C 452.849,383.472 453.359,384.166 453.623,384.984 C 453.887,385.802 453.923,386.672 453.732,387.592 C 453.61,388.18 453.352,388.896 452.957,389.74 L 443.573,387.792 C 443.59,386.593 443.666,385.671 443.8,385.028 C 444.041,383.864 444.696,382.952 445.764,382.294 C 446.831,381.637 448.075,381.455 449.495,381.75 Z M 159.896,383.88 L 240.63,392.15 L 173.06,440.887 C 165.843,422.481 161.468,403.26 159.896,383.88 Z M 546.919,440.88 L 479.359,392.148 L 560.085,383.882 C 558.497,403.315 554.095,422.539 546.919,440.88 Z M 275.193,397.809 C 272.082,399.439 270.022,401.791 269.011,404.866 C 268,407.941 268.24,410.898 269.727,413.738 C 271.216,416.577 273.525,418.471 276.657,419.42 C 279.789,420.368 282.815,420.078 285.735,418.547 C 288.745,416.97 290.761,414.625 291.784,411.512 C 292.807,408.399 292.563,405.402 291.054,402.523 C 289.434,399.432 286.965,397.491 283.646,396.698 C 280.73,396.014 277.912,396.384 275.193,397.809 Z M 290.054,403.104 C 291.079,405.061 291.183,407.015 290.363,408.966 C 289.385,411.321 287.255,413.358 283.974,415.077 C 280.753,416.765 277.891,417.344 275.388,416.814 C 273.368,416.377 271.85,415.189 270.835,413.253 C 269.631,410.955 269.684,408.651 270.993,406.341 C 272.057,404.491 274.044,402.805 276.954,401.279 C 280.154,399.602 282.887,399.008 285.151,399.496 C 287.416,399.985 289.049,401.188 290.054,403.104 Z M 281.903,402.561 L 274.845,406.26 L 275.144,406.832 C 276.048,406.358 276.778,406.209 277.336,406.383 C 277.895,406.558 278.384,407.046 278.804,407.849 L 279.735,409.625 C 280.188,410.488 280.325,411.196 280.148,411.749 C 279.971,412.302 279.434,412.82 278.536,413.304 L 278.828,413.861 L 285.887,410.161 L 285.595,409.604 C 284.963,409.961 284.432,410.131 284.001,410.113 C 283.57,410.096 283.156,409.917 282.759,409.575 C 282.553,409.402 282.295,409.019 281.985,408.427 L 281.078,406.696 C 280.636,405.853 280.499,405.164 280.666,404.629 C 280.833,404.093 281.346,403.595 282.203,403.133 L 281.903,402.561 Z M 425.047,410.565 C 421.787,410.891 419.147,412.329 417.126,414.876 C 414.957,417.609 414.184,420.653 414.804,424.009 C 415.361,426.952 416.841,429.378 419.247,431.286 C 421.997,433.469 424.983,434.399 428.204,434.076 C 431.424,433.753 434.031,432.336 436.023,429.825 C 438.016,427.313 438.811,424.434 438.408,421.187 C 438.006,417.939 436.514,415.291 433.931,413.242 C 431.269,411.13 428.307,410.237 425.047,410.565 Z M 295.054,411.434 L 294.588,411.856 L 295.136,412.461 C 295.774,413.166 296.032,413.865 295.91,414.556 C 295.831,414.994 295.28,415.676 294.256,416.603 L 283.157,426.65 C 282.074,427.63 281.308,428.126 280.858,428.136 C 280.248,428.137 279.624,427.786 278.986,427.08 L 278.438,426.475 L 277.972,426.897 L 289.866,440.037 L 293.801,436.864 L 293.357,436.373 C 292.298,437.01 291.504,437.373 290.975,437.463 C 290.444,437.553 289.901,437.468 289.345,437.208 C 288.915,436.986 288.316,436.451 287.548,435.602 L 283.306,430.916 L 290.058,424.804 L 293.468,428.571 C 294.342,429.536 294.781,430.316 294.783,430.91 C 294.792,431.696 294.332,432.556 293.404,433.487 L 293.826,433.954 L 299.772,428.571 L 299.35,428.105 C 298.412,428.74 297.772,429.105 297.431,429.201 C 297,429.316 296.544,429.277 296.065,429.085 C 295.586,428.892 295.019,428.435 294.365,427.713 L 290.978,423.971 L 296.609,418.874 C 297.365,418.19 297.855,417.807 298.08,417.726 C 298.304,417.645 298.541,417.645 298.789,417.725 C 299.038,417.805 299.375,418.081 299.801,418.552 L 302.424,421.449 C 303.298,422.415 303.866,423.177 304.127,423.735 C 304.387,424.293 304.503,424.953 304.473,425.714 C 304.424,426.706 304.122,427.949 303.566,429.446 L 304.022,429.95 L 306.792,424.953 L 307.154,425.241 C 307.9,425.833 308.268,426.48 308.26,427.182 C 308.247,427.635 307.811,428.403 306.951,429.485 L 297.693,441.14 C 296.967,442.054 296.43,442.611 296.082,442.812 C 295.818,442.964 295.484,443.01 295.083,442.951 C 294.523,442.854 294.03,442.636 293.605,442.298 L 292.966,441.791 L 292.575,442.283 L 300.305,448.424 L 300.697,447.932 L 300.044,447.414 C 299.308,446.829 298.944,446.185 298.952,445.483 C 298.956,445.023 299.388,444.252 300.247,443.169 L 309.506,431.514 C 310.443,430.335 311.147,429.722 311.618,429.676 C 311.683,429.669 311.749,429.665 311.815,429.664 L 311.808,429.677 L 311.65,429.979 C 312.422,430.578 312.87,431.065 312.993,431.437 C 313.25,432.188 313.301,433.463 313.145,435.264 L 311.459,455.818 L 311.985,456.096 L 328.034,442.875 C 329.309,441.818 330.289,441.212 330.974,441.054 C 331.659,440.897 332.43,441.013 333.288,441.402 L 333.582,440.846 L 325.543,436.602 L 325.249,437.158 C 326.06,437.637 326.539,438.063 326.688,438.436 C 326.837,438.81 326.79,439.227 326.546,439.687 C 326.356,440.048 325.822,440.586 324.945,441.302 L 322.182,443.551 L 314.292,439.386 L 314.608,435.441 C 314.685,434.469 314.808,433.823 314.977,433.503 C 315.178,433.122 315.486,432.891 315.901,432.809 C 316.316,432.727 317.037,432.912 318.066,433.366 L 318.36,432.81 L 314.378,430.708 L 314.638,430.382 L 306.907,424.241 L 306.786,424.393 L 295.054,411.434 Z M 431.473,416.258 C 434.321,418.518 436.011,420.9 436.541,423.403 C 436.96,425.427 436.49,427.296 435.131,429.008 C 433.518,431.041 431.391,431.927 428.749,431.667 C 426.626,431.444 424.279,430.311 421.705,428.27 C 418.875,426.023 417.223,423.766 416.752,421.498 C 416.281,419.23 416.718,417.249 418.063,415.554 C 419.436,413.824 421.18,412.937 423.296,412.895 C 425.845,412.835 428.571,413.956 431.473,416.258 Z M 426.203,416.503 L 425.813,416.995 C 426.395,417.428 426.765,417.845 426.924,418.246 C 427.083,418.647 427.087,419.098 426.935,419.599 C 426.86,419.858 426.615,420.249 426.199,420.773 L 424.985,422.304 C 424.393,423.049 423.819,423.454 423.262,423.518 C 422.705,423.582 422.041,423.316 421.271,422.719 L 420.87,423.225 L 427.113,428.178 L 427.514,427.672 C 426.715,427.039 426.283,426.431 426.216,425.851 C 426.149,425.269 426.397,424.624 426.961,423.914 L 428.207,422.344 C 428.812,421.58 429.404,421.167 429.981,421.105 C 430.558,421.042 431.249,421.324 432.056,421.948 L 432.446,421.456 L 426.203,416.503 Z M 406.631,426.55 L 398.528,432.367 L 398.895,432.877 L 399.378,432.531 C 400.188,431.949 400.882,431.702 401.46,431.789 C 402.038,431.876 402.602,432.301 403.15,433.065 L 406.817,438.172 L 407.671,449.064 C 407.749,450.165 407.757,450.961 407.692,451.454 C 407.592,452.111 407.393,452.708 407.094,453.243 C 406.905,453.602 406.571,453.981 406.091,454.381 L 406.527,454.989 L 414.423,449.32 L 413.987,448.713 C 413.132,449.27 412.493,449.545 412.068,449.536 C 411.643,449.527 411.335,449.39 411.143,449.123 C 410.879,448.755 410.697,447.88 410.599,446.501 L 409.979,438.119 L 417.877,441.778 C 418.737,442.179 419.302,442.568 419.573,442.946 C 419.804,443.268 419.866,443.631 419.76,444.035 C 419.652,444.44 419.256,444.902 418.57,445.423 L 419.006,446.03 L 425.466,441.392 L 425.03,440.785 C 424.264,441.293 423.527,441.558 422.817,441.579 C 421.545,441.614 420.087,441.252 418.441,440.495 L 409.556,436.393 L 405.8,431.162 C 405.252,430.398 405.029,429.729 405.132,429.152 C 405.234,428.577 405.696,427.995 406.514,427.407 L 406.998,427.06 L 406.631,426.55 Z M 313.265,430.12 L 312.92,429.938 L 312.757,429.852 C 312.927,429.921 313.096,430.011 313.265,430.12 Z M 456.789,433.663 L 544.063,447.794 C 535.932,466.483 524.844,484.142 510.84,500.047 L 456.789,433.663 Z M 263.197,433.665 L 209.166,500.033 C 195.087,484.022 184.021,466.377 175.921,447.799 L 263.197,433.665 Z M 393.513,435.512 L 377.602,441.928 L 371.121,442.774 L 371.202,443.397 C 371.995,443.34 372.559,443.42 372.896,443.639 C 373.233,443.858 373.431,444.192 373.49,444.641 C 373.541,445.034 373.442,445.721 373.192,446.702 L 369.717,461.052 L 362.566,448.002 C 362.09,447.15 361.829,446.555 361.785,446.218 C 361.728,445.78 361.842,445.403 362.126,445.086 C 362.41,444.769 362.987,444.525 363.856,444.355 L 363.774,443.731 L 357.715,444.521 L 357.649,444.223 L 339.98,442.292 L 339.912,442.917 L 340.723,443.005 C 341.669,443.109 342.326,443.46 342.693,444.058 C 342.925,444.437 342.966,445.313 342.816,446.687 L 341.189,461.569 C 341.031,463.021 340.787,463.9 340.457,464.207 C 340.002,464.612 339.302,464.764 338.356,464.661 L 337.545,464.572 L 337.477,465.197 L 355.095,467.123 L 355.93,462.137 L 355.272,462.065 C 354.904,463.244 354.551,464.043 354.215,464.462 C 353.878,464.881 353.415,465.179 352.827,465.353 C 352.358,465.473 351.555,465.471 350.418,465.346 L 344.133,464.659 L 345.123,455.606 L 350.174,456.158 C 351.469,456.299 352.314,456.591 352.71,457.033 C 353.24,457.615 353.467,458.563 353.391,459.877 L 354.016,459.945 L 354.888,451.972 L 354.262,451.904 C 353.983,453.002 353.747,453.699 353.555,453.997 C 353.309,454.37 352.943,454.643 352.457,454.818 C 351.971,454.992 351.244,455.027 350.275,454.921 L 345.258,454.372 L 346.083,446.822 C 346.194,445.808 346.306,445.197 346.421,444.987 C 346.535,444.777 346.711,444.62 346.951,444.515 C 347.19,444.41 347.625,444.392 348.256,444.461 L 352.141,444.886 C 353.436,445.027 354.366,445.22 354.932,445.464 C 355.498,445.709 356.022,446.125 356.505,446.713 C 357.127,447.488 357.727,448.619 358.305,450.106 L 358.981,450.18 L 357.891,445.309 L 357.886,445.287 C 358.288,445.349 358.632,445.475 358.92,445.667 C 359.658,446.153 360.43,447.132 361.239,448.603 L 371.067,466.548 L 371.691,466.467 L 376.642,446.081 C 376.96,444.76 377.421,443.78 378.024,443.142 C 378.446,442.703 379.068,442.413 379.885,442.268 C 380.013,442.31 380.136,442.366 380.255,442.435 C 380.638,442.659 381.089,443.412 381.605,444.693 L 387.205,458.577 C 387.751,459.932 387.952,460.822 387.806,461.248 C 387.597,461.82 387.052,462.285 386.169,462.641 L 385.413,462.946 L 385.648,463.529 L 402.084,456.9 L 400.465,452.111 L 399.85,452.359 C 400.083,453.572 400.15,454.443 400.052,454.971 C 399.953,455.5 399.686,455.98 399.25,456.413 C 398.893,456.74 398.184,457.117 397.123,457.545 L 391.26,459.91 L 387.854,451.463 L 392.566,449.563 C 393.774,449.075 394.657,448.932 395.215,449.135 C 395.956,449.398 396.604,450.126 397.159,451.319 L 397.742,451.084 L 394.742,443.646 L 394.159,443.882 C 394.431,444.981 394.553,445.707 394.525,446.06 C 394.484,446.505 394.29,446.919 393.945,447.302 C 393.598,447.686 392.974,448.06 392.07,448.425 L 387.39,450.312 L 384.549,443.268 C 384.167,442.323 383.977,441.731 383.979,441.492 C 383.98,441.253 384.062,441.031 384.223,440.825 C 384.384,440.62 384.759,440.398 385.348,440.161 L 388.972,438.699 C 390.18,438.212 391.091,437.942 391.706,437.89 C 392.319,437.838 392.978,437.957 393.682,438.247 C 394.596,438.636 395.659,439.349 396.872,440.387 L 397.502,440.132 L 393.513,435.512 Z M 314.171,440.744 L 321.174,444.441 L 313.37,450.851 L 314.171,440.744 Z M 426.158,464.292 L 492.528,518.333 C 476.515,532.404 458.872,543.478 440.294,551.58 L 426.158,464.292 Z M 293.838,464.297 L 279.704,551.566 C 261.015,543.432 243.354,532.349 227.456,518.345 L 293.838,464.297 Z M 335.353,486.859 L 343.619,567.588 C 324.184,565.999 304.962,561.6 286.621,554.424 L 335.353,486.859 Z M 384.642,486.869 L 433.384,554.441 C 414.974,561.653 395.754,566.028 376.377,567.598 L 384.642,486.869 Z M 457.137,568.294 C 447.743,574.176 439.051,572.431 430.715,566.707 C 433.751,565.635 436.763,564.487 439.756,563.273 L 442.891,567.617 L 442.034,562.332 C 446.851,560.302 451.605,558.087 456.299,555.687 C 460.027,557.782 461.059,561.526 457.137,568.294 Z M 277.964,562.315 L 277.107,567.617 L 280.249,563.261 C 283.705,564.66 287.195,565.973 290.711,567.187 C 282.493,572.7 273.92,574.299 264.68,568.512 C 260.989,562.138 261.683,558.447 264.887,556.291 C 269.187,558.451 273.551,560.46 277.964,562.315 Z M 424.058,578.091 C 423.266,589.414 419.476,594.142 412.958,592.884 C 401.294,591.159 404.709,578.163 410.999,574.167 C 416.627,571.966 420.743,573.934 424.058,578.091 Z M 310.818,574.387 C 317.108,578.381 320.526,591.37 308.855,593.105 C 302.344,594.36 298.554,589.635 297.76,578.302 C 301.074,574.152 305.188,572.182 310.818,574.387 Z M 373.799,592.757 L 375.282,578.278 C 378.438,578.05 381.592,577.752 384.736,577.385 C 380.253,582.48 376.681,587.592 373.799,592.757 Z M 344.716,578.268 L 345.849,589.315 C 343.379,585.379 340.48,581.472 337.045,577.572 C 339.597,577.851 342.155,578.081 344.716,578.268 Z M 387.222,602.765 C 387.71,603.708 387.34,604.868 386.399,605.355 C 369.078,614.314 351.373,613.39 333.599,605.4 C 332.634,604.966 332.204,603.824 332.636,602.859 C 333.073,601.892 334.209,601.46 335.181,601.894 C 352.081,609.495 368.541,610.27 384.633,601.942 C 385.576,601.455 386.735,601.824 387.222,602.765 Z M 336.309,611.196 L 336.309,614.554 L 332.948,614.554 L 332.948,611.196 L 336.309,611.196 Z M 387.119,611.196 L 387.119,614.554 L 383.759,614.554 L 383.759,611.196 L 387.119,611.196 Z M 359.713,613.56 L 363.109,616.956 L 359.713,620.348 L 356.317,616.956 L 359.713,613.56 Z M 350.593,615.274 L 350.593,616.714 L 343.389,616.714 L 343.389,615.274 L 350.593,615.274 Z M 377.807,615.274 L 377.807,616.714 L 370.609,616.714 L 370.609,615.274 L 377.807,615.274 Z M 331.988,618.154 L 353.113,625.114 L 353.351,652.717 C 352.065,658.397 350.469,664.078 348.551,669.757 C 331.196,654.586 327.172,637.128 331.988,618.154 Z M 371.327,669.757 C 369.407,664.078 367.818,658.397 366.527,652.717 L 366.765,625.114 L 387.892,618.154 C 392.711,637.128 388.682,654.586 371.327,669.757 Z M 359.713,627.903 L 363.109,631.296 L 359.713,634.69 L 356.317,631.296 L 359.713,627.903 Z M 359.713,642.243 L 363.109,645.634 L 359.713,649.028 L 356.317,645.634 L 359.713,642.243 Z M 359.713,656.583 L 363.109,659.977 L 359.713,663.37 L 356.317,659.977 L 359.713,656.583 Z M 359.713,670.921 L 363.109,674.321 L 359.713,677.715 L 356.317,674.321 L 359.713,670.921 Z" stroke="none" stroke-width="0.5" fill="#000000" marker-start="none" marker-end="none" stroke-miterlimit="79.8403193612775"/>
   </g>
  </g>
 </g>
</svg>
