<?xml version="1.0" encoding="iso-8859-1"?>
<!-- Generator: Adobe Illustrator 19.0.0, SVG Export Plug-In . SVG Version: 6.00 Build 0)  -->
<svg version="1.1" id="Layer_1" xmlns="http://www.w3.org/2000/svg" xmlns:xlink="http://www.w3.org/1999/xlink" x="0px" y="0px"
	 viewBox="0 0 512 512" style="enable-background:new 0 0 512 512;" xml:space="preserve">
<g>
	<g>
		<path d="M506.052,247.868l-130.517-41.523l41.941-100.659c1.314-3.157,0.623-6.784-1.758-9.233
			c-2.381-2.449-5.99-3.217-9.182-2.014l-101.794,39.151L264.132,5.948C263.006,2.406,259.721,0,256,0
			c-3.721,0-7.006,2.406-8.132,5.948l-40.61,127.642L105.464,94.438c-3.191-1.212-6.801-0.435-9.182,2.014
			c-2.381,2.449-3.072,6.076-1.758,9.233l41.941,100.659L5.948,247.868C2.406,248.994,0,252.279,0,256
			c0,3.721,2.406,7.006,5.948,8.132l130.517,41.523L94.524,406.315c-1.314,3.157-0.623,6.784,1.758,9.233
			c1.638,1.69,3.857,2.586,6.118,2.586c1.033,0,2.065-0.188,3.063-0.563l101.794-39.151l40.61,127.642
			c1.126,3.533,4.412,5.939,8.132,5.939c3.721,0,7.006-2.406,8.132-5.948l40.61-127.642l101.794,39.151
			c0.998,0.384,2.031,0.572,3.063,0.572c2.261,0,4.48-0.896,6.118-2.586c2.381-2.449,3.072-6.076,1.758-9.233l-41.941-100.659
			l130.517-41.523c3.541-1.126,5.948-4.412,5.948-8.132C512,252.279,509.594,248.994,506.052,247.868z M135.159,158.831
			c-1.792-4.301,3.652-7.953,6.955-4.651l33.246,33.246c2.261,2.261,1.323,6.11-1.724,7.083l-17.126,5.444
			c-2.108,0.674-4.378-0.384-5.231-2.423L135.159,158.831z M198.323,363.554l-42.692,16.418c-4.301,1.664-7.808-3.729-4.548-6.989
			l36.352-36.352c2.261-2.261,6.11-1.323,7.083,1.724l6.34,19.925C201.54,360.431,200.431,362.743,198.323,363.554z
			 M228.113,271.821l-32.375,32.375c-1.126,1.126-2.79,1.536-4.309,1.05L89.685,272.862c-4.642-1.476-3.576-8.329,1.297-8.329
			h134.118C228.898,264.533,230.801,269.133,228.113,271.821z M247.467,225.101c0,3.797-4.599,5.7-7.287,3.012l-32.375-32.375
			c-1.126-1.126-1.536-2.79-1.05-4.309L239.13,89.685c1.485-4.642,8.337-3.576,8.337,1.297V225.101z M313.677,148.446l42.692-16.418
			c4.301-1.664,7.808,3.729,4.548,6.989l-36.352,36.352c-2.261,2.261-6.11,1.323-7.083-1.724l-6.34-19.925
			C310.46,151.569,311.569,149.257,313.677,148.446z M305.246,320.572l-32.384,101.743c-1.476,4.642-8.329,3.575-8.329-1.297
			V286.899c0-3.797,4.599-5.7,7.287-3.012l32.375,32.375C305.323,317.389,305.732,319.053,305.246,320.572z M376.841,353.169
			c1.792,4.301-3.652,7.953-6.955,4.651l-33.246-33.246c-2.261-2.261-1.323-6.11,1.724-7.083l17.126-5.444
			c2.108-0.674,4.378,0.384,5.231,2.423L376.841,353.169z M421.018,247.467H286.899c-3.797,0-5.7-4.599-3.012-7.287l32.375-32.375
			c1.126-1.126,2.79-1.536,4.309-1.05l101.743,32.375C426.957,240.614,425.89,247.467,421.018,247.467z"/>
	</g>
</g>
<g>
</g>
<g>
</g>
<g>
</g>
<g>
</g>
<g>
</g>
<g>
</g>
<g>
</g>
<g>
</g>
<g>
</g>
<g>
</g>
<g>
</g>
<g>
</g>
<g>
</g>
<g>
</g>
<g>
</g>
</svg>
