<?xml version="1.0" encoding="iso-8859-1"?>
<!-- Generator: Adobe Illustrator 19.0.0, SVG Export Plug-In . SVG Version: 6.00 Build 0)  -->
<svg version="1.1" id="Layer_1" xmlns="http://www.w3.org/2000/svg" xmlns:xlink="http://www.w3.org/1999/xlink" x="0px" y="0px"
	 viewBox="0 0 512 512" style="enable-background:new 0 0 512 512;" xml:space="preserve">
<g>
	<g>
		<path d="M256,0C114.842,0,0,114.842,0,256s114.842,256,256,256s256-114.842,256-256S397.158,0,256,0z M256,494.933
			c-27.102,0-53.137-4.599-77.44-12.954L256,87.014l77.44,394.965C309.137,490.334,283.102,494.933,256,494.933z M349.628,475.802
			L264.38,41.02c-0.794-4.002-4.301-6.886-8.38-6.886c-4.079,0-7.586,2.884-8.371,6.895L162.381,475.81
			C77.03,439.313,17.067,354.534,17.067,256C17.067,124.254,124.254,17.067,256,17.067S494.933,124.254,494.933,256
			C494.933,354.534,434.97,439.313,349.628,475.802z"/>
	</g>
</g>
<g>
</g>
<g>
</g>
<g>
</g>
<g>
</g>
<g>
</g>
<g>
</g>
<g>
</g>
<g>
</g>
<g>
</g>
<g>
</g>
<g>
</g>
<g>
</g>
<g>
</g>
<g>
</g>
<g>
</g>
</svg>
