<?xml version="1.0" encoding="UTF-8" standalone="no"?>
<!-- Created with Inkscape (http://www.inkscape.org/) -->

<svg
   xmlns:dc="http://purl.org/dc/elements/1.1/"
   xmlns:cc="http://creativecommons.org/ns#"
   xmlns:rdf="http://www.w3.org/1999/02/22-rdf-syntax-ns#"
   xmlns:svg="http://www.w3.org/2000/svg"
   xmlns="http://www.w3.org/2000/svg"
   xmlns:sodipodi="http://sodipodi.sourceforge.net/DTD/sodipodi-0.dtd"
   xmlns:inkscape="http://www.inkscape.org/namespaces/inkscape"
   width="67.026871mm"
   height="97.459328mm"
   viewBox="0 0 67.026871 97.459328"
   version="1.1"
   id="svg845"
   inkscape:version="0.92.3 (2405546, 2018-03-11)"
   sodipodi:docname="esri_north_065_b.svg">
  <defs
     id="defs839" />
  <sodipodi:namedview
     id="base"
     pagecolor="#ffffff"
     bordercolor="#666666"
     borderopacity="1.0"
     inkscape:pageopacity="0.0"
     inkscape:pageshadow="2"
     inkscape:zoom="0.97458821"
     inkscape:cx="62.023017"
     inkscape:cy="207.5365"
     inkscape:document-units="mm"
     inkscape:current-layer="text1587"
     showgrid="false"
     inkscape:window-width="1366"
     inkscape:window-height="745"
     inkscape:window-x="0"
     inkscape:window-y="23"
     inkscape:window-maximized="1"
     fit-margin-top="0"
     fit-margin-left="0"
     fit-margin-right="0"
     fit-margin-bottom="0"
     showguides="true"
     inkscape:guide-bbox="true" />
  <metadata
     id="metadata842">
    <rdf:RDF>
      <cc:Work
         rdf:about="">
        <dc:format>image/svg+xml</dc:format>
        <dc:type
           rdf:resource="http://purl.org/dc/dcmitype/StillImage" />
        <dc:title></dc:title>
      </cc:Work>
    </rdf:RDF>
  </metadata>
  <g
     inkscape:label="Camada 1"
     inkscape:groupmode="layer"
     id="layer1"
     transform="translate(-14.19837,-199.53927)">
    <g
       aria-label="2"
       style="font-style:normal;font-weight:normal;font-size:124.42774963px;line-height:1.25;font-family:sans-serif;letter-spacing:0px;word-spacing:0px;fill:#000000;fill-opacity:1;stroke:none;stroke-width:5.18448925"
       id="text1587">
      <g
         aria-label="U"
         style="font-style:normal;font-weight:normal;font-size:125.75397491px;line-height:1.25;font-family:sans-serif;letter-spacing:0px;word-spacing:0px;fill:#000000;fill-opacity:1;stroke:none;stroke-width:27.16542244"
         id="text1792">
        <path
           d="M 81.225239,236.38518 H 63.87119 V 296.9986 H 31.552419 V 236.38518 H 14.19837 l 33.450557,-36.84591 z m -21.50393,40.49278 v -0.88028 q -0.754524,0 -0.880278,-0.37726 -0.125754,-0.37726 -0.125754,-1.00603 v -23.89326 q 0,-0.62877 0.125754,-1.00603 0.125754,-0.37726 0.880278,-0.62877 v -0.62877 h -4.652897 v 0.62877 q 1.006032,0.62877 1.006032,1.6348 v 18.73735 L 43.499046,251.0984 q 0,-0.25151 -0.125754,-0.50302 0,-0.37726 0,-0.50302 0,-0.75452 0.754524,-1.00603 v -0.62877 h -7.167977 v 0.62877 q 1.006032,0.62877 1.006032,1.6348 v 23.89326 q 0,1.38329 -1.006032,1.38329 v 0.88028 h 4.652898 v -0.88028 q -0.880278,-0.25151 -1.006032,-0.50301 -0.125754,-0.25151 -0.125754,-0.88028 v -21.37818 l 13.832937,21.12667 q 0.251508,1.25754 0.251508,0.62877 0,1.00603 -0.754524,1.00603 v 0.88028 z"
           style="font-style:normal;font-variant:normal;font-weight:normal;font-stretch:normal;font-family:'ESRI North';-inkscape-font-specification:'ESRI North, ';stroke-width:27.16542244"
           id="path1682"
           inkscape:connector-curvature="0" />
      </g>
    </g>
  </g>
</svg>
