<?xml version="1.0" encoding="iso-8859-1"?>
<!-- Generator: Adobe Illustrator 19.0.0, SVG Export Plug-In . SVG Version: 6.00 Build 0)  -->
<svg version="1.1" id="Layer_1" xmlns="http://www.w3.org/2000/svg" xmlns:xlink="http://www.w3.org/1999/xlink" x="0px" y="0px"
	 viewBox="0 0 512 512" style="enable-background:new 0 0 512 512;" xml:space="preserve">
<g>
	<g>
		<path d="M409.6,247.467h-82.449L264.26,6.383C263.279,2.62,259.883,0,256,0s-7.279,2.62-8.26,6.383l-62.891,241.084H102.4
			c-4.719,0-8.533,3.823-8.533,8.533s3.814,8.533,8.533,8.533h77.995L145.34,398.916c-1.041,3.994,0.922,8.158,4.668,9.89
			c3.703,1.732,8.175,0.563,10.564-2.816l86.895-123.102v220.578c0,4.71,3.814,8.533,8.533,8.533s8.533-3.823,8.533-8.533V282.889
			l86.895,123.102c1.647,2.33,4.275,3.61,6.972,3.61c1.22,0,2.44-0.256,3.593-0.794c3.738-1.741,5.709-5.897,4.668-9.89
			l-35.055-134.383H409.6c4.719,0,8.533-3.823,8.533-8.533S414.319,247.467,409.6,247.467z"/>
	</g>
</g>
<g>
</g>
<g>
</g>
<g>
</g>
<g>
</g>
<g>
</g>
<g>
</g>
<g>
</g>
<g>
</g>
<g>
</g>
<g>
</g>
<g>
</g>
<g>
</g>
<g>
</g>
<g>
</g>
<g>
</g>
</svg>
