<?xml version="1.0" encoding="iso-8859-1"?>
<!-- Generator: Adobe Illustrator 19.0.0, SVG Export Plug-In . SVG Version: 6.00 Build 0)  -->
<svg version="1.1" id="Layer_1" xmlns="http://www.w3.org/2000/svg" xmlns:xlink="http://www.w3.org/1999/xlink" x="0px" y="0px"
	 viewBox="0 0 512 512" style="enable-background:new 0 0 512 512;" xml:space="preserve">
<g>
	<g>
		<path d="M426.667,247.467h-38.554c-10.991-42.428-42.01-77.833-84.164-93.653L264.243,6.315C263.236,2.586,259.857,0,256,0
			s-7.236,2.586-8.243,6.315l-39.714,147.499c-42.146,15.821-73.165,51.234-84.156,93.653H85.333c-4.71,0-8.533,3.823-8.533,8.533
			s3.823,8.533,8.533,8.533h35.302c-0.708,5.623-1.169,11.298-1.169,17.067c0,31.625,11.025,61.986,30.933,86.323l-22.11,82.125
			c-0.691,2.56-0.145,5.299,1.468,7.407c1.621,2.108,4.122,3.345,6.775,3.345c51.362,0,67.951-15.053,81.271-27.136
			c8.448-7.663,14.976-13.474,29.662-15.061v84.864c0,4.71,3.823,8.533,8.533,8.533s8.533-3.823,8.533-8.533v-84.864
			c14.677,1.587,21.214,7.398,29.662,15.061c13.321,12.083,29.909,27.136,81.271,27.136c2.654,0,5.154-1.237,6.775-3.345
			c1.613-2.108,2.15-4.847,1.468-7.407l-22.11-82.125c19.908-24.337,30.933-54.707,30.933-86.323c0-5.769-0.461-11.443-1.169-17.067
			h35.302c4.71,0,8.533-3.823,8.533-8.533S431.377,247.467,426.667,247.467z M370.406,247.467h-41.233l-19.533-72.559
			C339.191,189.79,361.054,216.235,370.406,247.467z M202.368,174.908l-19.533,72.559h-41.242
			C150.946,216.235,172.809,189.79,202.368,174.908z M136.533,281.6c0-5.777,0.469-11.469,1.28-17.067h40.422l-22.17,82.347
			C143.445,327.569,136.533,304.981,136.533,281.6z M364.262,443.469c-35.831-1.783-47.394-12.271-58.607-22.451
			c-10.812-9.805-21.99-19.951-49.655-19.951s-38.844,10.146-49.655,19.951c-11.213,10.172-22.776,20.659-58.607,22.443L256,41.361
			L364.262,443.469z M355.934,346.88l-22.17-82.347h40.422c0.811,5.598,1.28,11.29,1.28,17.067
			C375.467,304.981,368.555,327.569,355.934,346.88z"/>
	</g>
</g>
<g>
</g>
<g>
</g>
<g>
</g>
<g>
</g>
<g>
</g>
<g>
</g>
<g>
</g>
<g>
</g>
<g>
</g>
<g>
</g>
<g>
</g>
<g>
</g>
<g>
</g>
<g>
</g>
<g>
</g>
</svg>
