<?xml version="1.0" encoding="iso-8859-1"?>
<!-- Generator: Adobe Illustrator 19.0.0, SVG Export Plug-In . SVG Version: 6.00 Build 0)  -->
<svg version="1.1" id="Layer_1" xmlns="http://www.w3.org/2000/svg" xmlns:xlink="http://www.w3.org/1999/xlink" x="0px" y="0px"
	 viewBox="0 0 512.001 512.001" style="enable-background:new 0 0 512.001 512.001;" xml:space="preserve">
<g>
	<g>
		<path d="M349.865,324.271h-85.332v-93.865h59.732c2.722,0,5.291-1.297,6.895-3.507c1.604-2.202,2.065-5.035,1.237-7.629
			L264.132,5.94c-1.28-4.002-5.248-6.511-9.446-5.828c-4.156,0.648-7.219,4.224-7.219,8.431v315.728h-85.332
			c-4.71,0-8.533,3.823-8.533,8.533s3.823,8.533,8.533,8.533h85.332v162.131c0,4.71,3.823,8.533,8.533,8.533
			s8.533-3.823,8.533-8.533V341.337h85.332c4.71,0,8.533-3.823,8.533-8.533S354.576,324.271,349.865,324.271z"/>
	</g>
</g>
<g>
</g>
<g>
</g>
<g>
</g>
<g>
</g>
<g>
</g>
<g>
</g>
<g>
</g>
<g>
</g>
<g>
</g>
<g>
</g>
<g>
</g>
<g>
</g>
<g>
</g>
<g>
</g>
<g>
</g>
</svg>
