<?xml version="1.0" encoding="UTF-8" standalone="no"?>
<!-- Created with Inkscape (http://www.inkscape.org/) -->

<svg
   xmlns:dc="http://purl.org/dc/elements/1.1/"
   xmlns:cc="http://creativecommons.org/ns#"
   xmlns:rdf="http://www.w3.org/1999/02/22-rdf-syntax-ns#"
   xmlns:svg="http://www.w3.org/2000/svg"
   xmlns="http://www.w3.org/2000/svg"
   xmlns:sodipodi="http://sodipodi.sourceforge.net/DTD/sodipodi-0.dtd"
   xmlns:inkscape="http://www.inkscape.org/namespaces/inkscape"
   width="96.978378mm"
   height="96.614716mm"
   viewBox="0 0 96.978378 96.614716"
   version="1.1"
   id="svg845"
   inkscape:version="0.92.3 (2405546, 2018-03-11)"
   sodipodi:docname="esri_north_011_b.svg">
  <defs
     id="defs839" />
  <sodipodi:namedview
     id="base"
     pagecolor="#ffffff"
     bordercolor="#666666"
     borderopacity="1.0"
     inkscape:pageopacity="0.0"
     inkscape:pageshadow="2"
     inkscape:zoom="0.97458821"
     inkscape:cx="179.89397"
     inkscape:cy="153.32184"
     inkscape:document-units="mm"
     inkscape:current-layer="text1587"
     showgrid="false"
     inkscape:window-width="1366"
     inkscape:window-height="745"
     inkscape:window-x="0"
     inkscape:window-y="23"
     inkscape:window-maximized="1"
     fit-margin-top="0"
     fit-margin-left="0"
     fit-margin-right="0"
     fit-margin-bottom="0"
     showguides="true"
     inkscape:guide-bbox="true" />
  <metadata
     id="metadata842">
    <rdf:RDF>
      <cc:Work
         rdf:about="">
        <dc:format>image/svg+xml</dc:format>
        <dc:type
           rdf:resource="http://purl.org/dc/dcmitype/StillImage" />
        <dc:title></dc:title>
      </cc:Work>
    </rdf:RDF>
  </metadata>
  <g
     inkscape:label="Camada 1"
     inkscape:groupmode="layer"
     id="layer1"
     transform="translate(-0.51983076,-199.78916)">
    <g
       aria-label="2"
       style="font-style:normal;font-weight:normal;font-size:124.42774963px;line-height:1.25;font-family:sans-serif;letter-spacing:0px;word-spacing:0px;fill:#000000;fill-opacity:1;stroke:none;stroke-width:5.18448925"
       id="text1587">
      <g
         aria-label="-"
         style="font-style:normal;font-weight:normal;font-size:121.22297668px;line-height:1.25;font-family:sans-serif;letter-spacing:0px;word-spacing:0px;fill:#000000;fill-opacity:1;stroke:none;stroke-width:26.18663406"
         id="text1792">
        <path
           d="m 97.498212,249.73302 -1.091007,4.36403 H 84.891023 v -0.60611 q 1.091006,0 1.454675,-0.36367 0.363669,-0.36367 0.363669,-1.45468 v -8.9705 q 0,-1.33345 -0.363669,-1.5759 -0.242446,-0.36367 -1.333452,-0.36367 v -0.48489 h 11.273736 v 4.00036 h -0.242446 q -0.242446,-2.06079 -1.333452,-2.66691 -0.969784,-0.72733 -3.394244,-0.72733 -0.969784,0 -1.212229,0.24244 -0.242446,0.12123 -0.242446,1.09101 v 4.36403 h 0.242446 q 1.575898,0 2.182013,-0.60612 0.606115,-0.72734 0.969784,-2.54568 H 93.7403 v 6.90971 h -0.484892 q -0.242446,-1.81835 -0.848561,-2.42446 -0.606115,-0.72734 -2.303236,-0.72734 h -0.242446 v 4.7277 q 0,0.84856 0.121223,1.091 0.242446,0.12123 1.212229,0.12123 h 0.848561 q 3.636689,0 4.727696,-3.39425 z M 59.191751,200.39527 q -1.333452,0 -1.697121,0.36367 -0.242446,0.24245 -0.242446,1.33345 v 11.87986 h -0.727338 l -8.485608,-11.0313 v 8.36439 q 0,1.09101 0.242446,1.45468 0.363669,0.36366 1.333452,0.48489 v 0.48489 h -4.242804 v -0.48489 q 0.969784,-0.12123 1.21223,-0.48489 0.363669,-0.36367 0.363669,-1.45468 v -9.45539 q -0.484892,-0.36367 -0.606115,-0.72734 -0.121223,-0.36367 -0.969784,-0.72734 v -0.60611 h 4.000358 l 6.90971,8.72805 v -6.42482 q 0,-0.96978 -0.363669,-1.33345 -0.242446,-0.36367 -1.333453,-0.36367 v -0.60611 h 4.606473 z m 24.244596,47.15574 -24.608264,6.42482 -6.90971,24.72949 -6.424818,-24.72949 -25.093156,-6.42482 25.093156,-6.54604 6.424818,-24.97193 6.90971,24.97193 z M 56.2824,286.22114 h -0.606115 q -1.333453,-3.51547 -3.757912,-3.51547 -2.060791,0 -2.060791,1.69712 0,0.96979 0.242446,1.33346 0.363669,0.24244 1.333453,0.84856 l 2.303237,1.09101 q 2.788128,1.81834 2.788128,4.48525 0,1.93956 -1.21223,3.15179 -1.21223,1.09101 -3.515466,1.09101 -0.969784,0 -1.939568,-0.36367 -0.969784,-0.36367 -1.091007,-0.36367 -0.606114,0 -0.606114,0.72734 h -0.727338 v -4.97014 h 0.727338 q 1.091006,4.2428 3.757912,4.2428 2.545682,0 2.545682,-2.42446 0,-1.21223 -1.697121,-2.06079 l -1.939568,-0.96978 q -3.030574,-1.69712 -3.030574,-4.36403 0,-1.69712 0.969783,-2.90935 1.091007,-1.21223 2.788129,-1.21223 0.242446,0 1.091007,0.24245 0.848561,0.12122 2.06079,0.60611 h 0.121223 q 0.727338,0 0.727338,-0.84856 H 56.2824 Z M 19.551838,240.88375 q -0.727338,0 -1.333453,1.33345 l -3.879135,11.87985 h -0.606115 l -3.151797,-9.33417 -3.8791354,9.33417 H 6.0960877 L 1.9745065,242.09598 q -0.242446,-0.84856 -0.6061149,-0.96979 -0.242446,-0.24244 -0.84856084,-0.24244 v -0.60612 H 6.4597566 v 0.60612 H 6.0960877 q -0.8485608,0 -0.8485608,0.84856 0,0.84856 0.1212229,0.96978 l 2.1820136,6.54604 2.5456826,-5.93992 -0.484892,-1.45468 q 0,-0.60611 -0.3636689,-0.84856 0,0 -0.3636689,0 -0.363669,-0.12122 -0.7273379,-0.12122 H 7.6719864 v -0.60612 h 6.4248176 v 0.60612 h -0.484892 q -0.848561,0 -0.848561,0.60611 l 2.545683,7.3946 1.697122,-6.06115 q 0.121223,-0.12122 0.363669,-1.091 -0.121223,-0.84856 -1.21223,-0.84856 v -0.60612 h 3.394243 z m 38.064015,0.72733 -5.576257,-20.72912 v 26.18416 z m 21.941359,5.93993 H 52.160819 l 5.69748,5.69748 z m -28.123731,-0.36367 -5.333811,-5.45503 -20.850352,5.45503 z m 0.363669,26.79028 v -26.30539 l -5.576257,5.81871 z"
           style="font-style:normal;font-variant:normal;font-weight:normal;font-stretch:normal;font-family:'ESRI North';-inkscape-font-specification:'ESRI North, ';stroke-width:26.18663406;fill:#000000"
           id="path2366" />
      </g>
    </g>
  </g>
</svg>
