<?xml version="1.0" encoding="iso-8859-1"?>
<!-- Generator: Adobe Illustrator 19.0.0, SVG Export Plug-In . SVG Version: 6.00 Build 0)  -->
<svg version="1.1" id="Layer_1" xmlns="http://www.w3.org/2000/svg" xmlns:xlink="http://www.w3.org/1999/xlink" x="0px" y="0px"
	 viewBox="0 0 512 512" style="enable-background:new 0 0 512 512;" xml:space="preserve">
<g>
	<g>
		<path d="M503.467,247.808h-34.338c-4.13-106.324-88.054-195.171-194.642-204.327L264.222,6.268
			c-1.015-3.703-4.386-6.263-8.226-6.263c-3.84,0-7.211,2.56-8.226,6.263l-10.265,37.213
			C130.916,52.637,46.992,141.476,42.862,247.808H8.533c-4.719,0-8.533,3.823-8.533,8.533s3.814,8.533,8.533,8.533h34.355
			c4.557,110.693,93.84,199.856,204.575,204.242v34.346c0,4.71,3.814,8.533,8.533,8.533c4.719,0,8.533-3.823,8.533-8.533v-34.346
			c110.735-4.386,200.018-93.541,204.575-204.242h34.363c4.719,0,8.533-3.823,8.533-8.533S508.186,247.808,503.467,247.808z
			 M232.581,61.332l-4.898,17.758C144.288,92.359,81.091,163.859,77.174,247.808H60.133
			C64.178,152.45,137.845,72.681,232.581,61.332z M181.143,247.808H94.249c3.755-72.984,57.053-135.319,128.365-150.329
			L181.143,247.808z M182.209,264.875l64.332,152.778c-82.038-4.77-147.744-70.672-152.215-152.778H182.209z M247.463,452.042
			C146.131,447.69,64.485,366.155,59.954,264.875h17.288c4.531,91.826,78.352,165.535,170.22,169.887V452.042z M247.463,243.542
			c0,2.355-1.911,4.267-4.267,4.267h-38.749c-2.816,0-4.864-2.688-4.113-5.402l38.749-140.465c1.323-4.796,8.38-3.84,8.38,1.126
			V243.542z M451.858,247.808h-17.049c-3.908-83.941-67.105-155.449-150.5-168.71l-4.898-17.758
			C374.146,72.681,447.822,152.45,451.858,247.808z M330.849,247.808L289.378,97.479c71.312,15.01,124.61,77.345,128.365,150.329
			H330.849z M417.674,264.875c-4.48,82.115-70.185,148.008-152.215,152.778l64.323-152.778H417.674z M264.529,269.141
			c0-2.355,1.911-4.267,4.267-4.267h36.044c3.055,0,5.12,3.106,3.934,5.922l-36.044,85.605c-1.809,4.284-8.2,2.995-8.2-1.655
			V269.141z M264.529,452.05v-17.28c91.868-4.36,165.68-78.062,170.212-169.887h17.288
			C447.498,366.155,365.861,447.69,264.529,452.05z"/>
	</g>
</g>
<g>
</g>
<g>
</g>
<g>
</g>
<g>
</g>
<g>
</g>
<g>
</g>
<g>
</g>
<g>
</g>
<g>
</g>
<g>
</g>
<g>
</g>
<g>
</g>
<g>
</g>
<g>
</g>
<g>
</g>
</svg>
