<?xml version="1.0" encoding="UTF-8" standalone="no"?>
<!-- Created with Inkscape (http://www.inkscape.org/) -->

<svg
   xmlns:dc="http://purl.org/dc/elements/1.1/"
   xmlns:cc="http://creativecommons.org/ns#"
   xmlns:rdf="http://www.w3.org/1999/02/22-rdf-syntax-ns#"
   xmlns:svg="http://www.w3.org/2000/svg"
   xmlns="http://www.w3.org/2000/svg"
   xmlns:sodipodi="http://sodipodi.sourceforge.net/DTD/sodipodi-0.dtd"
   xmlns:inkscape="http://www.inkscape.org/namespaces/inkscape"
   width="96.978378mm"
   height="96.978378mm"
   viewBox="0 0 96.978378 96.978379"
   version="1.1"
   id="svg845"
   inkscape:version="0.92.3 (2405546, 2018-03-11)"
   sodipodi:docname="esri_north_007_b.svg">
  <defs
     id="defs839" />
  <sodipodi:namedview
     id="base"
     pagecolor="#ffffff"
     bordercolor="#666666"
     borderopacity="1.0"
     inkscape:pageopacity="0.0"
     inkscape:pageshadow="2"
     inkscape:zoom="0.97458821"
     inkscape:cx="179.89397"
     inkscape:cy="153.32187"
     inkscape:document-units="mm"
     inkscape:current-layer="text1587"
     showgrid="false"
     inkscape:window-width="1366"
     inkscape:window-height="745"
     inkscape:window-x="0"
     inkscape:window-y="23"
     inkscape:window-maximized="1"
     fit-margin-top="0"
     fit-margin-left="0"
     fit-margin-right="0"
     fit-margin-bottom="0"
     showguides="true"
     inkscape:guide-bbox="true" />
  <metadata
     id="metadata842">
    <rdf:RDF>
      <cc:Work
         rdf:about="">
        <dc:format>image/svg+xml</dc:format>
        <dc:type
           rdf:resource="http://purl.org/dc/dcmitype/StillImage" />
        <dc:title></dc:title>
      </cc:Work>
    </rdf:RDF>
  </metadata>
  <g
     inkscape:label="Camada 1"
     inkscape:groupmode="layer"
     id="layer1"
     transform="translate(-0.51983076,-199.42549)">
    <g
       aria-label="2"
       style="font-style:normal;font-weight:normal;font-size:124.42774963px;line-height:1.25;font-family:sans-serif;letter-spacing:0px;word-spacing:0px;fill:#000000;fill-opacity:1;stroke:none;stroke-width:5.18448925"
       id="text1587">
      <g
         aria-label="7"
         style="font-style:normal;font-weight:normal;font-size:121.22297668px;line-height:1.25;font-family:sans-serif;letter-spacing:0px;word-spacing:0px;fill:#000000;fill-opacity:1;stroke:none;stroke-width:26.18663406"
         id="text1792">
        <path
           d="m 97.498212,248.0359 -6.182372,1.33345 q -0.242446,8.36439 -3.636689,15.75899 -3.27302,7.3946 -8.849277,12.97086 -5.455034,5.57626 -12.970859,8.84928 -7.394601,3.27302 -15.758987,3.51546 l -1.091007,5.93993 -1.212229,-5.93993 Q 39.311183,290.2215 31.795359,286.94848 24.400757,283.55423 18.8245,278.0992 13.369466,272.52294 10.096446,265.12834 6.8234256,257.61252 6.5809796,249.24813 L 0.51983076,248.0359 6.5809796,246.82367 q 0.242446,-8.36438 3.5154664,-15.75898 3.394243,-7.39461 8.849277,-12.97086 5.576257,-5.57626 12.970859,-8.84928 7.515824,-3.27302 15.88021,-3.51547 l 1.212229,-6.30359 1.21223,6.30359 q 8.485609,0.24245 15.88021,3.63669 7.394602,3.27302 12.849636,8.84928 5.576257,5.45503 8.849277,12.97086 3.27302,7.3946 3.515466,15.75899 z m -47.398184,16.24388 q 5.212588,-0.12122 9.334169,-3.51547 l 2.303237,-2.30323 q 3.27302,-3.87914 3.879135,-9.21295 v -2.30323 q -0.363669,-3.75792 -2.182013,-6.66727 l -4.48525,-5.21259 q -3.273021,-2.54568 -8.000717,-3.15179 l -2.545682,-0.12123 q -5.576257,0.36367 -9.697839,3.75792 l -2.182013,2.18201 q -3.273021,4.00036 -3.636689,8.84928 v 2.30323 q 0.121223,5.57626 3.636689,9.57662 l 2.303236,2.30323 q 3.879136,3.1518 8.970501,3.51547 l 2.303236,0.12122 z m -15.152872,-50.6712 q -6.667264,2.78813 -12.001075,8.00071 -5.212588,5.09137 -8.243162,11.75863 l 17.941001,7.03093 0.363669,-0.84856 -9.455393,-17.45611 18.425893,9.21295 0.484892,-0.12122 z m 6.788487,51.27732 q -0.484892,-0.24245 -0.606115,-0.36367 l -17.456109,9.69783 8.970501,-18.30466 -0.242446,-0.4849 -17.819778,7.27338 q 2.788129,6.54604 7.758271,11.63741 4.970142,4.97014 11.516182,7.87949 z m 41.337035,-30.79064 q -2.788129,-6.54604 -7.515825,-11.51618 -4.606473,-4.97015 -10.788845,-8.00072 l -8.121939,16.97122 q 0.363669,0.12122 0.848561,0.36367 l 17.577331,-8.72806 -9.455392,16.97122 q 0.121223,0.36367 0.242446,0.72734 0.121223,0.24244 0.242446,0.48489 z M 82.587786,263.31 65.737792,255.79417 65.2529,256.52151 74.950738,273.3715 56.524846,264.76467 q -0.969784,0.24245 -0.606115,0.24245 l 7.879494,17.21366 q 6.182371,-2.78813 11.03129,-7.75827 4.84892,-4.97014 7.758271,-11.15251 z M 42.220535,248.0359 q 0,-3.03057 2.06079,-5.09136 2.060791,-2.06079 4.970142,-2.06079 2.909352,0 4.970142,2.06079 2.060791,2.06079 2.060791,5.09136 0,3.03058 -2.060791,5.21259 -2.06079,2.06079 -4.970142,2.06079 -2.909351,0 -4.970142,-2.06079 -2.06079,-2.18201 -2.06079,-5.21259 z m 22.062581,-33.69999 q -3.151797,-1.45467 -6.424817,-2.30323 -3.151798,-0.96979 -6.667264,-1.21223 l 4.000358,20.12301 q 0.727338,0.12123 0.969784,0.36367 z m -32.124088,40.6097 -0.242446,-0.84856 -20.36546,-3.87913 q 0.121223,3.15179 0.84856,6.18237 0.727338,2.90935 1.939568,5.8187 z m 14.546757,30.54819 -4.000358,-20.36546 q -0.363669,0 -0.484892,-0.12122 l -7.879494,17.45611 q 5.69748,2.6669 12.364744,3.03057 z M 32.401474,240.88375 14.460473,233.85281 q -2.545682,5.69748 -2.909351,12.00108 l 20.486683,-4.12158 z m 30.911859,41.57948 -7.879494,-17.21367 q -0.969784,0.24245 -0.606115,0.24245 l -3.757912,20.00179 q 6.788487,-0.36367 12.243521,-3.03057 z m 22.547473,-31.88165 -19.638122,4.12159 q -0.242446,0.96978 -0.242446,0.60611 l 16.849994,7.51583 q 1.21223,-2.90936 1.939568,-5.93993 0.84856,-3.1518 1.091006,-6.3036 z M 46.827008,210.82045 q -5.939926,0.60611 -11.39496,2.6669 l 7.637048,17.45611 z m 39.033798,35.15466 q -0.363669,-5.69748 -2.545682,-11.39496 l -16.971217,7.27338 q 0,0.36367 0.121223,0.48489 z m -54.18667,7.3946 q -0.242446,-0.60611 -0.363669,-1.091 0,-0.60612 -0.121223,-1.21223 -0.121223,-0.24245 -0.121223,-1.45468 v -1.45468 H 11.551122 v 0.24245 1.21223 z m 17.334885,-42.67048 h -1.575898 l -3.63669,20.00179 q 0.969784,-0.24245 2.060791,-0.4849 1.091007,-0.24244 2.42446,-0.36366 h 0.727337 z m 5.091365,54.914 q -2.666905,0.60612 -4.000358,0.60612 h -1.091007 v 19.27445 h 1.454676 z M 85.982029,248.0359 V 246.46 l -19.274453,-3.39424 q 0.484892,1.81834 0.727338,3.87914 0,0.24244 0,0.48489 0.121223,0.12122 0.121223,0.24244 v 0.36367 z m 0.484892,-15.51654 q -2.909351,-6.90971 -8.121939,-12.24352 -5.212588,-5.45503 -12.122298,-8.72805 l -0.848561,1.69712 q 6.546041,3.1518 11.39496,8.36438 4.970142,5.21259 7.758271,11.87985 z m -0.484892,32.24531 -1.939567,-0.84856 q -3.030575,6.54604 -8.12194,11.63741 -4.970142,4.97014 -11.516183,7.87949 l 0.727338,1.5759 q 6.90971,-3.03057 12.243521,-8.12194 5.455034,-5.21259 8.606831,-12.1223 z M 33.613703,210.82045 q -7.273378,3.03057 -12.970858,8.60683 -5.576257,5.45503 -8.728054,12.72841 l 1.697121,0.72734 q 3.030575,-6.90971 8.364386,-12.24352 5.333811,-5.33381 12.364743,-8.24316 z m -0.242446,72.49134 q -6.909709,-2.90935 -12.001074,-8.00072 -5.091365,-5.21259 -7.879494,-12.1223 l -1.697121,0.60612 q 2.909351,7.27338 8.243162,12.72841 5.333811,5.33381 12.60719,8.36439 z m 24.365819,-34.42733 h 6.061149 q -0.363669,5.57626 -3.63669,9.21295 l -4.364027,-4.60647 q 1.575899,-1.93957 1.939568,-4.60648 z m -3.151798,5.81871 4.364028,4.60647 q -4.000359,3.51547 -8.849278,3.63669 v -6.42482 q 2.545683,-0.24245 4.48525,-1.81834 z m -6.182371,8.24316 q -5.091365,-0.36367 -8.849278,-3.75791 l 4.242804,-4.48525 q 1.818345,1.57589 4.606474,1.81834 z m 1.697121,-29.45719 q 2.42446,0.24245 4.727696,1.21223 2.42446,0.84857 4.242805,2.54569 l -4.485251,4.2428 v 0.12122 q -2.06079,-1.69712 -4.48525,-2.06079 z m -7.515824,9.09173 q -1.575899,1.81834 -1.818345,4.60647 H 34.70471 q 0.484892,-5.69748 3.879135,-9.09172 z m -1.818345,6.30359 q 0.121223,2.78813 1.697122,4.7277 l -4.121582,4.36403 q -3.27302,-3.63669 -3.636689,-9.09173 z m 15.031649,-6.18237 4.48525,-4.2428 q 2.909352,3.27302 3.515467,8.72805 h -6.061149 q -0.242446,-1.09101 -0.727338,-2.30324 -0.363669,-1.21223 -1.21223,-2.18201 z m -7.394601,-9.21295 v 6.06115 q -2.666906,0.60612 -4.606474,1.81835 l -4.000358,-4.48525 q 1.818345,-1.5759 4.000358,-2.30324 2.182014,-0.84856 4.606474,-1.09101 z m -11.758629,1.33346 -10.788845,-10.5464 7.515824,14.66798 q 0.969784,-1.5759 1.454676,-2.18201 0.484892,-0.60612 1.818345,-1.93957 z m 36.366893,-9.94029 -14.910426,7.3946 q 0.848561,0.4849 1.575898,1.09101 0.848561,0.48489 1.697122,1.33345 0.242446,0.12123 0.363669,0.24245 0.121223,0.12122 0.484892,0.36367 z m -32.487758,39.27625 q -0.969784,-0.48489 -1.818345,-1.09101 -0.727337,-0.60611 -1.454675,-1.21223 -0.242446,-0.12122 -0.727338,-0.60611 l -10.667622,10.66762 z m 32.245312,7.27338 -7.879494,-14.18309 q -0.363669,0.60611 -0.84856,1.33345 -0.484892,0.60612 -0.969784,1.21223 l -1.091007,1.21223 z m 16.971217,-21.69892 -2.42446,0.4849 q -0.242446,3.51546 -1.091007,6.90971 -0.727338,3.27302 -2.06079,6.30359 l 1.939567,0.84856 q 3.030575,-6.66726 3.63669,-14.54676 z m 0,-3.03057 q -0.363669,-7.27338 -3.030575,-13.6982 l -2.06079,0.96979 q 2.424459,6.30359 2.788128,12.24352 z M 65.737792,211.30534 Q 58.70686,208.27477 50.58492,207.66865 l 0.363669,1.93957 q 7.394602,0.36367 13.940642,3.39424 z M 47.3119,288.28193 46.948231,286.58481 q -6.90971,-0.36367 -13.092082,-3.03058 l -0.727338,1.5759 q 3.394244,1.45468 6.788487,2.30324 3.515467,0.72734 7.394602,0.84856 z M 13.248243,262.58266 q -1.212229,-3.03058 -1.939567,-6.18237 -0.727338,-3.1518 -0.848561,-6.42482 L 8.7629932,249.6118 q 0.121223,3.51547 0.7273378,6.90971 0.727338,3.39424 2.060791,6.78849 z m 51.398542,22.6687 -0.727337,-1.69713 q -3.151798,1.33346 -6.424818,2.18202 -3.151798,0.72734 -6.667264,0.84856 l -0.242446,1.69712 q 7.515825,-0.24245 14.061865,-3.03057 z M 47.433123,207.66865 q -6.788487,0.48489 -13.213305,2.90935 l 0.606115,1.69712 q 6.182372,-2.42446 12.243521,-2.78812 z m -34.063657,25.69927 -1.575898,-0.60611 q -1.333453,3.39424 -2.182014,6.78848 -0.7273378,3.39425 -0.8485608,6.90971 l 1.6971218,-0.36367 q 0.242446,-3.39424 0.969784,-6.42481 0.727338,-3.1518 1.939567,-6.3036 z m 76.370476,14.66798 v -0.84856 l -2.303237,-0.48489 v 1.33345 z M 49.009021,207.66865 h -0.969783 l -0.363669,1.81835 h 1.333452 z m 1.21223,78.91616 h -1.21223 v 1.69712 h 0.969784 z M 10.460115,249.49058 v -1.33346 H 8.7629932 v 0.36367 0.60612 z m 84.249969,-1.45468 -3.394244,-0.60611 q 0,0.24244 0,0.36367 0.121223,0.12122 0.121223,0.24244 z m -45.701063,-45.57984 -0.606114,3.27302 q 0.121223,0 0.242446,0 0.121222,-0.12122 0.363668,-0.12122 z m -45.4586158,45.70106 3.0305744,0.60612 v -0.60612 z m 45.9435078,42.30682 h -0.484892 v 2.90936 z"
           style="font-style:normal;font-variant:normal;font-weight:normal;font-stretch:normal;font-family:'ESRI North';-inkscape-font-specification:'ESRI North, ';stroke-width:26.18663406"
           id="path2126" />
      </g>
    </g>
  </g>
</svg>
