<?xml version="1.0" encoding="iso-8859-1"?>
<!-- Generator: Adobe Illustrator 19.0.0, SVG Export Plug-In . SVG Version: 6.00 Build 0)  -->
<svg version="1.1" id="Layer_1" xmlns="http://www.w3.org/2000/svg" xmlns:xlink="http://www.w3.org/1999/xlink" x="0px" y="0px"
	 viewBox="0 0 512 512" style="enable-background:new 0 0 512 512;" xml:space="preserve">
<g>
	<g>
		<path d="M264.536,119.536V85.177h42.682c3.235,0,6.189-1.827,7.64-4.721c1.451-2.894,1.135-6.351-0.811-8.938L262.829,3.227
			c-3.218-4.302-10.44-4.302-13.658,0l-51.219,68.292c-1.946,2.587-2.254,6.044-0.811,8.938c1.443,2.894,4.405,4.721,7.64,4.721
			h42.682v34.359c-104.316,4.49-187.802,90.726-187.802,196.125C59.661,423.921,147.741,512,256,512s196.339-88.079,196.339-196.339
			C452.339,210.262,368.852,124.026,264.536,119.536z M256,494.927c-98.852,0-179.266-80.414-179.266-179.266
			c0-95.967,75.855-174.332,170.729-178.83v235.402L152.18,225.644c-2.066-3.176-5.967-4.618-9.586-3.534
			c-3.619,1.076-6.104,4.405-6.104,8.187v170.729c0,4.712,3.824,8.536,8.536,8.536c4.712,0,8.536-3.824,8.536-8.536V259.099
			l95.284,146.58c1.605,2.467,4.319,3.884,7.154,3.884c0.811,0,1.622-0.111,2.424-0.35c3.628-1.076,6.112-4.405,6.112-8.186V136.831
			c94.874,4.499,170.729,82.863,170.729,178.83C435.266,414.514,354.852,494.927,256,494.927z"/>
	</g>
</g>
<g>
</g>
<g>
</g>
<g>
</g>
<g>
</g>
<g>
</g>
<g>
</g>
<g>
</g>
<g>
</g>
<g>
</g>
<g>
</g>
<g>
</g>
<g>
</g>
<g>
</g>
<g>
</g>
<g>
</g>
</svg>
