<?xml version="1.0" encoding="UTF-8" standalone="no"?>
<!-- Created with Inkscape (http://www.inkscape.org/) -->
<svg
   xmlns:dc="http://purl.org/dc/elements/1.1/"
   xmlns:cc="http://creativecommons.org/ns#"
   xmlns:rdf="http://www.w3.org/1999/02/22-rdf-syntax-ns#"
   xmlns:svg="http://www.w3.org/2000/svg"
   xmlns="http://www.w3.org/2000/svg"
   xmlns:sodipodi="http://sodipodi.sourceforge.net/DTD/sodipodi-0.dtd"
   xmlns:inkscape="http://www.inkscape.org/namespaces/inkscape"
   version="1.0"
   x="0.00000000"
   y="0.00000000"
   width="600.00000"
   height="600.00000"
   id="svg2"
   sodipodi:version="0.32"
   inkscape:version="0.46"
   sodipodi:docname="Brosen_windrose_It.svg"
   sodipodi:docbase="D:\zzz_priv\wikipedia\inkscape"
   inkscape:label="napisy"
   inkscape:output_extension="org.inkscape.output.svg.inkscape">
  <metadata
     id="metadata36">
    <rdf:RDF>
      <cc:Work
         rdf:about="">
        <dc:format>image/svg+xml</dc:format>
        <dc:type
           rdf:resource="http://purl.org/dc/dcmitype/StillImage" />
      </cc:Work>
    </rdf:RDF>
  </metadata>
  <sodipodi:namedview
     inkscape:window-height="845"
     inkscape:window-width="1152"
     inkscape:pageshadow="2"
     inkscape:pageopacity="0.0"
     borderopacity="1.0"
     bordercolor="#666666"
     pagecolor="#ffffff"
     id="base"
     inkscape:zoom="1.1775672"
     inkscape:cx="300.97638"
     inkscape:cy="299.30626"
     inkscape:window-x="-4"
     inkscape:window-y="-4"
     inkscape:current-layer="layer6"
     showgrid="true" />
  <defs
     id="defs4">
    <inkscape:perspective
       sodipodi:type="inkscape:persp3d"
       inkscape:vp_x="0 : 300 : 1"
       inkscape:vp_y="0 : 1000 : 0"
       inkscape:vp_z="600 : 300 : 1"
       inkscape:persp3d-origin="300 : 200 : 1"
       id="perspective83" />
  </defs>
  <g
     inkscape:groupmode="layer"
     id="layer7"
     inkscape:label="p4"
     style="display: inline;">
    <path
       sodipodi:type="arc"
       style="opacity: 1; fill: none; fill-opacity: 1; fill-rule: nonzero; stroke: rgb(0, 0, 0); stroke-width: 0.88721; stroke-linecap: square; stroke-linejoin: miter; stroke-miterlimit: 4; stroke-dasharray: none; stroke-dashoffset: 0pt; stroke-opacity: 1;"
       id="path2408"
       sodipodi:cx="187.67506"
       sodipodi:cy="113.40358"
       sodipodi:rx="119.73839"
       sodipodi:ry="119.73839"
       d="M 307.41345 113.40358 A 119.73839 119.73839 0 1 1  67.936676,113.40358 A 119.73839 119.73839 0 1 1  307.41345 113.40358 z"
       transform="matrix(1.12713, 0, 0, 1.12713, 95.6565, 171.796)" />
  </g>
  <g
     style="display: inline;"
     id="layer3" />
  <g
     style="display: inline;"
     id="layer4" />
  <g
     inkscape:groupmode="layer"
     id="layer1"
     inkscape:label="p3"
     style="display: inline;">
    <g
       id="g2362"
       transform="matrix(0.695009, 0, 0, 0.683713, 94.0003, 94.6945)">
      <path
         d="M 264.65488,281.35479 L 307.55343,299.12392 L 307.53867,299.13003 L 83.172594,392.06566 L 264.65488,281.35479"
         style="fill: rgb(194, 194, 194); fill-opacity: 1; fill-rule: evenodd; stroke: rgb(194, 194, 194); stroke-width: 1; stroke-linecap: square; stroke-linejoin: miter; stroke-miterlimit: 4; stroke-dasharray: none; stroke-opacity: 1; display: inline;"
         id="path8773" />
      <path
         d="M 290.16697,342.94635 L 307.9361,300.0478 L 307.92135,300.05391 L 83.555271,392.98954 L 290.16697,342.94635"
         style="fill: rgb(153, 153, 153); fill-opacity: 1; fill-rule: evenodd; stroke: rgb(153, 153, 153); stroke-width: 1; stroke-linecap: square; stroke-linejoin: miter; stroke-miterlimit: 4; stroke-dasharray: none; stroke-opacity: 1; display: inline;"
         id="path8775" />
      <path
         d="M 351.75849,317.43427 L 308.85994,299.66514 L 308.8747,299.65903 L 533.24078,206.7234 L 351.75849,317.43427"
         style="fill: rgb(225, 225, 225); fill-opacity: 1; fill-rule: evenodd; stroke: rgb(194, 194, 194); stroke-width: 1; stroke-linecap: square; stroke-linejoin: miter; stroke-miterlimit: 4; stroke-dasharray: none; stroke-opacity: 1; display: inline;"
         id="path8779" />
      <path
         d="M 290.16693,342.94611 L 307.93606,300.04756 L 307.94217,300.06232 L 400.8778,524.4284 L 290.16693,342.94611"
         style="fill: rgb(194, 194, 194); fill-opacity: 1; fill-rule: evenodd; stroke: rgb(194, 194, 194); stroke-width: 1; stroke-linecap: square; stroke-linejoin: miter; stroke-miterlimit: 4; stroke-dasharray: none; stroke-opacity: 1; display: inline;"
         id="path8787" />
      <path
         d="M 351.75849,317.43402 L 308.85994,299.66489 L 308.86605,299.67964 L 401.80168,524.04572 L 351.75849,317.43402"
         style="fill: rgb(153, 153, 153); fill-opacity: 1; fill-rule: evenodd; stroke: rgb(153, 153, 153); stroke-width: 1; stroke-linecap: square; stroke-linejoin: miter; stroke-miterlimit: 4; stroke-dasharray: none; stroke-opacity: 1; display: inline;"
         id="path8789" />
      <path
         d="M 326.24641,255.8425 L 308.47728,298.74105 L 308.47117,298.72629 L 215.53554,74.360214 L 326.24641,255.8425"
         style="fill: rgb(225, 225, 225); fill-opacity: 1; fill-rule: evenodd; stroke: rgb(194, 194, 194); stroke-width: 1; stroke-linecap: square; stroke-linejoin: miter; stroke-miterlimit: 4; stroke-dasharray: none; stroke-opacity: 1; display: inline;"
         id="path8793" />
      <path
         d="M 264.65485,281.3546 L 307.5534,299.12373 L 307.53864,299.12984 L 83.172563,392.06547 L 264.65485,281.3546"
         style="fill: rgb(225, 225, 225); fill-opacity: 1; fill-rule: evenodd; stroke: rgb(194, 194, 194); stroke-width: 1; stroke-linecap: square; stroke-linejoin: miter; stroke-miterlimit: 4; stroke-dasharray: none; stroke-opacity: 1; display: inline;"
         id="path1397" />
      <path
         d="M 290.16693,342.94637 L 307.93606,300.04782 L 307.94217,300.06258 L 400.8778,524.42866 L 290.16693,342.94637"
         style="fill: rgb(225, 225, 225); fill-opacity: 1; fill-rule: evenodd; stroke: rgb(194, 194, 194); stroke-width: 1; stroke-linecap: square; stroke-linejoin: miter; stroke-miterlimit: 4; stroke-dasharray: none; stroke-opacity: 1; display: inline;"
         id="path1405" />
      <g
         id="g2356">
        <path
           id="path8781"
           style="fill: rgb(180, 180, 180); fill-opacity: 1; fill-rule: evenodd; stroke: rgb(180, 180, 180); stroke-width: 1; stroke-linecap: square; stroke-linejoin: miter; stroke-miterlimit: 4; stroke-dasharray: none; stroke-opacity: 1; display: inline;"
           d="M 326.2464,255.84271 L 308.47727,298.74126 L 308.49202,298.73515 L 532.8581,205.79952 L 326.2464,255.84271" />
        <path
           id="path8795"
           style="fill: rgb(180, 180, 180); fill-opacity: 1; fill-rule: evenodd; stroke: rgb(180, 180, 180); stroke-width: 1; stroke-linecap: square; stroke-linejoin: miter; stroke-miterlimit: 4; stroke-dasharray: none; stroke-opacity: 1; display: inline;"
           d="M 264.65485,281.35459 L 307.5534,299.12372 L 307.54729,299.10897 L 214.61166,74.742891 L 264.65485,281.35459" />
        <path
           id="path1399"
           style="fill: rgb(180, 180, 180); fill-opacity: 1; fill-rule: evenodd; stroke: rgb(180, 180, 180); stroke-width: 1; stroke-linecap: square; stroke-linejoin: miter; stroke-miterlimit: 4; stroke-dasharray: none; stroke-opacity: 1; display: inline;"
           d="M 290.16694,342.94616 L 307.93607,300.04761 L 307.92132,300.05372 L 83.55524,392.98935 L 290.16694,342.94616" />
        <path
           id="path1407"
           style="fill: rgb(180, 180, 180); fill-opacity: 1; fill-rule: evenodd; stroke: rgb(180, 180, 180); stroke-width: 1; stroke-linecap: square; stroke-linejoin: miter; stroke-miterlimit: 4; stroke-dasharray: none; stroke-opacity: 1; display: inline;"
           d="M 351.75849,317.43428 L 308.85994,299.66515 L 308.86605,299.6799 L 401.80168,524.04598 L 351.75849,317.43428" />
      </g>
    </g>
    <g
       style="display: inline;"
       id="g2377"
       transform="matrix(0.491446, -0.491446, 0.483458, 0.483458, 11.9952, 306.116)">
      <path
         d="M 264.65488,281.35479 L 307.55343,299.12392 L 307.53867,299.13003 L 83.172594,392.06566 L 264.65488,281.35479"
         style="fill: rgb(194, 194, 194); fill-opacity: 1; fill-rule: evenodd; stroke: rgb(194, 194, 194); stroke-width: 1; stroke-linecap: square; stroke-linejoin: miter; stroke-miterlimit: 4; stroke-dasharray: none; stroke-opacity: 1; display: inline;"
         id="path2379" />
      <path
         d="M 290.16697,342.94635 L 307.9361,300.0478 L 307.92135,300.05391 L 83.555271,392.98954 L 290.16697,342.94635"
         style="fill: rgb(153, 153, 153); fill-opacity: 1; fill-rule: evenodd; stroke: rgb(153, 153, 153); stroke-width: 1; stroke-linecap: square; stroke-linejoin: miter; stroke-miterlimit: 4; stroke-dasharray: none; stroke-opacity: 1; display: inline;"
         id="path2381" />
      <path
         d="M 351.75849,317.43427 L 308.85994,299.66514 L 308.8747,299.65903 L 533.24078,206.7234 L 351.75849,317.43427"
         style="fill: rgb(225, 225, 225); fill-opacity: 1; fill-rule: evenodd; stroke: rgb(194, 194, 194); stroke-width: 1; stroke-linecap: square; stroke-linejoin: miter; stroke-miterlimit: 4; stroke-dasharray: none; stroke-opacity: 1; display: inline;"
         id="path2383" />
      <path
         d="M 290.16693,342.94611 L 307.93606,300.04756 L 307.94217,300.06232 L 400.8778,524.4284 L 290.16693,342.94611"
         style="fill: rgb(194, 194, 194); fill-opacity: 1; fill-rule: evenodd; stroke: rgb(194, 194, 194); stroke-width: 1; stroke-linecap: square; stroke-linejoin: miter; stroke-miterlimit: 4; stroke-dasharray: none; stroke-opacity: 1; display: inline;"
         id="path2385" />
      <path
         d="M 351.75849,317.43402 L 308.85994,299.66489 L 308.86605,299.67964 L 401.80168,524.04572 L 351.75849,317.43402"
         style="fill: rgb(153, 153, 153); fill-opacity: 1; fill-rule: evenodd; stroke: rgb(153, 153, 153); stroke-width: 1; stroke-linecap: square; stroke-linejoin: miter; stroke-miterlimit: 4; stroke-dasharray: none; stroke-opacity: 1; display: inline;"
         id="path2387" />
      <path
         d="M 326.24641,255.8425 L 308.47728,298.74105 L 308.47117,298.72629 L 215.53554,74.360214 L 326.24641,255.8425"
         style="fill: rgb(225, 225, 225); fill-opacity: 1; fill-rule: evenodd; stroke: rgb(194, 194, 194); stroke-width: 1; stroke-linecap: square; stroke-linejoin: miter; stroke-miterlimit: 4; stroke-dasharray: none; stroke-opacity: 1; display: inline;"
         id="path2389" />
      <path
         d="M 264.65485,281.3546 L 307.5534,299.12373 L 307.53864,299.12984 L 83.172563,392.06547 L 264.65485,281.3546"
         style="fill: rgb(225, 225, 225); fill-opacity: 1; fill-rule: evenodd; stroke: rgb(194, 194, 194); stroke-width: 1; stroke-linecap: square; stroke-linejoin: miter; stroke-miterlimit: 4; stroke-dasharray: none; stroke-opacity: 1; display: inline;"
         id="path2391" />
      <path
         d="M 290.16693,342.94637 L 307.93606,300.04782 L 307.94217,300.06258 L 400.8778,524.42866 L 290.16693,342.94637"
         style="fill: rgb(225, 225, 225); fill-opacity: 1; fill-rule: evenodd; stroke: rgb(194, 194, 194); stroke-width: 1; stroke-linecap: square; stroke-linejoin: miter; stroke-miterlimit: 4; stroke-dasharray: none; stroke-opacity: 1; display: inline;"
         id="path2393" />
      <g
         id="g2395">
        <path
           id="path2397"
           style="fill: rgb(180, 180, 180); fill-opacity: 1; fill-rule: evenodd; stroke: rgb(180, 180, 180); stroke-width: 1; stroke-linecap: square; stroke-linejoin: miter; stroke-miterlimit: 4; stroke-dasharray: none; stroke-opacity: 1; display: inline;"
           d="M 326.2464,255.84271 L 308.47727,298.74126 L 308.49202,298.73515 L 532.8581,205.79952 L 326.2464,255.84271" />
        <path
           id="path2399"
           style="fill: rgb(180, 180, 180); fill-opacity: 1; fill-rule: evenodd; stroke: rgb(180, 180, 180); stroke-width: 1; stroke-linecap: square; stroke-linejoin: miter; stroke-miterlimit: 4; stroke-dasharray: none; stroke-opacity: 1; display: inline;"
           d="M 264.65485,281.35459 L 307.5534,299.12372 L 307.54729,299.10897 L 214.61166,74.742891 L 264.65485,281.35459" />
        <path
           id="path2401"
           style="fill: rgb(180, 180, 180); fill-opacity: 1; fill-rule: evenodd; stroke: rgb(180, 180, 180); stroke-width: 1; stroke-linecap: square; stroke-linejoin: miter; stroke-miterlimit: 4; stroke-dasharray: none; stroke-opacity: 1; display: inline;"
           d="M 290.16694,342.94616 L 307.93607,300.04761 L 307.92132,300.05372 L 83.55524,392.98935 L 290.16694,342.94616" />
        <path
           id="path2403"
           style="fill: rgb(180, 180, 180); fill-opacity: 1; fill-rule: evenodd; stroke: rgb(180, 180, 180); stroke-width: 1; stroke-linecap: square; stroke-linejoin: miter; stroke-miterlimit: 4; stroke-dasharray: none; stroke-opacity: 1; display: inline;"
           d="M 351.75849,317.43428 L 308.85994,299.66515 L 308.86605,299.6799 L 401.80168,524.04598 L 351.75849,317.43428" />
      </g>
    </g>
  </g>
  <g
     inkscape:groupmode="layer"
     id="layer6"
     inkscape:label="p2"
     style="display: inline;">
    <g
       style="display: inline;"
       id="g1536"
       transform="translate(-55.8718, -38.6023)">
      <path
         d="M 316.93813,337.99683 L 363.37116,337.99683 L 363.35986,338.00812 L 191.63751,509.73048 L 316.93813,337.99683"
         style="fill: rgb(194, 194, 194); fill-opacity: 1; fill-rule: evenodd; stroke: rgb(194, 194, 194); stroke-width: 1; stroke-linecap: square; stroke-linejoin: miter; stroke-miterlimit: 4; stroke-dasharray: none; stroke-opacity: 1; display: inline;"
         id="path1538" />
      <path
         d="M 364.07826,385.13697 L 364.07826,338.70394 L 364.06697,338.71523 L 192.34461,510.43759 L 364.07826,385.13697"
         style="fill: rgb(153, 153, 153); fill-opacity: 1; fill-rule: evenodd; stroke: rgb(153, 153, 153); stroke-width: 1; stroke-linecap: square; stroke-linejoin: miter; stroke-miterlimit: 4; stroke-dasharray: none; stroke-opacity: 1; display: inline;"
         id="path1540" />
      <path
         d="M 411.21837,337.99687 L 364.78534,337.99687 L 364.79664,337.98558 L 536.51899,166.26322 L 411.21837,337.99687"
         style="fill: rgb(194, 194, 194); fill-opacity: 1; fill-rule: evenodd; stroke: rgb(194, 194, 194); stroke-width: 1; stroke-linecap: square; stroke-linejoin: miter; stroke-miterlimit: 4; stroke-dasharray: none; stroke-opacity: 1; display: inline;"
         id="path1542" />
      <path
         d="M 364.07824,290.85673 L 364.07824,337.28976 L 364.08953,337.27847 L 535.81189,165.55611 L 364.07824,290.85673"
         style="fill: rgb(153, 153, 153); fill-opacity: 1; fill-rule: evenodd; stroke: rgb(153, 153, 153); stroke-width: 1; stroke-linecap: square; stroke-linejoin: miter; stroke-miterlimit: 4; stroke-dasharray: none; stroke-opacity: 1; display: inline;"
         id="path1544" />
      <path
         d="M 364.07813,385.13677 L 364.07813,338.70374 L 364.08942,338.71504 L 535.81178,510.43739 L 364.07813,385.13677"
         style="fill: rgb(194, 194, 194); fill-opacity: 1; fill-rule: evenodd; stroke: rgb(194, 194, 194); stroke-width: 1; stroke-linecap: square; stroke-linejoin: miter; stroke-miterlimit: 4; stroke-dasharray: none; stroke-opacity: 1; display: inline;"
         id="path1546" />
      <path
         d="M 411.21827,337.99664 L 364.78524,337.99664 L 364.79653,338.00793 L 536.51889,509.73029 L 411.21827,337.99664"
         style="fill: rgb(153, 153, 153); fill-opacity: 1; fill-rule: evenodd; stroke: rgb(153, 153, 153); stroke-width: 1; stroke-linecap: square; stroke-linejoin: miter; stroke-miterlimit: 4; stroke-dasharray: none; stroke-opacity: 1; display: inline;"
         id="path1548" />
      <path
         d="M 364.07817,290.85653 L 364.07817,337.28956 L 364.06688,337.27826 L 192.34452,165.55591 L 364.07817,290.85653"
         style="fill: rgb(194, 194, 194); fill-opacity: 1; fill-rule: evenodd; stroke: rgb(194, 194, 194); stroke-width: 1; stroke-linecap: square; stroke-linejoin: miter; stroke-miterlimit: 4; stroke-dasharray: none; stroke-opacity: 1; display: inline;"
         id="path1550" />
      <path
         d="M 316.93803,337.99666 L 363.37106,337.99666 L 363.35977,337.98537 L 191.63741,166.26301 L 316.93803,337.99666"
         style="fill: rgb(153, 153, 153); fill-opacity: 1; fill-rule: evenodd; stroke: rgb(153, 153, 153); stroke-width: 1; stroke-linecap: square; stroke-linejoin: miter; stroke-miterlimit: 4; stroke-dasharray: none; stroke-opacity: 1; display: inline;"
         id="path1552" />
    </g>
  </g>
  <g
     inkscape:groupmode="layer"
     id="layer2"
     inkscape:label="podstawowa"
     style="display: inline;">
    <g
       transform="translate(-56.8876, -38.3801)"
       id="g11797">
      <path
         d="M 330.74501,304.6637 L 363.57811,337.4968 L 363.56214,337.4968 L 120.71013,337.4968 L 330.74501,304.6637"
         style="fill: rgb(255, 255, 255); fill-opacity: 1; fill-rule: evenodd; stroke: rgb(0, 0, 0); stroke-width: 1; stroke-linecap: square; stroke-linejoin: miter; stroke-miterlimit: 4; stroke-dasharray: none; stroke-opacity: 1; display: inline;"
         id="path2122" />
      <path
         d="M 330.74501,371.3299 L 363.57811,338.4968 L 363.56214,338.4968 L 120.71013,338.4968 L 330.74501,371.3299"
         style="fill: rgb(0, 0, 0); fill-opacity: 1; fill-rule: evenodd; stroke: rgb(0, 0, 0); stroke-width: 1; stroke-linecap: square; stroke-linejoin: miter; stroke-miterlimit: 4; stroke-dasharray: none; stroke-opacity: 1; display: inline;"
         id="path5805" />
      <path
         d="M 397.41118,371.32995 L 364.57808,338.49685 L 364.59405,338.49685 L 607.44606,338.49685 L 397.41118,371.32995"
         style="fill: rgb(255, 255, 255); fill-opacity: 1; fill-rule: evenodd; stroke: rgb(0, 0, 0); stroke-width: 1; stroke-linecap: square; stroke-linejoin: miter; stroke-miterlimit: 4; stroke-dasharray: none; stroke-opacity: 1; display: inline;"
         id="path8724" />
      <path
         d="M 397.41118,304.66375 L 364.57808,337.49685 L 364.59405,337.49685 L 607.44606,337.49685 L 397.41118,304.66375"
         style="fill: rgb(0, 0, 0); fill-opacity: 1; fill-rule: evenodd; stroke: rgb(0, 0, 0); stroke-width: 1; stroke-linecap: square; stroke-linejoin: miter; stroke-miterlimit: 4; stroke-dasharray: none; stroke-opacity: 1; display: inline;"
         id="path8726" />
      <path
         d="M 330.74499,371.32988 L 363.57809,338.49678 L 363.57809,338.51275 L 363.57809,581.36476 L 330.74499,371.32988"
         style="fill: rgb(255, 255, 255); fill-opacity: 1; fill-rule: evenodd; stroke: rgb(0, 0, 0); stroke-width: 1; stroke-linecap: square; stroke-linejoin: miter; stroke-miterlimit: 4; stroke-dasharray: none; stroke-opacity: 1; display: inline;"
         id="path8740" />
      <path
         d="M 397.41119,371.32988 L 364.57809,338.49678 L 364.57809,338.51275 L 364.57809,581.36476 L 397.41119,371.32988"
         style="fill: rgb(0, 0, 0); fill-opacity: 1; fill-rule: evenodd; stroke: rgb(0, 0, 0); stroke-width: 1; stroke-linecap: square; stroke-linejoin: miter; stroke-miterlimit: 4; stroke-dasharray: none; stroke-opacity: 1; display: inline;"
         id="path8742" />
      <path
         d="M 397.41115,304.66372 L 364.57805,337.49682 L 364.57805,337.48085 L 364.57805,94.62884 L 397.41115,304.66372"
         style="fill: rgb(255, 255, 255); fill-opacity: 1; fill-rule: evenodd; stroke: rgb(0, 0, 0); stroke-width: 1; stroke-linecap: square; stroke-linejoin: miter; stroke-miterlimit: 4; stroke-dasharray: none; stroke-opacity: 1; display: inline;"
         id="path8746" />
      <path
         d="M 330.74495,304.66372 L 363.57805,337.49682 L 363.57805,337.48085 L 363.57805,94.62884 L 330.74495,304.66372"
         style="fill: rgb(0, 0, 0); fill-opacity: 1; fill-rule: evenodd; stroke: rgb(0, 0, 0); stroke-width: 1; stroke-linecap: square; stroke-linejoin: miter; stroke-miterlimit: 4; stroke-dasharray: none; stroke-opacity: 1; display: inline;"
         id="path8748" />
    </g>
  </g>
  <g
     inkscape:groupmode="layer"
     id="layer5"
     inkscape:label="napisy"
     style="display: inline;">
    <g
       id="g1461"
       inkscape:label="p4"
       style="display: inline;"
       transform="translate(1.1823, -1.05875)" />
    <g
       style="display: inline;"
       id="g1463"
       transform="translate(1.1823, -1.05875)" />
    <g
       style="display: inline;"
       id="g1465"
       transform="translate(1.1823, -1.05875)" />
    <g
       id="g1467"
       inkscape:label="p3"
       style="display: inline;"
       transform="translate(1.1823, -1.05875)" />
    <g
       id="g1469"
       inkscape:label="p2"
       style="display: inline;"
       transform="translate(1.1823, -1.05875)" />
    <g
       id="g1471"
       inkscape:label="podstawowa"
       style="display: inline;"
       transform="translate(1.1823, -1.05875)" />
    <path
       d="M 572.23012,285.03658 L 592.52309,285.03658 L 592.52309,290.72017 L 579.74965,290.72017 L 579.74965,296.14985 L 591.76137,296.14985 L 591.76137,301.83345 L 579.74965,301.83345 L 579.74965,308.51314 L 592.95277,308.51314 L 592.95277,314.19673 L 572.23012,314.19673 L 572.23012,285.03658"
       style="font-size:40px;font-style:normal;font-variant:normal;font-weight:bold;font-stretch:normal;text-align:start;line-height:125%;text-anchor:start;fill:#000000;fill-opacity:1;stroke:none;stroke-width:1px;stroke-linecap:butt;stroke-linejoin:miter;stroke-opacity:1;display:inline;font-family:Bitstream Vera Sans"
       id="path1478" />
    <path
       d="M 316.7803,560.1914 L 316.7803,566.36328 C 315.1787,565.64716 313.6162,565.10679 312.09279,564.74218 C 310.56933,564.37763 309.13053,564.19533 307.77639,564.19531 C 305.97949,564.19533 304.65137,564.44273 303.79201,564.9375 C 302.93263,565.43231 302.50293,566.20054 302.50295,567.24218 C 302.50293,568.02346 302.78941,568.63543 303.36231,569.07812 C 303.94824,569.50783 305.00293,569.87892 306.52639,570.1914 L 309.7295,570.83593 C 312.97168,571.48699 315.27637,572.47658 316.64357,573.80468 C 318.01074,575.13282 318.69433,577.02084 318.69435,579.46875 C 318.69433,582.6849 317.73731,585.08073 315.82325,586.65625 C 313.9222,588.21875 311.01205,589 307.09279,589 C 305.24381,589 303.38835,588.82422 301.52639,588.47265 C 299.6644,588.12109 297.80242,587.60026 295.94045,586.91015 L 295.94045,580.5625 C 297.80242,581.55209 299.59929,582.30078 301.33107,582.80859 C 303.07586,583.30339 304.75554,583.55078 306.37013,583.55078 C 308.01075,583.55078 309.26725,583.27735 310.13966,582.73047 C 311.01205,582.1836 311.44823,581.40235 311.44825,580.38672 C 311.44823,579.47527 311.14876,578.77214 310.54981,578.27734 C 309.96387,577.78256 308.7855,577.33985 307.01466,576.94922 L 304.1045,576.30468 C 301.18784,575.6797 299.05241,574.6836 297.69825,573.3164 C 296.35711,571.94923 295.68653,570.10679 295.68653,567.78906 C 295.68653,564.88544 296.62403,562.65237 298.49904,561.08984 C 300.37404,559.52737 303.06933,558.74612 306.58497,558.74609 C 308.18652,558.74612 309.83365,558.86982 311.52639,559.11718 C 313.21907,559.35159 314.97039,559.70966 316.7803,560.1914"
       style="font-size:40px;font-style:normal;font-variant:normal;font-weight:bold;font-stretch:normal;text-align:start;line-height:125%;text-anchor:start;fill:#000000;fill-opacity:1;stroke:none;stroke-width:1px;stroke-linecap:butt;stroke-linejoin:miter;stroke-opacity:1;display:inline;font-family:Bitstream Vera Sans"
       id="path1482" />
    <path
       id="path1486"
       d="M 381.55762,123.87793 L 385.33692,123.87793 L 388.34278,132.96582 L 390.10938,123.87793 L 393.3086,123.87793 L 390.75098,137 L 386.97168,137 L 383.96582,127.91211 L 382.20801,137 L 379,137 L 381.55762,123.87793 M 396.63965,123.87793 L 400.41895,123.87793 L 403.42481,132.96582 L 405.19141,123.87793 L 408.39063,123.87793 L 405.83301,137 L 402.05371,137 L 399.04786,127.91211 L 397.29004,137 L 394.08203,137 L 396.63965,123.87793 M 411.72168,123.87793 L 420.84473,123.87793 L 420.34375,126.43555 L 414.6045,126.43555 L 414.12989,128.87891 L 419.53516,128.87891 L 419.02539,131.43652 L 413.62891,131.43652 L 413.04883,134.44238 L 418.97266,134.44238 L 418.48926,137 L 409.16407,137 L 411.72168,123.87793"
       style="font-size:18px;font-style:oblique;font-variant:normal;font-weight:bold;font-stretch:normal;text-align:start;line-height:100%;text-anchor:start;fill:#000000;fill-opacity:1;stroke:none;stroke-width:1px;stroke-linecap:butt;stroke-linejoin:miter;stroke-opacity:1;display:inline;font-family:Bitstream Vera Sans" />
    <path
       id="path1488"
       d="M 471.49023,215 L 480.61328,215 L 480.1123,217.55762 L 474.37304,217.55762 L 473.89843,220.00098 L 479.30371,220.00098 L 478.79394,222.55859 L 473.39746,222.55859 L 472.81738,225.56445 L 478.74121,225.56445 L 478.25781,228.12207 L 468.93261,228.12207 L 471.49023,215 M 483.79492,215 L 487.57421,215 L 490.58007,224.08789 L 492.34668,215 L 495.54589,215 L 492.98828,228.12207 L 489.20898,228.12207 L 486.20312,219.03418 L 484.44531,228.12207 L 481.2373,228.12207 L 483.79492,215 M 498.87695,215 L 508,215 L 507.49902,217.55762 L 501.75976,217.55762 L 501.28515,220.00098 L 506.69043,220.00098 L 506.18066,222.55859 L 500.78418,222.55859 L 500.2041,225.56445 L 506.12793,225.56445 L 505.64453,228.12207 L 496.31933,228.12207 L 498.87695,215"
       style="font-size:18px;font-style:oblique;font-variant:normal;font-weight:bold;font-stretch:normal;text-align:start;line-height:100%;text-anchor:start;fill:#000000;fill-opacity:1;stroke:none;stroke-width:1px;stroke-linecap:butt;stroke-linejoin:miter;stroke-opacity:1;display:inline;font-family:Bitstream Vera Sans" />
    <path
       id="path1490"
       d="M 472.54492,369.2373 L 481.66796,369.2373 L 481.16699,371.79492 L 475.42773,371.79492 L 474.95312,374.23828 L 480.35839,374.23828 L 479.84863,376.7959 L 474.45214,376.7959 L 473.87207,379.80176 L 479.79589,379.80176 L 479.3125,382.35938 L 469.9873,382.35938 L 472.54492,369.2373 M 493.88476,369.65039 L 493.33984,372.42773 C 492.67772,372.09962 492.0244,371.85646 491.37988,371.69824 C 490.73534,371.53419 490.10546,371.45216 489.49023,371.45215 C 488.64647,371.45216 487.98729,371.584 487.51269,371.84766 C 487.04394,372.11134 486.80956,372.47755 486.80957,372.94629 C 486.80956,373.24513 486.9121,373.4795 487.11718,373.64941 C 487.32812,373.81349 487.75878,373.97462 488.40918,374.13281 L 489.79785,374.47559 C 490.95799,374.76856 491.8076,375.19337 492.34668,375.75 C 492.89159,376.30079 493.16405,377.01563 493.16406,377.89453 C 493.16405,379.31836 492.62206,380.46094 491.53808,381.32227 C 490.45995,382.18359 489.00975,382.61426 487.1875,382.61426 C 486.33788,382.61426 485.4912,382.53516 484.64746,382.37695 C 483.80956,382.21875 482.98925,381.98438 482.18652,381.67383 L 482.72265,378.81738 C 483.50195,379.26856 484.25781,379.60547 484.99023,379.82813 C 485.72851,380.05078 486.45507,380.16211 487.16992,380.16211 C 487.94335,380.16211 488.5703,380.00391 489.05078,379.6875 C 489.5371,379.3711 489.78026,378.9668 489.78027,378.47461 C 489.78026,378.15235 489.67186,377.90332 489.45507,377.72754 C 489.23827,377.5459 488.76366,377.36133 488.03125,377.17383 L 486.65136,376.83105 C 485.63183,376.57911 484.87304,376.18067 484.375,375.63574 C 483.87695,375.09083 483.62792,374.38477 483.62793,373.51758 C 483.62792,372.15235 484.14941,371.05958 485.19238,370.23926 C 486.2412,369.4131 487.65038,369.00001 489.41992,369 C 490.12889,369.00001 490.85546,369.05568 491.59961,369.16699 C 492.34959,369.27247 493.11131,369.43361 493.88476,369.65039 M 497.82226,369.2373 L 506.94531,369.2373 L 506.44433,371.79492 L 500.70507,371.79492 L 500.23046,374.23828 L 505.63574,374.23828 L 505.12597,376.7959 L 499.72949,376.7959 L 499.14941,379.80176 L 505.07324,379.80176 L 504.58984,382.35938 L 495.26464,382.35938 L 497.82226,369.2373"
       style="font-size:18px;font-style:oblique;font-variant:normal;font-weight:bold;font-stretch:normal;text-align:start;line-height:100%;text-anchor:start;fill:#000000;fill-opacity:1;stroke:none;stroke-width:1px;stroke-linecap:butt;stroke-linejoin:miter;stroke-opacity:1;display:inline;font-family:Bitstream Vera Sans" />
    <path
       id="path1492"
       d="M 392.75489,463.59164 L 392.20996,466.36898 C 391.54784,466.04087 390.89452,465.79771 390.25,465.63949 C 389.60546,465.47544 388.97558,465.39341 388.36036,465.3934 C 387.5166,465.39341 386.85742,465.52525 386.38282,465.78891 C 385.91406,466.05259 385.67969,466.4188 385.67969,466.88754 C 385.67969,467.18638 385.78223,467.42075 385.98731,467.59066 C 386.19824,467.75474 386.6289,467.91587 387.2793,468.07406 L 388.66797,468.41684 C 389.82812,468.70981 390.67773,469.13462 391.2168,469.69125 C 391.76171,470.24204 392.03417,470.95688 392.03418,471.83578 C 392.03417,473.25961 391.49218,474.40219 390.40821,475.26352 C 389.33007,476.12484 387.87988,476.55551 386.05762,476.55551 C 385.20801,476.55551 384.36133,476.47641 383.51758,476.3182 C 382.67969,476.16 381.85938,475.92563 381.05664,475.61508 L 381.59278,472.75863 C 382.37207,473.20981 383.12793,473.54672 383.86036,473.76938 C 384.59863,473.99203 385.32519,474.10336 386.04004,474.10336 C 386.81347,474.10336 387.44043,473.94516 387.9209,473.62875 C 388.40722,473.31235 388.65039,472.90805 388.65039,472.41586 C 388.65039,472.0936 388.54199,471.84457 388.3252,471.66879 C 388.10839,471.48715 387.63379,471.30258 386.90137,471.11508 L 385.52149,470.7723 C 384.50195,470.52036 383.74316,470.12192 383.24512,469.57699 C 382.74707,469.03208 382.49805,468.32602 382.49805,467.45883 C 382.49805,466.0936 383.01953,465.00083 384.0625,464.18051 C 385.11133,463.35435 386.52051,462.94126 388.29004,462.94125 C 388.99902,462.94126 389.72558,462.99693 390.46973,463.10824 C 391.21972,463.21372 391.98144,463.37486 392.75489,463.59164 M 405.72754,463.59164 L 405.18262,466.36898 C 404.5205,466.04087 403.86718,465.79771 403.22266,465.63949 C 402.57812,465.47544 401.94824,465.39341 401.33301,465.3934 C 400.48925,465.39341 399.83008,465.52525 399.35547,465.78891 C 398.88672,466.05259 398.65234,466.4188 398.65235,466.88754 C 398.65234,467.18638 398.75488,467.42075 398.95996,467.59066 C 399.1709,467.75474 399.60156,467.91587 400.25196,468.07406 L 401.64063,468.41684 C 402.80078,468.70981 403.65038,469.13462 404.18946,469.69125 C 404.73437,470.24204 405.00683,470.95688 405.00684,471.83578 C 405.00683,473.25961 404.46484,474.40219 403.38086,475.26352 C 402.30273,476.12484 400.85254,476.55551 399.03028,476.55551 C 398.18066,476.55551 397.33398,476.47641 396.49024,476.3182 C 395.65235,476.16 394.83203,475.92563 394.0293,475.61508 L 394.56543,472.75863 C 395.34473,473.20981 396.10059,473.54672 396.83301,473.76938 C 397.57129,473.99203 398.29785,474.10336 399.0127,474.10336 C 399.78613,474.10336 400.41308,473.94516 400.89356,473.62875 C 401.37988,473.31235 401.62304,472.90805 401.62305,472.41586 C 401.62304,472.0936 401.51464,471.84457 401.29786,471.66879 C 401.08105,471.48715 400.60644,471.30258 399.87403,471.11508 L 398.49414,470.7723 C 397.47461,470.52036 396.71582,470.12192 396.21778,469.57699 C 395.71973,469.03208 395.4707,468.32602 395.47071,467.45883 C 395.4707,466.0936 395.99219,465.00083 397.03516,464.18051 C 398.08398,463.35435 399.49316,462.94126 401.2627,462.94125 C 401.97167,462.94126 402.69824,462.99693 403.44239,463.10824 C 404.19238,463.21372 404.95409,463.37486 405.72754,463.59164 M 409.66504,463.17855 L 418.78809,463.17855 L 418.28711,465.73617 L 412.54786,465.73617 L 412.07325,468.17953 L 417.47852,468.17953 L 416.96875,470.73715 L 411.57227,470.73715 L 410.99219,473.74301 L 416.91602,473.74301 L 416.43262,476.30063 L 407.10743,476.30063 L 409.66504,463.17855"
       style="font-size:18px;font-style:oblique;font-variant:normal;font-weight:bold;font-stretch:normal;text-align:start;line-height:100%;text-anchor:start;fill:#000000;fill-opacity:1;stroke:none;stroke-width:1px;stroke-linecap:butt;stroke-linejoin:miter;stroke-opacity:1;display:inline;font-family:Bitstream Vera Sans" />
    <path
       id="text1435"
       d="M 497.83855,478.65609 L 497.83855,482.35922 C 496.8776,481.92954 495.9401,481.60533 495.02605,481.38656 C 494.11198,481.16783 493.2487,481.05845 492.43621,481.05844 C 491.35807,481.05845 490.5612,481.20689 490.04558,481.50375 C 489.52995,481.80064 489.27214,482.26158 489.27214,482.88656 C 489.27214,483.35532 489.44401,483.72251 489.78777,483.98813 C 490.13932,484.24595 490.77214,484.4686 491.68621,484.65609 L 493.60808,485.04281 C 495.55338,485.43345 496.93619,486.0272 497.75652,486.82406 C 498.57682,487.62095 498.98697,488.75376 498.98699,490.2225 C 498.98697,492.15219 498.41275,493.58969 497.26433,494.535 C 496.12369,495.4725 494.3776,495.94125 492.02605,495.94125 C 490.91667,495.94125 489.80339,495.83578 488.68621,495.62484 C 487.56901,495.41391 486.45183,495.10141 485.33464,494.68734 L 485.33464,490.87875 C 486.45183,491.4725 487.52995,491.92172 488.56902,492.22641 C 489.61589,492.52328 490.6237,492.67172 491.59246,492.67172 C 492.57682,492.67172 493.33073,492.50766 493.85418,492.17953 C 494.3776,491.85141 494.63932,491.38266 494.63933,490.77328 C 494.63932,490.22641 494.45963,489.80454 494.10027,489.50766 C 493.7487,489.21079 493.04167,488.94516 491.97918,488.71078 L 490.23308,488.32406 C 488.48308,487.94907 487.20183,487.35141 486.38933,486.53109 C 485.58464,485.71079 485.1823,484.60532 485.1823,483.21469 C 485.1823,481.47251 485.7448,480.13267 486.8698,479.19516 C 487.9948,478.25767 489.61198,477.78892 491.72136,477.78891 C 492.68229,477.78892 493.67057,477.86314 494.68621,478.01156 C 495.70182,478.1522 496.7526,478.36705 497.83855,478.65609 M 502.95964,478.10531 L 515.13543,478.10531 L 515.13543,481.51547 L 507.47136,481.51547 L 507.47136,484.77328 L 514.67839,484.77328 L 514.67839,488.18344 L 507.47136,488.18344 L 507.47136,492.19125 L 515.39324,492.19125 L 515.39324,495.60141 L 502.95964,495.60141 L 502.95964,478.10531"
       style="font-size:12px;font-style:normal;font-weight:normal;line-height:125%;fill:#000000;fill-opacity:1;stroke:none;stroke-width:1px;stroke-linecap:butt;stroke-linejoin:miter;stroke-opacity:1;font-family:Bitstream Vera Sans" />
    <path
       id="text1439"
       d="M 484.01629,100.44516 L 489.05536,100.44516 L 495.41863,112.44516 L 495.41863,100.44516 L 499.69598,100.44516 L 499.69598,117.94125 L 494.65692,117.94125 L 488.29364,105.94125 L 488.29364,117.94125 L 484.01629,117.94125 L 484.01629,100.44516 M 504.12567,100.44516 L 516.30145,100.44516 L 516.30145,103.85531 L 508.63739,103.85531 L 508.63739,107.11313 L 515.84441,107.11313 L 515.84441,110.52328 L 508.63739,110.52328 L 508.63739,114.53109 L 516.55925,114.53109 L 516.55925,117.94125 L 504.12567,117.94125 L 504.12567,100.44516"
       style="font-size:12px;font-style:normal;font-weight:normal;line-height:125%;fill:#000000;fill-opacity:1;stroke:none;stroke-width:1px;stroke-linecap:butt;stroke-linejoin:miter;stroke-opacity:1;display:inline;font-family:Bitstream Vera Sans" />
    <path
       style="font-size:40px;font-style:normal;font-variant:normal;font-weight:bold;font-stretch:normal;fill:#000000;fill-opacity:1;stroke:none;stroke-width:1px;stroke-linecap:butt;stroke-linejoin:miter;stroke-opacity:1;font-family:Bitstream Vera Sans;-inkscape-font-specification:Bitstream Vera Sans Bold"
       d="M 294.12399,12.387844 L 302.52243,12.387844 L 313.1279,32.387844 L 313.1279,12.387844 L 320.25681,12.387844 L 320.25681,41.548 L 311.85837,41.548 L 301.2529,21.548 L 301.2529,41.548 L 294.12399,41.548 L 294.12399,12.387844"
       id="text2508" />
    <text
       xml:space="preserve"
       style="font-size:40px;font-style:normal;font-variant:normal;font-weight:normal;font-stretch:normal;fill:#000000;fill-opacity:1;stroke:none;stroke-width:1px;stroke-linecap:butt;stroke-linejoin:miter;stroke-opacity:1;font-family:Arial;-inkscape-font-specification:Arial"
       x="392.7146"
       y="34.947338"
       id="text2512"><tspan
         sodipodi:role="line"
         id="tspan2514"
         x="392.7146"
         y="34.947338" /></text>
    <text
       xml:space="preserve"
       style="font-size:24;font-style:normal;font-variant:normal;font-weight:normal;font-stretch:normal;fill:#000000;fill-opacity:1;stroke:none;stroke-width:1px;stroke-linecap:butt;stroke-linejoin:miter;stroke-opacity:1;font-family:Arial;-inkscape-font-specification:Arial"
       x="82.866386"
       y="73.978607"
       id="text2519"><tspan
         sodipodi:role="line"
         id="tspan2521"
         x="82.866386"
         y="73.978607" /></text>
    <path
       style="font-size:24px;font-style:normal;font-variant:normal;font-weight:bold;font-stretch:normal;fill:#000000;fill-opacity:1;stroke:none;stroke-width:1px;stroke-linecap:butt;stroke-linejoin:miter;stroke-opacity:1;font-family:Bitstream Vera Sans;-inkscape-font-specification:Bitstream Vera Sans Bold"
       d="M 90.016,100.10506 L 95.055067,100.10506 L 101.41835,112.10506 L 101.41835,100.10506 L 105.69569,100.10506 L 105.69569,117.60116 L 100.65663,117.60116 L 94.293347,105.60116 L 94.293347,117.60116 L 90.016,117.60116 L 90.016,100.10506 M 118.11757,103.05819 C 116.74256,103.0582 115.67615,103.56601 114.91835,104.58162 C 114.16053,105.59726 113.78162,107.02695 113.78163,108.87069 C 113.78162,110.70663 114.16053,112.13241 114.91835,113.14803 C 115.67615,114.16366 116.74256,114.67147 118.11757,114.67147 C 119.50037,114.67147 120.57068,114.16366 121.3285,113.14803 C 122.0863,112.13241 122.46521,110.70663 122.46522,108.87069 C 122.46521,107.02695 122.0863,105.59726 121.3285,104.58162 C 120.57068,103.56601 119.50037,103.0582 118.11757,103.05819 M 118.11757,99.788656 C 120.93005,99.788674 123.13318,100.59336 124.72694,102.20272 C 126.32067,103.81211 127.11755,106.03476 127.11757,108.87069 C 127.11755,111.69882 126.32067,113.91757 124.72694,115.52694 C 123.13318,117.13631 120.93005,117.941 118.11757,117.941 C 115.31287,117.941 113.10975,117.13631 111.50819,115.52694 C 109.91444,113.91757 109.11756,111.69882 109.11757,108.87069 C 109.11756,106.03476 109.91444,103.81211 111.50819,102.20272 C 113.10975,100.59336 115.31287,99.788674 118.11757,99.788656"
       id="text2523" />
    <path
       style="font-size:40px;font-style:normal;font-variant:normal;font-weight:bold;font-stretch:normal;fill:#000000;fill-opacity:1;stroke:none;stroke-width:1px;stroke-linecap:butt;stroke-linejoin:miter;stroke-opacity:1;font-family:Bitstream Vera Sans;-inkscape-font-specification:Bitstream Vera Sans Bold"
       d="M 24,289.39231 C 21.708319,289.39234 19.930977,290.23869 18.667969,291.93138 C 17.404938,293.62411 16.773428,296.00692 16.773438,299.07981 C 16.773428,302.13972 17.404938,304.51602 18.667969,306.20872 C 19.930977,307.90143 21.708319,308.74779 24,308.74778 C 26.304668,308.74779 28.088521,307.90143 29.351563,306.20872 C 30.61456,304.51602 31.24607,302.13972 31.246094,299.07981 C 31.24607,296.00692 30.61456,293.62411 29.351563,291.93138 C 28.088521,290.23869 26.304668,289.39234 24,289.39231 M 24,283.9431 C 28.687478,283.94313 32.35935,285.28427 35.015625,287.96653 C 37.671844,290.64885 38.999968,294.35327 39,299.07981 C 38.999968,303.79337 37.671844,307.49128 35.015625,310.17356 C 32.35935,312.85586 28.687478,314.197 24,314.197 C 19.325509,314.197 15.653637,312.85586 12.984375,310.17356 C 10.328122,307.49128 8.999998,303.79337 9,299.07981 C 8.999998,294.35327 10.328122,290.64885 12.984375,287.96653 C 15.653637,285.28427 19.325509,283.94313 24,283.9431"
       id="text2544" />
    <path
       style="font-size:24px;font-style:normal;font-variant:normal;font-weight:bold;font-stretch:normal;fill:#000000;fill-opacity:1;stroke:none;stroke-width:1px;stroke-linecap:butt;stroke-linejoin:miter;stroke-opacity:1;font-family:Bitstream Vera Sans;-inkscape-font-specification:Bitstream Vera Sans Bold"
       d="M 103.83825,478.65585 L 103.83825,482.35897 C 102.8773,481.9293 101.9398,481.60508 101.02575,481.38632 C 100.11168,481.16758 99.248396,481.05821 98.435906,481.05819 C 97.357773,481.05821 96.560899,481.20664 96.045281,481.5035 C 95.52965,481.80039 95.271837,482.26133 95.271843,482.88632 C 95.271837,483.35508 95.443712,483.72226 95.787468,483.98788 C 96.139024,484.2457 96.771836,484.46836 97.685906,484.65585 L 99.607781,485.04257 C 101.55308,485.4332 102.93589,486.02695 103.75622,486.82382 C 104.57652,487.6207 104.98667,488.75351 104.98669,490.22225 C 104.98667,492.15194 104.41245,493.58944 103.26403,494.53475 C 102.12339,495.47225 100.3773,495.941 98.02575,495.941 C 96.916367,495.941 95.803087,495.83553 94.685906,495.6246 C 93.568714,495.41366 92.451528,495.10116 91.334343,494.6871 L 91.334343,490.8785 C 92.451528,491.47226 93.529652,491.92148 94.568718,492.22616 C 95.615587,492.52304 96.623399,492.67147 97.592156,492.67147 C 98.576522,492.67147 99.330427,492.50741 99.853875,492.17928 C 100.3773,491.85116 100.63902,491.38241 100.63903,490.77303 C 100.63902,490.22616 100.45933,489.80429 100.09997,489.50741 C 99.748395,489.21054 99.041365,488.94492 97.978875,488.71053 L 96.232781,488.32382 C 94.482776,487.94882 93.201527,487.35117 92.389031,486.53085 C 91.584341,485.71054 91.181998,484.60508 91.182,483.21444 C 91.181998,481.47227 91.744497,480.13242 92.8695,479.19491 C 93.994495,478.25743 95.611681,477.78868 97.721062,477.78866 C 98.68199,477.78868 99.670271,477.8629 100.68591,478.01132 C 101.70152,478.15196 102.7523,478.3668 103.83825,478.65585 M 116.95153,481.05819 C 115.57652,481.05821 114.51012,481.56602 113.75231,482.58163 C 112.99449,483.59727 112.61559,485.02695 112.61559,486.87069 C 112.61559,488.70663 112.99449,490.13241 113.75231,491.14803 C 114.51012,492.16366 115.57652,492.67147 116.95153,492.67147 C 118.33433,492.67147 119.40464,492.16366 120.16247,491.14803 C 120.92027,490.13241 121.29917,488.70663 121.29919,486.87069 C 121.29917,485.02695 120.92027,483.59727 120.16247,482.58163 C 119.40464,481.56602 118.33433,481.05821 116.95153,481.05819 M 116.95153,477.78866 C 119.76402,477.78868 121.96714,478.59336 123.56091,480.20272 C 125.15464,481.81211 125.95151,484.03476 125.95153,486.87069 C 125.95151,489.69882 125.15464,491.91757 123.56091,493.52694 C 121.96714,495.13632 119.76402,495.941 116.95153,495.941 C 114.14684,495.941 111.94371,495.13632 110.34216,493.52694 C 108.7484,491.91757 107.95153,489.69882 107.95153,486.87069 C 107.95153,484.03476 108.7484,481.81211 110.34216,480.20272 C 111.94371,478.59336 114.14684,477.78868 116.95153,477.78866"
       id="text2549" />
    <text
       xml:space="preserve"
       style="font-size:18px;font-style:normal;font-variant:normal;font-weight:bold;font-stretch:normal;fill:#000000;fill-opacity:1;stroke:none;stroke-width:1px;stroke-linecap:butt;stroke-linejoin:miter;stroke-opacity:1;font-family:Bitstream Vera Sans;-inkscape-font-specification:Bitstream Vera Sans Bold"
       x="29.423571"
       y="497.91821"
       id="text2553"><tspan
         sodipodi:role="line"
         id="tspan2555"
         x="29.423571"
         y="497.91821"
         style="-inkscape-font-specification:Bitstream Vera Sans Bold" /></text>
    <path
       style="font-size:18px;font-style:oblique;font-variant:normal;font-weight:bold;font-stretch:normal;fill:#000000;fill-opacity:1;stroke:none;stroke-width:1px;stroke-linecap:butt;stroke-linejoin:miter;stroke-opacity:1;font-family:Bitstream Vera Sans;-inkscape-font-specification:Bitstream Vera Sans Bold Oblique"
       d="M 204.75524,463.59213 L 204.21032,466.36948 C 203.5482,466.04136 202.89488,465.7982 202.25036,465.63998 C 201.60582,465.47593 200.97594,465.3939 200.36071,465.39389 C 199.51695,465.3939 198.85777,465.52574 198.38317,465.7894 C 197.91442,466.05308 197.68004,466.41929 197.68005,466.88803 C 197.68004,467.18687 197.78258,467.42124 197.98766,467.59116 C 198.1986,467.75523 198.62926,467.91636 199.27966,468.07455 L 200.66833,468.41733 C 201.82847,468.7103 202.67808,469.13511 203.21716,469.69174 C 203.76207,470.24253 204.03453,470.95737 204.03454,471.83627 C 204.03453,473.2601 203.49254,474.40268 202.40856,475.26401 C 201.33043,476.12534 199.88023,476.556 198.05798,476.556 C 197.20836,476.556 196.36168,476.4769 195.51794,476.31869 C 194.68004,476.16049 193.85973,475.92612 193.057,475.61557 L 193.59313,472.75912 C 194.37243,473.2103 195.12829,473.54721 195.86071,473.76987 C 196.59899,473.99253 197.32555,474.10385 198.0404,474.10385 C 198.81383,474.10385 199.44078,473.94565 199.92126,473.62924 C 200.40758,473.31284 200.65074,472.90854 200.65075,472.41635 C 200.65074,472.09409 200.54234,471.84507 200.32555,471.66928 C 200.10875,471.48765 199.63414,471.30307 198.90173,471.11557 L 197.52184,470.7728 C 196.50231,470.52085 195.74352,470.12241 195.24548,469.57748 C 194.74743,469.03257 194.4984,468.32652 194.49841,467.45932 C 194.4984,466.0941 195.01989,465.00132 196.06286,464.181 C 197.11168,463.35484 198.52086,462.94176 200.2904,462.94174 C 200.99937,462.94176 201.72594,462.99742 202.47009,463.10873 C 203.22008,463.21422 203.98179,463.37535 204.75524,463.59213 M 217.09509,463.59213 L 216.55016,466.36948 C 215.88804,466.04136 215.23472,465.7982 214.5902,465.63998 C 213.94566,465.47593 213.31578,465.3939 212.70055,465.39389 C 211.8568,465.3939 211.19762,465.52574 210.72302,465.7894 C 210.25426,466.05308 210.01989,466.41929 210.01989,466.88803 C 210.01989,467.18687 210.12242,467.42124 210.32751,467.59116 C 210.53844,467.75523 210.9691,467.91636 211.6195,468.07455 L 213.00817,468.41733 C 214.16832,468.7103 215.01793,469.13511 215.557,469.69174 C 216.10191,470.24253 216.37437,470.95737 216.37438,471.83627 C 216.37437,473.2601 215.83238,474.40268 214.74841,475.26401 C 213.67027,476.12534 212.22008,476.556 210.39782,476.556 C 209.54821,476.556 208.70153,476.4769 207.85778,476.31869 C 207.01989,476.16049 206.19958,475.92612 205.39684,475.61557 L 205.93298,472.75912 C 206.71227,473.2103 207.46813,473.54721 208.20055,473.76987 C 208.93883,473.99253 209.66539,474.10385 210.38024,474.10385 C 211.15367,474.10385 211.78063,473.94565 212.2611,473.62924 C 212.74742,473.31284 212.99059,472.90854 212.99059,472.41635 C 212.99059,472.09409 212.88219,471.84507 212.6654,471.66928 C 212.44859,471.48765 211.97398,471.30307 211.24157,471.11557 L 209.86169,470.7728 C 208.84215,470.52085 208.08336,470.12241 207.58532,469.57748 C 207.08727,469.03257 206.83825,468.32652 206.83825,467.45932 C 206.83825,466.0941 207.35973,465.00132 208.4027,464.181 C 209.45153,463.35484 210.8607,462.94176 212.63024,462.94174 C 213.33922,462.94176 214.06578,462.99742 214.80993,463.10873 C 215.55992,463.21422 216.32164,463.37535 217.09509,463.59213 M 229.17126,468.55795 C 229.17125,467.52671 228.93687,466.74156 228.46813,466.20248 C 228.00523,465.66343 227.3314,465.3939 226.44665,465.39389 C 225.27477,465.3939 224.29039,465.92124 223.49352,466.97592 C 222.7025,468.02476 222.307,469.34019 222.307,470.92221 C 222.307,471.93003 222.53844,472.71225 223.00134,473.26889 C 223.46422,473.82553 224.10875,474.10385 224.93493,474.10385 C 225.60875,474.10385 226.20641,473.96323 226.7279,473.68198 C 227.25523,473.39487 227.70347,472.973 228.07262,472.41635 C 228.42418,471.88315 228.69371,471.28257 228.88122,470.61459 C 229.07457,469.94663 229.17125,469.26108 229.17126,468.55795 M 226.93884,462.94174 C 228.68492,462.94176 230.08824,463.42808 231.1488,464.40073 C 232.21519,465.36753 232.74839,466.63316 232.74841,468.1976 C 232.74839,469.26401 232.58433,470.27183 232.25622,471.22104 C 231.93394,472.17026 231.46226,473.0228 230.84118,473.77866 C 230.07945,474.7103 229.17711,475.40756 228.13415,475.87045 C 227.09703,476.32748 225.89879,476.556 224.53942,476.556 C 222.79918,476.556 221.39879,476.0726 220.33825,475.1058 C 219.2777,474.13901 218.74743,472.87046 218.74743,471.30014 C 218.74743,470.22788 218.90856,469.21714 219.23083,468.26791 C 219.55309,467.3187 220.0277,466.46324 220.65466,465.70151 C 221.40465,464.77574 222.29821,464.08433 223.33532,463.62729 C 224.37828,463.17027 225.57945,462.94176 226.93884,462.94174"
       id="text2557" />
    <path
       style="font-size:18px;font-style:oblique;font-variant:normal;font-weight:bold;font-stretch:normal;fill:#000000;fill-opacity:1;stroke:none;stroke-width:1px;stroke-linecap:butt;stroke-linejoin:miter;stroke-opacity:1;font-family:Bitstream Vera Sans;-inkscape-font-specification:Bitstream Vera Sans Bold Oblique"
       d="M 109.63783,372.71596 C 109.63782,371.68472 109.40344,370.89956 108.9347,370.36049 C 108.4718,369.82144 107.79798,369.5519 106.91322,369.55189 C 105.74134,369.5519 104.75696,370.07925 103.96009,371.13393 C 103.16907,372.18276 102.77357,373.49819 102.77357,375.08021 C 102.77357,376.08803 103.00501,376.87026 103.46791,377.42689 C 103.93079,377.98354 104.57532,378.26186 105.4015,378.26185 C 106.07532,378.26186 106.67298,378.12123 107.19447,377.83998 C 107.7218,377.55287 108.17005,377.131 108.5392,376.57435 C 108.89075,376.04116 109.16028,375.44057 109.34779,374.7726 C 109.54114,374.10463 109.63782,373.41909 109.63783,372.71596 M 107.40541,367.09975 C 109.15149,367.09976 110.55481,367.58609 111.61537,368.55873 C 112.68176,369.52554 113.21496,370.79116 113.21498,372.3556 C 113.21496,373.42202 113.0509,374.42983 112.72279,375.37904 C 112.40051,376.32827 111.92883,377.1808 111.30775,377.93666 C 110.54602,378.8683 109.64368,379.56557 108.60072,380.02846 C 107.5636,380.48549 106.36536,380.714 105.00599,380.714 C 103.26575,380.714 101.86536,380.2306 100.80482,379.26381 C 99.744272,378.29701 99.213999,377.02846 99.214,375.45814 C 99.213999,374.38588 99.375132,373.37514 99.697398,372.42592 C 100.01966,371.47671 100.49427,370.62124 101.12123,369.85951 C 101.87122,368.93374 102.76478,368.24234 103.80189,367.78529 C 104.84485,367.32827 106.04602,367.09976 107.40541,367.09975 M 125.82728,367.75014 L 125.28236,370.52748 C 124.62024,370.19936 123.96692,369.9562 123.3224,369.79799 C 122.67786,369.63394 122.04798,369.5519 121.43275,369.55189 C 120.58899,369.5519 119.92981,369.68374 119.45521,369.9474 C 118.98646,370.21108 118.75208,370.57729 118.75209,371.04603 C 118.75208,371.34487 118.85462,371.57925 119.0597,371.74916 C 119.27064,371.91323 119.7013,372.07436 120.3517,372.23256 L 121.74037,372.57533 C 122.90051,372.86831 123.75012,373.29311 124.2892,373.84975 C 124.83411,374.40053 125.10657,375.11538 125.10658,375.99428 C 125.10657,377.41811 124.56458,378.56068 123.4806,379.42201 C 122.40247,380.28334 120.95227,380.714 119.13002,380.714 C 118.2804,380.714 117.43372,380.6349 116.58998,380.4767 C 115.75208,380.3185 114.93177,380.08412 114.12904,379.77357 L 114.66517,376.91713 C 115.44447,377.3683 116.20033,377.70522 116.93275,377.92787 C 117.67103,378.15053 118.39759,378.26186 119.11244,378.26185 C 119.88587,378.26186 120.51282,378.10365 120.9933,377.78725 C 121.47962,377.47084 121.72278,377.06655 121.72279,376.57435 C 121.72278,376.25209 121.61438,376.00307 121.39759,375.82728 C 121.18079,375.64565 120.70618,375.46108 119.97377,375.27357 L 118.59388,374.9308 C 117.57435,374.67885 116.81556,374.28042 116.31752,373.73549 C 115.81947,373.19057 115.57044,372.48452 115.57045,371.61732 C 115.57044,370.2521 116.09193,369.15933 117.1349,368.339 C 118.18372,367.51284 119.5929,367.09976 121.36244,367.09975 C 122.07141,367.09976 122.79798,367.15542 123.54213,367.26674 C 124.29211,367.37222 125.05383,367.53335 125.82728,367.75014 M 137.90345,372.71596 C 137.90344,371.68472 137.66907,370.89956 137.20033,370.36049 C 136.73743,369.82144 136.0636,369.5519 135.17884,369.55189 C 134.00696,369.5519 133.02259,370.07925 132.22572,371.13393 C 131.4347,372.18276 131.03919,373.49819 131.0392,375.08021 C 131.03919,376.08803 131.27064,376.87026 131.73353,377.42689 C 132.19642,377.98354 132.84095,378.26186 133.66713,378.26185 C 134.34095,378.26186 134.9386,378.12123 135.46009,377.83998 C 135.98743,377.55287 136.43567,377.131 136.80482,376.57435 C 137.15637,376.04116 137.4259,375.44057 137.61341,374.7726 C 137.80676,374.10463 137.90344,373.41909 137.90345,372.71596 M 135.67103,367.09975 C 137.41711,367.09976 138.82043,367.58609 139.88099,368.55873 C 140.94738,369.52554 141.48059,370.79116 141.4806,372.3556 C 141.48059,373.42202 141.31652,374.42983 140.98841,375.37904 C 140.66613,376.32827 140.19446,377.1808 139.57338,377.93666 C 138.81164,378.8683 137.9093,379.56557 136.86634,380.02846 C 135.82923,380.48549 134.63098,380.714 133.27162,380.714 C 131.53138,380.714 130.13099,380.2306 129.07045,379.26381 C 128.0099,378.29701 127.47962,377.02846 127.47963,375.45814 C 127.47962,374.38588 127.64076,373.37514 127.96302,372.42592 C 128.28529,371.47671 128.7599,370.62124 129.38685,369.85951 C 130.13685,368.93374 131.0304,368.24234 132.06752,367.78529 C 133.11048,367.32827 134.31165,367.09976 135.67103,367.09975"
       id="text2575" />
    <path
       style="font-size:18px;font-style:oblique;font-variant:normal;font-weight:bold;font-stretch:normal;fill:#000000;fill-opacity:1;stroke:none;stroke-width:1px;stroke-linecap:butt;stroke-linejoin:miter;stroke-opacity:1;font-family:Bitstream Vera Sans;-inkscape-font-specification:Bitstream Vera Sans Bold Oblique"
       d="M 107.48283,220.12395 C 107.48282,219.09271 107.24844,218.30755 106.7797,217.76848 C 106.3168,217.22943 105.64297,216.9599 104.75822,216.95989 C 103.58634,216.9599 102.60196,217.48724 101.80509,218.54192 C 101.01407,219.59076 100.61857,220.90618 100.61857,222.48821 C 100.61857,223.49602 100.85001,224.27825 101.31291,224.83489 C 101.77579,225.39153 102.42032,225.66985 103.2465,225.66985 C 103.92032,225.66985 104.51798,225.52923 105.03947,225.24797 C 105.5668,224.96087 106.01504,224.53899 106.3842,223.98235 C 106.73575,223.44915 107.00528,222.84856 107.19279,222.18059 C 107.38614,221.51263 107.48282,220.82708 107.48283,220.12395 M 105.25041,214.50774 C 106.99649,214.50775 108.39981,214.99408 109.46037,215.96672 C 110.52676,216.93353 111.05996,218.19916 111.05998,219.7636 C 111.05996,220.83001 110.8959,221.83782 110.56779,222.78704 C 110.24551,223.73626 109.77383,224.5888 109.15275,225.34465 C 108.39102,226.2763 107.48868,226.97356 106.44572,227.43645 C 105.4086,227.89348 104.21036,228.122 102.85099,228.122 C 101.11075,228.122 99.710364,227.6386 98.649821,226.6718 C 97.589272,225.70501 97.059,224.43645 97.059,222.86614 C 97.059,221.79388 97.220132,220.78314 97.542399,219.83391 C 97.864663,218.8847 98.339272,218.02923 98.966227,217.2675 C 99.716223,216.34174 100.60978,215.65033 101.64689,215.19329 C 102.68985,214.73627 103.89102,214.50775 105.25041,214.50774 M 114.63712,214.74504 L 118.41642,214.74504 L 121.42228,223.83293 L 123.18888,214.74504 L 126.3881,214.74504 L 123.83048,227.86711 L 120.05119,227.86711 L 117.04533,218.77922 L 115.28752,227.86711 L 112.07951,227.86711 L 114.63712,214.74504 M 137.85783,220.12395 C 137.85782,219.09271 137.62344,218.30755 137.1547,217.76848 C 136.6918,217.22943 136.01797,216.9599 135.13322,216.95989 C 133.96134,216.9599 132.97696,217.48724 132.18009,218.54192 C 131.38907,219.59076 130.99357,220.90618 130.99357,222.48821 C 130.99357,223.49602 131.22501,224.27825 131.68791,224.83489 C 132.15079,225.39153 132.79532,225.66985 133.6215,225.66985 C 134.29532,225.66985 134.89298,225.52923 135.41447,225.24797 C 135.9418,224.96087 136.39004,224.53899 136.7592,223.98235 C 137.11075,223.44915 137.38028,222.84856 137.56779,222.18059 C 137.76114,221.51263 137.85782,220.82708 137.85783,220.12395 M 135.62541,214.50774 C 137.37149,214.50775 138.77481,214.99408 139.83537,215.96672 C 140.90176,216.93353 141.43496,218.19916 141.43498,219.7636 C 141.43496,220.83001 141.2709,221.83782 140.94279,222.78704 C 140.62051,223.73626 140.14883,224.5888 139.52775,225.34465 C 138.76602,226.2763 137.86368,226.97356 136.82072,227.43645 C 135.7836,227.89348 134.58536,228.122 133.22599,228.122 C 131.48575,228.122 130.08536,227.6386 129.02482,226.6718 C 127.96427,225.70501 127.434,224.43645 127.434,222.86614 C 127.434,221.79388 127.59513,220.78314 127.9174,219.83391 C 128.23966,218.8847 128.71427,218.02923 129.34123,217.2675 C 130.09122,216.34174 130.98478,215.65033 132.02189,215.19329 C 133.06485,214.73627 134.26602,214.50775 135.62541,214.50774"
       id="text2460" />
    <path
       style="font-size:18px;font-style:oblique;font-variant:normal;font-weight:bold;font-stretch:normal;fill:#000000;fill-opacity:1;stroke:none;stroke-width:1px;stroke-linecap:butt;stroke-linejoin:miter;stroke-opacity:1;font-family:Bitstream Vera Sans;-inkscape-font-specification:Bitstream Vera Sans Bold Oblique"
       d="M 195.85762,123.62305 L 199.63692,123.62305 L 202.64278,132.71094 L 204.40938,123.62305 L 207.6086,123.62305 L 205.05098,136.74512 L 201.27168,136.74512 L 198.26582,127.65723 L 196.50801,136.74512 L 193.3,136.74512 L 195.85762,123.62305 M 210.93965,123.62305 L 214.71895,123.62305 L 217.72481,132.71094 L 219.49141,123.62305 L 222.69063,123.62305 L 220.13301,136.74512 L 216.35372,136.74512 L 213.34786,127.65723 L 211.59004,136.74512 L 208.38204,136.74512 L 210.93965,123.62305 M 234.16036,129.00195 C 234.16035,127.97071 233.92597,127.18556 233.45723,126.64648 C 232.99433,126.10743 232.3205,125.8379 231.43575,125.83789 C 230.26386,125.8379 229.27949,126.36524 228.48262,127.41992 C 227.6916,128.46876 227.29609,129.78419 227.2961,131.36621 C 227.29609,132.37403 227.52754,133.15625 227.99043,133.71289 C 228.45332,134.26953 229.09785,134.54785 229.92403,134.54785 C 230.59785,134.54785 231.1955,134.40723 231.717,134.12598 C 232.24433,133.83887 232.69257,133.417 233.06172,132.86035 C 233.41328,132.32715 233.68281,131.72657 233.87032,131.05859 C 234.06367,130.39063 234.16035,129.70508 234.16036,129.00195 M 231.92793,123.38574 C 233.67402,123.38576 235.07734,123.87208 236.1379,124.84473 C 237.20429,125.81153 237.73749,127.07716 237.7375,128.6416 C 237.73749,129.70801 237.57343,130.71583 237.24532,131.66504 C 236.92304,132.61426 236.45136,133.4668 235.83028,134.22266 C 235.06855,135.1543 234.1662,135.85156 233.12325,136.31445 C 232.08613,136.77148 230.88789,137 229.52852,137 C 227.78828,137 226.38789,136.5166 225.32735,135.5498 C 224.2668,134.58301 223.73653,133.31446 223.73653,131.74414 C 223.73653,130.67188 223.89766,129.66114 224.21993,128.71191 C 224.54219,127.7627 225.0168,126.90724 225.64375,126.14551 C 226.39375,125.21974 227.28731,124.52833 228.32442,124.07129 C 229.36738,123.61427 230.56855,123.38576 231.92793,123.38574"
       id="text2464" />
  </g>
</svg>
