<?xml version="1.0" encoding="UTF-8" standalone="no"?>
<!-- Created with Inkscape (http://www.inkscape.org/) -->

<svg
   xmlns:dc="http://purl.org/dc/elements/1.1/"
   xmlns:cc="http://creativecommons.org/ns#"
   xmlns:rdf="http://www.w3.org/1999/02/22-rdf-syntax-ns#"
   xmlns:svg="http://www.w3.org/2000/svg"
   xmlns="http://www.w3.org/2000/svg"
   xmlns:sodipodi="http://sodipodi.sourceforge.net/DTD/sodipodi-0.dtd"
   xmlns:inkscape="http://www.inkscape.org/namespaces/inkscape"
   width="101.088"
   height="101.376"
   id="svg2"
   version="1.1"
   inkscape:version="0.48.2 r9819"
   sodipodi:docname="esri_BARRA.svg">
  <defs
     id="defs4" />
  <sodipodi:namedview
     id="base"
     pagecolor="#ffffff"
     bordercolor="#666666"
     borderopacity="1.0"
     inkscape:pageopacity="0.0"
     inkscape:pageshadow="2"
     inkscape:zoom="2.7675795"
     inkscape:cx="90.306867"
     inkscape:cy="26.968144"
     inkscape:document-units="px"
     inkscape:current-layer="layer1"
     showgrid="false"
     fit-margin-top="0"
     fit-margin-left="0"
     fit-margin-right="0"
     fit-margin-bottom="0"
     inkscape:window-width="1366"
     inkscape:window-height="744"
     inkscape:window-x="0"
     inkscape:window-y="24"
     inkscape:window-maximized="1" />
  <metadata
     id="metadata7">
    <rdf:RDF>
      <cc:Work
         rdf:about="">
        <dc:format>image/svg+xml</dc:format>
        <dc:type
           rdf:resource="http://purl.org/dc/dcmitype/StillImage" />
        <dc:title></dc:title>
      </cc:Work>
    </rdf:RDF>
  </metadata>
  <g
     inkscape:label="Camada 1"
     inkscape:groupmode="layer"
     id="layer1"
     transform="translate(-721.62842,-36.988853)">
    <g
       id="g4278">
      <g
         id="text4262"
         style="font-size:144px;font-style:normal;font-variant:normal;font-weight:normal;font-stretch:normal;line-height:125%;letter-spacing:0px;word-spacing:0px;fill:#000000;fill-opacity:1;stroke:none;font-family:Arial;-inkscape-font-specification:Arial">
        <path
           sodipodi:nodetypes="cccccccccscssc"
           inkscape:connector-curvature="0"
           id="path4267"
           style="font-family:ESRI North;-inkscape-font-specification:ESRI North"
           d="m 772.60442,36.988853 25.056,93.023997 -25.056,-8.352 -25.92,8.352 25.92,-93.023997 m 50.112,51.12 c -10e-5,-14.111936 -4.8481,-26.159924 -14.544,-36.144 -9.69608,-9.983904 -21.55207,-14.975899 -35.568,-14.976 -14.30404,1.01e-4 -26.40003,4.944096 -36.288,14.832 -9.79201,9.984076 -14.688,22.080064 -14.688,36.288 0,14.208037 4.94399,26.112027 14.832,35.711997 9.98397,9.69601 22.03196,14.544 36.144,14.544 13.91993,0 25.72792,-4.84799 35.424,-14.544 9.7919,-9.79197 14.6879,-21.69596 14.688,-35.711997" />
      </g>
      <g
         id="text3314"
         style="font-size:144px;font-style:normal;font-variant:normal;font-weight:normal;font-stretch:normal;line-height:125%;letter-spacing:0px;word-spacing:0px;fill:#000000;fill-opacity:1;stroke:none;font-family:Arial;-inkscape-font-specification:Arial"
         transform="matrix(0.17369906,0,0,0.17864465,784.34509,85.237645)">
        <path
           id="path3319"
           d="m -110.07565,135.5939 0,-103.078122 13.992184,0 54.140625,80.929692 0,-80.929692 13.078125,0 0,103.078122 -13.992187,0 -54.140625,-80.999997 0,80.999997 -13.078122,0"
           inkscape:connector-curvature="0" />
      </g>
    </g>
  </g>
</svg>
