<?xml version="1.0" standalone="no"?>
<!DOCTYPE svg PUBLIC "-//W3C//DTD SVG 20010904//EN"
 "http://www.w3.org/TR/2001/REC-SVG-20010904/DTD/svg10.dtd">
<svg version="1.0" xmlns="http://www.w3.org/2000/svg"
 width="1265.000000pt" height="1280.000000pt" viewBox="0 0 1265.000000 1280.000000"
 preserveAspectRatio="xMidYMid meet">
<g transform="translate(0.000000,1280.000000) scale(0.100000,-0.100000)"
fill="#000000" stroke="none">
<path d="M6140 12555 l0 -245 30 0 30 0 0 202 c0 111 3 198 7 194 4 -4 54 -94
110 -199 l102 -192 45 -3 46 -3 0 245 0 246 -30 0 -30 0 0 -202 c0 -119 -4
-198 -9 -192 -5 5 -55 96 -111 202 l-102 192 -44 0 -44 0 0 -245z"/>
<path d="M6251 11552 l-34 -282 -31 0 c-66 -1 -407 -30 -521 -45 -66 -9 -196
-32 -290 -50 -1305 -262 -2436 -1043 -3146 -2173 -336 -533 -555 -1104 -668
-1742 -36 -205 -70 -544 -71 -706 l0 -80 -247 -33 c-345 -45 -336 -42 -228
-57 50 -7 176 -22 281 -34 l191 -23 12 -181 c62 -927 353 -1758 875 -2496 493
-698 1181 -1269 1946 -1615 558 -253 1126 -391 1752 -426 l215 -12 32 -251
c31 -236 48 -336 50 -292 1 24 63 540 65 543 1 1 78 7 171 12 1182 75 2256
549 3094 1366 777 758 1272 1738 1417 2806 19 145 44 441 44 539 l0 76 253 33
c138 18 266 36 282 40 26 7 23 8 -30 14 -33 4 -159 19 -281 33 l-221 27 -12
181 c-52 785 -264 1486 -649 2146 -343 588 -809 1098 -1372 1502 -621 446
-1394 753 -2145 853 -141 18 -462 44 -555 45 l-66 0 -33 253 c-18 138 -36 265
-40 281 -4 19 -18 -66 -40 -252z m-45 -379 c-13 -83 -186 -1538 -186 -1567 0
-24 -3 -27 -10 -16 -5 8 -10 35 -10 60 0 68 -5 72 -84 61 -38 -5 -71 -12 -74
-15 -3 -3 0 -37 7 -75 20 -124 31 -112 -132 -145 -78 -15 -152 -30 -163 -33
-20 -4 -24 3 -45 82 -12 48 -28 89 -35 92 -12 4 -73 -10 -120 -27 l-23 -9 23
-73 c12 -40 26 -82 29 -94 6 -18 1 -22 -35 -33 -24 -7 -94 -33 -157 -57 -63
-25 -115 -43 -117 -41 -2 2 -19 39 -38 83 -19 43 -39 80 -43 81 -12 4 -143
-55 -143 -65 0 -4 18 -41 40 -82 22 -41 40 -78 40 -82 0 -3 -35 -26 -77 -49
-43 -24 -106 -60 -141 -81 -35 -21 -67 -36 -72 -33 -5 3 -30 39 -56 81 l-46
75 -27 -17 c-80 -52 -101 -67 -101 -71 0 -3 24 -40 54 -83 l53 -77 -131 -106
-131 -106 -67 72 -67 72 -55 -54 -55 -54 -241 180 c-132 100 -240 179 -240
177 0 -3 89 -116 198 -252 109 -136 219 -275 246 -309 l48 -62 -47 -58 c-26
-32 -51 -59 -55 -61 -4 -1 -39 22 -78 53 -39 30 -75 55 -80 55 -7 0 -60 -66
-84 -106 -5 -8 19 -32 67 -68 41 -31 75 -59 75 -61 0 -2 -31 -51 -68 -107 -38
-57 -77 -118 -88 -135 -10 -18 -21 -33 -25 -33 -4 0 -42 20 -83 45 -42 25 -80
45 -84 45 -12 0 -74 -129 -67 -140 4 -6 42 -28 84 -50 l78 -39 -47 -98 c-26
-54 -55 -120 -65 -146 -10 -26 -22 -50 -27 -53 -5 -3 -45 8 -89 25 -44 17 -84
31 -89 31 -4 0 -17 -26 -28 -57 -11 -32 -23 -65 -27 -75 -5 -13 9 -21 82 -44
48 -14 91 -29 95 -31 4 -2 3 -16 -3 -30 -5 -15 -25 -85 -44 -156 -19 -71 -36
-132 -39 -134 -3 -3 -46 4 -96 14 -63 14 -93 17 -95 9 -12 -35 -26 -129 -22
-140 3 -8 41 -18 96 -25 50 -7 91 -13 91 -14 -2 -30 -30 -221 -34 -224 -4 -5
-392 -58 -1316 -181 l-355 -48 -3 81 c-6 146 24 459 69 715 107 614 357 1240
704 1770 626 952 1565 1649 2655 1971 357 105 830 183 1143 188 l89 1 -6 -37z
m524 22 c188 -16 279 -28 435 -56 816 -143 1578 -500 2240 -1050 129 -107 467
-445 574 -574 602 -726 969 -1560 1086 -2470 19 -154 35 -341 35 -428 l0 -69
-37 6 c-46 7 -946 116 -1268 153 -126 14 -234 30 -239 35 -6 4 4 8 23 8 l32 0
-7 73 c-3 39 -10 76 -14 80 -4 5 -49 2 -99 -6 -90 -14 -91 -14 -96 7 -2 12
-11 59 -20 106 -8 47 -22 109 -30 139 -8 30 -12 58 -10 62 3 3 45 17 95 29 49
12 90 25 90 28 0 6 -41 146 -44 149 -2 2 -42 -11 -91 -27 -49 -17 -92 -27 -95
-23 -4 5 -22 51 -40 103 -18 52 -44 119 -57 149 -13 30 -22 55 -21 56 2 2 41
19 88 40 47 20 86 38 88 39 6 7 -58 136 -67 136 -6 0 -46 -18 -91 -39 l-80
-39 -36 66 c-35 64 -93 164 -121 208 -12 19 -8 24 62 68 41 26 77 52 81 57 5
9 -65 129 -77 129 -3 0 -41 -25 -84 -54 l-78 -55 -47 63 c-26 35 -73 94 -104
132 l-58 69 73 68 73 67 -54 55 c-52 53 -55 54 -74 37 -25 -21 -24 -19 201
281 94 125 169 227 167 227 -2 0 -139 -108 -305 -240 -165 -133 -305 -243
-312 -245 -7 -3 -37 17 -67 44 l-55 48 58 71 c31 39 57 75 57 79 0 8 -104 93
-114 93 -3 0 -31 -34 -62 -75 -31 -41 -59 -73 -63 -71 -22 14 -267 179 -270
182 -2 2 15 34 37 71 61 101 61 95 -10 134 -35 19 -66 35 -70 37 -4 2 -26 -34
-49 -80 -23 -46 -42 -84 -44 -86 -1 -1 -49 19 -106 46 -57 27 -125 57 -151 67
-27 10 -48 21 -48 26 0 4 14 44 31 89 19 48 28 85 22 91 -12 12 -124 50 -133
44 -3 -2 -20 -43 -36 -90 -22 -64 -33 -85 -44 -82 -99 30 -277 77 -292 77 -22
0 -22 3 1 112 21 99 28 88 -72 108 -32 7 -60 10 -61 8 -2 -1 -10 -43 -19 -92
-9 -48 -18 -91 -21 -93 -3 -3 -39 0 -81 6 -42 6 -91 11 -110 11 -19 0 -37 5
-41 11 -3 6 -55 374 -115 817 -59 444 -111 819 -113 835 l-5 27 97 0 c53 0
171 -7 262 -15z m-746 -1532 c3 -21 8 -61 11 -89 l7 -52 -57 -7 c-31 -3 -59
-5 -61 -2 -3 2 -9 33 -14 68 -6 35 -12 74 -15 86 -5 23 7 27 92 31 29 2 32 -1
37 -35z m976 -4 c27 -6 50 -14 49 -17 -3 -39 -38 -167 -45 -167 -5 0 -30 4
-56 8 -55 9 -55 8 -36 117 13 77 12 75 88 59z m-1470 -121 c12 -40 23 -80 26
-89 3 -12 -9 -20 -53 -32 -31 -9 -58 -16 -59 -14 -5 7 -55 169 -53 171 5 3
102 34 111 35 4 1 17 -32 28 -71z m1982 -22 l37 -16 -34 -82 c-18 -46 -35 -83
-37 -82 -51 13 -108 39 -105 48 2 6 15 44 28 84 26 82 28 83 111 48z m-1475
-78 c-4 -18 -9 -61 -13 -95 -7 -63 -7 -63 -39 -63 l-32 0 -11 78 c-16 104 -17
100 26 105 80 8 75 10 69 -25z m743 20 c47 -6 86 -12 88 -13 1 -1 -5 -37 -13
-81 -22 -114 -22 -111 35 -123 88 -19 85 -21 106 79 16 81 20 90 40 90 27 0
276 -70 288 -81 7 -7 -13 -75 -50 -173 -4 -10 15 -20 57 -35 35 -11 66 -21 70
-21 3 0 17 28 29 63 13 34 29 74 37 89 l13 27 89 -39 c49 -21 116 -52 149 -69
l61 -31 -46 -85 c-25 -48 -44 -88 -42 -89 2 -2 29 -18 60 -35 l56 -31 48 82
c27 46 50 85 51 86 4 6 260 -164 268 -177 4 -6 -18 -45 -49 -87 -31 -42 -53
-79 -48 -83 4 -4 29 -24 54 -45 l47 -37 58 75 c33 41 62 75 66 76 4 0 30 -20
57 -44 l50 -44 -746 -596 c-411 -328 -748 -595 -749 -593 -3 3 -264 1927 -264
1946 0 14 25 14 130 -1z m-853 -93 c6 -44 12 -86 12 -94 1 -10 10 -12 36 -8
33 5 35 4 35 -21 0 -34 -207 -1753 -212 -1757 -2 -2 -314 230 -695 514 l-692
518 25 25 25 24 -67 73 c-37 39 -65 73 -63 75 2 1 33 27 69 57 36 30 93 75
126 101 l62 48 53 -78 c29 -42 54 -79 56 -81 5 -7 113 69 113 80 0 5 -22 43
-50 84 -37 55 -46 76 -37 83 24 19 261 152 272 152 6 0 29 -38 52 -85 l42 -84
58 26 c32 14 59 27 61 29 2 1 -13 41 -34 89 -21 50 -33 90 -28 95 12 11 235
99 272 106 27 6 28 4 57 -85 16 -50 32 -91 35 -91 14 0 115 32 123 39 4 4 -4
45 -18 92 -13 46 -25 87 -25 91 0 3 42 16 93 27 248 54 229 58 244 -44z m-835
-81 c2 -12 -12 -24 -49 -40 l-52 -23 -40 75 c-23 42 -41 79 -41 82 0 4 26 19
58 33 l57 26 32 -68 c17 -37 33 -76 35 -85z m1891 139 c14 -4 16 -11 11 -40
-16 -87 -30 -138 -37 -137 -4 1 -30 4 -58 8 -35 5 -49 11 -46 20 3 7 11 47 17
90 l13 77 41 -6 c23 -4 49 -9 59 -12z m-1384 -128 c13 -47 22 -87 20 -89 -8
-6 -100 -29 -103 -25 -2 2 -14 36 -26 74 -13 39 -25 75 -27 82 -4 10 68 40
102 42 6 1 21 -37 34 -84z m2359 15 c28 -17 52 -33 52 -36 0 -7 -66 -120 -82
-141 -6 -8 -22 -4 -56 15 -26 14 -49 27 -51 29 -6 4 71 163 79 163 3 0 29 -14
58 -30z m-546 -7 c24 -9 44 -17 46 -18 9 -6 -62 -165 -74 -165 -13 0 -94 30
-94 35 0 3 36 106 49 138 12 32 17 32 73 10z m-2263 -146 c47 -104 47 -100 -5
-125 -26 -13 -48 -22 -49 -20 -8 8 -75 149 -75 156 0 8 76 50 93 51 4 1 21
-27 36 -62z m-526 -44 c26 -41 47 -76 45 -78 -2 -1 -24 -16 -50 -33 l-47 -32
-45 63 c-24 34 -46 68 -48 75 -3 11 78 82 92 81 3 0 27 -34 53 -76z m3223 -9
c24 -14 44 -28 44 -31 0 -6 -68 -121 -83 -140 -7 -10 -19 -7 -51 12 -22 13
-41 28 -41 32 1 13 75 153 81 153 3 0 25 -12 50 -26z m545 -80 l47 -37 -55
-68 c-30 -38 -58 -69 -62 -69 -6 1 -12 5 -65 47 l-28 23 52 70 c28 38 54 70
57 70 3 0 27 -16 54 -36z m-3641 -109 l50 -74 -44 -31 c-25 -16 -47 -30 -50
-30 -5 0 -96 128 -99 141 -1 6 79 69 90 69 1 0 25 -34 53 -75z m-525 -111 l58
-66 -36 -35 -36 -36 -38 28 c-21 15 -53 42 -71 59 l-32 30 42 43 c23 24 45 43
49 43 4 0 33 -30 64 -66z m4021 35 c22 -17 38 -36 36 -41 -1 -5 -26 -38 -54
-73 l-51 -64 -41 31 c-23 18 -43 33 -45 35 -5 4 100 143 109 143 4 0 25 -14
46 -31z m562 -210 c-2 -3 -31 -32 -66 -64 l-63 -58 -40 38 c-21 22 -39 42 -39
46 0 4 28 35 62 68 l62 61 43 -42 c24 -23 42 -45 41 -49z m-4386 -82 l-21 -20
-38 26 c-21 14 -54 40 -73 56 l-35 29 30 32 30 32 64 -67 63 -67 -20 -21z
m4186 -40 l33 -34 -69 -61 -69 -61 -23 24 c-16 17 -20 28 -13 37 5 7 29 39 52
71 23 31 45 57 49 57 5 0 23 -15 40 -33z m-4687 -102 l27 -22 -35 -44 c-19
-24 -36 -46 -38 -48 -3 -2 -107 72 -139 100 -5 4 9 30 30 57 l39 50 45 -36
c25 -20 57 -46 71 -57z m778 -679 c325 -406 590 -740 588 -742 -3 -3 -255 -37
-1535 -210 -228 -30 -417 -53 -420 -49 -5 5 15 195 21 202 3 2 76 -8 163 -22
31 -5 31 -5 43 55 7 33 10 64 7 69 -3 4 -46 16 -95 26 -89 18 -90 19 -85 44 5
23 40 157 66 254 6 20 16 37 22 37 7 0 46 -11 86 -25 40 -14 79 -25 86 -25 7
0 21 27 33 61 l20 60 -42 18 c-23 10 -63 26 -90 36 -41 15 -47 21 -41 39 16
53 118 268 129 273 7 2 46 -13 86 -34 41 -21 77 -39 80 -41 6 -3 69 98 69 111
0 3 -35 27 -77 52 -43 26 -79 49 -81 50 -9 8 163 275 177 275 4 0 41 -25 81
-55 40 -30 74 -55 76 -55 4 0 85 112 82 114 -1 1 -36 29 -75 60 l-73 58 33 40
c17 22 39 48 47 58 8 10 18 15 22 12 3 -4 272 -340 597 -746z m4018 652 c100
-120 139 -178 127 -186 -110 -71 -144 -96 -144 -103 0 -15 64 -109 74 -109 5
0 44 22 86 49 l77 49 40 -67 c23 -36 60 -101 83 -144 l42 -77 -86 -41 c-47
-22 -86 -44 -86 -48 0 -14 49 -121 56 -121 3 0 42 16 85 35 44 19 84 35 88 35
7 0 94 -216 115 -286 5 -18 -3 -23 -85 -49 -50 -16 -92 -32 -93 -35 -2 -3 5
-33 16 -66 l18 -62 92 24 c50 13 94 22 96 19 9 -8 62 -258 62 -290 l0 -31 -92
-14 c-92 -15 -93 -15 -91 -42 1 -23 -2 -28 -22 -28 -34 0 -1683 198 -1727 207
l-37 8 510 680 c281 374 514 684 520 689 5 6 19 0 36 -16 l28 -26 70 64 c39
35 71 64 72 64 1 0 33 -37 70 -82z m-4655 -84 l68 -55 -31 -45 c-18 -24 -34
-44 -36 -44 -4 0 -117 83 -137 101 -8 7 51 98 63 99 2 0 35 -25 73 -56z m5028
-18 c16 -25 30 -49 30 -54 0 -9 -116 -88 -139 -94 -9 -3 -71 75 -71 89 1 8
130 101 142 102 4 1 21 -19 38 -43z m-193 -136 l33 -49 -77 -50 -78 -50 -27
42 c-15 23 -27 47 -26 52 1 9 125 102 138 104 3 0 20 -22 37 -49z m-5303 -111
c39 -23 72 -43 74 -44 6 -5 -48 -105 -57 -105 -5 0 -43 18 -84 40 l-75 41 30
54 c16 30 32 55 36 55 3 0 38 -19 76 -41z m200 -120 c39 -23 73 -44 75 -46 4
-2 -32 -74 -45 -91 -1 -2 -38 15 -83 37 l-81 41 28 50 c15 27 29 50 31 50 3 0
37 -19 75 -41z m5551 -86 c14 -31 22 -59 18 -63 -12 -10 -155 -71 -158 -68 -8
10 -45 89 -45 97 0 8 132 83 157 91 1 0 13 -26 28 -57z m-215 -95 c11 -24 20
-48 20 -53 0 -10 -138 -75 -157 -75 -4 0 -18 23 -30 50 l-21 49 71 35 c40 19
78 35 85 35 7 1 22 -18 32 -41z m-5705 -172 c19 -8 35 -18 35 -22 0 -20 -36
-104 -45 -104 -29 0 -166 54 -162 64 2 6 12 34 22 63 l18 51 48 -18 c26 -11
64 -26 84 -34z m180 -71 c39 -16 71 -29 72 -30 1 0 -5 -24 -14 -52 l-16 -51
-88 30 -88 29 19 50 c11 27 20 52 20 55 0 4 6 4 13 1 6 -3 44 -17 82 -32z
m5914 -122 c26 -98 32 -87 -64 -112 -47 -13 -87 -22 -89 -20 -13 20 -32 110
-24 115 10 6 148 52 160 53 4 1 12 -16 17 -36z m-220 -82 c20 -62 17 -66 -59
-85 -38 -9 -76 -19 -84 -22 -9 -4 -17 5 -24 28 -23 70 -23 69 63 98 44 15 83
25 86 21 4 -3 11 -21 18 -40z m-6079 -186 c19 -4 51 -11 71 -16 l35 -9 -11
-57 c-6 -32 -16 -58 -21 -58 -17 1 -129 17 -150 21 -20 5 -20 9 -12 57 12 72
16 79 35 73 10 -2 34 -7 53 -11z m265 -59 l60 -13 -3 -48 c-1 -27 -4 -50 -7
-53 -2 -2 -43 1 -91 8 l-86 12 6 51 c9 63 12 68 39 62 12 -3 49 -11 82 -19z
m6147 -236 l3 -35 -83 -9 c-49 -5 -87 -5 -91 0 -5 5 -11 32 -15 61 l-7 52 48
7 c27 3 66 9 88 13 38 7 40 6 47 -24 4 -16 8 -46 10 -65z m-237 14 c3 -25 5
-48 2 -50 -2 -2 -37 0 -78 6 -41 5 -82 10 -91 10 -13 0 -18 8 -18 29 0 28 2
28 73 38 39 6 79 11 88 12 12 1 19 -11 24 -45z m1745 -526 c0 -245 -48 -624
-117 -923 -146 -639 -436 -1264 -831 -1790 -151 -202 -248 -312 -451 -516
-204 -203 -314 -300 -516 -451 -637 -478 -1391 -790 -2185 -903 -135 -20 -417
-45 -499 -45 l-63 0 6 33 c3 17 49 397 102 842 53 446 98 812 100 814 8 9 13
-8 23 -99 7 -52 13 -95 14 -96 1 -1 35 3 76 9 l74 10 -7 58 c-3 32 -8 76 -12
98 l-6 40 38 6 c22 4 95 20 164 35 69 15 126 27 128 25 1 -1 13 -42 27 -90 13
-48 25 -89 28 -91 6 -6 147 38 147 46 0 3 -13 45 -29 93 -16 48 -27 88 -23 91
4 2 31 11 61 21 30 10 97 35 149 56 53 22 97 39 99 39 2 0 22 -38 43 -85 21
-47 42 -85 45 -85 11 0 135 59 135 65 0 3 -18 42 -41 87 -47 93 -49 87 45 135
28 14 84 47 126 73 l76 48 50 -79 c27 -43 54 -78 60 -79 14 0 124 78 124 89 0
4 -24 40 -54 80 l-54 72 131 106 131 106 62 -66 c34 -37 66 -67 70 -67 5 0 27
19 51 42 l42 41 241 -180 c132 -100 240 -179 240 -177 0 3 -98 127 -218 277
-120 149 -230 289 -246 309 l-28 37 57 71 c32 38 60 70 63 70 2 0 35 -25 73
-55 37 -30 73 -55 78 -55 10 0 91 101 91 113 0 4 -34 32 -75 62 -47 35 -73 61
-69 68 4 7 21 32 39 57 17 25 53 80 79 123 27 42 52 80 57 83 5 3 42 -13 83
-35 40 -23 78 -41 84 -41 11 0 72 103 72 123 0 7 -38 31 -84 54 l-84 42 36 73
c19 40 50 109 68 153 20 49 38 79 46 78 7 -2 48 -16 91 -32 88 -33 80 -37 113
57 11 32 14 55 8 61 -5 5 -46 21 -92 36 -68 22 -82 30 -77 44 3 9 22 77 41
151 19 74 37 140 39 146 2 9 26 6 82 -7 112 -26 110 -27 122 34 22 110 28 100
-79 118 -91 15 -95 16 -92 40 11 99 21 171 25 176 3 2 254 38 559 79 422 57
1000 137 1111 153 4 1 7 -45 7 -101z m-8850 -53 c344 -42 704 -85 800 -96 96
-11 176 -22 178 -24 1 -1 -26 -5 -60 -9 -124 -13 -130 -15 -124 -45 3 -14 8
-48 11 -75 l7 -49 51 7 c29 3 73 9 98 12 l46 6 7 -48 c4 -27 18 -95 32 -152
13 -57 24 -109 24 -117 0 -8 -34 -21 -90 -35 -49 -12 -90 -27 -90 -34 0 -35
39 -141 51 -140 8 1 51 13 96 27 l82 25 17 -51 c10 -29 36 -100 59 -159 l42
-106 -88 -38 c-49 -20 -89 -38 -89 -39 0 -5 61 -139 65 -143 1 -2 39 15 84 37
44 23 85 41 91 41 5 0 26 -32 45 -70 20 -39 56 -102 80 -141 25 -38 45 -71 45
-73 0 -3 -34 -26 -75 -51 -41 -26 -78 -51 -81 -56 -6 -11 73 -129 87 -129 5 0
42 25 82 55 l72 55 20 -26 c11 -15 59 -75 106 -133 l87 -107 -68 -59 c-38 -33
-69 -64 -69 -70 -1 -5 20 -31 46 -57 l46 -47 -180 -241 c-100 -132 -179 -240
-177 -240 2 0 138 107 302 238 163 131 303 241 310 246 8 5 35 -11 75 -44 34
-29 63 -55 64 -59 2 -3 -24 -40 -57 -81 l-60 -75 23 -17 c12 -10 40 -31 63
-47 l41 -30 56 79 57 78 124 -81 c68 -45 132 -87 142 -93 21 -12 21 -12 -53
-140 l-24 -42 66 -36 c36 -20 68 -36 70 -36 3 0 23 37 46 83 23 45 42 83 44
85 1 1 42 -16 91 -39 49 -22 117 -52 152 -66 34 -14 62 -30 62 -37 0 -6 -14
-46 -31 -89 -18 -44 -28 -82 -23 -86 16 -15 138 -51 145 -44 4 5 17 43 29 86
13 43 27 80 32 83 5 3 41 -4 81 -17 40 -12 107 -30 150 -39 43 -10 81 -21 84
-24 4 -3 -1 -41 -10 -84 -25 -113 -26 -108 46 -121 100 -17 93 -23 107 85 l13
95 38 -6 c20 -4 68 -10 105 -13 65 -7 69 -8 76 -37 4 -16 55 -385 113 -820 58
-434 108 -800 110 -813 5 -22 4 -22 -92 -22 -112 0 -378 22 -533 45 -887 126
-1697 489 -2405 1076 -129 107 -467 445 -574 574 -550 663 -905 1419 -1050
2235 -38 218 -71 519 -71 663 l0 67 38 -5 c20 -3 318 -39 662 -80z m7106 -157
c-11 -125 -4 -117 -103 -101 -48 7 -91 12 -97 10 -10 -3 -38 -118 -31 -125 2
-2 43 -12 91 -23 48 -10 89 -21 92 -23 11 -12 -71 -316 -86 -316 -4 0 -42 12
-85 26 -43 14 -83 24 -90 21 -10 -4 -47 -98 -47 -120 0 -3 41 -20 90 -38 50
-17 90 -33 90 -34 0 -6 -61 -148 -95 -223 l-38 -82 -82 45 c-46 25 -85 45 -88
45 -7 0 -67 -105 -67 -117 0 -5 36 -29 80 -54 44 -24 80 -47 80 -52 0 -10
-123 -204 -153 -242 l-25 -29 -76 57 -75 57 -41 -51 c-22 -28 -40 -54 -40 -59
0 -4 32 -33 70 -64 39 -31 70 -60 70 -64 0 -4 -25 -35 -54 -69 l-53 -61 -597
745 c-328 410 -595 747 -593 749 1 2 306 44 677 94 371 50 799 108 950 129
151 21 288 39 304 40 l29 1 -7 -72z m-5939 16 c61 -6 61 -7 65 -41 2 -19 2
-36 -2 -38 -10 -6 -170 -29 -174 -24 -2 2 -7 30 -11 63 l-7 59 34 -6 c18 -4
61 -9 95 -13z m-172 -50 c4 -31 4 -58 1 -61 -5 -6 -169 -34 -172 -30 -1 1 -5
30 -9 64 l-7 61 69 7 c37 4 73 8 78 10 27 9 33 1 40 -51z m625 -4 c179 -21
555 -66 835 -100 281 -33 524 -64 542 -68 l32 -7 -510 -680 c-281 -374 -514
-684 -519 -689 -6 -6 -17 -3 -29 8 -20 18 -22 17 -92 -47 l-71 -65 -32 37
c-85 97 -181 221 -175 225 51 35 149 109 149 114 0 14 -63 102 -74 102 -6 0
-44 -22 -85 -49 l-74 -50 -42 67 c-23 37 -60 101 -83 144 l-42 76 77 42 c43
23 81 45 86 49 7 7 -39 121 -48 121 -2 0 -40 -16 -84 -35 -43 -19 -84 -35 -89
-35 -10 0 -103 225 -117 282 -6 23 -1 26 84 53 50 16 91 33 91 38 0 24 -33
117 -41 117 -5 0 -48 -10 -95 -21 -46 -12 -86 -20 -88 -18 -3 2 -19 73 -37
157 -37 173 -39 166 45 176 122 16 119 14 113 57 -5 37 -4 39 21 39 15 0 173
-18 352 -40z m5467 -94 c2 -1 -2 -28 -8 -60 -9 -44 -15 -55 -28 -52 -9 3 -49
13 -89 21 l-73 17 7 36 c12 74 4 70 101 55 48 -8 89 -15 90 -17z m171 -22 c29
-4 54 -10 57 -14 2 -4 -1 -35 -7 -69 -9 -48 -15 -60 -27 -57 -9 3 -49 13 -89
22 -73 16 -73 16 -68 45 19 98 15 91 49 85 18 -3 56 -8 85 -12z m-5929 -336
c1 -12 -20 -23 -81 -42 -45 -14 -83 -24 -84 -23 -1 1 -9 26 -18 55 -11 40 -12
54 -3 57 7 2 46 13 87 23 l75 19 12 -36 c6 -20 12 -44 12 -53z m-234 -20 c8
-28 15 -55 15 -59 0 -10 -160 -62 -168 -55 -3 4 -14 32 -23 62 -15 47 -15 56
-3 61 15 6 144 41 156 42 4 1 14 -22 23 -51z m5823 -65 c29 -9 52 -22 52 -29
0 -11 -27 -90 -35 -101 -2 -4 -153 52 -161 59 -3 4 1 29 11 57 16 49 16 49 48
39 18 -5 56 -17 85 -25z m204 -69 l76 -25 -20 -60 c-11 -32 -21 -59 -21 -59
-7 0 -160 60 -164 64 -9 9 28 106 40 106 7 0 46 -11 89 -26z m-1759 -583 c361
-270 657 -495 657 -499 0 -5 -5 -13 -11 -19 -9 -9 3 -29 50 -81 33 -38 61 -72
61 -76 0 -13 -232 -206 -249 -206 -4 0 -31 34 -60 75 -30 41 -56 75 -59 75 -3
0 -29 -16 -58 -36 l-53 -36 26 -42 c14 -22 39 -60 55 -83 l28 -42 -117 -70
c-125 -73 -171 -97 -177 -90 -2 2 -22 41 -45 87 l-41 82 -60 -30 c-33 -17 -60
-34 -60 -39 0 -5 16 -43 36 -86 26 -52 34 -79 26 -87 -13 -13 -284 -118 -292
-113 -3 2 -19 45 -35 95 -20 64 -33 89 -42 85 -8 -2 -39 -12 -69 -21 -35 -10
-54 -20 -51 -28 20 -52 47 -170 40 -176 -7 -7 -200 -51 -280 -64 -35 -6 -36
-5 -48 99 -11 87 -12 87 -61 83 -40 -3 -44 -1 -44 19 0 23 195 1657 206 1726
l6 38 31 -24 c18 -13 328 -245 690 -516z m-1703 -470 c73 -535 129 -975 126
-979 -5 -5 -187 15 -192 21 -1 1 4 43 12 92 7 50 14 93 14 96 0 9 -124 29
-131 21 -3 -4 -14 -46 -24 -94 -10 -49 -19 -88 -21 -88 -37 0 -314 80 -314 91
0 5 11 43 25 86 14 43 25 83 25 89 0 10 -117 51 -123 43 -2 -2 -18 -41 -36
-86 -18 -46 -37 -83 -43 -83 -13 0 -170 66 -238 100 l-58 29 45 86 c25 48 43
88 41 90 -12 10 -119 67 -122 64 -2 -2 -20 -35 -41 -74 -53 -97 -53 -97 -78
-81 -117 72 -247 160 -247 168 0 5 21 37 47 71 25 34 50 67 55 73 6 8 -9 26
-43 53 -28 23 -55 41 -59 41 -4 0 -34 -34 -66 -75 -66 -84 -50 -83 -141 -3
l-41 37 745 595 c411 328 748 595 749 593 2 -2 62 -441 134 -976z m-2178 824
c12 -24 20 -46 17 -48 -14 -11 -141 -77 -149 -77 -11 0 -50 73 -50 92 0 11
127 75 153 77 4 1 17 -19 29 -44z m-213 -94 c11 -27 21 -54 21 -58 0 -7 -141
-83 -154 -83 -6 0 -57 112 -53 116 5 5 151 73 158 73 4 1 16 -21 28 -48z
m5442 -31 l80 -41 -28 -49 c-15 -28 -31 -50 -35 -50 -8 0 -130 69 -141 79 -7
7 31 101 40 101 2 0 40 -18 84 -40z m192 -96 c29 -15 62 -33 73 -41 l22 -14
-30 -54 -30 -55 -66 37 c-99 54 -95 48 -67 104 14 27 30 49 36 49 5 0 33 -12
62 -26z m-5199 -164 c14 -22 26 -43 26 -48 0 -10 -124 -102 -136 -102 -10 0
-64 74 -64 87 0 6 137 102 146 103 1 0 13 -18 28 -40z m4800 -163 l30 -24 -22
-35 c-41 -66 -44 -66 -121 -3 l-71 57 36 44 36 44 42 -30 c22 -17 54 -41 70
-53z m-4986 20 l32 -45 -74 -55 -74 -56 -37 55 c-21 30 -36 57 -33 59 14 15
143 93 148 90 3 -2 20 -23 38 -48z m5132 -128 c38 -28 70 -55 70 -59 0 -4 -16
-28 -35 -54 l-36 -46 -70 56 c-38 31 -68 60 -67 63 4 9 63 90 65 91 2 0 34
-23 73 -51z m-4680 -64 c9 -11 3 -26 -35 -79 -26 -36 -51 -69 -57 -72 -5 -4
-22 5 -36 20 l-27 26 65 60 c36 32 68 59 71 60 4 0 12 -7 19 -15z m-156 -174
l29 -30 -53 -70 c-28 -39 -55 -71 -59 -71 -4 0 -25 18 -46 41 l-40 41 63 59
c34 32 66 59 70 59 5 0 21 -13 36 -29z m4300 -21 c36 -28 66 -54 66 -57 0 -9
-32 -43 -41 -43 -14 0 -121 129 -114 140 10 16 19 13 89 -40z m187 -141 c38
-28 69 -54 69 -57 0 -3 -16 -23 -37 -44 l-36 -37 -63 67 -62 67 26 28 c14 15
28 27 30 27 3 0 35 -23 73 -51z m-3973 10 c27 -20 39 -35 35 -43 -18 -29 -98
-135 -103 -136 -3 0 -24 17 -48 38 l-42 37 52 68 c29 37 55 67 58 67 3 0 25
-14 48 -31z m3470 -121 c24 -33 46 -66 48 -73 3 -8 -14 -27 -40 -45 l-46 -31
-50 77 -49 78 42 28 c23 15 44 28 47 27 3 0 24 -27 48 -61z m-3601 -75 l32
-28 -54 -72 -53 -73 -51 40 -51 40 57 70 c61 75 60 75 120 23z m509 -49 c33
-19 43 -31 39 -43 -12 -30 -76 -141 -82 -141 -10 0 -93 50 -93 57 0 9 81 153
86 153 3 0 26 -12 50 -26z m3237 -69 c26 -35 47 -68 47 -73 0 -9 -86 -72 -99
-72 -9 0 -104 140 -99 145 17 17 85 64 93 64 6 0 31 -29 58 -64z m-538 -55
c21 -44 37 -81 34 -84 -7 -6 -88 -46 -93 -46 -3 0 -24 36 -46 80 l-40 80 47
24 c27 14 50 25 53 26 4 0 23 -36 45 -80z m-2254 -73 c15 -5 14 -14 -11 -89
-30 -91 -32 -93 -102 -63 l-38 15 20 50 c51 129 45 121 82 106 18 -7 40 -16
49 -19z m-556 -9 c25 -12 45 -26 45 -30 0 -7 -68 -148 -75 -156 -4 -5 -115 52
-113 58 22 46 84 150 90 150 4 0 28 -10 53 -22z m2378 -90 c15 -46 23 -86 19
-89 -4 -4 -29 -13 -55 -22 -36 -12 -49 -13 -52 -4 -2 7 -11 39 -20 72 -9 33
-18 68 -21 77 -4 13 6 20 43 32 26 8 51 15 54 15 4 1 18 -36 32 -81z m542 -38
c21 -43 37 -81 35 -82 -15 -11 -110 -51 -113 -47 -1 2 -19 39 -40 82 l-37 77
52 24 c29 14 55 25 58 25 3 0 23 -35 45 -79z m-1916 24 c2 -2 -2 -43 -9 -90
l-12 -86 -56 6 c-31 4 -57 8 -58 9 -3 2 25 144 32 165 3 10 16 11 51 6 27 -3
50 -8 52 -10z m914 -31 c3 -16 9 -56 12 -90 8 -69 14 -63 -72 -77 -41 -7 -47
11 -38 110 l7 73 36 4 c20 2 40 4 43 5 4 1 9 -10 12 -25z m-1429 -83 c9 -9
-32 -158 -46 -166 -10 -6 -96 22 -112 36 -7 7 1 34 43 142 l10 27 48 -16 c26
-9 52 -19 57 -23z m1960 -94 c14 -46 26 -86 26 -89 0 -7 -111 -39 -116 -34 -2
2 -15 41 -28 86 -20 68 -22 83 -10 88 7 3 33 11 56 18 24 8 44 14 45 14 1 1
13 -37 27 -83z m-1482 -25 c10 -9 -16 -176 -27 -176 -6 1 -36 5 -68 9 -46 7
-57 12 -53 25 2 9 7 32 11 51 4 19 11 52 16 73 l10 39 52 -7 c29 -4 55 -10 59
-14z m994 -94 c6 -45 9 -85 5 -88 -3 -4 -31 -10 -62 -13 l-56 -7 -10 88 c-6
48 -9 89 -8 90 3 5 110 19 114 16 3 -2 10 -40 17 -86z"/>
<path d="M6085 11650 c-4 -7 -3 -16 3 -22 14 -14 47 -6 47 12 0 18 -40 26 -50
10z"/>
<path d="M6910 11616 c0 -16 41 -29 53 -17 14 14 -2 31 -29 31 -14 0 -24 -6
-24 -14z"/>
<path d="M5283 11552 c-31 -5 -30 -32 1 -32 27 0 44 17 30 29 -5 4 -19 5 -31
3z"/>
<path d="M7720 11456 c0 -7 10 -16 22 -20 28 -7 49 11 28 24 -22 14 -50 12
-50 -4z"/>
<path d="M4488 11323 c-10 -2 -18 -11 -18 -19 0 -16 27 -18 49 -5 7 5 10 14 7
20 -7 11 -10 12 -38 4z"/>
<path d="M8497 11183 c-12 -12 -7 -20 18 -31 33 -15 35 -15 35 3 0 8 -9 19
-19 25 -23 12 -26 12 -34 3z"/>
<path d="M3736 10961 c-11 -12 -14 -21 -7 -25 14 -9 53 13 48 27 -6 19 -23 18
-41 -2z"/>
<path d="M9215 10771 c-8 -14 37 -43 49 -31 6 6 4 15 -4 25 -14 17 -36 20 -45
6z"/>
<path d="M3056 10491 c-12 -13 -14 -21 -6 -26 13 -8 52 24 44 36 -8 14 -19 11
-38 -10z"/>
<path d="M9867 10263 c-9 -9 22 -43 40 -43 18 0 16 14 -5 33 -21 19 -26 20
-35 10z"/>
<path d="M2495 10141 c-16 -10 -39 -28 -49 -40 -25 -28 -34 -119 -15 -152 8
-13 14 -30 14 -37 0 -19 70 -42 125 -42 146 0 194 193 68 270 -41 25 -104 26
-143 1z"/>
<path d="M10420 9654 c0 -16 23 -44 35 -44 18 0 20 21 3 38 -12 12 -38 17 -38
6z"/>
<path d="M1950 9270 c-16 -30 -2 -45 21 -24 10 9 19 23 19 31 0 20 -28 16 -40
-7z"/>
<path d="M10880 8951 c0 -20 27 -48 36 -38 4 3 4 18 0 32 -7 29 -36 34 -36 6z"/>
<path d="M1552 8546 c-8 -19 -8 -27 0 -32 12 -8 40 24 35 40 -7 20 -24 16 -35
-8z"/>
<path d="M11220 8195 c0 -24 24 -44 37 -31 9 8 -14 56 -27 56 -5 0 -10 -11
-10 -25z"/>
<path d="M1276 7768 c-8 -33 -8 -38 8 -38 14 0 26 21 26 46 0 23 -27 16 -34
-8z"/>
<path d="M11430 7406 c0 -25 12 -46 26 -46 15 0 18 18 8 44 -8 20 -34 21 -34
2z"/>
<path d="M1130 6961 c0 -12 0 -24 0 -28 0 -5 6 -8 13 -8 6 0 12 11 12 24 0 13
-6 26 -12 29 -8 2 -13 -5 -13 -17z"/>
<path d="M69 6630 c-73 -39 -90 -144 -32 -201 20 -20 51 -34 107 -49 93 -23
122 -40 127 -72 17 -95 -85 -137 -213 -88 -29 11 -54 20 -56 20 -2 0 -2 -15 0
-32 3 -28 8 -34 43 -44 55 -17 179 -17 219 0 51 21 76 60 76 118 0 92 -43 133
-165 158 -83 16 -105 32 -105 75 0 82 76 102 226 59 18 -5 21 -2 20 23 -2 22
-9 30 -36 40 -56 19 -169 15 -211 -7z"/>
<path d="M12334 6635 c-3 -6 -3 -116 -2 -245 l3 -235 158 -3 157 -3 0 31 0 30
-125 0 -125 0 0 90 0 90 115 0 115 0 0 25 0 25 -115 0 -115 0 0 75 0 75 120 0
120 0 0 28 0 27 -151 0 c-94 0 -153 -4 -155 -10z"/>
<path d="M11520 6570 c0 -20 5 -30 15 -30 10 0 15 10 15 30 0 20 -5 30 -15 30
-10 0 -15 -10 -15 -30z"/>
<path d="M1110 6121 c0 -21 5 -31 16 -31 11 0 14 8 12 27 -4 39 -28 42 -28 4z"/>
<path d="M11474 5767 c-7 -21 -2 -48 11 -48 17 -1 25 39 10 51 -12 10 -16 9
-21 -3z"/>
<path d="M1217 5323 c-7 -12 11 -53 23 -53 5 0 10 14 10 30 0 28 -21 42 -33
23z"/>
<path d="M11296 4954 c-10 -26 -7 -44 8 -44 8 0 17 9 21 20 11 34 -16 57 -29
24z"/>
<path d="M1457 4533 c-7 -12 11 -53 22 -53 17 0 22 19 11 40 -11 20 -25 26
-33 13z"/>
<path d="M10992 4176 c-8 -19 -8 -27 0 -32 12 -8 40 24 35 40 -7 20 -24 16
-35 -8z"/>
<path d="M1816 3792 c-6 -11 21 -52 35 -52 13 0 11 34 -3 48 -14 14 -25 15
-32 4z"/>
<path d="M10577 3472 c-9 -10 -17 -24 -17 -30 0 -20 29 -13 41 9 15 29 -3 45
-24 21z"/>
<path d="M2292 3104 c4 -20 34 -41 45 -31 10 11 -11 41 -31 45 -12 3 -17 -2
-14 -14z"/>
<path d="M10014 2981 c-53 -32 -74 -68 -74 -125 0 -91 56 -148 146 -148 148 0
199 195 72 272 -42 25 -104 26 -144 1z"/>
<path d="M2867 2523 c-9 -9 22 -43 40 -43 18 0 16 14 -5 33 -21 19 -26 20 -35
10z"/>
<path d="M9700 2505 c-6 -8 -9 -19 -5 -25 9 -14 45 6 45 25 0 19 -24 19 -40 0z"/>
<path d="M3534 2025 c-7 -18 12 -37 34 -32 21 4 19 18 -5 34 -21 14 -23 14
-29 -2z"/>
<path d="M9034 2016 c-14 -11 -16 -18 -8 -26 14 -14 54 7 54 27 0 17 -22 16
-46 -1z"/>
<path d="M4260 1640 c0 -10 32 -30 49 -30 17 0 13 27 -5 34 -23 9 -44 7 -44
-4z"/>
<path d="M8303 1643 c-7 -2 -13 -11 -13 -19 0 -18 34 -18 49 -1 17 22 -4 34
-36 20z"/>
<path d="M5045 1381 c-8 -13 33 -34 52 -27 12 5 13 9 3 21 -14 17 -46 20 -55
6z"/>
<path d="M7510 1380 c-11 -7 -12 -12 -3 -21 14 -14 53 -2 53 17 0 16 -28 18
-50 4z"/>
<path d="M5865 1250 c-4 -7 -3 -16 3 -22 14 -14 47 -6 47 12 0 18 -40 26 -50
10z"/>
<path d="M6701 1249 c-17 -7 -21 -13 -14 -20 15 -15 58 -7 58 10 0 19 -14 22
-44 10z"/>
<path d="M6020 478 c0 -7 27 -116 58 -243 l58 -230 42 -3 c38 -3 42 -1 48 25
4 15 28 111 54 213 l46 185 43 -177 c66 -275 55 -250 104 -246 l41 3 58 230
c31 127 58 236 58 243 0 9 -11 12 -32 10 l-32 -3 -51 -203 -50 -203 -51 203
-50 203 -39 0 -39 0 -50 -203 -51 -203 -50 203 -51 203 -32 3 c-21 2 -32 -1
-32 -10z"/>
</g>
</svg>
