<?xml version="1.0" encoding="iso-8859-1"?>
<!-- Generator: Adobe Illustrator 19.0.0, SVG Export Plug-In . SVG Version: 6.00 Build 0)  -->
<svg version="1.1" id="Layer_1" xmlns="http://www.w3.org/2000/svg" xmlns:xlink="http://www.w3.org/1999/xlink" x="0px" y="0px"
	 viewBox="0 0 512 512" style="enable-background:new 0 0 512 512;" xml:space="preserve">
<g>
	<g>
		<path d="M498.157,236.025L336.57,175.43L275.975,13.843c-6.921-18.457-33.029-18.457-39.95,0L175.43,175.43L13.843,236.025
			c-18.457,6.921-18.457,33.029,0,39.95L175.43,336.57l60.595,161.587c6.921,18.457,33.029,18.457,39.95,0L336.57,336.57
			l161.587-60.595C516.614,269.054,516.614,242.946,498.157,236.025z M312.509,300.025c-5.769,2.163-10.321,6.715-12.484,12.484
			L256,429.909l-44.025-117.4c-2.163-5.769-6.715-10.321-12.484-12.484L82.091,256l117.4-44.025
			c5.769-2.163,10.321-6.715,12.484-12.484L256,82.091l44.025,117.4c2.163,5.769,6.715,10.321,12.484,12.484L429.909,256
			L312.509,300.025z"/>
	</g>
</g>
<g>
</g>
<g>
</g>
<g>
</g>
<g>
</g>
<g>
</g>
<g>
</g>
<g>
</g>
<g>
</g>
<g>
</g>
<g>
</g>
<g>
</g>
<g>
</g>
<g>
</g>
<g>
</g>
<g>
</g>
</svg>
