<?xml version="1.0" encoding="UTF-8" standalone="no"?>
<!-- Created with Inkscape (http://www.inkscape.org/) -->

<svg
   xmlns:dc="http://purl.org/dc/elements/1.1/"
   xmlns:cc="http://creativecommons.org/ns#"
   xmlns:rdf="http://www.w3.org/1999/02/22-rdf-syntax-ns#"
   xmlns:svg="http://www.w3.org/2000/svg"
   xmlns="http://www.w3.org/2000/svg"
   xmlns:sodipodi="http://sodipodi.sourceforge.net/DTD/sodipodi-0.dtd"
   xmlns:inkscape="http://www.inkscape.org/namespaces/inkscape"
   width="69.264"
   height="115.344"
   id="svg2"
   version="1.1"
   inkscape:version="0.48.2 r9819"
   sodipodi:docname="esri_U.svg">
  <defs
     id="defs4" />
  <sodipodi:namedview
     id="base"
     pagecolor="#ffffff"
     bordercolor="#666666"
     borderopacity="1.0"
     inkscape:pageopacity="0.0"
     inkscape:pageshadow="2"
     inkscape:zoom="4.2400885"
     inkscape:cx="-6.1413975"
     inkscape:cy="30.164709"
     inkscape:document-units="px"
     inkscape:current-layer="text4345"
     showgrid="false"
     fit-margin-top="0"
     fit-margin-left="0"
     fit-margin-right="0"
     fit-margin-bottom="0"
     inkscape:window-width="1366"
     inkscape:window-height="744"
     inkscape:window-x="0"
     inkscape:window-y="24"
     inkscape:window-maximized="1" />
  <metadata
     id="metadata7">
    <rdf:RDF>
      <cc:Work
         rdf:about="">
        <dc:format>image/svg+xml</dc:format>
        <dc:type
           rdf:resource="http://purl.org/dc/dcmitype/StillImage" />
        <dc:title></dc:title>
      </cc:Work>
    </rdf:RDF>
  </metadata>
  <g
     inkscape:label="Camada 1"
     inkscape:groupmode="layer"
     id="layer1"
     transform="translate(-269.79724,23.204377)">
    <g
       transform="matrix(0.41078599,0,0,0.37219576,292.66667,-130.04564)"
       style="font-size:144px;font-style:normal;font-variant:normal;font-weight:normal;font-stretch:normal;line-height:125%;letter-spacing:0px;word-spacing:0px;fill:#000000;fill-opacity:1;stroke:none;font-family:Arial;-inkscape-font-specification:Arial"
       id="text4345">
      <g
         id="g4638">
        <g
           id="text4624"
           style="fill:#000000;font-family:Arial;-inkscape-font-specification:Arial"
           transform="matrix(2.4343576,0,0,2.6867582,-114.94406,194.06147)">
          <path
             sodipodi:nodetypes="ccccccccccccccccccccccc"
             inkscape:connector-curvature="0"
             id="path4629"
             style="font-family:ESRI North;-inkscape-font-specification:ESRI North"
             d="m 93.61198,55.924406 -14.112,0 0,23.184 -37.44,0 0,-23.184 -17.712,0 36,-21.312 33.264,21.312 m -14.112,94.032004 -37.44,0 0,-27.36 37.44,0 0,27.36 m 0,-32.256 -37.44,0 0,-19.440004 37.44,0 0,19.440004 m 0,-24.192004 -37.44,0 0,-10.08 37.44,0 0,10.08" />
        </g>
        <g
           id="text4631"
           style="fill:#ffffff;font-family:Arial;-inkscape-font-specification:Arial"
           transform="matrix(0.87287959,0,0,0.40400417,88.875201,505.99679)">
          <path
             style="fill:#ffffff"
             inkscape:connector-curvature="0"
             id="path4636"
             d="m -103.76694,176.63911 0,-103.078121 13.99219,0 54.140625,80.929691 0,-80.929691 13.078125,0 0,103.078121 -13.992187,0 -54.140625,-80.999996 0,80.999996 -13.078128,0" />
        </g>
      </g>
    </g>
  </g>
</svg>
