<?xml version="1.0" encoding="iso-8859-1"?>
<!-- Generator: Adobe Illustrator 19.0.0, SVG Export Plug-In . SVG Version: 6.00 Build 0)  -->
<svg version="1.1" id="Layer_1" xmlns="http://www.w3.org/2000/svg" xmlns:xlink="http://www.w3.org/1999/xlink" x="0px" y="0px"
	 viewBox="0 0 512 512" style="enable-background:new 0 0 512 512;" xml:space="preserve">
<g>
	<g>
		<path d="M256,0C114.842,0,0,114.842,0,256s114.842,256,256,256s256-114.842,256-256S397.158,0,256,0z M307.2,489.353V153.6h51.2
			c3.447,0,6.571-2.082,7.885-5.265c1.323-3.191,0.589-6.861-1.852-9.301l-102.4-102.4c-3.337-3.337-8.73-3.337-12.066,0
			l-102.4,102.4c-2.441,2.44-3.174,6.11-1.852,9.301c1.314,3.183,4.437,5.265,7.885,5.265h51.2v335.753
			C97.579,465.843,17.067,370.176,17.067,256C17.067,124.254,124.254,17.067,256,17.067S494.933,124.254,494.933,256
			C494.933,370.176,414.421,465.843,307.2,489.353z"/>
	</g>
</g>
<g>
</g>
<g>
</g>
<g>
</g>
<g>
</g>
<g>
</g>
<g>
</g>
<g>
</g>
<g>
</g>
<g>
</g>
<g>
</g>
<g>
</g>
<g>
</g>
<g>
</g>
<g>
</g>
<g>
</g>
</svg>
