<?xml version="1.0" encoding="iso-8859-1"?>
<!-- Generator: Adobe Illustrator 19.0.0, SVG Export Plug-In . SVG Version: 6.00 Build 0)  -->
<svg version="1.1" id="Layer_1" xmlns="http://www.w3.org/2000/svg" xmlns:xlink="http://www.w3.org/1999/xlink" x="0px" y="0px"
	 viewBox="0 0 512 512" style="enable-background:new 0 0 512 512;" xml:space="preserve">
<g>
	<g>
		<path d="M256,0C114.842,0,0,114.842,0,256s114.842,256,256,256s256-114.842,256-256S397.158,0,256,0z M256,494.933
			C124.254,494.933,17.067,387.746,17.067,256S124.254,17.067,256,17.067S494.933,124.254,494.933,256S387.746,494.933,256,494.933z
			"/>
	</g>
</g>
<g>
	<g>
		<path d="M364.433,139.034l-102.4-102.4c-3.337-3.337-8.73-3.337-12.066,0l-102.4,102.4c-2.441,2.44-3.174,6.11-1.852,9.301
			c1.314,3.183,4.437,5.265,7.885,5.265h51.2v341.333c0,4.71,3.814,8.533,8.533,8.533c4.719,0,8.533-3.823,8.533-8.533V145.067
			c0-4.71-3.814-8.533-8.533-8.533h-39.134L256,54.733l81.801,81.801h-39.134c-4.719,0-8.533,3.823-8.533,8.533v349.867
			c0,4.71,3.814,8.533,8.533,8.533s8.533-3.823,8.533-8.533V153.6h51.2c3.447,0,6.571-2.082,7.885-5.265
			C367.607,145.143,366.874,141.474,364.433,139.034z"/>
	</g>
</g>
<g>
</g>
<g>
</g>
<g>
</g>
<g>
</g>
<g>
</g>
<g>
</g>
<g>
</g>
<g>
</g>
<g>
</g>
<g>
</g>
<g>
</g>
<g>
</g>
<g>
</g>
<g>
</g>
<g>
</g>
</svg>
