<?xml version="1.0" encoding="iso-8859-1"?>
<!-- Generator: Adobe Illustrator 19.0.0, SVG Export Plug-In . SVG Version: 6.00 Build 0)  -->
<svg version="1.1" id="Layer_1" xmlns="http://www.w3.org/2000/svg" xmlns:xlink="http://www.w3.org/1999/xlink" x="0px" y="0px"
	 viewBox="0 0 512 512" style="enable-background:new 0 0 512 512;" xml:space="preserve">
<g>
	<g>
		<path d="M507.443,248.272l-159.795-84.096L263.552,4.381c-2.953-5.606-12.151-5.606-15.104,0l-84.096,159.795L4.557,248.272
			C1.758,249.748,0,252.658,0,255.824s1.758,6.076,4.557,7.552l159.795,84.096l84.096,159.795c1.476,2.807,4.386,4.557,7.552,4.557
			c3.166,0,6.076-1.758,7.552-4.557l84.096-159.795l159.795-84.096c2.799-1.476,4.557-4.386,4.557-7.552
			S510.242,249.748,507.443,248.272z M256,114.051l33.613,72.823c-10.172-4.975-21.547-7.851-33.613-7.851
			c-12.066,0-23.441,2.876-33.613,7.851L256,114.051z M256,315.557c-32.939,0-59.733-26.795-59.733-59.733
			s26.795-59.733,59.733-59.733s59.733,26.795,59.733,59.733S288.939,315.557,256,315.557z M289.613,324.773L256,397.597
			l-33.613-72.823c10.172,4.975,21.547,7.851,33.613,7.851C268.066,332.624,279.441,329.748,289.613,324.773z M337.357,333.605
			c-1.527,0.802-2.773,2.048-3.575,3.575L256,484.97l-77.781-147.789c-0.802-1.527-2.048-2.773-3.576-3.575L26.854,255.824
			l147.789-77.781c1.527-0.802,2.773-2.048,3.576-3.576l69.248-131.575v48.922l-49.092,106.385L90.291,248.076
			c-3.021,1.391-4.958,4.42-4.958,7.748s1.937,6.357,4.958,7.748l108.083,49.877l49.877,108.083c1.399,3.021,4.42,4.958,7.748,4.958
			s6.357-1.937,7.748-4.958l49.877-108.083l108.083-49.877c3.021-1.399,4.958-4.42,4.958-7.748s-1.937-6.357-4.958-7.748
			l-108.083-49.877L264.533,91.813V42.892l69.248,131.575c0.802,1.527,2.048,2.773,3.576,3.576l147.789,77.781L337.357,333.605z
			 M187.051,289.428l-72.823-33.613l72.823-33.613c-4.975,10.18-7.851,21.555-7.851,33.621
			C179.2,267.89,182.076,279.265,187.051,289.428z M324.949,222.211l72.823,33.613l-72.823,33.613
			c4.975-10.172,7.851-21.547,7.851-33.613C332.8,243.758,329.924,232.383,324.949,222.211z"/>
	</g>
</g>
<g>
</g>
<g>
</g>
<g>
</g>
<g>
</g>
<g>
</g>
<g>
</g>
<g>
</g>
<g>
</g>
<g>
</g>
<g>
</g>
<g>
</g>
<g>
</g>
<g>
</g>
<g>
</g>
<g>
</g>
</svg>
