<?xml version="1.0" standalone="no"?>
<!DOCTYPE svg PUBLIC "-//W3C//DTD SVG 20010904//EN"
 "http://www.w3.org/TR/2001/REC-SVG-20010904/DTD/svg10.dtd">
<svg version="1.0" xmlns="http://www.w3.org/2000/svg"
 width="1280.000000pt" height="1280.000000pt" viewBox="0 0 1280.000000 1280.000000"
 preserveAspectRatio="xMidYMid meet">
<g transform="translate(0.000000,1280.000000) scale(0.100000,-0.100000)"
fill="#000000" stroke="none">
<path d="M6095 12794 c-27 -2 -115 -8 -195 -14 -1272 -93 -2512 -587 -3520
-1400 -445 -360 -858 -799 -1195 -1271 -903 -1266 -1313 -2828 -1149 -4379
139 -1317 672 -2538 1548 -3545 132 -151 433 -452 594 -593 937 -822 2090
-1354 3307 -1526 347 -49 523 -60 915 -60 392 0 570 11 910 60 2804 398 5025
2619 5424 5424 49 342 60 508 60 910 0 402 -11 570 -60 910 -197 1374 -826
2631 -1809 3614 -495 495 -1034 884 -1655 1195 -746 373 -1463 577 -2310 657
-145 14 -754 26 -865 18z m800 -274 c285 -24 696 -86 673 -102 -8 -6 -5 -7 9
-3 32 9 198 -25 181 -37 -9 -6 -5 -7 10 -3 28 8 244 -43 236 -56 -3 -5 2 -6
10 -3 21 8 137 -26 129 -39 -3 -6 -1 -7 6 -3 17 11 73 -3 65 -16 -4 -7 -2 -8
4 -4 16 10 63 -4 55 -17 -3 -6 -1 -7 5 -3 16 10 63 -4 55 -17 -3 -6 -1 -7 6
-3 18 11 63 -2 55 -16 -4 -7 -3 -8 4 -4 16 10 63 -4 55 -17 -3 -6 -1 -7 6 -3
16 10 112 -25 104 -37 -3 -6 -1 -7 6 -3 16 10 53 -3 45 -16 -4 -7 -2 -8 5 -4
16 10 53 -3 45 -16 -4 -7 -2 -8 5 -4 16 10 53 -3 45 -16 -4 -7 -2 -8 5 -4 16
10 53 -3 45 -16 -5 -7 -2 -8 5 -3 16 9 92 -25 84 -38 -3 -6 -1 -7 6 -3 16 10
53 -3 45 -16 -4 -6 -2 -8 4 -5 15 10 43 -3 35 -16 -4 -6 -1 -7 7 -2 16 10 131
-45 123 -58 -3 -6 -1 -7 5 -4 15 10 43 -3 35 -16 -3 -5 -1 -7 5 -4 15 10 43
-3 35 -16 -3 -5 -1 -7 5 -4 15 10 43 -3 35 -16 -3 -5 -1 -7 5 -4 15 10 43 -3
35 -16 -3 -6 -1 -7 5 -3 16 9 113 -44 105 -57 -3 -6 -1 -7 5 -3 16 10 74 -22
66 -36 -4 -7 -3 -8 4 -4 15 9 75 -22 67 -34 -4 -6 1 -7 11 -3 11 4 15 2 11 -4
-4 -6 1 -10 11 -9 9 0 16 -4 15 -11 -2 -8 4 -10 14 -6 10 4 14 2 10 -4 -4 -6
1 -10 11 -9 9 0 16 -4 15 -11 -2 -8 4 -10 14 -6 10 4 14 2 10 -4 -4 -6 1 -10
11 -9 9 0 16 -4 15 -10 -1 -7 5 -11 15 -10 9 0 16 -5 14 -12 -1 -8 2 -11 8 -7
12 8 52 -13 45 -24 -2 -5 3 -8 13 -7 9 0 16 -4 15 -10 -1 -7 5 -11 15 -10 9 0
16 -4 15 -10 -1 -7 5 -11 15 -10 9 0 16 -4 15 -10 -1 -7 5 -11 15 -10 9 0 16
-4 15 -10 -1 -7 5 -11 15 -10 9 0 16 -4 15 -11 -2 -7 3 -10 11 -7 7 3 19 -3
27 -12 12 -15 12 -17 0 -9 -9 5 -12 4 -7 -3 4 -6 13 -9 20 -6 8 3 17 0 22 -7
5 -8 3 -10 -7 -4 -8 5 -11 4 -6 -1 5 -5 16 -9 25 -9 9 0 16 -5 15 -11 -1 -7 5
-11 15 -10 9 0 17 -6 17 -14 0 -8 9 -15 20 -15 11 0 20 -7 20 -15 0 -8 9 -15
20 -15 11 0 19 -6 17 -13 -1 -8 1 -11 6 -8 11 7 37 -11 37 -26 0 -7 8 -12 16
-10 9 1 23 -5 30 -15 12 -15 12 -16 -1 -8 -9 5 -12 5 -7 -1 5 -5 9 -7 10 -5 1
2 12 -1 25 -8 12 -7 20 -17 16 -23 -4 -6 -3 -8 3 -5 6 4 22 -2 34 -13 13 -11
20 -19 15 -20 -5 0 -3 -6 4 -14 6 -8 17 -13 24 -10 7 3 21 -6 32 -18 19 -23
19 -23 -1 -8 -18 14 -19 14 -7 -2 8 -9 19 -15 26 -12 7 3 21 -4 31 -16 10 -11
15 -20 10 -20 -4 0 -2 -7 5 -15 7 -8 17 -12 22 -9 11 7 50 -25 43 -37 -6 -9
12 -22 34 -26 8 -1 42 -30 75 -65 43 -44 48 -51 16 -23 l-45 40 39 -42 c21
-23 44 -39 50 -37 15 6 270 -252 262 -264 -3 -5 9 -22 27 -38 l32 -29 -29 35
c-16 19 -4 9 28 -22 31 -32 54 -62 51 -68 -4 -6 -1 -9 7 -8 7 2 12 -3 10 -10
-1 -8 2 -11 7 -7 11 6 58 -52 53 -67 -1 -5 2 -7 7 -4 11 7 43 -33 36 -44 -3
-4 3 -14 13 -21 16 -13 16 -12 3 6 -14 19 -13 19 8 -1 12 -11 24 -29 25 -40 2
-10 8 -19 15 -19 17 0 42 -35 34 -48 -3 -6 -1 -7 4 -4 13 8 35 -16 31 -34 -2
-7 4 -13 12 -14 8 0 15 -9 15 -20 0 -11 6 -20 13 -20 15 0 33 -26 26 -37 -3
-5 0 -7 8 -6 7 2 13 -6 13 -17 0 -11 7 -20 15 -20 8 0 15 -9 15 -20 0 -11 7
-20 15 -20 8 0 14 -8 14 -17 -1 -10 3 -16 10 -15 6 1 11 -6 11 -15 0 -9 4 -20
9 -25 5 -5 6 -2 2 7 -4 8 -1 6 8 -4 8 -10 13 -23 10 -28 -3 -5 0 -7 8 -6 7 2
12 -5 12 -14 -1 -10 3 -16 8 -15 6 1 13 -4 16 -12 3 -9 0 -11 -9 -6 -8 5 -11
4 -6 -1 5 -5 14 -9 20 -9 7 0 11 -8 11 -17 -1 -10 3 -16 10 -15 6 1 10 -6 10
-15 -1 -10 3 -16 10 -15 6 1 10 -6 10 -15 -1 -10 3 -16 8 -15 6 1 13 -4 16
-12 3 -9 0 -11 -8 -6 -9 5 -11 4 -6 -4 4 -6 11 -9 16 -6 12 8 33 -33 24 -47
-4 -6 -3 -8 4 -4 13 8 56 -60 47 -74 -4 -6 -1 -9 7 -8 7 2 12 -5 12 -14 -1
-10 1 -16 5 -13 11 6 43 -54 35 -67 -4 -7 -3 -8 4 -4 14 8 36 -30 26 -46 -5
-7 -3 -8 6 -3 10 6 12 4 7 -9 -4 -10 -3 -15 3 -11 12 8 43 -52 34 -67 -5 -7
-3 -8 6 -3 10 6 12 4 7 -9 -5 -11 -3 -15 5 -10 8 5 9 2 5 -10 -4 -10 -3 -15 3
-11 12 8 63 -92 54 -107 -5 -7 -2 -8 6 -3 10 6 12 4 7 -9 -4 -9 -3 -15 2 -12
11 7 33 -43 25 -56 -4 -6 -2 -8 3 -5 13 8 26 -20 16 -35 -3 -6 -1 -8 4 -5 13
8 26 -20 16 -35 -3 -6 -1 -8 4 -5 14 9 37 -48 27 -64 -5 -8 -3 -9 6 -4 10 6
12 4 7 -9 -4 -10 -3 -15 3 -11 6 3 10 4 10 1 0 -2 3 -12 7 -22 5 -13 3 -15 -7
-9 -9 5 -11 4 -6 -4 4 -6 11 -9 16 -6 11 7 23 -32 14 -46 -4 -7 -3 -9 3 -6 13
8 47 -68 38 -84 -5 -7 -4 -10 3 -5 13 8 26 -29 16 -45 -4 -7 -3 -9 4 -5 13 8
26 -29 16 -45 -4 -7 -3 -9 4 -5 13 8 26 -29 16 -45 -4 -7 -3 -9 3 -6 13 8 67
-138 57 -154 -4 -7 -3 -9 3 -6 13 8 27 -39 17 -55 -4 -7 -3 -8 4 -4 14 8 27
-37 16 -55 -4 -7 -3 -9 3 -6 13 8 27 -39 17 -55 -4 -6 -3 -8 3 -5 13 8 27 -39
17 -55 -4 -6 -3 -8 4 -4 13 8 27 -48 16 -65 -4 -7 -3 -9 3 -6 14 9 46 -107 38
-136 -4 -15 -3 -18 3 -9 13 18 66 -198 57 -230 -4 -15 -3 -19 3 -10 15 22 92
-393 122 -658 101 -877 8 -1791 -266 -2625 -592 -1798 -2006 -3241 -3789
-3868 -543 -190 -1075 -299 -1665 -338 -197 -13 -750 -7 -920 11 -540 54 -988
150 -1453 309 -2054 703 -3601 2464 -4027 4581 -93 464 -114 691 -115 1230 0
455 6 545 56 895 180 1266 778 2470 1683 3394 624 636 1326 1103 2142 1424
609 240 1230 376 1899 417 172 10 674 4 850 -10z"/>
<path d="M6753 12513 c9 -2 25 -2 35 0 9 3 1 5 -18 5 -19 0 -27 -2 -17 -5z"/>
<path d="M6868 12503 c6 -2 18 -2 25 0 6 3 1 5 -13 5 -14 0 -19 -2 -12 -5z"/>
<path d="M7018 12493 c7 -3 16 -2 19 1 4 3 -2 6 -13 5 -11 0 -14 -3 -6 -6z"/>
<path d="M7088 12483 c7 -3 16 -2 19 1 4 3 -2 6 -13 5 -11 0 -14 -3 -6 -6z"/>
<path d="M7188 12473 c7 -3 16 -2 19 1 4 3 -2 6 -13 5 -11 0 -14 -3 -6 -6z"/>
<path d="M6373 12350 c-19 -8 -84 -194 -464 -1340 -243 -732 -445 -1328 -449
-1323 -4 4 -285 503 -625 1108 -339 605 -624 1108 -632 1118 -22 24 -56 21
-83 -7 l-23 -25 67 -235 c226 -797 644 -2291 641 -2294 -1 -2 -580 286 -1286
638 -1124 562 -1285 640 -1305 631 -56 -25 -74 14 590 -1310 344 -687 626
-1251 626 -1254 0 -3 -37 5 -82 17 -234 65 -1627 456 -2058 578 -157 44 -295
80 -307 80 -13 0 -30 -5 -38 -12 -16 -13 -20 -57 -7 -76 4 -6 507 -291 1117
-634 611 -343 1118 -629 1128 -635 10 -7 15 -15 10 -18 -4 -2 -613 -206 -1353
-452 -740 -246 -1355 -454 -1367 -461 -29 -18 -31 -67 -4 -86 10 -7 629 -215
1375 -463 745 -247 1356 -452 1356 -455 0 -3 -512 -282 -1136 -620 -810 -438
-1139 -621 -1147 -637 -14 -31 14 -73 49 -73 14 0 459 129 988 286 528 157
1020 303 1091 324 72 21 197 59 280 84 82 24 151 43 153 41 2 -2 -290 -588
-649 -1302 -700 -1394 -676 -1339 -613 -1363 21 -9 188 72 1334 645 l1309 654
-16 -52 c-8 -29 -59 -200 -113 -382 -490 -1645 -610 -2054 -610 -2078 0 -36
41 -64 74 -49 16 7 189 317 631 1134 334 617 610 1127 613 1133 3 5 209 -602
458 -1349 249 -746 458 -1364 465 -1372 16 -19 63 -18 80 4 8 9 217 626 464
1370 248 743 452 1352 455 1352 3 0 291 -509 640 -1131 349 -622 643 -1135
653 -1140 24 -13 54 -3 72 25 14 21 -9 110 -325 1237 -188 668 -343 1222 -346
1232 -4 12 391 -180 1256 -613 1199 -599 1262 -630 1288 -618 17 9 28 22 30
39 2 19 -183 399 -637 1308 -353 705 -638 1281 -635 1281 6 0 1800 -503 2248
-631 153 -43 282 -79 285 -79 4 0 17 9 29 20 32 30 28 64 -10 93 -18 13 -525
300 -1126 637 -601 337 -1089 616 -1085 621 4 4 600 203 1324 443 1194 395
1317 438 1327 461 9 19 9 31 0 50 -10 22 -148 70 -1390 484 -758 253 -1375
461 -1371 464 19 11 525 285 1276 691 444 240 813 434 819 430 6 -4 8 -3 5 3
-8 13 20 26 35 16 7 -4 8 -1 3 7 -6 10 -4 12 9 7 10 -4 15 -3 11 3 -7 12 32
33 47 24 7 -5 8 -3 3 6 -6 10 -4 12 9 7 11 -5 15 -3 10 5 -5 8 -2 9 10 5 11
-5 15 -3 10 5 -5 8 -2 9 9 5 9 -3 16 -2 14 2 -1 5 14 20 33 33 62 42 48 111
-25 120 -18 2 -32 1 -30 -3 6 -9 -245 -81 -262 -75 -8 3 -12 2 -9 -2 3 -5
-135 -50 -307 -101 -172 -52 -406 -122 -522 -156 -274 -82 -689 -206 -1045
-311 -157 -47 -297 -89 -313 -94 -25 -8 16 77 454 951 264 527 485 957 490
954 5 -4 6 2 2 11 -4 12 -3 15 5 10 8 -5 10 -1 5 10 -4 12 -3 15 5 10 8 -5 10
-1 5 10 -4 12 -3 15 5 10 8 -5 10 -1 5 10 -4 12 -3 15 5 10 8 -5 10 -1 5 10
-4 12 -3 15 5 10 8 -5 10 -1 5 10 -4 12 -3 15 5 10 8 -5 10 -1 5 10 -4 12 -3
15 5 10 8 -5 10 -1 5 10 -4 12 -3 15 5 10 8 -5 10 -1 5 10 -4 12 -3 15 5 10 8
-5 10 -1 5 10 -4 12 -3 15 5 10 8 -5 10 -1 5 10 -4 12 -3 15 5 10 8 -5 10 -1
5 10 -4 12 -3 15 5 10 8 -5 10 -1 5 10 -4 12 -3 15 5 10 8 -5 10 -1 5 10 -4
12 -3 15 5 10 8 -5 10 -1 5 10 -4 12 -3 15 5 10 8 -5 10 -1 5 10 -4 12 -3 15
5 10 8 -5 10 -1 5 10 -4 12 -3 15 5 10 8 -5 10 -1 5 10 -4 12 -3 15 5 10 8 -5
10 -1 5 10 -4 12 -3 15 5 10 8 -5 10 -1 5 10 -4 12 -3 15 5 10 8 -5 10 -1 5
10 -4 12 -3 15 5 10 8 -5 10 -1 5 10 -4 12 -3 15 5 10 8 -5 10 -1 5 10 -4 12
-3 15 5 10 8 -5 10 -1 5 10 -4 12 -3 15 5 10 8 -5 10 -1 5 10 -4 12 -3 15 5
10 8 -5 10 -1 5 10 -4 12 -3 15 5 10 8 -5 10 -1 5 10 -4 12 -3 15 5 10 8 -5
10 -1 5 10 -4 12 -3 15 5 10 8 -5 10 -1 5 10 -4 12 -3 15 5 10 8 -5 10 -1 5
10 -4 12 -3 15 5 10 8 -5 10 -1 5 10 -4 12 -3 15 5 10 8 -4 10 -2 6 8 -3 8 0
25 7 38 6 13 8 20 4 16 -4 -4 -16 4 -27 17 -11 14 -28 25 -39 25 -10 0 -578
-280 -1262 -622 -683 -342 -1259 -630 -1279 -639 l-36 -17 8 26 c5 15 59 196
121 402 61 206 153 515 204 685 51 171 134 450 185 622 54 180 98 309 103 306
6 -4 7 -1 2 6 -10 17 45 202 58 194 6 -3 7 -1 3 6 -11 17 3 73 16 65 7 -4 8
-2 4 5 -11 17 3 73 16 65 7 -4 8 -2 4 4 -4 6 -2 31 5 54 16 59 28 120 21 113
-3 -3 -13 2 -23 11 -28 25 -70 14 -97 -26 -13 -19 -28 -34 -33 -33 -4 2 -5 -5
-2 -14 4 -11 3 -14 -5 -9 -8 5 -10 1 -5 -10 5 -13 3 -15 -7 -9 -9 5 -11 4 -6
-3 10 -16 -22 -74 -36 -66 -6 4 -8 3 -5 -4 10 -15 -3 -43 -16 -35 -6 3 -7 1
-3 -5 9 -15 -32 -95 -44 -87 -6 4 -7 -1 -3 -11 5 -13 3 -15 -7 -9 -8 5 -11 4
-7 -3 9 -13 -2 -44 -13 -37 -5 3 -12 0 -16 -6 -4 -8 -3 -9 4 -5 15 9 15 1 1
-25 -5 -11 -14 -17 -19 -14 -6 4 -7 -1 -3 -11 4 -12 3 -15 -5 -10 -8 5 -10 1
-5 -10 5 -13 3 -15 -7 -9 -9 5 -11 4 -6 -3 8 -13 -31 -95 -42 -88 -4 2 -8 -3
-8 -12 0 -13 -943 -1771 -959 -1790 -2 -2 -210 619 -463 1379 -254 760 -465
1385 -469 1389 -15 14 -48 19 -70 10z m4047 -7650 c8 -5 11 -10 5 -10 -5 0
-17 5 -25 10 -8 5 -10 10 -5 10 6 0 17 -5 25 -10z m158 -64 c67 -27 118 -54
115 -59 -3 -6 -1 -7 6 -3 9 6 175 -53 168 -60 -6 -6 -285 81 -281 87 2 4 -4 5
-13 3 -10 -3 -38 2 -63 10 -39 13 -41 15 -10 10 26 -4 31 -3 20 5 -13 10 -13
11 0 11 8 1 -7 12 -35 26 -72 35 -45 26 93 -30z m-203 24 c13 -5 14 -9 5 -9
-8 0 -24 4 -35 9 -13 5 -14 9 -5 9 8 0 24 -4 35 -9z m70 -20 c13 -5 14 -9 5
-9 -8 0 -24 4 -35 9 -13 5 -14 9 -5 9 8 0 24 -4 35 -9z m-2575 -1885 c0 -5 -5
-3 -10 5 -5 8 -10 20 -10 25 0 6 5 3 10 -5 5 -8 10 -19 10 -25z m20 -50 c0 -5
-5 -3 -10 5 -5 8 -10 20 -10 25 0 6 5 3 10 -5 5 -8 10 -19 10 -25z m160 -380
c78 -187 148 -356 156 -374 26 -61 6 -28 -132 219 -74 132 -131 246 -128 252
4 6 3 8 -3 5 -6 -4 -14 0 -17 9 -4 9 -2 13 5 8 7 -4 9 0 5 14 -4 11 -8 49 -10
84 -2 35 -11 80 -20 102 -17 41 -21 60 -7 36 5 -8 73 -168 151 -355z m-145
165 c9 -16 13 -30 11 -30 -3 0 -12 14 -21 30 -9 17 -13 30 -11 30 3 0 12 -13
21 -30z"/>
<path d="M8678 11943 c6 -2 18 -2 25 0 6 3 1 5 -13 5 -14 0 -19 -2 -12 -5z"/>
<path d="M8762 11870 c0 -14 2 -19 5 -12 2 6 2 18 0 25 -3 6 -5 1 -5 -13z"/>
<path d="M11858 8753 c6 -2 18 -2 25 0 6 3 1 5 -13 5 -14 0 -19 -2 -12 -5z"/>
<path d="M11941 8674 c0 -11 3 -14 6 -6 3 7 2 16 -1 19 -3 4 -6 -2 -5 -13z"/>
</g>
</svg>
