<?xml version="1.0" encoding="iso-8859-1"?>
<!-- Generator: Adobe Illustrator 19.0.0, SVG Export Plug-In . SVG Version: 6.00 Build 0)  -->
<svg version="1.1" id="Layer_1" xmlns="http://www.w3.org/2000/svg" xmlns:xlink="http://www.w3.org/1999/xlink" x="0px" y="0px"
	 viewBox="0 0 512 512" style="enable-background:new 0 0 512 512;" xml:space="preserve">
<g>
	<g>
		<path d="M503.467,247.467H469.12C464.725,136.619,375.381,47.275,264.533,42.88V8.533C264.533,3.823,260.719,0,256,0
			s-8.533,3.823-8.533,8.533V42.88C136.619,47.275,47.275,136.619,42.88,247.467H8.533C3.814,247.467,0,251.29,0,256
			s3.814,8.533,8.533,8.533H42.88c4.395,110.848,93.739,200.192,204.587,204.587v34.347c0,4.71,3.814,8.533,8.533,8.533
			s8.533-3.823,8.533-8.533V469.12c110.848-4.395,200.192-93.739,204.587-204.587h34.347c4.719,0,8.533-3.823,8.533-8.533
			S508.186,247.467,503.467,247.467z M230.4,61.457v17.391C146.475,90.931,81.323,161.246,77.235,247.467H59.947
			C64.068,151.782,137.003,73.685,230.4,61.457z M230.4,96.094v151.373H94.302C98.33,170.667,155.913,107.989,230.4,96.094z
			 M247.467,452.045c-101.444-4.361-183.151-86.067-187.52-187.512h17.28c4.369,91.989,78.251,165.871,170.24,170.232V452.045z
			 M247.467,417.698C164.89,413.372,98.628,347.11,94.302,264.533h153.165V417.698z M281.6,96.094
			c74.487,11.895,132.07,74.573,136.098,151.373H281.6V96.094z M264.533,264.533h153.165
			c-4.326,82.577-70.588,148.838-153.165,153.165V264.533z M264.533,452.053v-17.28c91.989-4.369,165.871-78.251,170.232-170.24
			h17.28C447.684,365.978,365.978,447.684,264.533,452.053z M434.773,247.467C430.677,161.246,365.525,90.931,281.6,78.848V61.457
			c93.397,12.228,166.332,90.325,170.453,186.01H434.773z"/>
	</g>
</g>
<g>
</g>
<g>
</g>
<g>
</g>
<g>
</g>
<g>
</g>
<g>
</g>
<g>
</g>
<g>
</g>
<g>
</g>
<g>
</g>
<g>
</g>
<g>
</g>
<g>
</g>
<g>
</g>
<g>
</g>
</svg>
