<?xml version="1.0" encoding="UTF-8" standalone="no"?>
<!-- Created with Inkscape (http://www.inkscape.org/) -->

<svg
   xmlns:dc="http://purl.org/dc/elements/1.1/"
   xmlns:cc="http://creativecommons.org/ns#"
   xmlns:rdf="http://www.w3.org/1999/02/22-rdf-syntax-ns#"
   xmlns:svg="http://www.w3.org/2000/svg"
   xmlns="http://www.w3.org/2000/svg"
   xmlns:sodipodi="http://sodipodi.sourceforge.net/DTD/sodipodi-0.dtd"
   xmlns:inkscape="http://www.inkscape.org/namespaces/inkscape"
   width="94.464188mm"
   height="97.652351mm"
   viewBox="0 0 94.464188 97.652352"
   version="1.1"
   id="svg845"
   inkscape:version="0.92.3 (2405546, 2018-03-11)"
   sodipodi:docname="esri_north_039_b.svg">
  <defs
     id="defs839" />
  <sodipodi:namedview
     id="base"
     pagecolor="#ffffff"
     bordercolor="#666666"
     borderopacity="1.0"
     inkscape:pageopacity="0.0"
     inkscape:pageshadow="2"
     inkscape:zoom="0.97458821"
     inkscape:cx="86.369768"
     inkscape:cy="194.73339"
     inkscape:document-units="mm"
     inkscape:current-layer="text1587"
     showgrid="false"
     inkscape:window-width="1366"
     inkscape:window-height="745"
     inkscape:window-x="0"
     inkscape:window-y="23"
     inkscape:window-maximized="1"
     fit-margin-top="0"
     fit-margin-left="0"
     fit-margin-right="0"
     fit-margin-bottom="0"
     showguides="true"
     inkscape:guide-bbox="true" />
  <metadata
     id="metadata842">
    <rdf:RDF>
      <cc:Work
         rdf:about="">
        <dc:format>image/svg+xml</dc:format>
        <dc:type
           rdf:resource="http://purl.org/dc/dcmitype/StillImage" />
        <dc:title></dc:title>
      </cc:Work>
    </rdf:RDF>
  </metadata>
  <g
     inkscape:label="Camada 1"
     inkscape:groupmode="layer"
     id="layer1"
     transform="translate(-0.38185358,-199.34625)">
    <g
       aria-label="2"
       style="font-style:normal;font-weight:normal;font-size:124.42774963px;line-height:1.25;font-family:sans-serif;letter-spacing:0px;word-spacing:0px;fill:#000000;fill-opacity:1;stroke:none;stroke-width:5.18448925"
       id="text1587">
      <g
         aria-label="ª"
         style="font-style:normal;font-weight:normal;font-size:118.08023071px;line-height:1.25;font-family:sans-serif;letter-spacing:0px;word-spacing:0px;fill:#000000;fill-opacity:1;stroke:none;stroke-width:25.50773621"
         id="text1792">
        <path
           d="m 87.525064,249.7665 -31.645502,-6.37633 -6.494413,-33.53478 -6.612493,33.53478 -31.645501,6.37633 31.645501,6.37634 q 1.653124,8.02945 3.188167,14.99619 1.653123,6.96673 3.424326,15.11427 0.826562,-4.13281 2.479685,-11.09955 1.653123,-7.08481 4.014728,-19.01091 z m -38.139915,18.5386 -4.250888,-14.64195 -15.940831,-3.89665 15.940831,-3.89664 4.250888,-18.06628 4.132808,18.06628 16.058912,3.89664 -16.058912,3.89665 z m 6.022092,-24.56069 -1.416963,1.53505 -4.605129,-19.95556 v -12.75267 z m -10.745301,10.50914 4.723209,16.41315 v 12.75267 L 43.244977,255.7886 Z m 0,-8.97409 -17.948195,4.48704 H 13.96108 l 29.283897,-6.02209 z m 27.394614,4.48704 h 12.634584 l -29.283897,6.0221 -1.416963,-1.53505 z M 8.76555,246.69642 H 7.8209081 l -1.2988825,5.19553 q 0,0 -0.4723209,-1.29888 Q 5.695464,249.1761 5.1050628,246.69642 H 3.9242605 l -1.4169628,5.19553 Q 1.9168966,250.00266 1.6807361,248.82186 1.4445757,247.52298 1.2084152,246.69642 H 0.38185358 l 1.65312322,6.49441 h 0.9446419 l 1.4169627,-5.66785 h 0.2361605 l 1.4169628,5.66785 h 0.9446418 z m 43.217364,-40.73768 v -6.61249 h -1.062722 v 4.95937 l -3.188166,-4.95937 h -0.944642 v 6.61249 h 0.944642 v -4.95937 l 3.306247,4.95937 z m 42.863124,47.23209 v -0.82656 H 90.83131 v -2.24353 h 3.424327 v -0.82656 H 90.83131 v -1.88928 h 3.778568 v -0.70848 h -4.84129 v 6.49441 z m -48.058654,41.56424 q 0,2.24353 2.597765,2.24353 1.062722,0 1.771204,-0.47232 0.708481,-0.47233 0.708481,-1.41697 0,-1.06272 -1.180802,-1.53504 -0.236161,-0.23616 -1.298883,-0.35424 -1.062722,-0.23616 -1.298882,-0.47232 -0.236161,-0.23616 -0.236161,-0.5904 0,-0.94465 1.535043,-0.94465 1.298883,0 1.535043,1.06273 h 0.826562 q -0.236161,-0.70848 -0.826562,-1.29889 -0.590401,-0.5904 -1.653123,-0.5904 -0.944642,0 -1.653123,0.5904 -0.590401,0.47233 -0.590401,1.18081 0,1.06272 0.944642,1.41696 0.23616,0.23616 1.180802,0.47232 0.944642,0.11808 1.180802,0.23616 0.354241,0.23616 0.472321,0.47232 0.236161,0.11808 0.236161,0.47232 0,0.94464 -1.653124,0.94464 -1.771203,0 -1.771203,-1.41696 z"
           style="font-style:normal;font-variant:normal;font-weight:normal;font-stretch:normal;font-family:'ESRI North';-inkscape-font-specification:'ESRI North, ';stroke-width:25.50773621"
           id="path4084" />
      </g>
    </g>
  </g>
</svg>
