<?xml version="1.0" encoding="UTF-8" standalone="no"?>
<!-- Created with Inkscape (http://www.inkscape.org/) -->

<svg
   xmlns:dc="http://purl.org/dc/elements/1.1/"
   xmlns:cc="http://creativecommons.org/ns#"
   xmlns:rdf="http://www.w3.org/1999/02/22-rdf-syntax-ns#"
   xmlns:svg="http://www.w3.org/2000/svg"
   xmlns="http://www.w3.org/2000/svg"
   xmlns:sodipodi="http://sodipodi.sourceforge.net/DTD/sodipodi-0.dtd"
   xmlns:inkscape="http://www.inkscape.org/namespaces/inkscape"
   width="110.736"
   height="109.44"
   id="svg2"
   version="1.1"
   inkscape:version="0.48.2 r9819"
   sodipodi:docname="esri_H.svg">
  <defs
     id="defs4" />
  <sodipodi:namedview
     id="base"
     pagecolor="#ffffff"
     bordercolor="#666666"
     borderopacity="1.0"
     inkscape:pageopacity="0.0"
     inkscape:pageshadow="2"
     inkscape:zoom="2.9981953"
     inkscape:cx="8.8301507"
     inkscape:cy="46.697507"
     inkscape:document-units="px"
     inkscape:current-layer="layer1"
     showgrid="false"
     fit-margin-top="0"
     fit-margin-left="0"
     fit-margin-right="0"
     fit-margin-bottom="0"
     inkscape:window-width="1366"
     inkscape:window-height="744"
     inkscape:window-x="0"
     inkscape:window-y="24"
     inkscape:window-maximized="1" />
  <metadata
     id="metadata7">
    <rdf:RDF>
      <cc:Work
         rdf:about="">
        <dc:format>image/svg+xml</dc:format>
        <dc:type
           rdf:resource="http://purl.org/dc/dcmitype/StillImage" />
        <dc:title></dc:title>
      </cc:Work>
    </rdf:RDF>
  </metadata>
  <g
     inkscape:label="Camada 1"
     inkscape:groupmode="layer"
     id="layer1"
     transform="translate(-229.96811,185.27964)">
    <g
       id="g4094">
      <g
         id="text4080"
         style="font-size:144px;font-style:normal;font-variant:normal;font-weight:normal;font-stretch:normal;line-height:125%;letter-spacing:0px;word-spacing:0px;fill:#000000;fill-opacity:1;stroke:none;font-family:Arial;-inkscape-font-specification:Arial"
         transform="translate(177.93681,-219.64105)">
        <path
           sodipodi:nodetypes="ccccsscsssccccccccccccccc"
           inkscape:connector-curvature="0"
           id="path4085"
           style="font-family:ESRI North;-inkscape-font-specification:ESRI North"
           d="m 162.7673,89.081407 c -1.1e-4,7.584047 -1.48811,14.688043 -4.464,21.312003 -2.8801,6.62402 -6.8161,12.43202 -11.808,17.424 -4.99209,4.89601 -10.89608,8.784 -17.712,11.664 -6.72007,2.88 -13.87206,4.32 -21.456,4.32 -7.680048,0 -14.880041,-1.44 -21.6,-4.32 -6.720027,-2.88 -12.576022,-6.76799 -17.568,-11.664 -4.992012,-4.99198 -8.928008,-10.79998 -11.808,-17.424 -2.880002,-6.62396 -4.32,-13.727956 -4.32,-21.312003 0,-7.583938 1.439998,-14.687931 4.32,-21.312 2.879992,-6.623917 6.815988,-12.383912 11.808,-17.28 4.991978,-4.991902 10.847973,-8.927898 17.568,-11.808 6.719959,-2.879892 13.919952,-4.319891 21.6,-4.32 7.58394,1.09e-4 14.73593,1.440108 21.456,4.32 6.81592,2.880102 12.71991,6.816098 17.712,11.808 4.9919,4.896088 8.9279,10.656083 11.808,17.28 2.97589,6.624069 4.46389,13.728062 4.464,21.312 m -55.728,-45.936 -34.272,32.112 14.976,0 0,9.216 41.76,0 0,-9.216 11.664,0 -34.128,-32.112" />
      </g>
      <g
         id="text4087"
         style="font-size:414.68737793px;font-style:normal;font-variant:normal;font-weight:normal;font-stretch:normal;line-height:125%;letter-spacing:0px;word-spacing:0px;fill:#ffffff;fill-opacity:1;stroke:none;font-family:Arial;-inkscape-font-specification:Arial"
         transform="matrix(1.2713992,0,0,0.76792878,7.9249606,-60)">
        <path
           inkscape:connector-curvature="0"
           id="path4092"
           style="font-size:57.59546661px;fill:#ffffff"
           d="m 203.12594,-44.514565 0,-41.228004 5.59643,0 21.65455,32.369327 0,-32.369327 5.23084,0 0,41.228004 -5.59644,0 -21.65454,-32.397449 0,32.397449 -5.23084,0" />
      </g>
    </g>
  </g>
</svg>
