<?xml version="1.0" encoding="iso-8859-1"?>
<!-- Generator: Adobe Illustrator 19.0.0, SVG Export Plug-In . SVG Version: 6.00 Build 0)  -->
<svg version="1.1" id="Layer_1" xmlns="http://www.w3.org/2000/svg" xmlns:xlink="http://www.w3.org/1999/xlink" x="0px" y="0px"
	 viewBox="0 0 512 512" style="enable-background:new 0 0 512 512;" xml:space="preserve">
<g>
	<g>
		<path d="M264.533,42.88V8.533C264.533,3.823,260.719,0,256,0s-8.533,3.823-8.533,8.533V42.88
			c-113.69,4.506-204.8,98.347-204.8,213.12s91.11,208.614,204.8,213.12v34.347c0,4.71,3.814,8.533,8.533,8.533
			s8.533-3.823,8.533-8.533V469.12c113.69-4.506,204.8-98.347,204.8-213.12S378.223,47.386,264.533,42.88z M247.467,452.045
			C143.189,447.565,59.733,361.361,59.733,256c0-1.638,0.085-3.26,0.128-4.89L247.467,79.13V452.045z M264.533,452.053V79.13
			l187.605,171.972c0.043,1.638,0.128,3.26,0.128,4.898C452.267,361.361,368.811,447.565,264.533,452.053z"/>
	</g>
</g>
<g>
</g>
<g>
</g>
<g>
</g>
<g>
</g>
<g>
</g>
<g>
</g>
<g>
</g>
<g>
</g>
<g>
</g>
<g>
</g>
<g>
</g>
<g>
</g>
<g>
</g>
<g>
</g>
<g>
</g>
</svg>
