<?xml version="1.0" encoding="UTF-8" standalone="no"?>
<!-- Created with Inkscape (http://www.inkscape.org/) -->

<svg
   xmlns:dc="http://purl.org/dc/elements/1.1/"
   xmlns:cc="http://creativecommons.org/ns#"
   xmlns:rdf="http://www.w3.org/1999/02/22-rdf-syntax-ns#"
   xmlns:svg="http://www.w3.org/2000/svg"
   xmlns="http://www.w3.org/2000/svg"
   xmlns:sodipodi="http://sodipodi.sourceforge.net/DTD/sodipodi-0.dtd"
   xmlns:inkscape="http://www.inkscape.org/namespaces/inkscape"
   width="96.817963mm"
   height="96.199715mm"
   viewBox="0 0 96.817963 96.199715"
   version="1.1"
   id="svg845"
   inkscape:version="0.92.3 (2405546, 2018-03-11)"
   sodipodi:docname="esri_north_008_b.svg">
  <defs
     id="defs839" />
  <sodipodi:namedview
     id="base"
     pagecolor="#ffffff"
     bordercolor="#666666"
     borderopacity="1.0"
     inkscape:pageopacity="0.0"
     inkscape:pageshadow="2"
     inkscape:zoom="0.97458821"
     inkscape:cx="179.89397"
     inkscape:cy="153.32184"
     inkscape:document-units="mm"
     inkscape:current-layer="text1587"
     showgrid="false"
     inkscape:window-width="1366"
     inkscape:window-height="745"
     inkscape:window-x="0"
     inkscape:window-y="23"
     inkscape:window-maximized="1"
     fit-margin-top="0"
     fit-margin-left="0"
     fit-margin-right="0"
     fit-margin-bottom="0"
     showguides="true"
     inkscape:guide-bbox="true" />
  <metadata
     id="metadata842">
    <rdf:RDF>
      <cc:Work
         rdf:about="">
        <dc:format>image/svg+xml</dc:format>
        <dc:type
           rdf:resource="http://purl.org/dc/dcmitype/StillImage" />
        <dc:title></dc:title>
      </cc:Work>
    </rdf:RDF>
  </metadata>
  <g
     inkscape:label="Camada 1"
     inkscape:groupmode="layer"
     id="layer1"
     transform="translate(-0.51983075,-200.20415)">
    <g
       aria-label="2"
       style="font-style:normal;font-weight:normal;font-size:124.42774963px;line-height:1.25;font-family:sans-serif;letter-spacing:0px;word-spacing:0px;fill:#000000;fill-opacity:1;stroke:none;stroke-width:5.18448925"
       id="text1587">
      <g
         aria-label="8"
         style="font-style:normal;font-weight:normal;font-size:121.22297668px;line-height:1.25;font-family:sans-serif;letter-spacing:0px;word-spacing:0px;fill:#000000;fill-opacity:1;stroke:none;stroke-width:26.18663406"
         id="text1792"
         transform="matrix(1.0200213,0,0,1.0200213,-0.0104077,-5.9343962)">
        <path
           d="m 84.891023,249.12691 -10.182731,1.69712 q -0.242445,4.36403 -2.06079,8.24316 -1.818345,3.87914 -4.727696,6.90971 -2.909352,2.90935 -6.788487,4.7277 -3.879135,1.69712 -8.243162,1.93957 l -1.21223,9.81906 -1.575899,-9.81906 q -4.48525,-0.24245 -8.485608,-2.06079 -3.879135,-1.81835 -6.788487,-4.7277 -2.909351,-3.03057 -4.727696,-6.90971 -1.697122,-3.87914 -1.939568,-8.36439 l -9.940284,-1.45467 9.940284,-1.33345 q 0.242446,-4.36403 1.939568,-8.24317 1.818345,-3.87913 4.727696,-6.78848 3.030575,-2.90935 6.90971,-4.60648 3.879135,-1.81834 8.364385,-2.06079 l 1.575899,-10.0615 1.333453,9.94028 q 4.364027,0.24245 8.121939,2.06079 3.879135,1.81835 6.788487,4.7277 2.909351,2.90935 4.727696,6.78848 1.818345,3.87914 2.06079,8.24317 z m -32.608981,9.21294 q 2.666905,-0.12122 4.970142,-2.06079 l 1.333453,-1.45467 q 1.818344,-1.69712 2.06079,-4.84892 0,-2.06079 -0.727338,-4.00036 -0.606115,-1.93957 -2.303236,-3.51546 -0.969784,-0.60612 -2.182014,-1.33346 -1.091007,-0.72734 -2.788128,-0.84856 h -1.454676 q -3.151797,0.36367 -5.333811,2.18202 l -1.21223,1.33345 q -1.697121,2.06079 -2.06079,4.48525 v 1.45467 q 0.242446,3.27302 2.06079,5.09137 l 1.333453,1.45467 q 2.060791,1.69713 4.848919,2.06079 z m -9.091723,-9.09172 q 0,-3.51546 2.424459,-5.93992 2.42446,-2.54569 6.061149,-2.54569 3.515466,0 5.939926,2.54569 2.424459,2.42446 2.424459,5.93992 0,3.75791 -2.424459,6.18237 -2.42446,2.42446 -5.939926,2.42446 -3.636689,0 -6.061149,-2.42446 -2.424459,-2.42446 -2.424459,-6.18237 z m 0.484891,-18.91078 q -7.637047,3.75791 -11.03129,10.91007 l 9.819061,4.00035 0.242446,-0.60611 -5.212588,-9.69784 10.18273,5.09137 0.242446,-0.12123 z m -1.212229,23.39603 -0.242446,-0.36367 -9.697838,3.87914 q 3.394243,7.3946 10.667622,10.91007 l 4.364027,-9.4554 -0.484892,-0.24244 -9.576615,5.21259 z m 27.881284,-12.24352 q -3.030574,-7.15215 -10.18273,-10.66762 l -4.48525,9.33417 0.484892,0.24244 9.576615,-5.45503 -5.091365,10.06151 q 0.121223,0.36367 0.484892,0.72734 z M 55.555062,258.5823 q -0.121223,0.12122 -0.484892,0.12122 l 4.606473,9.4554 q 7.030933,-3.39425 10.425176,-10.42518 l -9.334169,-4.12158 -0.242446,0.36367 5.212588,9.69784 z m 5.091365,26.79028 q 0,1.09101 -1.454676,2.30324 -1.454675,1.21223 -3.636689,1.93956 -2.788128,6.78849 -8.121939,6.78849 -1.939568,0 -3.151798,-0.84856 -1.212229,-0.96979 -1.212229,-2.54568 0,-1.5759 1.212229,-2.66691 1.333453,-1.21223 3.273021,-1.21223 1.454675,0 2.303236,0.72734 0.969784,0.72734 0.969784,1.81834 0,1.21223 -0.969784,2.06079 -0.969784,0.72734 -2.424459,0.72734 -0.848561,0 -1.575899,-0.12122 -0.606115,-0.24245 -0.606115,-0.48489 v -0.12123 q 0,0 0.727338,0.24245 0.727338,0.24245 1.333453,0.24245 1.333453,0 2.303236,-0.60612 0.969784,-0.72734 0.969784,-1.93957 0,-0.84856 -0.848561,-1.45467 -0.727338,-0.60612 -1.939567,-0.60612 -1.697122,0 -3.030575,1.09101 -1.21223,1.09101 -1.21223,2.66691 0,1.21222 0.969784,2.06079 1.091007,0.72733 2.909352,0.72733 2.182013,0 3.757912,-1.45467 1.575899,-1.45468 2.909351,-4.84892 h -0.84856 q -1.818345,0 -2.909352,-0.84856 -1.091007,-0.84856 -1.091007,-2.18202 0,-1.21223 0.969784,-2.06079 1.091007,-0.84856 2.666906,-0.84856 2.545682,0 4.121581,1.93957 1.575899,-1.45468 2.666905,-1.45468 0.969784,0 0.969784,0.96979 z m 28.123731,-28.97229 q -0.363669,0 -0.484892,-1.5759 h -0.121223 q -2.666906,0 -2.666906,-2.42446 0,-1.45468 1.21223,-2.66691 1.21223,-1.21223 3.394244,-1.69712 -0.242446,-0.12122 -0.484892,-0.24244 -0.121223,-0.24245 -0.242446,-0.36367 h -1.091007 q -3.151798,0 -3.151798,-2.30324 0,-1.21223 0.848561,-1.93957 0.969784,-0.84856 2.42446,-0.84856 1.818345,0 3.030574,1.21223 1.575899,-0.84856 2.788129,-0.84856 1.21223,0 1.21223,0.84856 0,0.84856 -1.575899,1.93957 -1.575899,1.09101 -3.757912,1.81834 0.121223,0.4849 1.091006,0.4849 h 0.484892 q 0.484892,0 0.484892,0.24244 0,0.24245 -0.484892,0.24245 -0.242446,0 -0.606115,0 -0.363669,-0.12123 -0.484892,-0.12123 -0.363668,0 -1.091006,0.36367 -0.606115,0.24245 -1.21223,0.72734 -1.697122,1.33345 -1.697122,3.39425 0,1.93956 1.697122,1.93956 v -0.48489 q 0,-2.06079 0.848561,-3.39424 0.969784,-1.45468 2.303236,-1.45468 1.454676,0 1.454676,1.45468 0,1.5759 -1.21223,2.78813 -1.21223,1.21223 -3.030574,1.33345 0,0.48489 0.121223,0.96978 0.121223,0.48489 0.121223,0.48489 0,0.12123 -0.121223,0.12123 z m -32.97265,-7.15216 q 0,-1.69712 -1.21223,-2.78813 -1.212229,-1.21223 -2.909351,-1.21223 -1.697122,0 -3.030574,1.21223 -1.21223,1.09101 -1.21223,2.78813 0,1.69712 1.21223,3.03058 1.333452,1.33345 3.030574,1.33345 1.697122,0 2.909351,-1.33345 1.21223,-1.33346 1.21223,-3.03058 z m -33.82121,-5.69748 q 0,0.60612 -0.727338,0.60612 -0.121223,0 -0.484892,-0.12123 -0.242446,-0.12122 -0.242446,-0.12122 -0.848561,0 -3.515466,3.39424 -0.848561,0.96979 -1.575899,1.93957 -0.606115,0.84856 -1.091007,1.45468 -1.818345,1.93957 -3.394243,3.39424 -1.5758989,1.33345 -1.8183449,1.33345 -0.121223,0 -0.121223,-0.24244 0,-0.12123 0.363669,-0.72734 0.4848919,-0.72734 0.8485609,-1.33345 0.242446,-0.72734 1.21223,-3.1518 0.969783,-2.42446 1.939567,-4.2428 -0.363669,0.36366 -1.212229,1.33345 -0.727338,0.96978 -1.575899,2.06079 -0.848561,1.09101 -1.6971218,2.18201 -0.8485609,0.96979 -1.3334528,1.45468 -1.0910068,1.21223 -1.9395676,1.93957 -0.8485609,0.60611 -0.9697838,0.60611 -0.121223,0 -0.121223,-0.12122 l 1.2122298,-2.18202 q 0.3636689,-0.48489 0.7273378,-1.45467 0.363669,-0.96979 0.7273379,-2.06079 0.3636689,-1.09101 0.6061149,-2.06079 0.3636689,-0.96979 0.6061148,-1.5759 -0.9697838,0 -1.6971216,-0.96979 -0.363669,-0.36366 -0.7273379,-1.091 -0.3636689,-0.72734 -0.8485608,-0.72734 -1.5758987,0 -2.7881285,1.21223 -1.57589868,1.21223 -1.57589868,3.03057 0,1.45468 1.33345278,1.45468 1.9395676,0 3.1517974,-2.30324 0.1212229,-0.48489 0.2424459,-0.96978 0.242446,-0.60612 0.3636689,-0.60612 0,0 0,0.12123 0.121223,0.12122 0.121223,0.24244 0,1.69713 -1.0910068,3.03058 -0.9697838,1.21223 -2.4244595,1.21223 -1.93956764,0 -1.93956764,-2.06079 0,-1.69712 1.33345274,-3.03058 0.8485608,-0.72734 1.8183447,-1.21223 1.0910067,-0.48489 2.0607906,-0.48489 1.0910068,0 1.5758987,1.21223 0.4848919,1.09101 1.2122297,1.69712 1.5758988,-2.90935 3.0305748,-2.90935 0.84856,0 0.84856,0.84856 0,0.72734 -0.84856,1.45468 -0.848561,0.72734 -2.060791,0.84856 -0.6061148,2.30323 -1.5758987,4.36403 -0.8485608,2.06079 -2.1820135,4.12158 1.9395676,-1.81835 4.8489192,-5.57626 0.848561,-1.21223 1.333453,-1.69712 0.727337,-0.96979 1.575898,-1.81835 0.848561,-0.96978 0.969784,-1.091 0.242446,-0.24245 0.242446,-0.36367 0.121223,-0.12123 0.242446,-0.24245 0.484892,-0.72734 0.727338,-0.72734 0.242446,0 0.242446,0.36367 0,0.12123 -0.484892,0.60612 l -0.363669,0.48489 q -0.363669,0.24245 -0.606115,0.96978 -0.242446,0.72734 -0.606115,1.69713 v 0.12122 q -0.606115,1.93957 -1.575898,3.87913 -0.969784,1.81835 -2.3032371,3.51547 1.2122301,-0.96978 2.6669051,-2.42446 1.454676,-1.5759 3.63669,-4.12158 2.424459,-3.03058 3.394243,-4.00036 1.091007,-1.09101 1.575899,-1.09101 0.727338,0 0.727338,0.72734 z m 37.942791,-12.97086 q -1.575898,-0.60611 -3.27302,-0.96978 -1.575899,-0.48489 -3.27302,-0.60612 l 1.575898,10.78885 q 0,0.24245 0.363669,0.24245 z m -17.941,22.06259 -11.152514,-1.69713 q 0.363669,3.27302 1.697122,6.18238 l 9.576615,-4.00036 z m 7.75827,17.33488 -1.697121,-11.15251 -0.242446,-0.12123 -4.364027,9.57662 q 0.969783,0.60611 2.788128,1.09101 1.818345,0.36366 3.515466,0.60611 z m -17.213662,-28.4874 q -1.333453,3.27302 -1.697122,5.93993 l 11.273737,-1.45468 0.121223,-0.36367 z m 22.183804,17.45611 -1.454675,11.03129 q 1.575898,-0.24245 3.151797,-0.60611 1.575899,-0.36367 3.030574,-1.09101 l -4.48525,-9.45539 q 0,0.12122 -0.242446,0.12122 z m 17.09244,-7.63705 -10.667622,1.69712 -0.121223,0.24245 9.091723,4.12158 q 0.606115,-1.5759 0.969784,-3.03057 0.484892,-1.45468 0.727338,-3.03058 z m -7.75827,-48.48919 q 0,0.72734 -0.727338,0.72734 -0.363669,0 -0.606115,-0.36367 -0.121223,-0.36367 -0.363669,-0.36367 -0.606115,0 -1.818345,1.45468 -1.21223,1.45467 -2.666905,3.87913 -0.727338,1.09101 -1.333453,2.18202 -0.606115,1.091 -1.21223,2.06079 -0.484892,0.96978 -0.848561,1.5759 -0.363669,0.60611 -0.363669,0.60611 -0.121223,0 -0.121223,-0.12122 v -0.12123 q 0.363669,-0.84856 0.363669,-1.93956 l -0.242446,-3.75792 q 0,-0.96978 0.121223,-1.93956 0.121223,-1.09101 0.484892,-2.42446 -0.484892,0.84856 -1.575898,2.6669 -0.969784,1.69712 -1.575899,2.66691 -3.515466,4.97014 -7.758271,4.97014 -2.06079,0 -3.27302,-0.96978 -1.21223,-0.96979 -1.21223,-2.54569 0,-1.81834 1.333453,-3.03057 1.333453,-1.21223 3.394243,-1.21223 3.515467,0 3.515467,2.78813 0,1.21223 -1.091007,2.18201 -1.091007,0.84856 -2.666906,0.84856 -1.575898,0 -1.575898,-0.36367 0,-0.12122 0.121223,-0.12122 0,0 0.484892,0.12122 0.484892,0.12123 0.84856,0.12123 1.454676,0 2.42446,-0.72734 1.091007,-0.72734 1.091007,-1.81835 0,-2.30323 -2.909352,-2.30323 -1.939567,0 -3.27302,1.21223 -1.21223,1.091 -1.21223,2.6669 0,2.90935 4.121581,2.90935 4.848919,0 8.728055,-7.15215 1.818344,-3.1518 2.303236,-4.12158 0.606115,-0.96979 0.848561,-0.96979 l 0.121223,0.12123 q 0,0.24244 -0.121223,0.36367 -0.484892,0.84856 -0.484892,2.90935 l 0.121223,2.30323 q 0,1.5759 -0.242446,2.78813 -0.121223,1.21223 -0.363669,2.42446 5.576257,-10.91007 8.364386,-10.91007 0.848561,0 0.848561,0.72734 z m -14.304312,26.18416 q -1.697121,0.12123 -3.151797,0.4849 -1.333453,0.24244 -2.666906,0.72733 l 4.242805,9.57662 z m 22.062582,18.4259 q -0.242446,-3.03058 -1.333453,-5.69748 l -9.212946,4.2428 z m -15.031649,38.67013 q -1.454676,-1.93957 -3.879135,-1.93957 -1.333453,0 -2.303237,0.72734 -0.848561,0.72733 -0.848561,1.69712 0,1.21223 1.21223,2.06079 1.21223,0.72734 2.909352,0.72734 h 0.484891 q 0.484892,-0.84856 1.091007,-1.69712 0.606115,-0.84857 1.333453,-1.5759 z M 30.825575,249.49058 v 1.21223 l 11.031291,1.5759 q -0.242446,-1.21223 -0.242446,-1.45468 v -1.69712 H 30.825575 Z m 20.850352,-20.60791 h -1.575899 l -1.454675,10.78885 q 0.484891,-0.12123 1.212229,-0.24245 0.727338,-0.12122 1.818345,-0.24245 z m 0,41.09459 h 1.333453 l 1.454675,-11.03129 q -1.333452,0.36367 -2.182013,0.36367 h -0.606115 z m 20.244237,-20.85035 q 0,-1.09101 -0.121223,-1.33345 L 61.373765,246.46 l 0.363669,2.66691 z m 0.242446,-8.36439 q -1.575899,-3.75791 -4.606473,-6.78848 -2.909352,-3.1518 -6.546041,-4.97015 l -0.484892,1.09101 q 7.273379,3.75791 10.667622,11.15252 z M 43.311542,229.48879 42.82665,228.64023 q -4.000359,1.57589 -7.030933,4.60647 -3.030574,3.03057 -4.727696,7.15215 l 1.091007,0.4849 q 1.575898,-3.75792 4.364027,-6.66727 2.909351,-3.03057 6.788487,-4.72769 z m 27.517615,28.60862 q -3.757912,7.51582 -10.910068,10.66762 l 0.484892,0.96978 q 7.879494,-3.63668 11.516183,-11.15251 z m -28.487399,11.51618 0.606115,-0.96978 q -3.63669,-1.5759 -6.546041,-4.36403 -2.909352,-2.78813 -4.364027,-6.66726 l -1.091007,0.36367 q 1.697122,3.87913 4.606473,6.90971 2.909351,3.03057 6.788487,4.72769 z m 48.852859,-25.94172 q -0.606115,-0.48489 -1.333452,-0.72733 -0.606115,-0.36367 -1.454676,-0.36367 -1.21223,0 -2.060791,0.60611 -0.727338,0.60612 -0.727338,1.5759 0,0.84856 0.848561,1.45468 0.848561,0.60611 1.939568,0.60611 h 0.606115 v -0.48489 q 0,-1.33345 2.182013,-2.66691 z m -52.489549,-7.51582 4.121582,8.12194 1.939567,-2.42446 z m 53.944225,14.66798 q 0,-1.21223 -0.969784,-1.21223 -0.969784,0 -2.06079,1.45468 -0.969784,1.69712 -0.969784,3.15179 v 0.36367 h 0.121223 q 1.091007,0 2.06079,-0.72734 1.818345,-1.45467 1.818345,-3.03057 z m -40.73092,-6.30359 q 0.727338,0.12122 1.454676,0.48489 0.84856,0.24244 1.333452,0.72734 l 2.060791,-2.0608 q -1.21223,-0.96978 -2.42446,-1.33345 -1.091006,-0.48489 -2.424459,-0.60611 z m -0.484892,-2.78813 q -2.788128,0.12122 -4.970142,2.30323 l 1.939568,1.69713 q 0.84856,-0.60612 1.454675,-0.84857 0.606115,-0.24244 1.575899,-0.36366 z m 7.637048,7.27338 q -0.121223,-1.45468 -0.606115,-2.54569 -0.363669,-1.21223 -1.333453,-2.42446 l -2.060791,1.93957 q 1.333453,1.33345 1.333453,3.03058 z m 5.576256,-12.84964 -8.121939,4.48525 q 0.363669,0.24245 1.091007,0.60612 0.727338,0.36366 1.333453,0.96978 z m -5.576256,13.45575 h -2.666906 q -0.121223,0.96978 -0.363669,1.69712 -0.121223,0.60612 -0.727338,1.21223 l 1.697122,1.81835 q 1.818345,-1.81835 2.060791,-4.7277 z m -14.910427,0 q 0.242446,2.78813 2.182014,4.97014 l 1.697122,-1.93956 q -0.606115,-0.60612 -0.969784,-1.45468 -0.242446,-0.84856 -0.242446,-1.5759 z m 7.758271,7.15216 q 1.454676,0 2.424459,-0.4849 1.091007,-0.60611 2.303237,-1.57589 l -1.697122,-1.81835 q -0.606115,0.48489 -1.212229,0.84856 -0.484892,0.24245 -1.818345,0.48489 z m -0.484892,-2.54569 q -1.818345,0 -3.030574,-1.21223 l -1.697122,1.81835 q 0.969784,0.84856 2.06079,1.45467 1.21223,0.4849 2.666906,0.4849 z m -4.606473,-5.21258 q 0,-1.81835 1.21223,-3.03058 l -1.818345,-1.69712 q -0.848561,1.09101 -1.454676,2.30324 -0.484892,1.091 -0.606115,2.42446 z m -8.12194,13.45575 8.12194,-4.24281 q -0.727338,-0.24244 -1.333453,-0.72734 -0.606115,-0.60611 -0.848561,-0.84856 z m 25.820494,-0.12123 -4.242804,-7.87949 q -0.969784,0.96978 -1.091007,1.21223 l -0.363668,0.72734 z m 30.669414,-18.78956 q 0,-0.60611 -0.848561,-0.60611 -0.363669,0 -1.091007,0.36367 -0.606115,0.24244 -1.21223,0.60611 0.727338,0.72734 0.727338,0.96978 h -0.121223 q -0.121223,0 -0.363669,-0.24244 -0.242446,-0.36367 -0.484892,-0.60612 -1.697121,0.96979 -1.697121,2.66691 v 0.12122 q 2.06079,-0.36367 3.515466,-1.33345 1.575899,-1.09101 1.575899,-1.93957 z m -21.335244,7.3946 -1.333453,0.24245 q -0.121223,1.69712 -0.606115,3.39424 -0.363669,1.5759 -0.969784,3.27302 l 0.969784,0.48489 q 0.848561,-1.81834 1.333453,-3.63668 0.484892,-1.81835 0.606115,-3.75792 z m -15.88021,36.3669 h -0.121223 q -0.484892,0 -0.606115,-0.84856 l -0.121223,0.24244 q -0.363669,0.60612 -0.727338,1.09101 -0.363669,0.48489 -0.727338,1.45467 1.939568,-0.48489 3.273021,-1.69712 1.454675,-1.21223 1.454675,-2.18201 0,-0.72734 -0.727338,-0.72734 -0.84856,0 -2.303236,1.69712 0.606115,0.60612 0.606115,0.96979 z m -4.848919,-60.1266 0.121223,1.09101 q 1.818344,0.12122 3.515466,0.60611 1.818345,0.48489 3.515466,1.09101 l 0.484892,-1.09101 q -1.818344,-0.60611 -3.757912,-1.09101 -1.939568,-0.48489 -3.879135,-0.60611 z m -3.394244,43.2766 q -3.27302,-0.36367 -6.54604,-1.69712 l -0.484892,0.96978 q 3.151797,1.5759 7.273378,1.93957 z m 3.515467,0 -0.242446,1.21223 q 1.939567,-0.12122 3.636689,-0.60611 1.697122,-0.48489 3.394243,-1.21223 l -0.363669,-0.96979 q -1.454675,0.60612 -3.151797,1.09101 -1.575899,0.36367 -3.27302,0.48489 z m 20.607906,-22.78992 q -0.121223,-1.69712 -0.606115,-3.27302 -0.363669,-1.69712 -0.969784,-3.39424 l -0.969784,0.48489 q 0.484892,1.45468 0.727338,3.03058 0.363669,1.57589 0.484892,3.03057 z m -41.94315,9.57662 q -0.969784,-2.06079 -1.21223,-3.1518 -0.121223,-1.09101 -0.363669,-2.6669 v -0.4849 l -1.21223,-0.24244 q 0.121223,1.81834 0.606115,3.51546 0.484892,1.69713 1.091007,3.51547 z m -2.788129,-9.57662 1.21223,-0.12122 q 0.363669,-3.75791 1.575899,-6.30359 l -0.969784,-0.4849 q -1.454676,3.51547 -1.818345,6.90971 z m 20.850352,-20.48668 q -1.697121,0.12122 -3.394243,0.48489 -1.697122,0.24245 -3.394243,0.84856 l 0.363668,0.84856 q 1.454676,-0.48489 3.030575,-0.72733 1.575899,-0.36367 3.27302,-0.4849 z m -30.063298,21.94136 8.243162,1.21223 v -1.21223 z m 31.76042,-31.51798 -1.21223,8.36439 h 1.21223 z m 0,63.15718 0.969784,-8.12194 h -0.969784 z m 31.639197,-31.6392 -8.485609,-0.96979 v 0.96979 z m -71.157887,-5.57626 q 0,-0.60611 -0.484892,-0.60611 -1.333453,0 -2.182014,2.6669 1.091007,-0.12122 1.818345,-0.72734 0.848561,-0.72733 0.848561,-1.33345 z m 16.971216,6.90971 1.21223,0.24245 v -1.5759 h -1.21223 z m 44.852502,-1.33345 -0.121223,-1.09101 -1.333453,-0.12122 0.121223,1.21223 z m -22.305028,22.54747 h 1.091007 l 0.242446,-1.21223 h -1.333453 z m 0,-44.61005 q -1.091007,0 -1.333453,0.12122 l -0.121223,0.96978 h 1.454676 z"
           style="font-style:normal;font-variant:normal;font-weight:normal;font-stretch:normal;font-family:'ESRI North';-inkscape-font-specification:'ESRI North, ';stroke-width:26.18663406"
           id="path2186"
           inkscape:connector-curvature="0" />
      </g>
    </g>
  </g>
</svg>
