<?xml version="1.0" encoding="UTF-8" standalone="no"?>
<!-- Created with Inkscape (http://www.inkscape.org/) -->

<svg
   xmlns:dc="http://purl.org/dc/elements/1.1/"
   xmlns:cc="http://creativecommons.org/ns#"
   xmlns:rdf="http://www.w3.org/1999/02/22-rdf-syntax-ns#"
   xmlns:svg="http://www.w3.org/2000/svg"
   xmlns="http://www.w3.org/2000/svg"
   xmlns:sodipodi="http://sodipodi.sourceforge.net/DTD/sodipodi-0.dtd"
   xmlns:inkscape="http://www.inkscape.org/namespaces/inkscape"
   width="56.876209mm"
   height="97.575439mm"
   viewBox="0 0 56.876209 97.57544"
   version="1.1"
   id="svg845"
   inkscape:version="0.92.3 (2405546, 2018-03-11)"
   sodipodi:docname="esri_north_057_b.svg">
  <defs
     id="defs839" />
  <sodipodi:namedview
     id="base"
     pagecolor="#ffffff"
     bordercolor="#666666"
     borderopacity="1.0"
     inkscape:pageopacity="0.0"
     inkscape:pageshadow="2"
     inkscape:zoom="0.97458821"
     inkscape:cx="-84.149502"
     inkscape:cy="207.5365"
     inkscape:document-units="mm"
     inkscape:current-layer="text1587"
     showgrid="false"
     inkscape:window-width="1366"
     inkscape:window-height="745"
     inkscape:window-x="0"
     inkscape:window-y="23"
     inkscape:window-maximized="1"
     fit-margin-top="0"
     fit-margin-left="0"
     fit-margin-right="0"
     fit-margin-bottom="0"
     showguides="true"
     inkscape:guide-bbox="true" />
  <metadata
     id="metadata842">
    <rdf:RDF>
      <cc:Work
         rdf:about="">
        <dc:format>image/svg+xml</dc:format>
        <dc:type
           rdf:resource="http://purl.org/dc/dcmitype/StillImage" />
        <dc:title></dc:title>
      </cc:Work>
    </rdf:RDF>
  </metadata>
  <g
     inkscape:label="Camada 1"
     inkscape:groupmode="layer"
     id="layer1"
     transform="translate(-10.698176,-199.42316)">
    <g
       aria-label="2"
       style="font-style:normal;font-weight:normal;font-size:124.42774963px;line-height:1.25;font-family:sans-serif;letter-spacing:0px;word-spacing:0px;fill:#000000;fill-opacity:1;stroke:none;stroke-width:5.18448925"
       id="text1587">
      <g
         aria-label="E"
         style="font-style:normal;font-weight:normal;font-size:128.38873291px;line-height:1.25;font-family:sans-serif;letter-spacing:0px;word-spacing:0px;fill:#000000;fill-opacity:1;stroke:none;stroke-width:27.73458481"
         id="text1792">
        <path
           d="m 67.574385,218.42469 -28.502299,-19.00153 -28.37391,19.00153 3.980051,3.59489 20.798975,-11.29821 v 17.97442 q -10.271099,1.41228 -16.818924,7.70332 -6.291048,6.16266 -6.291048,15.40665 0,8.85882 6.03427,15.14987 6.034271,6.16266 16.947313,8.08849 v 21.95448 h 7.446547 v -21.95448 q 10.913042,-2.05422 16.818924,-8.21688 6.03427,-6.16266 6.03427,-15.02148 0,-4.36521 -1.669053,-8.21688 -1.669054,-3.98005 -4.621995,-6.93299 -2.952941,-3.08133 -7.189769,-5.13555 -4.236828,-2.05422 -9.372377,-2.82455 v -17.97442 l 20.798974,11.29821 z m -7.960101,33.38107 q 0,7.57494 -6.034271,12.83888 -6.03427,5.26393 -14.507927,5.26393 -8.602045,0 -14.764704,-5.39232 -6.03427,-5.00716 -6.03427,-12.71049 0,-7.70332 6.03427,-12.71048 6.034271,-5.26394 14.764704,-5.26394 8.602045,0 14.636316,5.26394 5.905882,5.13555 5.905882,12.71048 z m -5.520716,-7.57493 v -2.56778 H 42.410193 v 2.56778 h 4.10844 v 13.48081 L 34.064926,241.66305 h -9.243989 v 2.56778 h 3.466496 v 16.04859 h -3.466496 v 2.56777 h 11.683375 v -2.56777 h -4.10844 v -13.99437 l 12.967262,16.56214 h 5.13555 v -18.61636 z"
           style="font-style:normal;font-variant:normal;font-weight:normal;font-stretch:normal;font-family:'ESRI North';-inkscape-font-specification:'ESRI North, ';stroke-width:27.73458481"
           id="path1183"
           inkscape:connector-curvature="0" />
      </g>
    </g>
  </g>
</svg>
