<?xml version="1.0" encoding="UTF-8" standalone="no"?>
<svg
   xmlns:dc="http://purl.org/dc/elements/1.1/"
   xmlns:cc="http://creativecommons.org/ns#"
   xmlns:rdf="http://www.w3.org/1999/02/22-rdf-syntax-ns#"
   xmlns:svg="http://www.w3.org/2000/svg"
   xmlns="http://www.w3.org/2000/svg"
   xmlns:sodipodi="http://sodipodi.sourceforge.net/DTD/sodipodi-0.dtd"
   xmlns:inkscape="http://www.inkscape.org/namespaces/inkscape"
   viewBox="0 0 841.60105 828.58666"
   height="828.58667"
   width="841.60101"
   xml:space="preserve"
   id="svg2"
   version="1.1"
   sodipodi:docname="Compass03.svg"
   inkscape:version="0.92.3 (2405546, 2018-03-11)"><sodipodi:namedview
     pagecolor="#ffffff"
     bordercolor="#666666"
     borderopacity="1"
     objecttolerance="10"
     gridtolerance="10"
     guidetolerance="10"
     inkscape:pageopacity="0"
     inkscape:pageshadow="2"
     inkscape:window-width="1366"
     inkscape:window-height="745"
     id="namedview789"
     showgrid="false"
     fit-margin-top="0"
     fit-margin-left="0"
     fit-margin-right="0"
     fit-margin-bottom="0"
     inkscape:zoom="0.22826634"
     inkscape:cx="312.06588"
     inkscape:cy="794.54903"
     inkscape:window-x="0"
     inkscape:window-y="23"
     inkscape:window-maximized="1"
     inkscape:current-layer="svg2" /><metadata
     id="metadata8"><rdf:RDF><cc:Work
         rdf:about=""><dc:format>image/svg+xml</dc:format><dc:type
           rdf:resource="http://purl.org/dc/dcmitype/StillImage" /><dc:title></dc:title></cc:Work></rdf:RDF></metadata><defs
     id="defs6" /><path
     id="path1374"
     style="fill:#ffffff;fill-opacity:1;fill-rule:nonzero;stroke:none;stroke-width:0.13333333"
     d="m 461.43305,29.064 c 0,16.018666 -12.98666,29.005336 -29.004,29.005336 -16.02,0 -29.00666,-12.98667 -29.00666,-29.005336 0,-16.018667 12.98666,-29.005333 29.00666,-29.005333 16.01734,0 29.004,12.986666 29.004,29.005333"
     inkscape:connector-curvature="0" /><path
     id="path1376"
     style="fill:#ffffff;fill-opacity:1;fill-rule:nonzero;stroke:none;stroke-width:0.13333333"
     d="m 455.96239,799.43465 c 0,12.99867 -10.536,23.53467 -23.53334,23.53467 -12.99866,0 -23.536,-10.536 -23.536,-23.53467 0,-12.99733 10.53734,-23.53333 23.536,-23.53333 12.99734,0 23.53334,10.536 23.53334,23.53333"
     inkscape:connector-curvature="0" /><path
     id="path1378"
     style="fill:#ffffff;fill-opacity:1;fill-rule:nonzero;stroke:none;stroke-width:0.13333333"
     d="m 840.25971,417.99466 c 0,13.21334 -10.712,23.92534 -23.92533,23.92534 -13.21334,0 -23.92534,-10.712 -23.92534,-23.92534 0,-13.21333 10.712,-23.924 23.92534,-23.924 13.21333,0 23.92533,10.71067 23.92533,23.924"
     inkscape:connector-curvature="0" /><path
     id="path1380"
     style="fill:#ffffff;fill-opacity:1;fill-rule:nonzero;stroke:none;stroke-width:0.13333333"
     d="m 62.59173,412.66133 c 0,13.008 -10.544,23.552 -23.552,23.552 -13.00693,0 -23.55173,-10.544 -23.55173,-23.552 0,-13.00667 10.5448,-23.552 23.55173,-23.552 13.008,0 23.552,10.54533 23.552,23.552"
     inkscape:connector-curvature="0" /><path
     id="path1382"
     style="fill:#4c4d53;fill-opacity:1;fill-rule:nonzero;stroke:none;stroke-width:0.13333333"
     d="m 737.82238,414.51066 v 1.12 l -0.6,0.0533 c 0,-0.18667 0,-0.37334 0,-0.56 l 0.56,-0.0533 -0.56,-0.04 c 0,-0.18666 0,-0.37333 0,-0.56 l 0.6,0.04"
     inkscape:connector-curvature="0" /><path
     id="path1384"
     style="fill:#4c4d53;fill-opacity:1;fill-rule:nonzero;stroke:none;stroke-width:0.13333333"
     d="m 737.78238,415.07066 -0.56,0.0533 c 0,-0.0133 0,-0.04 0,-0.0533 h 0.56"
     inkscape:connector-curvature="0" /><path
     id="path1386"
     style="fill:#414345;fill-opacity:1;fill-rule:nonzero;stroke:none;stroke-width:0.13333333"
     d="m 737.78238,415.07066 h -0.56 c 0,-0.0133 0,-0.0267 0,-0.04 l 0.56,0.04"
     inkscape:connector-curvature="0" /><path
     id="path1388"
     style="fill:#4c4d53;fill-opacity:1;fill-rule:nonzero;stroke:none;stroke-width:0.13333333"
     d="m 432.28905,720.61732 -0.04,0.58667 -1.10666,0.0267 -0.0533,-0.61334 c 0.18667,0 0.36,0 0.54667,0 l 0.0533,0.56134 0.04,-0.56134 c 0.18667,0 0.37334,0 0.56,0"
     inkscape:connector-curvature="0" /><path
     id="path1390"
     style="fill:#ffffff;fill-opacity:1;fill-rule:nonzero;stroke:none;stroke-width:0.13333333"
     d="m 431.51572,713.57732 0.65333,-9.02666 -0.6,9.61333 z"
     inkscape:connector-curvature="0" /><path
     id="path1392"
     style="fill:#4c4d53;fill-opacity:1;fill-rule:nonzero;stroke:none;stroke-width:0.13333333"
     d="m 431.72905,720.61732 -0.04,0.56134 -0.0533,-0.56134 c 0.0133,0 0.04,0 0.0533,0 0.0133,0 0.0267,0 0.04,0"
     inkscape:connector-curvature="0" /><path
     id="path1394"
     style="fill:#4c4d53;fill-opacity:1;fill-rule:nonzero;stroke:none;stroke-width:0.13333333"
     d="m 431.27572,716.88399 0.36,3.73333 c -0.18667,0 -0.36,0 -0.54667,0 l -0.0533,-0.492 0.24,-3.24133"
     inkscape:connector-curvature="0" /><path
     id="path1396"
     style="fill:#414345;fill-opacity:1;fill-rule:nonzero;stroke:none;stroke-width:0.13333333"
     d="m 431.00905,708.40532 0.50667,5.172 -0.24,3.30667 -0.26667,-2.66667 v -0.0387 -5.77334"
     inkscape:connector-curvature="0" /><path
     id="path1398"
     style="fill:#414345;fill-opacity:1;fill-rule:nonzero;stroke:none;stroke-width:0.13333333"
     d="m 431.00905,714.21732 0.26667,2.66667 -0.24,3.24133 -0.0267,-0.268 v -5.64"
     inkscape:connector-curvature="0" /><path
     id="path1400"
     style="fill:#414345;fill-opacity:1;fill-rule:nonzero;stroke:none;stroke-width:0.13333333"
     d="m 431.00905,719.85732 0.0267,0.268 -0.0267,0.35867 z"
     inkscape:connector-curvature="0" /><path
     id="path1402"
     style="fill:#4c4d53;fill-opacity:1;fill-rule:nonzero;stroke:none;stroke-width:0.13333333"
     d="m 126.14239,415.124 c 0,0.18666 0,0.38666 0,0.57333 l -0.61333,-0.0667 0.0133,-1.12 0.6,-0.04 c 0,0.18667 0,0.37334 0,0.56 l -0.56,0.04 0.56,0.0533"
     inkscape:connector-curvature="0" /><path
     id="path1404"
     style="fill:#414345;fill-opacity:1;fill-rule:nonzero;stroke:none;stroke-width:0.13333333"
     d="m 126.14239,415.07066 c 0,0.0133 0,0.04 0,0.0533 l -0.56,-0.0533 h 0.56"
     inkscape:connector-curvature="0" /><path
     id="path1406"
     style="fill:#4c4d53;fill-opacity:1;fill-rule:nonzero;stroke:none;stroke-width:0.13333333"
     d="m 126.14239,415.03066 c 0,0.0133 0,0.0267 0,0.04 h -0.56 l 0.56,-0.04"
     inkscape:connector-curvature="0" /><path
     id="path1408"
     style="fill:#414345;fill-opacity:1;fill-rule:nonzero;stroke:none;stroke-width:0.13333333"
     d="m 431.68905,108.964 -0.0533,0.56 -6,63.57334 -0.0933,1.10666 -1.21334,12.86667 -1.21333,12.85333 -0.10667,1.10667 -4.66666,49.42666 -4.48,47.57334 -0.44,4.57333 -0.58667,6.32 -0.10667,1.13333 -5.37866,57.024 c 7.156,-3.456 15.18133,-5.39333 23.65866,-5.39333 0.228,0 0.452,0.0133 0.68,0.016 v -53.3 -1.12 -6.12 -4.45333 -43.02667 -3.76 -3.70667 -45.35999 -1.10667 -12.81333 -12.81334 -1.10666 -56.84 -6.65334 -0.56"
     inkscape:connector-curvature="0" /><path
     id="path1410"
     style="fill:#414345;fill-opacity:1;fill-rule:nonzero;stroke:none;stroke-width:0.13333333"
     d="m 190.83573,421.77733 12.86666,1.32 12.86667,1.32 1.12,0.12 49.49333,5.09333 45.65333,4.68 4.56,0.48 6.33334,0.65334 1.13333,0.10666 55.29333,5.68 0.64,0.0667 0.66667,0.08 1.352,0.13867 c -3.944,-7.47734 -6.20134,-15.97867 -6.26,-25.00534 l -53.292,-0.30666 h -1.10667 l -6.13333,-0.04 -4.45333,-0.0267 -41.25334,-0.24 -3.77333,-0.0133 -3.69333,-0.0267 -45.37333,-0.25333 -1.10667,-0.0133 -12.81333,-0.0667 -12.81334,-0.08 h -1.10666 l -56.96,-0.33334 -6.53334,-0.04 c 0,0.0133 0,0.04 0,0.0533 l 63.58667,6.53333 1.10667,0.12"
     inkscape:connector-curvature="0" /><path
     id="path1412"
     style="fill:#27b8cc;fill-opacity:1;fill-rule:nonzero;stroke:none;stroke-width:0.13333333"
     d="m 189.63573,415.07066 c 0,0.12 0,0.25334 0,0.37334 h 1.10666 c 0,-0.12 0,-0.25334 0,-0.37334 0,-1.4 0.0133,-2.8 0.04,-4.2 l -1.10666,0.08 c -0.0267,1.37334 -0.04,2.74667 -0.04,4.12"
     inkscape:connector-curvature="0" /><path
     id="path1414"
     style="fill:#4c4d53;fill-opacity:1;fill-rule:nonzero;stroke:none;stroke-width:0.13333333"
     d="m 189.67573,410.95066 1.10666,-0.08 12.84,-0.93333 12.82667,-0.94667 1.12,-0.08 45.53333,-3.32 3.72,-0.26666 3.78667,-0.28 41.86666,-3.05334 4.53334,-0.33333 6.25333,-0.45333 1.13333,-0.08 54.98667,-4.01334 0.61066,-0.048 c 0.14534,-0.388 0.30134,-0.76933 0.45467,-1.15333 l -0.572,0.0413 -0.68,0.0533 -0.66667,0.0533 -53.97333,3.93333 -1.13333,0.08 -6.25333,0.45334 -4.54667,0.33333 -41.94667,3.06667 -3.78666,0.28 -3.72,0.26666 -45.57333,3.32 -1.10667,0.08 -12.84,0.94667 -12.84,0.93333 -1.12,0.08 -63.54667,4.64 c 0,0.18667 0,0.37334 0,0.56 0,0.0133 0,0.0267 0,0.04 l 6.53334,0.04 57,-4.16"
     inkscape:connector-curvature="0" /><path
     id="path1416"
     style="fill:#27b8cc;fill-opacity:1;fill-rule:nonzero;stroke:none;stroke-width:0.13333333"
     d="m 189.67573,410.95066 -57,4.16 56.96,0.33334 c 0,-0.12 0,-0.25334 0,-0.37334 0,-1.37333 0.0133,-2.74666 0.04,-4.12"
     inkscape:connector-curvature="0" /><path
     id="path1418"
     style="fill:#4c4d53;fill-opacity:1;fill-rule:nonzero;stroke:none;stroke-width:0.13333333"
     d="m 730.88905,415.13733 -57.21334,5.18667 -1.12,0.0933 -12.85333,1.17333 -12.84,1.16 -1.12,0.0933 -45.62666,4.13333 -0.14667,0.0133 -3.6,0.33334 -45.44,4.10666 -4.54667,0.41334 -6.26666,0.57333 -1.12,0.10667 -57.99333,5.248 c -0.16934,0.38933 -0.348,0.77466 -0.524,1.16 l 58.34399,-5.27467 1.13334,-0.10667 6.26666,-0.57333 4.56,-0.41333 45.50667,-4.12 49.41333,-4.46667 1.10667,-0.10667 c 0.0133,-0.18666 0.0267,-0.37333 0.0267,-0.56 l 12.85334,-1.17333 c 0,0.2 0,0.38667 -0.0133,0.57333 l 12.85334,-1.17333 1.12,-0.0933 63.57333,-5.76 c 0,-0.18667 0,-0.37334 0,-0.56 0,-0.0133 0,-0.04 0,-0.0533 l -6.68,0.04 0.34667,0.0267"
     inkscape:connector-curvature="0" /><path
     id="path1420"
     style="fill:#4c4d53;fill-opacity:1;fill-rule:nonzero;stroke:none;stroke-width:0.13333333"
     d="m 673.67571,409.91066 -1.10666,-0.08 -12.85334,-0.92 -12.84,-0.92 -1.10666,-0.08 -45.56,-3.26666 -3.73333,-0.26667 -3.78667,-0.28 -41.90667,-3 -4.54666,-0.33333 -6.24,-0.44 -1.13334,-0.08 -57.20266,-4.10934 c 0.076,0.19334 0.15467,0.38667 0.228,0.58 l 57.05466,4.08934 1.13334,0.08 6.24,0.45333 4.54666,0.32 41.86667,3 3.78667,0.28 3.72,0.26667 45.54666,3.26666 1.12,0.08 12.82667,0.92 12.84,0.92 1.12,0.08 63.53333,4.56 c 0,-0.18666 0,-0.37333 0,-0.56 l -63.54667,-4.56"
     inkscape:connector-curvature="0" /><path
     id="path1422"
     style="fill:#414345;fill-opacity:1;fill-rule:nonzero;stroke:none;stroke-width:0.13333333"
     d="m 672.56905,410.39066 -12.84,-0.92 -12.82667,-0.92 -1.12,-0.08 -45.54666,-3.26666 -3.72,-0.26667 -3.78667,-0.28 -41.86667,-3 -4.54666,-0.32 -6.24,-0.45333 -1.13334,-0.08 -57.05466,-4.08934 c 2.30933,6.03734 3.58533,12.58667 3.58533,19.436 0,0.12267 -0.008,0.244 -0.009,0.36667 l 54.652,-0.31333 h 1.10666 l 6.12,-0.04 4.46667,-0.0267 41.24,-0.24 3.77333,-0.0133 3.69334,-0.0267 45.37333,-0.25333 1.10666,-0.0133 12.81334,-0.0667 12.81333,-0.08 h 1.10667 l 56.81333,-0.33334 6.68,-0.04 c 0,-0.0133 0,-0.0267 0,-0.04 l -63.53333,-4.56 -1.12,-0.08"
     inkscape:connector-curvature="0" /><path
     id="path1424"
     style="fill:#6c7072;fill-opacity:1;fill-rule:nonzero;stroke:none;stroke-width:0.13333333"
     d="m 659.16905,432.124 -12.76,-1.04 -0.24,-0.0133 -0.26667,3.33334 0.22667,0.0133 12.77333,1.04 12.77333,1.04 0.10667,0.0133 0.26667,-3.33333 -0.10667,-0.0133 -12.77333,-1.04"
     inkscape:connector-curvature="0" /><path
     id="path1426"
     style="fill:#6c7072;fill-opacity:1;fill-rule:nonzero;stroke:none;stroke-width:0.13333333"
     d="m 653.32905,469.13733 -12.42667,-3.13333 -0.17333,-0.0387 -0.82667,3.23867 0.18667,0.0533 12.42666,3.12 12.42667,3.12 0.14667,0.04 0.81333,-3.23867 -0.13333,-0.0413 -12.44,-3.12"
     inkscape:connector-curvature="0" /><path
     id="path1428"
     style="fill:#6c7072;fill-opacity:1;fill-rule:nonzero;stroke:none;stroke-width:0.13333333"
     d="m 646.12905,395.724 -0.22667,0.0133 0.26667,3.32 0.24,-0.0133 12.76,-1.04 12.77333,-1.04 0.10667,-0.0133 -0.26667,-3.33333 -0.10667,0.0133 -12.77333,1.04 -12.77333,1.05334"
     inkscape:connector-curvature="0" /><path
     id="path1430"
     style="fill:#6c7072;fill-opacity:1;fill-rule:nonzero;stroke:none;stroke-width:0.13333333"
     d="m 640.08905,360.87067 -0.18667,0.0533 0.81333,3.24 0.18667,-0.04 12.42667,-3.13333 12.44,-3.12 0.13333,-0.04 -0.81333,-3.24 -0.14667,0.04 -12.42667,3.12 -12.42666,3.12"
     inkscape:connector-curvature="0" /><path
     id="path1432"
     style="fill:#6c7072;fill-opacity:1;fill-rule:nonzero;stroke:none;stroke-width:0.13333333"
     d="m 641.46238,504.67066 -11.73333,-5.13333 -0.18667,-0.0787 -1.34666,3.05333 0.2,0.0787 11.73333,5.148 11.73333,5.132 0.12,0.0533 1.34667,-3.06666 -0.13334,-0.0533 -11.73333,-5.13333"
     inkscape:connector-curvature="0" /><path
     id="path1434"
     style="fill:#6c7072;fill-opacity:1;fill-rule:nonzero;stroke:none;stroke-width:0.13333333"
     d="m 623.92905,537.77733 -10.73333,-7 -0.2,-0.12 -1.82667,2.80133 0.2,0.132 10.73333,6.97333 10.73333,7 0.0933,0.0533 1.82666,-2.8 -0.0933,-0.0533 -10.73333,-6.98666"
     inkscape:connector-curvature="0" /><path
     id="path1436"
     style="fill:#6c7072;fill-opacity:1;fill-rule:nonzero;stroke:none;stroke-width:0.13333333"
     d="m 628.19572,327.61733 1.34666,3.05334 0.18667,-0.08 11.73333,-5.13334 11.73333,-5.13333 0.13334,-0.0533 -1.34667,-3.06667 -0.12,0.0533 -11.73333,5.13334 -11.74667,5.14666 -0.18666,0.08"
     inkscape:connector-curvature="0" /><path
     id="path1438"
     style="fill:#6c7072;fill-opacity:1;fill-rule:nonzero;stroke:none;stroke-width:0.13333333"
     d="m 613.18238,299.35067 10.74667,-7 10.72,-6.98667 0.10666,-0.0667 -1.82666,-2.8 -0.10667,0.0667 -10.73333,6.98667 -10.73333,7 -0.18667,0.12 1.82667,2.8 0.18666,-0.12"
     inkscape:connector-curvature="0" /><path
     id="path1440"
     style="fill:#6c7072;fill-opacity:1;fill-rule:nonzero;stroke:none;stroke-width:0.13333333"
     d="m 601.20905,567.56399 -9.45333,-8.64 -0.13334,-0.12 -2.25333,2.46667 0.14667,0.13467 9.44,8.62533 9.45333,8.64 0.13333,0.12133 2.25334,-2.48133 -0.12,-0.12 -9.46667,-8.62667"
     inkscape:connector-curvature="0" /><path
     id="path1442"
     style="fill:#6c7072;fill-opacity:1;fill-rule:nonzero;stroke:none;stroke-width:0.13333333"
     d="m 591.74238,271.19067 9.45334,-8.62667 9.46666,-8.62667 0.12,-0.12 -2.25333,-2.48 -0.13333,0.12 -9.45334,8.64 -9.44,8.62667 -0.14666,0.13333 2.25333,2.46667 0.13333,-0.13333"
     inkscape:connector-curvature="0" /><path
     id="path1444"
     style="fill:#6c7072;fill-opacity:1;fill-rule:nonzero;stroke:none;stroke-width:0.13333333"
     d="m 573.95572,593.27066 -7.92,-10.05333 -0.14667,-0.18667 -2.62667,2.06667 0.14667,0.18666 7.92,10.05334 7.93333,10.068 0.0667,0.092 2.62667,-2.06667 -0.08,-0.0933 -7.92,-10.06667"
     inkscape:connector-curvature="0" /><path
     id="path1446"
     style="fill:#414345;fill-opacity:1;fill-rule:nonzero;stroke:none;stroke-width:0.13333333"
     d="m 544.87572,294.93733 -36.56,29.45334 -3.54667,2.85333 -4.88,3.93333 -0.88,0.70667 -43.948,35.4 c 6.06267,2.98933 11.48667,7.07066 16.01867,11.99066 l 37.56933,-38.75066 0.77333,-0.8 4.26667,-4.38667 3.10667,-3.21333 29.58666,-30.50667 2.6,-2.68 2.6,-2.69333 26.05334,-26.85333 3.74666,-3.86667 -36.50666,29.41333"
     inkscape:connector-curvature="0" /><path
     id="path1448"
     style="fill:#6c7072;fill-opacity:1;fill-rule:nonzero;stroke:none;stroke-width:0.13333333"
     d="m 566.02238,246.91067 7.93334,-10.05334 7.92,-10.05333 0.08,-0.0933 -2.62667,-2.06667 -0.08,0.0933 -7.92,10.05333 -7.93333,10.05333 -0.14667,0.18667 2.62667,2.06666 0.14666,-0.18666"
     inkscape:connector-curvature="0" /><path
     id="path1450"
     style="fill:#414345;fill-opacity:1;fill-rule:nonzero;stroke:none;stroke-width:0.13333333"
     d="m 546.23572,400.764 4.54666,0.33333 c -3.04,-23.18667 -12.72,-44.29333 -27.06666,-61.38666 l -2.81334,3.58666 c 13.29334,16.09334 22.32,35.82667 25.33334,57.46667"
     inkscape:connector-curvature="0" /><path
     id="path1452"
     style="fill:#414345;fill-opacity:1;fill-rule:nonzero;stroke:none;stroke-width:0.13333333"
     d="m 518.24905,493.47066 2.76,3.60134 c 15.84,-17.60134 26.54667,-39.89334 29.77333,-64.508 l -4.56,0.41333 c -3.21333,23.01333 -13.24,43.88 -27.97333,60.49333"
     inkscape:connector-curvature="0" /><path
     id="path1454"
     style="fill:#6c7072;fill-opacity:1;fill-rule:nonzero;stroke:none;stroke-width:0.13333333"
     d="m 542.88905,614.21733 -6.17333,-11.21334 -0.10667,-0.18666 -2.92,1.61333 0.0933,0.17333 6.18667,11.22667 6.17333,11.21333 0.08,0.13467 2.92,-1.61467 -0.0667,-0.13333 -6.18667,-11.21333"
     inkscape:connector-curvature="0" /><path
     id="path1456"
     style="fill:#414345;fill-opacity:1;fill-rule:nonzero;stroke:none;stroke-width:0.13333333"
     d="m 516.31572,349.124 c 11.62666,14.48 19.6,31.98666 22.54666,51.12 l 1.13334,0.08 c -2.96,-19.53334 -11.09334,-37.37333 -22.97334,-52.10667 l -0.70666,0.90667"
     inkscape:connector-curvature="0" /><path
     id="path1458"
     style="fill:#414345;fill-opacity:1;fill-rule:nonzero;stroke:none;stroke-width:0.13333333"
     d="m 514.44905,488.53733 c 13.22667,-15.23867 22.32,-34.16 25.50667,-54.98667 l -1.13334,0.10667 C 535.63572,454.084 526.71572,472.644 513.75572,487.632 l 0.69333,0.90533"
     inkscape:connector-curvature="0" /><path
     id="path1460"
     style="fill:#6c7072;fill-opacity:1;fill-rule:nonzero;stroke:none;stroke-width:0.13333333"
     d="m 536.70238,227.13734 6.17334,-11.21334 6.17333,-11.22666 0.08,-0.13334 -2.92,-1.61333 -0.08,0.13333 -6.17333,11.22667 -6.18667,11.21333 -0.0933,0.17334 2.93333,1.61333 0.0933,-0.17333"
     inkscape:connector-curvature="0" /><path
     id="path1462"
     style="fill:#757879;fill-opacity:1;fill-rule:nonzero;stroke:none;stroke-width:0.13333333"
     d="m 514.44905,488.53733 -0.69333,-0.90533 -34.91867,-45.41467 c -0.096,0.17867 -0.20133,0.34933 -0.3,0.52533 l 34.84533,45.31467 0.69334,0.908 3.78666,4.932 2.77334,3.6 24.68,32.09333 2.28,2.98667 2.30666,2.98666 27.02667,35.16 -3.57333,-3.74666 0.21333,0.28 -33.73333,-27.48 -34.49334,-28.10667 -3.56,-2.89333 -4.86666,-3.97334 -0.90667,-0.732 -45.49733,-37.06799 c -0.35867,0.136 -0.716,0.27733 -1.08,0.408 l -0.009,0.13866 45.65333,37.2 0.90667,0.73333 4.89333,3.98667 3.56,2.90667 34.53333,28.13466 38.49333,31.35867 0.88,0.72 1.94667,1.588 -1.52,-1.988 -0.69333,-0.892 -27.77334,-36.13467 -2.29333,-2.98533 -2.29333,-2.988 -24.70667,-32.11866 -2.76,-3.60134 -3.8,-4.93333"
     inkscape:connector-curvature="0" /><path
     id="path1464"
     style="fill:#6c7072;fill-opacity:1;fill-rule:nonzero;stroke:none;stroke-width:0.13333333"
     d="m 508.82238,629.77733 -4.25333,-12.08 -0.08,-0.21334 -3.14667,1.12 0.0667,0.2 4.25333,12.08 4.25334,12.08133 0.04,0.11867 3.16,-1.10667 -0.04,-0.12 -4.25334,-12.07999"
     inkscape:connector-curvature="0" /><path
     id="path1466"
     style="fill:#414345;fill-opacity:1;fill-rule:nonzero;stroke:none;stroke-width:0.13333333"
     d="m 467.75839,456.34266 37.89066,39.70134 0.77333,0.81333 4.22667,4.42666 3.08,3.228 30.17333,31.61334 29.45334,30.852 3.57333,3.74666 -27.02667,-35.16 -2.30666,-2.98666 -2.28,-2.98667 -24.68,-32.09333 -2.77334,-3.6 -3.78666,-4.932 -0.69334,-0.908 -34.84533,-45.31467 c -2.85733,5.09334 -6.5,9.68534 -10.77866,13.6"
     inkscape:connector-curvature="0" /><path
     id="path1468"
     style="fill:#414345;fill-opacity:1;fill-rule:nonzero;stroke:none;stroke-width:0.13333333"
     d="m 504.31572,326.884 3.56,-2.86667 c -17.05333,-14.02666 -38.04,-23.45333 -61.02667,-26.36 l 0.34667,4.54667 c 21.45333,2.88 41.05333,11.68 57.12,24.68"
     inkscape:connector-curvature="0" /><path
     id="path1470"
     style="fill:#757879;fill-opacity:1;fill-rule:nonzero;stroke:none;stroke-width:0.13333333"
     d="m 499.43572,330.81733 -0.86667,0.70667 -44.04266,35.49066 c 0.18133,0.0867 0.356,0.18 0.53466,0.26934 l 43.948,-35.4 0.88,-0.70667 4.88,-3.93333 3.54667,-2.85333 36.56,-29.45334 36.50666,-29.41333 -3.74666,3.86667 -25.68,32.64 -28.96,36.81333 -2.82667,3.58667 -3.85333,4.90666 -0.70667,0.89334 -35.272,44.82933 c 0.17867,0.37866 0.34934,0.76266 0.51867,1.14666 l 35.46,-45.08266 0.70666,-0.90667 3.88,-4.92 2.81334,-3.58666 26.66666,-33.89334 2.34667,-2.97333 30.6,-38.92 0.69333,-0.88 0.82667,-1.04 -1.04,0.82667 -0.86667,0.70666 -38.48,31.01334 -36.58666,29.46666 -3.56,2.86667 -4.88,3.93333"
     inkscape:connector-curvature="0" /><path
     id="path1472"
     style="fill:#6c7072;fill-opacity:1;fill-rule:nonzero;stroke:none;stroke-width:0.13333333"
     d="m 504.54238,212.444 4.26667,-12.09333 4.25333,-12.08 0.04,-0.12 -3.16,-1.10667 -0.04,0.12 -4.25333,12.09334 -4.25333,12.08 -0.0667,0.2 3.14667,1.10666 0.0667,-0.2"
     inkscape:connector-curvature="0" /><path
     id="path1474"
     style="fill:#414345;fill-opacity:1;fill-rule:nonzero;stroke:none;stroke-width:0.13333333"
     d="m 444.74239,531.76399 0.45333,-6.2 c 18.81333,-2.32 36.16,-9.42666 50.78667,-20.08 l -0.90667,-0.73333 c -14.36,10.4 -31.36,17.36 -49.78667,19.68 l 4.13334,-56.88 0.009,-0.13866 c -5.75333,2.068 -11.95467,3.20266 -18.42267,3.20266 v 54.64267 1.12 6.12 4.45333 39.49333 3.77334 3.70666 45.34667 0.908 0.212 12.81333 12.8 0.14667 0.97466 51.28 l 0.50667,5.172 0.65333,-9.02666 3.45334,-47.45334 0.08,-1.12 0.38666,-5.25333 0.54667,-7.57333 0.93333,-12.84 0.08,-1.12 2.36,-32.24 0.96,-13.28 0.26667,-3.73333 0.28,-3.8 2.90667,-39.85334 c 22.4,-2.36 43,-10.90666 60.01333,-23.90666 l -3.56,-2.90667 c -16.02667,12 -35.25333,19.94667 -56.13333,22.29333"
     inkscape:connector-curvature="0" /><path
     id="path1476"
     style="fill:#414345;fill-opacity:1;fill-rule:nonzero;stroke:none;stroke-width:0.13333333"
     d="m 499.43572,330.81733 c -14.68,-11.6 -32.4,-19.52 -51.74667,-22.36 l 0.08,1.14667 c 18.97334,2.82667 36.36,10.58667 50.8,21.92 l 0.86667,-0.70667"
     inkscape:connector-curvature="0" /><path
     id="path1478"
     style="fill:#6c7072;fill-opacity:1;fill-rule:nonzero;stroke:none;stroke-width:0.13333333"
     d="m 472.63572,639.51199 -2.2,-12.61466 -0.04,-0.22667 -3.29333,0.57333 0.04,0.22667 2.2,12.62666 2.21333,12.61334 0.0133,0.10666 3.29334,-0.57333 -0.0267,-0.11867 -2.2,-12.61333"
     inkscape:connector-curvature="0" /><path
     id="path1480"
     style="fill:#6c7072;fill-opacity:1;fill-rule:nonzero;stroke:none;stroke-width:0.13333333"
     d="m 470.42239,203.244 2.2,-12.62666 2.2,-12.62667 0.0133,-0.0933 -3.28,-0.58667 -0.0133,0.10667 -2.21334,12.62666 -2.2,12.61334 -0.04,0.24 3.29334,0.57333 0.04,-0.22667"
     inkscape:connector-curvature="0" /><path
     id="path1482"
     style="fill:#4c4d53;fill-opacity:1;fill-rule:nonzero;stroke:none;stroke-width:0.13333333"
     d="m 437.56905,630.31066 -0.93333,12.84 -0.54667,7.57333 -0.38666,5.25333 -0.08,1.12 -3.45334,47.45334 -0.6,9.61333 -0.0533,-0.58667 -0.24,3.30667 0.36,3.73333 c 0.0133,0 0.04,0 0.0533,0 0.0133,0 0.0267,0 0.04,0 0.18667,0 0.37334,0 0.56,0 l 3.96,-63.53333 0.0667,-1.11867 0.8,-12.828 0.8,-12.83866 0.08,-1.12 2.01333,-32.228 -2.36,32.24 -0.08,1.12"
     inkscape:connector-curvature="0" /><path
     id="path1484"
     style="fill:#ffffff;fill-opacity:1;fill-rule:nonzero;stroke:none;stroke-width:0.13333333"
     d="m 431.00905,464.70666 c -26.77333,0 -48.556,-21.78133 -48.556,-48.556 0,-26.77333 21.78267,-48.556 48.556,-48.556 26.77334,0 48.556,21.78267 48.556,48.556 0,26.77467 -21.78266,48.556 -48.556,48.556 z M 481.95439,415.932 c 0,-27.88667 -23.27067,-51.15733 -51.15734,-51.15733 -27.88666,0 -51.15733,23.27066 -51.15733,51.15733 0,27.88666 23.27067,51.15733 51.15733,51.15733 27.88667,0 51.15734,-23.27067 51.15734,-51.15733"
     inkscape:connector-curvature="0" /><path
     id="path1486"
     style="fill:#27b8cc;fill-opacity:1;fill-rule:nonzero;stroke:none;stroke-width:0.13333333"
     d="m 430.79705,467.08933 c -27.88666,0 -51.15733,-23.27067 -51.15733,-51.15733 0,-27.88667 23.27067,-51.15733 51.15733,-51.15733 27.88667,0 51.15734,23.27066 51.15734,51.15733 0,27.88666 -23.27067,51.15733 -51.15734,51.15733 z m 0.212,189.06133 v -185.536 c 6.468,0 12.66934,-1.13466 18.42267,-3.20266 0.364,-0.13067 0.72133,-0.272 1.08,-0.408 l 45.49733,37.06799 0.90667,0.732 4.86666,3.97334 3.56,2.89333 34.49334,28.10667 33.73333,27.48 -0.21333,-0.28 -29.45334,-30.852 -30.17333,-31.61334 -3.08,-3.228 -4.22667,-4.42666 -0.77333,-0.81333 -37.89066,-39.70134 c 4.27866,-3.91466 7.92133,-8.50666 10.77866,-13.6 0.0987,-0.176 0.204,-0.34666 0.3,-0.52533 0.58667,-1.07067 1.12667,-2.17067 1.64134,-3.28533 0.176,-0.38534 0.35466,-0.77067 0.524,-1.16 l 57.99333,-5.248 1.12,-0.10667 6.26666,-0.57333 4.54667,-0.41334 45.44,-4.10666 3.6,-0.33334 0.14667,-0.0133 45.62666,-4.13333 1.12,-0.0933 12.84,-1.16 12.85333,-1.17333 1.12,-0.0933 57.21334,-5.18667 -0.34667,-0.0267 -56.81333,0.33334 h -1.10667 l -12.81333,0.08 -12.81334,0.0667 -1.10666,0.0133 -45.37333,0.25333 -3.69334,0.0267 -3.77333,0.0133 -41.24,0.24 -4.46667,0.0267 -6.12,0.04 h -1.10666 l -54.652,0.31333 c 10e-4,-0.12267 0.009,-0.244 0.009,-0.36667 0,-6.84933 -1.276,-13.39866 -3.58533,-19.436 -0.0733,-0.19333 -0.152,-0.38666 -0.228,-0.58 -0.25733,-0.648 -0.52267,-1.292 -0.804,-1.928 -0.16933,-0.384 -0.34,-0.768 -0.51867,-1.14666 l 35.272,-44.82933 0.70667,-0.89334 3.85333,-4.90666 2.82667,-3.58667 28.96,-36.81333 25.68,-32.64 -26.05334,26.85333 -2.6,2.69333 -2.6,2.68 -29.58666,30.50667 -3.10667,3.21333 -4.26667,4.38667 -0.77333,0.8 -37.56933,38.75066 c -4.532,-4.92 -9.956,-9.00133 -16.01867,-11.99066 -0.17866,-0.0893 -0.35333,-0.18267 -0.53466,-0.26934 -0.78667,-0.37733 -1.584,-0.736 -2.38934,-1.076 -0.38,-0.16 -0.76933,-0.30266 -1.15333,-0.45466 l -4.33467,-56.04 -0.0933,-1.14667 -0.48,-6.24 -0.34667,-4.52 -3.37333,-43.50666 -0.29333,-3.78667 -0.28,-3.72 -3.53334,-45.56 -0.08,-1.12 -1,-12.84 -0.98666,-12.84 -0.0933,-1.10666 -4.4,-56.88 v 56.84 1.10666 12.81334 12.81333 1.10667 45.35999 3.70667 3.76 43.02667 4.45333 6.12 1.12 53.3 c -0.228,-0.003 -0.452,-0.016 -0.68,-0.016 -8.47733,0 -16.50266,1.93733 -23.65866,5.39333 -0.19734,0.096 -0.38934,0.20267 -0.58534,0.3 -0.70133,0.34933 -1.39466,0.70933 -2.07866,1.08667 -0.35067,0.19466 -0.696,0.39866 -1.04267,0.60133 l -43.648,-33.50533 -0.89333,-0.69333 -4.94667,-3.8 -3.58666,-2.76 -34.10667,-26.17334 -0.38667,-0.30666 -2.58666,-1.98667 -31.32,-24.04 28.4,27.12 33.41333,31.92 3.21333,3.06667 4.42667,4.22666 0.81333,0.77334 38.29867,36.57866 c -4.348,4.77333 -7.84534,10.328 -10.28667,16.42 -0.15333,0.384 -0.30933,0.76533 -0.45467,1.15333 l -0.61066,0.048 -54.98667,4.01334 -1.13333,0.08 -6.25333,0.45333 -4.53334,0.33333 -41.86666,3.05334 -3.78667,0.28 -3.72,0.26666 -45.53333,3.32 -1.12,0.08 -12.82667,0.94667 -12.84,0.93333 c -0.0267,1.4 -0.04,2.8 -0.04,4.2 0,0.12 0,0.25334 0,0.37334 l 12.81334,0.08 12.81333,0.0667 1.10667,0.0133 45.37333,0.25333 3.69333,0.0267 3.77333,0.0133 41.25334,0.24 4.45333,0.0267 6.13333,0.04 h 1.10667 l 53.292,0.30666 c 0.0587,9.02667 2.316,17.528 6.26,25.00534 0.10133,0.192 0.19333,0.38933 0.296,0.57866 l -2.048,-0.21066 -33.72,43.01333 -0.70667,0.90667 -3.86666,4.93466 -2.8,3.572 -27.42667,35 -26.34667,33.61333 0.28,-0.22666 29.96,-29.46667 31.18667,-30.68 3.17333,-3.12 4.36,-4.28 0.8,-0.79866 38.48,-37.84534 c 3.532,3.20267 7.49467,5.936 11.77867,8.13067 0.39333,0.20267 0.78133,0.41333 1.18,0.60533 l 0.16133,1.668 0.0667,0.65334 0.0667,0.65333 5.37334,55.45333 0.12,1.14667 0.61333,6.308 0.44,4.572 4.28,44 4.78667,49.41333 0.12,1.12 1.24,12.85333 1.25333,12.85333 0.10667,1.12 4.98666,51.348 v -51.28 -0.97466"
     inkscape:connector-curvature="0" /><path
     id="path1488"
     style="fill:#4c4d53;fill-opacity:1;fill-rule:nonzero;stroke:none;stroke-width:0.13333333"
     d="m 425.91572,655.93732 -1.25333,-12.85333 -1.24,-12.85333 -0.12,-1.12 -4.78667,-49.41333 -4.28,-44 -0.44,-4.572 -0.61333,-6.308 -0.12,-1.14667 -5.37334,-55.45333 -0.0667,-0.65333 -0.0667,-0.65334 -0.16133,-1.668 c -0.39867,-0.192 -0.78667,-0.40266 -1.18,-0.60533 l 0.30133,3.08667 0.0667,0.66666 0.0667,0.65334 5.28,54.41466 0.10667,1.15867 0.61333,6.32 0.45334,4.58666 4.28,44.08 4.8,49.45334 0.12,1.12133 1.24,12.87866 1.25333,12.84 0.10667,1.13334 6.10666,62.82666 v -5.64 -0.0387 -5.77334 l -4.98666,-51.348 -0.10667,-1.12"
     inkscape:connector-curvature="0" /><path
     id="path1490"
     style="fill:#4c4d53;fill-opacity:1;fill-rule:nonzero;stroke:none;stroke-width:0.13333333"
     d="m 412.26239,309.01733 -0.10667,1.14667 -5.39067,57.21733 c 0.196,-0.0973 0.388,-0.204 0.58534,-0.3 l 5.37866,-57.024 0.10667,-1.13333 0.58667,-6.32 0.44,-4.57333 4.48,-47.57334 4.66666,-49.42666 0.10667,-1.10667 1.21333,-12.85333 1.21334,-12.86667 0.0933,-1.10666 6,-63.57334 0.0533,-0.56 v 0.56 6.65334 l 4.4,56.88 0.0933,1.10666 0.98666,12.84 1,12.84 0.08,1.12 3.53334,45.56 0.28,3.72 0.29333,3.78667 3.37333,43.50666 0.34667,4.52 0.48,6.24 0.0933,1.14667 4.33467,56.04 c 0.384,0.152 0.77333,0.29466 1.15333,0.45466 l -4.368,-56.33466 -0.08,-1.14667 -0.49333,-6.25333 -0.34667,-4.54667 -3.54666,-45.81333 -0.12,-1.52 -0.28,-3.73333 -3.53334,-45.58667 -0.08,-1.12 -1,-12.84 -0.98666,-12.85333 -0.0933,-1.10667 -4.90666,-63.56 -0.0533,-0.6 -1.10666,-0.0133 -0.0533,0.61333 -6,63.58667 -0.10666,1.10667 -1.21334,12.86666 -1.21333,12.86667 -0.10667,1.10667 -4.66666,49.45333 -4.48,47.61333 -0.44,4.57333 -0.6,6.32"
     inkscape:connector-curvature="0" /><path
     id="path1492"
     style="fill:#414345;fill-opacity:1;fill-rule:nonzero;stroke:none;stroke-width:0.13333333"
     d="m 412.86239,302.69733 0.44,-4.57333 c -23.58667,3.62667 -44.92,14.14667 -61.89333,29.42667 l 3.58666,2.76 c 15.97333,-14.17334 35.89333,-24 57.86667,-27.61334"
     inkscape:connector-curvature="0" /><path
     id="path1494"
     style="fill:#414345;fill-opacity:1;fill-rule:nonzero;stroke:none;stroke-width:0.13333333"
     d="m 358.99572,506.73866 -3.58666,2.83867 c 16.22666,13.37333 35.99999,22.57333 57.69333,25.94666 l -0.45334,-4.58666 c -20.09333,-3.33334 -38.46666,-11.88 -53.65333,-24.19867"
     inkscape:connector-curvature="0" /><path
     id="path1496"
     style="fill:#414345;fill-opacity:1;fill-rule:nonzero;stroke:none;stroke-width:0.13333333"
     d="m 412.26239,309.01733 c -19.78667,3.54667 -37.73334,12.44 -52.32,25.09334 l 0.90667,0.69333 c 14.33333,-12.38667 31.93333,-21.09333 51.30666,-24.64 l 0.10667,-1.14667"
     inkscape:connector-curvature="0" /><path
     id="path1498"
     style="fill:#414345;fill-opacity:1;fill-rule:nonzero;stroke:none;stroke-width:0.13333333"
     d="m 363.91572,502.85733 c 13.76,10.86666 30.18667,18.50666 48.12,21.76 l -0.10667,-1.15867 c -17.53333,-3.228 -33.6,-10.708 -47.10666,-21.32133 l -0.90667,0.72"
     inkscape:connector-curvature="0" /><path
     id="path1500"
     style="fill:#6c7072;fill-opacity:1;fill-rule:nonzero;stroke:none;stroke-width:0.13333333"
     d="m 392.94239,626.89733 -2.2,12.61466 -2.2,12.61333 -0.0133,0.11867 3.29334,0.57333 0.0133,-0.10666 2.2,-12.61334 2.2,-12.62666 0.04,-0.22667 -3.29333,-0.57333 -0.04,0.22667"
     inkscape:connector-curvature="0" /><path
     id="path1502"
     style="fill:#6c7072;fill-opacity:1;fill-rule:nonzero;stroke:none;stroke-width:0.13333333"
     d="m 390.72905,190.63067 2.2,12.61333 0.04,0.22667 3.29334,-0.57333 -0.04,-0.22667 -2.2,-12.62667 -2.2,-12.62666 -0.0133,-0.0933 -3.29333,0.57334 0.0133,0.10666 2.2,12.62667"
     inkscape:connector-curvature="0" /><path
     id="path1504"
     style="fill:#757879;fill-opacity:1;fill-rule:nonzero;stroke:none;stroke-width:0.13333333"
     d="m 363.91572,502.85733 0.90667,-0.72 41.82666,-33.09333 -0.0667,-0.65334 -42.21334,33.38667 -0.90666,0.72 -4.92,3.88 -3.57333,2.82666 -31.84,25.20134 -2.97334,2.34533 -1.4,1.12 -35.89333,28.38667 3.61333,-3.56 -0.28,0.22666 26.34667,-33.61333 27.42667,-35 2.8,-3.572 3.86666,-4.93466 0.70667,-0.90667 33.72,-43.01333 -0.66667,-0.0667 -0.65333,-0.0667 -33.12,42.25334 -0.70667,0.90666 -3.86666,4.94667 -2.81334,3.58667 -27.46666,35.05333 -30.50667,38.92 -0.69333,0.88133 c 0.08,0.10667 0.17333,0.18533 0.26666,0.27867 l 0.88,-0.69334 35.89334,-28.4 2.96,-2.34666 2.98666,-2.36 31.85334,-25.2 3.58666,-2.83867 4.92,-3.88133"
     inkscape:connector-curvature="0" /><path
     id="path1506"
     style="fill:#6c7072;fill-opacity:1;fill-rule:nonzero;stroke:none;stroke-width:0.13333333"
     d="m 358.80906,617.69733 -4.24,12.08 -4.25334,12.07999 -0.04,0.12 3.14667,1.12 0.04,-0.12 4.25333,-12.09333 4.26667,-12.08 0.0667,-0.2 -3.16,-1.12 -0.08,0.21334"
     inkscape:connector-curvature="0" /><path
     id="path1508"
     style="fill:#6c7072;fill-opacity:1;fill-rule:nonzero;stroke:none;stroke-width:0.13333333"
     d="m 354.55572,200.364 4.25334,12.08 0.0667,0.21334 3.16,-1.12 -0.0667,-0.2 -4.25334,-12.08 -4.26666,-12.09334 -0.04,-0.12 -3.14667,1.12 0.04,0.10667 4.25333,12.09333"
     inkscape:connector-curvature="0" /><path
     id="path1510"
     style="fill:#414345;fill-opacity:1;fill-rule:nonzero;stroke:none;stroke-width:0.13333333"
     d="m 323.83572,436.004 c 3.21334,18.25333 10.98667,34.96133 22.08,48.90666 l 0.70667,-0.90666 c -10.82667,-13.68 -18.44,-30.02667 -21.65333,-47.88 l -1.13334,-0.12"
     inkscape:connector-curvature="0" /><path
     id="path1512"
     style="fill:#414345;fill-opacity:1;fill-rule:nonzero;stroke:none;stroke-width:0.13333333"
     d="m 343.07572,352.51067 c -10.05333,13.78666 -16.94666,29.98666 -19.65333,47.55999 l 1.13333,-0.08 c 2.69334,-17.18666 9.44,-33.05333 19.24,-46.58666 l -0.72,-0.89333"
     inkscape:connector-curvature="0" /><path
     id="path1514"
     style="fill:#757879;fill-opacity:1;fill-rule:nonzero;stroke:none;stroke-width:0.13333333"
     d="m 343.07572,352.51067 0.72,0.89333 34.73333,42.65333 0.66667,-0.0533 -35.06666,-43.06667 -0.72,-0.89333 -3.98667,-4.89333 -2.89333,-3.54667 -29.70667,-36.49333 -28.41333,-34.90667 3.76,3.6 31.32,24.04 2.58666,1.98667 0.38667,0.30666 34.10667,26.17334 3.58666,2.76 4.94667,3.8 0.89333,0.69333 43.648,33.50533 c 0.34667,-0.20267 0.692,-0.40667 1.04267,-0.60133 l -43.83733,-33.664 -0.90667,-0.69333 -4.94667,-3.8 -3.58666,-2.76 -34.14667,-26.21334 -2.98667,-2.29333 -2.98666,-2.29333 -36.14667,-27.76 -0.17333,-0.13334 0.13333,0.17334 31.34667,38.50666 29.73333,36.52 2.89333,3.54667 4,4.90667"
     inkscape:connector-curvature="0" /><path
     id="path1516"
     style="fill:#414345;fill-opacity:1;fill-rule:nonzero;stroke:none;stroke-width:0.13333333"
     d="m 317.50239,435.364 -4.58667,-0.48 c 3.33334,22.04 12.68,42.13466 26.32,58.56 l 2.81334,-3.58667 C 329.47572,474.47066 320.79572,455.804 317.50239,435.364"
     inkscape:connector-curvature="0" /><path
     id="path1518"
     style="fill:#414345;fill-opacity:1;fill-rule:nonzero;stroke:none;stroke-width:0.13333333"
     d="m 339.07572,347.604 -2.89333,-3.54667 c -12.38667,16.21334 -20.74667,35.64 -23.56,56.8 l 4.54667,-0.33333 c 2.77333,-19.65334 10.50666,-37.72 21.90666,-52.92"
     inkscape:connector-curvature="0" /><path
     id="path1520"
     style="fill:#6c7072;fill-opacity:1;fill-rule:nonzero;stroke:none;stroke-width:0.13333333"
     d="m 326.67572,603.00399 -6.18666,11.21334 -6.18667,11.22666 -0.0667,0.12 2.92,1.61467 0.0667,-0.13467 6.18667,-11.21333 6.18666,-11.21333 0.0933,-0.17334 -2.92,-1.61333 -0.0933,0.17333"
     inkscape:connector-curvature="0" /><path
     id="path1522"
     style="fill:#4c4d53;fill-opacity:1;fill-rule:nonzero;stroke:none;stroke-width:0.13333333"
     d="m 323.83572,436.004 1.13334,0.12 54.77333,5.62666 0.65333,0.0667 0.66667,0.0667 2.048,0.21066 c -0.10267,-0.18933 -0.19467,-0.38666 -0.296,-0.57866 l -1.352,-0.13867 -0.66667,-0.08 -0.64,-0.0667 -55.29333,-5.68 -1.13333,-0.10666 -6.33334,-0.65334 -4.56,-0.48 -45.65333,-4.68 -49.49333,-5.09333 -1.12,-0.12 -12.86667,-1.32 -12.86666,-1.32 -1.10667,-0.12 -63.58667,-6.53333 c 0,0.18666 0,0.38666 0,0.57333 l 63.6,6.53333 1.10667,0.10667 12.88,1.33333 12.86667,1.32 1.12,0.10667 49.51999,5.09333 45.68,4.69334 4.58667,0.48 6.33333,0.64"
     inkscape:connector-curvature="0" /><path
     id="path1524"
     style="fill:#6c7072;fill-opacity:1;fill-rule:nonzero;stroke:none;stroke-width:0.13333333"
     d="m 320.47572,215.924 6.18667,11.21334 0.0933,0.17333 2.92,-1.6 -0.0933,-0.17333 -6.18667,-11.22667 -6.18666,-11.21333 -0.0667,-0.13334 -2.92,1.61334 0.0667,0.13333 6.18666,11.21333"
     inkscape:connector-curvature="0" /><path
     id="path1526"
     style="fill:#414345;fill-opacity:1;fill-rule:nonzero;stroke:none;stroke-width:0.13333333"
     d="m 318.75572,537.87066 1.4,-1.12 2.97334,-2.34533 31.84,-25.20134 3.57333,-2.82666 4.92,-3.88 0.90666,-0.72 42.21334,-33.38667 -0.0667,-0.66666 -0.30133,-3.08667 c -4.284,-2.19467 -8.24667,-4.928 -11.77867,-8.13067 l -38.48,37.84534 -0.8,0.79866 -4.36,4.28 -3.17333,3.12 -31.18667,30.68 -29.96,29.46667 -3.61333,3.56 35.89333,-28.38667"
     inkscape:connector-curvature="0" /><path
     id="path1528"
     style="fill:#414345;fill-opacity:1;fill-rule:nonzero;stroke:none;stroke-width:0.13333333"
     d="m 306.82239,307.11067 29.70667,36.49333 2.89333,3.54667 3.98667,4.89333 0.72,0.89333 35.06666,43.06667 0.68,-0.0533 0.572,-0.0413 c 2.44133,-6.092 5.93867,-11.64667 10.28667,-16.42 l -38.29867,-36.57866 -0.81333,-0.77334 -4.42667,-4.22666 -3.21333,-3.06667 -33.41333,-31.92 -28.4,-27.12 -3.76,-3.6 28.41333,34.90667"
     inkscape:connector-curvature="0" /><path
     id="path1530"
     style="fill:#6c7072;fill-opacity:1;fill-rule:nonzero;stroke:none;stroke-width:0.13333333"
     d="m 297.34239,583.21733 -7.92,10.06666 -7.93333,10.05334 -0.0667,0.0933 2.62667,2.06667 0.0667,-0.092 7.92,-10.05334 7.92,-10.05333 0.16,-0.20133 -2.62666,-2.06667 -0.14667,0.18667"
     inkscape:connector-curvature="0" /><path
     id="path1532"
     style="fill:#6c7072;fill-opacity:1;fill-rule:nonzero;stroke:none;stroke-width:0.13333333"
     d="m 289.40906,236.85733 7.93333,10.06667 0.14667,0.18667 2.61333,-2.06667 -0.14667,-0.18667 -7.92,-10.05333 -7.93333,-10.06666 -0.0667,-0.0933 -2.62666,2.06667 0.08,0.0933 7.92,10.05333"
     inkscape:connector-curvature="0" /><path
     id="path1534"
     style="fill:#6c7072;fill-opacity:1;fill-rule:nonzero;stroke:none;stroke-width:0.13333333"
     d="m 271.62239,558.95066 -9.45333,8.62667 -9.45334,8.64 -0.12,0.10666 2.25334,2.468 0.12,-0.10666 9.45333,-8.64134 9.44,-8.62666 0.14667,-0.13334 -2.25334,-2.46666 -0.13333,0.13333"
     inkscape:connector-curvature="0" /><path
     id="path1536"
     style="fill:#6c7072;fill-opacity:1;fill-rule:nonzero;stroke:none;stroke-width:0.13333333"
     d="m 262.15572,262.57733 9.45334,8.64 0.13333,0.12 2.25333,-2.46666 -0.14666,-0.13334 -9.44,-8.64 -9.45334,-8.64 -0.12,-0.10666 -2.25333,2.46666 0.12,0.12 9.45333,8.64"
     inkscape:connector-curvature="0" /><path
     id="path1538"
     style="fill:#6c7072;fill-opacity:1;fill-rule:nonzero;stroke:none;stroke-width:0.13333333"
     d="m 250.18239,530.79199 -10.73333,6.98534 -10.74667,6.98666 -0.0933,0.0667 1.82667,2.80133 0.0933,-0.068 10.74666,-6.98666 10.73334,-6.98667 0.18666,-0.12 -1.82666,-2.8 -0.18667,0.12133"
     inkscape:connector-curvature="0" /><path
     id="path1540"
     style="fill:#6c7072;fill-opacity:1;fill-rule:nonzero;stroke:none;stroke-width:0.13333333"
     d="m 239.43572,292.364 10.73334,7 0.2,0.12 1.82666,-2.81333 -0.18666,-0.12 -10.74667,-6.98667 -10.73333,-6.98667 -0.0933,-0.0667 -1.82667,2.8 0.0933,0.0667 10.73333,6.98667"
     inkscape:connector-curvature="0" /><path
     id="path1542"
     style="fill:#6c7072;fill-opacity:1;fill-rule:nonzero;stroke:none;stroke-width:0.13333333"
     d="m 235.16906,502.52399 -1.33334,-3.06533 -0.2,0.092 -11.73333,5.13467 -11.73333,5.132 -0.12,0.0533 1.33333,3.05333 0.12,-0.0533 11.73334,-5.132 11.74666,-5.13467 0.18667,-0.08"
     inkscape:connector-curvature="0" /><path
     id="path1544"
     style="fill:#6c7072;fill-opacity:1;fill-rule:nonzero;stroke:none;stroke-width:0.13333333"
     d="m 210.03573,360.99067 12.42666,3.13333 0.18667,0.0533 0.81333,-3.24 -0.18666,-0.0533 -12.42667,-3.12 -12.42667,-3.13333 -0.14666,-0.04 -0.81334,3.24 0.13334,0.04 12.44,3.12"
     inkscape:connector-curvature="0" /><path
     id="path1546"
     style="fill:#6c7072;fill-opacity:1;fill-rule:nonzero;stroke:none;stroke-width:0.13333333"
     d="m 223.27573,469.25733 0.18666,-0.0533 -0.81333,-3.23867 -0.18667,0.0533 -12.42666,3.11867 -12.44,3.13333 -0.13334,0.04 0.81334,3.24 0.14666,-0.0387 12.42667,-3.13467 12.42667,-3.12"
     inkscape:connector-curvature="0" /><path
     id="path1548"
     style="fill:#6c7072;fill-opacity:1;fill-rule:nonzero;stroke:none;stroke-width:0.13333333"
     d="m 221.88906,325.47067 11.74666,5.13333 0.18667,0.08 1.34667,-3.05333 -0.2,-0.08 -11.73333,-5.14667 -11.73334,-5.13333 -0.12,-0.0533 -1.34666,3.06667 0.12,0.0533 11.73333,5.13334"
     inkscape:connector-curvature="0" /><path
     id="path1550"
     style="fill:#6c7072;fill-opacity:1;fill-rule:nonzero;stroke:none;stroke-width:0.13333333"
     d="m 204.19573,398.004 12.76,1.05333 0.24,0.0133 0.26666,-3.33333 -0.22666,-0.0133 -12.77334,-1.04 -12.77333,-1.04 -0.10667,-0.0133 -0.26666,3.32 0.10666,0.0133 12.77334,1.04"
     inkscape:connector-curvature="0" /><path
     id="path1552"
     style="fill:#6c7072;fill-opacity:1;fill-rule:nonzero;stroke:none;stroke-width:0.13333333"
     d="m 217.23573,434.41733 0.22666,-0.0133 -0.26666,-3.33334 -0.24,0.0133 -12.76,1.05333 -12.77334,1.04 -0.10666,0.0133 0.26666,3.33334 0.10667,-0.0133 12.77333,-1.04 12.77334,-1.05333"
     inkscape:connector-curvature="0" /><path
     id="path1554"
     style="fill:#ffffff;fill-opacity:1;fill-rule:nonzero;stroke:none;stroke-width:0.13333333"
     d="m 455.97839,416.35066 -4.00934,1.04 c 0,0 -3.10266,0.82134 -3.86666,0.93734 0.30933,0.0973 1.01866,0.328 1.72533,0.61333 0.94,0.36933 1.86933,0.836 1.86933,0.836 0,0 0.93067,0.45867 1.84267,1.01067 0.88533,0.524 1.75467,1.112 1.75467,1.112 0,0 -1.05334,0.13333 -2.09067,0.204 -1.04133,0.0773 -2.064,0.0907 -2.064,0.0907 0,0 -1.024,0.02 -2.068,-0.0347 -0.82533,-0.036 -1.628,-0.10934 -1.92267,-0.13867 0.244,0.168 0.90534,0.62533 1.56,1.128 0.82934,0.62667 1.61067,1.30533 1.612,1.30533 -0.001,0 0.77467,0.66667 1.52134,1.39334 0.75066,0.72133 1.47066,1.5 1.47066,1.5 0,0 -1.04666,-0.10934 -2.06133,-0.276 -1.04,-0.17334 -2.05733,-0.408 -2.05733,-0.408 0,0 -1.01867,-0.22667 -2.00134,-0.50934 -0.788,-0.22133 -1.544,-0.47333 -1.82133,-0.568 0.18667,0.204 0.73333,0.808 1.24933,1.45334 0.64267,0.788 1.24934,1.628 1.24934,1.628 0,0 0.608,0.836 1.17733,1.72266 0.58,0.88667 1.092,1.80134 1.092,1.80134 0,0 -1.00533,-0.35867 -1.96933,-0.76667 -0.96667,-0.40267 -1.892,-0.85467 -1.892,-0.85467 0,0 -0.928,-0.44533 -1.81467,-0.94 -0.724,-0.40533 -1.412,-0.83333 -1.664,-0.99333 0.14267,0.25867 0.524,0.96133 0.88133,1.70133 0.45334,0.924 0.85867,1.89067 0.85867,1.89067 0,-10e-4 0.40933,0.96267 0.74267,1.93467 0.34533,0.976 0.64,1.99066 0.64,1.99066 0,0 -0.88934,-0.56933 -1.72667,-1.17733 -0.836,-0.59467 -1.64667,-1.26533 -1.64533,-1.26533 0,0 -0.812,-0.66267 -1.56667,-1.35867 -0.62667,-0.57067 -1.19067,-1.13733 -1.38133,-1.33067 0.0813,0.28667 0.29733,1.068 0.48,1.87867 0.22,0.988 0.384,2.00667 0.384,2.00667 0,0 0.168,1.01466 0.27866,2.05866 0.116,1.04 0.172,2.10534 0.172,2.10534 0,0 -0.73066,-0.752 -1.416,-1.56134 -0.68666,-0.79866 -1.31333,-1.62266 -1.31333,-1.62266 0,0 -0.632,-0.82 -1.20133,-1.66267 -0.456,-0.66 -0.87867,-1.35333 -1.03334,-1.61067 0.0107,0.29334 0.0347,1.088 0.0227,1.904 -0.0133,1.02267 -0.088,2.06134 -0.088,2.06134 0,0 -0.068,1.03866 -0.2,2.08933 -0.132,1.02933 -0.328,2.05467 -0.328,2.05467 0,0 -0.54,-0.91467 -1.01467,-1.84134 -0.48133,-0.92666 -0.89866,-1.86133 -0.89866,-1.86133 0,0 -0.42134,-0.92533 -0.78667,-1.90933 -0.29333,-0.77334 -0.544,-1.54134 -0.63467,-1.824 -0.056,0.28933 -0.216,1.07733 -0.41866,1.87733 -0.24667,1.00133 -0.55867,2.00533 -0.55867,2.00533 l -1.44,3.888 c 0,0 -0.26,-1.00266 -0.52,-2.004 -0.25867,-1.01733 -0.51733,-2.03333 -0.51733,-2.03333 0,0 -0.24134,-1.03467 -0.384,-2.056 -0.12267,-0.81733 -0.184,-1.61467 -0.20267,-1.908 -0.10933,0.27467 -0.41467,1.01733 -0.78533,1.75733 -0.46267,0.90534 -0.992,1.78534 -0.992,1.78534 0,0 -0.524,0.88533 -1.10934,1.756 -0.58,0.86933 -1.22133,1.72133 -1.22133,1.72133 0,0 -0.08,-1.036 -0.0827,-2.1 -0.0133,-1.05467 0.036,-2.08933 0.036,-2.08933 0,0 0.0453,-1.036 0.14934,-2.04934 0.0747,-0.80266 0.19466,-1.59866 0.24133,-1.89333 -0.16533,0.21333 -0.656,0.83867 -1.20667,1.472 -0.66666,0.776 -1.39066,1.524 -1.39066,1.524 0,0 -0.71867,0.74933 -1.496,1.46933 -0.76267,0.712 -1.572,1.368 -1.572,1.368 0,0 0.17466,-1.048 0.40666,-2.06266 0.22534,-1.02 0.50667,-2.004 0.50667,-2.004 0,0 0.27333,-0.984 0.62533,-1.96934 0.27067,-0.78133 0.57067,-1.52933 0.68267,-1.804 -0.21067,0.17067 -0.83867,0.67467 -1.528,1.172 -0.83733,0.61334 -1.71067,1.17067 -1.71067,1.17067 0,0 -0.86133,0.55067 -1.772,1.06 -0.904,0.51333 -1.856,0.98267 -1.856,0.98267 0,0 0.404,-0.97067 0.85467,-1.89734 0.46267,-0.948 0.976,-1.856 0.976,-1.856 0,0 0.508,-0.91066 1.05867,-1.77333 0.436,-0.692 0.89333,-1.34667 1.06266,-1.584 -0.268,0.12933 -1.00266,0.47867 -1.74933,0.784 -0.93867,0.392 -1.91733,0.73333 -1.91733,0.73333 0,0 -0.97467,0.34667 -1.98667,0.64 -1.01733,0.30534 -2.03467,0.53334 -2.036,0.53334 0,0 0.62933,-0.86134 1.29467,-1.66934 0.66133,-0.81333 1.35733,-1.57066 1.35733,-1.57066 0,0 0.68933,-0.76134 1.42,-1.472 0.612,-0.59467 1.21867,-1.12934 1.42533,-1.31067 -0.288,0.0627 -1.07066,0.22933 -1.88133,0.36133 -1.01467,0.16934 -2.05733,0.28134 -2.05733,0.28134 10e-4,0 -1.04,0.11733 -2.06667,0.16 -1.03333,0.0507 -2.08933,0.04 -2.08933,0.04 0,0 0.8,-0.68934 1.62266,-1.31734 0.81067,-0.63066 1.68134,-1.212 1.68134,-1.212 0,0 0.868,-0.588 1.75466,-1.112 0.70534,-0.424 1.412,-0.80266 1.672,-0.94 -0.29733,-0.004 -1.10666,-0.0227 -1.936,-0.08 -1.024,-0.0693 -2.036,-0.208 -2.036,-0.208 0,0 -1.01866,-0.13066 -2.048,-0.32533 -1.028,-0.188 -2.064,-0.44133 -2.064,-0.44133 0,0 0.912,-0.48267 1.892,-0.904 0.96534,-0.42934 1.936,-0.79334 1.936,-0.79334 0,0 0.97067,-0.37066 1.944,-0.67733 0.63467,-0.204 1.264,-0.38 1.628,-0.47867 l -3.572,-1.324 c 10e-4,0 -3.888,-1.41733 -3.844,-1.528 0,0 1.03867,-0.32666 2.072,-0.55466 1.03467,-0.23867 2.056,-0.38 2.056,-0.38 0,0 1.01467,-0.14934 2.036,-0.208 0.828,-0.0587 1.63734,-0.0773 1.93467,-0.0813 -0.26,-0.13733 -0.96533,-0.516 -1.67067,-0.94 -0.88666,-0.524 -1.75466,-1.112 -1.75466,-1.112 0,0.001 -0.87067,-0.58133 -1.68134,-1.212 -0.82266,-0.628 -1.62266,-1.31733 -1.62266,-1.31733 0,0 1.056,-0.009 2.08933,0.0413 1.02667,0.0413 2.068,0.15867 2.06667,0.15867 0,0 1.04266,0.112 2.05733,0.28267 0.80933,0.13066 1.59067,0.296 1.88,0.36 -0.20933,-0.18267 -0.81467,-0.71734 -1.424,-1.31067 -0.73067,-0.71067 -1.42,-1.472 -1.42,-1.472 0,0 -0.696,-0.75733 -1.35733,-1.57067 -0.66534,-0.808 -1.29467,-1.66933 -1.29467,-1.66933 0.001,0 1.01867,0.228 2.036,0.53333 1.012,0.29334 1.98667,0.64134 1.98667,0.64134 0,0 0.97866,0.34 1.91733,0.732 0.74533,0.304 1.476,0.652 1.74667,0.78266 -0.16934,-0.23866 -0.62534,-0.892 -1.06,-1.58266 -0.55067,-0.86267 -1.05867,-1.77334 -1.05867,-1.77334 0,0 -0.51333,-0.90666 -0.97733,-1.856 -0.44934,-0.92666 -0.85334,-1.896 -0.85334,-1.896 0,0 0.952,0.468 1.856,0.98134 0.91067,0.50933 1.772,1.06133 1.772,1.06133 0,0 0.87334,0.556 1.71067,1.16933 0.68933,0.49867 1.31733,1.00134 1.528,1.17334 -0.112,-0.27467 -0.412,-1.02267 -0.68267,-1.80534 -0.352,-0.984 -0.62533,-1.968 -0.62533,-1.96933 0,0 -0.28133,-0.984 -0.50667,-2.00267 -0.232,-1.016 -0.40666,-2.064 -0.408,-2.064 0,0 0.80934,0.65734 1.57334,1.368 0.77733,0.72 1.496,1.46934 1.496,1.46934 0,0 0.724,0.748 1.39066,1.524 0.55067,0.63333 1.04134,1.25866 1.20667,1.472 -0.0467,-0.29467 -0.16667,-1.09067 -0.24133,-1.89334 -0.104,-1.01333 -0.14934,-2.04933 -0.14934,-2.04933 0,0 -0.0493,-1.03333 -0.036,-2.08933 0.003,-1.064 0.0827,-2.1 0.0827,-2.1 0,0 0.64133,0.852 1.22133,1.72266 0.58534,0.86934 1.10934,1.75467 1.10934,1.75467 0,0 0.52666,0.88133 0.99333,1.78533 0.38,0.73734 0.716,1.47467 0.84,1.74667 0.0227,-0.29467 0.0933,-1.09067 0.20267,-1.904 0.13333,-1.01867 0.32933,-2.048 0.32933,-2.048 0,0 0.18933,-1.03867 0.44667,-2.02933 0.25066,-1.00267 0.56666,-2.008 0.56666,-2.008 0,0 0.42534,0.968 0.78934,1.94 0.368,0.972 0.67333,1.94666 0.67333,1.94666 l 1.00667,3.88534 1.392,-3.73467 c 0,0 0.37333,-0.94 0.84266,-1.86933 0.46,-0.92934 1.016,-1.844 1.016,-1.844 0,0 0.24267,1.03333 0.38134,2.064 0.13333,1.05066 0.20133,2.08933 0.20133,2.08933 0,0 0.0747,1.03867 0.0867,2.06133 0.0133,0.816 -0.0107,1.61067 -0.0213,1.90534 0.15467,-0.25867 0.57734,-0.952 1.03334,-1.612 0.56933,-0.84134 1.20133,-1.66267 1.20133,-1.66267 0,0 0.62667,-0.82267 1.31333,-1.62267 0.68534,-0.80933 1.416,-1.56133 1.416,-1.56133 0,0 -0.056,1.06667 -0.172,2.10667 -0.11066,1.044 -0.27866,2.05866 -0.27866,2.05866 0,0 -0.164,1.01734 -0.384,2.00534 -0.18267,0.81066 -0.39867,1.592 -0.48,1.87866 0.19066,-0.19466 0.756,-0.76 1.38133,-1.32933 0.75467,-0.69733 1.56667,-1.35867 1.56667,-1.35867 0,0 0.80933,-0.67066 1.64533,-1.26533 0.83733,-0.608 1.72533,-1.17867 1.72533,-1.17867 0,0 -0.29333,1.01467 -0.63866,1.99067 -0.33334,0.972 -0.74267,1.936 -0.74267,1.936 0,0 -0.40533,0.96667 -0.85867,1.89067 -0.35733,0.73866 -0.73866,1.44133 -0.88133,1.7 0.252,-0.15867 0.94,-0.58667 1.664,-0.992 0.88667,-0.496 1.81467,-0.94134 1.81467,-0.94134 0,0 0.92533,-0.45066 1.892,-0.85466 0.96533,-0.408 1.96933,-0.76667 1.96933,-0.76667 0,0 -0.512,0.91467 -1.092,1.80133 -0.56933,0.88667 -1.17733,1.72267 -1.17733,1.72267 0,0 -0.60667,0.84 -1.24934,1.62933 -0.516,0.644 -1.06133,1.24667 -1.248,1.45334 0.27867,-0.0947 1.032,-0.348 1.82,-0.568 0.98267,-0.284 2.00134,-0.51067 2.00134,-0.51067 0,0 1.01733,-0.23467 2.05733,-0.40667 1.01467,-0.168 2.06133,-0.276 2.06133,-0.27733 0,0 -0.72,0.78 -1.47066,1.5 -0.74667,0.72667 -1.52267,1.39467 -1.52267,1.39467 0,0 -0.78133,0.67733 -1.61067,1.304 -0.65466,0.50266 -1.316,0.96133 -1.56,1.12933 0.29467,-0.0293 1.09734,-0.104 1.92267,-0.14 1.044,-0.0547 2.068,-0.0347 2.068,-0.0347 0,0 1.02267,0.0147 2.064,0.0907 1.03733,0.0707 2.09067,0.20533 2.09067,0.204 0,0 -0.86934,0.588 -1.75467,1.11333 -0.91467,0.536 -1.84267,1.00934 -1.84267,1.00934 0,0 -0.92666,0.48 -1.86133,0.89466 -0.74533,0.336 -1.48533,0.628 -1.76,0.73467 0.3,0.0387 1.108,0.15067 1.89333,0.31067 0.99734,0.192 2,0.44666 2,0.44666 0,0 1.00134,0.24934 2.00667,0.56267 0.50133,0.16533 1.004,0.32933 1.38,0.45333 0.18667,0.0667 0.34533,0.12267 0.45467,0.16134 0.0547,0.02 0.0973,0.036 0.12666,0.0467 0.0147,0.005 0.0267,0.009 0.0347,0.012 l 0.008,0.004 h 0.003 c -0.003,0.13334 -0.004,0.2 -0.004,0.2 z m -24.96934,-44.756 c -24.568,0 -44.556,19.988 -44.556,44.556 0,24.568 19.988,44.556 44.556,44.556 24.568,0 44.556,-19.988 44.556,-44.556 0,-24.568 -19.988,-44.556 -44.556,-44.556"
     inkscape:connector-curvature="0" /><path
     id="path1556"
     style="fill:#5b5e60;fill-opacity:1;fill-rule:nonzero;stroke:none;stroke-width:0.13333333"
     d="m 431.00905,460.70666 c -24.568,0 -44.556,-19.988 -44.556,-44.556 0,-24.568 19.988,-44.556 44.556,-44.556 24.568,0 44.556,19.988 44.556,44.556 0,24.568 -19.988,44.556 -44.556,44.556 z m 0,-93.112 c -26.77333,0 -48.556,21.78267 -48.556,48.556 0,26.77467 21.78267,48.556 48.556,48.556 26.77334,0 48.556,-21.78133 48.556,-48.556 0,-26.77333 -21.78266,-48.556 -48.556,-48.556"
     inkscape:connector-curvature="0" /><path
     id="path1558"
     style="fill:#ffffff;fill-opacity:1;fill-rule:nonzero;stroke:none;stroke-width:0.13333333"
     d="m 431.00905,423.13333 c -3.85066,0 -6.98266,-3.132 -6.98266,-6.98267 0,-3.85066 3.132,-6.98266 6.98266,-6.98266 3.85067,0 6.98267,3.132 6.98267,6.98266 0,3.85067 -3.132,6.98267 -6.98267,6.98267 z m 17.052,-7.29733 c -0.0107,-0.18934 -0.0227,-0.44134 -0.0373,-0.69467 -0.0107,-0.252 -0.0227,-0.50533 -0.0307,-0.69333 -0.012,-0.12 -0.024,-0.19867 -0.0333,-0.25067 h -10e-4 c 0,0 -0.004,-0.0213 -0.004,-0.0293 -0.003,-0.008 -0.007,-0.032 -0.007,-0.032 h 0.001 c -0.044,-0.29734 -0.288,-1.93067 -0.34666,-1.91867 0,0 -0.12267,-0.488 -0.248,-0.97467 -0.11467,-0.396 -0.25867,-0.76533 -0.30934,-0.89066 h -0.001 c 0,0 -0.005,-0.02 -0.008,-0.024 -0.004,-0.0107 -0.0133,-0.0347 -0.0133,-0.0347 h 0.001 c -0.0427,-0.128 -0.17467,-0.50133 -0.332,-0.88267 -0.22,-0.45333 -0.44,-0.90666 -0.44,-0.90666 0.0493,-0.0267 -0.808,-1.436 -0.96533,-1.69467 l -0.004,-0.007 c -0.012,-0.02 -0.028,-0.0467 -0.028,-0.0467 l 10e-4,-10e-4 c -0.0267,-0.0453 -0.0667,-0.11333 -0.13867,-0.21066 -0.11466,-0.15067 -0.26666,-0.352 -0.41733,-0.55334 -0.152,-0.20266 -0.30133,-0.40533 -0.41467,-0.556 -0.10666,-0.15733 -0.19866,-0.24533 -0.19866,-0.24533 0,0 -1.11334,-1.236 -1.344,-1.42133 0,0.001 -0.004,0.007 -0.004,0.007 0,0 -0.024,-0.0213 -0.044,-0.04 l -0.003,-10e-4 c -0.1,-0.0933 -0.39333,-0.36 -0.69867,-0.63867 -0.38266,-0.328 -0.79866,-0.61466 -0.79866,-0.61466 0,0 -0.39067,-0.32134 -0.81867,-0.58934 -0.352,-0.21466 -0.692,-0.42 -0.808,-0.48933 l -0.001,-0.001 c -0.024,-0.0147 -0.052,-0.032 -0.052,-0.032 l 0.005,-0.005 c -0.24133,-0.168 -1.74267,-0.88 -1.74267,-0.88 0,0 -0.10933,-0.064 -0.28933,-0.12133 -0.17733,-0.064 -0.41333,-0.14933 -0.65067,-0.23467 -0.236,-0.088 -0.47066,-0.17466 -0.648,-0.24133 -0.112,-0.044 -0.18933,-0.064 -0.24133,-0.0747 v 0.003 c 0,0 -0.0267,-0.008 -0.0413,-0.012 -0.004,0 -0.02,-0.003 -0.02,-0.003 v -10e-4 c -0.29067,-0.0773 -1.89334,-0.49733 -1.844,-0.428 0,0 -0.43867,-0.0733 -0.87867,-0.14667 -0.17733,-0.0533 -0.548,-0.052 -0.76667,-0.0667 -0.148,-0.008 -0.244,-0.0133 -0.30933,-0.016 0,0 -0.54533,-0.028 -1.12133,-0.0573 l -0.0213,10e-4 -0.0933,0.005 -0.18267,0.0107 c -0.11733,0.007 -0.228,0.0133 -0.32266,0.0187 -0.18934,0.009 -0.31467,0.016 -0.31467,0.016 0,0 -0.12667,0.005 -0.316,0.0147 -0.188,0.0133 -0.444,0.003 -0.69067,0.0573 -0.408,0.0627 -0.8,0.12267 -0.93333,0.144 v 0 c 0,0 -0.004,10e-4 -0.004,0 -0.0267,0.005 -0.0587,0.009 -0.0587,0.009 0,0 0,-0.007 0.001,-0.008 -0.296,0.0267 -1.9,0.44666 -1.9,0.44666 0,-10e-4 -0.12667,0.0173 -0.30134,0.0867 -0.176,0.0667 -0.412,0.15333 -0.648,0.24133 -0.23733,0.0853 -0.47333,0.17067 -0.65066,0.23467 -0.116,0.0373 -0.188,0.0693 -0.23467,0.0933 0,0 -0.007,0.003 -0.008,0.003 -0.02,0.0107 -0.048,0.0253 -0.048,0.0253 v -0.001 c -0.27067,0.12667 -1.764,0.836 -1.73733,0.88667 0,0 -0.43067,0.26133 -0.86134,0.52133 -0.35066,0.22133 -0.66266,0.468 -0.768,0.552 l 0.001,10e-4 c 0,0 -0.02,0.0133 -0.0253,0.0187 -0.007,0.005 -0.0253,0.0187 -0.0253,0.0187 l -10e-4,-10e-4 c -0.108,0.0787 -0.43067,0.31334 -0.752,0.57334 -0.372,0.34 -0.74534,0.68133 -0.74534,0.68133 -0.0387,-0.04 -1.14933,1.18533 -1.352,1.40933 l 0.001,0.001 c 0,0 -0.0107,0.0107 -0.0133,0.0133 -0.0107,0.0107 -0.0307,0.032 -0.0307,0.032 v -0.001 c -0.0387,0.0387 -0.0907,0.096 -0.16134,0.196 -0.112,0.15066 -0.26266,0.35466 -0.412,0.556 -0.152,0.20133 -0.304,0.404 -0.41866,0.55466 -0.12,0.14534 -0.17467,0.26134 -0.17467,0.26134 0,0 -0.864,1.41466 -0.97867,1.68933 10e-4,0 0.008,10e-4 0.008,10e-4 0,0 -0.0147,0.0293 -0.0267,0.056 l -10e-4,10e-4 c -0.0587,0.124 -0.23066,0.48 -0.41066,0.84933 -0.204,0.46 -0.35867,0.94 -0.35867,0.94 0,0 -0.19333,0.46533 -0.332,0.94933 -0.10133,0.39867 -0.2,0.78134 -0.23333,0.91334 0,0 -0.004,0.0187 -0.005,0.0227 -0.003,0.0107 -0.009,0.0387 -0.009,0.0387 -0.0133,0.0507 -0.0347,0.12667 -0.0653,0.244 -0.0613,0.18933 -0.0893,0.41067 -0.11867,0.628 -0.0733,0.44 -0.14533,0.87867 -0.14533,0.87867 10e-4,0.007 -0.0253,0.0933 -0.0467,0.29066 -0.012,0.23334 -0.028,0.54267 -0.044,0.852 -0.0213,0.44267 -0.044,0.876 -0.0547,1.092 0.007,0.12 0.0293,0.52934 0.0533,0.95734 0.0107,0.252 0.0213,0.50533 0.0307,0.69466 0.0187,0.188 0.0453,0.31067 0.0453,0.31067 0,0 0.248,1.64667 0.33733,1.924 10e-4,-10e-4 0.008,-0.004 0.008,-0.004 0,0 0.008,0.0307 0.0147,0.0573 v 0.003 c 0.0333,0.12933 0.132,0.51467 0.23333,0.91467 0.13867,0.48266 0.332,0.94933 0.332,0.94933 0,0 0.15467,0.48 0.35867,0.93867 0.22,0.45333 0.43866,0.90666 0.43866,0.90666 0,0 -0.007,0.001 -0.008,0.001 0.112,0.27333 0.97867,1.69066 0.97867,1.69066 0,0 0.0547,0.11467 0.17467,0.26134 0.11466,0.15066 0.26666,0.352 0.41866,0.55333 0.14934,0.20267 0.3,0.40533 0.412,0.55733 0.0707,0.1 0.12534,0.15867 0.16134,0.196 l 10e-4,-0.003 c 0,0 0.0213,0.024 0.0387,0.0413 0,10e-4 0.004,0.005 0.004,0.005 0.19866,0.22134 1.312,1.44934 1.35066,1.41067 0,0 0.37334,0.34 0.74667,0.68 0.32,0.26133 0.64267,0.49467 0.75067,0.57467 l 10e-4,-0.003 c 0,0 0.0187,0.0147 0.0267,0.0213 0.005,0.004 0.024,0.016 0.024,0.016 l -0.001,10e-4 c 0.10534,0.0853 0.41734,0.33066 0.768,0.552 0.43067,0.26133 0.86134,0.52133 0.86134,0.52133 -0.0267,0.052 1.46666,0.76 1.73733,0.888 v -0.001 c 0,0 0.028,0.0133 0.048,0.024 0.001,0 0.008,0.004 0.008,0.004 0.0467,0.0227 0.11867,0.056 0.23467,0.092 0.17733,0.064 0.41333,0.14933 0.65066,0.23466 0.236,0.088 0.472,0.176 0.648,0.24134 0.176,0.0707 0.30134,0.088 0.30134,0.088 0,0 1.56266,0.40666 1.84533,0.43866 0,-10e-4 0,-0.009 0,-0.009 0,0 0.0267,0.004 0.048,0.007 0,0 0.007,0.001 0.007,0 v 0.001 c 0.11733,0.02 0.46266,0.0773 0.82266,0.13733 0.17867,0.0533 0.54934,0.052 0.76667,0.068 0.23333,0.012 0.388,0.0187 0.388,0.0187 0,0 0.516,0.0267 1.03333,0.0547 0.41334,-0.0227 0.81067,-0.044 0.94534,-0.052 v -10e-4 c 0,0 0.12666,-0.005 0.316,-0.0147 0.188,-0.0133 0.444,-0.003 0.69066,-0.0573 0.49734,-0.076 0.99467,-0.15333 0.99467,-0.15333 0.0133,0.0587 1.608,-0.36 1.89867,-0.436 v -10e-4 c 0,0 0.0173,-0.004 0.02,-0.004 0.0147,-0.004 0.0413,-0.0107 0.0413,-0.0107 v 0.003 c 0.052,-0.012 0.12933,-0.0307 0.24133,-0.076 0.17734,-0.0653 0.412,-0.15334 0.648,-0.24134 0.23734,-0.0853 0.47334,-0.17066 0.65067,-0.23466 0.18,-0.056 0.28933,-0.12 0.28933,-0.12 0,0 1.50134,-0.71467 1.74267,-0.88134 l -0.005,-0.005 c 0,0 0.028,-0.0173 0.052,-0.0307 l 10e-4,-10e-4 c 0.116,-0.0707 0.45733,-0.276 0.80933,-0.49067 0.42667,-0.268 0.81734,-0.588 0.81734,-0.58933 0,0 0.416,-0.28667 0.79866,-0.61467 0.30534,-0.27733 0.59867,-0.54533 0.69867,-0.63733 l 0.003,-0.003 c 0.02,-0.0173 0.044,-0.04 0.044,-0.04 l 0.004,0.007 c 0.23066,-0.18533 1.344,-1.42133 1.344,-1.42133 0,0 0.092,-0.088 0.19866,-0.244 0.11334,-0.152 0.26267,-0.35467 0.41334,-0.55734 0.152,-0.20133 0.304,-0.40133 0.41866,-0.55333 0.072,-0.0973 0.112,-0.16533 0.13867,-0.21067 h -10e-4 c 0,0 0.012,-0.0213 0.016,-0.0293 0.004,-0.005 0.0147,-0.0253 0.0147,-0.0253 l 0.001,10e-4 c 0.15466,-0.256 1.01466,-1.66933 0.96666,-1.696 0,0 0.21867,-0.452 0.43867,-0.90533 0.15733,-0.38134 0.28933,-0.756 0.332,-0.884 h -0.001 c 0,0 0.009,-0.0227 0.0133,-0.032 0.003,-0.007 0.008,-0.0267 0.008,-0.0267 l 10e-4,10e-4 c 0.052,-0.12533 0.19467,-0.49466 0.30934,-0.89066 0.12533,-0.488 0.248,-0.976 0.248,-0.976 0.064,-0.0493 0.29066,-1.48534 0.33066,-1.74934 0,-0.001 -10e-4,-0.001 -10e-4,-0.001 -10e-4,-0.003 0.005,-0.028 0.0107,-0.0533 v -10e-4 c 0.009,-0.044 0.0227,-0.11066 0.0373,-0.236 0.0107,-0.232 0.0267,-0.54266 0.0427,-0.852 0.0213,-0.43866 0.044,-0.864 0.0547,-1.084 0,-0.0133 -10e-4,-0.024 -0.003,-0.0427 -0.003,-0.0547 -0.008,-0.13334 -0.0133,-0.228"
     inkscape:connector-curvature="0" /><path
     id="path1560"
     style="fill:#ffffff;fill-opacity:1;fill-rule:nonzero;stroke:none;stroke-width:0.13333333"
     d="m 431.00905,399.08 h -10e-4 c 0.0413,0.001 0.0667,0.001 10e-4,0"
     inkscape:connector-curvature="0" /><path
     id="path1562"
     style="fill:#ffffff;fill-opacity:1;fill-rule:nonzero;stroke:none;stroke-width:0.13333333"
     d="m 430.81972,399.076 h -0.009 c -0.005,0 0.0107,0 0.016,0 h -0.007"
     inkscape:connector-curvature="0" /><path
     id="path1564"
     style="fill:#5b5e60;fill-opacity:1;fill-rule:nonzero;stroke:none;stroke-width:0.13333333"
     d="m 448.02239,417.19066 c -0.016,0.30934 -0.032,0.62 -0.0427,0.852 -0.0147,0.12534 -0.028,0.192 -0.0373,0.236 v 10e-4 c -0.005,0.0253 -0.012,0.0507 -0.0107,0.0533 0,0 10e-4,0 10e-4,10e-4 -0.04,0.264 -0.26666,1.7 -0.33066,1.74934 0,0 -0.12267,0.488 -0.248,0.976 -0.11467,0.396 -0.25734,0.76533 -0.30934,0.89066 l -10e-4,-10e-4 c 0,0 -0.005,0.02 -0.008,0.0267 -0.004,0.009 -0.0133,0.032 -0.0133,0.032 h 0.001 c -0.0427,0.128 -0.17467,0.50266 -0.332,0.884 -0.22,0.45333 -0.43867,0.90533 -0.43867,0.90533 0.048,0.0267 -0.812,1.44 -0.96666,1.696 l -0.001,-0.001 c 0,0 -0.0107,0.02 -0.0147,0.0253 -0.004,0.008 -0.016,0.0293 -0.016,0.0293 h 10e-4 c -0.0267,0.0453 -0.0667,0.11334 -0.13867,0.21067 -0.11466,0.152 -0.26666,0.352 -0.41866,0.55333 -0.15067,0.20267 -0.3,0.40534 -0.41334,0.55734 -0.10666,0.156 -0.19866,0.244 -0.19866,0.244 0,0 -1.11334,1.236 -1.344,1.42133 l -0.004,-0.007 c 0,0 -0.024,0.0227 -0.044,0.04 l -0.003,0.003 c -0.1,0.092 -0.39333,0.36 -0.69867,0.63733 -0.38266,0.328 -0.79866,0.61467 -0.79866,0.61467 0,0.001 -0.39067,0.32133 -0.81734,0.58933 -0.352,0.21467 -0.69333,0.42 -0.80933,0.49067 l -10e-4,0.001 c -0.024,0.0133 -0.052,0.0307 -0.052,0.0307 l 0.005,0.005 c -0.24133,0.16667 -1.74267,0.88134 -1.74267,0.88134 0,0 -0.10933,0.064 -0.28933,0.12 -0.17733,0.064 -0.41333,0.14933 -0.65067,0.23466 -0.236,0.088 -0.47066,0.176 -0.648,0.24134 -0.112,0.0453 -0.18933,0.064 -0.24133,0.076 v -0.003 c 0,0 -0.0267,0.007 -0.0413,0.0107 -0.003,0 -0.02,0.004 -0.02,0.004 v 0.001 c -0.29067,0.076 -1.88534,0.49467 -1.89867,0.436 0,0 -0.49733,0.0773 -0.99467,0.15333 -0.24666,0.0547 -0.50266,0.044 -0.69066,0.0573 -0.18934,0.009 -0.316,0.0147 -0.316,0.0147 v 0.001 c -0.13467,0.008 -0.532,0.0293 -0.94534,0.052 -0.51733,-0.028 -1.03333,-0.0547 -1.03333,-0.0547 0,0 -0.15467,-0.007 -0.388,-0.0187 -0.21733,-0.016 -0.588,-0.0147 -0.76667,-0.068 -0.36,-0.06 -0.70533,-0.11733 -0.82266,-0.13733 v -10e-4 c 0,10e-4 -0.007,0 -0.007,0 -0.0213,-0.003 -0.048,-0.007 -0.048,-0.007 0,0 0,0.008 0,0.009 -0.28267,-0.032 -1.84533,-0.43866 -1.84533,-0.43866 0,0 -0.12534,-0.0173 -0.30134,-0.088 -0.176,-0.0653 -0.412,-0.15334 -0.648,-0.24134 -0.23733,-0.0853 -0.47333,-0.17066 -0.65066,-0.23466 -0.116,-0.036 -0.188,-0.0693 -0.23467,-0.092 0,0 -0.007,-0.004 -0.008,-0.004 -0.02,-0.0107 -0.048,-0.024 -0.048,-0.024 v 10e-4 c -0.27067,-0.128 -1.764,-0.836 -1.73733,-0.888 0,0 -0.43067,-0.26 -0.86134,-0.52133 -0.35066,-0.22134 -0.66266,-0.46667 -0.768,-0.552 l 0.001,-0.001 c 0,0 -0.0187,-0.012 -0.024,-0.016 -0.008,-0.007 -0.0267,-0.0213 -0.0267,-0.0213 l -10e-4,0.003 c -0.108,-0.08 -0.43067,-0.31334 -0.75067,-0.57467 -0.37333,-0.34 -0.74667,-0.68 -0.74667,-0.68 -0.0387,0.0387 -1.152,-1.18933 -1.35066,-1.41067 0,0 -0.004,-0.004 -0.004,-0.005 -0.0173,-0.0173 -0.0387,-0.0413 -0.0387,-0.0413 l -10e-4,0.003 c -0.036,-0.0373 -0.0907,-0.096 -0.16134,-0.196 -0.112,-0.152 -0.26266,-0.35466 -0.412,-0.55733 -0.152,-0.20133 -0.304,-0.40267 -0.41866,-0.55333 -0.12,-0.14667 -0.17467,-0.26134 -0.17467,-0.26134 0,0 -0.86667,-1.41733 -0.97867,-1.69066 0.001,0 0.008,-10e-4 0.008,-10e-4 0,0 -0.21866,-0.45333 -0.43866,-0.90666 -0.204,-0.45867 -0.35867,-0.93867 -0.35867,-0.93867 0,0 -0.19333,-0.46667 -0.332,-0.94933 -0.10133,-0.4 -0.2,-0.78534 -0.23333,-0.91467 v -0.003 c -0.007,-0.0267 -0.0147,-0.0573 -0.0147,-0.0573 0,0 -0.007,0.003 -0.008,0.004 -0.0893,-0.27733 -0.33733,-1.924 -0.33733,-1.924 0,0 -0.0267,-0.12267 -0.0453,-0.31067 -0.009,-0.18933 -0.02,-0.44266 -0.0307,-0.69466 -0.024,-0.428 -0.0467,-0.83734 -0.0533,-0.95734 0.0107,-0.216 0.0333,-0.64933 0.0547,-1.092 0.016,-0.30933 0.032,-0.61866 0.044,-0.852 0.0213,-0.19733 0.048,-0.284 0.0467,-0.29066 0,0 0.072,-0.43867 0.14533,-0.87867 0.0293,-0.21733 0.0573,-0.43867 0.11867,-0.628 0.0307,-0.11733 0.052,-0.19333 0.0653,-0.244 0,0 0.007,-0.028 0.009,-0.0387 10e-4,-0.004 0.005,-0.0227 0.005,-0.0227 0.0333,-0.132 0.132,-0.51467 0.23333,-0.91334 0.13867,-0.484 0.332,-0.94933 0.332,-0.94933 0,0 0.15467,-0.48 0.35867,-0.94 0.18,-0.36933 0.352,-0.72533 0.41066,-0.84933 l 10e-4,-10e-4 c 0.012,-0.0267 0.0267,-0.056 0.0267,-0.056 0,0 -0.007,-0.001 -0.008,-0.001 0.11467,-0.27467 0.97867,-1.68933 0.97867,-1.68933 0,0 0.0547,-0.116 0.17467,-0.26134 0.11466,-0.15066 0.26666,-0.35333 0.41866,-0.55466 0.14934,-0.20134 0.3,-0.40534 0.412,-0.556 0.0707,-0.1 0.12267,-0.15734 0.16134,-0.196 v 10e-4 c 0,0 0.02,-0.0213 0.0307,-0.032 0.003,-0.003 0.0133,-0.0133 0.0133,-0.0133 l -0.001,-10e-4 c 0.20267,-0.224 1.31334,-1.44933 1.352,-1.40933 0,0 0.37334,-0.34133 0.74534,-0.68133 0.32133,-0.26 0.644,-0.49467 0.752,-0.57334 l 10e-4,0.001 c 0,0 0.0187,-0.0133 0.0253,-0.0187 0.005,-0.005 0.0253,-0.0187 0.0253,-0.0187 l -0.001,-0.001 c 0.10534,-0.084 0.41734,-0.33067 0.768,-0.552 0.43067,-0.26 0.86134,-0.52133 0.86134,-0.52133 -0.0267,-0.0507 1.46666,-0.76 1.73733,-0.88667 v 10e-4 c 0,0 0.028,-0.0147 0.048,-0.0253 10e-4,0 0.008,-0.003 0.008,-0.003 0.0467,-0.024 0.11867,-0.056 0.23467,-0.0933 0.17733,-0.064 0.41333,-0.14933 0.65066,-0.23467 0.236,-0.088 0.472,-0.17466 0.648,-0.24133 0.17467,-0.0693 0.30134,-0.088 0.30134,-0.0867 0,0 1.604,-0.42 1.9,-0.44666 -0.001,10e-4 -0.001,0.008 -0.001,0.008 0,0 0.032,-0.004 0.0587,-0.009 0,0.001 0.004,0 0.004,0 v 0 c 0.13333,-0.0213 0.52533,-0.0813 0.93333,-0.144 0.24667,-0.0547 0.50267,-0.044 0.69067,-0.0573 0.18933,-0.009 0.316,-0.0147 0.316,-0.0147 0,0 0.12533,-0.007 0.31467,-0.016 0.0947,-0.005 0.20533,-0.012 0.32266,-0.0187 l 0.18267,-0.0107 0.0933,-0.005 0.0213,-0.001 c 0.576,0.0293 1.12133,0.0573 1.12133,0.0573 0.0653,0.003 0.16133,0.008 0.30933,0.016 0.21867,0.0147 0.58934,0.0133 0.76667,0.0667 0.44,0.0733 0.87867,0.14667 0.87867,0.14667 -0.0493,-0.0693 1.55333,0.35067 1.844,0.428 v 0.001 c 0,0 0.016,0.003 0.02,0.003 0.0147,0.004 0.0413,0.012 0.0413,0.012 v -0.003 c 0.052,0.0107 0.12933,0.0307 0.24133,0.0747 0.17734,0.0667 0.412,0.15333 0.648,0.24133 0.23734,0.0853 0.47334,0.17067 0.65067,0.23467 0.18,0.0573 0.28933,0.12133 0.28933,0.12133 0,0 1.50134,0.712 1.74267,0.88 l -0.005,0.005 c 0,0 0.028,0.0173 0.052,0.032 l 0.001,10e-4 c 0.116,0.0693 0.456,0.27467 0.808,0.48933 0.428,0.268 0.81867,0.58934 0.81867,0.58934 0,0 0.416,0.28666 0.79866,0.61466 0.30534,0.27867 0.59867,0.54534 0.69867,0.63867 l 0.003,0.001 c 0.02,0.0187 0.044,0.04 0.044,0.04 0,0 0.004,-0.005 0.004,-0.007 0.23066,0.18533 1.344,1.42133 1.344,1.42133 0,0 0.092,0.088 0.19866,0.24533 0.11334,0.15067 0.26267,0.35334 0.41467,0.556 0.15067,0.20134 0.30267,0.40267 0.41733,0.55334 0.072,0.0973 0.112,0.16533 0.13867,0.21066 l -10e-4,10e-4 c 0,0 0.016,0.0267 0.028,0.0467 l 0.004,0.007 c 0.15733,0.25867 1.01466,1.668 0.96533,1.69467 0,0 0.22,0.45333 0.44,0.90666 0.15733,0.38134 0.28933,0.75467 0.332,0.88267 h -0.001 c 0,0 0.009,0.024 0.0133,0.0347 0.003,0.004 0.008,0.024 0.008,0.024 h 0.001 c 0.0507,0.12533 0.19467,0.49466 0.30934,0.89066 0.12533,0.48667 0.248,0.97467 0.248,0.97467 0.0587,-0.012 0.30266,1.62133 0.34666,1.91867 h -0.001 c 0,0 0.004,0.024 0.007,0.032 0,0.008 0.004,0.0293 0.004,0.0293 h 10e-4 c 0.009,0.052 0.0213,0.13067 0.0333,0.25067 0.008,0.188 0.02,0.44133 0.0307,0.69333 0.0147,0.25333 0.0267,0.50533 0.0373,0.69467 0.005,0.0947 0.0107,0.17333 0.0133,0.228 0.001,0.0187 0.003,0.0293 0.003,0.0427 -0.0107,0.22 -0.0333,0.64534 -0.0547,1.084 z M 430.81172,399.076 h 0.0147 c -0.005,0 -0.0213,0 -0.016,0 z m 0.19733,0.004 c 0.0653,0.001 0.04,0.001 -10e-4,0 z m 24.96267,17.06666 c -0.008,-0.003 -0.02,-0.007 -0.0347,-0.012 -0.0293,-0.0107 -0.072,-0.0267 -0.12666,-0.0467 -0.10934,-0.0387 -0.268,-0.0947 -0.45467,-0.16134 -0.376,-0.124 -0.87867,-0.288 -1.38,-0.45333 -1.00533,-0.31333 -2.00667,-0.56267 -2.00667,-0.56267 0,0 -1.00266,-0.25466 -2,-0.44666 -0.78533,-0.16 -1.59333,-0.272 -1.89333,-0.31067 0.27467,-0.10667 1.01467,-0.39867 1.76,-0.73467 0.93467,-0.41466 1.86133,-0.89466 1.86133,-0.89466 0,0 0.928,-0.47334 1.84267,-1.00934 0.88533,-0.52533 1.75467,-1.11333 1.75467,-1.11333 0,10e-4 -1.05334,-0.13333 -2.09067,-0.204 -1.04133,-0.076 -2.064,-0.0907 -2.064,-0.0907 0,0 -1.024,-0.02 -2.068,0.0347 -0.82533,0.036 -1.628,0.11067 -1.92267,0.14 0.244,-0.168 0.90534,-0.62667 1.56,-1.12933 0.82934,-0.62667 1.61067,-1.304 1.61067,-1.304 0,0 0.776,-0.668 1.52267,-1.39467 0.75066,-0.72 1.47066,-1.5 1.47066,-1.5 0,0.001 -1.04666,0.10933 -2.06133,0.27733 -1.04,0.172 -2.05733,0.40667 -2.05733,0.40667 0,0 -1.01867,0.22667 -2.00134,0.51067 -0.788,0.22 -1.54133,0.47333 -1.82,0.568 0.18667,-0.20667 0.732,-0.80934 1.248,-1.45334 0.64267,-0.78933 1.24934,-1.62933 1.24934,-1.62933 0,0 0.608,-0.836 1.17733,-1.72267 0.58,-0.88666 1.092,-1.80133 1.092,-1.80133 0,0 -1.004,0.35867 -1.96933,0.76667 -0.96667,0.404 -1.892,0.85466 -1.892,0.85466 0,0 -0.928,0.44534 -1.81467,0.94134 -0.724,0.40533 -1.412,0.83333 -1.664,0.992 0.14267,-0.25867 0.524,-0.96134 0.88133,-1.7 0.45334,-0.924 0.85867,-1.89067 0.85867,-1.89067 0,0 0.40933,-0.964 0.74267,-1.936 0.34533,-0.976 0.63866,-1.99067 0.63866,-1.99067 0,0 -0.888,0.57067 -1.72533,1.17867 -0.836,0.59467 -1.64533,1.26533 -1.64533,1.26533 0,0 -0.812,0.66134 -1.56667,1.35867 -0.62533,0.56933 -1.19067,1.13467 -1.38133,1.32933 0.0813,-0.28666 0.29733,-1.068 0.48,-1.87866 0.22,-0.988 0.384,-2.00534 0.384,-2.00534 0,0 0.168,-1.01466 0.27866,-2.05866 0.116,-1.04 0.172,-2.10667 0.172,-2.10667 0,0 -0.73066,0.752 -1.416,1.56133 -0.68666,0.8 -1.31333,1.62267 -1.31333,1.62267 0,0 -0.632,0.82133 -1.20133,1.66267 -0.456,0.66 -0.87867,1.35333 -1.03334,1.612 0.0107,-0.29467 0.0347,-1.08934 0.0213,-1.90534 -0.012,-1.02266 -0.0867,-2.06133 -0.0867,-2.06133 0,0 -0.068,-1.03867 -0.20133,-2.08933 -0.13867,-1.03067 -0.38134,-2.064 -0.38134,-2.064 0,0 -0.556,0.91466 -1.016,1.844 -0.46933,0.92933 -0.84266,1.86933 -0.84266,1.86933 l -1.392,3.73467 -1.00667,-3.88534 c 0,0 -0.30533,-0.97466 -0.67333,-1.94666 -0.364,-0.972 -0.78934,-1.94 -0.78934,-1.94 0,0 -0.316,1.00533 -0.56666,2.008 -0.25734,0.99066 -0.44667,2.02933 -0.44667,2.02933 0,0 -0.196,1.02933 -0.32933,2.048 -0.10934,0.81333 -0.18,1.60933 -0.20267,1.904 -0.124,-0.272 -0.46,-1.00933 -0.84,-1.74667 -0.46667,-0.904 -0.99333,-1.78533 -0.99333,-1.78533 0,0 -0.524,-0.88533 -1.10934,-1.75467 -0.58,-0.87066 -1.22133,-1.72266 -1.22133,-1.72266 0,0 -0.08,1.036 -0.0827,2.1 -0.0133,1.056 0.036,2.08933 0.036,2.08933 0,0 0.0453,1.036 0.14934,2.04933 0.0747,0.80267 0.19466,1.59867 0.24133,1.89334 -0.16533,-0.21334 -0.656,-0.83867 -1.20667,-1.472 -0.66666,-0.776 -1.39066,-1.524 -1.39066,-1.524 0,0 -0.71867,-0.74934 -1.496,-1.46934 -0.764,-0.71066 -1.57334,-1.368 -1.57334,-1.368 0.001,0 0.176,1.048 0.408,2.064 0.22534,1.01867 0.50667,2.00267 0.50667,2.00267 0,10e-4 0.27333,0.98533 0.62533,1.96933 0.27067,0.78267 0.57067,1.53067 0.68267,1.80534 -0.21067,-0.172 -0.83867,-0.67467 -1.528,-1.17334 -0.83733,-0.61333 -1.71067,-1.16933 -1.71067,-1.16933 0,0 -0.86133,-0.552 -1.772,-1.06133 -0.904,-0.51334 -1.856,-0.98134 -1.856,-0.98134 0,0 0.404,0.96934 0.85334,1.896 0.464,0.94934 0.97733,1.856 0.97733,1.856 0,0 0.508,0.91067 1.05867,1.77334 0.43466,0.69066 0.89066,1.344 1.06,1.58266 -0.27067,-0.13066 -1.00134,-0.47866 -1.74667,-0.78266 -0.93867,-0.392 -1.91733,-0.732 -1.91733,-0.732 0,0 -0.97467,-0.348 -1.98667,-0.64134 -1.01733,-0.30533 -2.03467,-0.53333 -2.036,-0.53333 0,0 0.62933,0.86133 1.29467,1.66933 0.66133,0.81334 1.35733,1.57067 1.35733,1.57067 0,0 0.68933,0.76133 1.42,1.472 0.60933,0.59333 1.21467,1.128 1.424,1.31067 -0.28933,-0.064 -1.07067,-0.22934 -1.88,-0.36 -1.01467,-0.17067 -2.05733,-0.28267 -2.05733,-0.28267 0.001,0 -1.04,-0.11733 -2.06667,-0.15867 -1.03333,-0.0507 -2.08933,-0.0413 -2.08933,-0.0413 0,0 0.8,0.68933 1.62266,1.31733 0.81067,0.63067 1.68134,1.21334 1.68134,1.212 0,0 0.868,0.588 1.75466,1.112 0.70534,0.424 1.41067,0.80267 1.67067,0.94 -0.29733,0.004 -1.10667,0.0227 -1.93467,0.0813 -1.02133,0.0587 -2.036,0.208 -2.036,0.208 0,0 -1.02133,0.14133 -2.056,0.38 -1.03333,0.228 -2.072,0.55466 -2.072,0.55466 -0.044,0.11067 3.84534,1.528 3.844,1.528 l 3.572,1.324 c -0.364,0.0987 -0.99333,0.27467 -1.628,0.47867 -0.97333,0.30667 -1.944,0.67733 -1.944,0.67733 0,0 -0.97066,0.364 -1.936,0.79334 -0.98,0.42133 -1.892,0.904 -1.892,0.904 0,0 1.036,0.25333 2.064,0.44133 1.02934,0.19467 2.048,0.32533 2.048,0.32533 0,0 1.012,0.13867 2.036,0.208 0.82934,0.0573 1.63867,0.076 1.936,0.08 -0.26,0.13734 -0.96666,0.516 -1.672,0.94 -0.88666,0.524 -1.75466,1.112 -1.75466,1.112 0,0 -0.87067,0.58134 -1.68134,1.212 -0.82266,0.628 -1.62266,1.31734 -1.62266,1.31734 0,0 1.056,0.0107 2.08933,-0.04 1.02667,-0.0427 2.068,-0.16 2.06667,-0.16 0,0 1.04266,-0.112 2.05733,-0.28134 0.81067,-0.132 1.59333,-0.29866 1.88133,-0.36133 -0.20666,0.18133 -0.81333,0.716 -1.42533,1.31067 -0.73067,0.71066 -1.42,1.472 -1.42,1.472 0,0 -0.696,0.75733 -1.35733,1.57066 -0.66534,0.808 -1.29467,1.66934 -1.29467,1.66934 0.001,0 1.01867,-0.228 2.036,-0.53334 1.012,-0.29333 1.98667,-0.64 1.98667,-0.64 0,0 0.97866,-0.34133 1.91733,-0.73333 0.74667,-0.30533 1.48133,-0.65467 1.74933,-0.784 -0.16933,0.23733 -0.62666,0.892 -1.06266,1.584 -0.55067,0.86267 -1.05867,1.77333 -1.05867,1.77333 0,0 -0.51333,0.908 -0.976,1.856 -0.45067,0.92667 -0.85467,1.89734 -0.85467,1.89734 0,0 0.952,-0.46934 1.856,-0.98267 0.91067,-0.50933 1.772,-1.06 1.772,-1.06 0,0 0.87334,-0.55733 1.71067,-1.17067 0.68933,-0.49733 1.31733,-1.00133 1.528,-1.172 -0.112,0.27467 -0.412,1.02267 -0.68267,1.804 -0.352,0.98534 -0.62533,1.96934 -0.62533,1.96934 0,0 -0.28133,0.984 -0.50667,2.004 -0.232,1.01466 -0.40666,2.06266 -0.40666,2.06266 0,0 0.80933,-0.656 1.572,-1.368 0.77733,-0.72 1.496,-1.46933 1.496,-1.46933 0,0 0.724,-0.748 1.39066,-1.524 0.55067,-0.63333 1.04134,-1.25867 1.20667,-1.472 -0.0467,0.29467 -0.16667,1.09067 -0.24133,1.89333 -0.104,1.01334 -0.14934,2.04934 -0.14934,2.04934 0,0 -0.0493,1.03466 -0.036,2.08933 0.003,1.064 0.0827,2.1 0.0827,2.1 0,0 0.64133,-0.852 1.22133,-1.72133 0.58534,-0.87067 1.10934,-1.756 1.10934,-1.756 0,0 0.52933,-0.88 0.992,-1.78534 0.37066,-0.74 0.676,-1.48266 0.78533,-1.75733 0.0187,0.29333 0.08,1.09067 0.20267,1.908 0.14266,1.02133 0.384,2.056 0.384,2.056 0,0 0.25866,1.016 0.51733,2.03333 0.26,1.00134 0.52,2.004 0.52,2.004 l 1.44,-3.888 c 0,0 0.312,-1.004 0.55867,-2.00533 0.20266,-0.8 0.36266,-1.588 0.41866,-1.87733 0.0907,0.28266 0.34134,1.05066 0.63467,1.824 0.36533,0.984 0.78667,1.90933 0.78667,1.90933 0,0 0.41733,0.93467 0.89866,1.86133 0.47467,0.92667 1.01467,1.84134 1.01467,1.84134 0,0 0.196,-1.02534 0.328,-2.05467 0.132,-1.05067 0.2,-2.08933 0.2,-2.08933 0,0 0.0747,-1.03867 0.088,-2.06134 0.012,-0.816 -0.012,-1.61066 -0.0227,-1.904 0.15467,0.25734 0.57734,0.95067 1.03334,1.61067 0.56933,0.84267 1.20133,1.66267 1.20133,1.66267 0,0 0.62667,0.824 1.31333,1.62266 0.68534,0.80934 1.416,1.56134 1.416,1.56134 0,0 -0.056,-1.06534 -0.172,-2.10534 -0.11066,-1.044 -0.27866,-2.05866 -0.27866,-2.05866 0,0 -0.164,-1.01867 -0.384,-2.00667 -0.18267,-0.81067 -0.39867,-1.592 -0.48,-1.87867 0.19066,0.19334 0.75466,0.76 1.38133,1.33067 0.75467,0.696 1.56667,1.35867 1.56667,1.35867 -10e-4,0 0.80933,0.67066 1.64533,1.26533 0.83733,0.608 1.72667,1.17733 1.72667,1.17733 0,0 -0.29467,-1.01466 -0.64,-1.99066 -0.33334,-0.972 -0.74267,-1.936 -0.74267,-1.93467 0,0 -0.40533,-0.96667 -0.85867,-1.89067 -0.35733,-0.74 -0.73866,-1.44266 -0.88133,-1.70133 0.252,0.16 0.94,0.588 1.664,0.99333 0.88667,0.49467 1.81467,0.94 1.81467,0.94 0,0 0.92533,0.452 1.892,0.85467 0.964,0.408 1.96933,0.76667 1.96933,0.76667 0,0 -0.512,-0.91467 -1.092,-1.80134 -0.56933,-0.88666 -1.17733,-1.72266 -1.17733,-1.72266 0,0 -0.60667,-0.84 -1.24934,-1.628 -0.516,-0.64534 -1.06266,-1.24934 -1.24933,-1.45334 0.27733,0.0947 1.03333,0.34667 1.82133,0.568 0.98267,0.28267 2.00134,0.50934 2.00134,0.50934 0,0 1.01733,0.23466 2.05733,0.408 1.01467,0.16666 2.06133,0.276 2.06133,0.276 0,0 -0.72,-0.77867 -1.47066,-1.5 -0.74667,-0.72667 -1.52267,-1.39334 -1.52134,-1.39334 -10e-4,0 -0.78266,-0.67866 -1.612,-1.30533 -0.65466,-0.50267 -1.316,-0.96 -1.56,-1.128 0.29467,0.0293 1.09734,0.10267 1.92267,0.13867 1.044,0.0547 2.068,0.0347 2.068,0.0347 0,0 1.02267,-0.0133 2.064,-0.0907 1.03733,-0.0707 2.09067,-0.204 2.09067,-0.204 0,0 -0.86934,-0.588 -1.75467,-1.112 -0.912,-0.552 -1.84267,-1.01067 -1.84267,-1.01067 0,0 -0.92933,-0.46667 -1.86933,-0.836 -0.70667,-0.28533 -1.416,-0.516 -1.72533,-0.61333 0.764,-0.116 3.86666,-0.93734 3.86666,-0.93734 l 4.00934,-1.04 c 0,0 0.001,-0.0667 0.004,-0.2 h -0.003 l -0.008,-0.004"
     inkscape:connector-curvature="0" /><path
     id="path1566"
     style="fill:#3f4142;fill-opacity:1;fill-rule:nonzero;stroke:none;stroke-width:0.13333333"
     d="m 431.00905,413.168 c -1.644,0 -2.98266,1.33733 -2.98266,2.98266 0,1.64534 1.33866,2.98267 2.98266,2.98267 1.644,0 2.98267,-1.33733 2.98267,-2.98267 0,-1.64533 -1.33867,-2.98266 -2.98267,-2.98266"
     inkscape:connector-curvature="0" /><path
     id="path1568"
     style="fill:#5b5e60;fill-opacity:1;fill-rule:nonzero;stroke:none;stroke-width:0.13333333"
     d="m 431.00905,419.13333 c -1.644,0 -2.98266,-1.33733 -2.98266,-2.98267 0,-1.64533 1.33866,-2.98266 2.98266,-2.98266 1.644,0 2.98267,1.33733 2.98267,2.98266 0,1.64534 -1.33867,2.98267 -2.98267,2.98267 z m 0,-9.96533 c -3.85066,0 -6.98266,3.132 -6.98266,6.98266 0,3.85067 3.132,6.98267 6.98266,6.98267 3.85067,0 6.98267,-3.132 6.98267,-6.98267 0,-3.85066 -3.132,-6.98266 -6.98267,-6.98266"
     inkscape:connector-curvature="0" /><path
     id="path1570"
     style="fill:#414345;fill-opacity:1;fill-rule:nonzero;stroke:none;stroke-width:0.13333333"
     d="m 402.33839,53.374666 c 3.43066,-0.35066 5.63333,-1.12666 6.60533,-2.328 0.97333,-1.20133 1.46,-3.98933 1.46,-8.364 V 6.116 l -1.136,-1.336 c -1.21467,-1.430666 -2.248,-2.314666 -3.1,-2.652 -0.85067,-0.337333 -2.12667,-0.533333 -3.82933,-0.588 V 0 h 14.16266 l 32.04,39.712006 V 12.130667 c 0,-4.538667 -0.67733,-7.490667 -2.028,-8.86 C 445.62105,2.385334 443.65039,1.808 440.59705,1.54 V 0 h 19.49334 v 1.54 c -3.16134,0.324 -5.26934,1.094667 -6.324,2.309334 -1.05334,1.217333 -1.58,4 -1.58,8.349333 v 43.687999 h -1.41867 L 414.05039,10.374667 v 32.310669 c 0,4.53467 0.66133,7.49067 1.98666,8.86667 0.864,0.892 2.79467,1.49866 5.79467,1.82266 v 1.54 h -19.49333 v -1.54"
     inkscape:connector-curvature="0" /><path
     id="path1572"
     style="fill:#414345;fill-opacity:1;fill-rule:nonzero;stroke:none;stroke-width:0.13333333"
     d="m 792.96904,443.84266 c 3.05334,-0.32266 5.03067,-0.86666 5.936,-1.632 0.90667,-0.76666 1.35867,-2.708 1.35867,-5.82533 v -36.92 c 0,-2.944 -0.44533,-4.86933 -1.33733,-5.776 -0.89067,-0.904 -2.87867,-1.46533 -5.95734,-1.68133 v -1.54 h 44.09334 l 0.28266,11.87466 h -2.10666 c -0.70267,-3.65733 -1.756,-6.024 -3.16134,-7.1 -1.404,-1.07466 -4.53866,-1.61333 -9.40133,-1.61333 h -11.3 c -1.22,0 -1.97067,0.196 -2.256,0.588 -0.28533,0.392 -0.42533,1.128 -0.42533,2.208 v 18.52133 h 12.80533 c 3.54,0 5.796,-0.524 6.76667,-1.572 0.97466,-1.04933 1.75866,-3.172 2.352,-6.372 h 1.94533 v 19.17067 h -1.94533 c -0.62267,-3.216 -1.41867,-5.344 -2.39067,-6.384 -0.97333,-1.04 -3.216,-1.56 -6.728,-1.56 H 808.69438 V 438.776 c 0,1.64933 0.51866,2.62133 1.56133,2.91866 1.04133,0.29734 4.16,0.44534 9.35467,0.44534 5.628,0 9.78133,-0.61334 12.46133,-1.84267 2.67867,-1.22933 5.08533,-4.20933 7.21867,-8.93733 h 2.31066 l -3.76933,14.02266 h -44.86267 v -1.54"
     inkscape:connector-curvature="0" /><path
     id="path1574"
     style="fill:#414345;fill-opacity:1;fill-rule:nonzero;stroke:none;stroke-width:0.13333333"
     d="m 417.69705,810.79599 c 1.4,3.728 3.04667,6.7 4.936,8.916 3.292,3.864 7.37867,5.79466 12.26134,5.79466 2.644,0 4.92933,-0.836 6.86,-2.51333 1.928,-1.67467 2.89333,-4.01067 2.89333,-7.01067 0,-2.7 -0.972,-5.052 -2.912,-7.052 -1.268,-1.26933 -3.93733,-3.17466 -8.01067,-5.71333 l -7.07733,-4.41733 c -2.132,-1.35067 -3.83067,-2.716 -5.10267,-4.09334 -2.34933,-2.62133 -3.52533,-5.51333 -3.52533,-8.67466 0,-4.18667 1.392,-7.672 4.17467,-10.45467 2.784,-2.78133 6.47066,-4.17467 11.06533,-4.17467 1.89067,0 4.16667,0.46534 6.828,1.39734 2.66133,0.93333 4.18,1.39866 4.56,1.39866 1.02533,0 1.73333,-0.24133 2.12667,-0.72933 0.39066,-0.48667 0.696,-1.17333 0.912,-2.06667 h 1.70133 l 1.824,17.67067 h -1.98667 c -1.34933,-5.32267 -3.51733,-9.03867 -6.504,-11.14533 -2.98533,-2.108 -5.936,-3.16134 -8.85466,-3.16134 -2.26934,0 -4.24934,0.66934 -5.93734,2.00534 -1.688,1.33866 -2.53333,3.19466 -2.53333,5.57333 0,2.13467 0.64667,3.95733 1.94133,5.47067 1.29467,1.54 3.30534,3.14933 6.032,4.82266 l 7.288,4.49867 c 4.56267,2.81067 7.78,5.38933 9.652,7.74133 1.844,2.37734 2.768,5.188 2.768,8.42934 0,4.35066 -1.64266,7.98533 -4.924,10.90133 -3.28266,2.92 -7.47733,4.37733 -12.584,4.37733 -2.568,0 -5.24933,-0.48666 -8.044,-1.45733 -2.79733,-0.97467 -4.39866,-1.46 -4.804,-1.46 -0.972,0 -1.628,0.29733 -1.964,0.892 -0.33866,0.59333 -0.56266,1.22933 -0.66933,1.904 h -1.824 l -2.47333,-17.66933 h 1.90666"
     inkscape:connector-curvature="0" /><path
     id="path1576"
     style="fill:#414345;fill-opacity:1;fill-rule:nonzero;stroke:none;stroke-width:0.13333333"
     d="m 20.33693,387.308 v 1.54133 c -1.6484,0.0533 -2.824,0.20133 -3.526,0.44533 -1.24333,0.46 -1.86413,1.29734 -1.86413,2.512 0,0.54134 0.074,1.068 0.2224,1.58134 0.1484,0.51333 0.37133,1.17466 0.6688,1.98533 l 12.0052,31.20667 8.7712,-23.25734 -3.88267,-10.172 c -0.72933,-1.84 -1.824,-3.07066 -3.2828,-3.69333 -0.8656,-0.37867 -2.1756,-0.58133 -3.93133,-0.608 V 387.308 h 22.2248 v 1.54133 c -2.08134,0.0267 -3.51334,0.17467 -4.296,0.44533 -1.24267,0.46 -1.864,1.40534 -1.864,2.83734 0,0.48533 0.0533,0.912 0.16133,1.276 0.108,0.364 0.37867,1.11466 0.81067,2.24933 l 11.996,31.12533 10.384,-28.16666 c 0.59466,-1.59334 1,-3.012 1.21733,-4.256 0.13467,-0.70134 0.20133,-1.26934 0.20133,-1.70134 0,-1.54 -0.728,-2.608 -2.188,-3.20133 -0.81066,-0.352 -2.02666,-0.55467 -3.648,-0.608 V 387.308 h 16.47867 v 1.54133 c -1.48667,0.216 -2.62133,0.55467 -3.404,1.01333 -1.40667,0.78534 -2.46,2.13867 -3.16133,4.05867 l -8.692,24.744 -3.35067,9.548 -5.26133,14.98267 h -1.28134 l -3.62933,-9.5 L 38.6064,408.13066 25.8572,443.196 h -1.252 L 18.42026,426.004 11.4192,406.544 C 8.53426,398.52533 6.51813,393.60533 5.3708,391.784 4.22133,389.96266 2.43173,388.984 0,388.84933 V 387.308 h 20.33693"
     inkscape:connector-curvature="0" /></svg>