<?xml version="1.0" encoding="iso-8859-1"?>
<!-- Generator: Adobe Illustrator 19.0.0, SVG Export Plug-In . SVG Version: 6.00 Build 0)  -->
<svg version="1.1" id="Layer_1" xmlns="http://www.w3.org/2000/svg" xmlns:xlink="http://www.w3.org/1999/xlink" x="0px" y="0px"
	 viewBox="0 0 330 330" style="enable-background:new 0 0 330 330;" xml:space="preserve">
<g id="XMLID_1163_">
	<circle id="XMLID_1164_" style="fill:#FFDA44;" cx="165" cy="190" r="140"/>
	<g id="XMLID_1165_">
		<path id="XMLID_1166_" style="fill:#FF9811;" d="M165,50c77.32,0,140,62.68,140,140s-62.68,140-140,140"/>
	</g>
	<circle id="XMLID_1167_" style="fill:#006DF0;" cx="165" cy="190" r="110"/>
	<g id="XMLID_1168_">
		<path id="XMLID_1169_" style="fill:#003778;" d="M165,80c60.751,0,110,49.248,110,110s-49.249,110-110,110"/>
	</g>
	<circle id="XMLID_1170_" style="fill:#9DD7F5;" cx="165" cy="190" r="90"/>
	<g id="XMLID_1171_">
		<path id="XMLID_1172_" style="fill:#78B9EB;" d="M165,100c49.706,0,90,40.294,90,90s-40.294,90-90,90"/>
	</g>
	<polygon id="XMLID_1173_" style="fill:#003778;" points="181.47,173.529 165,120 148.53,173.529 95,190 148.53,206.471 165,260 
		181.47,206.471 235,190 	"/>
	<g id="XMLID_1174_">
		<polygon id="XMLID_1175_" style="fill:#001B3C;" points="181.47,173.529 165,120 165,260 181.47,206.471 235,190 		"/>
	</g>
	<circle id="XMLID_1176_" style="fill:#FFDA44;" cx="165" cy="40" r="40"/>
	<g id="XMLID_1177_">
		<path id="XMLID_1178_" style="fill:#FF9811;" d="M165,0c22.091,0,40,17.908,40,40s-17.909,40-40,40"/>
	</g>
	<g id="XMLID_1179_">
		<circle id="XMLID_1180_" style="fill:#FFFFFF;" cx="165" cy="40" r="10"/>
	</g>
</g>
<g>
</g>
<g>
</g>
<g>
</g>
<g>
</g>
<g>
</g>
<g>
</g>
<g>
</g>
<g>
</g>
<g>
</g>
<g>
</g>
<g>
</g>
<g>
</g>
<g>
</g>
<g>
</g>
<g>
</g>
</svg>
