<?xml version="1.0" encoding="UTF-8" standalone="no"?>
<!-- Created with Inkscape (http://www.inkscape.org/) -->

<svg
   xmlns:dc="http://purl.org/dc/elements/1.1/"
   xmlns:cc="http://creativecommons.org/ns#"
   xmlns:rdf="http://www.w3.org/1999/02/22-rdf-syntax-ns#"
   xmlns:svg="http://www.w3.org/2000/svg"
   xmlns="http://www.w3.org/2000/svg"
   xmlns:sodipodi="http://sodipodi.sourceforge.net/DTD/sodipodi-0.dtd"
   xmlns:inkscape="http://www.inkscape.org/namespaces/inkscape"
   width="96.892067mm"
   height="97.296349mm"
   viewBox="0 0 96.892067 97.296349"
   version="1.1"
   id="svg845"
   inkscape:version="0.92.3 (2405546, 2018-03-11)"
   sodipodi:docname="esri_north_010_b.svg">
  <defs
     id="defs839" />
  <sodipodi:namedview
     id="base"
     pagecolor="#ffffff"
     bordercolor="#666666"
     borderopacity="1.0"
     inkscape:pageopacity="0.0"
     inkscape:pageshadow="2"
     inkscape:zoom="0.97458821"
     inkscape:cx="179.89397"
     inkscape:cy="153.32184"
     inkscape:document-units="mm"
     inkscape:current-layer="text1587"
     showgrid="false"
     inkscape:window-width="1366"
     inkscape:window-height="745"
     inkscape:window-x="0"
     inkscape:window-y="23"
     inkscape:window-maximized="1"
     fit-margin-top="0"
     fit-margin-left="0"
     fit-margin-right="0"
     fit-margin-bottom="0"
     showguides="true"
     inkscape:guide-bbox="true" />
  <metadata
     id="metadata842">
    <rdf:RDF>
      <cc:Work
         rdf:about="">
        <dc:format>image/svg+xml</dc:format>
        <dc:type
           rdf:resource="http://purl.org/dc/dcmitype/StillImage" />
        <dc:title></dc:title>
      </cc:Work>
    </rdf:RDF>
  </metadata>
  <g
     inkscape:label="Camada 1"
     inkscape:groupmode="layer"
     id="layer1"
     transform="translate(-0.51983077,-199.10752)">
    <g
       aria-label="2"
       style="font-style:normal;font-weight:normal;font-size:124.42774963px;line-height:1.25;font-family:sans-serif;letter-spacing:0px;word-spacing:0px;fill:#000000;fill-opacity:1;stroke:none;stroke-width:5.18448925"
       id="text1587">
      <g
         aria-label="0"
         style="font-style:normal;font-weight:normal;font-size:121.22297668px;line-height:1.25;font-family:sans-serif;letter-spacing:0px;word-spacing:0px;fill:#000000;fill-opacity:1;stroke:none;stroke-width:26.18663406"
         id="text1792"
         transform="matrix(1.1116662,0,0,1.1116662,-0.05804752,-33.09829)">
        <path
           d="m 77.132752,252.03626 -11.39496,-11.63741 v 5.21259 H 53.00938 v -13.09208 h 4.727696 L 46.220893,221.1244 35.189602,232.51936 h 4.606473 v 13.09208 H 26.94644 v -5.21259 L 15.55148,252.03626 27.188886,263.31 v -5.09137 h 12.607189 v 13.21331 H 35.189602 L 46.220893,282.8269 57.737076,271.43194 H 53.00938 V 258.21863 H 65.737792 V 263.31 Z m -1.575899,0 -8.243162,7.75827 v -3.27302 H 51.312258 v 16.48633 h 3.151797 l -8.243162,8.24316 -8.000716,-8.24316 h 3.27302 V 256.52151 H 25.370541 v 3.27302 l -8.243162,-7.75827 8.243162,-8.12194 v 3.39424 h 16.122656 v -16.48632 h -3.27302 l 8.000716,-8.12194 8.243162,8.12194 h -3.151797 v 16.48632 h 16.001433 v -3.39424 z m -62.551056,-4.60647 h -1.454675 l -1.333453,6.18237 q -0.2424461,0.60611 -0.363669,1.09101 0,0.48489 -0.121223,0.84856 -0.242446,-1.5759 -0.7273379,-3.27302 L 7.6719864,247.42979 H 5.9748647 l -1.8183446,6.30359 q -0.121223,0.24245 -0.242446,0.72734 0,0.48489 -0.2424459,1.21223 L 1.8532835,247.42979 H 0.51983076 l 2.30323654,9.45539 H 4.398966 l 2.0607906,-7.03093 q 0.242446,-0.72734 0.363669,-1.21223 l 2.3032365,8.24316 h 1.4546759 z m 36.973008,-38.54891 h -1.333452 v 7.15216 l -4.606474,-7.15216 h -1.333452 v 9.45539 h 1.333452 v -7.03093 l 4.485251,7.03093 h 1.454675 z m -0.121223,80.97695 q -0.242446,-1.21223 -1.091007,-1.93957 -0.84856,-0.84856 -2.424459,-0.84856 -1.575899,0 -2.42446,0.84856 -0.84856,0.72734 -0.84856,1.81835 0,1.45467 1.333452,2.06079 0.606115,0.24244 1.697122,0.60611 1.21223,0.24245 1.575899,0.36367 1.091006,0.60612 1.091006,1.33345 0,1.5759 -2.182013,1.5759 -2.545683,0 -2.545683,-2.30323 h -1.333452 q 0,3.03057 3.879135,3.03057 1.575899,0 2.545682,-0.48489 0.969784,-0.60612 0.969784,-1.93957 0,-1.33345 -1.697121,-2.30324 -0.606115,-0.24244 -2.060791,-0.48489 -1.333453,-0.36367 -1.697122,-0.72734 -0.121223,-0.60611 -0.242446,-0.84856 0,-0.24244 0,0 0,-1.45467 1.939568,-1.45467 1.939568,0 2.182014,1.69712 z m 37.821569,-32.60898 v -1.09101 h -5.576257 v -3.27302 h 4.970142 v -1.09101 h -4.970142 v -2.90935 h 5.333811 v -1.091 h -6.667264 v 9.45539 z"
           style="font-style:normal;font-variant:normal;font-weight:normal;font-stretch:normal;font-family:'ESRI North';-inkscape-font-specification:'ESRI North, ';stroke-width:26.18663406"
           id="path2306"
           inkscape:connector-curvature="0" />
      </g>
    </g>
  </g>
</svg>
