<?xml version="1.0" standalone="no"?>
<!DOCTYPE svg PUBLIC "-//W3C//DTD SVG 20010904//EN"
 "http://www.w3.org/TR/2001/REC-SVG-20010904/DTD/svg10.dtd">
<svg version="1.0" xmlns="http://www.w3.org/2000/svg"
 width="1266.000000pt" height="1280.000000pt" viewBox="0 0 1266.000000 1280.000000"
 preserveAspectRatio="xMidYMid meet">
<g transform="translate(0.000000,1280.000000) scale(0.100000,-0.100000)"
fill="#000000" stroke="none">
<path d="M7720 12791 c-99 -31 -264 -168 -356 -298 -102 -142 -156 -319 -323
-1064 -28 -125 -57 -244 -64 -264 l-13 -37 -48 102 c-81 176 -172 473 -357
1165 -23 88 -46 164 -51 170 -5 5 -24 -6 -47 -29 l-38 -38 -159 -2 c-175 -2
-228 -15 -323 -75 -111 -72 -253 -245 -303 -370 -34 -87 -32 -213 6 -306 16
-38 30 -71 31 -73 2 -3 160 102 179 119 5 4 -8 49 -29 101 -49 122 -57 207
-26 272 48 98 139 143 310 153 58 3 141 3 182 -1 l76 -7 -57 -227 c-143 -562
-232 -809 -320 -893 -53 -50 -95 -60 -251 -58 l-130 1 -64 -90 -64 -91 46 -7
c78 -11 242 2 301 24 125 48 251 185 353 385 71 139 115 272 190 570 48 191
69 254 69 201 0 -22 145 -610 176 -714 75 -252 184 -485 290 -618 124 -158
269 -245 459 -279 96 -16 243 -13 320 8 48 13 175 69 175 78 0 12 -59 223 -63
228 -3 2 -17 -22 -31 -53 -116 -252 -355 -262 -569 -24 -55 61 -147 206 -147
231 0 30 79 388 145 658 84 339 142 540 205 699 86 217 149 275 300 276 l77 1
47 86 c25 48 46 90 46 93 0 8 -120 6 -150 -3z"/>
<path d="M6671 10208 c-28 -117 -96 -404 -152 -638 -255 -1066 -233 -985 -260
-988 -64 -8 -306 -78 -407 -117 -145 -57 -328 -151 -445 -228 -51 -33 -97 -60
-102 -60 -6 0 -235 149 -509 332 l-499 333 -33 -34 -34 -33 331 -497 332 -497
-40 -48 c-146 -174 -303 -467 -387 -723 -30 -90 -60 -166 -67 -170 -8 -4 -198
-51 -424 -105 -225 -54 -639 -152 -920 -219 l-510 -121 -3 -47 c-2 -38 0 -47
15 -51 10 -3 218 -53 463 -111 245 -59 650 -155 900 -215 l455 -108 35 -139
c20 -76 53 -188 75 -249 50 -141 166 -373 248 -495 l63 -95 -337 -506 -337
-507 34 -33 34 -33 496 331 496 331 94 -69 c209 -156 446 -278 693 -359 86
-29 157 -53 158 -54 1 -1 58 -238 127 -526 256 -1077 315 -1321 321 -1330 8
-13 82 -13 90 1 4 5 24 83 45 172 21 89 93 389 159 667 67 278 147 614 179
746 l57 242 85 17 c233 48 590 197 790 330 47 31 90 59 97 62 6 2 238 -147
514 -331 l504 -336 33 34 34 33 -332 498 -331 497 44 56 c171 220 320 508 402
777 l33 110 404 96 c221 53 624 149 893 213 270 64 506 121 527 127 34 9 36
12 40 55 2 26 -1 48 -7 50 -9 4 -516 125 -1545 370 -151 36 -276 66 -277 67 0
1 -13 54 -28 117 -67 280 -182 547 -336 778 -27 40 -49 77 -49 82 0 6 149 233
330 505 182 272 330 498 330 502 0 4 -14 22 -31 39 l-31 32 -494 -329 c-272
-181 -496 -329 -499 -329 -3 0 -42 28 -88 63 -151 116 -365 236 -545 308 -81
33 -234 84 -283 94 -16 4 -29 9 -29 11 0 6 -140 597 -305 1284 -69 289 -128
537 -132 553 -5 25 -9 27 -53 27 l-48 0 -51 -212z"/>
<path d="M2345 7362 c-61 -34 -115 -73 -115 -84 0 -4 15 -27 33 -51 48 -63 61
-118 55 -240 -13 -267 -176 -558 -603 -1074 -94 -114 -120 -140 -110 -110 2 6
9 127 15 267 13 312 38 800 47 934 6 95 5 99 -13 92 -145 -54 -134 -45 -188
-131 -197 -311 -756 -1130 -756 -1106 0 39 131 793 175 1013 14 66 25 122 25
124 0 1 15 7 33 13 18 6 49 25 68 42 l34 30 -285 -4 c-275 -4 -288 -5 -362
-31 -262 -88 -413 -287 -395 -521 5 -63 32 -156 56 -194 7 -11 30 0 110 49 56
35 100 66 99 69 -2 3 -18 36 -35 72 -37 75 -56 182 -44 245 11 58 49 120 92
149 53 37 126 54 270 61 l126 7 -29 -199 c-16 -109 -70 -439 -119 -733 -49
-294 -88 -540 -87 -546 2 -8 29 -4 87 14 l84 26 249 360 c136 198 319 467 406
597 86 131 159 238 162 238 10 0 -19 -740 -40 -1035 -6 -71 -10 -149 -10 -172
l0 -42 82 28 83 28 73 103 c40 56 153 202 250 324 463 581 618 831 668 1077
19 94 15 191 -11 256 -14 34 -25 44 -67 62 -28 12 -53 21 -57 21 -3 0 -28 -13
-56 -28z"/>
<path d="M11909 7111 c-60 -19 -117 -30 -190 -34 -292 -17 -546 -162 -642
-365 -29 -60 -32 -76 -32 -162 0 -94 27 -220 47 -220 13 0 188 119 188 128 0
4 -7 42 -15 85 -27 141 -15 241 38 311 53 69 202 122 380 133 71 5 87 3 87 -8
0 -8 -34 -145 -74 -306 l-73 -292 -52 -58 -52 -58 35 -3 c20 -2 36 -5 36 -8 0
-2 -20 -79 -45 -171 -54 -199 -86 -288 -124 -340 -31 -42 -103 -86 -171 -103
-28 -7 -64 -28 -95 -54 l-49 -43 94 -6 c52 -4 316 -10 586 -13 l491 -7 54 25
c61 28 194 140 253 212 46 57 68 114 60 156 -8 37 -16 37 -124 -4 l-85 -32 0
-82 c0 -98 -13 -116 -94 -132 -31 -6 -232 -10 -481 -10 l-426 0 111 113 c131
132 156 177 212 374 44 156 11 138 274 151 l176 9 52 39 52 39 -244 3 -244 2
76 308 77 307 165 7 c101 4 179 3 202 -3 44 -12 86 -63 113 -139 10 -28 21
-50 24 -50 3 0 45 40 94 89 l88 89 -12 36 c-22 68 -24 68 -355 64 l-296 -3 7
28 c7 32 11 32 -97 -2z"/>
<path d="M6800 1794 c-103 -19 -232 -89 -326 -176 -127 -120 -204 -270 -204
-403 0 -123 48 -201 204 -329 197 -162 241 -227 241 -356 -1 -63 -6 -86 -32
-142 -41 -88 -107 -157 -191 -201 -88 -45 -157 -61 -246 -55 -177 13 -319 121
-362 278 -26 95 -26 95 -51 73 -12 -10 -47 -80 -78 -155 l-58 -138 28 -36 c36
-47 134 -110 205 -132 90 -28 281 -22 394 12 322 97 559 334 598 598 13 83 0
142 -43 204 -16 24 -103 104 -194 179 -97 80 -176 155 -194 182 -89 135 -25
353 130 438 45 25 65 30 124 30 107 0 138 -27 170 -151 8 -31 17 -59 19 -61 2
-2 43 24 91 58 86 62 87 62 80 98 -14 78 -61 142 -123 168 -36 15 -140 25
-182 17z"/>
</g>
</svg>
