<?xml version="1.0" encoding="UTF-8" standalone="no"?>
<!-- Created with Inkscape (http://www.inkscape.org/) -->

<svg
   xmlns:dc="http://purl.org/dc/elements/1.1/"
   xmlns:cc="http://creativecommons.org/ns#"
   xmlns:rdf="http://www.w3.org/1999/02/22-rdf-syntax-ns#"
   xmlns:svg="http://www.w3.org/2000/svg"
   xmlns="http://www.w3.org/2000/svg"
   xmlns:sodipodi="http://sodipodi.sourceforge.net/DTD/sodipodi-0.dtd"
   xmlns:inkscape="http://www.inkscape.org/namespaces/inkscape"
   width="25.699272mm"
   height="96.251038mm"
   viewBox="0 0 25.699272 96.251038"
   version="1.1"
   id="svg845"
   inkscape:version="0.92.3 (2405546, 2018-03-11)"
   sodipodi:docname="esri_north_014_b.svg">
  <defs
     id="defs839" />
  <sodipodi:namedview
     id="base"
     pagecolor="#ffffff"
     bordercolor="#666666"
     borderopacity="1.0"
     inkscape:pageopacity="0.0"
     inkscape:pageshadow="2"
     inkscape:zoom="0.97458821"
     inkscape:cx="177.14498"
     inkscape:cy="150.57281"
     inkscape:document-units="mm"
     inkscape:current-layer="text1587"
     showgrid="false"
     inkscape:window-width="1366"
     inkscape:window-height="745"
     inkscape:window-x="0"
     inkscape:window-y="23"
     inkscape:window-maximized="1"
     fit-margin-top="0"
     fit-margin-left="0"
     fit-margin-right="0"
     fit-margin-bottom="0"
     showguides="true"
     inkscape:guide-bbox="true" />
  <metadata
     id="metadata842">
    <rdf:RDF>
      <cc:Work
         rdf:about="">
        <dc:format>image/svg+xml</dc:format>
        <dc:type
           rdf:resource="http://purl.org/dc/dcmitype/StillImage" />
        <dc:title></dc:title>
      </cc:Work>
    </rdf:RDF>
  </metadata>
  <g
     inkscape:label="Camada 1"
     inkscape:groupmode="layer"
     id="layer1"
     transform="translate(-0.88349969,-199.42549)">
    <g
       aria-label="2"
       style="font-style:normal;font-weight:normal;font-size:124.42774963px;line-height:1.25;font-family:sans-serif;letter-spacing:0px;word-spacing:0px;fill:#000000;fill-opacity:1;stroke:none;stroke-width:5.18448925"
       id="text1587">
      <g
         aria-label="&quot;"
         style="font-style:normal;font-weight:normal;font-size:121.22297668px;line-height:1.25;font-family:sans-serif;letter-spacing:0px;word-spacing:0px;fill:#000000;fill-opacity:1;stroke:none;stroke-width:26.18663406"
         id="text1792">
        <path
           d="m 26.582771,243.55065 q 0,1.21223 -0.727338,1.21223 -0.606115,0 -0.848561,-0.60611 -0.121223,-0.72734 -0.363669,-0.72734 -0.848561,0.24244 -2.666905,3.39424 -1.697122,3.1518 -3.879136,8.24316 -0.969783,2.18202 -1.818344,4.60648 -0.848561,2.42446 -1.575899,4.48525 -0.606115,1.93957 -1.091007,3.27302 -0.484892,1.21223 -0.606115,1.21223 -0.242446,0 -0.242446,-0.36367 l 0.121223,-0.24245 q 0.121223,-0.96978 0.363669,-1.81834 0.242446,-0.96979 0.242446,-2.18202 v -7.27337 q 0.242446,-2.06079 0.484892,-4.12158 0.363669,-2.18202 1.21223,-5.21259 -0.848561,1.45467 -1.697122,4.12158 -0.727338,2.54568 -1.697121,5.57626 -1.454676,3.27302 -2.5456829,5.21258 -0.9697838,1.81835 -1.8183447,2.90935 -0.8485608,0.96979 -1.6971216,1.33346 -0.7273379,0.24244 -1.8183447,0.24244 -3.03057441,0 -3.03057441,-4.36402 0.12122301,-3.1518 1.33345271,-5.21259 1.3334528,-2.06079 3.3942434,-2.42446 2.9093514,0 2.9093514,3.75791 0,1.93957 -1.2122297,3.63669 -1.2122298,1.5759 -2.7881285,1.5759 -0.121223,0 -1.0910068,-0.24245 l 0.121223,-0.36367 q 0,0 0.3636689,0.12123 0.4848919,0.12122 0.9697838,0.12122 1.3334528,-0.24245 2.1820136,-1.45468 0.8485608,-1.33345 1.0910068,-2.90935 0,-3.27302 -1.8183447,-3.27302 -2.0607906,0 -3.3942433,2.18202 -1.3334527,2.06079 -1.8183447,4.48525 0,3.87913 2.9093515,3.87913 l 0.8485608,-0.12122 q 2.1820136,-0.24245 3.3942434,-3.51547 1.3334527,-3.27302 3.5154667,-8.36438 1.212229,-3.39425 2.06079,-5.45504 0.848561,-2.18201 1.333453,-3.39424 0.606115,-1.21223 0.848561,-1.5759 0.363669,-0.48489 0.484892,-0.48489 v 0.12122 q 0,0.24245 0,0.36367 0.121223,0 0.121223,0.12122 0,0.12123 -0.121223,0.24245 0,0.12122 0,0.12122 -0.363669,1.33346 -0.606115,2.78813 -0.121223,1.33345 -0.121223,3.03058 -0.484892,3.75791 -0.606115,7.87949 -0.121223,4.12158 -1.091007,7.27338 8.12194,-22.91114 11.758629,-23.51726 0.484892,0 0.484892,0.24245 0.121223,0.24244 0.242446,0.60611 z m -8.485609,-23.27481 -3.636689,-8.9705 v 34.54855 l -0.969784,2.54568 v -37.09423 l -4.1215809,8.9705 2.5456829,-9.09172 q 0.121223,-0.12123 0.84856,-2.78813 0.848561,-2.66691 1.091007,-8.9705 0.242446,6.18237 1.21223,9.09172 0.969784,2.90935 0.848561,2.78813 z m -3.636689,75.40069 h -0.969784 v -26.42661 l 0.969784,-2.42446 z"
           style="font-style:normal;font-variant:normal;font-weight:normal;font-stretch:normal;font-family:'ESRI North';-inkscape-font-specification:'ESRI North, ';stroke-width:26.18663406"
           id="path2546"
           inkscape:connector-curvature="0" />
      </g>
    </g>
  </g>
</svg>
