<?xml version="1.0" encoding="UTF-8" standalone="no"?>
<!-- Created with Inkscape (http://www.inkscape.org/) -->

<svg
   xmlns:dc="http://purl.org/dc/elements/1.1/"
   xmlns:cc="http://creativecommons.org/ns#"
   xmlns:rdf="http://www.w3.org/1999/02/22-rdf-syntax-ns#"
   xmlns:svg="http://www.w3.org/2000/svg"
   xmlns="http://www.w3.org/2000/svg"
   xmlns:sodipodi="http://sodipodi.sourceforge.net/DTD/sodipodi-0.dtd"
   xmlns:inkscape="http://www.inkscape.org/namespaces/inkscape"
   width="11.212973mm"
   height="97.781952mm"
   viewBox="0 0 11.212973 97.781952"
   version="1.1"
   id="svg845"
   inkscape:version="0.92.3 (2405546, 2018-03-11)"
   sodipodi:docname="esri_north_058_b.svg">
  <defs
     id="defs839" />
  <sodipodi:namedview
     id="base"
     pagecolor="#ffffff"
     bordercolor="#666666"
     borderopacity="1.0"
     inkscape:pageopacity="0.0"
     inkscape:pageshadow="2"
     inkscape:zoom="0.97458821"
     inkscape:cx="79.021412"
     inkscape:cy="207.5365"
     inkscape:document-units="mm"
     inkscape:current-layer="text1587"
     showgrid="false"
     inkscape:window-width="1366"
     inkscape:window-height="745"
     inkscape:window-x="0"
     inkscape:window-y="23"
     inkscape:window-maximized="1"
     fit-margin-top="0"
     fit-margin-left="0"
     fit-margin-right="0"
     fit-margin-bottom="0"
     showguides="true"
     inkscape:guide-bbox="true" />
  <metadata
     id="metadata842">
    <rdf:RDF>
      <cc:Work
         rdf:about="">
        <dc:format>image/svg+xml</dc:format>
        <dc:type
           rdf:resource="http://purl.org/dc/dcmitype/StillImage" />
        <dc:title></dc:title>
      </cc:Work>
    </rdf:RDF>
  </metadata>
  <g
     inkscape:label="Camada 1"
     inkscape:groupmode="layer"
     id="layer1"
     transform="translate(-3.3681574,-199.21665)">
    <g
       aria-label="2"
       style="font-style:normal;font-weight:normal;font-size:124.42774963px;line-height:1.25;font-family:sans-serif;letter-spacing:0px;word-spacing:0px;fill:#000000;fill-opacity:1;stroke:none;stroke-width:5.18448925"
       id="text1587">
      <g
         aria-label="r"
         style="font-style:normal;font-weight:normal;font-size:120.56960297px;line-height:1.25;font-family:sans-serif;letter-spacing:0px;word-spacing:0px;fill:#000000;fill-opacity:1;stroke:none;stroke-width:26.04549217"
         id="text1792">
        <path
           d="m 14.58113,251.18215 q 0,2.29082 -1.687974,3.97879 -1.567405,1.56741 -3.4965185,1.68798 v 12.78038 l 2.7731005,3.97879 v 23.39051 l -3.6170877,-4.21994 v -35.92974 q -2.1702528,-0.24114 -3.6170881,-1.68798 -1.5674048,-1.68797 -1.5674048,-3.97879 0,-2.41139 1.6879744,-3.85823 1.3262657,-1.44684 3.4965185,-1.68797 v -11.21298 l -4.4610753,3.73766 5.3050625,-27.61044 v 35.08576 q 1.8085445,0.12056 3.4965185,1.68797 0.964557,0.72342 1.326266,1.80854 0.361708,0.96456 0.361708,2.04969 z m -0.723417,-41.95822 -8.560442,-4.58165 v 4.21994 l -0.9645568,-1.08513 v -8.56044 l 8.5604418,4.82278 v -4.58164 l 0.964557,1.08512 z m -3.01424,41.95822 q 0,-0.72342 -0.602848,-1.2057 -0.4822787,-0.60285 -1.2056963,-0.60285 -0.8439872,0 -1.4468352,0.60285 -0.4822784,0.48228 -0.4822784,1.2057 0,1.80854 1.9291136,1.80854 0.7234176,0 1.2056963,-0.48228 0.602848,-0.48228 0.602848,-1.32626 z m -3.7376579,-1.44684 -1.6879745,-1.80854 q -1.0851264,1.44683 -1.205696,2.89367 h 2.4113921 q 0,-0.60285 0.4822784,-1.08513 z m 6.7518979,1.08513 q -0.241139,-1.44684 -1.205696,-2.7731 l -1.687975,1.80854 q 0.12057,0.24114 0.24114,0.48228 0.120569,0.24114 0.120569,0.48228 z m -1.808544,-3.25538 q -1.085127,-1.08513 -2.6525315,-1.08513 v 2.41139 q 0.4822784,0 0.9645565,0.48228 z m 1.808544,4.09937 h -2.531962 q 0,0.60284 -0.361709,0.96455 l 1.687975,1.80855 q 0.964557,-1.32627 1.205696,-2.7731 z m -6.7518979,0.96455 Q 6.6235367,252.1467 6.6235367,251.66443 H 4.2121446 q 0.1205696,1.44683 1.0851264,2.7731 z m 1.4468352,0.96456 Q 8.1909415,253.47297 7.9498023,253.3524 7.7086631,253.23183 7.4675239,253.11126 L 5.900119,254.9198 q 1.2056961,0.84399 2.6525313,1.08513 z m 3.4965187,1.32626 -1.687975,-1.80854 q -0.3617085,0.36171 -0.9645565,0.48228 v 2.41139 q 1.5674045,-0.12057 2.6525315,-1.08513 z m -3.4965187,-8.43987 q -0.8439872,0 -1.4468352,0.36171 -0.602848,0.24114 -1.2056961,0.72342 l 1.6879745,1.68797 q 0.3617088,-0.36171 0.9645568,-0.36171 z"
           style="font-style:normal;font-variant:normal;font-weight:normal;font-stretch:normal;font-family:'ESRI North';-inkscape-font-specification:'ESRI North, ';stroke-width:26.04549217"
           id="path1243"
           inkscape:connector-curvature="0" />
      </g>
    </g>
  </g>
</svg>
