<?xml version="1.0" encoding="UTF-8" standalone="no"?>
<!-- Created with Inkscape (http://www.inkscape.org/) -->

<svg
   xmlns:dc="http://purl.org/dc/elements/1.1/"
   xmlns:cc="http://creativecommons.org/ns#"
   xmlns:rdf="http://www.w3.org/1999/02/22-rdf-syntax-ns#"
   xmlns:svg="http://www.w3.org/2000/svg"
   xmlns="http://www.w3.org/2000/svg"
   xmlns:sodipodi="http://sodipodi.sourceforge.net/DTD/sodipodi-0.dtd"
   xmlns:inkscape="http://www.inkscape.org/namespaces/inkscape"
   width="79.199997"
   height="78.911995"
   id="svg2"
   version="1.1"
   inkscape:version="0.48.2 r9819"
   sodipodi:docname="esri_7.svg">
  <defs
     id="defs4" />
  <sodipodi:namedview
     id="base"
     pagecolor="#ffffff"
     bordercolor="#666666"
     borderopacity="1.0"
     inkscape:pageopacity="0.0"
     inkscape:pageshadow="2"
     inkscape:zoom="2.1200443"
     inkscape:cx="-28.235749"
     inkscape:cy="74.830189"
     inkscape:document-units="px"
     inkscape:current-layer="layer1"
     showgrid="false"
     fit-margin-top="0"
     fit-margin-left="0"
     fit-margin-right="0"
     fit-margin-bottom="0"
     inkscape:window-width="1366"
     inkscape:window-height="744"
     inkscape:window-x="0"
     inkscape:window-y="24"
     inkscape:window-maximized="1" />
  <metadata
     id="metadata7">
    <rdf:RDF>
      <cc:Work
         rdf:about="">
        <dc:format>image/svg+xml</dc:format>
        <dc:type
           rdf:resource="http://purl.org/dc/dcmitype/StillImage" />
        <dc:title></dc:title>
      </cc:Work>
    </rdf:RDF>
  </metadata>
  <g
     inkscape:label="Camada 1"
     inkscape:groupmode="layer"
     id="layer1"
     transform="translate(-691.77812,-148.08926)">
    <g
       transform="translate(686.31983,60.909843)"
       style="font-size:144px;font-style:normal;font-variant:normal;font-weight:normal;font-stretch:normal;line-height:125%;letter-spacing:0px;word-spacing:0px;fill:#000000;fill-opacity:1;stroke:none;font-family:Arial;-inkscape-font-specification:Arial"
       id="text5078">
      <path
         d="m 84.658287,126.49141 -12.096,2.016 c -0.192088,3.45605 -1.008087,6.72005 -2.448,9.792 -1.440084,3.07204 -3.312082,5.80804 -5.616,8.208 -2.304078,2.30404 -4.992075,4.17603 -8.064,5.616 -3.072069,1.34403 -6.336066,2.11203 -9.792,2.304 l -1.44,11.664 -1.872,-11.664 c -3.552055,-0.19197 -6.912052,-1.00797 -10.08,-2.448 -3.072046,-1.43996 -5.760043,-3.31196 -8.064,-5.616 -2.304038,-2.39996 -4.176037,-5.13596 -5.616,-8.208 -1.344034,-3.07195 -2.112033,-6.38395 -2.304,-9.936 l -11.8079999,-1.728 11.8079999,-1.584 c 0.191967,-3.45594 0.959966,-6.71993 2.304,-9.792 1.439963,-3.07193 3.311962,-5.75992 5.616,-8.064 2.399957,-2.30392 5.135954,-4.12792 8.208,-5.472 3.071948,-1.43991 6.383945,-2.255914 9.936,-2.447997 l 1.872,-11.952 1.584,11.808 c 3.455934,0.192083 6.671931,1.008083 9.648,2.447997 3.071925,1.44008 5.759922,3.31208 8.064,5.616 2.303918,2.30408 4.175916,4.99207 5.616,8.064 1.439913,3.07207 2.255912,6.33606 2.448,9.792 l 12.096,1.584 m -38.736,10.944 c 2.111936,-0.0959 4.079935,-0.91195 5.904,-2.448 l 1.584,-1.728 c 1.43993,-1.34395 2.255929,-3.26394 2.448,-5.76 -7.1e-5,-1.63194 -0.288071,-3.21594 -0.864,-4.752 -0.48007,-1.53594 -1.392069,-2.92793 -2.736,-4.176 -0.768067,-0.47993 -1.632066,-1.00793 -2.592,-1.584 -0.864064,-0.57593 -1.968063,-0.91193 -3.312,-1.008 l -1.728,0 c -2.496058,0.28807 -4.608056,1.15207 -6.336,2.592 l -1.44,1.584 c -1.344051,1.63206 -2.16005,3.40806 -2.448,5.328 l 0,1.728 c 0.19195,2.59206 1.007949,4.60805 2.448,6.048 l 1.584,1.728 c 1.631944,1.34405 3.551943,2.16005 5.76,2.448 l 1.728,0 m -10.8,-10.8 c -5.1e-5,-2.78394 0.959948,-5.13594 2.88,-7.056 1.919945,-2.01593 4.319942,-3.02393 7.2,-3.024 2.783937,7e-5 5.135934,1.00807 7.056,3.024 1.91993,1.92006 2.879929,4.27206 2.88,7.056 -7.1e-5,2.97606 -0.96007,5.42405 -2.88,7.344 -1.920066,1.92005 -4.272063,2.88005 -7.056,2.88 -2.880058,5e-5 -5.280055,-0.95995 -7.2,-2.88 -1.920052,-1.91995 -2.880051,-4.36794 -2.88,-7.344 m 0.576,-22.464 c -6.048045,2.97608 -10.416041,7.29607 -13.104,12.96 l 11.664,4.752 0.288,-0.72 -6.192,-11.52 12.096,6.048 0.288,-0.144 -5.04,-11.376 m -1.44,27.792 -0.288,-0.432 -11.52,4.608 c 2.687959,5.85604 6.911955,10.17604 12.672,12.96 l 5.184,-11.232 -0.576,-0.288 -11.376,6.192 5.904,-11.808 m 33.12,-14.544 c -2.40008,-5.66393 -6.432076,-9.88792 -12.096,-12.672 l -5.328,11.088 0.576,0.288 11.376,-6.48 -6.048,11.952 c 0.09593,0.28806 0.287928,0.57606 0.576,0.864 l 10.944,-5.04 m -17.568,20.304 c -0.09607,0.096 -0.288065,0.14405 -0.576,0.144 l 5.472,11.232 c 5.567924,-2.68796 9.69592,-6.81596 12.384,-12.384 l -11.088,-4.896 -0.288,0.432 6.192,11.52 -12.096,-6.048 m 0.288,-11.088 c -6.6e-5,-1.34394 -0.480065,-2.44794 -1.44,-3.312 -0.960063,-0.95994 -2.112062,-1.43994 -3.456,-1.44 -1.344059,6e-5 -2.544058,0.48006 -3.6,1.44 -0.960056,0.86406 -1.440056,1.96806 -1.44,3.312 -5.6e-5,1.34406 0.479944,2.54406 1.44,3.6 1.055942,1.05605 2.255941,1.58405 3.6,1.584 1.343938,5e-5 2.495937,-0.52795 3.456,-1.584 0.959935,-1.05594 1.439934,-2.25594 1.44,-3.6 m 4.896,-22.176 c -1.248069,-0.47992 -2.544068,-0.86392 -3.888,-1.152 -1.248065,-0.38392 -2.544064,-0.62392 -3.888,-0.72 l 1.872,12.816 c -6.5e-5,0.19207 0.143935,0.28807 0.432,0.288 l 5.472,-11.232 m -21.312,26.208 -13.248,-2.016 c 0.287964,2.59205 0.959963,5.04005 2.016,7.344 l 11.376,-4.752 -0.144,-0.576 m 9.216,20.592 -2.016,-13.248 -0.288,-0.144 -5.184,11.376 c 0.767948,0.48004 1.871947,0.91204 3.312,1.296 1.439944,0.28803 2.831943,0.52803 4.176,0.72 m -20.448,-33.84 c -1.056037,2.59207 -1.728036,4.94406 -2.016,7.056 l 13.392,-1.728 0.144,-0.432 -11.52,-4.896 m 26.352,20.736 -1.728,13.104 c 1.247936,-0.19197 2.495935,-0.43197 3.744,-0.72 1.247932,-0.28796 2.447931,-0.71996 3.6,-1.296 l -5.328,-11.232 c -6.5e-5,0.096 -0.09606,0.14405 -0.288,0.144 m 20.304,-9.072 -12.672,2.016 -0.144,0.288 10.8,4.896 c 0.479917,-1.24795 0.863917,-2.44795 1.152,-3.6 0.383916,-1.15195 0.671916,-2.35194 0.864,-3.6 m -26.208,-26.496 c -1.344057,0.0961 -2.592056,0.28808 -3.744,0.576 -1.056054,0.19208 -2.112053,0.48008 -3.168,0.864 l 5.04,11.376 1.872,-12.816 m 26.208,21.888 c -0.192084,-2.39994 -0.720084,-4.65593 -1.584,-6.768 l -10.944,5.04 12.528,1.728 m -48.672,2.448 0,1.44 13.104,1.872 c -0.192049,-0.95994 -0.288049,-1.53594 -0.288,-1.728 l 0,-2.016 -12.816,0 0,0.432 m 24.768,-24.48 -1.872,0 -1.728,12.816 c 0.383943,-0.0959 0.863942,-0.19193 1.44,-0.288 0.575941,-0.0959 1.29594,-0.19193 2.16,-0.288 l 0,-12.24 m 0,48.816 1.584,0 1.728,-13.104 c -1.056063,0.28805 -1.920062,0.43205 -2.592,0.432 l -0.72,0 0,12.672 m 24.048,-24.768 c -8.5e-5,-0.86394 -0.04809,-1.39194 -0.144,-1.584 l -12.384,-1.584 0.432,3.168 12.096,0 m 0.288,-9.936 c -1.248084,-2.97593 -3.072082,-5.66393 -5.472,-8.064 -2.304077,-2.49592 -4.896075,-4.46392 -7.776,-5.904 l -0.576,1.296 c 5.759923,2.97608 9.983919,7.39207 12.672,13.248 l 1.152,-0.576 m -34.272,-13.392 -0.576,-1.008 c -3.168047,1.24808 -5.952044,3.07208 -8.352,5.472 -2.400039,2.40008 -4.272038,5.23207 -5.616,8.496 l 1.296,0.576 c 1.247961,-2.97593 2.97596,-5.61593 5.184,-7.92 2.303955,-2.39992 4.991952,-4.27192 8.064,-5.616 m 32.688,33.984 c -2.97608,5.95204 -7.296076,10.17604 -12.96,12.672 l 0.576,1.152 c 6.239923,-2.87996 10.799918,-7.29596 13.68,-13.248 l -1.296,-0.576 m -33.84,13.68 0.72,-1.152 c -2.880047,-1.24796 -5.472045,-2.97596 -7.776,-5.184 -2.30404,-2.20796 -4.032039,-4.84795 -5.184,-7.92 l -1.296,0.432 c 1.343963,3.07205 3.167961,5.80804 5.472,8.208 2.303956,2.40004 4.991953,4.27204 8.064,5.616 m -4.32,-39.744 4.896,9.648 2.304,-2.88 -7.2,-6.768 m 15.696,9.936 c 0.575938,0.0961 1.151938,0.28806 1.728,0.576 0.671937,0.19206 1.199936,0.48006 1.584,0.864 l 2.448,-2.448 c -0.960066,-0.76793 -1.920065,-1.29593 -2.88,-1.584 -0.864063,-0.38393 -1.824062,-0.62393 -2.88,-0.72 l 0,3.312 m -0.576,-3.312 c -2.208058,0.0961 -4.176056,1.00807 -5.904,2.736 l 2.304,2.016 c 0.671943,-0.47994 1.247942,-0.81594 1.728,-1.008 0.479941,-0.19194 1.10394,-0.33594 1.872,-0.432 l 0,-3.312 m 9.072,8.64 c -0.09607,-1.15194 -0.336069,-2.15994 -0.72,-3.024 -0.288068,-0.95994 -0.816068,-1.91994 -1.584,-2.88 l -2.448,2.304 c 1.055934,1.05606 1.583934,2.25606 1.584,3.6 l 3.168,0 m 6.624,-15.264 -9.648,5.328 c 0.287933,0.19207 0.719933,0.43207 1.296,0.72 0.575932,0.28807 1.103931,0.67207 1.584,1.152 l 6.768,-7.2 m -6.624,15.984 -3.168,0 c -0.09607,0.76806 -0.240066,1.44006 -0.432,2.016 -0.09607,0.48006 -0.384065,0.96006 -0.864,1.44 l 2.016,2.16 c 1.439932,-1.43995 2.255931,-3.31194 2.448,-5.616 m -17.712,0 c 0.191948,2.20806 1.055947,4.17605 2.592,5.904 l 2.016,-2.304 c -0.480056,-0.47994 -0.864056,-1.05594 -1.152,-1.728 -0.192055,-0.67194 -0.288055,-1.29594 -0.288,-1.872 l -3.168,0 m 9.216,8.496 c 1.151938,5e-5 2.111937,-0.19195 2.88,-0.576 0.863935,-0.47995 1.775934,-1.10395 2.736,-1.872 l -2.016,-2.16 c -0.480064,0.38405 -0.960064,0.72005 -1.44,1.008 -0.384063,0.19205 -1.104062,0.38405 -2.16,0.576 l 0,3.024 m -0.576,-3.024 c -1.440059,5e-5 -2.640058,-0.47995 -3.6,-1.44 l -2.016,2.16 c 0.767944,0.67205 1.583944,1.24805 2.448,1.728 0.959942,0.38405 2.015941,0.57605 3.168,0.576 l 0,-3.024 m -5.472,-6.192 c -5.5e-5,-1.43994 0.479945,-2.63994 1.44,-3.6 l -2.16,-2.016 c -0.672054,0.86406 -1.248053,1.77606 -1.728,2.736 -0.384052,0.86406 -0.624052,1.82406 -0.72,2.88 l 3.168,0 m -9.648,15.984 9.648,-5.04 c -0.576054,-0.19195 -1.104054,-0.47995 -1.584,-0.864 -0.480053,-0.47995 -0.816053,-0.81595 -1.008,-1.008 l -7.056,6.912 m 30.672,-0.144 -5.04,-9.36 c -0.76807,0.76805 -1.20007,1.24805 -1.296,1.44 l -0.432,0.864 6.768,7.056 m 11.088,-13.536 -1.584,0.288 c -0.09609,1.34406 -0.336085,2.68805 -0.72,4.032 -0.288084,1.24805 -0.672084,2.54405 -1.152,3.888 l 1.152,0.576 c 0.671915,-1.43995 1.199914,-2.87995 1.584,-4.32 0.383913,-1.43995 0.623913,-2.92794 0.72,-4.464 m -24.624,-28.224 0.144,1.296 c 1.439936,0.0961 2.831935,0.33608 4.176,0.72 1.439932,0.38408 2.83193,0.81608 4.176,1.296 l 0.576,-1.296 c -1.44007,-0.47992 -2.928069,-0.91192 -4.464,-1.296 -1.536065,-0.38392 -3.072064,-0.62391 -4.608,-0.72 m -4.032,51.408 c -2.592056,-0.28797 -5.184053,-0.95997 -7.776,-2.016 l -0.576,1.152 c 2.495947,1.24803 5.375945,2.01603 8.64,2.304 l -0.288,-1.44 m 4.176,0 -0.288,1.44 c 1.535936,-0.096 2.975935,-0.33597 4.32,-0.72 1.343932,-0.38397 2.687931,-0.86397 4.032,-1.44 l -0.432,-1.152 c -1.152069,0.48004 -2.400068,0.91203 -3.744,1.296 -1.248065,0.28803 -2.544064,0.48003 -3.888,0.576 m 24.48,-27.072 c -0.09609,-1.34394 -0.336087,-2.63994 -0.72,-3.888 -0.288086,-1.34393 -0.672086,-2.68793 -1.152,-4.032 l -1.152,0.576 c 0.383916,1.15207 0.671915,2.35207 0.864,3.6 0.287915,1.24806 0.479915,2.44806 0.576,3.6 l 1.584,0.144 m -49.824,11.376 c -0.768036,-1.63195 -1.248036,-2.87995 -1.44,-3.744 -0.09604,-0.86395 -0.240036,-1.91994 -0.432,-3.168 l 0,-0.576 -1.44,-0.288 c 0.09597,1.44006 0.335966,2.83205 0.72,4.176 0.383965,1.34405 0.815965,2.73605 1.296,4.176 l 1.296,-0.576 m -3.312,-11.376 1.44,-0.144 c 0.287964,-2.97594 0.911964,-5.47193 1.872,-7.488 l -1.152,-0.576 c -1.152035,2.78407 -1.872034,5.52006 -2.16,8.208 m 24.768,-24.336 c -1.344057,0.0961 -2.688056,0.28808 -4.032,0.576 -1.344053,0.19208 -2.688052,0.52808 -4.032,1.008 l 0.432,1.008 c 1.151948,-0.38392 2.351947,-0.67192 3.6,-0.864 1.247944,-0.28792 2.543943,-0.47992 3.888,-0.576 l 0.144,-1.152 m -35.7119999,26.064 9.7919999,1.44 0,-1.44 -9.7919999,0 m 37.7279999,-37.439997 -1.44,9.936 1.44,0 0,-9.936 m 0,75.023997 1.152,-9.648 -1.152,0 0,9.648 m 37.584,-37.584 -10.08,-1.152 0,1.152 10.08,0 m -64.368,1.584 1.44,0.288 0,-1.872 -1.44,0 0,1.584 m 53.28,-1.584 -0.144,-1.296 -1.584,-0.144 0.144,1.44 1.584,0 m -26.496,26.784 1.296,0 0.288,-1.44 -1.584,0 0,1.44 m 0,-52.992 c -0.86406,9e-5 -1.392059,0.0481 -1.584,0.144 l -0.144,1.152 1.728,0 0,-1.296"
         style="font-family:ESRI North;-inkscape-font-specification:ESRI North"
         id="path5083"
         inkscape:connector-curvature="0"
         sodipodi:nodetypes="cccccccccccccccccccccccccccccccccccccccccccccccscccccccccccccccccccccccccccccccccccccccccccccccccccccccccccccccccccccccccccccccccccccccccccccccccccccccccccccccccccccccccccccccccccccccccccccccccccccccccccccccccccccccccccccccccccccccccccccccccccccccccccccccccccccccccccccccccccccccccccccccccccccccccccccccccccccccccccccccccccccccccccccccccccccc" />
    </g>
  </g>
</svg>
