<?xml version="1.0" encoding="UTF-8" standalone="no"?>
<!-- Created with Inkscape (http://www.inkscape.org/) -->

<svg
   xmlns:dc="http://purl.org/dc/elements/1.1/"
   xmlns:cc="http://creativecommons.org/ns#"
   xmlns:rdf="http://www.w3.org/1999/02/22-rdf-syntax-ns#"
   xmlns:svg="http://www.w3.org/2000/svg"
   xmlns="http://www.w3.org/2000/svg"
   xmlns:sodipodi="http://sodipodi.sourceforge.net/DTD/sodipodi-0.dtd"
   xmlns:inkscape="http://www.inkscape.org/namespaces/inkscape"
   width="69.695999"
   height="111.07615"
   id="svg2"
   version="1.1"
   inkscape:version="0.48.2 r9819"
   sodipodi:docname="esri_S.svg">
  <defs
     id="defs4" />
  <sodipodi:namedview
     id="base"
     pagecolor="#ffffff"
     bordercolor="#666666"
     borderopacity="1.0"
     inkscape:pageopacity="0.0"
     inkscape:pageshadow="2"
     inkscape:zoom="4.2400885"
     inkscape:cx="1.8634184"
     inkscape:cy="38.733927"
     inkscape:document-units="px"
     inkscape:current-layer="text4345"
     showgrid="false"
     fit-margin-top="0"
     fit-margin-left="0"
     fit-margin-right="0"
     fit-margin-bottom="0"
     inkscape:window-width="1366"
     inkscape:window-height="744"
     inkscape:window-x="0"
     inkscape:window-y="24"
     inkscape:window-maximized="1" />
  <metadata
     id="metadata7">
    <rdf:RDF>
      <cc:Work
         rdf:about="">
        <dc:format>image/svg+xml</dc:format>
        <dc:type
           rdf:resource="http://purl.org/dc/dcmitype/StillImage" />
        <dc:title></dc:title>
      </cc:Work>
    </rdf:RDF>
  </metadata>
  <g
     inkscape:label="Camada 1"
     inkscape:groupmode="layer"
     id="layer1"
     transform="translate(-261.79242,62.629464)">
    <g
       transform="matrix(0.41078599,0,0,0.37219576,292.66667,-130.04564)"
       style="font-size:144px;font-style:normal;font-variant:normal;font-weight:normal;font-stretch:normal;line-height:125%;letter-spacing:0px;word-spacing:0px;fill:#000000;fill-opacity:1;stroke:none;font-family:Arial;-inkscape-font-specification:Arial"
       id="text4345">
      <g
         id="g4540">
        <g
           id="text4507"
           style="fill:#000000;font-family:Arial;-inkscape-font-specification:Arial"
           transform="matrix(2.4343576,0,0,2.6867582,-82.048514,-15.00987)">
          <path
             sodipodi:nodetypes="cccccccccccccccccccccccccccccc"
             inkscape:connector-curvature="0"
             id="path4512"
             style="font-family:ESRI North;-inkscape-font-specification:ESRI North"
             d="m 56.25413,109.57878 0,54 -10.512,0 0,-60.48 7.2,0 -14.688,-16.415995 -15.84,16.415995 6.912,0 0,60.48 -9.648,0 0,-54 -16.8480004,0 34.8480004,-36.575995 34.848,36.575995 -16.272,0 m -18.576,-34.847995 -32.2560004,33.695995 15.9840004,0 0,54 6.192,0 0,-58.176 -8.208,0 18.864,-19.295995 17.712,19.295995 -8.208,0 0,58.176 6.624,0 0,-54 15.264,0 -31.968,-33.695995" />
        </g>
        <g
           id="text4533"
           style="fill:#000000;font-family:Arial;-inkscape-font-specification:Arial"
           transform="matrix(1.0416461,0,0,0.38765344,62.649182,430.10686)">
          <path
             inkscape:connector-curvature="0"
             id="path4538"
             d="m -90.680069,127.58524 0,-103.078122 13.992188,0 54.140625,80.929692 0,-80.929692 13.0781245,0 0,103.078122 -13.9921875,0 -54.140625,-80.999997 0,80.999997 -13.078125,0" />
        </g>
      </g>
    </g>
  </g>
</svg>
