<?xml version="1.0" encoding="iso-8859-1"?>
<!-- Generator: Adobe Illustrator 19.0.0, SVG Export Plug-In . SVG Version: 6.00 Build 0)  -->
<svg version="1.1" id="Layer_1" xmlns="http://www.w3.org/2000/svg" xmlns:xlink="http://www.w3.org/1999/xlink" x="0px" y="0px"
	 viewBox="0 0 512 512" style="enable-background:new 0 0 512 512;" xml:space="preserve">
<g>
	<g>
		<path d="M256,54.736C145.024,54.736,54.72,145.008,54.72,256S145.024,457.28,256,457.28S457.28,366.976,457.28,256
			S366.976,54.736,256,54.736z M256,274.624l-151.456,80.688L256,93.088l151.456,262.224L256,274.624z"/>
	</g>
</g>
<g>
	<g>
		<polygon points="256,125.088 146.352,314.896 256,256.496 365.648,314.896 		"/>
	</g>
</g>
<g>
	<g>
		<path d="M256,0C114.608,0,0,114.608,0,256s114.608,256,256,256s256-114.608,256-256S397.392,0,256,0z M256,473.28
			c-119.808,0-217.28-97.472-217.28-217.28S136.192,38.736,256,38.736S473.28,136.208,473.28,256
			C473.28,375.808,375.808,473.28,256,473.28z"/>
	</g>
</g>
<g>
</g>
<g>
</g>
<g>
</g>
<g>
</g>
<g>
</g>
<g>
</g>
<g>
</g>
<g>
</g>
<g>
</g>
<g>
</g>
<g>
</g>
<g>
</g>
<g>
</g>
<g>
</g>
<g>
</g>
</svg>
