<?xml version="1.0" encoding="iso-8859-1"?>
<!-- Generator: Adobe Illustrator 19.0.0, SVG Export Plug-In . SVG Version: 6.00 Build 0)  -->
<svg version="1.1" id="Layer_1" xmlns="http://www.w3.org/2000/svg" xmlns:xlink="http://www.w3.org/1999/xlink" x="0px" y="0px"
	 viewBox="0 0 512 512" style="enable-background:new 0 0 512 512;" xml:space="preserve">
<g>
	<g>
		<path d="M256,0C114.614,0,0,114.614,0,256c0,141.384,114.614,256,256,256s256-114.616,256-256C512,114.614,397.386,0,256,0z
			 M405.075,405.075c-39.819,39.82-92.761,61.749-149.075,61.749s-109.256-21.93-149.075-61.749
			C67.107,365.255,45.176,312.314,45.176,256s21.93-109.256,61.749-149.075S199.686,45.176,256,45.176s109.256,21.93,149.075,61.749
			S466.824,199.686,466.824,256S444.893,365.255,405.075,405.075z"/>
	</g>
</g>
<g>
	<g>
		<path d="M256,90.353L180.706,256L256,421.647L331.294,256L256,90.353z M230.331,256L256,199.526L281.669,256L256,312.474
			L230.331,256z"/>
	</g>
</g>
<g>
</g>
<g>
</g>
<g>
</g>
<g>
</g>
<g>
</g>
<g>
</g>
<g>
</g>
<g>
</g>
<g>
</g>
<g>
</g>
<g>
</g>
<g>
</g>
<g>
</g>
<g>
</g>
<g>
</g>
</svg>
