<?xml version="1.0" encoding="iso-8859-1"?>
<!-- Generator: Adobe Illustrator 19.0.0, SVG Export Plug-In . SVG Version: 6.00 Build 0)  -->
<svg version="1.1" id="Layer_1" xmlns="http://www.w3.org/2000/svg" xmlns:xlink="http://www.w3.org/1999/xlink" x="0px" y="0px"
	 viewBox="0 0 512.004 512.004" style="enable-background:new 0 0 512.004 512.004;" xml:space="preserve">
<g>
	<g>
		<path d="M367.017,272.896h-34.662c-3.954-35.559-32.254-63.859-67.813-67.813V44.333l43.595,87.198
			c1.494,2.997,4.509,4.722,7.651,4.722c1.281,0,2.587-0.29,3.809-0.897c4.219-2.109,5.926-7.242,3.817-11.46L263.637,4.342
			c-2.895-5.79-12.382-5.79-15.277,0l-59.777,119.554c-2.109,4.219-0.401,9.351,3.817,11.46c4.236,2.118,9.351,0.393,11.46-3.817
			l43.603-87.206v160.741c-35.559,3.954-63.859,32.254-67.813,67.813h-34.662c-4.714,0-8.54,3.826-8.54,8.54
			c0,4.714,3.826,8.54,8.54,8.54h34.662c3.954,35.567,32.254,63.868,67.813,67.821v145.677c0,4.714,3.826,8.54,8.54,8.54
			s8.54-3.826,8.54-8.54V357.788c35.559-3.954,63.859-32.254,67.813-67.813h34.662c4.714,0,8.54-3.826,8.54-8.54
			C375.556,276.721,371.731,272.896,367.017,272.896z M247.463,340.529c-26.123-3.766-46.797-24.432-50.554-50.554h50.554V340.529z
			 M247.463,272.887h-50.554c3.757-26.123,24.432-46.788,50.554-50.554V272.887z M264.542,340.529v-50.554h50.554
			C311.339,316.097,290.664,336.763,264.542,340.529z M264.542,272.896v-50.554c26.123,3.757,46.797,24.423,50.554,50.554H264.542z"
			/>
	</g>
</g>
<g>
</g>
<g>
</g>
<g>
</g>
<g>
</g>
<g>
</g>
<g>
</g>
<g>
</g>
<g>
</g>
<g>
</g>
<g>
</g>
<g>
</g>
<g>
</g>
<g>
</g>
<g>
</g>
<g>
</g>
</svg>
