<?xml version="1.0" encoding="UTF-8" standalone="no"?>
<!-- Created with Inkscape (http://www.inkscape.org/) -->

<svg
   xmlns:dc="http://purl.org/dc/elements/1.1/"
   xmlns:cc="http://creativecommons.org/ns#"
   xmlns:rdf="http://www.w3.org/1999/02/22-rdf-syntax-ns#"
   xmlns:svg="http://www.w3.org/2000/svg"
   xmlns="http://www.w3.org/2000/svg"
   xmlns:sodipodi="http://sodipodi.sourceforge.net/DTD/sodipodi-0.dtd"
   xmlns:inkscape="http://www.inkscape.org/namespaces/inkscape"
   width="50.592201mm"
   height="97.623306mm"
   viewBox="0 0 50.592201 97.623307"
   version="1.1"
   id="svg845"
   inkscape:version="0.92.3 (2405546, 2018-03-11)"
   sodipodi:docname="esri_north_104_b.svg">
  <defs
     id="defs839" />
  <sodipodi:namedview
     id="base"
     pagecolor="#ffffff"
     bordercolor="#666666"
     borderopacity="1.0"
     inkscape:pageopacity="0.0"
     inkscape:pageshadow="2"
     inkscape:zoom="0.97458821"
     inkscape:cx="108.53936"
     inkscape:cy="196.42614"
     inkscape:document-units="mm"
     inkscape:current-layer="text1587"
     showgrid="false"
     inkscape:window-width="1366"
     inkscape:window-height="745"
     inkscape:window-x="0"
     inkscape:window-y="23"
     inkscape:window-maximized="1"
     fit-margin-top="0"
     fit-margin-left="0"
     fit-margin-right="0"
     fit-margin-bottom="0"
     showguides="true"
     inkscape:guide-bbox="true" />
  <metadata
     id="metadata842">
    <rdf:RDF>
      <cc:Work
         rdf:about="">
        <dc:format>image/svg+xml</dc:format>
        <dc:type
           rdf:resource="http://purl.org/dc/dcmitype/StillImage" />
        <dc:title></dc:title>
      </cc:Work>
    </rdf:RDF>
  </metadata>
  <g
     inkscape:label="Camada 1"
     inkscape:groupmode="layer"
     id="layer1"
     transform="translate(-9.6122475,-199.50071)">
    <g
       aria-label="2"
       style="font-style:normal;font-weight:normal;font-size:124.42774963px;line-height:1.25;font-family:sans-serif;letter-spacing:0px;word-spacing:0px;fill:#000000;fill-opacity:1;stroke:none;stroke-width:5.18448925"
       id="text1587">
      <g
         aria-label="M"
         style="font-style:normal;font-weight:normal;font-size:122.79660797px;line-height:1.25;font-family:sans-serif;letter-spacing:0px;word-spacing:0px;fill:#000000;fill-opacity:1;stroke:none;stroke-width:26.52657127"
         id="text1792">
        <path
           d="M 60.20445,239.9008 40.434196,224.30563 33.680383,285.70393 28.645722,224.30563 9.6122475,239.9008 35.031145,199.50071 Z m -30.576355,51.94296 q 0,2.57873 -1.227967,3.92949 -1.105169,1.35077 -3.069915,1.35077 -4.420678,0 -4.420678,-5.15746 0,-2.57873 1.10517,-4.05229 1.105169,-1.47356 3.192712,-1.47356 2.087542,0 3.192711,1.47356 1.227967,1.47356 1.227967,3.92949 z m 9.700932,5.15746 h -3.069916 l -1.227966,-2.94712 q -0.245593,-0.49118 -0.36839,-0.61398 -0.122796,-0.24559 -0.122796,-0.24559 -0.36839,-0.36839 -0.73678,-0.36839 h -0.122796 v 4.17508 h -2.578729 v -10.31491 h 4.297881 q 3.192712,0 3.192712,2.94711 0,1.96475 -1.10517,2.45594 -0.368389,0.36839 -0.982372,0.49118 0.491186,0.2456 0.736779,0.36839 0.122797,0.1228 0.245593,0.49119 0.245594,0.36839 0.491187,0.61398 z m -19.770254,0 h -2.578729 l -3.069915,-5.64864 v 5.64864 h -2.455932 v -10.31491 h 2.333135 l 3.192712,5.77144 v -5.77144 h 2.578729 z m 37.207372,0 h -2.578729 v -4.17508 h -2.824322 v 4.17508 h -2.701525 v -10.31491 h 2.701525 v 3.68389 h 2.824322 v -3.68389 h 2.578729 z m -9.332542,-7.73619 h -2.578729 v 7.73619 h -2.701525 v -7.73619 H 39.57462 v -2.57872 h 7.858983 z m -20.507034,2.45594 q 0,-2.82433 -1.719152,-2.82433 -1.719153,0 -1.719153,3.06992 0,2.82432 1.719153,2.82432 0.859576,0 1.227966,-0.61398 0.491186,-0.73678 0.491186,-2.45593 z m 8.964153,-1.84195 q 0,-1.10517 -1.10517,-1.10517 h -1.105169 v 2.21034 h 0.982372 q 0.613984,0 0.73678,-0.1228 0.491187,-0.1228 0.491187,-0.98237 z"
           style="font-style:normal;font-variant:normal;font-weight:normal;font-stretch:normal;font-family:'ESRI North';-inkscape-font-specification:'ESRI North, ';stroke-width:26.52657127"
           id="path4185"
           inkscape:connector-curvature="0" />
      </g>
    </g>
  </g>
</svg>
