<?xml version="1.0" encoding="iso-8859-1"?>
<!-- Generator: Adobe Illustrator 19.0.0, SVG Export Plug-In . SVG Version: 6.00 Build 0)  -->
<svg version="1.1" id="Layer_1" xmlns="http://www.w3.org/2000/svg" xmlns:xlink="http://www.w3.org/1999/xlink" x="0px" y="0px"
	 viewBox="0 0 512 512" style="enable-background:new 0 0 512 512;" xml:space="preserve">
<g>
	<g>
		<path d="M256,187.733c-56.465,0-102.4,45.935-102.4,102.4s45.935,102.4,102.4,102.4s102.4-45.935,102.4-102.4
			S312.465,187.733,256,187.733z M256,375.467c-47.053,0-85.333-38.281-85.333-85.333S208.947,204.8,256,204.8
			s85.333,38.281,85.333,85.333S303.053,375.467,256,375.467z"/>
	</g>
</g>
<g>
	<g>
		<path d="M473.728,282.82l-84.992-50.995c-1.425-3.226-2.935-6.4-4.582-9.498l16.666-66.654c0.725-2.91-0.128-5.982-2.244-8.107
			c-2.116-2.125-5.18-2.978-8.107-2.244l-66.654,16.666c-2.978-1.579-6.042-3.029-9.131-4.403L264.098,5.837
			C262.929,2.347,259.678,0,256,0c-3.678,0-6.938,2.347-8.098,5.837l-50.577,151.74c-3.098,1.374-6.153,2.825-9.131,4.403
			l-66.654-16.666c-2.91-0.717-5.982,0.128-8.107,2.244c-2.125,2.125-2.97,5.197-2.244,8.107l16.666,66.654
			c-1.647,3.098-3.157,6.272-4.582,9.498l-84.992,50.995c-2.577,1.545-4.147,4.326-4.147,7.322c0,2.995,1.57,5.777,4.139,7.313
			l84.992,50.995c1.425,3.226,2.935,6.4,4.582,9.498l-16.657,66.654c-0.725,2.91,0.128,5.982,2.244,8.107
			c1.621,1.621,3.797,2.5,6.033,2.5c0.691,0,1.382-0.085,2.074-0.256l66.654-16.666c3.098,1.647,6.272,3.157,9.498,4.582
			l50.995,84.992C250.223,510.43,253.005,512,256,512c2.995,0,5.777-1.57,7.313-4.139l50.995-84.992
			c3.226-1.425,6.4-2.935,9.498-4.582l66.654,16.666c0.691,0.162,1.382,0.247,2.074,0.247c2.236,0,4.412-0.879,6.033-2.5
			c2.125-2.125,2.97-5.197,2.244-8.107l-16.666-66.654c1.647-3.098,3.157-6.272,4.582-9.498l84.992-50.995
			c2.577-1.536,4.147-4.318,4.147-7.313C477.867,287.138,476.297,284.356,473.728,282.82z M114.978,323.567l-55.723-33.434
			l55.723-33.434c-2.552,10.752-4.045,21.914-4.045,33.434C110.933,301.653,112.427,312.815,114.978,323.567z M380.8,165.333
			l-9.335,37.35c-8.03-10.573-17.442-19.985-28.015-28.015L380.8,165.333z M256,35.516l38.281,114.842
			c-12.22-3.345-25.011-5.291-38.281-5.291c-13.269,0-26.061,1.946-38.281,5.291L256,35.516z M168.55,174.669
			c-10.573,8.03-19.985,17.442-28.015,28.015l-9.335-37.35L168.55,174.669z M131.2,414.933l9.335-37.35
			c8.03,10.573,17.442,19.985,28.015,28.015L131.2,414.933z M256,486.878l-33.434-55.723c10.752,2.552,21.914,4.045,33.434,4.045
			c11.52,0,22.682-1.493,33.434-4.045L256,486.878z M343.45,405.598c10.573-8.03,19.985-17.442,28.015-28.015l9.335,37.35
			L343.45,405.598z M256,418.133c-70.579,0-128-57.421-128-128s57.421-128,128-128s128,57.421,128,128S326.579,418.133,256,418.133z
			 M397.022,323.567c2.552-10.752,4.045-21.914,4.045-33.434c0-11.52-1.493-22.682-4.045-33.434l55.723,33.434L397.022,323.567z"/>
	</g>
</g>
<g>
</g>
<g>
</g>
<g>
</g>
<g>
</g>
<g>
</g>
<g>
</g>
<g>
</g>
<g>
</g>
<g>
</g>
<g>
</g>
<g>
</g>
<g>
</g>
<g>
</g>
<g>
</g>
<g>
</g>
</svg>
