<?xml version="1.0" encoding="iso-8859-1"?>
<!-- Generator: Adobe Illustrator 18.1.1, SVG Export Plug-In . SVG Version: 6.00 Build 0)  -->
<svg version="1.1" id="Capa_1" xmlns="http://www.w3.org/2000/svg" xmlns:xlink="http://www.w3.org/1999/xlink" x="0px" y="0px"
	 viewBox="0 0 59.961 59.961" style="enable-background:new 0 0 59.961 59.961;" xml:space="preserve">
<g>
	<g>
		<path style="fill:#010002;" d="M29.981,10.495c-11.952,0-21.676,9.724-21.676,21.676s9.724,21.676,21.676,21.676
			c11.954,0,21.676-9.724,21.676-21.676C51.656,20.219,41.932,10.495,29.981,10.495z M29.981,52.028
			c-10.949,0-19.857-8.908-19.857-19.857c0-10.95,8.908-19.858,19.857-19.858c10.95,0,19.858,8.909,19.857,19.858
			C49.837,43.12,40.931,52.028,29.981,52.028z"/>
		<path style="fill:#010002;" d="M28.066,23.722c0.393,0,0.713-0.407,0.713-0.909v-2.355c0-0.503,0.247-0.586,0.551-0.186
			l2.078,2.727c0.303,0.399,0.826,0.724,1.166,0.724c0.339,0,0.613-0.407,0.613-0.909v-4.749c0-0.502-0.317-0.909-0.711-0.909
			c-0.395,0-0.713,0.407-0.713,0.909v2.226c0,0.502-0.248,0.584-0.552,0.185l-1.976-2.597c-0.304-0.4-0.849-0.724-1.217-0.724
			s-0.666,0.407-0.666,0.909v4.749C27.354,23.315,27.674,23.722,28.066,23.722z"/>
		<path style="fill:#010002;" d="M30.776,42.528c-1.136-0.29-1.417-0.432-1.417-0.883c0-0.317,0.291-0.57,0.845-0.57
			c0.3,0,0.606,0.07,0.917,0.201c0.462,0.195,0.958,0.203,1.165-0.1c0.208-0.299,0.062-0.811-0.394-1.022
			c-0.498-0.23-1.055-0.354-1.67-0.354c-1.341,0-2.298,0.787-2.298,1.997c0,1.306,0.853,1.671,2.176,2.009
			c1.097,0.281,1.324,0.469,1.324,0.854c0,0.384-0.357,0.617-0.949,0.617c-0.439,0-0.834-0.105-1.207-0.293
			c-0.448-0.225-0.945-0.274-1.18,0.008c-0.237,0.283-0.127,0.794,0.312,1.037c0.635,0.352,1.343,0.525,2.047,0.525
			c1.417,0,2.412-0.731,2.412-2.055C32.859,43.354,32.107,42.876,30.776,42.528z"/>
		<path style="fill:#010002;" d="M21.358,35.29c0.347,0,0.76-0.386,0.921-0.861l1.657-4.892c0.162-0.475-0.047-0.861-0.463-0.861
			s-0.874,0.39-1.021,0.87l-0.828,2.708c-0.147,0.481-0.394,0.483-0.551,0.005l-0.902-2.737c-0.157-0.477-0.562-0.864-0.904-0.864
			s-0.747,0.386-0.904,0.863l-0.903,2.74c-0.157,0.475-0.404,0.473-0.551-0.007l-0.829-2.708c-0.146-0.48-0.612-0.87-1.04-0.87
			c-0.427,0-0.643,0.385-0.481,0.861l1.658,4.892c0.162,0.476,0.574,0.861,0.921,0.861s0.762-0.384,0.925-0.859l0.889-2.578
			c0.163-0.475,0.429-0.475,0.593,0l0.888,2.578C20.597,34.905,21.01,35.29,21.358,35.29z"/>
		<path style="fill:#010002;" d="M43.419,33.959h-1.745c-0.504,0-0.91-0.31-0.91-0.69c0-0.379,0.406-0.688,0.91-0.688h1.275
			c0.503,0,0.91-0.288,0.91-0.644c0-0.354-0.407-0.643-0.91-0.643h-1.275c-0.504,0-0.91-0.298-0.91-0.666
			c0-0.367,0.406-0.666,0.91-0.666h1.697c0.503,0,0.91-0.288,0.91-0.642c0-0.356-0.407-0.644-0.91-0.644h-3.134
			c-0.503,0-0.91,0.407-0.91,0.909v4.749c0,0.502,0.407,0.909,0.91,0.91h3.182c0.502,0,0.909-0.288,0.909-0.644
			C44.328,34.247,43.921,33.959,43.419,33.959z"/>
		<path style="fill:#010002;" d="M40.715,23.321c0.114-0.148,0.463-0.598,0.146-0.951c-0.319-0.355-0.803-0.058-0.961,0.04
			l-7.389,4.521c-0.428,0.26-1.104,0.348-1.529,0.267c-0.254-0.048-0.514-0.075-0.781-0.075c-2.57,0-4.661,2.091-4.661,4.661
			c0,0.279,0.028,0.551,0.079,0.814c0.086,0.444-0.027,1.11-0.334,1.508l-4.579,5.918c-0.115,0.147-0.463,0.599-0.146,0.951
			c0.113,0.125,0.245,0.17,0.377,0.17c0.242,0,0.48-0.146,0.583-0.209l6.801-4.162c0.428-0.262,1.018-0.409,1.323-0.367
			c0.181,0.025,0.366,0.039,0.555,0.039c2.57,0,4.661-2.092,4.661-4.661c0-0.136-0.009-0.267-0.022-0.397
			c-0.023-0.221,0.192-0.72,0.5-1.116L40.715,23.321z M27.835,36.007l-0.198,0.121l-4.476,2.739
			c-0.428,0.262-0.526,0.151-0.219-0.245l3.104-4.014c0.002,0,0.056-0.069,0.121-0.156c0.068-0.086,0.166-0.084,0.226,0
			c0.036,0.051,0.072,0.102,0.11,0.15c0.33,0.428,0.732,0.791,1.189,1.082c0.056,0.035,0.112,0.07,0.169,0.104
			C27.955,35.845,27.944,35.938,27.835,36.007z M30.203,35.536c-2.068,0-3.752-1.684-3.752-3.752s1.683-3.751,3.752-3.751
			c2.067,0,3.751,1.683,3.751,3.751C33.953,33.852,32.269,35.536,30.203,35.536z M34.681,29.637c0,0-0.047,0.062-0.106,0.139
			c-0.06,0.076-0.134,0.078-0.169,0.006c-0.021-0.045-0.042-0.088-0.064-0.131c-0.338-0.649-0.822-1.208-1.41-1.636
			c-0.035-0.024-0.069-0.049-0.105-0.072c-0.061-0.041-0.049-0.108,0.025-0.153l0.133-0.081l5.281-3.232
			c0.428-0.262,0.524-0.151,0.219,0.245L34.681,29.637z"/>
		<path style="fill:#010002;" d="M34.868,4.82c0.001,0,0.001-0.001,0.002-0.001c0.389-0.39,0.602-0.908,0.6-1.455V2.06
			c0-1.136-0.924-2.06-2.059-2.06h-6.037c-1.136,0-2.06,0.924-2.06,2.06v1.303c0,0.51,0.193,0.971,0.5,1.331
			C12.459,6.71,2.19,18.264,2.19,32.171c0,15.323,12.467,27.79,27.79,27.79s27.79-12.467,27.79-27.79
			C57.769,18.516,47.866,7.137,34.868,4.82z M27.374,2l6.096,0.06l-0.017,1.347c-0.017,0.017-0.035,0.017-0.042,0.017l-6.097-0.061
			L27.374,2z M29.981,57.961c-14.221,0-25.79-11.569-25.79-25.79s11.569-25.79,25.79-25.79c14.22,0,25.79,11.569,25.79,25.79
			S44.2,57.961,29.981,57.961z"/>
	</g>
</g>
<g>
</g>
<g>
</g>
<g>
</g>
<g>
</g>
<g>
</g>
<g>
</g>
<g>
</g>
<g>
</g>
<g>
</g>
<g>
</g>
<g>
</g>
<g>
</g>
<g>
</g>
<g>
</g>
<g>
</g>
</svg>
