<?xml version="1.0" encoding="iso-8859-1"?>
<!-- Generator: Adobe Illustrator 19.0.0, SVG Export Plug-In . SVG Version: 6.00 Build 0)  -->
<svg version="1.1" id="Layer_1" xmlns="http://www.w3.org/2000/svg" xmlns:xlink="http://www.w3.org/1999/xlink" x="0px" y="0px"
	 viewBox="0 0 512 512" style="enable-background:new 0 0 512 512;" xml:space="preserve">
<g>
	<g>
		<path d="M503.467,247.466H469.12c-3.618-91.366-64.939-168.132-148.463-194.756L261.564,2.055c-3.2-2.739-7.91-2.739-11.11,0
			L191.36,52.709C107.819,79.333,46.498,156.099,42.88,247.466H8.533c-4.71,0-8.533,3.823-8.533,8.533s3.823,8.533,8.533,8.533
			H42.88c4.395,110.857,93.739,200.201,204.587,204.587v34.347c0,4.71,3.823,8.533,8.533,8.533s8.533-3.823,8.533-8.533v-34.347
			c110.848-4.386,200.192-93.73,204.587-204.587h34.347c4.719,0,8.533-3.823,8.533-8.533S508.186,247.466,503.467,247.466z
			 M247.467,452.052c-101.444-4.369-183.151-86.076-187.52-187.52h17.28c4.369,91.989,78.251,165.871,170.24,170.24V452.052z
			 M247.467,417.706c-82.577-4.335-148.838-70.588-153.165-153.173h153.165V417.706z M247.467,247.466H94.302
			c4.326-82.577,70.588-148.838,153.165-153.165V247.466z M247.467,77.234c-91.989,4.361-165.871,78.242-170.231,170.231H59.947
			c4.369-101.436,86.076-183.151,187.52-187.511V77.234z M256,42.666c-9.873,0-19.567,0.734-29.082,2.031L256,19.771l29.082,24.934
			C275.567,43.399,265.873,42.666,256,42.666z M264.533,247.466V94.301c82.577,4.326,148.838,70.588,153.165,153.165H264.533z
			 M417.698,264.532c-4.326,82.586-70.588,148.838-153.165,153.173V264.532H417.698z M264.533,452.052v-17.28
			c91.989-4.369,165.871-78.251,170.232-170.24h17.28C447.684,365.977,365.978,447.683,264.533,452.052z M434.773,247.466
			c-4.369-91.989-78.251-165.871-170.24-170.231v-17.28c101.444,4.361,183.151,86.076,187.52,187.511H434.773z"/>
	</g>
</g>
<g>
</g>
<g>
</g>
<g>
</g>
<g>
</g>
<g>
</g>
<g>
</g>
<g>
</g>
<g>
</g>
<g>
</g>
<g>
</g>
<g>
</g>
<g>
</g>
<g>
</g>
<g>
</g>
<g>
</g>
</svg>
