<?xml version="1.0" standalone="no"?>
<!DOCTYPE svg PUBLIC "-//W3C//DTD SVG 20010904//EN"
 "http://www.w3.org/TR/2001/REC-SVG-20010904/DTD/svg10.dtd">
<svg version="1.0" xmlns="http://www.w3.org/2000/svg"
 width="1280.000000pt" height="1280.000000pt" viewBox="0 0 1280.000000 1280.000000"
 preserveAspectRatio="xMidYMid meet">
<g transform="translate(0.000000,1280.000000) scale(0.100000,-0.100000)"
fill="#000000" stroke="none">
<path d="M6030 12789 c-1355 -81 -2702 -618 -3746 -1491 -1339 -1121 -2168
-2781 -2274 -4553 -94 -1577 457 -3224 1492 -4461 1121 -1339 2781 -2168 4553
-2274 1578 -94 3224 457 4462 1493 1338 1120 2167 2781 2273 4552 101 1706
-553 3489 -1742 4742 -1289 1359 -3163 2103 -5018 1992z m670 -115 c0 -18
-180 -1007 -184 -1011 -3 -3 -307 1009 -306 1020 0 4 110 7 245 7 219 0 245
-2 245 -16z m-714 -11 c-3 -10 -50 -270 -106 -578 -56 -308 -104 -570 -107
-582 -5 -22 -3 -23 70 -23 64 0 76 3 81 18 2 9 43 235 91 502 47 267 89 493
93 503 5 13 59 -154 162 -502 l155 -521 106 0 105 0 108 592 c59 326 109 595
111 598 4 7 148 -5 310 -25 933 -119 1835 -446 2644 -960 578 -366 1121 -862
1551 -1415 707 -909 1165 -2038 1295 -3190 26 -236 35 -408 35 -680 0 -538
-59 -1011 -190 -1527 -372 -1459 -1227 -2721 -2426 -3579 -684 -489 -1482
-846 -2313 -1034 -789 -178 -1590 -199 -2396 -64 -822 137 -1645 456 -2374
919 -578 366 -1121 862 -1551 1415 -707 909 -1165 2038 -1295 3190 -26 236
-35 408 -35 680 0 538 59 1011 190 1527 372 1459 1227 2721 2426 3579 684 489
1482 846 2313 1034 257 58 549 104 806 129 145 14 147 13 141 -6z"/>
<path d="M6160 11359 c-1008 -48 -2028 -430 -2835 -1062 -1019 -798 -1694
-2005 -1855 -3317 -153 -1252 201 -2548 980 -3585 794 -1056 2023 -1758 3367
-1924 90 -11 224 -24 298 -27 l136 -7 -71 -30 c-84 -35 -160 -104 -193 -174
-19 -41 -22 -66 -22 -163 0 -130 13 -168 82 -235 73 -71 158 -103 423 -160
135 -29 163 -40 198 -78 30 -32 32 -98 5 -136 -39 -53 -85 -66 -228 -66 -145
0 -227 17 -383 80 -47 19 -87 35 -89 35 -2 0 -3 -60 -3 -134 l0 -135 57 -16
c174 -51 401 -81 533 -70 295 24 440 127 468 335 19 132 -13 247 -86 312 -80
73 -157 101 -400 148 -222 42 -262 64 -262 145 0 50 14 71 63 97 38 21 55 23
187 22 150 0 233 -15 364 -65 28 -10 52 -19 54 -19 1 0 1 60 0 133 l-3 132
-90 18 c-148 31 -159 35 -94 36 30 1 129 10 220 21 1114 138 2156 643 2934
1425 776 779 1279 1818 1415 2925 153 1252 -201 2548 -980 3585 -795 1057
-2025 1759 -3370 1925 -91 11 -257 24 -370 30 -223 11 -211 11 -450 -1z m640
-94 c823 -72 1612 -347 2303 -802 1000 -658 1721 -1678 2026 -2863 204 -793
204 -1607 0 -2400 -498 -1935 -2066 -3339 -4059 -3635 -400 -60 -940 -60
-1340 0 -736 109 -1421 369 -2033 772 -1141 751 -1916 1975 -2126 3356 -68
445 -68 969 0 1414 175 1152 750 2212 1604 2957 729 636 1604 1033 2590 1177
272 39 741 50 1035 24z"/>
<path d="M6336 10938 c-3 -13 -9 -70 -15 -128 -12 -123 -139 -1354 -251 -2440
-43 -421 -82 -800 -86 -842 -4 -43 -8 -78 -10 -78 -2 0 -410 318 -907 707
-496 389 -1129 884 -1406 1101 -368 289 -506 391 -511 381 -5 -7 -7 -16 -5
-19 2 -3 512 -630 1133 -1395 622 -764 1130 -1391 1129 -1392 -3 -2 -1952
-197 -3292 -329 -143 -14 -266 -27 -274 -30 -60 -20 87 -41 1764 -250 963
-120 1751 -219 1753 -220 2 -1 -499 -615 -1112 -1364 -614 -749 -1116 -1366
-1116 -1371 0 -5 6 -9 14 -9 8 0 511 386 1118 858 1615 1255 1707 1327 1718
1330 6 2 10 -8 10 -22 0 -15 34 -304 75 -644 41 -339 102 -840 135 -1112 33
-272 96 -792 140 -1155 44 -363 83 -666 86 -674 4 -13 7 -13 18 0 9 10 37 248
90 764 42 413 113 1097 156 1520 44 424 92 889 107 1035 14 146 29 269 33 273
4 4 639 -487 1411 -1092 772 -605 1407 -1101 1412 -1101 29 -1 -31 82 -311
425 -1579 1943 -1874 2307 -1871 2309 2 2 78 11 169 20 91 9 755 75 1475 146
721 71 1427 141 1570 156 143 14 266 27 274 30 59 20 -95 42 -1789 253 -976
122 -1778 223 -1782 224 -3 1 514 637 1149 1412 928 1132 1152 1411 1135 1413
-14 2 -450 -331 -1442 -1103 -783 -608 -1425 -1104 -1427 -1101 -4 4 -33 234
-173 1386 -49 410 -128 1060 -175 1444 -47 385 -85 701 -85 703 0 1 -7 3 -15
3 -8 0 -17 -10 -19 -22z"/>
<path d="M805 7143 c-276 -37 -515 -282 -607 -624 -18 -68 -22 -110 -22 -219
0 -121 3 -143 27 -214 49 -140 115 -219 232 -276 149 -74 362 -65 528 22 86
44 230 190 290 293 83 140 137 335 137 485 -2 357 -245 578 -585 533z m235
-179 c91 -50 141 -132 161 -268 30 -202 -62 -498 -198 -640 -107 -112 -201
-151 -347 -144 -106 5 -152 24 -210 88 -78 86 -108 223 -87 391 37 300 209
546 417 599 22 5 78 8 125 6 72 -3 95 -8 139 -32z"/>
<path d="M11631 6458 c-72 -365 -131 -665 -131 -668 0 -3 198 -5 440 -5 l440
0 11 55 c6 30 13 65 16 78 l5 22 -349 0 -349 0 43 218 c23 119 45 227 48 239
l5 23 327 2 327 3 13 60 c7 33 12 67 13 75 0 13 -41 15 -325 12 l-326 -3 7 38
c4 21 21 110 39 198 l32 160 341 3 341 2 11 58 c6 31 14 65 16 75 5 16 -20 17
-429 17 l-434 0 -132 -662z"/>
</g>
</svg>
