<?xml version="1.0" encoding="UTF-8" standalone="no"?>
<!-- Created with Inkscape (http://www.inkscape.org/) -->

<svg
   xmlns:dc="http://purl.org/dc/elements/1.1/"
   xmlns:cc="http://creativecommons.org/ns#"
   xmlns:rdf="http://www.w3.org/1999/02/22-rdf-syntax-ns#"
   xmlns:svg="http://www.w3.org/2000/svg"
   xmlns="http://www.w3.org/2000/svg"
   xmlns:sodipodi="http://sodipodi.sourceforge.net/DTD/sodipodi-0.dtd"
   xmlns:inkscape="http://www.inkscape.org/namespaces/inkscape"
   width="98.237289mm"
   height="98.114487mm"
   viewBox="0 0 98.23729 98.114487"
   version="1.1"
   id="svg845"
   inkscape:version="0.92.3 (2405546, 2018-03-11)"
   sodipodi:docname="esri_north_106_b.svg">
  <defs
     id="defs839" />
  <sodipodi:namedview
     id="base"
     pagecolor="#ffffff"
     bordercolor="#666666"
     borderopacity="1.0"
     inkscape:pageopacity="0.0"
     inkscape:pageshadow="2"
     inkscape:zoom="0.97458821"
     inkscape:cx="111.57624"
     inkscape:cy="202.9959"
     inkscape:document-units="mm"
     inkscape:current-layer="text1587"
     showgrid="false"
     inkscape:window-width="1366"
     inkscape:window-height="745"
     inkscape:window-x="0"
     inkscape:window-y="23"
     inkscape:window-maximized="1"
     fit-margin-top="0"
     fit-margin-left="0"
     fit-margin-right="0"
     fit-margin-bottom="0"
     showguides="true"
     inkscape:guide-bbox="true" />
  <metadata
     id="metadata842">
    <rdf:RDF>
      <cc:Work
         rdf:about="">
        <dc:format>image/svg+xml</dc:format>
        <dc:type
           rdf:resource="http://purl.org/dc/dcmitype/StillImage" />
        <dc:title></dc:title>
      </cc:Work>
    </rdf:RDF>
  </metadata>
  <g
     inkscape:label="Camada 1"
     inkscape:groupmode="layer"
     id="layer1"
     transform="translate(0.16111107,-199.15822)">
    <g
       aria-label="2"
       style="font-style:normal;font-weight:normal;font-size:124.42774963px;line-height:1.25;font-family:sans-serif;letter-spacing:0px;word-spacing:0px;fill:#000000;fill-opacity:1;stroke:none;stroke-width:5.18448925"
       id="text1587">
      <g
         aria-label="©"
         style="font-style:normal;font-weight:normal;font-size:122.79660797px;line-height:1.25;font-family:sans-serif;letter-spacing:0px;word-spacing:0px;fill:#000000;fill-opacity:1;stroke:none;stroke-width:26.52657127"
         id="text1792">
        <path
           d="m 90.462786,248.27686 -32.541102,-4.29788 -7.244999,-35.61102 -6.87661,35.61102 -32.909491,4.29788 31.435931,3.6839 -3.438305,19.64745 7.98178,-12.77084 3.806695,29.10279 4.175084,-29.10279 7.98178,12.77084 -3.561102,-19.64745 z m -40.154491,3.31551 -10.437712,17.68271 10.437712,-55.87246 z m 11.542881,17.68271 -10.806102,-17.68271 v -38.18975 z m -18.173898,-24.68212 -0.613983,3.6839 h -27.87483 z m 43.347203,3.6839 -27.87483,3.19271 -0.73678,-3.19271 z m -36.347796,4.54347 v 31.19034 L 47.483973,258.10059 Z M 8.5574481,244.83855 H 7.4522786 l -1.2279661,5.40305 q 0,0 -0.4911864,-1.35076 -0.3683898,-1.47356 -0.9823729,-4.05229 h -1.227966 l -1.4735593,5.40305 q -0.6139831,-1.96474 -0.8595763,-3.19271 -0.2455932,-1.35076 -0.49118642,-2.21034 h -0.85957625 l 1.71915247,6.75382 h 0.9823729 l 1.4735593,-5.89424 h 0.1227966 l 1.5963559,5.89424 H 6.715499 Z M 53.501007,206.03483 v -6.87661 h -1.10517 v 5.15745 l -3.315508,-5.15745 h -0.982373 v 6.87661 h 0.982373 v -5.15746 l 3.438305,5.15746 z m 44.575168,45.68033 v -0.73678 h -4.175084 v -2.33313 h 3.561101 v -0.85958 h -3.561101 v -1.96474 h 3.929491 v -0.85958 h -5.034661 v 6.75381 z m -49.978219,43.22441 q 0,2.33314 2.701525,2.33314 1.10517,0 1.841949,-0.49119 0.73678,-0.49119 0.73678,-1.47356 0,-1.10517 -1.227966,-1.59636 -0.245593,-0.24559 -1.350763,-0.36839 -1.105169,-0.24559 -1.350762,-0.49118 -0.245594,-0.2456 -0.245594,-0.61399 0,-0.98237 1.596356,-0.98237 1.350763,0 1.596356,1.10517 h 0.859576 q -0.245593,-0.73678 -0.859576,-1.35076 -0.613983,-0.61398 -1.719152,-0.61398 -0.982373,0 -1.719153,0.61398 -0.613983,0.49118 -0.613983,1.22796 0,1.10517 0.982373,1.47356 0.245593,0.2456 1.227966,0.49119 0.982373,0.1228 1.227966,0.24559 0.36839,0.2456 0.491187,0.49119 0.245593,0.1228 0.245593,0.49119 0,0.98237 -1.719153,0.98237 -1.841949,0 -1.841949,-1.47356 z"
           style="font-style:normal;font-variant:normal;font-weight:normal;font-stretch:normal;font-family:'ESRI North';-inkscape-font-specification:'ESRI North, ';stroke-width:26.52657127"
           id="path4305"
           inkscape:connector-curvature="0" />
      </g>
    </g>
  </g>
</svg>
