<?xml version="1.0" encoding="UTF-8" standalone="no"?>
<svg
   xmlns:dc="http://purl.org/dc/elements/1.1/"
   xmlns:cc="http://creativecommons.org/ns#"
   xmlns:rdf="http://www.w3.org/1999/02/22-rdf-syntax-ns#"
   xmlns:svg="http://www.w3.org/2000/svg"
   xmlns="http://www.w3.org/2000/svg"
   xmlns:sodipodi="http://sodipodi.sourceforge.net/DTD/sodipodi-0.dtd"
   xmlns:inkscape="http://www.inkscape.org/namespaces/inkscape"
   version="1.0"
   width="640.000000pt"
   height="1280.000000pt"
   viewBox="0 0 640.000000 1280.000000"
   preserveAspectRatio="xMidYMid meet"
   id="svg10"
   sodipodi:docname="North_Arrow_011.svg"
   inkscape:version="0.92.3 (2405546, 2018-03-11)">
  <metadata
     id="metadata16">
    <rdf:RDF>
      <cc:Work
         rdf:about="">
        <dc:format>image/svg+xml</dc:format>
        <dc:type
           rdf:resource="http://purl.org/dc/dcmitype/StillImage" />
      </cc:Work>
    </rdf:RDF>
  </metadata>
  <defs
     id="defs14" />
  <sodipodi:namedview
     pagecolor="#ffffff"
     bordercolor="#666666"
     borderopacity="1"
     objecttolerance="10"
     gridtolerance="10"
     guidetolerance="10"
     inkscape:pageopacity="0"
     inkscape:pageshadow="2"
     inkscape:window-width="1366"
     inkscape:window-height="745"
     id="namedview12"
     showgrid="false"
     inkscape:zoom="0.13828125"
     inkscape:cx="426.66667"
     inkscape:cy="853.33333"
     inkscape:window-x="0"
     inkscape:window-y="23"
     inkscape:window-maximized="1"
     inkscape:current-layer="svg10" />
  <g
     id="g24">
    <path
       d="m 317.7,3 c -0.4,1.9 -3,10.4 -5.7,19 -5.9,18.8 -39.2,124.3 -46.1,146.5 -2.8,8.8 -8.6,26.8 -13,40 -4.3,13.3 -7.9,25 -7.9,26.1 0,2.6 2.8,7 42,66.4 l 31.3,47.5 0.5,32.5 c 0.2,17.9 0.6,32.7 0.9,33 0.3,0.3 0.3,-13.5 0.1,-30.5 l -0.5,-31 2.5,-4 c 1.4,-2.2 17.9,-27.6 36.7,-56.5 18.8,-28.9 34.6,-53.3 35.2,-54.4 0.8,-1.4 -0.2,-5.5 -4.3,-18 C 383.2,200.7 372.6,168.1 364.2,142 350.8,100.8 331.5,41.4 325.8,24 322.5,13.8 319.4,4.1 319.1,2.5 l -0.7,-3 z"
       id="path2"
       inkscape:connector-curvature="0"
       style="fill:#000000;stroke:none;stroke-width:0.1" />
    <path
       d="m 313,415.6 c -23,2.4 -37.7,5.7 -51,11.2 -32,13.4 -62.5,42.5 -77,73.4 -10.9,23.4 -17.1,54.2 -15,75.8 2.6,27 7.7,44.4 18.5,63.5 9.1,16 27.3,36.5 42,47.3 21.6,15.9 50.4,26.5 78.6,28.8 4.3,0.4 8.2,1 8.8,1.4 0.8,0.4 1,18 0.9,60.8 l -0.3,60.2 -18.2,-28.3 -18.2,-28.2 -21.3,0.2 c -11.7,0.1 -22.4,0.2 -23.7,0.3 -2.2,0 -2,0.4 2.8,5.4 l 5.1,5.5 v 78.1 78.1 l -5.2,5.5 c -2.8,3 -4.9,5.7 -4.6,5.9 0.5,0.5 37.2,0.9 51.3,0.6 l 5.9,-0.1 -4.9,-5.3 -5,-5.2 0.5,-44.5 0.5,-44.5 12.6,19 c 6.9,10.4 14.9,22.6 17.7,27.1 l 5.2,8.1 v 50.7 50.7 l -14.5,28.7 c -8,15.8 -16.5,32.5 -19,37.1 l -4.5,8.5 v 94.4 94.4 l 3.8,-3.3 c 2,-1.7 10.9,-10.2 19.7,-18.7 8.7,-8.5 16.1,-15 16.2,-14.5 0.2,0.6 8.7,9 18.9,18.8 l 18.4,17.7 -0.2,-95.4 -0.3,-95.4 -4.2,-6.9 c -2.3,-3.9 -10.6,-18.9 -18.5,-33.5 l -14.3,-26.5 -0.3,-52.5 c -0.2,-28.8 -0.1,-52.2 0.2,-52 0.2,0.3 6.6,10 14.2,21.5 7.5,11.6 14.1,21.3 14.6,21.6 1.4,0.9 35.2,0.4 36.7,-0.5 0.7,-0.5 3.3,-0.5 5.9,-0.2 l 4.7,0.6 -5,-4.4 -5,-4.5 -0.3,-79.8 -0.3,-79.8 4.5,-4.5 c 7.7,-7.5 8.3,-7.3 -23.6,-6.5 -15.6,0.4 -28.4,0.8 -28.5,0.9 -0.1,0.1 2,2.5 4.7,5.3 l 5,5 -0.2,44.7 -0.3,44.7 -13.7,-20.7 -13.8,-20.8 v -61.7 -61.8 l 4.3,-0.5 c 18.7,-2.2 30.4,-4 37.2,-5.8 35.8,-9.5 73.5,-39.3 90.2,-71.3 15.6,-30.1 21.6,-64.4 16.9,-96 -5.2,-34 -17.6,-58.3 -42.6,-83.6 -23.3,-23.4 -49.7,-36.6 -85,-42.2 -10.7,-1.7 -22.7,-2.6 -28,-2.1 z m 72.7,532.6 c -0.2,1.8 -0.4,0.6 -0.4,-2.7 0,-3.3 0.2,-4.8 0.4,-3.3 0.2,1.5 0.2,4.2 0,6 z"
       id="path4"
       inkscape:connector-curvature="0"
       style="fill:#000000;stroke:none;stroke-width:0.1" />
    <path
       d="m 283.1,949.6 c 0,1.1 0.3,1.4 0.6,0.6 0.3,-0.7 0.2,-1.6 -0.1,-1.9 -0.3,-0.4 -0.6,0.2 -0.5,1.3 z"
       id="path6"
       inkscape:connector-curvature="0"
       style="fill:#000000;stroke:none;stroke-width:0.1" />
  </g>
</svg>
