<?xml version="1.0" encoding="UTF-8" standalone="no"?>
<!-- Created with Inkscape (http://www.inkscape.org/) -->

<svg
   xmlns:dc="http://purl.org/dc/elements/1.1/"
   xmlns:cc="http://creativecommons.org/ns#"
   xmlns:rdf="http://www.w3.org/1999/02/22-rdf-syntax-ns#"
   xmlns:svg="http://www.w3.org/2000/svg"
   xmlns="http://www.w3.org/2000/svg"
   xmlns:sodipodi="http://sodipodi.sourceforge.net/DTD/sodipodi-0.dtd"
   xmlns:inkscape="http://www.inkscape.org/namespaces/inkscape"
   width="97.993454mm"
   height="97.625977mm"
   viewBox="0 0 97.993454 97.625977"
   version="1.1"
   id="svg845"
   inkscape:version="0.92.3 (2405546, 2018-03-11)"
   sodipodi:docname="esri_north_090_b.svg">
  <defs
     id="defs839" />
  <sodipodi:namedview
     id="base"
     pagecolor="#ffffff"
     bordercolor="#666666"
     borderopacity="1.0"
     inkscape:pageopacity="0.0"
     inkscape:pageshadow="2"
     inkscape:zoom="0.97458821"
     inkscape:cx="179.67447"
     inkscape:cy="175.17475"
     inkscape:document-units="mm"
     inkscape:current-layer="text1587"
     showgrid="false"
     inkscape:window-width="1366"
     inkscape:window-height="745"
     inkscape:window-x="0"
     inkscape:window-y="23"
     inkscape:window-maximized="1"
     fit-margin-top="0"
     fit-margin-left="0"
     fit-margin-right="0"
     fit-margin-bottom="0"
     showguides="true"
     inkscape:guide-bbox="true" />
  <metadata
     id="metadata842">
    <rdf:RDF>
      <cc:Work
         rdf:about="">
        <dc:format>image/svg+xml</dc:format>
        <dc:type
           rdf:resource="http://purl.org/dc/dcmitype/StillImage" />
        <dc:title></dc:title>
      </cc:Work>
    </rdf:RDF>
  </metadata>
  <g
     inkscape:label="Camada 1"
     inkscape:groupmode="layer"
     id="layer1"
     transform="translate(-0.38185358,-199.22095)">
    <g
       aria-label="2"
       style="font-style:normal;font-weight:normal;font-size:124.42774963px;line-height:1.25;font-family:sans-serif;letter-spacing:0px;word-spacing:0px;fill:#000000;fill-opacity:1;stroke:none;stroke-width:5.18448925"
       id="text1587">
      <g
         aria-label="Ç"
         style="font-style:normal;font-weight:normal;font-size:122.49181366px;line-height:1.25;font-family:sans-serif;letter-spacing:0px;word-spacing:0px;fill:#000000;fill-opacity:1;stroke:none;stroke-width:26.4607296"
         id="text1792">
        <path
           d="m 98.375305,247.8502 -14.944002,2.57233 q -0.367475,6.49207 -3.062295,12.12669 -2.572328,5.63463 -6.859542,10.04433 -4.287213,4.28721 -10.044328,6.98203 -5.634624,2.57233 -12.004198,2.93981 l -1.837377,14.33154 -2.449837,-14.33154 q -6.614558,-0.36748 -12.371673,-3.0623 -5.757115,-2.69482 -10.044329,-6.98203 -4.287213,-4.40971 -6.859541,-10.16682 -2.572328,-5.75712 -2.939804,-12.24918 L 0.38185358,247.8502 14.958379,245.76784 q 0.367476,-6.49206 2.939804,-12.12669 2.572328,-5.63462 6.859541,-9.92183 4.409706,-4.28722 10.044329,-6.85954 5.757115,-2.57233 12.371673,-2.93981 l 2.449837,-14.69902 1.959869,14.57653 q 6.369574,0.36748 12.004197,3.0623 5.634624,2.57232 9.921837,6.85954 4.287214,4.28721 6.859542,10.04433 2.69482,5.63462 3.062295,12.00419 z m -69.697842,-20.8236 14.944001,7.472 -6.369575,-13.96407 q -10.534295,5.38964 -15.433968,15.18898 l 14.20905,6.24709 0.367476,-0.73495 z m 14.086558,34.54269 -14.086558,7.59449 7.227017,-14.33154 -14.331543,5.38964 q 4.899673,10.28931 14.82151,15.31147 l 6.492066,-13.84157 z m 12.494165,0.12249 q -0.122492,0.12249 -0.122492,0.24498 l 6.492066,13.71909 q 9.799346,-5.02217 14.699018,-14.82151 l -13.474099,-6.12459 -0.244984,0.24498 7.594492,14.20905 z m 7.472001,-19.96617 q 0.244983,0.24499 0.244983,0.61246 0.122492,0.24499 0.367476,0.48997 l 13.229116,-6.98203 q -4.532197,-9.67686 -13.841575,-14.57653 l -6.492066,13.71908 13.964066,-7.96196 z m -8.329444,-7.59449 q 0,0.36748 0.612459,0.36748 l 6.492067,-13.84158 q -4.409706,-2.08236 -9.43187,-2.32734 z m -7.716984,44.34204 -2.449836,-16.41391 h -0.122492 l -6.492066,13.96407 q 1.34741,0.97994 3.919738,1.4699 2.572328,0.48997 5.144656,0.97994 z M 35.29202,252.99486 19.000609,250.54502 q 0.489968,4.65469 2.204853,8.45194 l 14.20905,-5.38964 z m -16.291411,-7.71698 16.536395,-2.08236 -14.20905,-6.24709 q -0.857443,2.20486 -1.469902,4.28722 -0.612459,2.08236 -0.857443,4.04223 z m 32.950298,33.19528 q 2.082361,-0.36748 4.287214,-0.85745 2.204852,-0.48996 4.287213,-1.4699 l -6.492066,-13.59659 z m 27.193183,-27.43817 -15.556461,2.57233 13.106624,6.0021 q 0.979935,-2.20485 1.469902,-4.28722 0.489968,-2.08236 0.979935,-4.28721 z M 46.683759,218.32968 q -2.449836,0.12249 -4.409705,0.61246 -1.959869,0.36747 -3.919738,0.97993 l 6.12459,13.22912 z m 32.460331,26.9482 q -0.244984,-2.32735 -0.734951,-4.28722 -0.489967,-1.95987 -1.224918,-4.04223 l -2.69482,1.22492 -9.799345,5.14466 z"
           style="font-style:normal;font-variant:normal;font-weight:normal;font-stretch:normal;font-family:'ESRI North';-inkscape-font-specification:'ESRI North, ';stroke-width:26.4607296"
           id="path3269"
           inkscape:connector-curvature="0" />
      </g>
    </g>
  </g>
</svg>
