<?xml version="1.0" encoding="iso-8859-1"?>
<!-- Generator: Adobe Illustrator 19.0.0, SVG Export Plug-In . SVG Version: 6.00 Build 0)  -->
<svg version="1.1" id="Layer_1" xmlns="http://www.w3.org/2000/svg" xmlns:xlink="http://www.w3.org/1999/xlink" x="0px" y="0px"
	 viewBox="0 0 512 512" style="enable-background:new 0 0 512 512;" xml:space="preserve">
<g>
	<g>
		<path d="M256,0C114.842,0,0,114.842,0,256s114.842,256,256,256s256-114.842,256-256S397.158,0,256,0z M256,494.933
			C124.254,494.933,17.067,387.746,17.067,256S124.254,17.067,256,17.067S494.933,124.254,494.933,256S387.746,494.933,256,494.933z
			"/>
	</g>
</g>
<g>
	<g>
		<path d="M451.021,345.421l-187.733-307.2c-3.106-5.077-11.46-5.077-14.566,0l-187.733,307.2c-1.604,2.637-1.673,5.931-0.162,8.627
			c1.51,2.688,4.352,4.352,7.441,4.352h375.467c3.089,0,5.931-1.664,7.441-4.361C452.685,351.352,452.625,348.049,451.021,345.421z"
			/>
	</g>
</g>
<g>
</g>
<g>
</g>
<g>
</g>
<g>
</g>
<g>
</g>
<g>
</g>
<g>
</g>
<g>
</g>
<g>
</g>
<g>
</g>
<g>
</g>
<g>
</g>
<g>
</g>
<g>
</g>
<g>
</g>
</svg>
