<?xml version="1.0" encoding="iso-8859-1"?>
<!-- Generator: Adobe Illustrator 19.0.0, SVG Export Plug-In . SVG Version: 6.00 Build 0)  -->
<svg version="1.1" id="Layer_1" xmlns="http://www.w3.org/2000/svg" xmlns:xlink="http://www.w3.org/1999/xlink" x="0px" y="0px"
	 viewBox="0 0 512 512" style="enable-background:new 0 0 512 512;" xml:space="preserve">
<g>
	<g>
		<path d="M503.467,247.467H366.498c-2.705-35.277-21.914-65.954-49.963-84.309L264.09,5.837C262.938,2.347,259.678,0,256,0
			s-6.938,2.347-8.09,5.837l-52.446,157.321c-28.049,18.355-47.258,49.033-49.963,84.309H8.533C3.814,247.467,0,251.29,0,256
			s3.814,8.533,8.533,8.533h136.969c4.164,54.357,47.607,97.801,101.965,101.965v136.969c0,4.71,3.814,8.533,8.533,8.533
			s8.533-3.823,8.533-8.533V366.498c54.357-4.164,97.801-47.607,101.965-101.965h136.969c4.719,0,8.533-3.823,8.533-8.533
			S508.186,247.467,503.467,247.467z M247.467,349.432c-44.954-4.07-80.828-39.945-84.898-84.898h84.898V349.432z M247.467,247.467
			h-84.898c4.07-44.954,39.945-80.828,84.898-84.898V247.467z M264.533,349.432v-84.898h84.898
			C345.361,309.487,309.487,345.361,264.533,349.432z M264.533,247.467v-84.898c44.954,4.07,80.828,39.945,84.898,84.898H264.533z"
			/>
	</g>
</g>
<g>
</g>
<g>
</g>
<g>
</g>
<g>
</g>
<g>
</g>
<g>
</g>
<g>
</g>
<g>
</g>
<g>
</g>
<g>
</g>
<g>
</g>
<g>
</g>
<g>
</g>
<g>
</g>
<g>
</g>
</svg>
