<?xml version="1.0" encoding="UTF-8" standalone="no"?>
<!-- Created with Inkscape (http://www.inkscape.org/) -->

<svg
   xmlns:dc="http://purl.org/dc/elements/1.1/"
   xmlns:cc="http://creativecommons.org/ns#"
   xmlns:rdf="http://www.w3.org/1999/02/22-rdf-syntax-ns#"
   xmlns:svg="http://www.w3.org/2000/svg"
   xmlns="http://www.w3.org/2000/svg"
   xmlns:sodipodi="http://sodipodi.sourceforge.net/DTD/sodipodi-0.dtd"
   xmlns:inkscape="http://www.inkscape.org/namespaces/inkscape"
   width="17.121449mm"
   height="100.3888mm"
   viewBox="0 0 17.121449 100.3888"
   version="1.1"
   id="svg845"
   inkscape:version="0.92.3 (2405546, 2018-03-11)"
   sodipodi:docname="esri_north_021_b.svg">
  <defs
     id="defs839" />
  <sodipodi:namedview
     id="base"
     pagecolor="#ffffff"
     bordercolor="#666666"
     borderopacity="1.0"
     inkscape:pageopacity="0.0"
     inkscape:pageshadow="2"
     inkscape:zoom="0.97458821"
     inkscape:cx="46.593503"
     inkscape:cy="146.78634"
     inkscape:document-units="mm"
     inkscape:current-layer="text1587"
     showgrid="false"
     inkscape:window-width="1366"
     inkscape:window-height="745"
     inkscape:window-x="0"
     inkscape:window-y="23"
     inkscape:window-maximized="1"
     fit-margin-top="0"
     fit-margin-left="0"
     fit-margin-right="0"
     fit-margin-bottom="0"
     showguides="true"
     inkscape:guide-bbox="true" />
  <metadata
     id="metadata842">
    <rdf:RDF>
      <cc:Work
         rdf:about="">
        <dc:format>image/svg+xml</dc:format>
        <dc:type
           rdf:resource="http://purl.org/dc/dcmitype/StillImage" />
        <dc:title></dc:title>
      </cc:Work>
    </rdf:RDF>
  </metadata>
  <g
     inkscape:label="Camada 1"
     inkscape:groupmode="layer"
     id="layer1"
     transform="translate(-5.8114972,-195.76347)">
    <g
       aria-label="2"
       style="font-style:normal;font-weight:normal;font-size:124.42774963px;line-height:1.25;font-family:sans-serif;letter-spacing:0px;word-spacing:0px;fill:#000000;fill-opacity:1;stroke:none;stroke-width:5.18448925"
       id="text1587">
      <g
         aria-label="*"
         style="font-style:normal;font-weight:normal;font-size:125.80049896px;line-height:1.25;font-family:sans-serif;letter-spacing:0px;word-spacing:0px;fill:#000000;fill-opacity:1;stroke:none;stroke-width:27.17547226"
         id="text1792">
        <path
           d="m 22.920365,214.38194 q 0.125801,0 -1.006404,-1.3838 -1.132204,-1.50961 -2.64181,-3.89982 -1.509606,-2.51601 -2.893412,-5.91262 -1.258005,-3.39661 -1.383805,-7.42223 0,4.02562 -1.383806,7.29643 -1.258005,3.27081 -2.893411,5.78682 -1.6354068,2.39021 -3.1450128,3.89982 -1.509606,1.3838 -1.761207,1.6354 l 2.767611,2.01281 4.9062198,-4.52882 v 38.74656 l -3.8998158,3.27081 v 4.52882 l 3.8998158,-3.52242 v 2.64182 l -3.8998158,3.64821 v 4.52882 l 3.8998158,-3.77402 v 2.51601 l -3.7740153,4.52882 v 4.27722 l 3.7740153,-3.89982 0.251601,3.14501 -4.0256163,3.77402 v 4.27722 l 4.0256163,-3.52242 v 2.76761 l -4.0256163,3.89982 v 4.90622 l 4.0256163,-4.15142 v 3.14501 l -4.0256163,3.89982 v 4.65462 l 5.6610223,-5.40942 5.283621,5.28362 v -4.52882 l -3.774015,-3.89982 v -3.14501 l 3.774015,4.15142 v -4.90622 l -3.774015,-3.89982 v -3.52241 l 3.774015,4.27722 v -4.78042 l -3.774015,-3.27082 -0.1258,-3.14501 3.774015,3.89982 v -4.27722 l -3.774015,-4.52882 v -2.51601 l 3.774015,3.77402 v -4.90622 l -3.774015,-3.27081 v -3.27082 l 3.774015,3.39662 v -4.02562 l -4.025616,-3.89982 v -37.86595 l 4.151416,4.52882 z"
           style="font-style:normal;font-variant:normal;font-weight:normal;font-stretch:normal;font-family:'ESRI North';-inkscape-font-specification:'ESRI North, ';stroke-width:27.17547226"
           id="path3004"
           inkscape:connector-curvature="0" />
      </g>
    </g>
  </g>
</svg>
