<?xml version="1.0" encoding="iso-8859-1"?>
<!-- Generator: Adobe Illustrator 19.0.0, SVG Export Plug-In . SVG Version: 6.00 Build 0)  -->
<svg version="1.1" id="Layer_1" xmlns="http://www.w3.org/2000/svg" xmlns:xlink="http://www.w3.org/1999/xlink" x="0px" y="0px"
	 viewBox="0 0 512 512" style="enable-background:new 0 0 512 512;" xml:space="preserve">
<g>
	<g>
		<path d="M256,0C114.842,0,0,114.842,0,256s114.842,256,256,256s256-114.842,256-256S397.158,0,256,0z M469.675,149.257
			L272.316,17.69C358.758,23.552,432.708,75.563,469.675,149.257z M239.684,17.69L42.325,149.257
			C79.292,75.563,153.242,23.552,239.684,17.69z M179.2,482.202c-69.538-23.68-124.732-78.524-148.873-147.849L179.2,237.594
			V482.202z M332.8,482.202V237.594l148.873,96.768C457.532,403.678,402.338,458.522,332.8,482.202z M328.917,214.716
			c-2.62-1.707-5.982-1.843-8.713-0.35c-2.756,1.493-4.471,4.369-4.471,7.501V486.4h3.413c-20.13,5.521-41.293,8.533-63.147,8.533
			c-21.854,0-43.017-3.012-63.147-8.533h3.413V221.867c0-3.132-1.715-6.008-4.463-7.501c-2.739-1.493-6.093-1.365-8.713,0.35
			L25.105,317.397c-5.222-19.601-8.038-40.175-8.038-61.397c0-27.383,4.693-53.683,13.21-78.208
			c0.017-0.009,0.034-0.017,0.051-0.026L256,27.324l225.664,150.443c0.017,0.008,0.034,0.017,0.051,0.026
			c8.525,24.525,13.218,50.825,13.218,78.208c0,21.222-2.816,41.796-8.038,61.397L328.917,214.716z"/>
	</g>
</g>
<g>
</g>
<g>
</g>
<g>
</g>
<g>
</g>
<g>
</g>
<g>
</g>
<g>
</g>
<g>
</g>
<g>
</g>
<g>
</g>
<g>
</g>
<g>
</g>
<g>
</g>
<g>
</g>
<g>
</g>
</svg>
