<?xml version="1.0" encoding="UTF-8" standalone="no"?>
<!-- Created with Inkscape (http://www.inkscape.org/) -->

<svg
   xmlns:dc="http://purl.org/dc/elements/1.1/"
   xmlns:cc="http://creativecommons.org/ns#"
   xmlns:rdf="http://www.w3.org/1999/02/22-rdf-syntax-ns#"
   xmlns:svg="http://www.w3.org/2000/svg"
   xmlns="http://www.w3.org/2000/svg"
   xmlns:sodipodi="http://sodipodi.sourceforge.net/DTD/sodipodi-0.dtd"
   xmlns:inkscape="http://www.inkscape.org/namespaces/inkscape"
   width="96.782005mm"
   height="99.598412mm"
   viewBox="0 0 96.782005 99.598412"
   version="1.1"
   id="svg845"
   inkscape:version="0.92.3 (2405546, 2018-03-11)"
   sodipodi:docname="esri_north_005_b.svg">
  <defs
     id="defs839" />
  <sodipodi:namedview
     id="base"
     pagecolor="#ffffff"
     bordercolor="#666666"
     borderopacity="1.0"
     inkscape:pageopacity="0.0"
     inkscape:pageshadow="2"
     inkscape:zoom="0.97458821"
     inkscape:cx="179.89397"
     inkscape:cy="153.32188"
     inkscape:document-units="mm"
     inkscape:current-layer="text1587"
     showgrid="false"
     inkscape:window-width="1366"
     inkscape:window-height="745"
     inkscape:window-x="0"
     inkscape:window-y="23"
     inkscape:window-maximized="1"
     fit-margin-top="0"
     fit-margin-left="0"
     fit-margin-right="0"
     fit-margin-bottom="0"
     showguides="true"
     inkscape:guide-bbox="true" />
  <metadata
     id="metadata842">
    <rdf:RDF>
      <cc:Work
         rdf:about="">
        <dc:format>image/svg+xml</dc:format>
        <dc:type
           rdf:resource="http://purl.org/dc/dcmitype/StillImage" />
        <dc:title></dc:title>
      </cc:Work>
    </rdf:RDF>
  </metadata>
  <g
     inkscape:label="Camada 1"
     inkscape:groupmode="layer"
     id="layer1"
     transform="translate(-0.51983076,-196.80546)">
    <g
       aria-label="2"
       style="font-style:normal;font-weight:normal;font-size:124.42774963px;line-height:1.25;font-family:sans-serif;letter-spacing:0px;word-spacing:0px;fill:#000000;fill-opacity:1;stroke:none;stroke-width:5.18448925"
       id="text1587">
      <g
         aria-label="5"
         style="font-style:normal;font-weight:normal;font-size:128.01852417px;line-height:1.25;font-family:sans-serif;letter-spacing:0px;word-spacing:0px;fill:#000000;fill-opacity:1;stroke:none;stroke-width:27.65461159"
         id="text1792">
        <path
           d="m 29.836073,249.16503 9.601389,2.43236 9.089315,-5.37678 H 29.580036 v -2.30434 q 0,-0.38405 0,-0.76811 0.128018,-0.38405 0.256037,-0.89613 l -14.850149,3.96858 14.978167,4.09659 z m 25.859742,8.44923 -5.120741,-9.08932 v 18.69071 h 1.408203 q 1.280186,0 1.536223,-0.12802 l -2.944426,12.54581 v -12.41779 q -2.176315,0 -4.096593,-0.38406 l 4.096593,16.00232 3.968574,-16.00232 q -0.128019,0.12802 -0.512074,0.12802 -0.384056,0 -0.512074,0.12802 z m 30.084353,-11.39365 -14.338075,-3.84056 q 0.128019,0.12802 0.128019,1.02415 l 11.26563,2.81641 H 71.69813 v -1.66424 q 0,-1.02415 -0.128018,-1.15217 l -10.113464,-2.56037 -8.961296,5.37678 H 71.69813 q -0.128018,1.02415 -0.256037,2.04829 0,0.89613 -0.256037,1.92028 z M 50.575074,224.20142 H 49.16687 q -1.152167,0 -1.280185,0.12802 l 2.688389,-11.39365 v 11.26563 q 1.920278,0 3.712537,0.38406 l -3.712537,-14.97817 -3.712537,14.97817 q 0.128018,-0.12802 0.512074,-0.12802 0.384055,0 0.512074,-0.12802 l -2.432352,10.62554 5.120741,8.96129 z m 0,21.89117 14.850149,-15.61826 -0.384056,-0.38406 2.56037,-1.79226 -2.176314,2.17632 q 0.512074,0.51207 0.640092,0.76811 0.256037,0.25604 0.384056,0.38406 l -2.944426,4.73668 q 1.536222,1.92028 2.176315,4.48065 l 5.760833,1.53622 q -1.024148,-6.14489 -4.992722,-10.75355 l 3.4565,-5.63282 -5.376778,3.58452 0.512074,0.51207 -7.297056,5.37678 z m -0.128019,0 -15.106186,-15.36222 1.024149,-1.02415 -5.376778,-3.71254 3.4565,5.76083 q -3.840556,4.60867 -4.608667,10.49752 l 5.376778,-1.4082 q 0.384055,-1.28019 0.896129,-2.30433 0.640093,-1.15217 1.280186,-2.17632 l -2.944426,-4.60867 q 0.256037,-0.25603 0.256037,-0.38405 0.128018,-0.12802 0.256037,-0.25604 l -1.664241,-2.56037 2.048296,2.17632 -0.384055,0.38405 5.120741,7.68111 z m 0.128019,0.25604 7.169037,10.62553 6.784982,4.86471 q -0.256037,0.25604 -0.384056,0.38405 -0.128018,0 -0.256037,0.12802 l 6.016871,4.09659 -3.968574,-6.14488 q 3.968574,-4.35263 5.248759,-10.11347 l -5.504796,1.40821 q -0.256037,1.02414 -0.89613,2.04829 -0.512074,1.02415 -1.408204,2.43235 l 2.560371,4.22462 q -0.128019,0.12801 -0.384056,0.38405 -0.128018,0.25604 -0.512074,0.64009 l 2.56037,2.68839 -3.072444,-2.17631 0.512074,-0.51208 z m -0.128019,0 -14.466093,14.97816 q 0.384056,0.12802 0.512074,0.51208 l -3.072445,2.17631 2.560371,-2.68839 q -0.256037,-0.25603 -0.512074,-0.51207 -0.256037,-0.38406 -0.512074,-0.76811 l 2.432352,-3.96858 q -1.664241,-2.04829 -2.176315,-4.48064 l -5.24876,-1.28019 q 1.152167,5.5048 4.992723,9.72941 l -3.968574,6.40092 6.144889,-4.09659 q -0.256037,-0.25603 -0.384056,-0.25603 -0.128018,-0.12802 -0.256037,-0.25604 l 6.656963,-4.86471 z m -9.601389,-13.56997 q 1.280185,-1.02415 2.432352,-1.53622 1.152167,-0.51207 2.176315,-0.76811 l 1.408204,-5.88885 q -2.944427,0.51207 -5.632816,1.92028 -2.688389,1.28018 -4.864703,3.20046 z m -25.987761,8.19319 h -3.072444 v 0.25604 q 0.640093,0 0.768111,0.12801 0.384056,0.25604 0.384056,0.6401 0,0.25603 -0.128019,0.51207 0,0.25604 -0.128018,0.76811 l -2.176315,5.76084 -1.9202782,-5.63282 q -0.3840556,-0.89613 -0.3840556,-1.4082 0,-0.76811 0.8961297,-0.76811 h 0.256037 v -0.25604 H 5.2565162 v 0.25604 q 0.256037,0 0.3840555,0.12801 0.1280186,0 0.3840556,0.25604 0.2560371,0 0.2560371,0.25604 0.256037,0.25604 0.3840555,0.64009 l 0.6400926,1.79226 -1.4082037,4.99272 -2.0482964,-6.01687 q -0.3840556,-0.89613 -0.3840556,-1.28018 0,-0.76811 0.7681112,-0.76811 h 0.256037 v -0.25604 H 0.51983076 v 0.25604 q 0.89612964,0 1.15216674,0.64009 0.1280185,0.25604 0.3840556,1.15217 l 3.2004631,8.70525 h 0.6400926 l 1.7922593,-6.2729 2.1763149,6.2729 h 0.256037 l 3.200463,-8.44922 q 0.128019,-1.02415 0.384056,-1.28018 0.512074,-0.76811 1.152166,-0.76811 z m 40.965928,-10.49752 q 1.024148,0.25604 2.048297,0.89613 1.024148,0.64009 2.048296,1.4082 l 4.608667,-3.20046 q -4.35263,-3.96857 -10.241482,-4.99272 z m -14.850149,29.18822 -3.840555,2.68839 q 4.096592,3.4565 9.345352,4.48065 l -1.152167,-4.73668 q -2.304333,-0.76812 -4.35263,-2.43236 z m 14.722131,2.43236 -1.152167,4.73668 q 5.248759,-1.02415 9.345352,-4.48065 l -3.968574,-2.68839 q -1.408204,1.40821 -4.224611,2.43236 z m 0.384055,-65.28945 h -3.712537 v 0.25603 h 0.256037 q 0.640093,0 1.024148,0.38406 0.256037,0.25604 0.256037,1.15217 v 6.2729 l -6.656963,-8.06516 h -2.816407 v 0.38405 q 0.640092,0 0.768111,0.12802 0.128018,0.12802 0.384055,0.38406 0.384056,0.12802 1.024148,0.64009 v 7.16904 q 0,0.89613 -0.256037,1.15216 -0.256037,0.38406 -1.024148,0.38406 h -0.256037 v 0.25604 h 3.712537 v -0.25604 h -0.384055 q 0,0 -0.256037,0 -0.256037,-0.12802 -0.768111,-0.25604 -0.128019,-0.12802 -0.128019,-1.28018 v -6.40093 l 6.913,8.44922 h 0.384056 v -8.96129 q 0,-0.89613 0.128018,-1.02415 0.128019,-0.51208 1.024149,-0.51208 h 0.384055 z m 40.837909,51.97552 q -0.256037,0.51207 -0.512074,0.89613 -0.256037,0.38405 -0.512074,0.64009 -0.640092,0.64009 -2.048296,0.64009 h -2.304334 q -0.256037,0 -0.256037,-0.64009 v -4.09659 h 2.304334 q 1.024148,0 1.280185,0.64009 0.128019,0.12802 0.128019,0.38406 0,0.38405 0.128018,0.51207 h 0.256037 v -3.58452 H 95.12552 q -0.256037,1.02415 -0.512074,1.28019 -0.256037,0.25603 -1.024148,0.25603 h -2.304334 v -4.22461 h 2.816408 q 0.89613,0 1.024148,0.12802 0.384056,0.25604 1.024148,1.66424 h 0.384056 l -0.128019,-2.30433 H 88.21252 v 0.25604 h 0.256037 q 0.768111,0 1.024148,0.38405 0.256037,0.25604 0.256037,1.15217 v 6.913 q 0,1.28018 -0.512074,1.4082 -0.128019,0.12802 -0.768111,0.12802 H 88.21252 v 0.25604 h 8.065167 l 1.024148,-2.68839 z m -43.270261,44.80648 q 0,-1.02415 -0.640092,-1.66424 -0.640093,-0.76811 -2.432352,-1.79226 -1.920278,-1.28018 -2.176315,-1.66424 -0.256037,-1.28018 -0.256037,-0.89613 0,-1.66424 1.664241,-1.66424 2.048296,0 2.816407,3.07245 h 0.256037 v -3.58452 H 52.62337 q -0.256037,0.64009 -0.640093,0.64009 -0.384055,0 -0.512074,-0.12802 -0.896129,-0.51207 -1.792259,-0.51207 -1.280185,0 -2.176315,0.89613 -0.768111,0.76811 -0.768111,1.92027 0,1.53623 1.152167,2.30434 0.640092,0.38405 1.920278,1.15216 1.280185,0.76812 1.536222,1.02415 0.89613,0.89613 0.89613,1.53622 0,1.66425 -2.176315,1.66425 -1.408204,0 -2.048297,-0.6401 -0.640092,-0.64009 -0.896129,-2.43235 h -0.256037 v 3.58452 h 0.256037 q 0,-0.64009 0.384055,-0.64009 l 1.920278,0.64009 h 0.89613 q 1.408203,0 2.304333,-0.76811 1.024148,-0.89613 1.024148,-2.0483 z M 18.058369,246.22061 h 11.521667 q 0,0.76811 0,1.53622 0.128018,0.76811 0.256037,1.4082 z"
           style="font-style:normal;font-variant:normal;font-weight:normal;font-stretch:normal;font-family:'ESRI North';-inkscape-font-specification:'ESRI North, ';stroke-width:27.65461159"
           id="path1971" />
      </g>
    </g>
  </g>
</svg>
