<?xml version="1.0" encoding="iso-8859-1"?>
<!-- Generator: Adobe Illustrator 18.1.1, SVG Export Plug-In . SVG Version: 6.00 Build 0)  -->
<svg version="1.1" id="Capa_1" xmlns="http://www.w3.org/2000/svg" xmlns:xlink="http://www.w3.org/1999/xlink" x="0px" y="0px"
	 viewBox="0 0 310.81 310.81" style="enable-background:new 0 0 310.81 310.81;" xml:space="preserve">
<g>
	<g>
		<g>
			<path style="fill:#010002;" d="M278.79,186.19c-0.473,1.006-1.294,1.817-2.486,1.817h-45.775c-1.615,0-2.926-1.327-2.926-2.959
				c0-1.637,1.311-2.943,2.926-2.943l45.775-0.016c1.066,0.016,1.833,0.669,2.366,1.507
				c-2.018-66.313-56.468-119.687-123.271-119.692c-31.557,0.005-60.281,11.999-82.135,31.547c0.022,0,0.033-0.016,0.049-0.005
				c0.794,0,1.523,0.315,2.089,0.859l32.39,32.395c0.544,0.544,0.838,1.273,0.838,2.067c0,0.789-0.299,1.517-0.816,2.034
				c-1.153,1.131-3.073,1.142-4.199,0.022l-32.362-32.346c-0.674-0.68-0.903-1.588-0.789-2.464
				c-23.665,22.507-38.509,54.195-38.509,89.353c0,68.054,55.375,123.445,123.456,123.445c68.064,0,123.445-55.381,123.445-123.445
				C278.85,186.968,278.801,186.587,278.79,186.19z M36.028,188.007c-1.615,0-2.932-1.327-2.937-2.959
				c0.005-1.621,1.322-2.943,2.937-2.943h45.759c1.632,0,2.959,1.322,2.948,2.943c0.005,1.632-1.322,2.959-2.948,2.959H36.028z
				 M109.412,241.435l-32.39,32.368c-1.36,1.387-2.774,1.376-4.145-0.016c-1.159-1.159-1.159-3.002,0.005-4.161l32.362-32.373
				c0.549-0.549,1.278-0.854,2.072-0.854c0.794,0,1.55,0.31,2.072,0.821C110.565,238.416,110.576,240.276,109.412,241.435z
				 M180.985,270.822c-0.593,0.669-1.452,1.05-2.35,1.05h-38.971c-0.876,0-1.719-0.364-2.306-1.023
				c-0.593-0.653-0.881-1.539-0.8-2.404L154.051,93.84c0.152-1.577,1.474-2.79,3.062-2.812c0.011,0,0.027,0,0.027,0
				c1.577,0,2.91,1.175,3.106,2.741l21.484,174.594C181.855,269.25,181.578,270.147,180.985,270.822z M206.434,137.293
				c0-0.761,0.31-1.485,0.87-2.051l32.39-32.395c0.533-0.549,1.262-0.843,2.056-0.843c0.783,0,1.507,0.305,2.089,0.876
				c0.555,0.544,0.838,1.262,0.854,2.034c0,0.794-0.321,1.539-0.865,2.11l-32.373,32.357c-1.099,1.104-3.062,1.077-4.15,0.016
				C206.739,138.832,206.434,138.087,206.434,137.293z M245.302,270.376c-1.507,1.523-2.681,1.507-4.166,0l-32.352-32.324
				c-0.566-0.577-0.854-1.311-0.87-2.105c0.016-0.778,0.321-1.507,0.881-2.089c0.566-0.549,1.284-0.854,2.061-0.854
				c0.794,0,1.523,0.31,2.089,0.87l32.373,32.368C246.477,267.39,246.46,269.217,245.302,270.376z"/>
		</g>
		<g>
			<path style="fill:#010002;" d="M148.911,25.199c0-7.31-0.12-12.602-0.457-18.145l0.196-0.065
				c2.225,4.765,5.156,9.79,8.218,14.691l13.978,22.322h5.738V0h-5.357v18.406c0,6.864,0.136,12.216,0.653,18.085l-0.12,0.071
				c-2.089-4.504-4.634-9.143-7.914-14.294L149.765,0.005h-6.206v43.997h5.352C148.911,44.002,148.911,25.199,148.911,25.199z"/>
		</g>
	</g>
</g>
<g>
</g>
<g>
</g>
<g>
</g>
<g>
</g>
<g>
</g>
<g>
</g>
<g>
</g>
<g>
</g>
<g>
</g>
<g>
</g>
<g>
</g>
<g>
</g>
<g>
</g>
<g>
</g>
<g>
</g>
</svg>
