<?xml version="1.0" encoding="UTF-8" standalone="no"?>
<!-- Created with Inkscape (http://www.inkscape.org/) -->

<svg
   xmlns:dc="http://purl.org/dc/elements/1.1/"
   xmlns:cc="http://creativecommons.org/ns#"
   xmlns:rdf="http://www.w3.org/1999/02/22-rdf-syntax-ns#"
   xmlns:svg="http://www.w3.org/2000/svg"
   xmlns="http://www.w3.org/2000/svg"
   xmlns:sodipodi="http://sodipodi.sourceforge.net/DTD/sodipodi-0.dtd"
   xmlns:inkscape="http://www.inkscape.org/namespaces/inkscape"
   width="96.882561mm"
   height="99.848358mm"
   viewBox="0 0 96.882561 99.848358"
   version="1.1"
   id="svg845"
   inkscape:version="0.92.3 (2405546, 2018-03-11)"
   sodipodi:docname="esri_north_105_b.svg">
  <defs
     id="defs839" />
  <sodipodi:namedview
     id="base"
     pagecolor="#ffffff"
     bordercolor="#666666"
     borderopacity="1.0"
     inkscape:pageopacity="0.0"
     inkscape:pageshadow="2"
     inkscape:zoom="0.97458821"
     inkscape:cx="109.0026"
     inkscape:cy="207.91847"
     inkscape:document-units="mm"
     inkscape:current-layer="text1587"
     showgrid="false"
     inkscape:window-width="1366"
     inkscape:window-height="745"
     inkscape:window-x="0"
     inkscape:window-y="23"
     inkscape:window-maximized="1"
     fit-margin-top="0"
     fit-margin-left="0"
     fit-margin-right="0"
     fit-margin-bottom="0"
     showguides="true"
     inkscape:guide-bbox="true" />
  <metadata
     id="metadata842">
    <rdf:RDF>
      <cc:Work
         rdf:about="">
        <dc:format>image/svg+xml</dc:format>
        <dc:type
           rdf:resource="http://purl.org/dc/dcmitype/StillImage" />
        <dc:title></dc:title>
      </cc:Work>
    </rdf:RDF>
  </metadata>
  <g
     inkscape:label="Camada 1"
     inkscape:groupmode="layer"
     id="layer1"
     transform="translate(-0.39726496,-199.59619)">
    <g
       aria-label="2"
       style="font-style:normal;font-weight:normal;font-size:124.42774963px;line-height:1.25;font-family:sans-serif;letter-spacing:0px;word-spacing:0px;fill:#000000;fill-opacity:1;stroke:none;stroke-width:5.18448925"
       id="text1587">
      <g
         aria-label="µ"
         style="font-style:normal;font-weight:normal;font-size:141.22822571px;line-height:1.25;font-family:sans-serif;letter-spacing:0px;word-spacing:0px;fill:#000000;fill-opacity:1;stroke:none;stroke-width:30.50817299"
         id="text1792">
        <path
           d="m 23.135009,247.75502 -7.626324,1.97719 q 2.259652,0.42369 3.95439,0.84737 1.694739,0.42369 3.671934,0.9886 0,1.27106 0.282457,2.96579 0.282456,1.55351 0.564913,2.25966 2.259651,7.62632 7.202639,12.71054 5.084216,5.08421 12.851769,7.20264 3.107021,0.84736 5.084216,0.84736 l 1.835967,7.62633 1.977195,-7.62633 q 6.920183,-0.56491 12.428084,-3.81316 4.942988,-2.96579 8.614922,-8.19123 3.671933,-5.22545 4.660531,-10.87458 0.282456,-1.55351 0.282456,-3.10702 l 8.050009,-1.83597 q -2.40088,-0.70614 -4.378075,-1.12982 -1.977195,-0.56491 -3.671934,-0.9886 -0.564912,-5.5079 -2.400879,-9.74475 -1.694739,-4.23684 -5.649129,-7.90878 -3.954391,-3.81316 -8.332466,-5.93158 -4.236847,-2.11843 -9.321063,-2.40088 l -2.259651,-7.90878 -1.835967,7.90878 q -8.191237,0.56491 -14.828964,5.5079 -6.496498,4.80176 -9.462291,12.56931 -1.55351,4.09562 -1.694739,8.05001 z m 39.261447,7.62632 5.507901,10.73335 -16.947387,-16.38248 5.931585,11.15703 -5.931585,21.89038 v -33.04741 l -5.649129,11.15703 -10.592117,5.22545 16.241246,-16.38248 -11.015802,5.36668 -21.890375,-5.36668 H 50.95697 L 39.941168,243.51817 34.150811,232.6436 50.95697,249.73221 45.590297,238.1515 50.95697,215.97867 v 33.75354 l 6.072813,-11.29825 q 2.965793,-1.55351 4.80176,-2.54211 1.977195,-0.9886 3.107021,-1.55351 1.129826,-0.70614 1.694739,-0.9886 0.564913,-0.28246 0.988597,-0.42368 -7.626324,7.76755 -11.863171,12.14562 -4.095618,4.23685 -4.660531,4.66053 l 11.580714,-5.79035 22.031604,5.79035 H 50.95697 Z M 48.55609,275.29452 q -4.942988,-0.42368 -9.038607,-2.40088 -3.95439,-2.11842 -6.920183,-5.22544 -2.965792,-3.24825 -4.801759,-7.20264 -1.835967,-4.09562 -2.40088,-8.33247 l 13.840366,3.38948 -5.931585,12.0044 11.863171,-5.93158 z m -0.141228,-51.40707 -3.248249,13.69914 -11.863171,-5.93159 6.072813,11.86317 -13.981594,3.53071 q 0.988597,-7.20264 5.084216,-12.71054 4.236847,-5.64913 10.168432,-8.33247 4.378075,-2.11842 7.767553,-2.11842 z m 28.245645,28.38687 q -1.977195,9.74475 -7.343868,15.53511 -1.129826,1.41228 -2.965793,2.68333 -1.835967,1.27106 -3.95439,2.25965 -2.118423,0.9886 -4.378075,1.69474 -2.259652,0.70614 -4.378075,0.84737 l 3.530706,-13.69913 12.004399,5.79035 -5.931586,-11.86317 z m 0,-5.5079 -13.55791,-3.24825 5.931586,-11.86317 -11.721943,5.93159 -3.389477,-13.55791 q 10.168432,1.55351 15.817561,7.76755 5.790357,6.21404 6.920183,14.97019 z m -63.835158,-2.96579 v 0.28246 q 0.706141,0 0.847369,0.14122 0.423685,0.14123 0.423685,0.70614 0,0.28246 -0.141228,0.56492 0,0.28245 -0.141229,0.84737 l -2.400879,6.35527 -2.1184238,-6.21405 q -0.4236847,-0.98859 -0.4236847,-1.55351 0,-0.84736 0.9885976,-0.84736 h 0.2824569 v -0.28246 H 5.6227093 v 0.28246 q 0.2824565,0 0.4236847,0.14122 0.1412282,0 0.4236847,0.28246 0.2824564,0 0.2824564,0.28246 0.1412282,0.14122 0.4236847,0.70614 l 0.7061411,1.97719 -1.5535105,5.5079 -2.2596516,-6.63772 q -0.4236847,-0.9886 -0.4236847,-1.41229 0,-0.84736 0.8473694,-0.84736 H 4.77534 v -0.28246 H 0.39726496 v 0.28246 q 0.98859754,0 1.27105404,0.70614 0.1412282,0.28245 0.4236847,1.27105 l 3.5307056,9.60352 h 0.7061411 l 1.9771952,-6.92018 2.4008794,6.92018 h 0.282457 l 3.530706,-9.32106 q 0.282456,-1.27106 0.423684,-1.41229 0.564913,-0.84736 1.271054,-0.84736 v -0.28246 z M 44.6017,200.01988 q 0.706141,0 0.847369,0.14123 0.564913,0.14123 1.55351,1.12982 v 7.90878 q 0,0.9886 -0.282456,1.27106 -0.282456,0.42368 -1.129826,0.42368 h -0.282456 v 0.28246 h 4.095618 v -0.28246 h -0.423684 q -0.564913,0 -1.129826,-0.28245 -0.141228,-0.14123 -0.141228,-1.41229 v -7.06141 l 7.626324,9.32106 h 0.423684 v -9.88597 q 0,-0.9886 0.141229,-1.12983 0.141228,-0.56491 1.129825,-0.56491 h 0.423685 v -0.28246 H 53.35785 v 0.28246 h 0.282456 q 0.706141,0 1.129826,0.42369 0.282456,0.28245 0.282456,1.27105 v 6.92018 l -7.343867,-8.89738 H 44.6017 Z m 49.147422,44.76935 q 0.988598,0 1.129826,0.14122 0.564913,0.42369 1.129826,1.83597 h 0.423684 l -0.141228,-2.54211 h -9.038606 v 0.28246 h 0.282456 q 0.84737,0 1.129826,0.42368 0.282456,0.28246 0.282456,1.27106 v 7.62632 q 0,1.41228 -0.564912,1.55351 -0.282457,0.14123 -0.84737,0.14123 h -0.282456 v 0.28246 h 8.897378 l 1.129826,-2.96579 h -0.423685 q -0.282456,0.56491 -0.564913,0.98859 -0.282456,0.42369 -0.564913,0.70614 -0.706141,0.70614 -2.259651,0.70614 h -2.259652 q -0.564913,0 -0.564913,-0.70614 v -0.56491 -3.95439 h 2.542108 q 1.129826,0 1.412283,0.70614 0.141228,0.14123 0.141228,0.42369 0,0.28245 0.141228,0.56491 h 0.282456 v -3.95439 h -0.282456 q -0.282456,1.27105 -0.564913,1.41228 -0.282456,0.28246 -1.129826,0.28246 h -2.542108 v -4.66053 z m -40.108816,42.50969 q -0.141228,0.70614 -0.706141,0.70614 -0.282457,0 -0.564913,-0.14122 -0.988598,-0.56492 -1.977195,-0.56492 -1.412282,0 -2.40088,0.9886 -0.847369,0.84737 -0.847369,2.11842 0,1.69474 1.271054,2.54211 0.706141,0.42369 2.118423,1.27106 1.412282,0.84736 1.694739,1.12982 0.988597,0.9886 0.988597,1.69474 0,1.83597 -2.400879,1.83597 -1.553511,0 -2.259652,-0.70614 -0.706141,-0.70615 -0.988598,-2.68334 h -0.282456 v 3.95439 h 0.282456 q 0,-0.70614 0.423685,-0.70614 0.282456,0 0.988598,0.42368 0.847369,0.28246 1.129825,0.28246 h 0.988598 q 1.55351,0 2.542108,-0.84737 1.129826,-0.9886 1.129826,-2.25965 0,-1.12983 -0.706141,-1.83597 -0.706141,-0.84737 -2.683337,-1.97719 -1.835966,-0.9886 -2.400879,-1.83597 -0.282457,-0.56491 -0.282457,-0.9886 0,-1.83596 1.835967,-1.83596 2.259652,0 3.107021,3.38947 h 0.282457 v -3.95439 z M 40.788538,225.44096 q -1.977196,0.9886 -4.095619,2.40088 -2.118423,1.27105 -4.095619,3.10702 -0.564912,-0.84737 -0.988597,-0.9886 1.129826,-1.12982 2.542108,-2.25965 1.55351,-1.12982 3.530706,-2.25965 1.412282,-0.84737 2.542108,-1.27105 0.423684,1.12982 0.564913,1.27105 z m 29.657927,43.92198 q -2.259652,2.11842 -4.095619,3.24825 -1.694738,1.12982 -4.519303,2.5421 -0.423685,-1.12982 -0.564913,-1.27105 2.259652,-0.9886 4.660532,-2.68334 2.542108,-1.69473 3.530705,-2.82456 z m -38.131621,-1.41228 q -0.282456,0.28245 -0.564913,0.56491 -0.141228,0.28245 -0.423685,0.42368 -0.564913,-0.56491 -0.988597,-0.98859 -0.423685,-0.56492 -0.706141,-0.84737 -0.988598,-1.27106 -1.977195,-2.9658 -0.988598,-1.69474 -1.977196,-3.67193 l 1.412283,-0.84737 q 0.706141,2.40088 1.977195,4.23685 1.271054,1.83596 2.824564,3.67193 z m 44.204435,-29.09302 q -0.423685,0.14123 -0.706142,0.28246 -0.282456,0.14123 -0.564912,0.28245 -0.423685,-1.55351 -2.118424,-3.81316 -1.55351,-2.40088 -3.389477,-4.37807 l 0.847369,-0.84737 q 1.553511,1.27105 3.107021,3.81316 1.694739,2.40088 2.824565,4.66053 z m 0.141228,21.18423 -1.553511,-0.56491 q 0.706141,-1.83597 1.129826,-3.67193 0.564913,-1.83597 0.988598,-3.67194 l 1.271054,-0.42368 q 0.141228,1.55351 -0.423685,3.95439 -0.564913,2.25965 -1.412282,4.37807 z M 61.407858,224.02868 q -0.141228,0.28245 -0.282456,0.70614 -0.141228,0.28245 -0.282456,0.56491 -2.683337,-0.70614 -4.095619,-0.9886 -1.412282,-0.42368 -2.965793,-0.70614 l -0.423684,-1.41228 q 3.95439,0.42368 8.050008,1.83597 z m -34.600915,15.67633 q -0.564913,1.69474 -1.271054,3.81316 -0.564913,2.11843 -0.564913,3.67194 -0.423684,0.28245 -1.412282,0.42368 0,-1.55351 0.564913,-3.67193 0.564913,-2.25965 1.412282,-4.66053 z m 22.172832,37.42548 q -3.954391,-0.14123 -8.332466,-1.9772 0.282457,-0.42368 0.282457,-0.70614 0.141228,-0.28245 0.282456,-0.56491 1.129826,0.56491 2.40088,0.9886 1.412282,0.28245 5.084216,0.9886 0.141228,0.42368 0.141228,0.70614 0,0.14123 0.141229,0.56491 z m 30.364068,-15.81756 -1.55351,-2.11842 -0.988598,2.5421 z m 0,-23.44389 -2.542108,-0.42368 0.988598,2.40088 z m -38.131621,-14.97019 -1.977195,-1.69474 -0.282456,2.54211 z m 0,53.5255 -2.259651,-0.9886 0.282456,2.54211 z m 21.749147,-52.67813 -0.282457,-2.54211 -1.977195,1.55351 z m -37.849165,37.99039 -0.847369,-2.40088 -1.55351,1.9772 z m 37.990393,13.69914 -2.259651,0.9886 1.835966,1.55351 z m -37.990393,-37.84916 -2.400879,0.28245 1.55351,1.9772 z m 53.949183,0.42368 q -0.706141,1.12983 -1.271054,1.55351 -0.282457,-0.84737 -0.423685,-0.9886 z m -16.382475,39.68513 -1.694738,-1.27105 q 0.847369,-0.28246 0.988597,-0.42369 z m -22.596516,-1.69474 -0.706141,1.69474 -0.282456,-1.97719 q 0.564913,0.28245 0.988597,0.28245 z m 38.978991,-14.82896 -1.977195,0.28246 q 0.141228,-0.42369 0.141228,-0.56492 0.141228,-0.28245 0.141228,-0.28245 z m -54.514095,-0.56491 q -0.564913,0.14123 -0.988598,0.28245 -0.282456,0.14123 -0.564913,0.28246 l 1.271054,-1.55351 q 0.141228,0.28246 0.141228,0.56491 0,0.14123 0.141229,0.42369 z m 38.272849,-37.0018 -0.84737,-0.42368 0.564913,-1.55351 z m -22.737745,-0.42368 q -0.282456,-0.56492 -0.423684,-0.9886 -0.141229,-0.42368 -0.282457,-0.70614 l 1.553511,1.41228 z m -15.11142,14.5465 -0.423684,0.84737 -1.412283,-0.56491 z"
           style="font-style:normal;font-variant:normal;font-weight:normal;font-stretch:normal;font-family:'ESRI North';-inkscape-font-specification:'ESRI North, ';stroke-width:30.50817299"
           id="path4245"
           inkscape:connector-curvature="0" />
      </g>
    </g>
  </g>
</svg>
