<?xml version="1.0" encoding="UTF-8" standalone="no"?>
<!-- Created with Inkscape (http://www.inkscape.org/) -->

<svg
   xmlns:dc="http://purl.org/dc/elements/1.1/"
   xmlns:cc="http://creativecommons.org/ns#"
   xmlns:rdf="http://www.w3.org/1999/02/22-rdf-syntax-ns#"
   xmlns:svg="http://www.w3.org/2000/svg"
   xmlns="http://www.w3.org/2000/svg"
   xmlns:sodipodi="http://sodipodi.sourceforge.net/DTD/sodipodi-0.dtd"
   xmlns:inkscape="http://www.inkscape.org/namespaces/inkscape"
   width="100.09536"
   height="105.0621"
   id="svg2"
   version="1.1"
   inkscape:version="0.48.2 r9819"
   sodipodi:docname="esri__.svg">
  <defs
     id="defs4" />
  <sodipodi:namedview
     id="base"
     pagecolor="#ffffff"
     bordercolor="#666666"
     borderopacity="1.0"
     inkscape:pageopacity="0.0"
     inkscape:pageshadow="2"
     inkscape:zoom="1.9569743"
     inkscape:cx="15.631986"
     inkscape:cy="79.180948"
     inkscape:document-units="px"
     inkscape:current-layer="layer1"
     showgrid="false"
     fit-margin-top="0"
     fit-margin-left="0"
     fit-margin-right="0"
     fit-margin-bottom="0"
     inkscape:window-width="1366"
     inkscape:window-height="744"
     inkscape:window-x="0"
     inkscape:window-y="24"
     inkscape:window-maximized="1" />
  <metadata
     id="metadata7">
    <rdf:RDF>
      <cc:Work
         rdf:about="">
        <dc:format>image/svg+xml</dc:format>
        <dc:type
           rdf:resource="http://purl.org/dc/dcmitype/StillImage" />
        <dc:title></dc:title>
      </cc:Work>
    </rdf:RDF>
  </metadata>
  <g
     inkscape:label="Camada 1"
     inkscape:groupmode="layer"
     id="layer1"
     transform="translate(-704.45953,-116.45614)">
    <g
       id="g3666">
      <g
         id="text3622"
         style="font-size:144px;font-style:normal;font-variant:normal;font-weight:normal;font-stretch:normal;line-height:125%;letter-spacing:0px;word-spacing:0px;fill:#000000;fill-opacity:1;stroke:none;font-family:Arial;-inkscape-font-specification:Arial">
        <path
           sodipodi:nodetypes="ccccccccccccccccccccccccc"
           inkscape:connector-curvature="0"
           id="path3627"
           style="font-family:ESRI North;-inkscape-font-specification:ESRI North"
           d="m 793.95559,168.86708 -29.232,7.632 -8.208,29.376 -7.632,-29.376 -29.808,-7.632 29.808,-7.776 7.632,-29.664 8.208,29.664 29.232,7.776 m -30.672,-7.056 -6.624,-24.624 0,31.104 6.624,-6.48 m 26.064,7.056 -32.544,0 6.768,6.768 25.776,-6.768 m -33.408,-0.432 -6.336,-6.48 -24.768,6.48 31.104,0 m 0.432,31.824 0,-31.248 -6.624,6.912 6.624,24.336" />
      </g>
      <g
         transform="translate(0.54198985,23.1249)"
         id="text3638"
         style="font-size:144px;font-style:normal;font-variant:normal;font-weight:normal;font-stretch:normal;line-height:125%;letter-spacing:0px;word-spacing:0px;fill:#000000;fill-opacity:1;stroke:none;font-family:Arial;-inkscape-font-specification:Arial">
        <path
           inkscape:connector-curvature="0"
           id="path3658"
           style="font-size:18px"
           d="m 750.66833,106.21601 0,-12.884765 1.74903,0 6.76758,10.116215 0,-10.116215 1.63476,0 0,12.884765 -1.74902,0 -6.76758,-10.124999 0,10.124999 -1.63477,0" />
      </g>
      <g
         transform="translate(-2.3486227,-23.305563)"
         id="text3642"
         style="font-size:144px;font-style:normal;font-variant:normal;font-weight:normal;font-stretch:normal;line-height:125%;letter-spacing:0px;word-spacing:0px;fill:#000000;fill-opacity:1;stroke:none;font-family:Arial;-inkscape-font-specification:Arial">
        <path
           inkscape:connector-curvature="0"
           id="path3664"
           style="font-size:18px"
           d="m 753.71912,240.46443 1.60839,-0.14062 c 0.0762,0.64453 0.25196,1.1748 0.52735,1.59082 0.28125,0.41016 0.71484,0.74414 1.30078,1.00195 0.58593,0.25195 1.24511,0.37793 1.97754,0.37793 0.65038,0 1.2246,-0.0967 1.72265,-0.29004 0.49804,-0.19336 0.86718,-0.45703 1.10743,-0.79101 0.24608,-0.33985 0.36913,-0.70899 0.36914,-1.10743 -10e-6,-0.40429 -0.1172,-0.75585 -0.35157,-1.05468 -0.23438,-0.30469 -0.6211,-0.55957 -1.16015,-0.76465 -0.34571,-0.13476 -1.11036,-0.34277 -2.29395,-0.62403 -1.18359,-0.2871 -2.0127,-0.55663 -2.4873,-0.80859 -0.61524,-0.32226 -1.0752,-0.7207 -1.37988,-1.19531 -0.29883,-0.48046 -0.44825,-1.01659 -0.44825,-1.6084 0,-0.65038 0.18457,-1.25683 0.55371,-1.81934 0.36914,-0.56834 0.90821,-0.99901 1.61719,-1.29199 0.70898,-0.29295 1.49707,-0.43944 2.36426,-0.43945 0.95507,10e-6 1.79589,0.15528 2.52246,0.46582 0.73241,0.3047 1.29491,0.75587 1.6875,1.35351 0.39257,0.59767 0.60351,1.27443 0.63281,2.03028 l -1.63476,0.12304 c -0.0879,-0.81444 -0.38673,-1.42967 -0.89649,-1.8457 -0.50391,-0.416 -1.25098,-0.62401 -2.24121,-0.62402 -1.03125,1e-5 -1.78418,0.19044 -2.25879,0.57129 -0.46875,0.37501 -0.70312,0.82911 -0.70312,1.3623 0,0.4629 0.16699,0.84376 0.50097,1.14258 0.32813,0.29884 1.18359,0.60645 2.56641,0.92285 1.38867,0.31056 2.34081,0.58302 2.85645,0.81738 0.74999,0.34571 1.3037,0.78517 1.66113,1.31836 0.35741,0.52735 0.53612,1.13673 0.53613,1.82813 -10e-6,0.68555 -0.1963,1.33301 -0.58887,1.94238 -0.39258,0.60352 -0.95801,1.0752 -1.69628,1.41504 -0.73243,0.33398 -1.55861,0.50098 -2.47852,0.50098 -1.16602,0 -2.14454,-0.16993 -2.93555,-0.50977 -0.78516,-0.33984 -1.40332,-0.84961 -1.85449,-1.5293 -0.44531,-0.68554 -0.67969,-1.45898 -0.70312,-2.32031" />
      </g>
      <g
         transform="translate(-16.259695,-1.264643)"
         id="text3646"
         style="font-size:144px;font-style:normal;font-variant:normal;font-weight:normal;font-stretch:normal;line-height:125%;letter-spacing:0px;word-spacing:0px;fill:#000000;fill-opacity:1;stroke:none;font-family:Arial;-inkscape-font-specification:Arial">
        <path
           inkscape:connector-curvature="0"
           id="path3661"
           style="font-size:18px"
           d="m 812.76379,176.67468 0,-12.88476 1.70508,0 0,11.36425 6.34571,0 0,1.52051 -8.05079,0" />
      </g>
      <g
         transform="translate(14.272399,-0.54198985)"
         id="text3650"
         style="font-size:144px;font-style:normal;font-variant:normal;font-weight:normal;font-stretch:normal;line-height:125%;letter-spacing:0px;word-spacing:0px;fill:#000000;fill-opacity:1;stroke:none;font-family:Arial;-inkscape-font-specification:Arial">
        <path
           inkscape:connector-curvature="0"
           id="path3655"
           style="font-size:18px"
           d="m 690.18713,169.67664 c 0,-2.13867 0.57422,-3.81152 1.72266,-5.01856 1.14843,-1.21288 2.63085,-1.81932 4.44727,-1.81933 1.18944,1e-5 2.26171,0.28419 3.21679,0.85253 0.95507,0.56838 1.68163,1.36232 2.17969,2.38184 0.50389,1.01368 0.75585,2.16505 0.75586,3.4541 -10e-6,1.30665 -0.26369,2.47559 -0.79102,3.50684 -0.52735,1.03125 -1.27442,1.81348 -2.24121,2.34668 -0.9668,0.52734 -2.00977,0.79101 -3.1289,0.79101 -1.2129,0 -2.29688,-0.29297 -3.25196,-0.8789 -0.95508,-0.58594 -1.67871,-1.38574 -2.17089,-2.39942 -0.49219,-1.01367 -0.73829,-2.08593 -0.73829,-3.21679 m 1.75782,0.0264 c -10e-6,1.55274 0.41601,2.77735 1.24804,3.67383 0.83789,0.89063 1.88672,1.33594 3.14649,1.33594 1.28319,0 2.33788,-0.45117 3.16406,-1.35352 0.83202,-0.90234 1.24804,-2.18261 1.24805,-3.84082 -10e-6,-1.04882 -0.17873,-1.96288 -0.53614,-2.74218 -0.35157,-0.78515 -0.87012,-1.3916 -1.55566,-1.81934 -0.6797,-0.43358 -1.44434,-0.65038 -2.29395,-0.65039 -1.20703,1e-5 -2.24707,0.41603 -3.12011,1.24805 -0.86719,0.82618 -1.30079,2.20899 -1.30078,4.14843" />
      </g>
    </g>
  </g>
</svg>
