<?xml version="1.0" encoding="iso-8859-1"?>
<!-- Generator: Adobe Illustrator 19.0.0, SVG Export Plug-In . SVG Version: 6.00 Build 0)  -->
<svg version="1.1" id="Layer_1" xmlns="http://www.w3.org/2000/svg" xmlns:xlink="http://www.w3.org/1999/xlink" x="0px" y="0px"
	 viewBox="0 0 512 512" style="enable-background:new 0 0 512 512;" xml:space="preserve">
<g>
	<g>
		<path d="M498.176,236.011l-161.621-60.587L275.989,13.845C272.853,5.525,264.896,0,256,0s-16.853,5.525-19.989,13.845
			l-60.565,161.579L13.824,236.011C5.525,239.147,0,247.104,0,256s5.525,16.853,13.824,19.989l161.621,60.587l60.565,161.579
			C239.147,506.475,247.104,512,256,512s16.853-5.525,19.989-13.845l60.565-161.579l161.621-60.587
			C506.475,272.853,512,264.896,512,256S506.475,239.147,498.176,236.011z"/>
	</g>
</g>
<g>
</g>
<g>
</g>
<g>
</g>
<g>
</g>
<g>
</g>
<g>
</g>
<g>
</g>
<g>
</g>
<g>
</g>
<g>
</g>
<g>
</g>
<g>
</g>
<g>
</g>
<g>
</g>
<g>
</g>
</svg>
