<?xml version="1.0" encoding="iso-8859-1"?>
<!-- Generator: Adobe Illustrator 19.0.0, SVG Export Plug-In . SVG Version: 6.00 Build 0)  -->
<svg version="1.1" id="Layer_1" xmlns="http://www.w3.org/2000/svg" xmlns:xlink="http://www.w3.org/1999/xlink" x="0px" y="0px"
	 viewBox="0 0 512 512" style="enable-background:new 0 0 512 512;" xml:space="preserve">
<g>
	<g>
		<path d="M256,0C114.842,0,0,114.842,0,256s114.842,256,256,256s256-114.842,256-256S397.158,0,256,0z M290.074,492.467
			l-26.752-44.587c-3.081-5.146-11.554-5.146-14.635,0l-26.752,44.587C117.402,477.474,34.526,394.598,19.533,290.074l44.587-26.752
			c2.569-1.544,4.147-4.326,4.147-7.322c0-2.995-1.579-5.777-4.139-7.313l-44.587-26.752C36.13,106.266,135.817,17.067,256,17.067
			s219.87,89.199,236.467,204.86l-44.587,26.752c-2.569,1.545-4.147,4.326-4.147,7.322c0,2.995,1.579,5.777,4.139,7.313
			l44.587,26.752C477.474,394.598,394.598,477.474,290.074,492.467z"/>
	</g>
</g>
<g>
	<g>
		<path d="M361.097,247.902l-72.755-24.252l-22.451-67.354c5.359-4.241,10.769-6.383,16.12-6.323
			c10.675,0.307,18.705,9.182,18.756,9.233c1.664,1.92,4.045,2.927,6.443,2.927c1.596,0,3.2-0.444,4.625-1.365
			c3.567-2.313,4.89-6.886,3.115-10.743l-51.2-110.933c-1.399-3.021-4.42-4.958-7.748-4.958s-6.349,1.937-7.748,4.958l-51.2,110.933
			c-1.775,3.857-0.452,8.431,3.115,10.743c3.567,2.313,8.303,1.63,11.068-1.57c0.085-0.085,8.004-8.858,18.637-9.225
			c5.385-0.102,10.846,2.039,16.239,6.323l-22.451,67.354l-72.755,24.252c-3.49,1.169-5.837,4.42-5.837,8.098
			s2.347,6.938,5.837,8.098l72.047,24.013l8.858,47.249l-30.822,15.411c-2.893,1.442-4.719,4.395-4.719,7.629v59.733
			c0,3.072,1.647,5.914,4.326,7.424c1.306,0.742,2.756,1.109,4.207,1.109c1.519,0,3.038-0.401,4.395-1.22l35.507-21.308
			l2.918,15.556c0.742,4.045,4.275,6.972,8.38,6.972s7.637-2.927,8.38-6.963l2.918-15.556l35.507,21.308
			c1.357,0.811,2.876,1.212,4.395,1.212c1.451,0,2.901-0.367,4.207-1.109c2.68-1.51,4.326-4.352,4.326-7.424V358.4
			c0-3.234-1.826-6.187-4.719-7.637l-30.814-15.403l8.858-47.249l72.047-24.013c3.482-1.161,5.828-4.42,5.828-8.098
			S364.587,249.071,361.097,247.902z M256,281.6c-14.114,0-25.6-11.486-25.6-25.6s11.486-25.6,25.6-25.6s25.6,11.486,25.6,25.6
			S270.114,281.6,256,281.6z"/>
	</g>
</g>
<g>
</g>
<g>
</g>
<g>
</g>
<g>
</g>
<g>
</g>
<g>
</g>
<g>
</g>
<g>
</g>
<g>
</g>
<g>
</g>
<g>
</g>
<g>
</g>
<g>
</g>
<g>
</g>
<g>
</g>
</svg>
