<?xml version="1.0" encoding="iso-8859-1"?>
<!-- Generator: Adobe Illustrator 19.0.0, SVG Export Plug-In . SVG Version: 6.00 Build 0)  -->
<svg version="1.1" id="Layer_1" xmlns="http://www.w3.org/2000/svg" xmlns:xlink="http://www.w3.org/1999/xlink" x="0px" y="0px"
	 viewBox="0 0 512 512" style="enable-background:new 0 0 512 512;" xml:space="preserve">
<g>
	<g>
		<path d="M463.411,247.876l-104.713-33.621l33.229-83.081c1.246-3.123,0.546-6.69-1.792-9.105
			c-2.347-2.415-5.888-3.234-9.045-2.082l-84.062,30.566L264.132,47.189c-1.126-3.541-4.412-5.948-8.132-5.948
			c-3.721,0-7.006,2.406-8.132,5.948L214.98,150.545l-84.062-30.566c-3.166-1.152-6.707-0.333-9.045,2.082
			c-2.338,2.415-3.038,5.982-1.792,9.105l33.229,83.081L48.597,247.868c-3.533,1.143-5.931,4.42-5.931,8.132
			c0,3.712,2.398,6.989,5.922,8.124l104.713,33.621l-33.229,83.081c-1.263,3.174-0.521,6.793,1.894,9.207
			c1.63,1.63,3.814,2.5,6.033,2.5c1.067,0,2.142-0.196,3.174-0.606l83.081-33.229l33.621,104.713
			c1.135,3.524,4.412,5.922,8.124,5.922c3.712,0,6.989-2.398,8.124-5.922l33.621-104.713l83.081,33.229
			c1.033,0.41,2.108,0.606,3.174,0.606c2.219,0,4.403-0.87,6.033-2.5c2.415-2.415,3.157-6.033,1.894-9.207l-33.229-83.081
			l104.713-33.621c3.524-1.135,5.922-4.412,5.922-8.124C469.333,252.288,466.935,249.011,463.411,247.876z M209.809,166.835
			l-7.467,23.441l-41.105-41.105L209.809,166.835z M151.364,163.43l38.938,38.938l-20.702,6.647L151.364,163.43z M203.87,215.936
			l31.531,31.531H105.685L203.87,215.936z M169.6,302.985l20.702,6.647l-38.938,38.938L169.6,302.985z M163.43,360.636
			l38.938-38.938l6.647,20.702L163.43,360.636z M203.87,296.064l-98.185-31.531h129.715L203.87,296.064z M247.467,406.315
			l-31.531-98.185l31.531-31.531V406.315z M247.467,235.401l-31.539-31.539l31.539-99.123V235.401z M342.4,209.024l-20.702-6.656
			l38.938-38.938L342.4,209.024z M350.771,149.163l-41.105,41.105l-7.458-23.45L350.771,149.163z M264.533,104.738l31.539,99.123
			l-31.539,31.539V104.738z M264.533,406.315V276.599l31.531,31.531L264.533,406.315z M302.985,342.4l6.647-20.702l38.938,38.938
			L302.985,342.4z M360.636,348.57l-38.938-38.938l20.702-6.647L360.636,348.57z M308.13,296.064l-31.531-31.531h129.715
			L308.13,296.064z M276.599,247.467l31.531-31.531l98.185,31.531H276.599z"/>
	</g>
</g>
<g>
	<g>
		<path d="M256,0C114.842,0,0,114.842,0,256s114.842,256,256,256s256-114.842,256-256S397.158,0,256,0z M256,494.933
			C124.254,494.933,17.067,387.746,17.067,256S124.254,17.067,256,17.067S494.933,124.254,494.933,256S387.746,494.933,256,494.933z
			"/>
	</g>
</g>
<g>
</g>
<g>
</g>
<g>
</g>
<g>
</g>
<g>
</g>
<g>
</g>
<g>
</g>
<g>
</g>
<g>
</g>
<g>
</g>
<g>
</g>
<g>
</g>
<g>
</g>
<g>
</g>
<g>
</g>
</svg>
