<?xml version="1.0" encoding="UTF-8" standalone="no"?>
<!-- Created with Inkscape (http://www.inkscape.org/) -->

<svg
   xmlns:dc="http://purl.org/dc/elements/1.1/"
   xmlns:cc="http://creativecommons.org/ns#"
   xmlns:rdf="http://www.w3.org/1999/02/22-rdf-syntax-ns#"
   xmlns:svg="http://www.w3.org/2000/svg"
   xmlns="http://www.w3.org/2000/svg"
   xmlns:sodipodi="http://sodipodi.sourceforge.net/DTD/sodipodi-0.dtd"
   xmlns:inkscape="http://www.inkscape.org/namespaces/inkscape"
   width="42.987537mm"
   height="97.877167mm"
   viewBox="0 0 42.987537 97.877167"
   version="1.1"
   id="svg845"
   inkscape:version="0.92.3 (2405546, 2018-03-11)"
   sodipodi:docname="esri_north_050_b.svg">
  <defs
     id="defs839" />
  <sodipodi:namedview
     id="base"
     pagecolor="#ffffff"
     bordercolor="#666666"
     borderopacity="1.0"
     inkscape:pageopacity="0.0"
     inkscape:pageshadow="2"
     inkscape:zoom="0.97458821"
     inkscape:cx="52.524333"
     inkscape:cy="197.65254"
     inkscape:document-units="mm"
     inkscape:current-layer="text1587"
     showgrid="false"
     inkscape:window-width="1366"
     inkscape:window-height="745"
     inkscape:window-x="0"
     inkscape:window-y="23"
     inkscape:window-maximized="1"
     fit-margin-top="0"
     fit-margin-left="0"
     fit-margin-right="0"
     fit-margin-bottom="0"
     showguides="true"
     inkscape:guide-bbox="true" />
  <metadata
     id="metadata842">
    <rdf:RDF>
      <cc:Work
         rdf:about="">
        <dc:format>image/svg+xml</dc:format>
        <dc:type
           rdf:resource="http://purl.org/dc/dcmitype/StillImage" />
        <dc:title></dc:title>
      </cc:Work>
    </rdf:RDF>
  </metadata>
  <g
     inkscape:label="Camada 1"
     inkscape:groupmode="layer"
     id="layer1"
     transform="translate(-3.9588935,-199.12143)">
    <g
       aria-label="2"
       style="font-style:normal;font-weight:normal;font-size:124.42774963px;line-height:1.25;font-family:sans-serif;letter-spacing:0px;word-spacing:0px;fill:#000000;fill-opacity:1;stroke:none;stroke-width:5.18448925"
       id="text1587">
      <g
         aria-label="·"
         style="font-style:normal;font-weight:normal;font-size:140.02455139px;line-height:1.25;font-family:sans-serif;letter-spacing:0px;word-spacing:0px;fill:#000000;fill-opacity:1;stroke:none;stroke-width:30.2481575"
         id="text1792">
        <path
           d="m 34.484246,200.52168 v 1.40025 q 0,1.40024 -0.140025,1.68029 l -0.700123,8.12142 v 3.78067 q 0,3.64064 -1.54027,3.64064 -1.820319,0 -3.640638,-2.94052 -0.700123,-1.1202 -1.260221,-2.24039 -0.560098,-1.26022 -1.120196,-2.38042 -0.420074,-0.70012 -1.260221,-1.82032 -0.840148,-1.1202 -1.960344,-2.94051 -0.700123,-1.1202 -1.54027,-2.10037 -0.840147,-1.1202 -1.54027,-2.10037 v 2.80049 q -0.140025,1.54027 -0.420074,4.06071 -0.280049,2.38042 -0.560098,5.74101 v 1.96034 l 0.280049,2.24039 q 0,0.98018 -1.54027,0.98018 -2.520442,0 -2.520442,-2.66047 v -2.66047 q 0,-0.28005 0,-0.70012 0.140025,-0.5601 0.280049,-1.54027 0.980172,-2.94051 2.100368,-9.94174 v -2.52044 q 0,-1.26023 0.980172,-1.26023 2.240393,0 7.001228,8.12143 0.560098,0.98017 1.400245,2.38042 0.980172,1.40024 2.380418,3.22056 0.280049,0.5601 0.840147,1.40025 0.560098,0.84014 1.400246,1.96034 0.140024,-0.14002 0.140024,-0.5601 v -3.22056 q 0.280049,-1.96035 0.420074,-4.34076 0.140024,-2.38042 0.280049,-5.32094 v -1.82032 q 0.280049,-1.54027 1.260221,-1.54027 0.980172,0 0.980172,1.1202 z m 12.462185,56.84997 q 0,0.5601 -0.700123,0.5601 h 0.280049 q 0,-0.28005 -2.240393,-0.84015 -4.480785,-1.1202 -5.040884,-1.54027 l 1.680295,-1.40025 q 0,0 1.260221,0.70013 1.260221,0.56009 3.920688,1.68029 0.840147,0.42007 0.840147,0.84015 z m -0.140025,-10.08177 q 0,0.5601 -0.700122,0.5601 -0.420074,0 -3.500614,-0.84015 -0.980172,1.26022 -1.960344,1.40025 h -3.08054 q -1.400246,0.14002 -1.400246,1.12019 0,0.14003 2.100369,1.40025 0.420073,0.28005 0.560098,0.5601 0.280049,0.14002 0.280049,0.14002 0,0.5601 -0.420074,0.5601 -0.140024,0 -2.800491,-1.68029 -1.260221,1.82031 -3.500614,1.82031 -0.700122,0 -4.060712,-1.68029 l -1.680294,1.1202 q 0.280049,0.28005 0.700123,0.84014 0.560098,0.42008 1.260221,0.98018 0.420073,0.28004 0.560098,0.56009 0.280049,0.14003 0.280049,0.14003 0,0.14002 -3.220565,2.66046 0.280049,0.28005 0.700123,0.70013 0.420074,0.28005 0.980172,0.70012 l 0.840147,0.70012 q 0,0.70013 -0.700123,0.70013 -0.420073,-0.28005 -1.260221,-0.98018 -0.840147,-0.84014 -1.680294,-2.10036 l 3.08054,-2.52045 -2.240393,-1.96034 q -3.220565,1.96034 -3.780663,1.96034 -0.420073,-0.14002 -2.100368,-1.68029 l -3.220565,1.96034 q -0.560098,-0.14002 -0.560098,-0.42007 0,-0.70012 0.980172,-1.1202 1.120196,-0.42007 2.100368,-0.84014 l 0.700123,-0.28005 q 0.140024,0 0.560098,0.42007 1.54027,1.1202 1.820319,1.1202 0.140025,0 2.940516,-1.54027 -0.560098,-0.28005 -0.840147,-0.42008 -0.140025,-0.28005 -0.140025,-0.28005 0.140025,0 -0.420074,0.42008 -0.420073,0.28005 -1.120196,0.28005 -0.280049,0 -2.240393,-1.1202 -0.140024,0 -1.120196,0.42007 -0.980172,0.28005 -1.680295,0.28005 l -1.260221,-0.28005 q -0.560098,-0.28005 -0.840147,-0.42007 -0.140025,-0.14002 -0.140025,-0.14002 -0.700122,0 -2.240393,1.12019 1.120197,0.98017 2.520442,2.38042 1.54027,1.26022 3.500614,3.08054 0.840147,0.70012 2.100368,1.82032 1.260221,1.12019 2.940516,2.66046 l 0.840147,0.84015 q 0.140025,-0.14002 0.280049,-0.28005 0.28005,-0.14002 0.560099,-0.42007 1.400245,-0.98017 4.200736,-2.94052 1.400246,-1.12019 3.780663,-2.94051 2.520442,-1.82032 6.16108,-4.48079 0.140025,-0.14002 0.700123,-0.5601 0.700123,-0.56009 1.54027,-1.12019 0.840147,-0.5601 1.54027,-0.98017 0.840148,-0.5601 1.260221,-0.5601 0.560098,0 0.560098,0.5601 0,0.84014 -4.62081,4.76083 -0.280049,0.28005 -2.940515,2.24039 -2.520442,1.96035 -7.421302,5.74101 -1.120196,0.70012 -4.200736,2.94052 -0.560098,0.56009 -0.980172,0.56009 -0.420074,0 -1.820319,-1.26022 -1.680295,-1.12019 -8.541498,-7.56132 -1.54027,-1.54027 -2.800491,-2.66047 -1.260221,-1.1202 -2.380417,-1.82032 -0.700123,-0.5601 -1.6802948,-1.26022 -0.9801719,-0.70012 -2.3804174,-1.68029 -0.8401473,-0.42008 -0.8401473,-0.70013 0,-0.5601 7.8413745,-4.20073 1.400246,-0.70013 3.36059,-1.54027 2.100368,-0.84015 4.760834,-1.96035 v 1.96035 q -1.54027,0.56009 -3.640638,1.54027 -2.100368,0.84014 -4.900859,1.96034 -0.560098,0.28005 -1.54027,0.84015 -0.980172,0.5601 -2.3804177,1.26022 l 3.9206877,3.22056 q 1.960343,-1.54027 2.940515,-1.54027 l 2.240393,0.98018 2.800491,-0.70013 q 0.560098,0 1.120197,0.5601 0.700122,0.5601 1.120196,0.5601 0.560098,0 0.980172,-0.42007 l -2.660467,-1.96035 q -3.360589,1.6803 -3.640638,1.6803 -0.420074,0 -2.240393,-1.26022 -0.420073,-0.28005 -0.840147,-0.70013 -0.280049,-0.42007 -0.560098,-0.70012 l -0.700123,-0.5601 q 0,-0.14002 3.220565,-1.82032 0.560098,-0.14002 0.700122,-0.14002 0.280049,0 0.280049,0 v 0.14002 l -3.220564,1.82032 q 1.960344,2.38042 3.640638,2.38042 l 3.220565,-1.54027 q 0.560098,0 2.380417,1.40024 l 0.980172,0.70013 q 0.700123,-0.70013 1.820319,-0.70013 1.680295,0 2.240393,0.5601 l 0.140025,0.14003 0.140024,-0.28005 q -0.140024,-0.14003 -0.420074,-0.42008 -0.280049,-0.28004 -0.980171,-0.70012 -0.420074,-0.14002 -0.700123,-0.42007 -0.420074,0 -0.840147,0.42007 -0.28005,0.28005 -0.560099,0.28005 -0.840147,0 -3.220564,-1.96034 l -0.700123,-0.70013 q 0.280049,-0.28005 0.280049,-0.70012 0.140025,-0.5601 0.140025,-0.98017 v -10.92192 l -3.220565,0.14003 q -1.820319,0 -1.820319,-1.1202 0.140024,-0.14002 0.280049,-0.42007 0.280049,-0.28005 0.560098,-0.5601 0.980172,-0.98017 1.820319,-2.24039 0.840147,-1.40025 1.820319,-3.22057 0.560099,-0.98017 1.400246,-2.24039 0.840147,-1.40025 2.100368,-3.08054 0.980172,-0.84015 1.260221,-0.84015 0.560098,0 1.120197,0.98017 0.980171,1.54027 1.820319,2.94052 0.840147,1.26022 1.54027,2.66047 3.360589,6.58115 3.360589,6.8612 0,0.70012 -0.420074,0.70012 -0.280049,0 -0.420073,-0.14002 h -4.620811 v 1.54027 l 0.840148,7.28127 q 0.560098,-0.98017 1.120196,-0.98017 l 0.280049,0.28005 q -0.420073,0.42008 -0.980172,0.70012 -0.420073,0.14003 -0.420073,0.42008 v 1.26022 q 0,0.14002 0.140024,0.28005 0.420074,0 1.82032,-0.98017 0.980171,-0.5601 1.26022,-0.5601 0.840148,0 4.480786,1.96034 l 0.560098,0.42008 -2.800491,1.96034 -0.420073,0.5601 q 0.420073,0.28005 0.700122,0.5601 0.280049,0.14002 0.560099,0.42007 0.140024,-0.5601 1.400245,-1.54027 l 1.680295,-0.14003 1.54027,0.14003 q 0.980172,0 1.680294,-0.70012 0,0 -0.280049,-0.14003 -0.140024,-0.14002 -0.560098,-0.42007 l -6.16108,-2.80049 q -1.54027,-0.70013 -2.660467,-1.1202 -1.120196,-0.42007 -1.820319,-0.70012 -0.420073,0 -0.980172,-0.42008 0,-1.26022 -0.140024,-1.40024 v -0.28005 q 5.180908,1.54027 8.961571,3.36059 0.980172,0.5601 2.800491,1.40024 1.820319,0.84015 4.480786,1.96035 1.400245,0.5601 1.400245,0.98017 z m -7.141252,9.94174 q 0,0.42008 -1.400245,1.1202 -1.260221,0.70012 -1.82032,0.70012 0,0 -0.420073,0 -0.280049,-0.14002 -0.980172,-0.28005 l 3.08054,-2.38041 q 0.840147,0.14002 1.54027,0.84014 z m 5.741007,8.68153 q -0.420074,0.70012 -0.700123,0.70012 -0.560098,0 -1.54027,-0.42008 -0.560098,-0.14002 -1.400246,-0.42007 -0.700122,-0.28005 -1.820319,-0.5601 l 1.680295,-1.40024 q 3.780663,1.96034 3.780663,2.10037 z m -5.460958,-6.02106 q 0,0.70012 -1.400245,1.1202 -1.680295,0.56009 -2.100369,0.98017 -1.960343,2.10037 -3.780662,2.10037 -2.100369,0 -3.080541,-1.26022 l 5.040884,-3.78067 q 0.700123,0.14003 1.120197,0.28005 0.420073,0 0.700122,0 l 1.960344,-0.42007 q 0.420074,0 0.980172,0.42007 0.560098,0.28005 0.560098,0.5601 z m 0,8.5415 q 0,0.84015 -0.840147,0.84015 -0.840147,0 -0.840147,-0.84015 0,-0.84015 0.840147,-0.84015 0.840147,0 0.840147,0.84015 z m -2.240393,-0.14003 q 0,0.84015 -0.840147,0.84015 -0.700123,0 -0.700123,-0.84015 l 0.840148,-0.84014 q 0.700122,0 0.700122,0.84014 z m -1.820319,2.2404 q 0,0.70012 -0.840147,0.70012 -0.840147,0 -0.840147,-0.70012 0,-0.84015 0.840147,-0.84015 0.840147,0 0.840147,0.84015 z m -9.941743,-9.6617 H 25.38265 v 0.70012 h -0.280049 v -0.70012 h -0.700123 v -0.28005 h 0.560098 v -0.42007 h 0.280049 v 0.42007 h 0.700123 z m 20.023511,-2.10037 q 0,0.70013 -4.62081,4.62081 -0.840148,0.70013 -3.500614,2.80049 -2.520442,1.96035 -6.861203,5.32094 -1.960344,1.54027 -4.200737,2.94051 -0.700122,0.42008 -0.840147,0.42008 -0.700123,0 -5.180908,-4.06071 -1.960344,-1.82032 -4.340761,-4.34077 -2.380418,-2.52044 -6.021056,-4.90086 l -4.2007366,-2.80049 q -0.7001228,-0.42007 -0.7001228,-0.70012 0,-0.42007 0.7001228,-0.84015 0.8401473,-0.56009 5.0408836,-2.38041 1.260221,-0.5601 1.260221,-0.70013 0.140025,0.14003 0.420074,0.42008 0.280049,0.14002 0.980172,0.70012 -0.840148,0.28005 -2.100369,0.98017 -1.260221,0.70012 -2.9405152,1.6803 0.5600982,0.56009 0.9801719,0.70012 0.9801723,0.84015 2.6604663,2.52044 1.820319,1.54027 4.62081,3.92069 1.82032,1.96034 7.141252,6.3011 0.980172,0.98018 1.260221,0.98018 l 0.700123,-0.5601 q 0.280049,-0.14003 1.260221,-0.84015 1.120197,-0.84015 3.08054,-2.24039 l 13.022284,-9.52167 q 1.54027,-1.1202 1.820319,-1.1202 0.560098,0 0.560098,0.70012 z m -14.282504,5.74101 q -0.140025,0.28005 -0.280049,0.84015 0,0.42007 -0.280049,1.12019 -0.28005,0.14003 -0.700123,0.42008 -0.420074,0.28005 -1.120197,0.5601 -0.140024,0.28004 -0.420073,0.56009 -0.280049,0.28005 -0.560099,0.70013 -0.280049,0.28005 -1.120196,0.42007 -1.54027,0.42007 -1.260221,0.42007 -0.980172,0 -1.120196,-0.84014 -0.140025,-0.84015 -0.140025,-1.40025 0,-0.42007 -0.280049,-0.70012 l -1.54027,-0.28005 v -1.82032 q 0,-0.28005 0.420074,-0.70012 1.400245,1.68029 2.380417,1.68029 0.840147,-0.5601 1.680295,-1.12019 0.980171,-0.5601 1.960343,-1.26023 0.560099,0.84015 2.380418,1.40025 z M 19.22157,260.31216 q -0.420074,0.70013 -0.560099,0.70013 -1.260221,0 -1.400245,-0.14003 h -0.420074 q -0.560098,0 -3.360589,-0.70012 0.280049,-0.42007 0.560098,-0.70012 0.280049,-0.42008 0.560098,-0.70013 l -2.100368,-1.26022 q 0.140025,-1.12019 1.680295,-1.82032 z m 4.200736,6.44113 q 0,0.14003 -0.140024,0.14003 h -0.700123 q -2.240393,0 -3.220565,-2.2404 0,0.14003 -0.140024,-0.14002 0,-0.42007 -0.140025,-1.1202 -0.420074,-0.42007 -2.240393,-0.84014 v -0.28005 q 0.140025,-0.98017 0.700123,-0.98017 0.420074,0 0.560098,0.14002 h 0.560098 q 0.560099,-0.5601 0.840148,-0.98017 l 3.360589,3.22056 -0.420074,0.70013 v 2.24039 q 0.840148,0 0.980172,0.14002 z m 2.660467,4.20074 h -0.560099 v 0.5601 h -0.280049 v -0.5601 h -0.700122 v -0.28005 h 0.560098 v -0.42007 h 0.420073 v 0.42007 h 0.560099 z m 3.360589,4.06071 q 0,0.70012 -0.700123,0.70012 -0.700123,0 -0.700123,-0.70012 0,-0.70012 0.700123,-0.70012 0.700123,0 0.700123,0.70012 z m 15.122651,-7.56132 q 0,0.70012 -4.62081,4.62081 -0.420073,0.28005 -3.08054,2.38041 -2.520442,1.96035 -7.281277,5.60099 -0.280049,0.28004 -0.980171,0.84014 -0.700123,0.5601 -1.54027,1.26022 -0.700123,0.5601 -1.540271,0.98018 -0.700122,0.42007 -1.120196,0.42007 -0.280049,0 -1.820319,-1.1202 -1.120197,-1.12019 -3.360589,-2.94051 -2.100369,-1.96035 -5.180909,-4.76084 -1.54027,-1.26022 -2.800491,-2.24039 -1.120196,-0.98017 -2.2403926,-1.96034 -0.9801719,-0.98018 -2.2403928,-1.82032 -1.1201964,-0.98018 -2.8004911,-2.10037 0.5600982,-0.5601 0.9801719,-0.84015 2.5204419,-1.26022 5.4609576,-2.52044 l 0.560098,-0.28005 1.400246,0.98017 q -0.840148,0.28005 -2.100369,0.98017 -1.2602206,0.70013 -2.8004907,1.6803 l 9.3816447,7.9814 q 0.700123,0.70012 1.960344,1.96034 1.260221,1.1202 3.08054,2.80049 0.560098,0.70013 2.100368,1.6803 0,0 0.140025,-0.14003 0.280049,-0.14002 0.700123,-0.42007 l 17.22302,-12.60221 q 1.54027,-1.1202 1.820319,-1.1202 0.700122,0 0.700122,0.70013 z m -17.643093,9.94174 q 0,0.84015 -0.840147,0.84015 -0.840148,0 -0.840148,-0.84015 0,-0.70012 0.840148,-0.70012 0.840147,0 0.840147,0.70012 z m -2.660467,-1.54027 q 0,0.70012 -0.700122,0.70012 -0.700123,0 -0.700123,-0.70012 0,-0.70012 0.700123,-0.70012 0.700122,0 0.700122,0.70012 z m -2.800491,-2.38042 q 0,0.70012 -0.700122,0.70012 -0.840148,0 -0.840148,-0.70012 0,-0.70012 0.840148,-0.70012 0.700122,0 0.700122,0.70012 z m -6.441129,-6.16108 q 0,0.70012 -0.700123,0.70012 -0.840147,0 -0.840147,-0.70012 0,-0.70012 0.840147,-0.70012 0.700123,0 0.700123,0.70012 z m 3.920688,4.06071 q 0,0.70013 -0.840148,0.70013 -0.700123,0 -0.700123,-0.70013 0,-0.70012 0.700123,-0.70012 0.840148,0 0.840148,0.70012 z m -2.520442,-1.82032 q 0,0.70013 -0.700123,0.70013 -0.840147,0 -0.840147,-0.70013 0,-0.70012 0.840147,-0.70012 0.700123,0 0.700123,0.70012 z m -4.340761,-3.78066 q 0,0.70012 -0.840148,0.70012 -0.700123,0 -0.700123,-0.70012 0,-0.70012 0.700123,-0.70012 0.840148,0 0.840148,0.70012 z m 11.061939,11.62204 q 0,0.98017 -0.980172,0.98017 -1.120196,0 -1.120196,-0.98017 0,-1.1202 1.120196,-1.1202 0.980172,0 0.980172,1.1202 z m 1.54027,2.24039 h -0.560098 v 0.42008 q -0.280049,0 -0.420074,0.14002 v -0.5601 h -0.560098 v -0.42007 h 0.560098 v -0.42008 h 0.280049 v 0.42008 h 0.700123 z m -7.70135,-6.8612 q 0,0.70012 -0.840147,0.70012 -0.840148,0 -0.840148,-0.70012 0,-0.84015 0.840148,-0.84015 0.840147,0 0.840147,0.84015 z m 13.722406,20.02351 q 0,0.84015 -0.560098,0.84015 h -0.420074 q -1.260221,0 -1.400246,-1.6803 v -2.52044 q -0.280049,-3.64064 -0.420073,-5.32093 -0.140025,-1.82032 -0.140025,-1.6803 l 2.240393,-1.82032 q 0.140025,1.96035 0.280049,4.48079 0.140025,2.38042 0.420074,5.46096 z m 0.140024,2.10037 q 0,1.26022 -1.680294,1.26022 -0.560098,0 -1.820319,-0.42007 -1.120197,-0.42008 -1.82032,-0.42008 -1.54027,0 -3.220564,0.84015 -1.680295,0.84015 -1.260221,0.84015 -1.120197,0 -1.120197,-1.54027 0,-2.94052 0.840148,-13.72241 0.560098,0.42007 0.980172,0.84015 0.420073,0.42007 0.980171,0.98017 l -0.420073,10.08177 0.140024,0.14002 q 0.840148,-0.42007 1.960344,-0.42007 2.940516,0 5.881031,1.12019 0.560098,0.14003 0.560098,0.42008 z m 0.140025,-62.731 q -0.140025,-0.28005 -0.420074,-0.84015 -0.280049,-0.70012 -0.560098,-1.68029 -0.700123,-0.98017 -2.940515,-5.46096 -0.140025,-0.5601 -0.560099,-1.1202 -0.280049,-0.5601 -0.840147,-1.26022 -1.400246,1.6803 -3.220565,6.44113 -0.280049,0.5601 -0.840147,1.54027 -0.420074,0.98017 -1.400246,2.38042 l 1.960344,-0.14003 q 0.700123,0 0.980172,0.84015 v 9.94174 q 0,1.40025 0.140025,2.10037 0,0.84015 1.960343,0.84015 2.240393,0 2.240393,-1.1202 0,-0.70012 -0.140024,-2.10036 0,-1.54027 -0.140025,-3.50062 l 0.140025,-2.10037 -0.280049,-2.10036 v -1.40025 q 0,-0.84015 0.840147,-0.84015 0.700123,0 1.680294,-0.14002 0.980172,-0.28005 1.400246,-0.28005 z m 5.180908,13.44236 -3.640638,-1.6803 -0.980172,0.42007 q -0.700123,0.14003 -2.240393,1.6803 -0.420073,0.42007 -1.120196,0.98017 -0.560098,0.42007 -1.400246,0.42007 h -0.420073 q -0.420074,0 -1.820319,0.42008 l 0.700122,0.28005 1.400246,-0.5601 q 0.420074,0 2.800491,1.54027 0.420074,0.28005 0.420074,0.42007 l -0.700123,0.5601 q 0.700123,0.70012 1.960344,1.26022 0.140024,0.14003 1.26022,0.14003 1.540271,0 2.240393,-0.70013 l 0.420074,-0.70012 -0.420074,-0.42007 q -0.840147,-0.70012 -1.260221,-0.98017 -0.420073,-0.42008 -0.420073,-0.42008 0,-0.5601 1.120196,-1.26022 z m -8.681522,4.76083 q -0.700123,-0.14002 -1.120196,-0.14002 -0.280049,-0.14003 -0.140025,-0.14003 -0.560098,0 -1.120196,0.42008 0.420073,0.14002 0.980172,0.70012 0.420073,-0.42008 1.400245,-0.84015 z M 11.24017,258.2118 h -0.560098 v 0.56009 H 10.400023 V 258.2118 H 9.6999001 v -0.28005 h 0.5600979 v -0.42008 h 0.420074 v 0.42008 h 0.560098 z m 0,-10.2218 h -0.560098 v 0.5601 H 10.400023 V 247.99 H 9.6999001 v -0.28005 h 0.5600979 v -0.42007 h 0.420074 v 0.42007 H 11.24017 Z M 9.8399247,266.75329 H 9.2798265 v 0.5601 H 8.9997774 v -0.5601 H 8.2996546 v -0.28005 h 0.5600982 v -0.42007 h 0.4200737 v 0.42007 h 0.5600982 z m 32.9057693,0.14003 h -0.560098 v 0.5601 h -0.280049 v -0.5601 h -0.700123 v -0.28005 h 0.560098 v -0.42008 h 0.420074 v 0.42008 h 0.560098 z m 1.400246,-8.82155 h -0.560098 v 0.5601 h -0.28005 v -0.5601 H 42.60567 v -0.28005 h 0.560098 v -0.42007 h 0.420074 v 0.42007 h 0.560098 z m -0.140025,-9.94174 h -0.560098 v 0.5601 h -0.280049 v -0.5601 h -0.700123 v -0.28005 h 0.560098 v -0.42008 h 0.420074 v 0.42008 h 0.560098 z"
           style="font-style:normal;font-variant:normal;font-weight:normal;font-stretch:normal;font-family:'ESRI North';-inkscape-font-specification:'ESRI North, ';stroke-width:30.2481575"
           id="path4748"
           inkscape:connector-curvature="0" />
      </g>
    </g>
  </g>
</svg>
