<?xml version="1.0" standalone="no"?>
<!DOCTYPE svg PUBLIC "-//W3C//DTD SVG 20010904//EN"
 "http://www.w3.org/TR/2001/REC-SVG-20010904/DTD/svg10.dtd">
<svg version="1.0" xmlns="http://www.w3.org/2000/svg"
 width="1280.000000pt" height="1230.000000pt" viewBox="0 0 1280.000000 1230.000000"
 preserveAspectRatio="xMidYMid meet">
<g transform="translate(0.000000,1230.000000) scale(0.100000,-0.100000)"
fill="#000000" stroke="none">
<path d="M6166 11068 c-120 -662 -220 -1213 -223 -1225 -4 -17 -14 -23 -56
-28 -358 -46 -741 -145 -1092 -285 -236 -93 -658 -353 -953 -587 -335 -266
-696 -701 -942 -1137 -214 -377 -376 -865 -454 -1365 -8 -51 -16 -94 -18 -95
-2 -1 -532 -98 -1178 -215 -646 -117 -1191 -216 -1210 -220 -30 -6 -19 -10 85
-30 128 -23 1313 -236 1935 -348 206 -37 376 -68 378 -69 1 -1 12 -61 22 -135
62 -410 166 -755 334 -1104 593 -1230 1721 -2048 3068 -2223 l132 -17 197
-980 c108 -539 198 -982 199 -985 1 -3 91 440 200 985 110 545 199 991 200
991 0 1 30 5 68 9 169 17 406 65 607 121 236 66 409 131 643 245 407 196 732
429 1068 764 302 302 507 575 693 926 173 328 342 847 401 1234 12 77 23 145
25 151 2 6 21 14 42 17 21 3 227 39 458 81 231 41 773 139 1205 216 431 78
785 142 787 143 1 2 -554 104 -1235 227 -680 123 -1240 226 -1244 229 -4 3
-14 51 -23 106 -35 223 -108 523 -175 726 -111 332 -321 729 -547 1034 -128
173 -254 317 -443 505 -185 185 -325 302 -510 424 -521 345 -1071 561 -1639
643 -106 15 -124 20 -130 38 -4 11 -106 563 -226 1228 -121 664 -222 1207
-225 1207 -3 0 -104 -541 -224 -1202z m-916 -1403 c-19 -7 -42 -13 -50 -13 -8
0 1 6 20 13 19 7 42 13 50 13 8 0 -1 -6 -20 -13z m-195 -61 c-274 -94 -422
-165 -690 -331 -320 -199 -517 -353 -751 -587 -315 -316 -580 -687 -764 -1069
-177 -368 -296 -752 -356 -1154 -12 -80 -21 -113 -30 -113 -18 0 -17 19 1 136
79 487 255 995 476 1370 276 470 627 870 1014 1159 196 146 521 353 682 434
115 57 465 189 503 189 8 0 -30 -15 -85 -34z m-2645 -3684 c0 -6 -297 -8 -797
-7 -684 1 -735 2 -358 7 831 10 1155 10 1155 0z m42 -2 c-9 -9 -15 -9 -24 0
-9 9 -7 12 12 12 19 0 21 -3 12 -12z m32 -490 c54 -355 97 -543 182 -788 115
-335 238 -583 450 -907 131 -201 216 -312 346 -450 326 -349 642 -601 1011
-807 119 -66 351 -178 440 -211 26 -10 46 -20 43 -22 -15 -15 -410 172 -596
282 -720 427 -1293 1081 -1624 1854 -138 323 -207 585 -280 1059 -2 13 2 22
10 22 7 0 15 -15 18 -32z m2572 -3218 c43 -16 73 -29 67 -30 -13 0 -144 47
-152 55 -8 9 5 5 85 -25z"/>
</g>
</svg>
