<?xml version="1.0" encoding="iso-8859-1"?>
<!-- Generator: Adobe Illustrator 19.0.0, SVG Export Plug-In . SVG Version: 6.00 Build 0)  -->
<svg version="1.1" id="Layer_1" xmlns="http://www.w3.org/2000/svg" xmlns:xlink="http://www.w3.org/1999/xlink" x="0px" y="0px"
	 viewBox="0 0 512 512" style="enable-background:new 0 0 512 512;" xml:space="preserve">
<g>
	<g>
		<path d="M366.933,238.933h-34.637c-3.951-35.533-32.222-63.812-67.763-67.763v-34.637h34.133c2.773,0,5.376-1.348,6.972-3.618
			c1.604-2.27,1.988-5.171,1.058-7.791L264.03,5.658C262.827,2.27,259.61,0,256,0s-6.827,2.27-8.03,5.666l-42.667,119.467
			c-0.93,2.611-0.538,5.513,1.058,7.791c1.596,2.261,4.198,3.61,6.972,3.61h34.133v34.637c-35.541,3.951-63.812,32.23-67.763,67.763
			h-34.637c-4.719,0-8.533,3.823-8.533,8.533s3.814,8.533,8.533,8.533h34.637c3.951,35.533,32.222,63.812,67.763,67.763v179.703
			c0,4.71,3.814,8.533,8.533,8.533s8.533-3.823,8.533-8.533V323.763c35.541-3.951,63.812-32.23,67.763-67.763h34.637
			c4.719,0,8.533-3.823,8.533-8.533C375.467,242.756,371.652,238.933,366.933,238.933z M298.667,256h16.384
			c-3.763,26.103-24.414,46.754-50.517,50.517v-16.384c0-4.71-3.814-8.533-8.533-8.533s-8.533,3.823-8.533,8.533v16.384
			c-26.103-3.763-46.754-24.414-50.517-50.517h16.384c4.719,0,8.533-3.823,8.533-8.533s-3.814-8.533-8.533-8.533h-16.384
			c3.763-26.103,24.414-46.754,50.517-50.517V204.8c0,4.71,3.814,8.533,8.533,8.533s8.533-3.823,8.533-8.533v-16.384
			c26.103,3.763,46.754,24.414,50.517,50.517h-16.384c-4.719,0-8.533,3.823-8.533,8.533S293.948,256,298.667,256z"/>
	</g>
</g>
<g>
</g>
<g>
</g>
<g>
</g>
<g>
</g>
<g>
</g>
<g>
</g>
<g>
</g>
<g>
</g>
<g>
</g>
<g>
</g>
<g>
</g>
<g>
</g>
<g>
</g>
<g>
</g>
<g>
</g>
</svg>
