<?xml version="1.0" encoding="UTF-8" standalone="no"?>
<!-- Created with Inkscape (http://www.inkscape.org/) -->
<svg
   xmlns:dc="http://purl.org/dc/elements/1.1/"
   xmlns:cc="http://web.resource.org/cc/"
   xmlns:rdf="http://www.w3.org/1999/02/22-rdf-syntax-ns#"
   xmlns:svg="http://www.w3.org/2000/svg"
   xmlns="http://www.w3.org/2000/svg"
   xmlns:sodipodi="http://inkscape.sourceforge.net/DTD/sodipodi-0.dtd"
   xmlns:inkscape="http://www.inkscape.org/namespaces/inkscape"
   width="440pt"
   height="440pt"
   id="svg1417"
   sodipodi:version="0.32"
   inkscape:version="0.43"
   sodipodi:docbase="C:\Paul\Maps"
   sodipodi:docname="CompassRose16A.svg"
   version="1.0">
  <defs
     id="defs1419" />
  <sodipodi:namedview
     id="base"
     pagecolor="#ffffff"
     bordercolor="#666666"
     borderopacity="1.0"
     inkscape:pageopacity="0"
     inkscape:pageshadow="2"
     inkscape:zoom="0.5"
     inkscape:cx="332.67802"
     inkscape:cy="281.53968"
     inkscape:document-units="px"
     inkscape:current-layer="layer1"
     inkscape:window-width="756"
     inkscape:window-height="543"
     inkscape:window-x="96"
     inkscape:window-y="42"
     showborder="true"
     borderlayer="top"
     showgrid="false" />
  <metadata
     id="metadata1422">
    <rdf:RDF>
      <cc:Work
         rdf:about="">
        <dc:format>image/svg+xml</dc:format>
        <dc:type
           rdf:resource="http://purl.org/dc/dcmitype/StillImage" />
      </cc:Work>
    </rdf:RDF>
  </metadata>
  <g
     inkscape:label="Layer 1"
     inkscape:groupmode="layer"
     id="layer1">
    <g
       id="g2213">
      <path
         sodipodi:nodetypes="csssssssssssssssssssssssssssssssssssssssssssssssssssssssssssssssscccccssccsssccscccsccsssccssssccsssccsssccsssscccccsssccccsssccsssccsssssccscccssccsssssccssssccccssc"
         style="fill:#ffffff;fill-opacity:1;stroke:#202080;stroke-opacity:1"
         d="M 282.83137,52.202116 C 279.23568,69.659226 260.07158,155.47057 259.68148,155.86068 C 259.39043,156.15173 250.52715,147.73107 239.98531,137.14811 C 229.13255,126.25302 220.26273,118.11956 219.53751,118.39786 C 218.53858,118.78118 218.2567,125.05849 218.2567,146.92074 C 218.2567,164.64992 217.89483,174.95212 217.27207,174.95212 C 216.73053,174.95212 200.26964,165.89801 180.69232,154.83187 C 155.40427,140.53774 144.78728,135.02154 144.02692,135.7819 C 143.26657,136.54225 144.1247,138.67641 146.99046,143.15214 C 153.46284,153.26066 184.2567,206.75276 184.2567,207.88742 C 184.2567,208.56933 174.46648,209.0118 155.5067,209.18678 C 137.18359,209.35589 126.7567,209.81479 126.7567,210.45212 C 126.7567,211.00212 135.43154,219.7401 146.03412,229.86986 C 156.6367,239.99962 165.15108,248.76897 164.95497,249.35732 C 164.75885,249.94566 141.8778,255.42599 114.10819,261.53583 C 86.338556,267.64567 62.411676,272.94739 60.937326,273.31743 C 57.678696,274.13529 57.401896,276.74054 60.506686,277.37064 C 79.957196,281.31797 161.41301,299.33454 163.24566,300.09466 C 165.65002,301.09191 165.05744,301.77994 145.81152,320.33711 C 133.00185,332.68835 126.15376,339.97654 126.63158,340.74967 C 127.18224,341.64067 134.74142,341.95212 155.81572,341.95212 C 171.45826,341.95212 184.2567,342.19293 184.2567,342.48725 C 184.2567,342.78157 174.97492,359.01479 163.63053,378.56108 C 148.92246,403.90293 143.31275,414.40817 144.07918,415.1746 C 144.84562,415.94104 145.95778,415.71498 147.95535,414.38673 C 155.22645,409.55196 216.83896,375.19395 217.50247,375.60401 C 217.91729,375.86039 218.2567,388.61704 218.2567,403.95212 C 218.2567,419.40303 218.6581,432.08216 219.157,432.3905 C 219.65217,432.69653 228.62655,424.28559 239.10007,413.69952 C 251.34509,401.32292 258.47421,394.80909 259.07112,395.45212 C 259.58167,396.00212 264.81451,418.50212 270.69966,445.45212 C 276.58481,472.40212 281.83505,496.13962 282.36686,498.20212 C 283.44229,502.3729 285.95445,503.24706 286.67756,499.70212 C 293.86474,464.46818 308.63046,397.19981 309.33364,396.48751 C 310.26264,395.54648 311.9208,397.05163 338.89948,423.32505 C 344.6908,428.96497 349.51729,432.9091 350.14948,432.51838 C 350.91636,432.04443 351.2567,423.24551 351.2567,403.8931 C 351.2567,388.52556 351.46361,375.95212 351.71651,375.95212 C 351.96941,375.95212 367.64287,384.68982 386.54644,395.36923 C 405.45004,406.04864 421.78064,414.93614 422.83664,415.11923 C 423.99414,415.31991 424.65254,414.94103 424.49444,414.16521 C 424.35014,413.4574 415.23764,397.38812 404.24444,378.45568 C 393.25114,359.52324 384.25674,343.57175 384.25674,343.00793 C 384.25674,342.33767 394.20934,341.89094 413.00674,341.71746 C 431.75834,341.5444 441.75674,341.09647 441.75674,340.42946 C 441.75674,339.867 433.07934,331.13665 422.47364,321.02867 C 411.86794,310.92069 403.35104,302.16897 403.54724,301.5804 C 403.74344,300.99184 426.70754,295.48368 454.57854,289.34005 C 482.44964,283.19642 506.37894,277.88726 507.75494,277.54192 C 510.86824,276.76053 511.03214,274.14895 508.00674,273.52965 C 485.91914,269.00833 407.09524,251.58436 405.26774,250.81927 C 402.86104,249.81168 403.43724,249.14235 422.70184,230.56713 C 435.51154,218.21589 442.35964,210.9277 441.88184,210.15457 C 441.33114,209.26357 433.77194,208.95212 412.69764,208.95212 C 397.05514,208.95212 384.25674,208.71131 384.25674,208.41699 C 384.25674,208.12267 393.48174,191.98728 404.75674,172.56056 C 416.03174,153.13384 425.25674,136.72465 425.25674,136.09569 C 425.25674,134.27848 422.82194,134.75794 419.04944,137.31802 C 413.58564,141.02584 353.37265,174.95212 352.25572,174.95212 C 351.6142,174.95212 351.2567,164.95357 351.2567,147.01114 C 351.2567,131.6436 350.8632,118.82696 350.38225,118.52971 C 349.9013,118.23247 340.78903,126.53091 330.13277,136.9707 C 319.4765,147.41048 310.42857,155.95212 310.02627,155.95212 C 309.1323,155.95212 310.30999,161.06765 297.70961,102.45212 C 291.91625,75.502116 286.93902,52.664616 286.64908,51.702116 C 285.89745,49.206936 283.38039,49.536586 282.83137,52.202116 z M 282.72148,271.82067 C 282.42185,272.1203 273.83441,264.02316 263.63828,253.82703 L 245.09985,235.28861 L 263.19789,153.37036 C 273.15182,108.31533 281.62461,70.777116 282.02632,69.952116 C 282.42803,69.127116 282.87135,114.08747 283.01148,169.864 C 283.15161,225.64054 283.02111,271.52104 282.72148,271.82067 z M 235.21284,159.24204 C 241.97639,176.72649 247.29002,191.25213 247.02091,191.52124 C 246.42211,192.12004 223.04956,179.03998 222.02201,177.53101 C 220.99973,176.02978 221.06339,125.3307 222.08609,126.50212 C 222.54225,127.02462 228.44929,141.75758 235.21284,159.24204 z M 330.71188,159.46194 C 323.71697,176.23154 317.67844,189.95212 317.29294,189.95212 C 316.90744,189.95212 315.0853,182.88233 313.24373,174.24148 L 309.89543,158.53084 L 326.32607,142.78667 C 335.36292,134.12738 342.90817,127.47658 343.09331,128.00713 C 343.27844,128.53767 337.7068,142.69234 330.71188,159.46194 z M 369.5462,188.15973 C 345.78201,211.92392 326.11832,231.14707 325.84911,230.87786 C 324.96676,229.99551 318.27582,197.59969 318.85592,197.01867 C 320.38825,195.48391 409.96124,145.07277 411.25524,145.01686 C 412.07944,144.98126 393.31034,164.39554 369.5462,188.15973 z M 196.71722,189.91263 C 220.34071,213.54091 239.37484,233.16731 239.0153,233.52686 C 238.46996,234.07219 209.15238,240.87409 207.09288,240.9331 C 206.49254,240.9503 157.78851,157.94451 153.85605,150.20212 C 152.94816,148.41462 152.55636,146.95212 152.98538,146.95212 C 153.4144,146.95212 173.09373,166.28435 196.71722,189.91263 z M 431.70674,212.85231 C 430.33804,214.14919 367.07585,240.10461 366.55443,239.58319 C 366.13842,239.16717 379.35424,215.81162 381.48224,213.20212 C 382.24854,212.26245 388.72744,211.95212 407.57914,211.95212 C 422.48084,211.95212 432.27124,212.3174 431.70674,212.85231 z M 167.2567,228.12147 C 200.99839,242.26156 199.812,241.73016 199.13982,242.40233 C 198.48768,243.05447 171.59942,248.96012 169.51405,248.90924 C 167.3249,248.85583 132.19281,215.03678 134.2567,214.96962 C 135.0817,214.94277 149.9317,220.8611 167.2567,228.12147 z M 408.75674,254.42968 C 453.30674,264.22027 490.18424,272.61807 490.70674,273.09144 C 491.23814,273.57293 446.85104,273.95212 389.95674,273.95212 C 334.0217,273.95212 288.2567,273.61906 288.2567,273.21199 C 288.2567,271.49405 324.85169,235.90197 326.2567,236.25341 C 327.0817,236.45977 364.2067,244.63909 408.75674,254.42968 z M 279.2567,277.73758 C 279.2567,278.16959 271.02667,286.70954 260.96774,296.71525 L 242.67877,314.90744 L 239.21774,314.00177 C 237.31417,313.50366 200.4317,305.35148 157.2567,295.88583 C 114.0817,286.42017 78.329186,278.28778 77.806686,277.81383 C 77.274356,277.33097 121.34868,276.95212 178.0567,276.95212 C 233.7167,276.95212 279.2567,277.30558 279.2567,277.73758 z M 305.51097,298.7061 L 323.2444,316.46008 L 305.47163,399.15168 C 295.69662,444.63206 287.37438,482.16777 286.97779,482.56437 C 286.58119,482.96097 286.2567,437.76045 286.2567,382.11879 C 286.2567,326.47712 286.59889,280.95212 287.01712,280.95212 C 287.43535,280.95212 295.75758,288.94141 305.51097,298.7061 z M 417.94404,318.67387 C 427.55924,327.87083 435.00134,335.53725 434.48204,335.71035 C 432.91584,336.2324 368.16501,309.64379 368.9911,308.81785 C 369.8808,307.92832 394.62254,302.16862 398.10934,302.03934 C 399.84644,301.97494 405.03574,306.327 417.94404,318.67387 z M 387.80694,354.20212 C 401.95434,378.53962 414.40534,399.91546 415.47584,401.70398 C 416.54634,403.49251 417.27194,405.40643 417.08834,405.95715 C 416.90484,406.50786 396.74974,386.94982 372.29942,362.49484 C 347.84907,338.03987 328.0774,317.79809 328.36237,317.51311 C 328.86336,317.01212 358.56537,310.18454 360.92052,310.02899 C 361.56062,309.98671 373.65951,329.86462 387.80694,354.20212 z M 201.02815,314.20212 C 200.22594,315.43962 197.39564,320.27712 194.73858,324.95212 C 192.08153,329.62712 189.05549,334.68962 188.01405,336.20212 L 186.12051,338.95212 L 161.02194,338.95212 C 147.21772,338.95212 136.22062,338.65487 136.58393,338.29155 C 137.74033,337.13516 198.67675,312.17531 200.62171,312.06137 C 202.32387,311.96166 202.35936,312.14858 201.02815,314.20212 z M 246.61632,335.9714 C 249.38999,348.52262 249.81108,351.81165 248.84153,353.35201 C 248.18382,354.39695 242.94567,357.924 237.2012,361.1899 C 180.89233,393.20311 156.2259,406.95212 155.10143,406.95212 C 154.36652,406.95212 173.5511,387.16241 197.73383,362.97499 C 221.91657,338.78757 242.03833,319.33375 242.44886,319.74428 C 242.85938,320.1548 244.73474,327.45701 246.61632,335.9714 z M 255.13014,374.72189 C 256.84975,382.57026 258.2567,389.77523 258.2567,390.73292 C 258.2567,391.69062 250.6067,400.11425 241.2567,409.45212 C 231.9067,418.78999 224.2567,425.83187 224.2567,425.10076 C 224.2567,423.92198 248.70245,360.77607 250.01139,358.5737 C 250.93948,357.01215 251.94469,360.1833 255.13014,374.72189 z M 335.2567,366.30467 L 347.7567,373.49417 L 348.02433,398.94077 C 348.18025,413.7659 347.92214,423.98349 347.40595,423.41975 C 346.47334,422.40122 321.2567,360.93461 321.2567,359.67986 C 321.2567,358.3855 322.56189,359.00312 335.2567,366.30467 z "
         id="White Background" />
      <path
         sodipodi:nodetypes="csssssssssssssssssssssssssssssssssssssssssssssssssssssssssssssssscccccssccsssccscccsccsssccssssccsssccsssccsssscccccsssccccsssccsssccsssssccscccssccsssssccssssccccssc"
         style="fill:#202080;fill-opacity:1;stroke:none;stroke-opacity:1"
         d="M 284.66039,497.96897 C 281.0647,480.51186 261.9006,394.70052 261.5105,394.31041 C 261.21945,394.01936 252.35617,402.44002 241.81433,413.02298 C 230.96157,423.91807 222.09175,432.05153 221.36653,431.77323 C 220.3676,431.38991 220.08572,425.1126 220.08572,403.25035 C 220.08572,385.52117 219.72385,375.21897 219.10109,375.21897 C 218.55955,375.21897 202.09866,384.27308 182.52134,395.33922 C 157.23329,409.63335 146.6163,415.14955 145.85594,414.38919 C 145.09559,413.62884 145.95372,411.49468 148.81948,407.01895 C 155.29186,396.91043 186.08572,343.41833 186.08572,342.28367 C 186.08572,341.60176 176.2955,341.15929 157.33572,340.98431 C 139.01261,340.8152 128.58572,340.3563 128.58572,339.71897 C 128.58572,339.16897 137.26056,330.43099 147.86314,320.30123 C 158.46572,310.17147 166.9801,301.40212 166.78399,300.81377 C 166.58787,300.22543 143.70682,294.7451 115.93721,288.63526 C 88.167586,282.52542 64.240706,277.2237 62.766356,276.85366 C 59.507726,276.0358 59.230926,273.43055 62.335716,272.80045 C 81.786226,268.85312 163.24203,250.83655 165.07468,250.07643 C 167.47904,249.07918 166.88646,248.39115 147.64054,229.83398 C 134.83087,217.48274 127.98278,210.19455 128.4606,209.42142 C 129.01126,208.53042 136.57044,208.21897 157.64474,208.21897 C 173.28728,208.21897 186.08572,207.97816 186.08572,207.68384 C 186.08572,207.38952 176.80394,191.1563 165.45955,171.61001 C 150.75148,146.26816 145.14177,135.76292 145.9082,134.99649 C 146.67464,134.23005 147.7868,134.45611 149.78437,135.78436 C 157.05547,140.61913 218.66798,174.97714 219.33149,174.56708 C 219.74631,174.3107 220.08572,161.55405 220.08572,146.21897 C 220.08572,130.76806 220.48712,118.08893 220.98602,117.78059 C 221.48119,117.47456 230.45557,125.8855 240.92909,136.47157 C 253.17411,148.84817 260.30323,155.362 260.90014,154.71897 C 261.41069,154.16897 266.64353,131.66897 272.52868,104.71897 C 278.41383,77.768972 283.66407,54.031472 284.19588,51.968972 C 285.27131,47.798192 287.78347,46.924032 288.50658,50.468972 C 295.69376,85.702912 310.45948,152.97128 311.16266,153.68358 C 312.09166,154.62461 313.74982,153.11946 340.7285,126.84604 C 346.51982,121.20612 351.34631,117.26199 351.9785,117.65271 C 352.74538,118.12666 353.08572,126.92558 353.08572,146.27799 C 353.08572,161.64553 353.29263,174.21897 353.54553,174.21897 C 353.79843,174.21897 369.47189,165.48127 388.37546,154.80186 C 407.27906,144.12245 423.60966,135.23495 424.66566,135.05186 C 425.82316,134.85118 426.48156,135.23006 426.32346,136.00588 C 426.17916,136.71369 417.06666,152.78297 406.07346,171.71541 C 395.08016,190.64785 386.08576,206.59934 386.08576,207.16316 C 386.08576,207.83342 396.03836,208.28015 414.83576,208.45363 C 433.58736,208.62669 443.58576,209.07462 443.58576,209.74163 C 443.58576,210.30409 434.90836,219.03444 424.30266,229.14242 C 413.69696,239.2504 405.18006,248.00212 405.37626,248.59069 C 405.57246,249.17925 428.53656,254.68741 456.40756,260.83104 C 484.27866,266.97467 508.20796,272.28383 509.58396,272.62917 C 512.69726,273.41056 512.86116,276.02214 509.83576,276.64144 C 487.74816,281.16276 408.92426,298.58673 407.09676,299.35182 C 404.69006,300.35941 405.26626,301.02874 424.53086,319.60396 C 437.34056,331.9552 444.18866,339.24339 443.71086,340.01652 C 443.16016,340.90752 435.60096,341.21897 414.52666,341.21897 C 398.88416,341.21897 386.08576,341.45978 386.08576,341.7541 C 386.08576,342.04842 395.31076,358.18381 406.58576,377.61053 C 417.86076,397.03725 427.08576,413.44644 427.08576,414.0754 C 427.08576,415.89261 424.65096,415.41315 420.87846,412.85307 C 415.41466,409.14525 355.20167,375.21897 354.08474,375.21897 C 353.44322,375.21897 353.08572,385.21752 353.08572,403.15995 C 353.08572,418.52749 352.69222,431.34413 352.21127,431.64138 C 351.73032,431.93862 342.61805,423.64018 331.96179,413.20039 C 321.30552,402.76061 312.25759,394.21897 311.85529,394.21897 C 310.96132,394.21897 312.13901,389.10344 299.53863,447.71897 C 293.74527,474.66897 288.76804,497.50647 288.4781,498.46897 C 287.72647,500.96415 285.20941,500.6345 284.66039,497.96897 z M 284.5505,278.35042 C 284.25087,278.05079 275.66343,286.14793 265.4673,296.34406 L 246.92887,314.88248 L 265.02691,396.80073 C 274.98084,441.85576 283.45363,479.39397 283.85534,480.21897 C 284.25705,481.04397 284.70037,436.08362 284.8405,380.30709 C 284.98063,324.53055 284.85013,278.65005 284.5505,278.35042 z M 237.04186,390.92905 C 243.80541,373.4446 249.11904,358.91896 248.84993,358.64985 C 248.25113,358.05105 224.87858,371.13111 223.85103,372.64008 C 222.82875,374.14131 222.89241,424.84039 223.91511,423.66897 C 224.37127,423.14647 230.27831,408.41351 237.04186,390.92905 z M 332.5409,390.70915 C 325.54599,373.93955 319.50746,360.21897 319.12196,360.21897 C 318.73646,360.21897 316.91432,367.28876 315.07275,375.92961 L 311.72445,391.64025 L 328.15509,407.38442 C 337.19194,416.04371 344.73719,422.69451 344.92233,422.16396 C 345.10746,421.63342 339.53582,407.47875 332.5409,390.70915 z M 371.37522,362.01136 C 347.61103,338.24717 327.94734,319.02402 327.67813,319.29323 C 326.79578,320.17558 320.10484,352.5714 320.68494,353.15242 C 322.21727,354.68718 411.79026,405.09832 413.08426,405.15423 C 413.90846,405.18983 395.13936,385.77555 371.37522,362.01136 z M 198.54624,360.25846 C 222.16973,336.63018 241.20386,317.00378 240.84432,316.64423 C 240.29898,316.0989 210.9814,309.297 208.9219,309.23799 C 208.32156,309.22079 159.61753,392.22658 155.68507,399.96897 C 154.77718,401.75647 154.38538,403.21897 154.8144,403.21897 C 155.24342,403.21897 174.92275,383.88674 198.54624,360.25846 z M 433.53576,337.31878 C 432.16706,336.0219 368.90487,310.06648 368.38345,310.5879 C 367.96744,311.00392 381.18326,334.35947 383.31126,336.96897 C 384.07756,337.90864 390.55646,338.21897 409.40816,338.21897 C 424.30986,338.21897 434.10026,337.85369 433.53576,337.31878 z M 169.08572,322.04962 C 202.82741,307.90953 201.64102,308.44093 200.96884,307.76876 C 200.3167,307.11662 173.42844,301.21097 171.34307,301.26185 C 169.15392,301.31526 134.02183,335.13431 136.08572,335.20147 C 136.91072,335.22832 151.76072,329.30999 169.08572,322.04962 z M 410.58576,295.74141 C 455.13576,285.95082 492.01326,277.55302 492.53576,277.07965 C 493.06716,276.59816 448.68006,276.21897 391.78576,276.21897 C 335.85072,276.21897 290.08572,276.55203 290.08572,276.9591 C 290.08572,278.67704 326.68071,314.26912 328.08572,313.91768 C 328.91072,313.71132 366.03572,305.532 410.58576,295.74141 z M 281.08572,272.43351 C 281.08572,272.0015 272.85569,263.46155 262.79676,253.45584 L 244.50779,235.26365 L 241.04676,236.16932 C 239.14319,236.66743 202.26072,244.81961 159.08572,254.28526 C 115.91072,263.75092 80.158216,271.88331 79.635716,272.35726 C 79.103386,272.84012 123.1777,273.21897 179.88572,273.21897 C 235.54572,273.21897 281.08572,272.86551 281.08572,272.43351 z M 307.33999,251.46499 L 325.07342,233.71101 L 307.30065,151.01941 C 297.52564,105.53903 289.2034,68.003322 288.80681,67.606722 C 288.41021,67.210122 288.08572,112.41064 288.08572,168.0523 C 288.08572,223.69397 288.42791,269.21897 288.84614,269.21897 C 289.26437,269.21897 297.5866,261.22968 307.33999,251.46499 z M 419.77306,231.49722 C 429.38826,222.30026 436.83036,214.63384 436.31106,214.46074 C 434.74486,213.93869 369.99403,240.5273 370.82012,241.35324 C 371.70982,242.24277 396.45156,248.00247 399.93836,248.13175 C 401.67546,248.19615 406.86476,243.84409 419.77306,231.49722 z M 389.63596,195.96897 C 403.78336,171.63147 416.23436,150.25563 417.30486,148.46711 C 418.37536,146.67858 419.10096,144.76466 418.91736,144.21394 C 418.73386,143.66323 398.57876,163.22127 374.12844,187.67625 C 349.67809,212.13122 329.90642,232.373 330.19139,232.65798 C 330.69238,233.15897 360.39439,239.98655 362.74954,240.1421 C 363.38964,240.18438 375.48853,220.30647 389.63596,195.96897 z M 202.85717,235.96897 C 202.05496,234.73147 199.22466,229.89397 196.5676,225.21897 C 193.91055,220.54397 190.88451,215.48147 189.84307,213.96897 L 187.94953,211.21897 L 162.85096,211.21897 C 149.04674,211.21897 138.04964,211.51622 138.41295,211.87954 C 139.56935,213.03593 200.50577,237.99578 202.45073,238.10972 C 204.15289,238.20943 204.18838,238.02251 202.85717,235.96897 z M 248.44534,214.19969 C 251.21901,201.64847 251.6401,198.35944 250.67055,196.81908 C 250.01284,195.77414 244.77469,192.24709 239.03022,188.98119 C 182.72135,156.96798 158.05492,143.21897 156.93045,143.21897 C 156.19554,143.21897 175.38012,163.00868 199.56285,187.1961 C 223.74559,211.38352 243.86735,230.83734 244.27788,230.42681 C 244.6884,230.01629 246.56376,222.71408 248.44534,214.19969 z M 256.95916,175.4492 C 258.67877,167.60083 260.08572,160.39586 260.08572,159.43817 C 260.08572,158.48047 252.43572,150.05684 243.08572,140.71897 C 233.73572,131.3811 226.08572,124.33922 226.08572,125.07033 C 226.08572,126.24911 250.53147,189.39502 251.84041,191.59739 C 252.7685,193.15894 253.77371,189.98779 256.95916,175.4492 z M 337.08572,183.86642 L 349.58572,176.67692 L 349.85335,151.23032 C 350.00927,136.40519 349.75116,126.1876 349.23497,126.75134 C 348.30236,127.76987 323.08572,189.23648 323.08572,190.49123 C 323.08572,191.78559 324.39091,191.16797 337.08572,183.86642 z "
         id="Compass Rose" />
      <text
         sodipodi:linespacing="100%"
         id="N"
         y="44.931904"
         x="288.2731"
         style="font-size:48px;font-style:normal;font-variant:normal;font-weight:bold;font-stretch:normal;text-align:center;line-height:100%;writing-mode:lr-tb;text-anchor:middle;fill:#202080;fill-opacity:1;stroke:none;stroke-width:1px;stroke-linecap:butt;stroke-linejoin:miter;stroke-opacity:1;font-family:Arial"
         xml:space="preserve"><tspan
           y="44.931904"
           x="288.2731"
           id="tspan1308"
           sodipodi:role="line">N</tspan></text>
      <text
         sodipodi:linespacing="100%"
         id="S"
         y="539.61292"
         x="282.73813"
         style="font-size:48px;font-style:normal;font-variant:normal;font-weight:bold;font-stretch:normal;text-align:center;line-height:100%;writing-mode:lr-tb;text-anchor:middle;fill:#202080;fill-opacity:1;stroke:none;stroke-width:1px;stroke-linecap:butt;stroke-linejoin:miter;stroke-opacity:1;font-family:Arial"
         xml:space="preserve"><tspan
           y="539.61292"
           x="282.73813"
           id="tspan1312"
           sodipodi:role="line">S</tspan></text>
      <text
         sodipodi:linespacing="100%"
         id="E"
         y="292.61295"
         x="530.73816"
         style="font-size:48px;font-style:normal;font-variant:normal;font-weight:bold;font-stretch:normal;text-align:center;line-height:100%;writing-mode:lr-tb;text-anchor:middle;fill:#202080;fill-opacity:1;stroke:none;stroke-width:1px;stroke-linecap:butt;stroke-linejoin:miter;stroke-opacity:1;font-family:Arial"
         xml:space="preserve"><tspan
           y="292.61295"
           x="530.73816"
           id="tspan1316"
           sodipodi:role="line">E</tspan></text>
      <text
         sodipodi:linespacing="100%"
         id="W"
         y="292.61295"
         x="30.058443"
         style="font-size:48px;font-style:normal;font-variant:normal;font-weight:bold;font-stretch:normal;text-align:center;line-height:100%;writing-mode:lr-tb;text-anchor:middle;fill:#202080;fill-opacity:1;stroke:none;stroke-width:1px;stroke-linecap:butt;stroke-linejoin:miter;stroke-opacity:1;font-family:Arial"
         xml:space="preserve"><tspan
           y="292.61295"
           x="30.058443"
           id="tspan2193"
           sodipodi:role="line">W</tspan></text>
      <text
         sodipodi:linespacing="100%"
         id="NE"
         y="130.88637"
         x="437.4686"
         style="font-size:32px;font-style:normal;font-variant:normal;font-weight:bold;font-stretch:normal;text-align:center;line-height:100%;writing-mode:lr-tb;text-anchor:middle;fill:#202080;fill-opacity:1;stroke:none;stroke-width:1px;stroke-linecap:butt;stroke-linejoin:miter;stroke-opacity:1;font-family:Arial"
         xml:space="preserve"><tspan
           y="130.88637"
           x="437.4686"
           id="tspan2201"
           sodipodi:role="line">NE</tspan></text>
      <text
         sodipodi:linespacing="100%"
         id="NW"
         y="131.61293"
         x="115.60922"
         style="font-size:32px;font-style:normal;font-variant:normal;font-weight:bold;font-stretch:normal;text-align:center;line-height:100%;writing-mode:lr-tb;text-anchor:middle;fill:#202080;fill-opacity:1;stroke:none;stroke-width:1px;stroke-linecap:butt;stroke-linejoin:miter;stroke-opacity:1;font-family:Arial"
         xml:space="preserve"><tspan
           y="131.61293"
           x="115.60922"
           id="tspan2197"
           sodipodi:role="line">NW</tspan></text>
      <text
         sodipodi:linespacing="100%"
         id="SE"
         y="442.88638"
         x="444.21078"
         style="font-size:32px;font-style:normal;font-variant:normal;font-weight:bold;font-stretch:normal;text-align:center;line-height:100%;writing-mode:lr-tb;text-anchor:middle;fill:#202080;fill-opacity:1;stroke:none;stroke-width:1px;stroke-linecap:butt;stroke-linejoin:miter;stroke-opacity:1;font-family:Arial"
         xml:space="preserve"><tspan
           y="442.88638"
           x="444.21078"
           id="tspan2205"
           sodipodi:role="line">SE</tspan></text>
      <text
         sodipodi:linespacing="100%"
         id="SW"
         y="443.87857"
         x="127.82016"
         style="font-size:32px;font-style:normal;font-variant:normal;font-weight:bold;font-stretch:normal;text-align:center;line-height:100%;writing-mode:lr-tb;text-anchor:middle;fill:#202080;fill-opacity:1;stroke:none;stroke-width:1px;stroke-linecap:butt;stroke-linejoin:miter;stroke-opacity:1;font-family:Arial"
         xml:space="preserve"><tspan
           y="443.87857"
           x="127.82016"
           id="tspan2213"
           sodipodi:role="line">SW</tspan></text>
      <text
         sodipodi:linespacing="100%"
         id="SSW"
         y="451.87857"
         x="214.07797"
         style="font-size:20px;font-style:normal;font-variant:normal;font-weight:bold;font-stretch:normal;text-align:center;line-height:100%;writing-mode:lr-tb;text-anchor:middle;fill:#202080;fill-opacity:1;stroke:none;stroke-width:1px;stroke-linecap:butt;stroke-linejoin:miter;stroke-opacity:1;font-family:Arial"
         xml:space="preserve"><tspan
           y="451.87857"
           x="214.07797"
           id="tspan2217"
           sodipodi:role="line">SSW</tspan></text>
      <text
         sodipodi:linespacing="100%"
         id="SSE"
         y="451.58658"
         x="356.2684"
         style="font-size:20px;font-style:normal;font-variant:normal;font-weight:bold;font-stretch:normal;text-align:center;line-height:100%;writing-mode:lr-tb;text-anchor:middle;fill:#202080;fill-opacity:1;stroke:none;stroke-width:1px;stroke-linecap:butt;stroke-linejoin:miter;stroke-opacity:1;font-family:Arial"
         xml:space="preserve"><tspan
           y="451.58658"
           x="356.2684"
           id="tspan2221"
           sodipodi:role="line">SSE</tspan></text>
      <text
         sodipodi:linespacing="100%"
         id="ESE"
         y="353.58658"
         x="466.73227"
         style="font-size:20px;font-style:normal;font-variant:normal;font-weight:bold;font-stretch:normal;text-align:center;line-height:100%;writing-mode:lr-tb;text-anchor:middle;fill:#202080;fill-opacity:1;stroke:none;stroke-width:1px;stroke-linecap:butt;stroke-linejoin:miter;stroke-opacity:1;font-family:Arial"
         xml:space="preserve"><tspan
           y="353.58658"
           x="466.73227"
           id="tspan2225"
           sodipodi:role="line">ESE</tspan></text>
      <text
         sodipodi:linespacing="100%"
         id="ENE"
         y="212.58656"
         x="466.36606"
         style="font-size:20px;font-style:normal;font-variant:normal;font-weight:bold;font-stretch:normal;text-align:center;line-height:100%;writing-mode:lr-tb;text-anchor:middle;fill:#202080;fill-opacity:1;stroke:none;stroke-width:1px;stroke-linecap:butt;stroke-linejoin:miter;stroke-opacity:1;font-family:Arial"
         xml:space="preserve"><tspan
           y="212.58656"
           x="466.36606"
           id="tspan2229"
           sodipodi:role="line">ENE</tspan></text>
      <text
         sodipodi:linespacing="100%"
         id="NNE"
         y="114.59146"
         x="361.36606"
         style="font-size:20px;font-style:normal;font-variant:normal;font-weight:bold;font-stretch:normal;text-align:center;line-height:100%;writing-mode:lr-tb;text-anchor:middle;fill:#202080;fill-opacity:1;stroke:none;stroke-width:1px;stroke-linecap:butt;stroke-linejoin:miter;stroke-opacity:1;font-family:Arial"
         xml:space="preserve"><tspan
           y="114.59146"
           x="361.36606"
           id="tspan2233"
           sodipodi:role="line">NNE</tspan></text>
      <text
         sodipodi:linespacing="100%"
         id="NNW"
         y="113.59146"
         x="215.35141"
         style="font-size:20px;font-style:normal;font-variant:normal;font-weight:bold;font-stretch:normal;text-align:center;line-height:100%;writing-mode:lr-tb;text-anchor:middle;fill:#202080;fill-opacity:1;stroke:none;stroke-width:1px;stroke-linecap:butt;stroke-linejoin:miter;stroke-opacity:1;font-family:Arial"
         xml:space="preserve"><tspan
           y="113.59146"
           x="215.35141"
           id="tspan2237"
           sodipodi:role="line">NNW</tspan></text>
      <text
         sodipodi:linespacing="100%"
         id="WNW"
         y="212.59145"
         x="97.887543"
         style="font-size:20px;font-style:normal;font-variant:normal;font-weight:bold;font-stretch:normal;text-align:center;line-height:100%;writing-mode:lr-tb;text-anchor:middle;fill:#202080;fill-opacity:1;stroke:none;stroke-width:1px;stroke-linecap:butt;stroke-linejoin:miter;stroke-opacity:1;font-family:Arial"
         xml:space="preserve"><tspan
           y="212.59145"
           x="97.887543"
           id="tspan2241"
           sodipodi:role="line">WNW</tspan></text>
      <text
         sodipodi:linespacing="100%"
         id="WSW"
         y="353.59146"
         x="95.595551"
         style="font-size:20px;font-style:normal;font-variant:normal;font-weight:bold;font-stretch:normal;text-align:center;line-height:100%;writing-mode:lr-tb;text-anchor:middle;fill:#202080;fill-opacity:1;stroke:none;stroke-width:1px;stroke-linecap:butt;stroke-linejoin:miter;stroke-opacity:1;font-family:Arial"
         xml:space="preserve"><tspan
           y="353.59146"
           x="95.595551"
           id="tspan2245"
           sodipodi:role="line">WSW</tspan></text>
    </g>
  </g>
</svg>
