<?xml version="1.0" encoding="UTF-8" standalone="no"?>
<!-- Created with Inkscape (http://www.inkscape.org/) -->

<svg
   xmlns:dc="http://purl.org/dc/elements/1.1/"
   xmlns:cc="http://creativecommons.org/ns#"
   xmlns:rdf="http://www.w3.org/1999/02/22-rdf-syntax-ns#"
   xmlns:svg="http://www.w3.org/2000/svg"
   xmlns="http://www.w3.org/2000/svg"
   xmlns:sodipodi="http://sodipodi.sourceforge.net/DTD/sodipodi-0.dtd"
   xmlns:inkscape="http://www.inkscape.org/namespaces/inkscape"
   width="97.092606mm"
   height="94.763359mm"
   viewBox="0 0 97.092606 94.763359"
   version="1.1"
   id="svg845"
   inkscape:version="0.92.3 (2405546, 2018-03-11)"
   sodipodi:docname="esri_north_102_b.svg">
  <defs
     id="defs839" />
  <sodipodi:namedview
     id="base"
     pagecolor="#ffffff"
     bordercolor="#666666"
     borderopacity="1.0"
     inkscape:pageopacity="0.0"
     inkscape:pageshadow="2"
     inkscape:zoom="0.97458821"
     inkscape:cx="173.16514"
     inkscape:cy="191.45653"
     inkscape:document-units="mm"
     inkscape:current-layer="text1587"
     showgrid="false"
     inkscape:window-width="1366"
     inkscape:window-height="745"
     inkscape:window-x="0"
     inkscape:window-y="23"
     inkscape:window-maximized="1"
     fit-margin-top="0"
     fit-margin-left="0"
     fit-margin-right="0"
     fit-margin-bottom="0"
     showguides="true"
     inkscape:guide-bbox="true" />
  <metadata
     id="metadata842">
    <rdf:RDF>
      <cc:Work
         rdf:about="">
        <dc:format>image/svg+xml</dc:format>
        <dc:type
           rdf:resource="http://purl.org/dc/dcmitype/StillImage" />
        <dc:title></dc:title>
      </cc:Work>
    </rdf:RDF>
  </metadata>
  <g
     inkscape:label="Camada 1"
     inkscape:groupmode="layer"
     id="layer1"
     transform="translate(-0.45982081,-200.1648)">
    <g
       aria-label="2"
       style="font-style:normal;font-weight:normal;font-size:124.42774963px;line-height:1.25;font-family:sans-serif;letter-spacing:0px;word-spacing:0px;fill:#000000;fill-opacity:1;stroke:none;stroke-width:5.18448925"
       id="text1587">
      <g
         aria-label="N"
         style="font-style:normal;font-weight:normal;font-size:122.5916748px;line-height:1.25;font-family:sans-serif;letter-spacing:0px;word-spacing:0px;fill:#000000;fill-opacity:1;stroke:none;stroke-width:26.4822998"
         id="text1792">
        <path
           d="M 97.552427,264.15765 H 0.45982081 L 49.496491,200.1648 Z M 17.132289,294.80557 H 11.983438 L 3.8923877,274.33276 v 20.47281 H 0.45982081 V 268.57095 H 5.4860795 l 7.8458675,20.35022 v -20.35022 h 3.800342 z m 24.395743,-13.11731 q 0,13.2399 -10.297701,13.2399 -10.175109,0 -10.175109,-13.2399 0,-6.61995 2.451834,-10.17511 2.574425,-3.67775 7.723275,-3.67775 5.148851,0 7.723276,3.67775 2.574425,3.55516 2.574425,10.17511 z m -4.290709,0 q 0,-4.65848 -1.593692,-7.23291 -1.593691,-2.57442 -4.4133,-2.57442 -2.697017,0 -4.290708,2.57442 -1.593692,2.57443 -1.593692,7.23291 0,4.29071 1.593692,6.98773 1.593691,2.57442 4.290708,2.57442 2.697017,0 4.290709,-2.57442 1.716283,-2.69702 1.716283,-6.98773 z m 24.273152,13.11731 h -4.535892 l -2.329242,-7.96846 q -0.858142,-3.06479 -3.800342,-3.06479 h -1.348508 v 11.03325 h -4.168117 v -26.23462 h 6.987725 q 7.968459,0 7.968459,6.74255 0,5.02625 -4.658484,6.49735 1.838876,0.49037 2.819609,3.67776 z m -5.516626,-18.63393 q 0,-3.92294 -4.658483,-3.92294 h -1.838875 v 7.84587 h 2.084058 q 4.4133,0 4.4133,-3.92293 z m 21.94391,-3.67775 h -5.639217 v 22.31168 h -4.290708 v -22.31168 h -5.761809 v -3.92294 h 15.691734 z m 19.614668,22.31168 h -4.290708 v -11.64621 h -8.458826 v 11.64621 h -4.045525 v -26.23462 h 4.045525 v 10.54289 h 8.458826 v -10.54289 h 4.290708 z"
           style="font-style:normal;font-variant:normal;font-weight:normal;font-stretch:normal;font-family:'ESRI North';-inkscape-font-specification:'ESRI North, ';stroke-width:26.4822998"
           id="path4065"
           inkscape:connector-curvature="0" />
      </g>
    </g>
  </g>
</svg>
