<?xml version="1.0" encoding="UTF-8" standalone="no"?>
<!-- Created with Inkscape (http://www.inkscape.org/) -->

<svg
   xmlns:dc="http://purl.org/dc/elements/1.1/"
   xmlns:cc="http://creativecommons.org/ns#"
   xmlns:rdf="http://www.w3.org/1999/02/22-rdf-syntax-ns#"
   xmlns:svg="http://www.w3.org/2000/svg"
   xmlns="http://www.w3.org/2000/svg"
   xmlns:sodipodi="http://sodipodi.sourceforge.net/DTD/sodipodi-0.dtd"
   xmlns:inkscape="http://www.inkscape.org/namespaces/inkscape"
   width="16.365103mm"
   height="96.735939mm"
   viewBox="0 0 16.365103 96.735939"
   version="1.1"
   id="svg845"
   inkscape:version="0.92.3 (2405546, 2018-03-11)"
   sodipodi:docname="esri_north_015_b.svg">
  <defs
     id="defs839" />
  <sodipodi:namedview
     id="base"
     pagecolor="#ffffff"
     bordercolor="#666666"
     borderopacity="1.0"
     inkscape:pageopacity="0.0"
     inkscape:pageshadow="2"
     inkscape:zoom="0.97458821"
     inkscape:cx="177.14498"
     inkscape:cy="150.11464"
     inkscape:document-units="mm"
     inkscape:current-layer="text1587"
     showgrid="false"
     inkscape:window-width="1366"
     inkscape:window-height="745"
     inkscape:window-x="0"
     inkscape:window-y="23"
     inkscape:window-maximized="1"
     fit-margin-top="0"
     fit-margin-left="0"
     fit-margin-right="0"
     fit-margin-bottom="0"
     showguides="true"
     inkscape:guide-bbox="true" />
  <metadata
     id="metadata842">
    <rdf:RDF>
      <cc:Work
         rdf:about="">
        <dc:format>image/svg+xml</dc:format>
        <dc:type
           rdf:resource="http://purl.org/dc/dcmitype/StillImage" />
        <dc:title></dc:title>
      </cc:Work>
    </rdf:RDF>
  </metadata>
  <g
     inkscape:label="Camada 1"
     inkscape:groupmode="layer"
     id="layer1"
     transform="translate(-0.51983076,-199.54671)">
    <g
       aria-label="2"
       style="font-style:normal;font-weight:normal;font-size:124.42774963px;line-height:1.25;font-family:sans-serif;letter-spacing:0px;word-spacing:0px;fill:#000000;fill-opacity:1;stroke:none;stroke-width:5.18448925"
       id="text1587">
      <g
         aria-label="!"
         style="font-style:normal;font-weight:normal;font-size:121.22297668px;line-height:1.25;font-family:sans-serif;letter-spacing:0px;word-spacing:0px;fill:#000000;fill-opacity:1;stroke:none;stroke-width:26.18663406"
         id="text1792">
        <path
           d="m 9.0054391,267.06791 -0.2424459,-0.12122 q -1.0910068,-0.4849 -1.0910068,-1.33346 0,-0.60611 0.4848919,-0.84856 Q 8.7629932,264.401 9.3691081,264.401 H 9.732777 q 0.969784,0.60612 1.818345,1.33346 0.84856,0.72733 0.84856,2.06079 v 0.24244 q -0.484891,1.69712 -2.545682,1.93957 -5.212588,-1.21223 -5.212588,-4.84892 0,-2.6669 2.7881284,-5.21259 1.4546758,-1.33345 1.6971217,-2.6669 0.3636689,-1.33345 0.4848919,-2.66691 v -1.33345 q 0,-0.96978 -0.2424459,-1.69712 -0.242446,-0.84856 -0.4848919,-1.5759 L 7.4295404,248.27835 Q 5.7324188,247.55101 4.1565201,246.46 2.5806214,245.369 1.8532835,245.00533 l -1.33345274,-2.18202 q 1.09100684,0.72734 2.66690554,1.69713 1.5758986,0.84856 3.2730203,1.93956 1.8183447,0.96979 3.3942434,1.93957 1.697122,0.96978 2.788128,1.69712 l -0.242446,-0.12122 q -0.84856,-0.84856 -1.333452,-1.5759 -0.484892,-0.84856 -0.969784,-1.5759 -0.8485609,-1.33345 -1.2122298,-2.30323 -0.242446,-1.09101 -0.484892,-2.06079 0.121223,-0.96979 0.7273379,-2.0608 0.7273379,-1.21223 1.4546759,-2.42446 0.727338,-1.33345 1.333453,-2.54568 0.606114,-1.21223 0.606114,-2.30323 0,-2.06079 -1.818344,-3.03058 -0.7273381,-0.36367 -1.5758989,-0.60611 -0.7273379,-0.36367 -1.4546757,-0.36367 -1.6971217,0 -2.3032366,0.96978 0,0.48489 0.8485609,1.5759 0.8485608,0.96978 2.1820135,0.96978 0.6061149,0 0.7273379,-0.12122 -0.121223,-0.12122 -0.3636689,-0.36367 -0.242446,-0.24244 -0.8485609,-0.72734 L 8.5205472,231.30713 9.854,232.15569 q 0.606115,0.72734 0.727338,1.5759 -0.727338,0.24245 -1.2122299,0.24245 -1.9395677,-0.24245 -3.6366893,-1.81835 -1.5758987,-1.69712 -1.5758987,-3.03057 0,-1.33346 1.8183446,-1.33346 0.3636689,0 0.7273379,0.12123 0.4848919,0 1.0910068,0.12122 1.8183446,0.60612 3.7579126,2.18201 2.06079,1.5759 2.06079,3.63669 v 0.12123 q 0,1.93956 -0.969784,3.51546 -0.969783,1.5759 -1.333452,2.54569 -1.21223,2.06079 -1.21223,3.39424 0.121223,2.42446 1.697122,5.09136 1.575898,2.66691 4.727696,4.36403 l 0.363669,1.5759 q -0.969784,-0.48489 -2.909352,-1.69712 -1.939567,-1.33345 -3.636689,-2.30324 l -1.4546758,-1.09101 q 1.2122298,1.69713 1.6971218,3.27303 0.484892,1.57589 0.606115,2.90935 -0.242446,0.96978 -0.363669,1.69712 0,0.60611 -0.242446,1.33345 -0.242446,0.60612 -0.848561,1.45468 -0.4848919,0.72733 -1.6971217,1.81834 -0.8485608,0.84856 -1.6971217,1.69712 -0.8485608,0.84856 -1.0910067,1.93957 0.2424459,0.96978 1.4546757,1.81835 1.2122297,0.84856 2.5456825,0.96978 1.5758989,0 2.1820139,-1.33345 0,-0.4849 -0.484892,-0.72734 -0.363669,-0.36367 -0.727338,-0.48489 -0.9697839,0 -1.2122299,1.33345 z m 4.6064729,-52.12588 -4.000358,-15.39532 -3.7579123,15.39532 3.1517974,-5.33381 v 86.67443 h 1.3334529 v -86.55321 z"
           style="font-style:normal;font-variant:normal;font-weight:normal;font-stretch:normal;font-family:'ESRI North';-inkscape-font-specification:'ESRI North, ';stroke-width:26.18663406"
           id="path2606" />
      </g>
    </g>
  </g>
</svg>
