<?xml version="1.0" encoding="iso-8859-1"?>
<!-- Generator: Adobe Illustrator 19.0.0, SVG Export Plug-In . SVG Version: 6.00 Build 0)  -->
<svg version="1.1" id="Layer_1" xmlns="http://www.w3.org/2000/svg" xmlns:xlink="http://www.w3.org/1999/xlink" x="0px" y="0px"
	 viewBox="0 0 512.004 512.004" style="enable-background:new 0 0 512.004 512.004;" xml:space="preserve">
<g>
	<g>
		<path d="M451.709,500.446L399.63,363.145c23.262-31.13,35.576-68.164,35.576-107.145c0-84.693-60.006-158.362-142.763-175.462
			L263.984,5.513C262.73,2.193,259.547,0,256.006,0s-6.724,2.193-7.979,5.513l-28.459,75.017
			C136.812,97.638,76.806,171.315,76.806,256c0,38.98,12.305,76.015,35.567,107.153L60.294,500.446
			c-1.476,3.883,0.06,8.269,3.644,10.377c3.593,2.116,8.166,1.323,10.846-1.843l85.786-101.385
			c28.57,18.014,61.457,27.605,95.437,27.605c33.971,0,66.859-9.591,95.428-27.605l85.786,101.385
			c1.681,1.971,4.079,3.021,6.528,3.021c1.476,0,2.978-0.384,4.326-1.178C451.658,508.706,453.185,504.329,451.709,500.446z
			 M418.139,256c0,31.522-8.934,61.619-25.856,87.774l-7.791-20.531c10.82-20.642,16.58-43.802,16.58-67.243
			c0-59.964-37.547-114.304-93.508-135.595l-7.757-20.463C369.013,119.33,418.139,183.125,418.139,256z M384.006,256
			c0,15.292-2.799,30.43-8.081,44.646l-59.767-157.568C357.305,165.086,384.006,208.521,384.006,256z M256.006,294.81l61.918,73.173
			c-37.76,20.855-86.076,20.855-123.836,0.009L256.006,294.81z M93.872,256c0-72.866,49.135-136.661,118.34-156.058l-7.757,20.463
			c-55.979,21.299-93.517,75.631-93.517,135.595c0,22.246,4.907,43.605,14.583,63.462c0.563,1.161,1.408,2.065,2.347,2.825
			l-8.149,21.487C102.807,317.628,93.872,287.531,93.872,256z M195.846,143.078l-59.75,157.534
			c-5.308-14.217-8.09-29.15-8.09-44.612C128.006,208.521,154.698,165.086,195.846,143.078z M93.898,459.972L247.472,55.091v223.377
			L93.898,459.972z M256.006,418.133c-29.935,0-58.923-8.243-84.275-23.723l11.204-13.244c0.213,0.154,0.341,0.375,0.572,0.503
			c21.939,12.689,47.019,19.396,72.499,19.396c25.498,0,50.586-6.716,72.542-19.413c0.213-0.128,0.333-0.333,0.538-0.478
			l11.196,13.235C314.92,409.882,285.941,418.133,256.006,418.133z M264.539,278.468V55.091l153.574,404.881L264.539,278.468z"/>
	</g>
</g>
<g>
</g>
<g>
</g>
<g>
</g>
<g>
</g>
<g>
</g>
<g>
</g>
<g>
</g>
<g>
</g>
<g>
</g>
<g>
</g>
<g>
</g>
<g>
</g>
<g>
</g>
<g>
</g>
<g>
</g>
</svg>
