<?xml version="1.0" encoding="iso-8859-1"?>
<!-- Generator: Adobe Illustrator 19.0.0, SVG Export Plug-In . SVG Version: 6.00 Build 0)  -->
<svg version="1.1" id="Layer_1" xmlns="http://www.w3.org/2000/svg" xmlns:xlink="http://www.w3.org/1999/xlink" x="0px" y="0px"
	 viewBox="0 0 512 512" style="enable-background:new 0 0 512 512;" xml:space="preserve">
<g>
	<g>
		<path d="M256,0C114.842,0,0,114.842,0,256s114.842,256,256,256s256-114.842,256-256S397.158,0,256,0z M256,494.933
			C124.254,494.933,17.067,387.746,17.067,256S124.254,17.067,256,17.067S494.933,124.254,494.933,256S387.746,494.933,256,494.933z
			"/>
	</g>
</g>
<g>
	<g>
		<path d="M256,42.667C138.368,42.667,42.667,138.368,42.667,256S138.368,469.333,256,469.333S469.333,373.632,469.333,256
			S373.632,42.667,256,42.667z M451.063,234.505L268.834,60.203C363.947,66.372,440.781,140.561,451.063,234.505z M243.166,60.203
			L60.937,234.505C71.219,140.561,148.053,66.372,243.166,60.203z M256,452.267C147.772,452.267,59.733,364.22,59.733,256h392.533
			C452.267,364.22,364.228,452.267,256,452.267z"/>
	</g>
</g>
<g>
</g>
<g>
</g>
<g>
</g>
<g>
</g>
<g>
</g>
<g>
</g>
<g>
</g>
<g>
</g>
<g>
</g>
<g>
</g>
<g>
</g>
<g>
</g>
<g>
</g>
<g>
</g>
<g>
</g>
</svg>
