<?xml version="1.0" encoding="iso-8859-1"?>
<!-- Generator: Adobe Illustrator 18.0.0, SVG Export Plug-In . SVG Version: 6.00 Build 0)  -->
<!DOCTYPE svg PUBLIC "-//W3C//DTD SVG 1.1//EN" "http://www.w3.org/Graphics/SVG/1.1/DTD/svg11.dtd">
<svg version="1.1" id="Capa_1" xmlns="http://www.w3.org/2000/svg" xmlns:xlink="http://www.w3.org/1999/xlink" x="0px" y="0px"
	 viewBox="0 0 297 297" style="enable-background:new 0 0 297 297;" xml:space="preserve">
<g>
	<path d="M297,148.5c0-4.411-2.968-8.27-7.232-9.401l-104.217-27.649L157.901,7.232C156.77,2.969,152.911,0,148.5,0
		s-8.27,2.969-9.401,7.232l-27.649,104.217L7.232,139.099C2.968,140.23,0,144.089,0,148.5s2.968,8.27,7.232,9.401l104.217,27.649
		l27.649,104.217c1.131,4.264,4.99,7.232,9.401,7.232s8.27-2.969,9.401-7.232l27.649-104.217l104.217-27.649
		C294.032,156.77,297,152.911,297,148.5z M148.5,180.111c-17.431,0-31.611-14.181-31.611-31.611s14.181-31.611,31.611-31.611
		s31.611,14.181,31.611,31.611S165.931,180.111,148.5,180.111z"/>
	<circle cx="148.5" cy="148.5" r="16.049"/>
	<path d="M198.276,98.724l27.314,7.248l29.447-50.715c2.215-3.814,1.587-8.643-1.533-11.762c-3.119-3.12-7.947-3.749-11.762-1.533
		l-50.715,29.446L198.276,98.724z"/>
	<path d="M71.409,105.972l27.314-7.248l7.247-27.314L55.256,41.962c-3.815-2.216-8.642-1.586-11.762,1.533
		c-3.12,3.119-3.749,7.947-1.533,11.762L71.409,105.972z"/>
	<path d="M225.591,191.028l-27.314,7.248l-7.248,27.315l50.715,29.446c1.523,0.886,3.208,1.315,4.881,1.315
		c2.517,0,5.007-0.975,6.881-2.849c3.12-3.119,3.748-7.947,1.533-11.762L225.591,191.028z"/>
	<path d="M98.724,198.276l-27.314-7.248l-29.448,50.715c-2.216,3.814-1.587,8.643,1.533,11.762c1.874,1.874,4.363,2.849,6.88,2.849
		c1.673,0,3.358-0.431,4.882-1.315l50.715-29.447L98.724,198.276z"/>
</g>
<g>
</g>
<g>
</g>
<g>
</g>
<g>
</g>
<g>
</g>
<g>
</g>
<g>
</g>
<g>
</g>
<g>
</g>
<g>
</g>
<g>
</g>
<g>
</g>
<g>
</g>
<g>
</g>
<g>
</g>
</svg>
