<?xml version="1.0" encoding="iso-8859-1"?>
<!-- Generator: Adobe Illustrator 19.0.0, SVG Export Plug-In . SVG Version: 6.00 Build 0)  -->
<svg version="1.1" id="Layer_1" xmlns="http://www.w3.org/2000/svg" xmlns:xlink="http://www.w3.org/1999/xlink" x="0px" y="0px"
	 viewBox="0 0 512 512" style="enable-background:new 0 0 512 512;" xml:space="preserve">
<g>
	<g>
		<path d="M256,0C114.842,0,0,114.842,0,256s114.842,256,256,256s256-114.842,256-256S397.158,0,256,0z M17.067,256
			c0-5.154,0.222-10.249,0.546-15.326L43.153,256l-25.54,15.326C17.289,266.249,17.067,261.154,17.067,256z M256,494.933
			c-5.154,0-10.249-0.222-15.326-0.546L256,468.855l15.326,25.532C266.249,494.711,261.154,494.933,256,494.933z M290.074,492.467
			l-26.752-44.587c-3.081-5.146-11.554-5.146-14.635,0l-26.752,44.587C117.402,477.474,34.526,394.598,19.533,290.074l44.587-26.752
			c2.569-1.544,4.147-4.326,4.147-7.322c0-2.995-1.579-5.777-4.139-7.313l-44.587-26.752C36.13,106.266,135.817,17.067,256,17.067
			s219.87,89.199,236.467,204.86l-44.587,26.752c-2.569,1.545-4.147,4.326-4.147,7.322c0,2.995,1.579,5.777,4.139,7.313
			l44.587,26.752C477.474,394.598,394.598,477.474,290.074,492.467z M468.847,256l25.54-15.326
			c0.324,5.077,0.546,10.172,0.546,15.326c0,5.154-0.222,10.249-0.546,15.326L468.847,256z"/>
	</g>
</g>
<g>
	<g>
		<path d="M361.097,247.902l-72.755-24.252l-22.451-67.354c5.359-4.241,10.769-6.383,16.12-6.323
			c10.675,0.307,18.705,9.182,18.756,9.233c1.664,1.92,4.045,2.927,6.443,2.927c1.596,0,3.2-0.444,4.625-1.365
			c3.567-2.313,4.89-6.886,3.115-10.743l-51.2-110.933c-1.399-3.021-4.42-4.958-7.748-4.958s-6.349,1.937-7.748,4.958l-51.2,110.933
			c-1.775,3.857-0.452,8.431,3.115,10.743c3.567,2.313,8.303,1.63,11.068-1.57c0.085-0.085,8.004-8.858,18.637-9.225
			c5.385-0.102,10.846,2.039,16.239,6.323l-22.451,67.354l-72.755,24.252c-3.49,1.169-5.837,4.42-5.837,8.098
			s2.347,6.938,5.837,8.098l72.047,24.013l8.858,47.249l-30.822,15.411c-2.893,1.442-4.719,4.395-4.719,7.629v59.733
			c0,3.072,1.647,5.914,4.326,7.424c1.306,0.742,2.756,1.109,4.207,1.109c1.519,0,3.038-0.401,4.395-1.22l35.507-21.308
			l2.918,15.556c0.742,4.045,4.275,6.972,8.38,6.972s7.637-2.927,8.38-6.963l2.918-15.556l35.507,21.308
			c1.357,0.811,2.876,1.212,4.395,1.212c1.451,0,2.901-0.367,4.207-1.109c2.68-1.51,4.326-4.352,4.326-7.424V358.4
			c0-3.234-1.826-6.187-4.719-7.637l-30.814-15.403l8.858-47.249l72.047-24.013c3.482-1.161,5.828-4.42,5.828-8.098
			S364.587,249.071,361.097,247.902z M215.108,267.511L180.582,256l34.526-11.511c-1.041,3.686-1.775,7.501-1.775,11.511
			C213.333,260.011,214.067,263.825,215.108,267.511z M230.579,132.898c-0.418,0-0.862,0.009-1.297,0.026
			c-2.022,0.068-3.985,0.307-5.854,0.666L256,63.027l32.563,70.562c-1.869-0.358-3.823-0.597-5.854-0.666
			c-9.301-0.427-18.313,2.807-26.718,9.31C247.97,136.03,239.454,132.898,230.579,132.898z M256,180.582l11.511,34.526
			c-3.686-1.041-7.501-1.775-11.511-1.775c-4.011,0-7.825,0.734-11.511,1.775L256,180.582z M213.333,403.063v-39.39l21.743-10.871
			l6.272,33.451L213.333,403.063z M256,371.831l-14.217-75.785c4.471,1.596,9.208,2.62,14.217,2.62c5.009,0,9.745-1.024,14.217-2.62
			L256,371.831z M298.667,363.674v39.39l-28.015-16.811l6.272-33.451L298.667,363.674z M256,281.6c-14.114,0-25.6-11.486-25.6-25.6
			s11.486-25.6,25.6-25.6s25.6,11.486,25.6,25.6S270.114,281.6,256,281.6z M296.892,267.511c1.041-3.686,1.775-7.501,1.775-11.511
			c0-4.011-0.734-7.825-1.775-11.511L331.418,256L296.892,267.511z"/>
	</g>
</g>
<g>
</g>
<g>
</g>
<g>
</g>
<g>
</g>
<g>
</g>
<g>
</g>
<g>
</g>
<g>
</g>
<g>
</g>
<g>
</g>
<g>
</g>
<g>
</g>
<g>
</g>
<g>
</g>
<g>
</g>
</svg>
