<?xml version="1.0" encoding="UTF-8" standalone="no"?>
<!-- Created with Inkscape (http://www.inkscape.org/) -->

<svg
   xmlns:dc="http://purl.org/dc/elements/1.1/"
   xmlns:cc="http://creativecommons.org/ns#"
   xmlns:rdf="http://www.w3.org/1999/02/22-rdf-syntax-ns#"
   xmlns:svg="http://www.w3.org/2000/svg"
   xmlns="http://www.w3.org/2000/svg"
   xmlns:sodipodi="http://sodipodi.sourceforge.net/DTD/sodipodi-0.dtd"
   xmlns:inkscape="http://www.inkscape.org/namespaces/inkscape"
   width="97.307655mm"
   height="97.684822mm"
   viewBox="0 0 97.307655 97.684822"
   version="1.1"
   id="svg845"
   inkscape:version="0.92.3 (2405546, 2018-03-11)"
   sodipodi:docname="esri_north_048_b.svg">
  <defs
     id="defs839" />
  <sodipodi:namedview
     id="base"
     pagecolor="#ffffff"
     bordercolor="#666666"
     borderopacity="1.0"
     inkscape:pageopacity="0.0"
     inkscape:pageshadow="2"
     inkscape:zoom="0.97458821"
     inkscape:cx="65.000877"
     inkscape:cy="193.15695"
     inkscape:document-units="mm"
     inkscape:current-layer="text1587"
     showgrid="false"
     inkscape:window-width="1366"
     inkscape:window-height="745"
     inkscape:window-x="0"
     inkscape:window-y="23"
     inkscape:window-maximized="1"
     fit-margin-top="0"
     fit-margin-left="0"
     fit-margin-right="0"
     fit-margin-bottom="0"
     showguides="true"
     inkscape:guide-bbox="true" />
  <metadata
     id="metadata842">
    <rdf:RDF>
      <cc:Work
         rdf:about="">
        <dc:format>image/svg+xml</dc:format>
        <dc:type
           rdf:resource="http://purl.org/dc/dcmitype/StillImage" />
        <dc:title></dc:title>
      </cc:Work>
    </rdf:RDF>
  </metadata>
  <g
     inkscape:label="Camada 1"
     inkscape:groupmode="layer"
     id="layer1"
     transform="translate(-0.38185358,-199.31378)">
    <g
       aria-label="2"
       style="font-style:normal;font-weight:normal;font-size:124.42774963px;line-height:1.25;font-family:sans-serif;letter-spacing:0px;word-spacing:0px;fill:#000000;fill-opacity:1;stroke:none;stroke-width:5.18448925"
       id="text1587">
      <g
         aria-label="?"
         style="font-style:normal;font-weight:normal;font-size:125.7204895px;line-height:1.25;font-family:sans-serif;letter-spacing:0px;word-spacing:0px;fill:#000000;fill-opacity:1;stroke:none;stroke-width:27.15818787"
         id="text1792">
        <path
           d="m 95.803705,248.47049 -16.343664,12.69777 v -9.42904 H 62.990657 v 6.78891 h -7.79467 v 20.49244 h 7.166068 L 51.172931,294.86135 38.600882,279.02057 h 8.297553 v -20.49244 h -8.297553 v -6.78891 H 22.005778 v 9.42904 L 5.0335117,249.60197 22.005778,235.01839 v 10.30909 h 16.595104 v -7.16607 h 8.297553 v -21.24677 h -8.297553 l 12.572049,-15.84078 10.686242,15.84078 h -6.663186 v 21.24677 h 7.79467 v 7.16607 h 16.469384 v -10.56053 z m 1.885807,0 -19.612396,-15.9665 v 1.2572 l -1.885807,-1.2572 v 11.31484 H 64.499303 v -7.16607 h -7.79467 v -18.60663 h 7.79467 l -13.326372,-18.73235 -1.382925,1.38292 -0.880043,-1.38292 -14.206416,18.73235 h 9.051875 v 18.60663 h -9.051875 v 7.16607 H 23.388703 v -11.31484 l -3.520174,2.5144 v -2.5144 L 0.38185358,249.85341 19.868529,263.80839 v -2.64013 l 3.520174,2.64013 v -10.68624 h 11.314844 v 6.53746 h 9.051875 v 18.35519 h -9.051875 l 14.206416,18.9838 1.131484,-1.38293 1.131484,1.38293 13.326372,-18.9838 h -7.79467 v -18.35519 h 7.79467 v -6.53746 h 11.692006 v 10.68624 l 1.885807,-1.88581 v 1.88581 z"
           style="font-style:normal;font-variant:normal;font-weight:normal;font-stretch:normal;font-family:'ESRI North';-inkscape-font-specification:'ESRI North, ';stroke-width:27.15818787"
           id="path4628"
           inkscape:connector-curvature="0" />
      </g>
    </g>
  </g>
</svg>
