<?xml version="1.0" encoding="iso-8859-1"?>
<!-- Generator: Adobe Illustrator 17.1.0, SVG Export Plug-In . SVG Version: 6.00 Build 0)  -->
<!DOCTYPE svg PUBLIC "-//W3C//DTD SVG 1.1//EN" "http://www.w3.org/Graphics/SVG/1.1/DTD/svg11.dtd">
<svg version="1.1" id="Capa_1" xmlns="http://www.w3.org/2000/svg" xmlns:xlink="http://www.w3.org/1999/xlink" x="0px" y="0px"
	 viewBox="0 0 284.371 284.371" style="enable-background:new 0 0 284.371 284.371;" xml:space="preserve">
<path d="M284.371,142.186c0,7.035-4.89,13.125-11.759,14.646l-71.415,15.805l13.03,20.436c3.783,5.933,2.934,13.696-2.041,18.671
	c-2.896,2.896-6.737,4.394-10.611,4.394c-2.782,0-5.58-0.771-8.06-2.353l-20.739-13.223l-15.946,72.051
	c-1.521,6.869-7.61,11.759-14.646,11.759s-13.126-4.89-14.646-11.759l-15.836-71.556l-19.963,12.728
	c-5.935,3.784-13.697,2.935-18.671-2.041c-4.975-4.975-5.823-12.738-2.041-18.671l12.92-20.265l-72.191-15.977
	C4.89,155.311,0,149.221,0,142.186s4.89-13.125,11.759-14.646l72.191-15.977l-12.92-20.265c-3.782-5.933-2.934-13.696,2.041-18.671
	c4.976-4.975,12.739-5.823,18.671-2.041l19.963,12.728l15.836-71.556C129.06,4.89,135.15,0,142.186,0s13.125,4.89,14.646,11.759
	l15.946,72.051l20.739-13.223c5.935-3.783,13.697-2.935,18.671,2.041c4.975,4.975,5.824,12.738,2.041,18.671l-13.03,20.436
	l71.415,15.805C279.481,129.061,284.371,135.15,284.371,142.186z"/>
<g>
</g>
<g>
</g>
<g>
</g>
<g>
</g>
<g>
</g>
<g>
</g>
<g>
</g>
<g>
</g>
<g>
</g>
<g>
</g>
<g>
</g>
<g>
</g>
<g>
</g>
<g>
</g>
<g>
</g>
</svg>
