<?xml version="1.0" encoding="UTF-8" standalone="no"?>
<!-- Created with Inkscape (http://www.inkscape.org/) -->

<svg
   xmlns:dc="http://purl.org/dc/elements/1.1/"
   xmlns:cc="http://creativecommons.org/ns#"
   xmlns:rdf="http://www.w3.org/1999/02/22-rdf-syntax-ns#"
   xmlns:svg="http://www.w3.org/2000/svg"
   xmlns="http://www.w3.org/2000/svg"
   xmlns:sodipodi="http://sodipodi.sourceforge.net/DTD/sodipodi-0.dtd"
   xmlns:inkscape="http://www.inkscape.org/namespaces/inkscape"
   width="10.343333"
   height="102.71319"
   id="svg2"
   version="1.1"
   inkscape:version="0.48.2 r9819"
   sodipodi:docname="esri_#.svg">
  <defs
     id="defs4" />
  <sodipodi:namedview
     id="base"
     pagecolor="#ffffff"
     bordercolor="#666666"
     borderopacity="1.0"
     inkscape:pageopacity="0.0"
     inkscape:pageshadow="2"
     inkscape:zoom="2.7675795"
     inkscape:cx="23.663597"
     inkscape:cy="67.97554"
     inkscape:document-units="px"
     inkscape:current-layer="layer1"
     showgrid="false"
     fit-margin-top="0"
     fit-margin-left="0"
     fit-margin-right="0"
     fit-margin-bottom="0"
     inkscape:window-width="1366"
     inkscape:window-height="744"
     inkscape:window-x="0"
     inkscape:window-y="24"
     inkscape:window-maximized="1" />
  <metadata
     id="metadata7">
    <rdf:RDF>
      <cc:Work
         rdf:about="">
        <dc:format>image/svg+xml</dc:format>
        <dc:type
           rdf:resource="http://purl.org/dc/dcmitype/StillImage" />
        <dc:title></dc:title>
      </cc:Work>
    </rdf:RDF>
  </metadata>
  <g
     inkscape:label="Camada 1"
     inkscape:groupmode="layer"
     id="layer1"
     transform="translate(-732.90631,-49.882927)">
    <g
       id="g3281">
      <g
         id="g3275">
        <g
           transform="translate(730.7378,22.364393)"
           style="font-size:144px;font-style:normal;font-variant:normal;font-weight:normal;font-stretch:normal;line-height:125%;letter-spacing:0px;word-spacing:0px;fill:#000000;fill-opacity:1;stroke:none;font-family:Arial;-inkscape-font-specification:Arial"
           id="text3261">
          <path
             d="m 8.0719595,82.42372 c 1.055993,0.192048 1.9199921,0.720047 2.5919995,1.584 0.767991,0.768045 1.151991,1.680045 1.152,2.736 -9e-6,1.152042 -0.384009,2.160041 -1.152,3.024 -0.7680073,0.76804 -1.7280063,1.200039 -2.8799995,1.296 l 4.0319995,39.168 -4.4639995,-2.16 -4.464,2.16 4.32,-39.168 c -1.056004,-0.09596 -2.0160031,-0.52796 -2.88,-1.296 -0.7680014,-0.863959 -1.1520011,-1.871958 -1.152,-3.024 -1.1e-6,-1.055955 0.3359986,-1.967955 1.008,-2.736 0.7679972,-0.863953 1.6799963,-1.391952 2.736,-1.584 l 0,-5.472 -3.456,1.584 3.888,-31.968 3.8879995,31.968 -3.1679995,-1.584 0,5.472 m -0.72,44.928 3.8879995,1.872 -3.7439995,-34.704 -0.144,0 0,32.832 m 0,-76.032 -3.312,25.92 3.312,-1.296 0,-24.624 m -3.744,35.568 c -1.5e-6,1.056042 0.3359982,1.968041 1.008,2.736 0.7679967,0.67204 1.6799958,1.00804 2.736,1.008 l 0,-3.744 -3.744,0 m 7.9199995,-0.432 c -0.09601,-1.055955 -0.480008,-1.919954 -1.152,-2.592 -0.6720071,-0.671953 -1.5360062,-1.055953 -2.5919995,-1.152 l 0,3.744 3.7439995,0"
             style="font-family:ESRI North;-inkscape-font-specification:ESRI North"
             id="path3266"
             inkscape:connector-curvature="0"
             sodipodi:nodetypes="ccccccccccsccccccccccccccccccccccccccc" />
        </g>
        <g
           transform="matrix(0.1273638,0,0,0.14564436,745.31527,43.296902)"
           style="font-size:144px;font-style:normal;font-variant:normal;font-weight:normal;font-stretch:normal;line-height:125%;letter-spacing:0px;word-spacing:0px;fill:#000000;fill-opacity:1;stroke:none;font-family:Arial;-inkscape-font-specification:Arial"
           id="text3268">
          <path
             d="m -97.429222,148.29803 0,-103.07812 13.992187,0 54.140625,80.92969 0,-80.92969 13.078125,0 0,103.07812 -13.992187,0 -54.140625,-80.999995 0,80.999995 -13.078125,0"
             id="path3273"
             inkscape:connector-curvature="0" />
        </g>
      </g>
    </g>
  </g>
</svg>
