<?xml version="1.0" encoding="iso-8859-1"?>
<!-- Generator: Adobe Illustrator 19.0.0, SVG Export Plug-In . SVG Version: 6.00 Build 0)  -->
<svg version="1.1" id="Layer_1" xmlns="http://www.w3.org/2000/svg" xmlns:xlink="http://www.w3.org/1999/xlink" x="0px" y="0px"
	 viewBox="0 0 511.996 511.996" style="enable-background:new 0 0 511.996 511.996;" xml:space="preserve">
<g>
	<g>
		<path d="M264.535,380.41v-22.511c52.492-4.362,93.904-48.403,93.904-102.006s-41.412-97.643-93.904-102.006v-40.182l74.381,22.315
			c0.811,0.239,1.631,0.359,2.45,0.359c2.706,0,5.31-1.289,6.94-3.568c2.126-2.971,2.126-6.957,0-9.928L262.938,3.368
			c-3.21-4.49-10.688-4.49-13.898,0l-85.367,119.514c-2.117,2.971-2.117,6.957,0,9.928c2.126,2.971,5.916,4.251,9.399,3.21
			l74.389-22.315v40.183c-52.492,4.362-93.904,48.403-93.904,102.006s41.412,97.643,93.904,102.006v22.511l-74.329,74.329
			c-1.605,1.596-2.501,3.773-2.501,6.035v42.684c0,4.712,3.824,8.537,8.537,8.537h153.661c4.712,0,8.537-3.824,8.537-8.537v-42.684
			c0-2.262-0.896-4.439-2.501-6.036L264.535,380.41z M264.535,34.962l55.378,77.522l-55.378-16.604V34.962z M264.535,170.961
			c40.268,4.012,72.383,36.128,76.395,76.395h-25.858c-3.765-26.114-24.424-46.781-50.538-50.538V170.961z M264.535,214.072
			c16.698,3.406,29.879,16.587,33.285,33.285h-33.285V214.072z M264.535,264.43h33.285c-3.406,16.698-16.587,29.879-33.285,33.285
			V264.43z M264.535,314.968c26.114-3.765,46.781-24.424,50.538-50.538h25.858c-4.012,40.268-36.128,72.383-76.395,76.395V314.968z
			 M192.083,112.493l55.378-77.531v60.91L192.083,112.493z M247.461,170.953v25.858c-26.114,3.765-46.781,24.424-50.538,50.538
			h-25.858C175.078,207.089,207.193,174.973,247.461,170.953z M214.176,247.357c3.406-16.698,16.587-29.879,33.285-33.285v33.285
			H214.176z M247.461,264.43v33.285c-16.698-3.406-29.879-16.587-33.285-33.285H247.461z M171.066,264.43h25.858
			c3.765,26.114,24.424,46.781,50.538,50.538v25.858C207.193,336.813,175.078,304.698,171.066,264.43z M324.292,494.922H187.704
			v-30.613l68.294-68.294l68.294,68.294V494.922z"/>
	</g>
</g>
<g>
</g>
<g>
</g>
<g>
</g>
<g>
</g>
<g>
</g>
<g>
</g>
<g>
</g>
<g>
</g>
<g>
</g>
<g>
</g>
<g>
</g>
<g>
</g>
<g>
</g>
<g>
</g>
<g>
</g>
</svg>
