<?xml version="1.0" encoding="UTF-8" standalone="no"?>
<!-- Created with Inkscape (http://www.inkscape.org/) -->

<svg
   xmlns:dc="http://purl.org/dc/elements/1.1/"
   xmlns:cc="http://creativecommons.org/ns#"
   xmlns:rdf="http://www.w3.org/1999/02/22-rdf-syntax-ns#"
   xmlns:svg="http://www.w3.org/2000/svg"
   xmlns="http://www.w3.org/2000/svg"
   xmlns:sodipodi="http://sodipodi.sourceforge.net/DTD/sodipodi-0.dtd"
   xmlns:inkscape="http://www.inkscape.org/namespaces/inkscape"
   width="94.984123mm"
   height="98.056053mm"
   viewBox="0 0 94.984123 98.056053"
   version="1.1"
   id="svg845"
   inkscape:version="0.92.3 (2405546, 2018-03-11)"
   sodipodi:docname="esri_north_043_b.svg">
  <defs
     id="defs839" />
  <sodipodi:namedview
     id="base"
     pagecolor="#ffffff"
     bordercolor="#666666"
     borderopacity="1.0"
     inkscape:pageopacity="0.0"
     inkscape:pageshadow="2"
     inkscape:zoom="0.97458821"
     inkscape:cx="62.393434"
     inkscape:cy="181.91799"
     inkscape:document-units="mm"
     inkscape:current-layer="text1587"
     showgrid="false"
     inkscape:window-width="1366"
     inkscape:window-height="745"
     inkscape:window-x="0"
     inkscape:window-y="23"
     inkscape:window-maximized="1"
     fit-margin-top="0"
     fit-margin-left="0"
     fit-margin-right="0"
     fit-margin-bottom="0"
     showguides="true"
     inkscape:guide-bbox="true" />
  <metadata
     id="metadata842">
    <rdf:RDF>
      <cc:Work
         rdf:about="">
        <dc:format>image/svg+xml</dc:format>
        <dc:type
           rdf:resource="http://purl.org/dc/dcmitype/StillImage" />
        <dc:title></dc:title>
      </cc:Work>
    </rdf:RDF>
  </metadata>
  <g
     inkscape:label="Camada 1"
     inkscape:groupmode="layer"
     id="layer1"
     transform="translate(-0.38185358,-198.94254)">
    <g
       aria-label="2"
       style="font-style:normal;font-weight:normal;font-size:124.42774963px;line-height:1.25;font-family:sans-serif;letter-spacing:0px;word-spacing:0px;fill:#000000;fill-opacity:1;stroke:none;stroke-width:5.18448925"
       id="text1587">
      <g
         aria-label="."
         style="font-style:normal;font-weight:normal;font-size:122.8772583px;line-height:1.25;font-family:sans-serif;letter-spacing:0px;word-spacing:0px;fill:#000000;fill-opacity:1;stroke:none;stroke-width:26.543993"
         id="text1792">
        <path
           d="m 83.201126,247.47906 -19.783239,-5.89811 q -2.088913,-5.89811 -8.109899,-8.60141 l -5.652354,-20.39762 -5.652354,20.5205 q -2.703299,1.1059 -4.669336,3.07193 -1.966036,1.96604 -3.56344,5.52948 l -19.537484,5.77523 19.537484,6.02099 q 1.843159,5.4066 8.232776,8.35565 l 5.652354,20.15187 5.898109,-20.15187 q 4.792213,-2.08891 7.864144,-8.47853 z m -20.028993,0 q 0,6.02099 -3.932073,9.95306 -4.054949,4.17783 -9.584426,4.17783 -5.652354,0 -9.461549,-4.17783 -3.809195,-3.8092 -3.809195,-9.95306 0,-5.65235 3.809195,-9.83018 3.809195,-4.17783 9.461549,-4.17783 5.529477,0 9.584426,4.17783 3.932073,4.17783 3.932073,9.83018 z m -1.474528,-0.12288 q -0.614386,-0.86014 -0.983018,-2.08891 -0.245754,-1.35165 -0.491509,-2.7033 -0.122877,-1.35165 -0.491509,-2.58042 -0.368631,-1.22877 -1.105895,-1.96604 -0.860141,-0.73726 -2.088913,-1.10589 -1.228773,-0.49151 -2.580423,-0.73727 -1.228772,-0.36863 -2.457545,-0.73726 -1.105895,-0.49151 -1.843159,-1.22877 v 13.14786 z M 49.655634,260.62693 V 247.35618 H 37.490786 l 0.368631,0.36864 2.826177,9.21579 q 0.737264,0.73726 1.966036,1.22877 1.35165,0.36863 2.580423,0.61439 1.35165,0.24575 2.457545,0.73726 1.228773,0.36863 1.966036,1.1059 z M 15.250002,241.94958 h -3.194809 v 0.24576 q 0.614386,0 0.737264,0.12288 0.368631,0.36863 0.368631,0.73726 0,0.24575 -0.122877,0.49151 0,0.24575 -0.122877,0.86014 l -2.211791,5.89811 -1.9660359,-5.77523 q -0.3686317,-1.1059 -0.3686317,-1.47453 0,-0.86014 0.8601408,-0.86014 h 0.2457545 v -0.24576 H 5.2969439 v 0.24576 q 0.2457545,0 0.3686318,0.12288 0,0 0.3686318,0.36863 0.2457545,0 0.2457545,0.24575 0.2457545,0.12288 0.491509,0.61439 l 0.6143863,1.84316 -1.4745271,5.16084 -2.0889134,-6.14386 q -0.3686318,-1.1059 -0.3686318,-1.35165 0,-0.86014 0.7372636,-0.86014 h 0.2457545 v -0.24576 H 0.38185358 v 0.24576 q 0.98301802,0 1.22877262,0.73726 0.1228772,0.24576 0.3686317,1.1059 l 3.317686,9.09291 h 0.6143863 l 1.8431589,-6.51249 2.3346679,6.51249 h 0.245755 l 3.317685,-8.72428 q 0.245755,-1.22877 0.368632,-1.35165 0.614387,-0.86014 1.228773,-0.86014 z M 55.185111,198.94254 H 51.62167 v 0.36864 q 0.860141,0 1.228773,0.4915 0.122877,0.12288 0.122877,1.35165 v 4.30071 l -5.160845,-6.5125 h -3.932072 v 0.36864 q 0.860141,0.24575 1.474527,0.73726 l 0.245755,0.36863 v 7.61839 q 0,1.59741 -1.474527,1.59741 v 0.24575 h 3.56344 v -0.24575 h -0.245754 q -0.49151,0 -0.860141,-0.24576 -0.368632,-0.36863 -0.368632,-1.35165 v -6.75825 l 7.126881,8.84716 h 0.368632 v -8.97004 q 0,-1.10589 0.122877,-1.22877 0.122877,-0.24575 0.983018,-0.49151 l 0.368632,-0.12287 z m 25.435592,48.53652 H 64.64666 q 0,-1.96604 -0.737264,-5.16084 z m -26.049979,14.62239 -4.91509,17.3257 v -16.58843 q 1.105895,0 2.334668,-0.12288 1.228773,-0.12288 2.580422,-0.61439 z m -18.923097,-9.58442 -16.834185,-5.03797 h 15.974044 q 0,1.22877 0.245754,2.45755 0.245755,1.10589 0.614387,2.58042 z m 14.008007,-20.64338 q -3.071931,0 -4.792213,0.98302 l 4.792213,-17.44857 z m 45.71034,18.18583 h -0.368632 q -0.368631,0.49151 -0.614386,0.98302 -0.245754,0.36863 -0.491509,0.61439 -0.614386,0.61438 -2.088913,0.61438 h -2.334668 q -0.368632,0 -0.368632,-0.61438 v -4.30071 h 2.457545 q 0.983018,0 1.228773,0.73727 0.122877,0.12287 0.122877,0.36863 0,0.36863 0.122877,0.49151 h 0.368632 v -3.68632 h -0.368632 q -0.245754,1.1059 -0.491509,1.35165 -0.245754,0.24575 -0.983018,0.24575 h -2.457545 v -4.3007 h 2.949054 q 0.860141,0 0.983018,0.12288 0.491509,0.12288 1.105896,1.72028 h 0.368631 l -0.122877,-2.45755 h -8.478531 v 0.24576 h 0.368632 q 0.860141,0 0.983018,0.49151 0.245755,0.24575 0.245755,1.10589 v 7.12688 q 0,1.35165 -0.491509,1.47453 -0.122878,0.12288 -0.737264,0.12288 h -0.368632 v 0.36863 h 8.355654 z m -41.778268,43.99006 q 0,-1.10589 -0.737263,-1.72028 -0.614386,-0.73726 -2.457545,-1.84316 -1.105896,-0.61438 -1.597405,-1.10589 -0.491509,-0.49151 -0.614386,-0.61439 -0.368632,-1.22877 -0.368632,-0.86014 0,-1.72028 1.720282,-1.72028 2.211791,0 2.949054,3.19481 h 0.245755 v -3.8092 h -0.245755 q -0.245754,0.73726 -0.614386,0.73726 -0.491509,0 -0.614386,-0.12287 -0.983019,-0.61439 -1.843159,-0.61439 -1.35165,0 -2.211791,0.86014 -0.737264,0.86014 -0.737264,2.08892 0,1.5974 1.105896,2.33466 0.737263,0.49151 1.966036,1.35165 1.35165,0.73727 1.597404,0.98302 0.983018,0.86014 0.983018,1.59741 0,1.72028 -2.21179,1.72028 -1.597405,0 -2.211791,-0.61439 -0.614386,-0.73726 -0.860141,-2.58042 h -0.245754 v 3.68632 h 0.245754 q 0,-0.61439 0.368632,-0.61439 l 1.966036,0.61439 h 0.983018 q 1.474527,0 2.457545,-0.86014 0.983018,-0.86015 0.983018,-2.08892 z"
           style="font-style:normal;font-variant:normal;font-weight:normal;font-stretch:normal;font-family:'ESRI North';-inkscape-font-specification:'ESRI North, ';stroke-width:26.543993"
           id="path4328" />
      </g>
    </g>
  </g>
</svg>
