<?xml version="1.0" standalone="no"?>
<!DOCTYPE svg PUBLIC "-//W3C//DTD SVG 20010904//EN"
 "http://www.w3.org/TR/2001/REC-SVG-20010904/DTD/svg10.dtd">
<svg version="1.0" xmlns="http://www.w3.org/2000/svg"
 width="1202.000000pt" height="1280.000000pt" viewBox="0 0 1202.000000 1280.000000"
 preserveAspectRatio="xMidYMid meet">
<g transform="translate(0.000000,1280.000000) scale(0.100000,-0.100000)"
fill="#000000" stroke="none">
<path d="M5585 12651 c-56 -10 -62 -15 -67 -62 -3 -38 0 -44 40 -80 79 -69 82
-81 82 -346 0 -267 -3 -283 -76 -349 -29 -27 -44 -49 -44 -65 0 -62 47 -79
215 -78 130 0 176 13 189 51 12 35 -3 64 -53 100 -59 42 -74 85 -74 205 0 78
3 107 17 127 36 55 63 31 259 -232 158 -212 195 -248 246 -241 13 2 33 17 45
32 20 27 21 43 26 370 6 379 3 363 77 435 51 49 55 83 13 113 -32 23 -150 34
-255 24 -63 -6 -83 -12 -101 -31 -36 -35 -30 -58 27 -111 28 -27 58 -62 65
-80 18 -41 18 -179 1 -213 -31 -61 -68 -31 -236 194 -135 180 -160 209 -201
224 -37 14 -148 22 -195 13z m912 -78 c-3 -10 -5 -4 -5 12 0 17 2 24 5 18 2
-7 2 -21 0 -30z m-580 -845 c-3 -7 -5 -2 -5 12 0 14 2 19 5 13 2 -7 2 -19 0
-25z"/>
<path d="M5501 12584 c0 -11 3 -14 6 -6 3 7 2 16 -1 19 -3 4 -6 -2 -5 -13z"/>
<path d="M5951 11482 c-88 -227 -149 -314 -307 -437 -46 -36 -84 -70 -84 -74
0 -4 20 -72 45 -151 l46 -144 -19 -26 c-13 -16 -28 -24 -43 -22 -138 16 -215
-8 -265 -80 -25 -36 -29 -51 -29 -112 0 -113 46 -171 146 -186 48 -7 49 -8 16
-9 -24 -1 -36 -5 -32 -12 9 -14 -23 -49 -45 -49 -21 0 -254 -45 -340 -66 -486
-118 -944 -317 -1351 -586 -242 -161 -396 -286 -618 -503 -696 -680 -1125
-1567 -1236 -2555 -8 -69 -15 -152 -15 -185 -1 -112 -29 -136 -195 -165 -66
-11 -144 -25 -173 -31 l-53 -11 3 -46 c3 -53 -18 -45 215 -85 193 -34 191 -32
204 -210 76 -1065 567 -2081 1348 -2792 707 -645 1574 -1019 2538 -1096 84 -6
150 -16 147 -20 -3 -5 -1 -9 4 -9 23 0 41 -56 66 -200 36 -207 29 -192 84
-188 53 3 45 -18 85 214 34 191 28 186 223 203 189 16 387 44 539 76 1129 238
2099 914 2707 1885 362 579 571 1219 629 1923 15 183 12 180 203 214 232 40
211 32 214 85 2 38 0 47 -15 52 -21 6 -307 56 -323 56 -5 0 -23 12 -39 28 -27
26 -29 33 -40 167 -52 622 -214 1174 -499 1698 -608 1121 -1696 1905 -2952
2128 -122 22 -171 44 -155 69 4 6 -10 11 -32 11 -35 1 -34 2 13 9 58 9 81 19
110 52 63 70 56 219 -12 279 -55 48 -142 68 -212 50 -35 -10 -45 -9 -57 3 -8
8 -15 20 -15 26 0 6 -4 8 -10 5 -14 -9 -15 -12 35 147 25 78 45 148 45 155 0
7 -45 49 -101 94 -148 120 -202 199 -293 434 -26 66 -48 120 -49 121 -1 2 -26
-59 -56 -134z m-363 -1674 c7 -7 12 -9 12 -4 0 4 12 -6 26 -23 14 -17 43 -36
65 -42 21 -7 39 -16 39 -21 0 -5 5 -6 12 -2 7 5 8 3 4 -5 -5 -8 0 -14 13 -18
11 -3 18 -9 15 -15 -3 -5 -1 -14 4 -21 7 -8 4 -51 -10 -132 -17 -108 -22 -123
-51 -152 -19 -21 -41 -33 -57 -33 -34 0 -213 -27 -310 -46 -566 -114 -1081
-366 -1525 -746 -53 -45 -105 -83 -117 -85 -12 -2 -24 -5 -26 -8 -3 -2 -18 3
-35 11 -29 15 -31 15 -61 -15 -30 -31 -30 -31 -13 -61 13 -21 15 -35 8 -47 -5
-10 -8 -21 -8 -25 1 -3 -36 -50 -82 -105 -438 -510 -700 -1100 -785 -1762 -8
-62 -16 -114 -18 -115 -2 0 -14 -11 -28 -23 -20 -17 -62 -28 -209 -52 -101
-17 -187 -31 -190 -31 -3 0 -19 11 -35 25 l-30 25 13 123 c97 948 524 1806
1211 2435 552 506 1208 828 1945 957 150 27 206 30 223 13z m1000 -4 c1318
-211 2406 -1057 2933 -2279 145 -336 258 -783 285 -1127 8 -103 2 -130 -31
-152 -24 -16 -36 -15 -210 14 -207 34 -211 35 -244 66 -21 19 -27 42 -47 181
-31 220 -66 369 -134 573 -141 426 -346 787 -638 1129 -45 52 -79 97 -77 101
2 3 0 12 -5 20 -5 9 -1 27 13 52 l22 37 -32 32 -31 32 -34 -21 c-24 -14 -39
-18 -55 -11 -13 4 -23 6 -23 4 0 -3 -60 45 -132 106 -517 434 -1069 678 -1743
770 -80 11 -93 16 -114 41 -47 58 -76 318 -35 318 6 0 14 8 17 19 3 12 17 21
40 25 21 4 48 20 64 36 15 17 34 30 40 30 7 0 13 5 13 10 0 14 45 12 158 -6z
m-1020 -1160 c-3 -3 5 -16 19 -30 18 -18 23 -32 19 -52 -3 -15 -12 -71 -22
-124 -9 -54 -20 -95 -25 -92 -5 3 -9 0 -9 -6 0 -5 -13 -9 -30 -8 -27 2 -33 10
-85 123 -56 124 -62 140 -46 130 5 -3 12 4 16 15 7 23 56 38 154 49 8 0 12 -2
9 -5z m978 -15 c32 -8 49 -19 56 -35 6 -13 15 -21 19 -18 16 9 9 -9 -44 -125
-45 -98 -56 -115 -78 -118 -39 -5 -57 23 -74 121 -20 115 -19 128 6 160 23 29
46 32 115 15z m-1283 -76 c9 -3 17 -13 17 -22 0 -9 18 -198 39 -421 36 -373
38 -405 22 -417 -9 -7 -24 -13 -34 -13 -11 0 -16 -5 -12 -12 9 -17 16 -26
-265 312 -322 387 -291 345 -274 379 10 21 41 41 126 81 135 64 327 132 348
124 8 -4 23 -9 33 -11z m1634 -24 c97 -34 346 -149 338 -157 -2 -2 2 -17 10
-32 14 -27 12 -29 -251 -347 -249 -302 -266 -321 -291 -314 -52 14 -52 6 -13
404 26 256 30 297 36 370 6 70 9 79 33 92 36 19 38 19 138 -16z m-2257 -252
c1 19 25 -40 116 -283 105 -281 117 -317 104 -309 -4 3 -10 -2 -14 -10 -3 -8
-13 -15 -21 -15 -9 0 -13 -5 -9 -11 12 -19 -23 4 -266 178 l-235 168 -3 41
c-3 38 1 45 40 79 24 20 89 68 146 106 86 57 106 67 123 59 10 -6 19 -7 19 -3z
m2756 -16 c22 8 37 1 114 -52 49 -33 109 -78 135 -101 42 -37 46 -44 43 -81
-3 -40 -6 -43 -133 -134 -330 -237 -341 -244 -368 -234 -14 6 -28 18 -31 29
-4 11 25 101 70 223 117 315 137 365 141 352 3 -9 12 -9 29 -2z m-3183 -771
c175 -245 197 -277 178 -266 -6 4 -11 0 -11 -9 0 -8 -7 -18 -15 -21 -8 -4 -12
-10 -9 -15 7 -12 1 -11 -43 6 -21 8 -135 50 -253 94 -269 99 -302 112 -296
119 3 2 1 13 -4 23 -8 14 4 39 59 121 38 57 85 122 105 144 32 37 40 41 78 40
l43 -1 168 -235z m3863 183 c19 -23 61 -81 94 -129 53 -77 59 -91 54 -123 -3
-20 -9 -39 -12 -43 -6 -6 -378 -147 -500 -189 -29 -10 -50 -14 -47 -9 4 6 -1
10 -10 10 -8 0 -19 10 -24 23 -10 26 -23 4 181 292 l150 210 40 -1 c34 0 45
-6 74 -41z m-4034 -649 c325 -270 337 -282 304 -326 -11 -15 -23 -16 -102 -8
-49 5 -143 14 -209 20 -66 6 -160 15 -210 20 -49 5 -144 14 -211 21 -120 12
-121 12 -132 41 -9 24 -7 42 9 93 42 138 162 400 178 391 5 -3 14 1 21 9 7 8
18 11 25 7 7 -4 154 -124 327 -268z m4291 233 c10 9 108 -203 151 -327 32 -89
35 -108 25 -127 -7 -13 -16 -23 -21 -23 -5 0 -7 -4 -4 -9 7 -10 -34 -17 -184
-30 -265 -25 -539 -51 -584 -57 -31 -4 -46 -3 -42 4 3 5 -1 12 -9 16 -9 3 -14
16 -13 32 3 28 -4 22 451 397 172 142 178 146 201 132 12 -8 26 -12 29 -8z
m-4750 -652 c105 -48 123 -59 125 -80 1 -13 -3 -27 -8 -30 -6 -4 -8 -10 -5
-15 2 -4 -39 -15 -93 -24 -53 -10 -108 -19 -122 -22 -18 -3 -35 3 -57 24 l-32
28 14 69 c13 63 26 84 48 85 5 0 5 5 2 10 -10 16 0 13 128 -45z m4962 15 c27
-16 34 -29 43 -75 10 -48 9 -58 -6 -75 -9 -11 -22 -20 -30 -20 -7 0 -11 -4 -8
-9 6 -9 2 -9 -135 15 -74 12 -96 19 -97 32 -4 36 -3 55 5 63 7 7 183 88 192
89 2 0 18 -9 36 -20z m-6067 -819 c210 -36 212 -38 231 -183 83 -649 366
-1274 800 -1765 44 -50 77 -93 74 -96 -2 -3 0 -14 5 -24 8 -14 6 -26 -10 -51
l-21 -33 33 -34 c33 -34 33 -34 59 -16 43 30 55 35 47 23 -5 -8 2 -12 19 -12
18 0 57 -26 128 -86 511 -430 1083 -682 1747 -769 63 -8 117 -20 118 -25 2 -6
9 -16 16 -23 19 -19 24 -37 56 -232 27 -164 29 -188 16 -206 -32 -47 -43 -49
-182 -34 -1304 138 -2434 918 -3020 2087 -203 405 -326 815 -379 1271 -22 180
-21 199 13 219 36 23 59 22 250 -11z m7297 17 c14 -6 28 -22 31 -35 14 -53
-21 -341 -66 -552 -208 -968 -787 -1821 -1610 -2371 -523 -349 -1103 -559
-1731 -625 -204 -21 -208 -15 -160 270 29 174 33 186 61 214 25 24 43 30 98
36 187 19 447 79 659 150 403 136 774 349 1109 636 103 89 140 100 192 62 l29
-22 33 34 33 34 -19 33 c-32 55 -24 89 37 160 308 354 532 743 671 1163 63
192 125 470 143 647 11 102 24 111 232 147 191 33 222 36 258 19z m-6191 -203
c96 -17 129 -37 123 -76 -3 -19 -24 -33 -118 -76 -116 -53 -134 -60 -125 -45
3 5 -6 15 -19 22 -17 9 -27 27 -34 62 -16 71 -14 84 15 107 32 25 45 26 158 6z
m4980 -10 c14 -13 26 -34 26 -45 0 -30 -21 -110 -29 -108 -3 1 -19 -4 -34 -10
-26 -11 -39 -7 -126 34 -102 48 -110 58 -80 101 11 16 35 25 99 36 114 20 113
20 144 -8z m-4219 -238 c39 -39 33 -46 -294 -317 -173 -144 -318 -263 -321
-265 -4 -2 -18 2 -33 10 -15 8 -27 11 -27 7 -1 -29 -117 221 -159 342 -27 77
-30 94 -20 123 6 20 19 35 32 38 31 7 701 72 760 74 29 0 54 -4 62 -12z m3747
-22 c200 -19 369 -35 376 -35 7 0 10 -4 7 -10 -3 -5 -2 -10 3 -10 5 0 15 -13
21 -28 14 -33 6 -60 -65 -234 -74 -183 -87 -204 -133 -216 l-40 -10 -218 180
c-366 303 -388 323 -390 347 -3 31 16 50 49 51 15 0 190 -16 390 -35z m-3731
-468 c39 -30 31 -48 -128 -273 -85 -120 -162 -227 -171 -236 -9 -9 -34 -18
-55 -20 -36 -2 -40 1 -93 67 -94 117 -139 192 -139 230 0 32 3 36 50 55 71 28
509 189 515 189 3 0 12 -5 21 -12z m3560 -78 c134 -50 251 -93 261 -96 9 -3
21 -23 27 -46 10 -40 9 -45 -33 -107 -24 -36 -65 -93 -92 -127 -47 -60 -51
-63 -91 -61 l-42 2 -154 216 c-85 118 -159 225 -165 237 -9 17 -8 26 9 47 11
14 24 26 28 26 5 0 118 -41 252 -91z m-3074 -410 c3 -11 9 -16 14 -14 9 6 -4
-32 -95 -280 -95 -256 -106 -282 -119 -282 -7 -1 -23 -3 -37 -4 -26 -3 -160
81 -246 155 -35 30 -41 41 -41 74 l0 39 239 170 c244 175 273 189 285 142z
m2611 -146 c202 -144 225 -166 219 -216 -4 -42 -234 -211 -275 -202 -58 11
-58 10 -150 258 -116 313 -108 282 -77 313 31 31 1 47 283 -153z m-2122 132
c4 -8 10 -12 16 -9 6 4 7 -10 4 -37 -4 -24 -20 -188 -36 -364 -41 -446 -35
-410 -76 -430 -32 -15 -38 -15 -87 1 -145 47 -396 159 -384 171 3 3 2 16 -3
29 -8 21 6 43 132 196 354 432 373 453 402 456 16 1 29 -4 32 -13z m1650 -293
l252 -303 -11 -41 c-10 -40 -13 -42 -111 -88 -229 -108 -346 -138 -363 -94 -3
8 -9 12 -13 9 -5 -3 -11 23 -14 57 -4 35 -15 151 -26 258 -43 438 -45 476 -29
493 36 40 53 24 315 -291z m-1437 -363 c2 -8 5 -8 11 1 7 12 15 -25 39 -178 4
-29 6 -50 3 -47 -3 3 -10 -5 -16 -17 -18 -36 -37 -41 -98 -29 -48 10 -59 17
-70 41 -7 16 -16 26 -20 24 -5 -3 3 21 18 53 14 32 37 83 51 114 22 50 27 56
51 53 15 -1 28 -8 31 -15z m1016 -82 l46 -98 -19 -37 c-16 -32 -26 -38 -72
-49 -53 -12 -54 -11 -82 18 -33 34 -32 31 -13 144 16 92 34 121 74 121 16 0
30 -21 66 -99z"/>
<path d="M513 6486 c-171 -42 -314 -183 -352 -347 -24 -104 -6 -236 46 -331
35 -65 134 -156 207 -191 204 -100 464 -61 617 92 253 253 127 684 -226 776
-70 18 -219 18 -292 1z m288 -242 c129 -29 208 -108 209 -207 0 -64 -18 -104
-68 -149 -60 -54 -147 -78 -281 -78 -118 0 -189 15 -256 55 -142 83 -133 270
17 346 93 48 253 62 379 33z"/>
<path d="M11742 6397 c-57 -62 -82 -67 -352 -67 -135 0 -261 5 -280 10 -20 5
-51 26 -70 45 -26 27 -42 35 -69 35 -47 0 -59 -9 -71 -51 -15 -50 -12 -625 3
-668 21 -60 54 -75 172 -79 103 -4 104 -4 130 24 22 24 25 34 20 63 -10 51
-28 71 -86 95 -77 31 -94 60 -94 157 0 72 2 81 27 106 42 42 173 47 212 7 29
-28 19 -63 -34 -116 -27 -28 -52 -64 -55 -79 -8 -33 9 -69 33 -70 9 0 69 0
134 1 137 1 174 -10 207 -64 35 -55 69 -69 168 -64 142 5 144 12 140 438 -2
155 -7 255 -14 271 -9 22 -20 28 -53 31 -34 3 -45 -1 -68 -25z m-62 -312 c76
-39 54 -195 -28 -195 -38 0 -152 106 -152 140 0 30 8 43 35 58 29 16 111 15
145 -3z"/>
<path d="M5907 1150 c-183 -47 -291 -234 -229 -398 11 -27 32 -69 49 -93 42
-61 47 -81 25 -105 -52 -55 -57 -73 -56 -189 1 -135 15 -169 72 -184 66 -17
258 -34 303 -26 150 25 253 141 253 284 -1 131 -72 228 -207 282 -183 72 -227
108 -227 183 0 53 21 82 68 97 82 24 170 -28 223 -133 37 -73 61 -98 97 -98
61 1 85 60 76 195 -7 100 -20 142 -47 157 -37 21 -343 42 -400 28z m100 -646
c29 -14 62 -38 73 -54 45 -63 8 -140 -67 -140 -72 0 -129 56 -154 152 -11 38
-10 49 1 63 18 22 76 14 147 -21z"/>
</g>
</svg>
